<svg width="839" height="669" viewBox="0 0 839 669" fill="none" xmlns="http://www.w3.org/2000/svg">
    <g clip-path="url(#clip0)">
        <path d="M839.25 669V0H0V669H839.25ZM692.7 179.2C693 184.167 693.033 189.717 692.8 195.85C692.633 200.017 692.267 205.567 691.7 212.5C691.467 215.8 689.95 219.633 687.15 224C686.183 225.467 685.633 226.85 685.5 228.15C685.4 229.383 685.65 230.867 686.25 232.6C688.683 239.8 689.767 247.417 689.5 255.45C689.267 262.483 688 270.083 685.7 278.25C683.867 284.617 681.1 291.3 677.4 298.3C674.833 303.1 671.1 309.267 666.2 316.8C660.567 325.567 656.667 334.683 654.5 344.15C653.7 347.75 653.583 350.083 654.15 351.15C654.75 352.217 657.117 354.033 661.25 356.6C673.817 346.6 683.167 335.217 689.3 322.45C691 318.917 693.483 314.6 696.75 309.5C699.95 304.6 704.767 301.683 711.2 300.75C712.367 300.583 713.533 300.133 714.7 299.4C715.933 298.633 716.85 297.783 717.45 296.85C724.517 285.65 728.617 273.317 729.75 259.85C730.183 254.817 730.4 248.667 730.4 241.4C730.333 233.2 730.317 227.05 730.35 222.95C730.35 222.25 730.317 220.667 730.25 218.2C730.183 216.233 730.2 214.65 730.3 213.45C730.567 210.05 731.133 207.383 732 205.45C733.167 202.817 735.067 200.9 737.7 199.7C743.6 197.067 749.5 198.167 755.4 203C769.533 214.6 776.75 230 777.05 249.2C777.283 262.633 775.483 275.95 771.65 289.15C768.15 301.35 762.85 313.667 755.75 326.1C755.15 327.167 753.883 328.7 751.95 330.7C745.683 337.433 742.617 344.917 742.75 353.15C742.817 356.85 741.9 360.533 740 364.2C738.6 366.867 736.367 369.983 733.3 373.55C717.033 392.483 695.483 405.117 668.65 411.45C665.983 412.083 663.683 413.083 661.75 414.45C659.85 415.817 658.133 417.683 656.6 420.05C655.633 421.55 653.867 423.833 651.3 426.9C648.8 429.9 646.933 432.35 645.7 434.25L653.85 432.8C657.117 432.2 659.8 431.583 661.9 430.95C664.467 430.183 668.083 428.917 672.75 427.15C677.683 425.283 681.283 423.983 683.55 423.25C688.85 421.617 693.717 420.617 698.15 420.25C703.35 419.783 707.5 420.667 710.6 422.9C713.7 425.167 716.183 429.05 718.05 434.55C718.55 436.05 719.2 437.233 720 438.1C720.833 439 722 439.717 723.5 440.25C729.867 442.55 735.367 446.167 740 451.1C744.167 455.5 747.733 461.067 750.7 467.8C758.667 485.7 760.3 504.767 755.6 525C752.333 539.233 744.95 549.867 733.45 556.9C732.75 557.333 732.133 558.05 731.6 559.05C731.067 560.083 730.833 561 730.9 561.8C732.4 583.3 728.7 602.5 719.8 619.4C712.367 633.6 701.3 642.067 686.6 644.8C680.567 645.9 676.25 645.033 673.65 642.2C671.017 639.333 670.583 634.983 672.35 629.15C673.017 626.917 674 624.467 675.3 621.8C676 620.4 677.25 618.05 679.05 614.75C686.717 600.517 689.933 586.1 688.7 571.5C688.567 569.833 688.233 567.867 687.7 565.6C687.133 563.167 686.733 561.45 686.5 560.45C679.833 561.983 674.883 563.117 671.65 563.85C665.95 565.117 661.167 565.933 657.3 566.3C642.033 567.733 626.517 565.467 610.75 559.5C607.45 558.267 603.4 556.417 598.6 553.95C591.367 550.25 587.367 548.217 586.6 547.85C584.6 546.917 582.933 546.583 581.6 546.85C569.7 549.25 558.633 548.383 548.4 544.25C538.967 540.417 530.133 533.733 521.9 524.2C520 522 517.767 519.217 515.2 515.85C512.333 511.983 510.133 509.067 508.6 507.1C503.667 509.467 499.95 511.25 497.45 512.45C493.017 514.583 489.317 516.417 486.35 517.95C472.05 525.45 458.117 530.783 444.55 533.95C429.55 537.483 414.667 538.467 399.9 536.9C386.7 535.5 373.733 531.55 361 525.05C352.5 520.717 343.433 514.883 333.8 507.55C329.3 504.117 320.95 497.267 308.75 487C308.05 486.4 307.1 485.667 305.9 484.8C303.9 483.3 302.717 482.417 302.35 482.15C296.95 491.25 294 496.233 293.5 497.1C290.133 503.1 287.067 508.033 284.3 511.9C280.633 517.033 276.767 521.367 272.7 524.9C263.4 533.1 254.217 536.717 245.15 535.75C240.917 535.317 237.233 535.933 234.1 537.6C231.367 539.033 228.75 541.467 226.25 544.9C221.883 550.8 217.917 555.6 214.35 559.3C209.65 564.1 204.767 567.95 199.7 570.85C195.167 573.517 190.217 575.817 184.85 577.75C183.183 578.35 181.867 579.15 180.9 580.15C180 581.117 179.25 582.45 178.65 584.15C175.217 593.917 176.433 604.167 182.3 614.9C184.033 618.033 186.35 621.867 189.25 626.4C193.95 633.8 196.35 637.583 196.45 637.75C200.817 644.917 200.983 650.583 196.95 654.75C196.15 655.55 195.183 656.233 194.05 656.8C192.85 657.4 191.717 657.717 190.65 657.75C183.85 658.117 177.567 656.933 171.8 654.2C166.267 651.567 161.367 647.567 157.1 642.2C149.3 632.367 143.567 623.217 139.9 614.75C135.367 604.183 133.417 593.517 134.05 582.75C134.417 576.883 135.017 571.95 135.85 567.95C136.983 562.683 138.7 558 141 553.9C141.367 553.233 141.567 552.333 141.6 551.2C141.6 550.533 141.533 549.533 141.4 548.2C140.633 541.1 140.883 535.15 142.15 530.35C143.783 524.25 147.217 518.9 152.45 514.3C150.15 514.3 146.933 514.183 142.8 513.95C139.333 513.85 136.567 514.1 134.5 514.7C132.967 515.167 131.45 516.367 129.95 518.3C128.517 520.167 127.617 522 127.25 523.8C126.283 528.5 125.383 533.983 124.55 540.25C124.45 541.217 123.8 546.75 122.6 556.85C122.367 558.883 122.15 561.95 121.95 566.05C121.75 570.15 121.533 573.217 121.3 575.25C121 577.783 120.367 579.8 119.4 581.3C118.233 583.2 116.483 584.467 114.15 585.1C108.717 586.6 104.2 585.383 100.6 581.45C96.8333 577.35 93.9167 572.317 91.85 566.35C90.3833 562.083 89.1333 556.45 88.1 549.45C84.7333 526.717 87.3667 505.7 96 486.4C96.6667 484.933 97.85 483.05 99.55 480.75C101.517 478.117 102.8 476.283 103.4 475.25C105.6 471.383 106.733 469.383 106.8 469.25C108.033 466.883 108.817 464.767 109.15 462.9C110.517 455.7 113.25 450.567 117.35 447.5C121.55 444.433 127.283 443.4 134.55 444.4C135.983 444.6 140.35 445.3 147.65 446.5C152.95 447.367 157.3 447.967 160.7 448.3C164.633 448.733 169.783 448.633 176.15 448C178.483 447.733 180.667 446.7 182.7 444.9C185.433 442.5 186.683 440.4 186.45 438.6C186.217 436.8 184.5 435.067 181.3 433.4C172.567 428.9 166.217 422.367 162.25 413.8C161.85 412.933 161.083 412.117 159.95 411.35C158.85 410.617 157.783 410.183 156.75 410.05C149.65 409.15 143.817 408.15 139.25 407.05C132.983 405.55 127.45 403.533 122.65 401C113.683 396.267 106.867 390.667 102.2 384.2C97 377.033 94.2667 368.583 94 358.85C93.8667 354.15 92.3667 349.467 89.5 344.8C82.5667 333.467 79.55 320.383 80.45 305.55C81.0833 295.25 82.4333 286.233 84.5 278.5C87 269.1 90.7333 260.767 95.7 253.5C98.9667 248.7 102.017 245.15 104.85 242.85C108.783 239.65 113.183 237.967 118.05 237.8C121.95 237.633 124.683 238.317 126.25 239.85C127.85 241.383 128.45 244.017 128.05 247.75C127.15 256.283 125.583 265.267 123.35 274.7C120.783 285.4 120.417 296.483 122.25 307.95C123.35 314.783 126.95 320.233 133.05 324.3C135.483 325.9 138.067 328.267 140.8 331.4C142.367 333.167 144.633 335.917 147.6 339.65C148.933 341.217 150.933 343.767 153.6 347.3C156.133 350.7 158.133 353.233 159.6 354.9C164.1 360 169.5 361.567 175.8 359.6C176.833 359.3 178.217 359.333 179.95 359.7C181.95 360.233 183.417 360.617 184.35 360.85C184.983 361.017 185.833 361.4 186.9 362C188.8 363.033 189.983 363.667 190.45 363.9C189.05 359.933 188.15 357.183 187.75 355.65C185.85 347.95 184.7 342.85 184.3 340.35C183.933 338.283 184 335.617 184.5 332.35C185.233 327.017 184.833 322.167 183.3 317.8C181.767 313.367 179.033 309.233 175.1 305.4C171.767 302.167 169.217 297.9 167.45 292.6C166.317 289.167 165.3 284.267 164.4 277.9C163.033 268.333 162.7 257.217 163.4 244.55C163.733 239.75 165.717 234.583 169.35 229.05C171.15 226.35 172.283 223.583 172.75 220.75C173.183 218.083 173.05 215.167 172.35 212C170.883 205.967 169.817 201.433 169.15 198.4C167.983 193.1 167.35 188.55 167.25 184.75C166.983 175.217 168.317 165.467 171.25 155.5C173.75 146.967 177.583 137.85 182.75 128.15C192.85 109.183 207.2 93.85 225.8 82.15C237.967 74.4833 252.117 68.4833 268.25 64.15C288.383 58.7833 311 56.4833 336.1 57.25C355.433 57.8167 373.233 61.55 389.5 68.45C403.033 74.1167 412.2 78.0167 417 80.15C421 81.9167 423.1 84.8833 423.3 89.05C401.933 89.4833 384.667 94.7833 371.5 104.95C357.9 115.45 348.517 131.283 343.35 152.45C347.083 151.517 349.8 150.833 351.5 150.4C354.467 149.633 356.867 148.85 358.7 148.05C366.1 144.817 371.783 140.35 375.75 134.65C377.717 131.85 380.033 129.517 382.7 127.65C385.2 125.95 387.483 125.5 389.55 126.3C391.55 127.067 392.983 128.917 393.85 131.85C395.617 137.817 394.467 144.367 390.4 151.5C382.467 165.333 373.5 177.183 363.5 187.05C352.7 197.75 340.517 206.317 326.95 212.75C320.617 215.75 315.35 217.983 311.15 219.45C305.317 221.517 299.75 222.833 294.45 223.4C292.917 223.567 290.95 224.267 288.55 225.5C285.55 227.067 283.583 228 282.65 228.3C275.383 230.733 269.633 232.317 265.4 233.05C261.133 233.817 258.45 235.95 257.35 239.45C254.983 246.783 252.317 255.833 249.35 266.6C249.05 267.733 248.817 269.117 248.65 270.75C248.517 271.717 248.367 273.15 248.2 275.05C247.933 277.683 247.983 279.9 248.35 281.7C248.75 283.967 249.7 286.15 251.2 288.25C252.9 290.65 254.433 293.867 255.8 297.9C256.6 300.233 257.733 303.75 259.2 308.45C260.833 313.217 262.25 315.85 263.45 316.35C264.617 316.783 267.417 315.85 271.85 313.55C273.283 312.783 275.267 311.983 277.8 311.15C280.967 310.117 283.017 309.417 283.95 309.05C286.05 308.15 287.35 307.1 287.85 305.9C292.95 294 301.383 285.217 313.15 279.55C315.117 278.583 316.583 277.617 317.55 276.65C318.817 275.383 319.75 273.7 320.35 271.6C323.383 260.867 327.817 252.433 333.65 246.3C338.85 240.867 345.05 238.083 352.25 237.95C359.483 237.817 365.767 240.4 371.1 245.7C374.933 249.6 377.017 251.717 377.35 252.05C379.183 253.683 380.917 254.733 382.55 255.2C384.45 255.767 386.667 255.717 389.2 255.05C397.233 252.983 404.167 252.1 410 252.4C417.467 252.767 424.133 255.017 430 259.15C430.467 259.45 431 259.7 431.6 259.9C435.533 255.633 438.467 252.45 440.4 250.35C443.833 246.617 446.783 243.6 449.25 241.3C456.95 234.067 466.15 230.983 476.85 232.05C488.017 233.15 496.417 238.617 502.05 248.45C504.983 253.583 507.817 257.417 510.55 259.95C513.25 262.517 517.267 265.083 522.6 267.65C532.967 272.617 541.633 281.067 548.6 293C550.6 296.4 552.5 298.417 554.3 299.05C556.167 299.717 559.867 299.617 565.4 298.75C570.033 298.05 572.883 294.6 573.95 288.4C574.317 286.1 574.6 284.367 574.8 283.2C575.133 281.2 575.5 279.5 575.9 278.1C576.633 275.633 577.617 273.683 578.85 272.25C580.35 270.55 582.317 269.483 584.75 269.05C589.383 268.25 591.283 265.35 590.45 260.35C590.05 258.017 589.4 253.833 588.5 247.8C587.7 242.467 587.033 238.267 586.5 235.2C586.367 234.533 585.95 233.833 585.25 233.1C584.55 232.367 583.867 231.917 583.2 231.75C569.333 228.517 556.333 222.717 544.2 214.35C533.433 206.883 523.033 197.167 513 185.2C505.567 176.3 500.867 167.233 498.9 158C497.933 153.5 497.783 149.233 498.45 145.2C498.683 143.767 499.3 142.333 500.3 140.9C501.367 139.367 502.433 138.45 503.5 138.15C504.667 137.85 506.133 138.017 507.9 138.65C509.367 139.15 510.833 139.9 512.3 140.9C514 142.033 516.283 143.8 519.15 146.2C522.25 148.767 524.517 150.55 525.95 151.55C526.883 152.217 528.217 152.883 529.95 153.55C530.95 153.917 532.583 154.533 534.85 155.4C534.217 150.9 533.75 147.617 533.45 145.55C532.917 141.85 532.367 138.817 531.8 136.45C530.167 129.583 528.467 123.967 526.7 119.6C524.3 113.667 521.317 108.567 517.75 104.3C514.65 100.6 510.75 97.15 506.05 93.95C502.883 91.7833 498.4 89.1333 492.6 86C491.067 85.2 487.717 83.55 482.55 81.05C478.35 79.0167 475.033 77.2833 472.6 75.85C468.133 73.2167 465.9 70.15 465.9 66.65C465.9 63.1167 468.15 60.1667 472.65 57.8C476.883 55.6 482.85 53.65 490.55 51.95C508.55 47.8833 528.533 48.2167 550.5 52.95C578.333 59.0167 603.617 69.65 626.35 84.85C641.817 95.1833 656.683 108.117 670.95 123.65C684.083 137.917 691.333 156.433 692.7 179.2Z" fill="white"/>
        <path d="M116.95 276.45C117.583 271.917 119.2 263.433 121.8 251C122.033 249.867 122.033 248.6 121.8 247.2C121.567 245.733 121.167 244.85 120.6 244.55C119.6 244.05 118.367 243.833 116.9 243.9C115.367 243.967 114.167 244.3 113.3 244.9C110.5 246.9 108.383 248.533 106.95 249.8C104.683 251.8 102.933 253.75 101.7 255.65C88.8 275.95 84.2833 298.233 88.15 322.5C88.9167 327.2 89.9667 331.233 91.3 334.6C92.9333 338.667 95.1167 342.033 97.85 344.7C102.783 340.533 106.433 337.45 108.8 335.45C112.9 331.983 116.35 329 119.15 326.5C119.617 326.033 119.967 325.3 120.2 324.3C120.4 323.333 120.417 322.45 120.25 321.65C120.017 320.417 119.25 317.2 117.95 312C116.983 308.067 116.367 304.85 116.1 302.35C115.3 294.683 115.583 286.05 116.95 276.45Z" fill="white"/>
        <path d="M164.7 366.7C161.7 364.933 159.383 363.083 157.75 361.15C151.117 353.283 144.217 344.817 137.05 335.75C134.417 332.417 131.767 330.233 129.1 329.2C126.367 328.133 123.45 328.217 120.35 329.45C115.183 331.517 110.967 334.567 107.7 338.6C104.567 342.467 102.383 347.133 101.15 352.6C99.4167 360.3 100.383 367.517 104.05 374.25C106.917 379.483 111.783 384.917 118.65 390.55C123.217 394.283 128.617 397.017 134.85 398.75C140.217 400.283 146.65 401.15 154.15 401.35C155.217 401.283 156.217 401.35 157.15 401.55C159.417 402.083 160.983 401.9 161.85 401C162.583 400.233 163.05 398.633 163.25 396.2C163.817 389.3 165.067 381.45 167 372.65C167.333 371.117 167.35 369.933 167.05 369.1C166.75 368.233 165.967 367.433 164.7 366.7Z" fill="white"/>
        <path d="M106.35 482.25C102.75 487.65 99.9167 493.9 97.85 501C96.2833 506.4 94.95 513.15 93.85 521.25C91.9833 535.15 92.85 548.35 96.45 560.85C97.85 565.617 100.833 570.467 105.4 575.4C107.733 577.933 109.767 578.95 111.5 578.45C113.233 577.917 114.383 575.967 114.95 572.6C115.883 567.467 116.283 560.7 116.15 552.3C115.95 539.133 118.233 527.467 123 517.3C124.533 514.033 125.25 511.433 125.15 509.5C125.05 507.267 123.917 504.8 121.75 502.1C119.583 499.4 117.333 495.717 115 491.05C112.5 485.65 110.55 481.6 109.15 478.9C108.95 479.167 108.517 479.65 107.85 480.35C107.217 481.05 106.717 481.683 106.35 482.25Z" fill="white"/>
        <path d="M185.1 452.75C180.167 455.05 174.567 456.083 168.3 455.85C166 455.75 160.5 455.033 151.8 453.7C149.567 453.367 146.2 452.833 141.7 452.1C137.833 451.567 134.45 451.233 131.55 451.1C126.35 450.833 122.4 451.833 119.7 454.1C116.933 456.4 115.333 460.117 114.9 465.25C114.3 472.083 114.733 478.483 116.2 484.45C120 499.983 129.1 507.85 143.5 508.05C159.367 508.217 172.95 503.717 184.25 494.55C186.15 492.983 188.467 490.883 191.2 488.25C195.767 483.817 198.117 481.533 198.25 481.4C193.25 478.433 189.8 474.2 187.9 468.7C186.967 466 186.033 460.683 185.1 452.75Z" fill="white"/>
        <path d="M172.3 606.9C169.167 596.9 169.3 586.967 172.7 577.1C161.4 575.467 152.883 569.45 147.15 559.05L145.05 558.95C144.683 561.15 144.067 564.45 143.2 568.85C142.467 572.783 142.033 576.1 141.9 578.8C140.6 607.5 150.833 629.667 172.6 645.3C175.967 647.733 181.017 649.617 187.75 650.95C189.917 651.383 191.417 651.067 192.25 650C193.117 648.967 193.167 647.433 192.4 645.4C190.633 640.633 188.55 636.5 186.15 633C179.15 622.767 174.533 614.067 172.3 606.9Z" fill="white"/>
        <path d="M223.2 523.85C219.067 519.95 215.433 515.117 212.3 509.35C211.267 507.45 210.25 506.367 209.25 506.1C208.317 505.867 206.95 506.233 205.15 507.2C193.283 513.667 182.017 517.45 171.35 518.55C170.083 518.683 168.283 518.983 165.95 519.45C163.483 519.983 161.683 520.317 160.55 520.45C156.417 520.95 153.1 522.833 150.6 526.1C148.333 529.1 147.1 532.7 146.9 536.9C146.467 545.9 149.183 554.25 155.05 561.95C157.85 565.683 160.667 568.417 163.5 570.15C167.033 572.35 170.9 573.283 175.1 572.95L175.55 574.25C179.917 572.783 183.183 571.683 185.35 570.95C189.25 569.617 192.417 568.283 194.85 566.95C205.217 561.283 214.983 552.683 224.15 541.15C227.55 536.883 229.283 534.083 229.35 532.75C229.45 530.783 227.4 527.817 223.2 523.85Z" fill="white"/>
        <path d="M250.6 240.5C251.5 238.133 252.533 235.15 253.7 231.55C254.967 227.55 255.933 224.55 256.6 222.55C257.267 220.617 257.383 218.95 256.95 217.55C256.45 215.983 255.283 214.933 253.45 214.4C248.283 212.9 245.017 212 243.65 211.7C239.917 210.8 236.617 210.317 233.75 210.25C219.017 209.95 205 212.383 191.7 217.55C186.867 219.45 182.983 221.667 180.05 224.2C176.517 227.267 174 231.083 172.5 235.65C168.133 249.05 167.683 263.317 171.15 278.45C174.317 292.483 180.867 304.117 190.8 313.35C195.033 310.45 198.15 308.317 200.15 306.95C203.717 304.517 206.767 302.667 209.3 301.4C212.9 299.6 217.367 297.617 222.7 295.45C228.767 293.05 233.3 291.217 236.3 289.95C238 289.283 239.067 288.767 239.5 288.4C240.433 287.633 240.867 286.5 240.8 285C240.567 277.933 241.45 270.35 243.45 262.25C244.883 256.583 247.267 249.333 250.6 240.5Z" fill="white"/>
        <path d="M256.65 411.95C255.75 409.917 255.083 408.4 254.65 407.4C253.85 405.6 253.267 404.05 252.9 402.75C252.367 400.783 251.417 399.267 250.05 398.2C248.85 397.233 247.217 396.567 245.15 396.2C239.683 395.2 233.967 393.333 228 390.6C223.967 388.733 218.633 385.85 212 381.95C208 379.617 202.95 377.017 196.85 374.15C193.417 372.517 188.25 370.1 181.35 366.9C179.317 365.9 177.583 365.767 176.15 366.5C174.917 367.1 173.733 368.417 172.6 370.45C169.833 375.45 168.1 381.067 167.4 387.3C166.9 392 166.95 397.85 167.55 404.85C168.35 413.85 171.95 420.667 178.35 425.3C185.983 430.767 195.317 433.15 206.35 432.45C214.517 432.65 222.667 431.65 230.8 429.45C237.9 427.583 245.35 424.683 253.15 420.75C255.217 419.717 256.533 418.5 257.1 417.1C257.633 415.7 257.483 413.983 256.65 411.95Z" fill="white"/>
        <path d="M201 488.15C198.533 489.817 195.217 492.25 191.05 495.45C186.417 499.05 183.133 501.533 181.2 502.9C179.6 504.033 177.567 505.333 175.1 506.8C173.733 507.6 171.65 508.817 168.85 510.45L169.7 512.45C176 510.917 180.717 509.767 183.85 509C189.45 507.6 194.083 506.233 197.75 504.9C204.683 502.4 208.567 496.433 209.4 487C208.333 487.133 206.783 487.217 204.75 487.25C203.017 487.317 201.767 487.617 201 488.15Z" fill="white"/>
        <path d="M400.05 86.3C402.35 85.7333 406.017 84.8333 411.05 83.6L401.65 79C385.85 71.5667 368.767 66.9167 350.4 65.05C335.967 63.5833 322.333 63.2 309.5 63.9C295.367 64.6667 281.883 66.7833 269.05 70.25C259.483 72.7833 251 75.7167 243.6 79.05C234.933 82.9167 227.25 87.5 220.55 92.8C196.117 112.133 181 137.75 175.2 169.65C172.233 186.183 173.85 202.583 180.05 218.85L189.65 215.55C199.417 212.317 207.65 210 214.35 208.6C223.45 206.667 231.967 205.833 239.9 206.1C247.4 206.333 252.667 208.017 255.7 211.15C258.8 214.317 260.3 219.65 260.2 227.15C261.467 227.217 262.383 227.25 262.95 227.25C263.917 227.283 264.717 227.233 265.35 227.1C277.183 224.533 286.733 220.45 294 214.85C303.9 207.25 312.35 197.95 319.35 186.95C325.517 177.217 330.767 165.767 335.1 152.6C338.9 141.133 343.1 131.033 347.7 122.3C356.033 106.533 370.2 95.4333 390.2 89C392.8 88.1667 396.083 87.2667 400.05 86.3Z" fill="white"/>
        <path d="M249.45 298.2C248.85 296.067 247.867 294.633 246.5 293.9C245.233 293.2 243.467 293.033 241.2 293.4C225.433 295.9 210.967 302.2 197.8 312.3C192.667 316.3 190.083 321.283 190.05 327.25C189.85 352.717 200.467 371.533 221.9 383.7C226.5 386.3 230.717 388.167 234.55 389.3C239.383 390.7 244.083 391.15 248.65 390.65C248.25 385.583 247.95 381.8 247.75 379.3C247.383 374.833 247.217 371.1 247.25 368.1C247.317 357.933 247.95 350.067 249.15 344.5C250.983 336.1 254.517 329.033 259.75 323.3C258.65 321.733 257.833 320.567 257.3 319.8C256.367 318.4 255.7 317.183 255.3 316.15C253.4 311.083 251.45 305.1 249.45 298.2Z" fill="white"/>
        <path d="M272.2 449.1C272.9 447.5 273.067 446.3 272.7 445.5C271.3 442.3 269.5 438.667 267.3 434.6C266.6 433.333 264.6 429.8 261.3 424C259.933 421.667 257.967 421.3 255.4 422.9C247.667 427.767 239.083 431.35 229.65 433.65C221.35 435.65 212.133 436.733 202 436.9C199.233 436.967 197.067 437.517 195.5 438.55C194 439.583 192.7 441.3 191.6 443.7C187.6 452.633 188.067 461.2 193 469.4C198 477.667 205.417 481.817 215.25 481.85C216.117 481.717 216.867 481.583 217.5 481.45C218.7 481.183 219.733 480.85 220.6 480.45C230.3 475.817 235.383 473.383 235.85 473.15C241.65 470.317 246.667 467.733 250.9 465.4C256.3 462.433 262.567 458.133 269.7 452.5C270.667 451.733 271.5 450.6 272.2 449.1Z" fill="white"/>
        <path d="M296.65 477.35C296.917 476.717 296.983 475.95 296.85 475.05C296.75 474.117 296.483 473.383 296.05 472.85C294.017 470.317 287.75 462.767 277.25 450.2C276.083 451.367 274.583 452.883 272.75 454.75C271.283 456.25 270.017 457.4 268.95 458.2C263.683 462.3 257.283 466.283 249.75 470.15C246.35 471.917 239.517 475.15 229.25 479.85C224.817 481.917 221.917 483.45 220.55 484.45C217.55 486.583 215.617 489.267 214.75 492.5C212.25 501.5 214.65 510.05 221.95 518.15C225.05 521.583 228.6 524.283 232.6 526.25C236.7 528.25 240.6 529.133 244.3 528.9C253.767 528.333 262.133 525.05 269.4 519.05C275.6 513.883 281.05 507.533 285.75 500C289.617 493.767 293.25 486.217 296.65 477.35Z" fill="white"/>
        <path d="M594.35 329.25C592.05 321.417 587.4 315.2 580.4 310.6C576.9 308.333 572.75 306.883 567.95 306.25C566.183 306.017 561.833 305.8 554.9 305.6C553.767 305.567 552.583 305.25 551.35 304.65C550.117 304.017 549.133 303.267 548.4 302.4C546.767 300.533 544.167 297.317 540.6 292.75C537.3 288.517 534.65 285.317 532.65 283.15C526.05 275.883 517.75 272.133 507.75 271.9L510.4 286.5C509.3 285.8 508.733 285.433 508.7 285.4L507.7 282.6C505.333 275.833 503.533 270.767 502.3 267.4C500.167 261.367 498.117 256.4 496.15 252.5C493.05 246.267 488.25 242.1 481.75 240C475.35 237.933 468.883 238.35 462.35 241.25C455.283 244.45 449.267 249.05 444.3 255.05C439.9 260.383 436.183 267 433.15 274.9C432.85 275.733 432.367 276.717 431.7 277.85C431.3 278.517 430.717 279.483 429.95 280.75L428.25 279.95C429.083 276.883 429.617 275.083 429.85 274.55C430.85 271.95 431.083 269.933 430.55 268.5C429.983 266.967 428.483 265.633 426.05 264.5C413.317 258.633 400.883 258 388.75 262.6C386.75 263.367 385.517 264.25 385.05 265.25C384.55 266.35 384.767 267.817 385.7 269.65C386.3 270.75 386.933 272.15 387.6 273.85C387.967 274.817 388.517 276.25 389.25 278.15L388.1 278.6C386.667 276.4 385.583 274.75 384.85 273.65C383.55 271.65 382.55 269.95 381.85 268.55C378.25 261.15 373.067 255 366.3 250.1C360.567 245.967 354.9 244.3 349.3 245.1C343.733 245.9 338.917 249.067 334.85 254.6C328.15 263.833 324.483 273.833 323.85 284.6C323.717 287 323.317 289.933 322.65 293.4C322.283 295.367 321.717 298.3 320.95 302.2L319.45 302V284.15C314.417 285.517 309.35 288.383 304.25 292.75C298.95 297.317 295.583 301.933 294.15 306.6C293.15 309.833 291.5 312.2 289.2 313.7C287.7 314.667 285.083 315.633 281.35 316.6C273.15 318.667 266.533 322.333 261.5 327.6C256.5 332.8 253.467 339.183 252.4 346.75C250.4 360.35 250.45 373.6 252.55 386.5C256.983 413.3 269.533 437.383 290.2 458.75C297.133 465.983 306.983 475.35 319.75 486.85C328.55 494.783 337.05 501.5 345.25 507C354.683 513.4 364.267 518.55 374 522.45C397.3 531.817 422.4 532.783 449.3 525.35C467.567 520.35 485.617 512.433 503.45 501.6C524.517 488.9 542.617 472.233 557.75 451.6C565.183 441.5 571.483 431.833 576.65 422.6C582.583 412 587.317 401.483 590.85 391.05C594.517 380.15 596.717 369.917 597.45 360.35C598.25 349.55 597.217 339.183 594.35 329.25ZM471.1 283.35L471.45 282.25L464.3 279.55C466.633 277.017 469.383 275.983 472.55 276.45C475.683 276.95 478.533 278.833 481.1 282.1C486.233 288.667 489.6 296.117 491.2 304.45C492.533 311.583 492.633 319.75 491.5 328.95C489.7 343.383 484.75 357.167 476.65 370.3C476.35 370.8 476.333 371.617 476.6 372.75C476.767 373.317 477.1 374.267 477.6 375.6C477.7 375.833 478.033 376.283 478.6 376.95C479.133 377.583 479.5 378.233 479.7 378.9L477.8 378.6C477.033 378.467 476.417 378.317 475.95 378.15C471.183 376.483 467.767 375.2 465.7 374.3C458.8 371.233 451.8 370.117 444.7 370.95C438.267 371.717 431.617 374.117 424.75 378.15C424.683 378.183 423.85 378.45 422.25 378.95C422.283 378.883 422.683 378.017 423.45 376.35C423.817 375.517 424.2 375 424.6 374.8C426.567 373.7 427.617 372.3 427.75 370.6C427.85 369.533 427.5 367.8 426.7 365.4C421.233 348.6 420.833 331.733 425.5 314.8C428.7 303.133 434.95 294.5 444.25 288.9C447.717 286.8 451.583 285.317 455.85 284.45C459.383 283.717 463.5 283.35 468.2 283.35H471.1ZM444.9 400.75C447.267 399.05 450.1 398.4 453.4 398.8C457 399.267 459.783 400.767 461.75 403.3C463.817 405.9 464.783 409.35 464.65 413.65L456.8 403.45C452.533 407.55 450.067 412.317 449.4 417.75C448.433 425.617 447.25 432.317 445.85 437.85C444.05 444.95 441.65 451.3 438.65 456.9C434.65 464.367 430.717 470.05 426.85 473.95C421.85 478.983 416.083 480.967 409.55 479.9C403.583 478.933 398.133 475.717 393.2 470.25C391.9 468.817 390.15 466.7 387.95 463.9C385.617 460.9 383.9 458.783 382.8 457.55C380.633 455.05 377.967 453 374.8 451.4C372.167 450.033 368.967 448.883 365.2 447.95C360.833 446.883 357.533 445.85 355.3 444.85C351.8 443.283 349.017 441.2 346.95 438.6C346.683 438.267 346.4 437.783 346.1 437.15C345.367 435.683 345 434.933 345 434.9C358.333 442.233 370.483 446.6 381.45 448C394.35 449.633 406.767 447.383 418.7 441.25C425.633 437.683 432.367 431.567 438.9 422.9C444.9 414.933 448.417 408.15 449.45 402.55L440.25 408.55C440.983 405.083 442.533 402.483 444.9 400.75ZM357.35 283.85L356.9 282.9L351.3 283.7C351.433 280.933 352.217 278.8 353.65 277.3C355.083 275.767 357 275.033 359.4 275.1C365.233 275.267 370.317 278.1 374.65 283.6C388.45 301.2 393.133 320.85 388.7 342.55C388.4 343.95 387.817 346.2 386.95 349.3C386.15 352.2 385.6 354.45 385.3 356.05C385.1 357.083 385.017 358.367 385.05 359.9C385.083 360.767 385.133 362 385.2 363.6C383.767 364.167 381.417 364.983 378.15 366.05C375.25 367.083 372.917 368.183 371.15 369.35C366.65 372.317 365.967 377.283 369.1 384.25L367.45 384.7C366.517 383.167 365.833 382.017 365.4 381.25C364.567 379.883 364.033 378.7 363.8 377.7C363.367 375.967 362.65 374.8 361.65 374.2C360.717 373.633 359.383 373.483 357.65 373.75C356.483 373.917 352.783 374.367 346.55 375.1C344.617 371.4 343.217 368.7 342.35 367C340.817 364 339.617 361.483 338.75 359.45C331.05 341.35 330.083 323.333 335.85 305.4C338.717 296.467 344.167 290.333 352.2 287C352.933 286.667 353.8 286.167 354.8 285.5C355.933 284.767 356.783 284.217 357.35 283.85ZM430.85 491.2C429.083 493.2 426.85 494.567 424.15 495.3C420.883 496.167 418.183 496.25 416.05 495.55C413.917 494.817 412.267 493.25 411.1 490.85C412.467 490.85 414.517 490.933 417.25 491.1C419.65 491.167 421.617 491 423.15 490.6C424.617 490.267 426.333 489.5 428.3 488.3C430.5 486.9 432.133 485.9 433.2 485.3C433.367 487.3 432.583 489.267 430.85 491.2Z" fill="white"/>
        <path d="M384.7 148.8C387.2 145.167 387.833 140.4 386.6 134.5C385.1 135.733 383.333 137.167 381.3 138.8C374.5 145.267 368.083 150.183 362.05 153.55C354.583 157.75 346.85 160.133 338.85 160.7C337.75 160.8 336.55 161.9 335.25 164C334.25 165.6 331.133 170.85 325.9 179.75C322.1 186.183 318.867 191.383 316.2 195.35C314.267 198.25 311.65 201.633 308.35 205.5C306.483 207.667 303.683 210.9 299.95 215.2L300.55 216.45C305.017 215.017 308.367 213.95 310.6 213.25C314.567 211.95 317.85 210.733 320.45 209.6C337.817 202.1 351.867 192.017 362.6 179.35C366.133 175.217 369.95 170.233 374.05 164.4C375.483 162.367 379.033 157.167 384.7 148.8Z" fill="white"/>
        <path d="M386.75 338.6L385.45 338C385.117 338.267 384.6 338.617 383.9 339.05C383.3 339.483 382.833 339.883 382.5 340.25C379.367 343.817 374.8 345.533 368.8 345.4C362.733 345.267 358.05 343.3 354.75 339.5C348.817 332.7 345.75 325 345.55 316.4C345.45 313.533 345.567 309.967 345.9 305.7C346.333 300.833 346.617 297.117 346.75 294.55C346.083 295.583 345.033 297.05 343.6 298.95C342.4 300.617 341.533 302.083 341 303.35C333.9 320.45 334.133 337.933 341.7 355.8C342.867 358.567 344.383 361.083 346.25 363.35C348.383 365.95 350.533 367.65 352.7 368.45C356.433 369.817 360.667 369.6 365.4 367.8C370.8 365.167 374.833 363.25 377.5 362.05C379.367 361.25 380.683 359.85 381.45 357.85C382.083 355.483 382.6 353.733 383 352.6C383.667 350.767 384.35 348.467 385.05 345.7C385.783 342.533 386.35 340.167 386.75 338.6Z" fill="white"/>
        <path d="M379.65 302.95L378.1 298.25C377.467 296.383 376.883 294.85 376.35 293.65C375.45 291.75 373.867 290.317 371.6 289.35C369.367 288.417 367.133 288.217 364.9 288.75C362.333 289.35 360.483 290.367 359.35 291.8C358.183 293.3 357.65 295.367 357.75 298C357.85 301.233 358.35 304.167 359.25 306.8C360.317 310 361.95 312.333 364.15 313.8C366.283 315.233 368.75 315.683 371.55 315.15C373.75 314.717 375.6 313.367 377.1 311.1C378.533 308.867 379.383 306.15 379.65 302.95Z" fill="white"/>
        <path d="M437.7 450.9C441 442.567 442.883 437.65 443.35 436.15C445.05 430.55 445.617 425.35 445.05 420.55C437.25 430.883 428.683 438.717 419.35 444.05C409.117 449.917 397.533 453.05 384.6 453.45L392.7 463.5C397.833 458.5 403.65 456.933 410.15 458.8C410.583 458.933 411.117 458.9 411.75 458.7C412.35 458.533 412.85 458.283 413.25 457.95C417.317 454.517 421.067 452.2 424.5 451C428.833 449.467 433.233 449.433 437.7 450.9Z" fill="white"/>
        <path d="M430.95 466.2C432.05 464.767 432.933 463.067 433.6 461.1C434.333 458.933 434.4 457.417 433.8 456.55C432.733 454.883 431.067 454.117 428.8 454.25C426.9 454.35 424.95 455.017 422.95 456.25C421.217 457.283 419.183 458.683 416.85 460.45C415.517 461.483 413.467 463.083 410.7 465.25C409.667 462.717 408.133 461.35 406.1 461.15C404.467 460.95 402.383 461.533 399.85 462.9C398.017 463.9 397.05 464.95 396.95 466.05C396.85 467.117 397.617 468.333 399.25 469.7C403.717 473.467 409.2 475.017 415.7 474.35C422.233 473.65 427.317 470.933 430.95 466.2Z" fill="white"/>
        <path d="M442.95 300.3C443.75 299.067 445.9 295.883 449.4 290.75C447.133 290.883 445.267 291.567 443.8 292.8C438.9 296.767 435.017 301.683 432.15 307.55C429.683 312.55 427.833 318.55 426.6 325.55C425.233 332.983 424.95 339.85 425.75 346.15C426.617 353.15 428.817 359.633 432.35 365.6C432.75 366.267 433.5 366.85 434.6 367.35C435.733 367.85 436.65 368.017 437.35 367.85C442.25 366.583 447.4 366.217 452.8 366.75C457.367 367.183 462.367 368.3 467.8 370.1C469.333 370.6 470.583 370.717 471.55 370.45C472.583 370.15 473.433 369.4 474.1 368.2C475.933 364.933 479.733 357.85 485.5 346.95L484.25 346.05C484.083 346.15 483.55 346.533 482.65 347.2C481.983 347.667 481.433 348 481 348.2C477.967 349.8 475.683 350.967 474.15 351.7C471.483 353.033 469.15 353.933 467.15 354.4C462.75 355.4 458.633 355.233 454.8 353.9C450.933 352.567 447.583 350.15 444.75 346.65C439.783 340.417 437.133 332.833 436.8 323.9C436.5 315.033 438.55 307.167 442.95 300.3Z" fill="white"/>
        <path d="M484.45 307.95C484.417 303.583 483.1 299.883 480.5 296.85C477.867 293.817 474.7 292.3 471 292.3C466.633 292.333 462.967 293.95 460 297.15C457 300.383 455.517 304.333 455.55 309C455.55 313.7 456.917 317.633 459.65 320.8C462.383 323.967 465.783 325.55 469.85 325.55C473.917 325.55 477.367 323.833 480.2 320.4C483.067 316.967 484.483 312.817 484.45 307.95Z" fill="white"/>
        <path d="M671.65 134.1C665.05 124.633 657.033 115.767 647.6 107.5C639.3 100.233 629.633 93.2167 618.6 86.45C601.167 75.8167 583.117 67.95 564.45 62.85C552.783 59.65 542.1 57.55 532.4 56.55C520.967 55.3833 510.1 55.65 499.8 57.35C494.6 58.2167 487.367 60.0333 478.1 62.8C477.333 63.0333 476.567 63.6 475.8 64.5C475.033 65.4333 474.633 66.2667 474.6 67C474.567 67.6 474.967 68.3167 475.8 69.15C476.533 69.9167 477.333 70.5167 478.2 70.95C480.6 72.25 485.383 74.7333 492.55 78.4C498.583 81.5 503.367 84.0333 506.9 86C512.133 88.9333 516.4 91.9833 519.7 95.15C523.767 98.9833 526.683 103.267 528.45 108C530.65 113.833 533.1 120.967 535.8 129.4C537.367 134.167 539.667 141.35 542.7 150.95C544.1 155.283 546.083 161.8 548.65 170.5C551.017 178.267 553.2 184.683 555.2 189.75C557.767 196.283 562.067 202.333 568.1 207.9C571.933 211.467 577.917 215.967 586.05 221.4C586.65 221.8 587.533 221.983 588.7 221.95C589.9 221.917 590.733 221.683 591.2 221.25C596.067 216.55 601.783 212.983 608.35 210.55C614.017 208.45 620.567 207.133 628 206.6C636.767 205.967 644.517 206.483 651.25 208.15C659.117 210.083 666 213.667 671.9 218.9C674.733 221.4 677.067 222.483 678.9 222.15C680.8 221.817 682.283 219.933 683.35 216.5C684.417 212.967 685.517 208.583 686.65 203.35C687.883 197.417 688.833 192.967 689.5 190L688.1 189.7C688.1 168.267 682.617 149.733 671.65 134.1Z" fill="white"/>
        <path d="M505.55 146.1C506.883 162.267 514.45 177.317 528.25 191.25C541.083 204.217 557.3 214.35 576.9 221.65C572.5 217.783 569.767 215.35 568.7 214.35C558.533 204.617 550.9 192.333 545.8 177.5C544.4 173.6 542.75 170.5 540.85 168.2C538.65 165.567 535.7 163.467 532 161.9C528.233 160.3 523.767 157.85 518.6 154.55C512.867 150.717 508.517 147.9 505.55 146.1Z" fill="white"/>
        <path d="M603.7 496.55C603.333 495.05 602.783 493.933 602.05 493.2C601.217 492.4 600 491.883 598.4 491.65C583.5 489.783 570.533 485.833 559.5 479.8C557.8 478.867 555.65 477.617 553.05 476.05C549.283 473.75 547.1 472.433 546.5 472.1L512.8 501.5C513.3 502.2 514.85 504.317 517.45 507.85C519.217 510.25 520.683 512.167 521.85 513.6C526.983 519.9 531.7 524.9 536 528.6C541.6 533.433 547.45 537.033 553.55 539.4C560.85 542.233 567.833 543.05 574.5 541.85C581.133 540.65 587.333 537.5 593.1 532.4C598.4 527.7 601.917 522.283 603.65 516.15C605.383 510.183 605.4 503.65 603.7 496.55Z" fill="white"/>
        <path d="M635.7 468.4C639.133 459.633 640.15 451.8 638.75 444.9C637.683 439.733 636.55 436.683 635.35 435.75C634.117 434.783 630.917 434.5 625.75 434.9C623.317 435.2 621.5 435.417 620.3 435.55C609.7 436.883 602.517 437.65 598.75 437.85C590.683 438.25 583.483 437.733 577.15 436.3C576.65 436.167 576 436.283 575.2 436.65C574.467 436.95 573.9 437.35 573.5 437.85C569.267 443.417 561.55 453.65 550.35 468.55C559.483 474.95 565.917 479.083 569.65 480.95C577.017 484.617 584.3 486.217 591.5 485.75C593.2 485.65 594.817 485.75 596.35 486.05C598.15 486.383 599.533 486.967 600.5 487.8C603.8 490.567 607.3 491.7 611 491.2C613.5 490.867 616.867 489.533 621.1 487.2C627.233 483.833 632.1 477.567 635.7 468.4Z" fill="white"/>
        <path d="M579.8 287.6C579.3 289.733 577.9 295.267 575.6 304.2C576.3 304.667 577.517 305.4 579.25 306.4C580.883 307.367 582.2 308.283 583.2 309.15C592.9 317.483 598.417 329.2 599.75 344.3C600.15 348.633 600.317 354.05 600.25 360.55C600.183 364.25 600.083 369.967 599.95 377.7C604.017 375.867 609.883 373.283 617.55 369.95C624.15 366.983 629.633 364.333 634 362C636.4 360.733 638.717 359.067 640.95 357C643.117 355 645 352.817 646.6 350.45C650.167 345.25 652.067 339.5 652.3 333.2C652.467 327.733 651.367 321.7 649 315.1C640.433 291.033 624.5 276.95 601.2 272.85C595.133 271.817 590.333 272.6 586.8 275.2C583.467 277.633 581.133 281.767 579.8 287.6Z" fill="white"/>
        <path d="M647.65 359.4C643.55 361.033 638.383 363.35 632.15 366.35C630.05 367.383 625.15 369.817 617.45 373.65C611.383 376.683 606.45 379.067 602.65 380.8C600.883 381.6 599.467 382.567 598.4 383.7C597.267 384.833 596.383 386.267 595.75 388C593.683 393.367 590.417 401.367 585.95 412L578.3 431.6C582.6 433.3 587.083 434.283 591.75 434.55C595.683 434.783 600.067 434.533 604.9 433.8C612.933 432.533 617.383 431.833 618.25 431.7C623.283 430.967 627.733 430.467 631.6 430.2C637.5 429.733 642.25 427.683 645.85 424.05C653.05 416.75 657.717 407.367 659.85 395.9C661.983 384.467 661.05 373.983 657.05 364.45C656.083 362.183 654.767 360.6 653.1 359.7C651.4 358.733 649.583 358.633 647.65 359.4Z" fill="white"/>
        <path d="M607.75 214.55C601.25 216.717 596.9 220.017 594.7 224.45C592.6 228.683 592.3 234.317 593.8 241.35C595.533 249.25 596.567 254.3 596.9 256.5C597 257.1 597.033 259.117 597 262.55C596.967 264.983 597.333 266.65 598.1 267.55C598.9 268.45 600.483 269.067 602.85 269.4C604.15 269.567 606.15 269.817 608.85 270.15C609.183 270.217 609.65 270.383 610.25 270.65C625.95 275.583 638.083 285.8 646.65 301.3C647.583 302.967 650.683 308.967 655.95 319.3C659.55 314.033 662.217 310.15 663.95 307.65C666.95 303.183 669.4 299.4 671.3 296.3C681.4 279.7 685.4 263.4 683.3 247.4C681.9 236.9 677.233 228.55 669.3 222.35C652.433 209.083 631.917 206.483 607.75 214.55Z" fill="white"/>
        <path d="M693.45 507.55C691.25 502.65 687.367 498.983 681.8 496.55C680.7 496.483 679.633 496.4 678.6 496.3C676.467 496.1 675.233 495.767 674.9 495.3C659.933 500.267 649.033 503.483 642.2 504.95C629.9 507.617 618.5 508.25 608 506.85C606.5 521.05 600.4 532.433 589.7 541C592.2 542.467 595.733 544.617 600.3 547.45C604.233 549.817 607.6 551.65 610.4 552.95C617.467 556.217 625.367 558.433 634.1 559.6C641.033 560.567 649.25 560.933 658.75 560.7C668.517 560.433 676.95 557.383 684.05 551.55C688.117 548.183 691.067 543.883 692.9 538.65C694.3 534.683 695.2 529.583 695.6 523.35C696.033 517.017 695.317 511.75 693.45 507.55Z" fill="white"/>
        <path d="M659.1 498.35C658.967 498.183 658.667 497.783 658.2 497.15C658 496.85 657.817 496.667 657.65 496.6C645.017 490.833 636.55 487.05 632.25 485.25C631.383 484.883 629.95 485.2 627.95 486.2C627.117 486.633 625.867 487.383 624.2 488.45C622.567 489.483 621.3 490.217 620.4 490.65C619.4 491.183 617.75 491.95 615.45 492.95C613.283 493.917 611.65 494.7 610.55 495.3C608.717 496.333 607.833 497.483 607.9 498.75C607.967 500.017 608.967 501.017 610.9 501.75C614.733 503.183 618.283 503.783 621.55 503.55C625.883 503.217 630.917 502.7 636.65 502C637.083 501.967 642.1 501.35 651.7 500.15C653.267 499.95 655.733 499.35 659.1 498.35Z" fill="white"/>
        <path d="M710.85 464.95C712.683 457.483 713.25 449.1 712.55 439.8C712.217 435.4 710.817 432.05 708.35 429.75C705.95 427.55 702.7 426.467 698.6 426.5C693.2 426.633 688.633 427.417 684.9 428.85C675.8 432.85 668.933 435.75 664.3 437.55C656.1 440.75 648.617 442.4 641.85 442.5C642.817 449 642.433 455.55 640.7 462.15C639.267 467.683 636.717 473.683 633.05 480.15C637.617 482.383 644.35 485.683 653.25 490.05C661.017 493.35 668.233 495.1 674.9 495.3C679.767 495.1 684.217 494.483 688.25 493.45C693.583 492.083 697.317 490.117 699.45 487.55C704.95 480.95 708.75 473.417 710.85 464.95Z" fill="white"/>
        <path d="M736.7 335.3C734.6 326.033 730.533 318.55 724.5 312.85C720.833 309.383 716.933 307.75 712.8 307.95C708.667 308.117 704.95 310.083 701.65 313.85C700.15 315.517 699.083 317 698.45 318.3C689.817 335.467 678.35 351 664.05 364.9C663.017 365.9 662.5 367.817 662.5 370.65C662.5 372.75 662.583 376.467 662.75 381.8C662.917 386.533 662.967 390.25 662.9 392.95C662.867 394.617 662.667 396.683 662.3 399.15C662.1 400.583 661.767 402.783 661.3 405.75C661.4 405.75 662.283 405.717 663.95 405.65C664.917 405.617 665.7 405.517 666.3 405.35C668.833 404.55 672.683 403.433 677.85 402C682.35 400.6 686.033 399.167 688.9 397.7C700.7 391.6 710.5 385.467 718.3 379.3C725.7 373.5 731.133 367.133 734.6 360.2C738.133 353.133 738.833 344.833 736.7 335.3Z" fill="white"/>
        <path d="M694.1 541.7C692.2 546.3 691.133 549.6 690.9 551.6C690.467 555.1 691.433 558.333 693.8 561.3C693.933 561.433 694.017 561.65 694.05 561.95C694.05 562.15 694.067 562.417 694.1 562.75C697.533 576.35 696.183 590.317 690.05 604.65C686.017 614.117 682.717 622.267 680.15 629.1C678.717 632.867 678.417 635.283 679.25 636.35C680.05 637.417 682.5 637.833 686.6 637.6C686.933 637.6 687.417 637.55 688.05 637.45C693.917 636.717 699.133 634.417 703.7 630.55C707.367 627.417 710.867 622.983 714.2 617.25C718.533 609.75 721.567 601.517 723.3 592.55C724.833 584.583 725.367 575.8 724.9 566.2C724.333 552.733 720.683 540.817 713.95 530.45C709.95 524.383 705.233 520.283 699.8 518.15C699.167 520.917 698.35 524.967 697.35 530.3C696.383 534.967 695.3 538.767 694.1 541.7Z" fill="white"/>
        <path d="M696.55 493.5C694.017 494.933 692.633 496.483 692.4 498.15C692.233 499.45 692.85 501.233 694.25 503.5C695.05 504.833 695.7 505.783 696.2 506.35L722.65 536.15C723.95 524.317 723.367 512.6 720.9 501C720 496.633 718.633 492.933 716.8 489.9C714.733 486.4 711.967 483.55 708.5 481.35C707.133 482.783 705.217 485.017 702.75 488.05C700.483 490.617 698.417 492.433 696.55 493.5Z" fill="white"/>
        <path d="M739.85 206.75C738.083 207.417 737.117 208.6 736.95 210.3C736.85 211.3 736.933 212.85 737.2 214.95C737.2 214.983 737.25 215.8 737.35 217.4C738.55 233.967 738.117 248.85 736.05 262.05C733.65 277.35 728.967 291.217 722 303.65L741.85 332.5C743.483 331.267 744.7 330.167 745.5 329.2C753.367 320.033 759.467 308.7 763.8 295.2C766.967 285.267 769.017 276.3 769.95 268.3C771.117 258.6 770.8 249.383 769 240.65C766.4 227.783 760.367 217.15 750.9 208.75C747.6 205.85 743.917 205.183 739.85 206.75Z" fill="white"/>
        <path d="M739.6 462.2C735.167 455 729.1 450.083 721.4 447.45C719.367 446.75 717.933 446.717 717.1 447.35C716.4 447.917 715.883 449.183 715.55 451.15C713.95 460.75 712.55 467.917 711.35 472.65C710.95 474.217 710.85 475.5 711.05 476.5C711.283 477.633 711.95 478.7 713.05 479.7C719.783 485.967 723.583 493.3 724.45 501.7C724.85 505.167 725.117 509.233 725.25 513.9C725.35 516.633 725.45 520.7 725.55 526.1C725.617 529.267 725.633 533.283 725.6 538.15C725.567 546.283 725.55 550.483 725.55 550.75C735.417 547.917 742.183 542.317 745.85 533.95C756.383 509.983 754.3 486.067 739.6 462.2Z" fill="white"/>
        <path d="M692.8 195.85C693.033 189.717 693 184.167 692.7 179.2C691.333 156.433 684.083 137.917 670.95 123.65C656.683 108.117 641.817 95.1833 626.35 84.85C603.617 69.65 578.333 59.0167 550.5 52.95C528.533 48.2167 508.55 47.8833 490.55 51.95C482.85 53.65 476.883 55.6 472.65 57.8C468.15 60.1667 465.9 63.1167 465.9 66.65C465.9 70.15 468.133 73.2167 472.6 75.85C475.033 77.2833 478.35 79.0167 482.55 81.05C487.717 83.55 491.067 85.2 492.6 86C498.4 89.1333 502.883 91.7833 506.05 93.95C510.75 97.15 514.65 100.6 517.75 104.3C521.317 108.567 524.3 113.667 526.7 119.6C528.467 123.967 530.167 129.583 531.8 136.45C532.367 138.817 532.917 141.85 533.45 145.55C533.75 147.617 534.217 150.9 534.85 155.4C532.583 154.533 530.95 153.917 529.95 153.55C528.217 152.883 526.883 152.217 525.95 151.55C524.517 150.55 522.25 148.767 519.15 146.2C516.283 143.8 514 142.033 512.3 140.9C510.833 139.9 509.367 139.15 507.9 138.65C506.133 138.017 504.667 137.85 503.5 138.15C502.433 138.45 501.367 139.367 500.3 140.9C499.3 142.333 498.683 143.767 498.45 145.2C497.783 149.233 497.933 153.5 498.9 158C500.867 167.233 505.567 176.3 513 185.2C523.033 197.167 533.433 206.883 544.2 214.35C556.333 222.717 569.333 228.517 583.2 231.75C583.867 231.917 584.55 232.367 585.25 233.1C585.95 233.833 586.367 234.533 586.5 235.2C587.033 238.267 587.7 242.467 588.5 247.8C589.4 253.833 590.05 258.017 590.45 260.35C591.283 265.35 589.383 268.25 584.75 269.05C582.317 269.483 580.35 270.55 578.85 272.25C577.617 273.683 576.633 275.633 575.9 278.1C575.5 279.5 575.133 281.2 574.8 283.2C574.6 284.367 574.317 286.1 573.95 288.4C572.883 294.6 570.033 298.05 565.4 298.75C559.867 299.617 556.167 299.717 554.3 299.05C552.5 298.417 550.6 296.4 548.6 293C541.633 281.067 532.967 272.617 522.6 267.65C517.267 265.083 513.25 262.517 510.55 259.95C507.817 257.417 504.983 253.583 502.05 248.45C496.417 238.617 488.017 233.15 476.85 232.05C466.15 230.983 456.95 234.067 449.25 241.3C446.783 243.6 443.833 246.617 440.4 250.35C438.467 252.45 435.533 255.633 431.6 259.9C431 259.7 430.467 259.45 430 259.15C424.133 255.017 417.467 252.767 410 252.4C404.167 252.1 397.233 252.983 389.2 255.05C386.667 255.717 384.45 255.767 382.55 255.2C380.917 254.733 379.183 253.683 377.35 252.05C377.017 251.717 374.933 249.6 371.1 245.7C365.767 240.4 359.483 237.817 352.25 237.95C345.05 238.083 338.85 240.867 333.65 246.3C327.817 252.433 323.383 260.867 320.35 271.6C319.75 273.7 318.817 275.383 317.55 276.65C316.583 277.617 315.117 278.583 313.15 279.55C301.383 285.217 292.95 294 287.85 305.9C287.35 307.1 286.05 308.15 283.95 309.05C283.017 309.417 280.967 310.117 277.8 311.15C275.267 311.983 273.283 312.783 271.85 313.55C267.417 315.85 264.617 316.783 263.45 316.35C262.25 315.85 260.833 313.217 259.2 308.45C257.733 303.75 256.6 300.233 255.8 297.9C254.433 293.867 252.9 290.65 251.2 288.25C249.7 286.15 248.75 283.967 248.35 281.7C247.983 279.9 247.933 277.683 248.2 275.05C248.367 273.15 248.517 271.717 248.65 270.75C248.817 269.117 249.05 267.733 249.35 266.6C252.317 255.833 254.983 246.783 257.35 239.45C258.45 235.95 261.133 233.817 265.4 233.05C269.633 232.317 275.383 230.733 282.65 228.3C283.583 228 285.55 227.067 288.55 225.5C290.95 224.267 292.917 223.567 294.45 223.4C299.75 222.833 305.317 221.517 311.15 219.45C315.35 217.983 320.617 215.75 326.95 212.75C340.517 206.317 352.7 197.75 363.5 187.05C373.5 177.183 382.467 165.333 390.4 151.5C394.467 144.367 395.617 137.817 393.85 131.85C392.983 128.917 391.55 127.067 389.55 126.3C387.483 125.5 385.2 125.95 382.7 127.65C380.033 129.517 377.717 131.85 375.75 134.65C371.783 140.35 366.1 144.817 358.7 148.05C356.867 148.85 354.467 149.633 351.5 150.4C349.8 150.833 347.083 151.517 343.35 152.45C348.517 131.283 357.9 115.45 371.5 104.95C384.667 94.7833 401.933 89.4833 423.3 89.05C423.1 84.8833 421 81.9167 417 80.15C412.2 78.0167 403.033 74.1167 389.5 68.45C373.233 61.55 355.433 57.8167 336.1 57.25C311 56.4833 288.383 58.7833 268.25 64.15C252.117 68.4833 237.967 74.4833 225.8 82.15C207.2 93.85 192.85 109.183 182.75 128.15C177.583 137.85 173.75 146.967 171.25 155.5C168.317 165.467 166.983 175.217 167.25 184.75C167.35 188.55 167.983 193.1 169.15 198.4C169.817 201.433 170.883 205.967 172.35 212C173.05 215.167 173.183 218.083 172.75 220.75C172.283 223.583 171.15 226.35 169.35 229.05C165.717 234.583 163.733 239.75 163.4 244.55C162.7 257.217 163.033 268.333 164.4 277.9C165.3 284.267 166.317 289.167 167.45 292.6C169.217 297.9 171.767 302.167 175.1 305.4C179.033 309.233 181.767 313.367 183.3 317.8C184.833 322.167 185.233 327.017 184.5 332.35C184 335.617 183.933 338.283 184.3 340.35C184.7 342.85 185.85 347.95 187.75 355.65C188.15 357.183 189.05 359.933 190.45 363.9C189.983 363.667 188.8 363.033 186.9 362C185.833 361.4 184.983 361.017 184.35 360.85C183.417 360.617 181.95 360.233 179.95 359.7C178.217 359.333 176.833 359.3 175.8 359.6C169.5 361.567 164.1 360 159.6 354.9C158.133 353.233 156.133 350.7 153.6 347.3C150.933 343.767 148.933 341.217 147.6 339.65C144.633 335.917 142.367 333.167 140.8 331.4C138.067 328.267 135.483 325.9 133.05 324.3C126.95 320.233 123.35 314.783 122.25 307.95C120.417 296.483 120.783 285.4 123.35 274.7C125.583 265.267 127.15 256.283 128.05 247.75C128.45 244.017 127.85 241.383 126.25 239.85C124.683 238.317 121.95 237.633 118.05 237.8C113.183 237.967 108.783 239.65 104.85 242.85C102.017 245.15 98.9667 248.7 95.7 253.5C90.7333 260.767 87 269.1 84.5 278.5C82.4333 286.233 81.0833 295.25 80.45 305.55C79.55 320.383 82.5667 333.467 89.5 344.8C92.3667 349.467 93.8667 354.15 94 358.85C94.2667 368.583 97 377.033 102.2 384.2C106.867 390.667 113.683 396.267 122.65 401C127.45 403.533 132.983 405.55 139.25 407.05C143.817 408.15 149.65 409.15 156.75 410.05C157.783 410.183 158.85 410.617 159.95 411.35C161.083 412.117 161.85 412.933 162.25 413.8C166.217 422.367 172.567 428.9 181.3 433.4C184.5 435.067 186.217 436.8 186.45 438.6C186.683 440.4 185.433 442.5 182.7 444.9C180.667 446.7 178.483 447.733 176.15 448C169.783 448.633 164.633 448.733 160.7 448.3C157.3 447.967 152.95 447.367 147.65 446.5C140.35 445.3 135.983 444.6 134.55 444.4C127.283 443.4 121.55 444.433 117.35 447.5C113.25 450.567 110.517 455.7 109.15 462.9C108.817 464.767 108.033 466.883 106.8 469.25C106.733 469.383 105.6 471.383 103.4 475.25C102.8 476.283 101.517 478.117 99.55 480.75C97.85 483.05 96.6667 484.933 96 486.4C87.3667 505.7 84.7333 526.717 88.1 549.45C89.1333 556.45 90.3833 562.083 91.85 566.35C93.9167 572.317 96.8333 577.35 100.6 581.45C104.2 585.383 108.717 586.6 114.15 585.1C116.483 584.467 118.233 583.2 119.4 581.3C120.367 579.8 121 577.783 121.3 575.25C121.533 573.217 121.75 570.15 121.95 566.05C122.15 561.95 122.367 558.883 122.6 556.85C123.8 546.75 124.45 541.217 124.55 540.25C125.383 533.983 126.283 528.5 127.25 523.8C127.617 522 128.517 520.167 129.95 518.3C131.45 516.367 132.967 515.167 134.5 514.7C136.567 514.1 139.333 513.85 142.8 513.95C146.933 514.183 150.15 514.3 152.45 514.3C147.217 518.9 143.783 524.25 142.15 530.35C140.883 535.15 140.633 541.1 141.4 548.2C141.533 549.533 141.6 550.533 141.6 551.2C141.567 552.333 141.367 553.233 141 553.9C138.7 558 136.983 562.683 135.85 567.95C135.017 571.95 134.417 576.883 134.05 582.75C133.417 593.517 135.367 604.183 139.9 614.75C143.567 623.217 149.3 632.367 157.1 642.2C161.367 647.567 166.267 651.567 171.8 654.2C177.567 656.933 183.85 658.117 190.65 657.75C191.717 657.717 192.85 657.4 194.05 656.8C195.183 656.233 196.15 655.55 196.95 654.75C200.983 650.583 200.817 644.917 196.45 637.75C196.35 637.583 193.95 633.8 189.25 626.4C186.35 621.867 184.033 618.033 182.3 614.9C176.433 604.167 175.217 593.917 178.65 584.15C179.25 582.45 180 581.117 180.9 580.15C181.867 579.15 183.183 578.35 184.85 577.75C190.217 575.817 195.167 573.517 199.7 570.85C204.767 567.95 209.65 564.1 214.35 559.3C217.917 555.6 221.883 550.8 226.25 544.9C228.75 541.467 231.367 539.033 234.1 537.6C237.233 535.933 240.917 535.317 245.15 535.75C254.217 536.717 263.4 533.1 272.7 524.9C276.767 521.367 280.633 517.033 284.3 511.9C287.067 508.033 290.133 503.1 293.5 497.1C294 496.233 296.95 491.25 302.35 482.15C302.717 482.417 303.9 483.3 305.9 484.8C307.1 485.667 308.05 486.4 308.75 487C320.95 497.267 329.3 504.117 333.8 507.55C343.433 514.883 352.5 520.717 361 525.05C373.733 531.55 386.7 535.5 399.9 536.9C414.667 538.467 429.55 537.483 444.55 533.95C458.117 530.783 472.05 525.45 486.35 517.95C489.317 516.417 493.017 514.583 497.45 512.45C499.95 511.25 503.667 509.467 508.6 507.1C510.133 509.067 512.333 511.983 515.2 515.85C517.767 519.217 520 522 521.9 524.2C530.133 533.733 538.967 540.417 548.4 544.25C558.633 548.383 569.7 549.25 581.6 546.85C582.933 546.583 584.6 546.917 586.6 547.85C587.367 548.217 591.367 550.25 598.6 553.95C603.4 556.417 607.45 558.267 610.75 559.5C626.517 565.467 642.033 567.733 657.3 566.3C661.167 565.933 665.95 565.117 671.65 563.85C674.883 563.117 679.833 561.983 686.5 560.45C686.733 561.45 687.133 563.167 687.7 565.6C688.233 567.867 688.567 569.833 688.7 571.5C689.933 586.1 686.717 600.517 679.05 614.75C677.25 618.05 676 620.4 675.3 621.8C674 624.467 673.017 626.917 672.35 629.15C670.583 634.983 671.017 639.333 673.65 642.2C676.25 645.033 680.567 645.9 686.6 644.8C701.3 642.067 712.367 633.6 719.8 619.4C728.7 602.5 732.4 583.3 730.9 561.8C730.833 561 731.067 560.083 731.6 559.05C732.133 558.05 732.75 557.333 733.45 556.9C744.95 549.867 752.333 539.233 755.6 525C760.3 504.767 758.667 485.7 750.7 467.8C747.733 461.067 744.167 455.5 740 451.1C735.367 446.167 729.867 442.55 723.5 440.25C722 439.717 720.833 439 720 438.1C719.2 437.233 718.55 436.05 718.05 434.55C716.183 429.05 713.7 425.167 710.6 422.9C707.5 420.667 703.35 419.783 698.15 420.25C693.717 420.617 688.85 421.617 683.55 423.25C681.283 423.983 677.683 425.283 672.75 427.15C668.083 428.917 664.467 430.183 661.9 430.95C659.8 431.583 657.117 432.2 653.85 432.8L645.7 434.25C646.933 432.35 648.8 429.9 651.3 426.9C653.867 423.833 655.633 421.55 656.6 420.05C658.133 417.683 659.85 415.817 661.75 414.45C663.683 413.083 665.983 412.083 668.65 411.45C695.483 405.117 717.033 392.483 733.3 373.55C736.367 369.983 738.6 366.867 740 364.2C741.9 360.533 742.817 356.85 742.75 353.15C742.617 344.917 745.683 337.433 751.95 330.7C753.883 328.7 755.15 327.167 755.75 326.1C762.85 313.667 768.15 301.35 771.65 289.15C775.483 275.95 777.283 262.633 777.05 249.2C776.75 230 769.533 214.6 755.4 203C749.5 198.167 743.6 197.067 737.7 199.7C735.067 200.9 733.167 202.817 732 205.45C731.133 207.383 730.567 210.05 730.3 213.45C730.2 214.65 730.183 216.233 730.25 218.2C730.317 220.667 730.35 222.25 730.35 222.95C730.317 227.05 730.333 233.2 730.4 241.4C730.4 248.667 730.183 254.817 729.75 259.85C728.617 273.317 724.517 285.65 717.45 296.85C716.85 297.783 715.933 298.633 714.7 299.4C713.533 300.133 712.367 300.583 711.2 300.75C704.767 301.683 699.95 304.6 696.75 309.5C693.483 314.6 691 318.917 689.3 322.45C683.167 335.217 673.817 346.6 661.25 356.6C657.117 354.033 654.75 352.217 654.15 351.15C653.583 350.083 653.7 347.75 654.5 344.15C656.667 334.683 660.567 325.567 666.2 316.8C671.1 309.267 674.833 303.1 677.4 298.3C681.1 291.3 683.867 284.617 685.7 278.25C688 270.083 689.267 262.483 689.5 255.45C689.767 247.417 688.683 239.8 686.25 232.6C685.65 230.867 685.4 229.383 685.5 228.15C685.633 226.85 686.183 225.467 687.15 224C689.95 219.633 691.467 215.8 691.7 212.5C692.267 205.567 692.633 200.017 692.8 195.85ZM671.65 134.1C682.617 149.733 688.1 168.267 688.1 189.7L689.5 190C688.833 192.967 687.883 197.417 686.65 203.35C685.517 208.583 684.417 212.967 683.35 216.5C682.283 219.933 680.8 221.817 678.9 222.15C677.067 222.483 674.733 221.4 671.9 218.9C666 213.667 659.117 210.083 651.25 208.15C644.517 206.483 636.767 205.967 628 206.6C620.567 207.133 614.017 208.45 608.35 210.55C601.783 212.983 596.067 216.55 591.2 221.25C590.733 221.683 589.9 221.917 588.7 221.95C587.533 221.983 586.65 221.8 586.05 221.4C577.917 215.967 571.933 211.467 568.1 207.9C562.067 202.333 557.767 196.283 555.2 189.75C553.2 184.683 551.017 178.267 548.65 170.5C546.083 161.8 544.1 155.283 542.7 150.95C539.667 141.35 537.367 134.167 535.8 129.4C533.1 120.967 530.65 113.833 528.45 108C526.683 103.267 523.767 98.9833 519.7 95.15C516.4 91.9833 512.133 88.9333 506.9 86C503.367 84.0333 498.583 81.5 492.55 78.4C485.383 74.7333 480.6 72.25 478.2 70.95C477.333 70.5167 476.533 69.9167 475.8 69.15C474.967 68.3167 474.567 67.6 474.6 67C474.633 66.2667 475.033 65.4333 475.8 64.5C476.567 63.6 477.333 63.0333 478.1 62.8C487.367 60.0333 494.6 58.2167 499.8 57.35C510.1 55.65 520.967 55.3833 532.4 56.55C542.1 57.55 552.783 59.65 564.45 62.85C583.117 67.95 601.167 75.8167 618.6 86.45C629.633 93.2167 639.3 100.233 647.6 107.5C657.033 115.767 665.05 124.633 671.65 134.1ZM737.35 217.4C737.25 215.8 737.2 214.983 737.2 214.95C736.933 212.85 736.85 211.3 736.95 210.3C737.117 208.6 738.083 207.417 739.85 206.75C743.917 205.183 747.6 205.85 750.9 208.75C760.367 217.15 766.4 227.783 769 240.65C770.8 249.383 771.117 258.6 769.95 268.3C769.017 276.3 766.967 285.267 763.8 295.2C759.467 308.7 753.367 320.033 745.5 329.2C744.7 330.167 743.483 331.267 741.85 332.5L722 303.65C728.967 291.217 733.65 277.35 736.05 262.05C738.117 248.85 738.55 233.967 737.35 217.4ZM669.3 222.35C677.233 228.55 681.9 236.9 683.3 247.4C685.4 263.4 681.4 279.7 671.3 296.3C669.4 299.4 666.95 303.183 663.95 307.65C662.217 310.15 659.55 314.033 655.95 319.3C650.683 308.967 647.583 302.967 646.65 301.3C638.083 285.8 625.95 275.583 610.25 270.65C609.65 270.383 609.183 270.217 608.85 270.15C606.15 269.817 604.15 269.567 602.85 269.4C600.483 269.067 598.9 268.45 598.1 267.55C597.333 266.65 596.967 264.983 597 262.55C597.033 259.117 597 257.1 596.9 256.5C596.567 254.3 595.533 249.25 593.8 241.35C592.3 234.317 592.6 228.683 594.7 224.45C596.9 220.017 601.25 216.717 607.75 214.55C631.917 206.483 652.433 209.083 669.3 222.35ZM698.45 318.3C699.083 317 700.15 315.517 701.65 313.85C704.95 310.083 708.667 308.117 712.8 307.95C716.933 307.75 720.833 309.383 724.5 312.85C730.533 318.55 734.6 326.033 736.7 335.3C738.833 344.833 738.133 353.133 734.6 360.2C731.133 367.133 725.7 373.5 718.3 379.3C710.5 385.467 700.7 391.6 688.9 397.7C686.033 399.167 682.35 400.6 677.85 402C672.683 403.433 668.833 404.55 666.3 405.35C665.7 405.517 664.917 405.617 663.95 405.65C662.283 405.717 661.4 405.75 661.3 405.75C661.767 402.783 662.1 400.583 662.3 399.15C662.667 396.683 662.867 394.617 662.9 392.95C662.967 390.25 662.917 386.533 662.75 381.8C662.583 376.467 662.5 372.75 662.5 370.65C662.5 367.817 663.017 365.9 664.05 364.9C678.35 351 689.817 335.467 698.45 318.3ZM649 315.1C651.367 321.7 652.467 327.733 652.3 333.2C652.067 339.5 650.167 345.25 646.6 350.45C645 352.817 643.117 355 640.95 357C638.717 359.067 636.4 360.733 634 362C629.633 364.333 624.15 366.983 617.55 369.95C609.883 373.283 604.017 375.867 599.95 377.7C600.083 369.967 600.183 364.25 600.25 360.55C600.317 354.05 600.15 348.633 599.75 344.3C598.417 329.2 592.9 317.483 583.2 309.15C582.2 308.283 580.883 307.367 579.25 306.4C577.517 305.4 576.3 304.667 575.6 304.2C577.9 295.267 579.3 289.733 579.8 287.6C581.133 281.767 583.467 277.633 586.8 275.2C590.333 272.6 595.133 271.817 601.2 272.85C624.5 276.95 640.433 291.033 649 315.1ZM653.1 359.7C654.767 360.6 656.083 362.183 657.05 364.45C661.05 373.983 661.983 384.467 659.85 395.9C657.717 407.367 653.05 416.75 645.85 424.05C642.25 427.683 637.5 429.733 631.6 430.2C627.733 430.467 623.283 430.967 618.25 431.7C617.383 431.833 612.933 432.533 604.9 433.8C600.067 434.533 595.683 434.783 591.75 434.55C587.083 434.283 582.6 433.3 578.3 431.6L585.95 412C590.417 401.367 593.683 393.367 595.75 388C596.383 386.267 597.267 384.833 598.4 383.7C599.467 382.567 600.883 381.6 602.65 380.8C606.45 379.067 611.383 376.683 617.45 373.65C625.15 369.817 630.05 367.383 632.15 366.35C638.383 363.35 643.55 361.033 647.65 359.4C649.583 358.633 651.4 358.733 653.1 359.7ZM698.6 426.5C702.7 426.467 705.95 427.55 708.35 429.75C710.817 432.05 712.217 435.4 712.55 439.8C713.25 449.1 712.683 457.483 710.85 464.95C708.75 473.417 704.95 480.95 699.45 487.55C697.317 490.117 693.583 492.083 688.25 493.45C684.217 494.483 679.767 495.1 674.9 495.3C675.233 495.767 676.467 496.1 678.6 496.3C679.633 496.4 680.7 496.483 681.8 496.55C687.367 498.983 691.25 502.65 693.45 507.55C695.317 511.75 696.033 517.017 695.6 523.35C695.2 529.583 694.3 534.683 692.9 538.65C691.067 543.883 688.117 548.183 684.05 551.55C676.95 557.383 668.517 560.433 658.75 560.7C649.25 560.933 641.033 560.567 634.1 559.6C625.367 558.433 617.467 556.217 610.4 552.95C607.6 551.65 604.233 549.817 600.3 547.45C595.733 544.617 592.2 542.467 589.7 541C600.4 532.433 606.5 521.05 608 506.85C618.5 508.25 629.9 507.617 642.2 504.95C649.033 503.483 659.933 500.267 674.9 495.3C668.233 495.1 661.017 493.35 653.25 490.05C644.35 485.683 637.617 482.383 633.05 480.15C636.717 473.683 639.267 467.683 640.7 462.15C642.433 455.55 642.817 449 641.85 442.5C648.617 442.4 656.1 440.75 664.3 437.55C668.933 435.75 675.8 432.85 684.9 428.85C688.633 427.417 693.2 426.633 698.6 426.5ZM717.1 447.35C717.933 446.717 719.367 446.75 721.4 447.45C729.1 450.083 735.167 455 739.6 462.2C754.3 486.067 756.383 509.983 745.85 533.95C742.183 542.317 735.417 547.917 725.55 550.75C725.55 550.483 725.567 546.283 725.6 538.15C725.633 533.283 725.617 529.267 725.55 526.1C725.45 520.7 725.35 516.633 725.25 513.9C725.117 509.233 724.85 505.167 724.45 501.7C723.583 493.3 719.783 485.967 713.05 479.7C711.95 478.7 711.283 477.633 711.05 476.5C710.85 475.5 710.95 474.217 711.35 472.65C712.55 467.917 713.95 460.75 715.55 451.15C715.883 449.183 716.4 447.917 717.1 447.35ZM702.75 488.05C705.217 485.017 707.133 482.783 708.5 481.35C711.967 483.55 714.733 486.4 716.8 489.9C718.633 492.933 720 496.633 720.9 501C723.367 512.6 723.95 524.317 722.65 536.15L696.2 506.35C695.7 505.783 695.05 504.833 694.25 503.5C692.85 501.233 692.233 499.45 692.4 498.15C692.633 496.483 694.017 494.933 696.55 493.5C698.417 492.433 700.483 490.617 702.75 488.05ZM694.1 541.7C695.3 538.767 696.383 534.967 697.35 530.3C698.35 524.967 699.167 520.917 699.8 518.15C705.233 520.283 709.95 524.383 713.95 530.45C720.683 540.817 724.333 552.733 724.9 566.2C725.367 575.8 724.833 584.583 723.3 592.55C721.567 601.517 718.533 609.75 714.2 617.25C710.867 622.983 707.367 627.417 703.7 630.55C699.133 634.417 693.917 636.717 688.05 637.45C687.417 637.55 686.933 637.6 686.6 637.6C682.5 637.833 680.05 637.417 679.25 636.35C678.417 635.283 678.717 632.867 680.15 629.1C682.717 622.267 686.017 614.117 690.05 604.65C696.183 590.317 697.533 576.35 694.1 562.75C694.067 562.417 694.05 562.15 694.05 561.95C694.017 561.65 693.933 561.433 693.8 561.3C691.433 558.333 690.467 555.1 690.9 551.6C691.133 549.6 692.2 546.3 694.1 541.7ZM659.1 498.35C655.733 499.35 653.267 499.95 651.7 500.15C642.1 501.35 637.083 501.967 636.65 502C630.917 502.7 625.883 503.217 621.55 503.55C618.283 503.783 614.733 503.183 610.9 501.75C608.967 501.017 607.967 500.017 607.9 498.75C607.833 497.483 608.717 496.333 610.55 495.3C611.65 494.7 613.283 493.917 615.45 492.95C617.75 491.95 619.4 491.183 620.4 490.65C621.3 490.217 622.567 489.483 624.2 488.45C625.867 487.383 627.117 486.633 627.95 486.2C629.95 485.2 631.383 484.883 632.25 485.25C636.55 487.05 645.017 490.833 657.65 496.6C657.817 496.667 658 496.85 658.2 497.15C658.667 497.783 658.967 498.183 659.1 498.35ZM532 161.9C535.7 163.467 538.65 165.567 540.85 168.2C542.75 170.5 544.4 173.6 545.8 177.5C550.9 192.333 558.533 204.617 568.7 214.35C569.767 215.35 572.5 217.783 576.9 221.65C557.3 214.35 541.083 204.217 528.25 191.25C514.45 177.317 506.883 162.267 505.55 146.1C508.517 147.9 512.867 150.717 518.6 154.55C523.767 157.85 528.233 160.3 532 161.9ZM400.05 86.3C396.083 87.2667 392.8 88.1667 390.2 89C370.2 95.4333 356.033 106.533 347.7 122.3C343.1 131.033 338.9 141.133 335.1 152.6C330.767 165.767 325.517 177.217 319.35 186.95C312.35 197.95 303.9 207.25 294 214.85C286.733 220.45 277.183 224.533 265.35 227.1C264.717 227.233 263.917 227.283 262.95 227.25C262.383 227.25 261.467 227.217 260.2 227.15C260.3 219.65 258.8 214.317 255.7 211.15C252.667 208.017 247.4 206.333 239.9 206.1C231.967 205.833 223.45 206.667 214.35 208.6C207.65 210 199.417 212.317 189.65 215.55L180.05 218.85C173.85 202.583 172.233 186.183 175.2 169.65C181 137.75 196.117 112.133 220.55 92.8C227.25 87.5 234.933 82.9167 243.6 79.05C251 75.7167 259.483 72.7833 269.05 70.25C281.883 66.7833 295.367 64.6667 309.5 63.9C322.333 63.2 335.967 63.5833 350.4 65.05C368.767 66.9167 385.85 71.5667 401.65 79L411.05 83.6C406.017 84.8333 402.35 85.7333 400.05 86.3ZM381.3 138.8C383.333 137.167 385.1 135.733 386.6 134.5C387.833 140.4 387.2 145.167 384.7 148.8C379.033 157.167 375.483 162.367 374.05 164.4C369.95 170.233 366.133 175.217 362.6 179.35C351.867 192.017 337.817 202.1 320.45 209.6C317.85 210.733 314.567 211.95 310.6 213.25C308.367 213.95 305.017 215.017 300.55 216.45L299.95 215.2C303.683 210.9 306.483 207.667 308.35 205.5C311.65 201.633 314.267 198.25 316.2 195.35C318.867 191.383 322.1 186.183 325.9 179.75C331.133 170.85 334.25 165.6 335.25 164C336.55 161.9 337.75 160.8 338.85 160.7C346.85 160.133 354.583 157.75 362.05 153.55C368.083 150.183 374.5 145.267 381.3 138.8ZM462.35 241.25C468.883 238.35 475.35 237.933 481.75 240C488.25 242.1 493.05 246.267 496.15 252.5C498.117 256.4 500.167 261.367 502.3 267.4C503.533 270.767 505.333 275.833 507.7 282.6L508.7 285.4C508.733 285.433 509.3 285.8 510.4 286.5L507.75 271.9C517.75 272.133 526.05 275.883 532.65 283.15C534.65 285.317 537.3 288.517 540.6 292.75C544.167 297.317 546.767 300.533 548.4 302.4C549.133 303.267 550.117 304.017 551.35 304.65C552.583 305.25 553.767 305.567 554.9 305.6C561.833 305.8 566.183 306.017 567.95 306.25C572.75 306.883 576.9 308.333 580.4 310.6C587.4 315.2 592.05 321.417 594.35 329.25C597.217 339.183 598.25 349.55 597.45 360.35C596.717 369.917 594.517 380.15 590.85 391.05C587.317 401.483 582.583 412 576.65 422.6C571.483 431.833 565.183 441.5 557.75 451.6C542.617 472.233 524.517 488.9 503.45 501.6C485.617 512.433 467.567 520.35 449.3 525.35C422.4 532.783 397.3 531.817 374 522.45C364.267 518.55 354.683 513.4 345.25 507C337.05 501.5 328.55 494.783 319.75 486.85C306.983 475.35 297.133 465.983 290.2 458.75C269.533 437.383 256.983 413.3 252.55 386.5C250.45 373.6 250.4 360.35 252.4 346.75C253.467 339.183 256.5 332.8 261.5 327.6C266.533 322.333 273.15 318.667 281.35 316.6C285.083 315.633 287.7 314.667 289.2 313.7C291.5 312.2 293.15 309.833 294.15 306.6C295.583 301.933 298.95 297.317 304.25 292.75C309.35 288.383 314.417 285.517 319.45 284.15V302L320.95 302.2C321.717 298.3 322.283 295.367 322.65 293.4C323.317 289.933 323.717 287 323.85 284.6C324.483 273.833 328.15 263.833 334.85 254.6C338.917 249.067 343.733 245.9 349.3 245.1C354.9 244.3 360.567 245.967 366.3 250.1C373.067 255 378.25 261.15 381.85 268.55C382.55 269.95 383.55 271.65 384.85 273.65C385.583 274.75 386.667 276.4 388.1 278.6L389.25 278.15C388.517 276.25 387.967 274.817 387.6 273.85C386.933 272.15 386.3 270.75 385.7 269.65C384.767 267.817 384.55 266.35 385.05 265.25C385.517 264.25 386.75 263.367 388.75 262.6C400.883 258 413.317 258.633 426.05 264.5C428.483 265.633 429.983 266.967 430.55 268.5C431.083 269.933 430.85 271.95 429.85 274.55C429.617 275.083 429.083 276.883 428.25 279.95L429.95 280.75C430.717 279.483 431.3 278.517 431.7 277.85C432.367 276.717 432.85 275.733 433.15 274.9C436.183 267 439.9 260.383 444.3 255.05C449.267 249.05 455.283 244.45 462.35 241.25ZM113.3 244.9C114.167 244.3 115.367 243.967 116.9 243.9C118.367 243.833 119.6 244.05 120.6 244.55C121.167 244.85 121.567 245.733 121.8 247.2C122.033 248.6 122.033 249.867 121.8 251C119.2 263.433 117.583 271.917 116.95 276.45C115.583 286.05 115.3 294.683 116.1 302.35C116.367 304.85 116.983 308.067 117.95 312C119.25 317.2 120.017 320.417 120.25 321.65C120.417 322.45 120.4 323.333 120.2 324.3C119.967 325.3 119.617 326.033 119.15 326.5C116.35 329 112.9 331.983 108.8 335.45C106.433 337.45 102.783 340.533 97.85 344.7C95.1167 342.033 92.9333 338.667 91.3 334.6C89.9667 331.233 88.9167 327.2 88.15 322.5C84.2833 298.233 88.8 275.95 101.7 255.65C102.933 253.75 104.683 251.8 106.95 249.8C108.383 248.533 110.5 246.9 113.3 244.9ZM129.1 329.2C131.767 330.233 134.417 332.417 137.05 335.75C144.217 344.817 151.117 353.283 157.75 361.15C159.383 363.083 161.7 364.933 164.7 366.7C165.967 367.433 166.75 368.233 167.05 369.1C167.35 369.933 167.333 371.117 167 372.65C165.067 381.45 163.817 389.3 163.25 396.2C163.05 398.633 162.583 400.233 161.85 401C160.983 401.9 159.417 402.083 157.15 401.55C156.217 401.35 155.217 401.283 154.15 401.35C146.65 401.15 140.217 400.283 134.85 398.75C128.617 397.017 123.217 394.283 118.65 390.55C111.783 384.917 106.917 379.483 104.05 374.25C100.383 367.517 99.4167 360.3 101.15 352.6C102.383 347.133 104.567 342.467 107.7 338.6C110.967 334.567 115.183 331.517 120.35 329.45C123.45 328.217 126.367 328.133 129.1 329.2ZM243.65 211.7C245.017 212 248.283 212.9 253.45 214.4C255.283 214.933 256.45 215.983 256.95 217.55C257.383 218.95 257.267 220.617 256.6 222.55C255.933 224.55 254.967 227.55 253.7 231.55C252.533 235.15 251.5 238.133 250.6 240.5C247.267 249.333 244.883 256.583 243.45 262.25C241.45 270.35 240.567 277.933 240.8 285C240.867 286.5 240.433 287.633 239.5 288.4C239.067 288.767 238 289.283 236.3 289.95C233.3 291.217 228.767 293.05 222.7 295.45C217.367 297.617 212.9 299.6 209.3 301.4C206.767 302.667 203.717 304.517 200.15 306.95C198.15 308.317 195.033 310.45 190.8 313.35C180.867 304.117 174.317 292.483 171.15 278.45C167.683 263.317 168.133 249.05 172.5 235.65C174 231.083 176.517 227.267 180.05 224.2C182.983 221.667 186.867 219.45 191.7 217.55C205 212.383 219.017 209.95 233.75 210.25C236.617 210.317 239.917 210.8 243.65 211.7ZM190.05 327.25C190.083 321.283 192.667 316.3 197.8 312.3C210.967 302.2 225.433 295.9 241.2 293.4C243.467 293.033 245.233 293.2 246.5 293.9C247.867 294.633 248.85 296.067 249.45 298.2C251.45 305.1 253.4 311.083 255.3 316.15C255.7 317.183 256.367 318.4 257.3 319.8C257.833 320.567 258.65 321.733 259.75 323.3C254.517 329.033 250.983 336.1 249.15 344.5C247.95 350.067 247.317 357.933 247.25 368.1C247.217 371.1 247.383 374.833 247.75 379.3C247.95 381.8 248.25 385.583 248.65 390.65C244.083 391.15 239.383 390.7 234.55 389.3C230.717 388.167 226.5 386.3 221.9 383.7C200.467 371.533 189.85 352.717 190.05 327.25ZM172.6 370.45C173.733 368.417 174.917 367.1 176.15 366.5C177.583 365.767 179.317 365.9 181.35 366.9C188.25 370.1 193.417 372.517 196.85 374.15C202.95 377.017 208 379.617 212 381.95C218.633 385.85 223.967 388.733 228 390.6C233.967 393.333 239.683 395.2 245.15 396.2C247.217 396.567 248.85 397.233 250.05 398.2C251.417 399.267 252.367 400.783 252.9 402.75C253.267 404.05 253.85 405.6 254.65 407.4C255.083 408.4 255.75 409.917 256.65 411.95C257.483 413.983 257.633 415.7 257.1 417.1C256.533 418.5 255.217 419.717 253.15 420.75C245.35 424.683 237.9 427.583 230.8 429.45C222.667 431.65 214.517 432.65 206.35 432.45C195.317 433.15 185.983 430.767 178.35 425.3C171.95 420.667 168.35 413.85 167.55 404.85C166.95 397.85 166.9 392 167.4 387.3C168.1 381.067 169.833 375.45 172.6 370.45ZM255.4 422.9C257.967 421.3 259.933 421.667 261.3 424C264.6 429.8 266.6 433.333 267.3 434.6C269.5 438.667 271.3 442.3 272.7 445.5C273.067 446.3 272.9 447.5 272.2 449.1C271.5 450.6 270.667 451.733 269.7 452.5C262.567 458.133 256.3 462.433 250.9 465.4C246.667 467.733 241.65 470.317 235.85 473.15C235.383 473.383 230.3 475.817 220.6 480.45C219.733 480.85 218.7 481.183 217.5 481.45C216.867 481.583 216.117 481.717 215.25 481.85C205.417 481.817 198 477.667 193 469.4C188.067 461.2 187.6 452.633 191.6 443.7C192.7 441.3 194 439.583 195.5 438.55C197.067 437.517 199.233 436.967 202 436.9C212.133 436.733 221.35 435.65 229.65 433.65C239.083 431.35 247.667 427.767 255.4 422.9ZM249.75 470.15C257.283 466.283 263.683 462.3 268.95 458.2C270.017 457.4 271.283 456.25 272.75 454.75C274.583 452.883 276.083 451.367 277.25 450.2C287.75 462.767 294.017 470.317 296.05 472.85C296.483 473.383 296.75 474.117 296.85 475.05C296.983 475.95 296.917 476.717 296.65 477.35C293.25 486.217 289.617 493.767 285.75 500C281.05 507.533 275.6 513.883 269.4 519.05C262.133 525.05 253.767 528.333 244.3 528.9C240.6 529.133 236.7 528.25 232.6 526.25C228.6 524.283 225.05 521.583 221.95 518.15C214.65 510.05 212.25 501.5 214.75 492.5C215.617 489.267 217.55 486.583 220.55 484.45C221.917 483.45 224.817 481.917 229.25 479.85C239.517 475.15 246.35 471.917 249.75 470.15ZM185.1 452.75C186.033 460.683 186.967 466 187.9 468.7C189.8 474.2 193.25 478.433 198.25 481.4C198.117 481.533 195.767 483.817 191.2 488.25C188.467 490.883 186.15 492.983 184.25 494.55C172.95 503.717 159.367 508.217 143.5 508.05C129.1 507.85 120 499.983 116.2 484.45C114.733 478.483 114.3 472.083 114.9 465.25C115.333 460.117 116.933 456.4 119.7 454.1C122.4 451.833 126.35 450.833 131.55 451.1C134.45 451.233 137.833 451.567 141.7 452.1C146.2 452.833 149.567 453.367 151.8 453.7C160.5 455.033 166 455.75 168.3 455.85C174.567 456.083 180.167 455.05 185.1 452.75ZM204.75 487.25C206.783 487.217 208.333 487.133 209.4 487C208.567 496.433 204.683 502.4 197.75 504.9C194.083 506.233 189.45 507.6 183.85 509C180.717 509.767 176 510.917 169.7 512.45L168.85 510.45C171.65 508.817 173.733 507.6 175.1 506.8C177.567 505.333 179.6 504.033 181.2 502.9C183.133 501.533 186.417 499.05 191.05 495.45C195.217 492.25 198.533 489.817 201 488.15C201.767 487.617 203.017 487.317 204.75 487.25ZM205.15 507.2C206.95 506.233 208.317 505.867 209.25 506.1C210.25 506.367 211.267 507.45 212.3 509.35C215.433 515.117 219.067 519.95 223.2 523.85C227.4 527.817 229.45 530.783 229.35 532.75C229.283 534.083 227.55 536.883 224.15 541.15C214.983 552.683 205.217 561.283 194.85 566.95C192.417 568.283 189.25 569.617 185.35 570.95C183.183 571.683 179.917 572.783 175.55 574.25L175.1 572.95C170.9 573.283 167.033 572.35 163.5 570.15C160.667 568.417 157.85 565.683 155.05 561.95C149.183 554.25 146.467 545.9 146.9 536.9C147.1 532.7 148.333 529.1 150.6 526.1C153.1 522.833 156.417 520.95 160.55 520.45C161.683 520.317 163.483 519.983 165.95 519.45C168.283 518.983 170.083 518.683 171.35 518.55C182.017 517.45 193.283 513.667 205.15 507.2ZM109.15 478.9C110.55 481.6 112.5 485.65 115 491.05C117.333 495.717 119.583 499.4 121.75 502.1C123.917 504.8 125.05 507.267 125.15 509.5C125.25 511.433 124.533 514.033 123 517.3C118.233 527.467 115.95 539.133 116.15 552.3C116.283 560.7 115.883 567.467 114.95 572.6C114.383 575.967 113.233 577.917 111.5 578.45C109.767 578.95 107.733 577.933 105.4 575.4C100.833 570.467 97.85 565.617 96.45 560.85C92.85 548.35 91.9833 535.15 93.85 521.25C94.95 513.15 96.2833 506.4 97.85 501C99.9167 493.9 102.75 487.65 106.35 482.25C106.717 481.683 107.217 481.05 107.85 480.35C108.517 479.65 108.95 479.167 109.15 478.9ZM141.9 578.8C142.033 576.1 142.467 572.783 143.2 568.85C144.067 564.45 144.683 561.15 145.05 558.95L147.15 559.05C152.883 569.45 161.4 575.467 172.7 577.1C169.3 586.967 169.167 596.9 172.3 606.9C174.533 614.067 179.15 622.767 186.15 633C188.55 636.5 190.633 640.633 192.4 645.4C193.167 647.433 193.117 648.967 192.25 650C191.417 651.067 189.917 651.383 187.75 650.95C181.017 649.617 175.967 647.733 172.6 645.3C150.833 629.667 140.6 607.5 141.9 578.8ZM620.3 435.55C621.5 435.417 623.317 435.2 625.75 434.9C630.917 434.5 634.117 434.783 635.35 435.75C636.55 436.683 637.683 439.733 638.75 444.9C640.15 451.8 639.133 459.633 635.7 468.4C632.1 477.567 627.233 483.833 621.1 487.2C616.867 489.533 613.5 490.867 611 491.2C607.3 491.7 603.8 490.567 600.5 487.8C599.533 486.967 598.15 486.383 596.35 486.05C594.817 485.75 593.2 485.65 591.5 485.75C584.3 486.217 577.017 484.617 569.65 480.95C565.917 479.083 559.483 474.95 550.35 468.55C561.55 453.65 569.267 443.417 573.5 437.85C573.9 437.35 574.467 436.95 575.2 436.65C576 436.283 576.65 436.167 577.15 436.3C583.483 437.733 590.683 438.25 598.75 437.85C602.517 437.65 609.7 436.883 620.3 435.55ZM598.4 491.65C600 491.883 601.217 492.4 602.05 493.2C602.783 493.933 603.333 495.05 603.7 496.55C605.4 503.65 605.383 510.183 603.65 516.15C601.917 522.283 598.4 527.7 593.1 532.4C587.333 537.5 581.133 540.65 574.5 541.85C567.833 543.05 560.85 542.233 553.55 539.4C547.45 537.033 541.6 533.433 536 528.6C531.7 524.9 526.983 519.9 521.85 513.6C520.683 512.167 519.217 510.25 517.45 507.85C514.85 504.317 513.3 502.2 512.8 501.5L546.5 472.1C547.1 472.433 549.283 473.75 553.05 476.05C555.65 477.617 557.8 478.867 559.5 479.8C570.533 485.833 583.5 489.783 598.4 491.65ZM417.25 491.1C414.517 490.933 412.467 490.85 411.1 490.85C412.267 493.25 413.917 494.817 416.05 495.55C418.183 496.25 420.883 496.167 424.15 495.3C426.85 494.567 429.083 493.2 430.85 491.2C432.583 489.267 433.367 487.3 433.2 485.3C432.133 485.9 430.5 486.9 428.3 488.3C426.333 489.5 424.617 490.267 423.15 490.6C421.617 491 419.65 491.167 417.25 491.1ZM456.8 403.45L464.65 413.65C464.783 409.35 463.817 405.9 461.75 403.3C459.783 400.767 457 399.267 453.4 398.8C450.1 398.4 447.267 399.05 444.9 400.75C442.533 402.483 440.983 405.083 440.25 408.55L449.45 402.55C448.417 408.15 444.9 414.933 438.9 422.9C432.367 431.567 425.633 437.683 418.7 441.25C406.767 447.383 394.35 449.633 381.45 448C370.483 446.6 358.333 442.233 345 434.9C345 434.933 345.367 435.683 346.1 437.15C346.4 437.783 346.683 438.267 346.95 438.6C349.017 441.2 351.8 443.283 355.3 444.85C357.533 445.85 360.833 446.883 365.2 447.95C368.967 448.883 372.167 450.033 374.8 451.4C377.967 453 380.633 455.05 382.8 457.55C383.9 458.783 385.617 460.9 387.95 463.9C390.15 466.7 391.9 468.817 393.2 470.25C398.133 475.717 403.583 478.933 409.55 479.9C416.083 480.967 421.85 478.983 426.85 473.95C430.717 470.05 434.65 464.367 438.65 456.9C441.65 451.3 444.05 444.95 445.85 437.85C447.25 432.317 448.433 425.617 449.4 417.75C450.067 412.317 452.533 407.55 456.8 403.45ZM419.35 444.05C428.683 438.717 437.25 430.883 445.05 420.55C445.617 425.35 445.05 430.55 443.35 436.15C442.883 437.65 441 442.567 437.7 450.9C433.233 449.433 428.833 449.467 424.5 451C421.067 452.2 417.317 454.517 413.25 457.95C412.85 458.283 412.35 458.533 411.75 458.7C411.117 458.9 410.583 458.933 410.15 458.8C403.65 456.933 397.833 458.5 392.7 463.5L384.6 453.45C397.533 453.05 409.117 449.917 419.35 444.05ZM428.8 454.25C431.067 454.117 432.733 454.883 433.8 456.55C434.4 457.417 434.333 458.933 433.6 461.1C432.933 463.067 432.05 464.767 430.95 466.2C427.317 470.933 422.233 473.65 415.7 474.35C409.2 475.017 403.717 473.467 399.25 469.7C397.617 468.333 396.85 467.117 396.95 466.05C397.05 464.95 398.017 463.9 399.85 462.9C402.383 461.533 404.467 460.95 406.1 461.15C408.133 461.35 409.667 462.717 410.7 465.25C413.467 463.083 415.517 461.483 416.85 460.45C419.183 458.683 421.217 457.283 422.95 456.25C424.95 455.017 426.9 454.35 428.8 454.25ZM351.3 283.7L356.9 282.9L357.35 283.85C356.783 284.217 355.933 284.767 354.8 285.5C353.8 286.167 352.933 286.667 352.2 287C344.167 290.333 338.717 296.467 335.85 305.4C330.083 323.333 331.05 341.35 338.75 359.45C339.617 361.483 340.817 364 342.35 367C343.217 368.7 344.617 371.4 346.55 375.1C352.783 374.367 356.483 373.917 357.65 373.75C359.383 373.483 360.717 373.633 361.65 374.2C362.65 374.8 363.367 375.967 363.8 377.7C364.033 378.7 364.567 379.883 365.4 381.25C365.833 382.017 366.517 383.167 367.45 384.7L369.1 384.25C365.967 377.283 366.65 372.317 371.15 369.35C372.917 368.183 375.25 367.083 378.15 366.05C381.417 364.983 383.767 364.167 385.2 363.6C385.133 362 385.083 360.767 385.05 359.9C385.017 358.367 385.1 357.083 385.3 356.05C385.6 354.45 386.15 352.2 386.95 349.3C387.817 346.2 388.4 343.95 388.7 342.55C393.133 320.85 388.45 301.2 374.65 283.6C370.317 278.1 365.233 275.267 359.4 275.1C357 275.033 355.083 275.767 353.65 277.3C352.217 278.8 351.433 280.933 351.3 283.7ZM364.9 288.75C367.133 288.217 369.367 288.417 371.6 289.35C373.867 290.317 375.45 291.75 376.35 293.65C376.883 294.85 377.467 296.383 378.1 298.25L379.65 302.95C379.383 306.15 378.533 308.867 377.1 311.1C375.6 313.367 373.75 314.717 371.55 315.15C368.75 315.683 366.283 315.233 364.15 313.8C361.95 312.333 360.317 310 359.25 306.8C358.35 304.167 357.85 301.233 357.75 298C357.65 295.367 358.183 293.3 359.35 291.8C360.483 290.367 362.333 289.35 364.9 288.75ZM386.75 338.6C386.35 340.167 385.783 342.533 385.05 345.7C384.35 348.467 383.667 350.767 383 352.6C382.6 353.733 382.083 355.483 381.45 357.85C380.683 359.85 379.367 361.25 377.5 362.05C374.833 363.25 370.8 365.167 365.4 367.8C360.667 369.6 356.433 369.817 352.7 368.45C350.533 367.65 348.383 365.95 346.25 363.35C344.383 361.083 342.867 358.567 341.7 355.8C334.133 337.933 333.9 320.45 341 303.35C341.533 302.083 342.4 300.617 343.6 298.95C345.033 297.05 346.083 295.583 346.75 294.55C346.617 297.117 346.333 300.833 345.9 305.7C345.567 309.967 345.45 313.533 345.55 316.4C345.75 325 348.817 332.7 354.75 339.5C358.05 343.3 362.733 345.267 368.8 345.4C374.8 345.533 379.367 343.817 382.5 340.25C382.833 339.883 383.3 339.483 383.9 339.05C384.6 338.617 385.117 338.267 385.45 338L386.75 338.6ZM464.3 279.55L471.45 282.25L471.1 283.35H468.2C463.5 283.35 459.383 283.717 455.85 284.45C451.583 285.317 447.717 286.8 444.25 288.9C434.95 294.5 428.7 303.133 425.5 314.8C420.833 331.733 421.233 348.6 426.7 365.4C427.5 367.8 427.85 369.533 427.75 370.6C427.617 372.3 426.567 373.7 424.6 374.8C424.2 375 423.817 375.517 423.45 376.35C422.683 378.017 422.283 378.883 422.25 378.95C423.85 378.45 424.683 378.183 424.75 378.15C431.617 374.117 438.267 371.717 444.7 370.95C451.8 370.117 458.8 371.233 465.7 374.3C467.767 375.2 471.183 376.483 475.95 378.15C476.417 378.317 477.033 378.467 477.8 378.6L479.7 378.9C479.5 378.233 479.133 377.583 478.6 376.95C478.033 376.283 477.7 375.833 477.6 375.6C477.1 374.267 476.767 373.317 476.6 372.75C476.333 371.617 476.35 370.8 476.65 370.3C484.75 357.167 489.7 343.383 491.5 328.95C492.633 319.75 492.533 311.583 491.2 304.45C489.6 296.117 486.233 288.667 481.1 282.1C478.533 278.833 475.683 276.95 472.55 276.45C469.383 275.983 466.633 277.017 464.3 279.55ZM471 292.3C474.7 292.3 477.867 293.817 480.5 296.85C483.1 299.883 484.417 303.583 484.45 307.95C484.483 312.817 483.067 316.967 480.2 320.4C477.367 323.833 473.917 325.55 469.85 325.55C465.783 325.55 462.383 323.967 459.65 320.8C456.917 317.633 455.55 313.7 455.55 309C455.517 304.333 457 300.383 460 297.15C462.967 293.95 466.633 292.333 471 292.3ZM443.8 292.8C445.267 291.567 447.133 290.883 449.4 290.75C445.9 295.883 443.75 299.067 442.95 300.3C438.55 307.167 436.5 315.033 436.8 323.9C437.133 332.833 439.783 340.417 444.75 346.65C447.583 350.15 450.933 352.567 454.8 353.9C458.633 355.233 462.75 355.4 467.15 354.4C469.15 353.933 471.483 353.033 474.15 351.7C475.683 350.967 477.967 349.8 481 348.2C481.433 348 481.983 347.667 482.65 347.2C483.55 346.533 484.083 346.15 484.25 346.05L485.5 346.95C479.733 357.85 475.933 364.933 474.1 368.2C473.433 369.4 472.583 370.15 471.55 370.45C470.583 370.717 469.333 370.6 467.8 370.1C462.367 368.3 457.367 367.183 452.8 366.75C447.4 366.217 442.25 366.583 437.35 367.85C436.65 368.017 435.733 367.85 434.6 367.35C433.5 366.85 432.75 366.267 432.35 365.6C428.817 359.633 426.617 353.15 425.75 346.15C424.95 339.85 425.233 332.983 426.6 325.55C427.833 318.55 429.683 312.55 432.15 307.55C435.017 301.683 438.9 296.767 443.8 292.8Z" fill="black"/>
    </g>
    <defs>
        <clipPath id="clip0">
            <rect width="839" height="669" fill="white"/>
        </clipPath>
    </defs>
</svg>
