<svg width="708" height="598" viewBox="0 0 708 598" fill="none" xmlns="http://www.w3.org/2000/svg">
    <g clip-path="url(#clip0)">
        <path d="M320.85 337.6C320.75 338.567 320.7 339.233 320.7 339.6L320.85 337.45C320.861 337.505 320.861 337.555 320.85 337.6Z" fill="#FF0000"/>
        <path d="M84.95 371.7C83.95 369.933 82.4834 368.3 80.55 366.8C78.5834 365.267 76.6667 364.3 74.8 363.9C68.7667 362.667 63.6334 360.167 59.4 356.4C55.6 352.967 52.3667 348.35 49.7 342.55C49 341.05 46.5834 335.467 42.45 325.8C40.4834 328 37.65 331.05 33.95 334.95C30.8167 338.317 28.3834 341.25 26.65 343.75C15.1167 360.45 8.73335 380.117 7.50002 402.75C7.06669 410.517 7.01669 417.5 7.35002 423.7C7.75002 431.1 8.75002 438 10.35 444.4C14.2167 459.867 20.1834 472.483 28.25 482.25C37.15 493.05 48.8334 500.7 63.3 505.2C69.5 507.133 76.25 508.4 83.55 509C89.4167 509.467 96.25 509.55 104.05 509.25L104.85 507.85C104.083 506.85 103.5 506.1 103.1 505.6C102.367 504.733 101.717 504.033 101.15 503.5C83.7167 486.8 76.8 467.467 80.4 445.5C81.2 440.567 82.5667 434.167 84.5 426.3C86.9334 416.367 88.45 409.983 89.05 407.15C91.9167 393.683 90.55 381.867 84.95 371.7Z" fill="white"/>
        <path d="M94 354.05C96.6667 349.783 95.9334 346.217 91.8 343.35C84.3334 338.117 79.1 331.833 76.1 324.5C76.0334 324.333 73.6 318.183 68.8 306.05C68.5667 306.117 66.5667 306.75 62.8 307.95C60.5 308.683 58.6 309.317 57.1 309.85C53 311.35 50.1834 313.367 48.65 315.9C47.0834 318.467 46.5834 321.933 47.15 326.3C48.45 336.033 52.7334 344.683 60 352.25C66.0667 358.683 73.3834 361.6 81.95 361C87.35 360.633 91.3667 358.317 94 354.05Z" fill="white"/>
        <path d="M90.45 178.2C81.15 164.933 69.2333 158.133 54.7 157.8C57.1667 159.133 59.0333 160.1 60.3 160.7C74.9333 167.333 86.7 178.633 95.6 194.6C99.9333 202.333 103.6 210.867 106.6 220.2C109.167 228.167 111.4 237.183 113.3 247.25C119.167 278.15 122.267 307.917 122.6 336.55C122.633 340.15 123 344.183 123.7 348.65C124.133 351.517 124.867 355.517 125.9 360.65C127.3 367.183 131.367 369.917 138.1 368.85C142.367 368.15 145.55 366.917 147.65 365.15C150.417 362.817 153.733 359.817 157.6 356.15C161.867 351.983 165.083 348.883 167.25 346.85C170.817 343.683 173.483 341.3 175.25 339.7C178.45 336.867 181.017 334.4 182.95 332.3C183.917 331.267 184.867 329.75 185.8 327.75C186.767 325.483 187.533 323.8 188.1 322.7L186.7 321.3C186.033 321.567 185 321.933 183.6 322.4C182.367 322.833 181.417 323.3 180.75 323.8C178.417 325.633 175.067 328.6 170.7 332.7C168.2 335.1 164.5 338.8 159.6 343.8C155.167 348.2 151.3 351.683 148 354.25C142.367 358.617 138.2 360.017 135.5 358.45C132.9 356.95 131.267 352.533 130.6 345.2C129.067 327.933 127.9 315 127.1 306.4C125.7 291.6 124.383 278.683 123.15 267.65C119.417 233.917 108.517 204.1 90.45 178.2Z" fill="white"/>
        <path d="M87.25 259.4C87.15 259.1 86.8834 258.817 86.45 258.55C86.05 258.25 85.6834 258.1 85.35 258.1C81.6167 258.1 78.45 258.5 75.85 259.3C72.6167 260.3 69.8834 262 67.65 264.4C66.35 265.767 65.8 267.017 66 268.15C66.2 269.317 67.1334 270.283 68.8 271.05C70.2 271.683 71.9167 272.383 73.95 273.15C76.2834 274.017 78 274.667 79.1 275.1C81 274.567 82.3667 274.167 83.2 273.9C84.6667 273.467 85.8167 273.033 86.65 272.6C87.3834 272.2 88.05 271.65 88.65 270.95C89.3167 270.183 89.6334 269.533 89.6 269C89.4667 267.6 89.15 265.983 88.65 264.15C88.55 263.783 88.0834 262.2 87.25 259.4Z" fill="white"/>
        <path d="M118.4 304.05C118.033 298.783 117.633 294.217 117.2 290.35C116.767 286.517 116.083 281.767 115.15 276.1C114.05 269.467 113.2 264.3 112.6 260.6C109.467 262.367 104.967 264.817 99.1 267.95C94.0667 270.683 89.9833 273.117 86.85 275.25C75.35 283.017 70.55 293.033 72.45 305.3C74.35 317.467 79.3 327.767 87.3 336.2C91.9 341.1 97.6833 342.283 104.65 339.75C108.45 338.383 111.883 335.383 114.95 330.75C118.05 326.083 119.467 321.733 119.2 317.7C118.867 311.633 118.6 307.083 118.4 304.05Z" fill="white"/>
        <path d="M90.4 378.35C92.4333 385.65 92.9833 393.583 92.05 402.15C91.3833 408.283 89.7 416.067 87 425.5C86.5667 427.033 86.5333 428.35 86.9 429.45C87.2 430.417 87.9167 431.533 89.05 432.8C93.1833 437.533 95.8667 440.683 97.1 442.25C100.033 445.917 102.317 449.317 103.95 452.45C105.75 455.85 107.617 460.3 109.55 465.8C110.65 468.967 112.383 473.967 114.75 480.8C116.55 476.467 117.85 473.283 118.65 471.25C120.117 467.65 121.167 464.617 121.8 462.15C127.733 438.517 127.917 416.117 122.35 394.95C118.783 381.417 111.967 371.367 101.9 364.8C96.7 361.433 91.8 360.95 87.2 363.35C86 364.017 85.2833 364.717 85.05 365.45C84.7833 366.25 85.0333 367.267 85.8 368.5C88.1 372.233 89.6333 375.517 90.4 378.35Z" fill="white"/>
        <path d="M111.95 257.9C112.65 256.833 113.25 255.967 113.75 255.3C112.65 253.733 111.85 252.6 111.35 251.9C110.45 250.667 109.85 250.1 109.55 250.2C103.983 251.9 98.6667 254.033 93.6001 256.6C92.9667 256.967 92.4334 257.767 92.0001 259C91.6001 260.1 91.4001 261.183 91.4001 262.25C91.3334 263.95 91.6667 265.117 92.4001 265.75C93.2334 266.55 94.5501 266.517 96.3501 265.65C97.6501 265.05 100 264.033 103.4 262.6C106.367 261.333 108.7 260.283 110.4 259.45C110.867 259.217 111.383 258.7 111.95 257.9Z" fill="white"/>
        <path d="M162.9 237.55C163.133 237.283 164.433 235.5 166.8 232.2C167.133 231.733 167.133 230.867 166.8 229.6C166.467 228.367 166 227.5 165.4 227C163 225 159.967 222.617 156.3 219.85C152.033 216.683 148.783 214.25 146.55 212.55C146.583 212.55 146.433 212.717 146.1 213.05C145.7 213.45 145.383 213.85 145.15 214.25C142.283 219.75 139.633 224.117 137.2 227.35C133.867 231.75 130.15 235.267 126.05 237.9C124.05 239.167 122.733 240.817 122.1 242.85C121.467 244.817 121.533 246.967 122.3 249.3C122.467 249.767 122.933 250.25 123.7 250.75C124.433 251.25 125 251.433 125.4 251.3C132.767 249.267 138.267 247.717 141.9 246.65C148.2 244.817 153.617 243.05 158.15 241.35C159.683 240.783 161.267 239.517 162.9 237.55Z" fill="white"/>
        <path d="M173.35 270.6C173.75 267.733 175.267 257.917 177.9 241.15C176.767 240.95 176.183 240.85 176.15 240.85C168.583 241.683 160.317 243.483 151.35 246.25C145.75 247.983 137.783 250.817 127.45 254.75C126.083 255.283 125.25 256.05 124.95 257.05C124.717 257.717 124.7 258.8 124.9 260.3C125.8 267.367 127.033 277.433 128.6 290.5L131.5 313.35C132.733 312.883 133.583 312.5 134.05 312.2C146.117 303.833 157.683 297.75 168.75 293.95C169.35 293.75 169.917 293.217 170.45 292.35C170.983 291.517 171.3 290.7 171.4 289.9C171.667 287.867 171.983 284.65 172.35 280.25C172.717 276.017 173.05 272.8 173.35 270.6Z" fill="white"/>
        <path d="M241.85 171.9C242.483 171.4 243.017 170.783 243.45 170.05C243.95 169.25 244.183 168.55 244.15 167.95C244.083 167.383 243.7 166.783 243 166.15C242.267 165.483 241.583 165.083 240.95 164.95C237.217 164.15 231.167 163 222.8 161.5C210.5 162.067 199.5 163.9 189.8 167C179.767 170.2 170.55 174.95 162.15 181.25C154.983 186.65 151.083 192.967 150.45 200.2C149.817 207.4 152.567 213.733 158.7 219.2C161.933 222.1 164.917 223.5 167.65 223.4C170.35 223.267 173.283 221.667 176.45 218.6C180.217 214.967 182.317 212.95 182.75 212.55C185.217 210.35 187.533 208.683 189.7 207.55C193.6 205.483 196.7 202.95 199 199.95C204.1 193.25 209.55 187.833 215.35 183.7C221.783 179.1 228.817 175.95 236.45 174.25C238.517 173.817 240.317 173.033 241.85 171.9Z" fill="white"/>
        <path d="M382.6 506.55C383.467 501.783 383.517 497.2 382.75 492.8C371.517 495.9 361.233 495.05 351.9 490.25C345.167 486.783 336.817 481.75 326.85 475.15C323.417 472.883 320.967 471.667 319.5 471.5C317.6 471.3 315.283 472.267 312.55 474.4C305.017 480.233 298.917 485.983 294.25 491.65C291.85 494.55 288.283 499.433 283.55 506.3C279.05 512.767 275.417 517.6 272.65 520.8C259.817 535.533 244.067 543.933 225.4 546C210.733 547.567 196.583 544.8 182.95 537.7C180.617 536.533 176.817 534.717 171.55 532.25C171.75 533.083 171.967 534.2 172.2 535.6C172.4 536.733 172.683 537.583 173.05 538.15C174.55 540.55 176.717 544.2 179.55 549.1C182.15 553.333 184.65 556.683 187.05 559.15C203.217 575.95 222.1 586.5 243.7 590.8C275.5 597.067 306.483 590.733 336.65 571.8C356.783 559.133 370.883 541.6 378.95 519.2C380.783 514.2 382 509.983 382.6 506.55Z" fill="white"/>
        <path d="M172.15 234.9C174.983 234.467 177.317 232.85 179.15 230.05C180.95 227.283 182.033 223.767 182.4 219.5C178.8 223.167 176.667 225.417 176 226.25C173.9 228.95 172.617 231.833 172.15 234.9Z" fill="white"/>
        <path d="M360.8 223.7C354.9 215.333 347.1 207.517 337.4 200.25C316.233 184.417 293.217 175.833 268.35 174.5C256.483 173.9 245.783 174.9 236.25 177.5C213.25 183.867 196.467 199.95 185.9 225.75C175.633 250.817 172.5 278.933 176.5 310.1C176.667 311.567 177.133 313.4 177.9 315.6C178.3 316.833 178.967 318.817 179.9 321.55C182.433 319.95 184.183 318.817 185.15 318.15C186.617 317.083 187.833 316.783 188.8 317.25C189.733 317.717 190.217 318.75 190.25 320.35C190.25 323.983 189.6 327.317 188.3 330.35C187.733 331.683 187.483 332.733 187.55 333.5C187.65 334.367 188.183 335.317 189.15 336.35C198.117 345.883 208.95 352.733 221.65 356.9C226.017 358.333 228.65 358.8 229.55 358.3C230.45 357.8 231.283 355.35 232.05 350.95C232.383 348.983 232.883 347.533 233.55 346.6C234.45 345.333 235.817 344.633 237.65 344.5C239.65 344.333 241.2 344.817 242.3 345.95C243.2 346.817 243.933 348.25 244.5 350.25C245.5 353.85 246.633 356.017 247.9 356.75C249.167 357.483 251.6 357.417 255.2 356.55C262.033 354.883 268.233 351.767 273.8 347.2C278.6 343.267 283.167 338.033 287.5 331.5L287.65 330.6L285.2 327C288.267 326.133 290.583 326.383 292.15 327.75C293.75 329.117 294.267 331.333 293.7 334.4C292.3 333.467 291.65 333.05 291.75 333.15L264.15 358.4C264.883 358.433 265.483 358.467 265.95 358.5C266.817 358.533 267.55 358.483 268.15 358.35C282.783 355.417 292.233 353.217 296.5 351.75C306.667 348.283 314.817 343.067 320.95 336.1L321 336.05V336L320.9 336.1C328.267 322.467 339.117 313.6 353.45 309.5C354.75 309.133 356.017 308.5 357.25 307.6C358.55 306.667 359.517 305.65 360.15 304.55C365.017 296.217 368.517 289.25 370.65 283.65C374.583 273.283 375.633 263.483 373.8 254.25C371.633 243.15 367.3 232.967 360.8 223.7ZM277.45 240.85C278.783 237.817 282.117 235.783 287.45 234.75C292.817 233.717 296.483 234.417 298.45 236.85C299.25 237.883 299.617 239.45 299.55 241.55C299.483 243.15 299.117 247.767 298.45 255.4L296.7 255.35C292.467 249.517 289.533 245.983 287.9 244.75C286.3 243.55 282.817 242.25 277.45 240.85ZM267.55 259C270.75 259.267 273.133 259.45 274.7 259.55C275.5 259.617 276.483 259.9 277.65 260.4C278.983 261.033 279.967 261.467 280.6 261.7L281.55 260.2L269.45 252.25C272.683 251.183 275.933 251.7 279.2 253.8C282.433 255.867 284.433 258.667 285.2 262.2C287.233 271.767 285.117 281.967 278.85 292.8C272.583 303.633 264.783 310.55 255.45 313.55C254.15 313.95 253.033 314.217 252.1 314.35C239.467 315.817 233.033 310.467 232.8 298.3C232.667 290.1 235.45 282 241.15 274C246.883 265.967 253.367 261.117 260.6 259.45C262.5 259.017 264.817 258.867 267.55 259ZM216.5 210.35C219.1 208.117 221.867 207.45 224.8 208.35C227.167 209.083 228.883 211.15 229.95 214.55C231.017 217.983 231.017 221.583 229.95 225.35C227.517 222.083 224.45 220.3 220.75 220C218.317 219.8 214.667 220.35 209.8 221.65C211.667 216.417 213.9 212.65 216.5 210.35ZM206.15 234.9C206.717 234.333 207.567 233.767 208.7 233.2C210.467 232.267 211.383 231.783 211.45 231.75L212.45 232.75L210.65 236.05C216.783 237.15 221.283 239.233 224.15 242.3C227.083 245.4 229.033 250.233 230 256.8C231.9 269.6 229.267 280.783 222.1 290.35C217.367 296.683 211.233 299.083 203.7 297.55C200.2 296.817 197.3 295.317 195 293.05C192.733 290.783 191.3 287.95 190.7 284.55C187.167 265.05 192.317 248.5 206.15 234.9ZM208.8 316.4C208.433 316.467 207.933 316.167 207.3 315.5C206.6 314.667 206.067 314.083 205.7 313.75L209.4 310.25C209.567 310.45 210.2 311.15 211.3 312.35C211.933 313.05 212.217 313.45 212.15 313.55C210.983 315.35 209.867 316.3 208.8 316.4Z" fill="white"/>
        <path d="M278.65 107.9C282.65 104.5 285.633 101.9 287.6 100.1C265.3 100.267 246.017 105.5 229.75 115.8C212.15 126.933 201.35 142.167 197.35 161.5C198.417 161.633 199.217 161.7 199.75 161.7C213.417 161.033 223.667 160.5 230.5 160.1C231.733 160.033 232.767 159.633 233.6 158.9C239.4 153.667 245.217 148.3 251.05 142.8C251.35 142.5 251.667 142.033 252 141.4C252.433 140.6 252.733 140.083 252.9 139.85C256.7 134.45 259.55 130.4 261.45 127.7C264.85 122.933 267.85 119.017 270.45 115.95C272.45 113.617 275.183 110.933 278.65 107.9Z" fill="white"/>
        <path d="M226.9 255.75C226.333 251.783 224.967 248.283 222.8 245.25C219.9 241.183 216.15 239.15 211.55 239.15C206.883 239.117 203.267 241.183 200.7 245.35C192.7 258.383 190.717 271.433 194.75 284.5C195.017 285.467 195.65 286.617 196.65 287.95C198.45 290.35 199.367 291.583 199.4 291.65C199.367 288.717 199.333 286.633 199.3 285.4C199.267 283.2 199.317 281.417 199.45 280.05C200.217 271.95 203.767 266.35 210.1 263.25C213.1 261.783 215.933 261.5 218.6 262.4C221.033 263.2 223.45 265.017 225.85 267.85C227.117 263.85 227.467 259.817 226.9 255.75Z" fill="white"/>
        <path d="M284.95 497.7C286.45 496.767 288.2 495.083 290.2 492.65C296.133 485.383 302.167 479.1 308.3 473.8C309.7 472.6 311.783 471.467 314.55 470.4C317.783 469.267 320.233 468.333 321.9 467.6C320.667 464.933 318.85 462.85 316.45 461.35C314.55 460.183 312.1 459.3 309.1 458.7C293.3 455.5 276.45 457.083 258.55 463.45C235.717 471.617 217.9 486.317 205.1 507.55C203.767 509.75 202.35 512.583 200.85 516.05C200.017 517.983 198.75 520.9 197.05 524.8L198.4 525.55L200 524.45C224.833 506.45 250.733 498.083 277.7 499.35C280.533 499.483 282.95 498.933 284.95 497.7Z" fill="white"/>
        <path d="M219.95 284.5C218.65 283.2 217.667 282.233 217 281.6C215.8 280.467 214.767 279.85 213.9 279.75C212.067 279.55 210.65 280.117 209.65 281.45C208.75 282.583 208.25 284.183 208.15 286.25C207.983 289.917 209.65 291.95 213.15 292.35C214.55 292.517 215.917 291.817 217.25 290.25C218.583 288.717 219.483 286.8 219.95 284.5Z" fill="white"/>
        <path d="M239.2 293C237.567 294.6 236.7 296.5 236.6 298.7C236.5 300.433 237.05 301.933 238.25 303.2C239.45 304.433 240.933 305.067 242.7 305.1C244.833 305.167 246.533 304.45 247.8 302.95C249.1 301.483 249.767 299.417 249.8 296.75C249.9 295.05 249.55 293.7 248.75 292.7C247.883 291.567 246.5 290.933 244.6 290.8C242.6 290.667 240.8 291.4 239.2 293Z" fill="white"/>
        <path d="M489.6 370.3C487.467 369.167 485.633 368.35 484.1 367.85C466.567 362.083 447.95 358.817 428.25 358.05C398.883 356.883 369.433 361.2 339.9 371C327.867 374.967 317.283 378.917 308.15 382.85C303.15 385.017 295.633 388.25 285.6 392.55C277.067 396.517 269.967 400.65 264.3 404.95C260.967 407.483 257.15 409.367 252.85 410.6C250.483 411.3 248.55 411.1 247.05 410C245.583 408.933 244.733 407.15 244.5 404.65C244.3 402.117 244.15 399.05 244.05 395.45C244.017 391.383 243.967 388.317 243.9 386.25C243.8 379.283 243.717 374.05 243.65 370.55C243.55 364.35 243.35 359.133 243.05 354.9C242.95 353.667 242.3 352.2 241.1 350.5C239.9 348.833 238.933 348.033 238.2 348.1C236.367 348.267 235.35 349.25 235.15 351.05C235.017 352.05 235.083 353.633 235.35 355.8C235.55 360.033 236.483 377.467 238.15 408.1C238.183 408.667 238.283 409.5 238.45 410.6C239.317 417.467 242.717 420.383 248.65 419.35C255.15 418.283 261.317 416.117 267.15 412.85C278.717 406.117 287.417 401.167 293.25 398C303.383 392.5 312.533 388.383 320.7 385.65C341.3 378.783 352 375.233 352.8 375C365.1 371.2 376.1 368.583 385.8 367.15C411.7 363.383 434.75 363.1 454.95 366.3C460.25 367.133 466.85 368.333 474.75 369.9C487.717 372.467 494.3 373.767 494.5 373.8L494.95 373.25C492.583 371.95 490.8 370.967 489.6 370.3Z" fill="white"/>
        <path d="M439.55 199.45C440.617 198.583 441.517 197.45 442.25 196.05C443.05 194.617 443.467 193.267 443.5 192C444.2 175.4 440.85 159.783 433.45 145.15C418.85 116.317 397.017 98.0333 367.95 90.3C347.483 84.8333 326.75 86.1167 305.75 94.15C285.85 101.817 270.417 115.083 259.45 133.95C252.75 145.483 248.717 157.9 247.35 171.2C252.45 171.2 255.283 171.183 255.85 171.15C263.05 170.717 270.617 171.167 278.55 172.5C285.183 173.633 292.5 175.467 300.5 178C316.333 183.1 330.15 190.183 341.95 199.25C351.517 206.617 359.133 214.55 364.8 223.05C371 232.383 375 242.6 376.8 253.7C377.067 255.233 377.183 257.383 377.15 260.15C377.117 263.283 377.15 265.433 377.25 266.6C377.317 267.367 377.617 268.2 378.15 269.1C378.717 270.067 379.2 270.55 379.6 270.55C382.8 270.65 386.083 269.633 389.45 267.5C392.95 265.233 394.783 262.783 394.95 260.15C395.417 252.483 399.667 247.35 407.7 244.75C410.767 243.717 413.033 242.683 414.5 241.65C419.667 237.917 423.533 234.383 426.1 231.05C429.5 226.617 431.283 221.817 431.45 216.65C431.55 212.95 432.25 209.733 433.55 207C434.817 204.3 436.817 201.783 439.55 199.45Z" fill="white"/>
        <path d="M281.35 271.75C280.383 266.317 277.117 262.983 271.55 261.75C267.65 260.917 263.783 261.117 259.95 262.35C256.683 263.417 253.267 265.283 249.7 267.95C248.933 268.55 248.017 269.45 246.95 270.65C246.317 271.35 245.25 272.55 243.75 274.25L248.95 274.65C252.783 274.817 255.817 275.95 258.05 278.05C260.35 280.25 261.433 283.15 261.3 286.75C261.167 291.683 260.467 295.7 259.2 298.8C257.567 302.833 254.85 305.95 251.05 308.15C250.783 308.317 250.467 308.683 250.1 309.25C249.4 310.317 248.983 310.933 248.85 311.1C249.083 311.133 249.767 311.233 250.9 311.4C251.467 311.467 251.9 311.483 252.2 311.45C259.867 310.517 266.983 305.583 273.55 296.65C280.117 287.683 282.717 279.383 281.35 271.75Z" fill="white"/>
        <path d="M325.8 86.1C329.5 85.5333 332.467 83.9333 334.7 81.3C335.433 80.4333 337.1 77.7 339.7 73.1C329.133 69.7333 317.383 70.45 304.45 75.25C290.817 80.2833 281.583 88 276.75 98.4C281.983 97.4333 285.8 96.7333 288.2 96.3C292.467 95.5 295.967 94.7333 298.7 94C300.467 93.5333 304.967 92.1 312.2 89.7C317.7 87.8667 322.233 86.6667 325.8 86.1Z" fill="white"/>
        <path d="M389.95 353.35C387.383 340.017 381.083 328.2 371.05 317.9C368.183 315 364.933 313.133 361.3 312.3C357.567 311.467 353.733 311.8 349.8 313.3C340.133 317 332.067 322.933 325.6 331.1C325.033 331.833 324.283 332.683 323.35 333.65C323.25 333.783 322.883 334.717 322.25 336.45C321.617 338.183 321.1 339.233 320.7 339.6V339.65C320.667 340.983 320.483 342.983 320.15 345.65C319.983 348.017 320.15 349.9 320.65 351.3C321.617 354.133 323.083 357.517 325.05 361.45C326.117 363.65 327.767 366.967 330 371.4C333.167 370.533 337.833 369.183 344 367.35C349.5 365.783 354.15 364.55 357.95 363.65C362.083 362.683 366.883 361.683 372.35 360.65C373.817 360.383 378.633 359.533 386.8 358.1C388.3 357.867 389.283 357.383 389.75 356.65C390.15 355.95 390.217 354.85 389.95 353.35Z" fill="white"/>
        <path d="M403.5 408.55C402.633 395.05 400.2 383.3 396.2 373.3C395.467 371.467 394.467 370.25 393.2 369.65C392.1 369.117 390.533 368.95 388.5 369.15C380.533 369.983 371.35 371.933 360.95 375C354.95 376.767 346 379.6 334.1 383.5C332.767 383.933 331.967 384.6 331.7 385.5C331.633 385.8 331.633 386.8 331.7 388.5C332.2 397.267 332.35 404.383 332.15 409.85C331.983 414.717 331.367 422 330.3 431.7C329.867 436.733 331.983 440.8 336.65 443.9C343.583 448.467 351.217 451.417 359.55 452.75C366.983 453.95 375.167 453.883 384.1 452.55C388 451.983 391.217 450.433 393.75 447.9C396.083 445.5 397.683 442.383 398.55 438.55C399.45 434.517 400.35 429.533 401.25 423.6C402.217 416.9 402.967 411.883 403.5 408.55Z" fill="white"/>
        <path d="M391.55 469.8C390.417 464 389.75 460.4 389.55 459C389.35 457.6 388.883 456.683 388.15 456.25C387.483 455.85 386.467 455.75 385.1 455.95C367.667 458.683 351.833 456.3 337.6 448.8C337 448.467 336.25 448.317 335.35 448.35C334.45 448.383 333.7 448.567 333.1 448.9C327.733 451.867 324.833 456.067 324.4 461.5C323.967 466.967 326.167 471.567 331 475.3C342.7 484.4 355.383 489.767 369.05 491.4C375.817 492.2 381.217 490.7 385.25 486.9C389.417 483.033 391.517 477.333 391.55 469.8Z" fill="white"/>
        <path d="M472.05 152.95C474.55 151.817 476.167 150.217 476.9 148.15C477.467 146.45 477.517 144.183 477.05 141.35C476.217 136.55 474.617 131.667 472.25 126.7C470.383 122.733 467.8 118.3 464.5 113.4C452.8 96 437.983 81.7166 420.05 70.55C406.017 61.7833 391.667 56.9333 377 56C368.4 55.4333 360.733 57.6333 354 62.6C347.367 67.4666 342.283 74.4667 338.75 83.6C348.417 84.5666 354.5 85.2166 357 85.55C379.2 88.2833 397.667 96.6167 412.4 110.55C419.9 117.583 426.383 125.967 431.85 135.7C436.483 143.967 440.65 153.717 444.35 164.95C445.083 167.217 445.85 169.767 446.65 172.6C447.183 174.367 447.767 175.433 448.4 175.8C449.067 176.2 450.283 176.117 452.05 175.55C453.25 175.183 455.9 174.233 460 172.7C465.1 170.9 467.483 167.35 467.15 162.05C467.017 159.983 467.35 158.183 468.15 156.65C468.983 155.017 470.283 153.783 472.05 152.95Z" fill="white"/>
        <path d="M513.15 119.35C513.283 114.417 512.25 108.683 510.05 102.15C505.417 88.2833 498.617 75.8 489.65 64.7C481.317 54.3667 472.683 46.8333 463.75 42.1C453.45 36.6667 442.217 34.6167 430.05 35.95C415.883 37.4833 403.883 44.0167 394.05 55.55C397.15 56.85 401.45 58.6167 406.95 60.85C423.783 68.5167 438.35 78.7833 450.65 91.65C458.283 99.6833 464.45 107.583 469.15 115.35C474.55 124.317 478.3 133.6 480.4 143.2C480.567 143.867 480.95 144.583 481.55 145.35C482.183 146.15 482.717 146.55 483.15 146.55C488.55 146.25 493 145.45 496.5 144.15C501 142.45 504.633 139.733 507.4 136C511.067 131.067 512.983 125.517 513.15 119.35Z" fill="white"/>
        <path d="M411.95 246.25C405.383 247.617 401.083 250.733 399.05 255.6C396.95 260.567 398.117 265.567 402.55 270.6C403.683 271.9 405.117 273.367 406.85 275C407.85 275.933 409.367 277.333 411.4 279.2C413.733 281.4 417.283 284.65 422.05 288.95C426.25 292.817 429.667 296.183 432.3 299.05C433.767 300.65 435.483 303.067 437.45 306.3C439.717 310.067 441.35 312.583 442.35 313.85C446.383 318.983 451.75 320.05 458.45 317.05C461.25 315.783 463.133 314.183 464.1 312.25C465.1 310.317 465.383 307.617 464.95 304.15C462.917 287.883 457.3 274.267 448.1 263.3C439.167 252.633 429.183 246.75 418.15 245.65C417.917 245.683 416.783 245.767 414.75 245.9C413.583 245.967 412.65 246.083 411.95 246.25Z" fill="white"/>
        <path d="M495.6 219.15C494.233 218.083 488.917 214.417 479.65 208.15C475.017 204.983 471.067 202.7 467.8 201.3C463.3 199.4 458.85 198.5 454.45 198.6C452.45 198.8 450.95 198.917 449.95 198.95C443.25 199.25 438.617 202.733 436.05 209.4C434.883 212.467 434.65 215.45 435.35 218.35C436.05 221.15 437.583 223.667 439.95 225.9C443.25 228.933 446.95 231.067 451.05 232.3C459.283 234.7 466.133 237.767 471.6 241.5C478 245.867 483.017 251.45 486.65 258.25C488.45 261.617 490.533 264.1 492.9 265.7C495.633 267.5 498.6 268.183 501.8 267.75C504.4 267.417 507.25 266.333 510.35 264.5C514.95 261.767 517.217 257.583 517.15 251.95C517.117 248.583 516.3 245.183 514.7 241.75C513.633 239.483 511.833 236.533 509.3 232.9C505.967 228.167 501.4 223.583 495.6 219.15Z" fill="white"/>
        <path d="M470.7 337.45C471.033 328.05 470.083 320.817 467.85 315.75C467.717 315.817 465.117 316.983 460.05 319.25C457.183 320.517 454.85 321.6 453.05 322.5C452.35 322.833 451.717 323.333 451.15 324C450.517 324.667 450.15 325.317 450.05 325.95C448.55 334.917 447.317 343.617 446.35 352.05C446.283 352.617 446.467 353.3 446.9 354.1C447.333 354.9 447.767 355.367 448.2 355.5C451.233 356.233 455 357.083 459.5 358.05C462.067 358.617 466.1 359.483 471.6 360.65C470.6 356.15 470.3 348.417 470.7 337.45Z" fill="white"/>
        <path d="M474.4 379.15C473.067 375.117 470.7 372.317 467.3 370.75C465.067 369.683 461.533 368.983 456.7 368.65L450.25 368.2C447.183 368 445.367 368.167 444.8 368.7C444.167 369.3 444.083 371.067 444.55 374C446.117 383.7 447.833 391.117 449.7 396.25C452.067 402.75 455.75 406.967 460.75 408.9C465.717 410.833 471.05 410.183 476.75 406.95C479.817 405.217 481.733 403.233 482.5 401C483.3 398.733 482.967 396 481.5 392.8C480.967 391.6 479.717 389.35 477.75 386.05C476.117 383.25 475 380.95 474.4 379.15Z" fill="white"/>
        <path d="M502.75 35.1C490.317 32.9 479.75 35.3667 471.05 42.5C471.183 42.6 473.183 44.2167 477.05 47.35C479.383 49.25 481.283 50.8667 482.75 52.2C488.75 57.7 494.3 64.5167 499.4 72.65C503.067 78.5833 507.15 86.3667 511.65 96C514.45 101.933 516.05 107.567 516.45 112.9C516.883 118.9 515.833 124.683 513.3 130.25C513.067 130.817 512.95 131.883 512.95 133.45C515.95 133.95 517.767 134.117 518.4 133.95C519.1 133.75 519.7 132.833 520.2 131.2C521.2 128.133 522.883 125.783 525.25 124.15C527.283 122.783 529.983 121.867 533.35 121.4C537.45 120.833 540.167 119.867 541.5 118.5C542.9 117.1 543.817 114.317 544.25 110.15C546.383 91.0167 543.05 74.0167 534.25 59.15C526.15 45.4167 515.65 37.4 502.75 35.1Z" fill="white"/>
        <path d="M542.6 199.15C542.267 195.15 541.15 191.167 539.25 187.2C537.65 183.933 535.417 180.467 532.55 176.8C528.783 172 524.033 167.617 518.3 163.65C513.767 160.517 508.15 157.333 501.45 154.1C492.65 149.833 484.6 149.3 477.3 152.5C473.433 154.2 471.117 156.867 470.35 160.5C469.583 164.2 470.75 167.433 473.85 170.2C476.983 173.033 480.333 175.1 483.9 176.4C489.933 178.667 495.017 181.217 499.15 184.05C504.05 187.417 508.05 191.45 511.15 196.15C514.017 200.417 517.317 204.117 521.05 207.25C523.417 209.217 526.067 210.3 529 210.5C531.733 210.667 534.567 210.05 537.5 208.65C541.067 206.983 542.767 203.817 542.6 199.15Z" fill="white"/>
        <path d="M506.05 412.15C501.283 408.483 495.967 404.9 490.1 401.4C489.7 401.167 489 401.283 488 401.75C487.133 402.183 486.317 402.7 485.55 403.3C484.717 403.967 483.417 405.167 481.65 406.9C480.017 408.5 478.7 409.667 477.7 410.4C476.833 411.067 475.617 411.783 474.05 412.55C473.15 412.983 471.633 413.717 469.5 414.75C473.267 417.55 477.417 419.35 481.95 420.15C485.15 420.717 489.3 420.833 494.4 420.5C497.267 420.333 500.767 419.483 504.9 417.95C506.433 417.383 507.333 416.533 507.6 415.4C507.833 414.233 507.317 413.15 506.05 412.15Z" fill="white"/>
        <path d="M526.25 313.7C518.617 298.433 514.567 283.017 514.1 267.45C514 267.483 512.867 267.95 510.7 268.85C509.533 269.35 508.583 269.6 507.85 269.6C503.95 269.633 501.05 270.8 499.15 273.1C497.55 275.033 496.533 277.967 496.1 281.9C496 282.867 495.783 284.333 495.45 286.3C493.75 298.633 495.067 311.767 499.4 325.7C501.1 331.333 504.217 336.5 508.75 341.2C511.183 343.733 514.467 344.9 518.6 344.7C522.567 344.5 526.183 343.133 529.45 340.6C531.917 338.733 533.3 336.567 533.6 334.1C533.9 331.6 533.167 328.383 531.4 324.45C529.5 320.35 527.783 316.767 526.25 313.7Z" fill="white"/>
        <path d="M675.1 30.7C674.767 23.9667 672.75 18.3 669.05 13.7C665.35 9.13332 660.633 6.43332 654.9 5.59999C647.2 4.49999 639.517 6.04999 631.85 10.25C626.483 13.1833 620.8 17.6 614.8 23.5C608.167 30.5 603.117 35.6667 599.65 39C597.617 40.9667 595.25 43.5667 592.55 46.8C589.617 50.4667 587.4 53.1667 585.9 54.9C588.067 57.2667 590.083 58.5333 591.95 58.7C593.817 58.8333 595.717 57.9167 597.65 55.95C598.35 55.25 599.25 54.5167 600.35 53.75C600.983 53.3167 601.95 52.6667 603.25 51.8C612.517 45.3 621.583 40.3333 630.45 36.9C640.45 33.0333 650.567 30.9667 660.8 30.7H675.1Z" fill="white"/>
        <path d="M606.45 88.45C604.983 77.35 600.2 68.95 592.1 63.25C586.367 59.25 580.133 57.55 573.4 58.15C578.067 68.4833 580.45 78.1833 580.55 87.25C580.683 97.1833 578.067 106.717 572.7 115.85C576.8 119.717 581.283 121.617 586.15 121.55C591.017 121.483 595.283 119.483 598.95 115.55C605.417 108.583 607.917 99.55 606.45 88.45Z" fill="white"/>
        <path d="M698.5 104.3C699.833 100.567 700.883 96.7333 701.65 92.8C702.783 87 700.683 81.9333 695.35 77.6C686.083 70 675.133 65.1667 662.5 63.1C652.733 61.5 643.967 61.0333 636.2 61.7C627.033 62.4667 618.567 64.8167 610.8 68.75C609 69.6833 607.767 70.6667 607.1 71.7C606.267 72.9667 606.067 74.5833 606.5 76.55C606.967 78.7167 607.783 80.1833 608.95 80.95C610.083 81.75 611.7 81.9667 613.8 81.6C615 81.4 616.35 81.3833 617.85 81.55C626.017 81.35 633.483 81.9667 640.25 83.4C647.417 84.9333 654.05 87.45 660.15 90.95C663.983 93.15 668.133 95.8167 672.6 98.95C675.567 101.017 679.567 103.95 684.6 107.75C687.767 110.183 690.533 111.133 692.9 110.6C695.367 110.033 697.233 107.933 698.5 104.3Z" fill="white"/>
        <path d="M680.3 65.5C683.467 66.7333 688.283 68.65 694.75 71.25C695.583 69.9167 696.1 68.7333 696.3 67.7C698.3 58.3333 696.417 49.15 690.65 40.15C690.05 39.2167 689.25 38.3667 688.25 37.6C687.217 36.8 686.217 36.3167 685.25 36.15C679.183 35.1167 675.333 34.4833 673.7 34.25C669.333 33.65 665.467 33.3667 662.1 33.4C647.367 33.6 632.35 37.9667 617.05 46.5C614.15 48.1333 610.667 50.4333 606.6 53.4C602.133 56.8 598.75 59.3 596.45 60.9L600 66.25C600.867 67.5833 601.883 68.35 603.05 68.55C604.117 68.75 605.383 68.45 606.85 67.65C615.717 62.65 625.383 59.7 635.85 58.8C645.017 57.9667 655.067 58.7 666 61C669.933 61.8 674.7 63.3 680.3 65.5Z" fill="white"/>
        <path d="M674.75 102.2C670.95 99.4666 666.4 96.7666 661.1 94.1C654.3 90.6666 648.1 88.1166 642.5 86.45C635.633 84.45 628.967 83.5 622.5 83.6C616.133 83.7333 612.267 84.5333 610.9 86C609.533 87.5 609.117 91.3666 609.65 97.6C609.717 98.3333 610.017 99.1 610.55 99.9C611.117 100.733 611.717 101.3 612.35 101.6C620.083 105.3 626.7 108.783 632.2 112.05C639.1 116.15 645.167 120.467 650.4 125C652.9 127.167 655.817 130.05 659.15 133.65C660.317 134.917 661.867 136.6 663.8 138.7C664.8 139.533 667.45 142.067 671.75 146.3C674.883 149.3 678.2 149.583 681.7 147.15C687.2 143.417 690.417 138.083 691.35 131.15C692.317 124.25 690.683 118.217 686.45 113.05C683.217 109.117 679.317 105.5 674.75 102.2Z" fill="white"/>
        <path d="M655.7 132.4C651 128.3 646.983 124.983 643.65 122.45C638.317 118.35 633.3 114.983 628.6 112.35C623 109.183 617.417 106.833 611.85 105.3C611.183 105.133 610.417 105.117 609.55 105.25C608.617 105.417 608.033 105.683 607.8 106.05C606.7 108.017 605.45 110.433 604.05 113.3C603.217 114.933 601.967 117.483 600.3 120.95C609.833 127.217 617.717 136.317 623.95 148.25C626.35 152.85 629.85 159.817 634.45 169.15C636.85 173.817 640.033 176.85 644 178.25C647.967 179.617 652.283 179.2 656.95 177C663.55 173.9 667.367 168.517 668.4 160.85C669.267 154.25 667.983 147.35 664.55 140.15C660.75 136.817 657.8 134.233 655.7 132.4Z" fill="white"/>
        <path d="M604 226.05C607.267 227.183 610.567 227.133 613.9 225.9C617.233 224.667 620 222.467 622.2 219.3C621.133 218.433 620.317 217.8 619.75 217.4C618.783 216.633 617.933 216.033 617.2 215.6C613.967 213.667 611.467 213.067 609.7 213.8C607.933 214.5 606.617 216.617 605.75 220.15C605.683 220.483 605.1 222.45 604 226.05Z" fill="white"/>
        <path d="M570.05 188.6C568.483 189.733 568 191.433 568.6 193.7C568.967 195.133 569.45 197.583 570.05 201.05C570.617 204.183 571.15 206.617 571.65 208.35C573.383 214.65 575.633 219.35 578.4 222.45C581.733 226.25 586.067 228.083 591.4 227.95C595.433 228.917 598.75 227.167 601.35 222.7C603.883 218.267 603.983 214.367 601.65 211C599.417 207.767 597.483 205.3 595.85 203.6C594.65 202.367 592.083 199.8 588.15 195.9C584.883 192.733 582.35 190.117 580.55 188.05C579.35 186.683 578.467 185.867 577.9 185.6C576.967 185.133 575.883 185.333 574.65 186.2C573.717 186.833 572.183 187.633 570.05 188.6Z" fill="white"/>
        <path d="M564.95 251.75C564.217 249.85 562.633 246.683 560.2 242.25C557.867 237.917 554.867 232.533 551.2 226.1C547 218.8 543.817 213.233 541.65 209.4C540.85 210.167 539.283 211.35 536.95 212.95C534.983 214.483 533.9 215.85 533.7 217.05C532.467 225.683 532.267 233.55 533.1 240.65C534.067 248.883 536.45 256.383 540.25 263.15C542.35 266.95 545.317 269.483 549.15 270.75C552.85 271.95 556.8 271.767 561 270.2C562.833 269.5 564.217 268.517 565.15 267.25C566.017 265.983 566.533 264.35 566.7 262.35C566.967 258.983 566.383 255.45 564.95 251.75Z" fill="white"/>
        <path d="M576.65 167.85C576.017 158.017 572.333 148.917 565.6 140.55C561.233 135.083 557.383 131.183 554.05 128.85C549.117 125.417 543.733 123.867 537.9 124.2C535.8 124.467 534.233 124.667 533.2 124.8C531.333 125.033 529.817 125.367 528.65 125.8C525.917 126.767 524.267 128.183 523.7 130.05C523.1 131.917 523.683 134 525.45 136.3C526.95 138.233 529.517 140.533 533.15 143.2C539.483 147.933 543.833 151.467 546.2 153.8C550.6 158.167 553.667 162.867 555.4 167.9L559 179.3C559.733 181.6 561.033 183.183 562.9 184.05C564.433 184.75 566.45 184.983 568.95 184.75C571.017 184.517 572.683 183.8 573.95 182.6C575.217 181.4 575.983 179.783 576.25 177.75C576.75 174.183 576.883 170.883 576.65 167.85Z" fill="white"/>
        <path d="M564.15 272.75C567.683 276.15 571.95 278.4 576.95 279.5C581.917 280.567 586.783 280.35 591.55 278.85C590.517 274.683 588.05 271.017 584.15 267.85C580.25 264.683 575.8 262.75 570.8 262.05L564.15 272.75Z" fill="white"/>
        <path d="M523.25 347.65C524.917 352.05 528.5 355.433 534 357.8C538.833 359.867 543.733 360.65 548.7 360.15C553.333 359.683 555.95 358.883 556.55 357.75C557.117 356.65 556.217 354.15 553.85 350.25C550.05 343.917 544.1 338.917 536 335.25C535.233 338.617 533.65 341.35 531.25 343.45C529.283 345.15 526.617 346.55 523.25 347.65Z" fill="white"/>
        <path d="M544.95 122.15C550.55 123.717 555.733 123.55 560.5 121.65C565.233 119.75 568.933 116.367 571.6 111.5C580.633 95 580.35 78.7333 570.75 62.7C566.583 55.7666 560.5 50.65 552.5 47.35C544.433 44.05 536.567 43.4666 528.9 45.6C546.8 69.0666 552.15 94.5833 544.95 122.15Z" fill="white"/>
        <path d="M680.6 24C678.6 17.8 676.433 13.1 674.1 9.9C670.9 5.43333 666.767 2.58333 661.7 1.35C654.833 -0.350004 647.317 -0.466671 639.15 0.999996C633.55 2 628.083 4.31666 622.75 7.95C618.583 10.75 614.05 14.7 609.15 19.8C605.85 23.2667 601.683 27.8 596.65 33.4C589.883 40.9667 585.767 45.5333 584.3 47.1C581.933 49.6667 579.267 51.1333 576.3 51.5C573.333 51.8667 570.667 51.05 568.3 49.05C563.167 44.6833 557.367 41.65 550.9 39.95C545.1 38.4167 538.617 37.9167 531.45 38.45C529.25 38.6167 527.333 38.55 525.7 38.25C523.8 37.8833 521.967 37.1667 520.2 36.1C515.733 33.4 510.7 31.35 505.1 29.95C493 26.9167 482.417 28.3333 473.35 34.2C470.983 35.7 468.467 36.3833 465.8 36.25C463.567 36.1167 461.017 35.4 458.15 34.1C454.583 32.5 451.467 31.4667 448.8 31C428.667 27.4 410.367 32.45 393.9 46.15C391.533 48.1167 389.183 49.4333 386.85 50.1C384.55 50.7333 381.933 50.8167 379 50.35C366.867 48.2833 357.3 51.2167 350.3 59.15C347.267 62.5833 343.85 64.8333 340.05 65.9C336.483 66.9333 332.383 66.9667 327.75 66C326.117 65.6667 324.233 65.55 322.1 65.65C320.6 65.7167 318.683 65.9167 316.35 66.25C298.717 68.9167 284.083 77.3 272.45 91.4C271.417 92.6667 270.05 93.7833 268.35 94.75C266.683 95.7167 265.017 96.3333 263.35 96.6C252.783 98.4333 242.5 102.133 232.5 107.7C211.3 119.433 197.017 136.633 189.65 159.3C189.45 159.833 189.067 160.383 188.5 160.95C187.933 161.45 187.333 161.85 186.7 162.15C185.267 162.85 181.867 164.433 176.5 166.9C172.3 168.8 168.933 170.433 166.4 171.8C160.3 175.067 155.533 178.733 152.1 182.8C148.067 187.6 145.667 193.117 144.9 199.35C144.067 206.15 141.617 212.367 137.55 218C134.183 222.667 129.283 227.467 122.85 232.4L121.25 228.45C116.45 215.483 112.733 206.067 110.1 200.2C105.467 189.933 100.467 181.133 95.1 173.8C90.2667 167.2 85.0834 162.017 79.55 158.25C73.35 154.017 66.4833 151.4 58.95 150.4C55.45 149.933 52.6 150.1 50.4 150.9C48.1 151.7 46.6834 153.117 46.15 155.15C44.7834 160.183 47.7667 163.617 55.1 165.45C61.7 167.117 67.65 170.2 72.95 174.7C77.4167 178.533 81.7 183.633 85.8 190C90.3 196.967 94.3 205.267 97.8 214.9C99.8334 220.4 102.583 229.2 106.05 241.3C106.183 241.8 105.967 242.5 105.4 243.4C104.867 244.267 104.317 244.817 103.75 245.05C95.2167 248.183 88.75 250.3 84.35 251.4C78.75 252.8 74.7833 253.967 72.45 254.9C68.2167 256.533 64.7 258.7 61.9 261.4C59.3667 263.833 58.1667 266.233 58.3 268.6C58.4 271.033 59.8667 273.183 62.7 275.05C63.9 275.883 65.45 276.85 67.35 277.95C68.4167 278.55 70.1 279.5 72.4 280.8C71.9 281.967 71.0167 283.7 69.75 286C68.7167 288.033 68.1167 289.767 67.95 291.2C67.55 294.533 66.3833 297.2 64.45 299.2C62.7833 300.933 60.2667 302.433 56.9 303.7C52.2 305.433 48.6667 307.3 46.3 309.3C43.0333 312.067 41.0833 315.633 40.45 320C40.35 320.5 39.9667 321.067 39.3 321.7C38.9333 322.067 38.3333 322.567 37.5 323.2C28.8333 330.7 21.6333 339.683 15.9 350.15C10.7667 359.483 6.71668 370.233 3.75001 382.4C-1.08332 401.933 -1.23332 421.9 3.30001 442.3C7.70001 461.967 15.9333 478.017 28 490.45C35.2667 497.95 43.75 503.833 53.45 508.1C62.2833 512 72.3 514.6 83.5 515.9C94.4333 517.2 103.967 516.35 112.1 513.35C113.033 513.017 113.933 512.433 114.8 511.6C115.733 510.733 116.233 509.933 116.3 509.2C116.4 508.033 115.317 506.383 113.05 504.25C112.55 503.817 111.7 503.3 110.5 502.7C109.3 502.1 108.45 501.583 107.95 501.15C90.4833 486.483 83.2167 467.35 86.15 443.75C86.2167 443.283 86.4 442.683 86.7 441.95C87.1 441.05 87.4 440.317 87.6 439.75C94.2 445.783 99.2833 454.067 102.85 464.6C104.917 470.667 107.517 479.883 110.65 492.25C113.65 490.75 116.05 488.983 117.85 486.95C119.65 484.917 121.1 482.35 122.2 479.25C131.067 454.583 134.05 431.017 131.15 408.55C128.25 386.217 118.667 369.217 102.4 357.55C100.333 356.083 99.2667 354.75 99.2 353.55C99.1333 352.35 100.083 351 102.05 349.5C103.917 348.133 106.317 346.483 109.25 344.55C112.65 342.383 115.267 340.683 117.1 339.45C117.167 340.45 117.217 341.833 117.25 343.6C117.317 345.067 117.417 346.283 117.55 347.25C117.883 349.15 118.35 352.017 118.95 355.85C119.517 359.15 120.117 361.983 120.75 364.35C122.117 369.45 125.333 372.883 130.4 374.65C135 376.25 139.333 376.05 143.4 374.05C147.733 371.883 152.05 368.883 156.35 365.05C159.483 362.283 163.583 358.5 168.65 353.7C174.65 348 178.7 344.2 180.8 342.3C181.233 341.933 181.917 341.7 182.85 341.6C183.817 341.5 184.467 341.617 184.8 341.95C196.533 353.017 210.383 360.95 226.35 365.75C227.883 366.217 229 366.867 229.7 367.7C230.4 368.6 230.75 369.833 230.75 371.4C230.717 374.733 230.833 379.733 231.1 386.4C231.233 389.333 231.35 393.75 231.45 399.65C231.583 404.817 231.933 409.183 232.5 412.75C233.267 417.783 235.317 421.4 238.65 423.6C241.883 425.733 246.117 426.433 251.35 425.7C254.817 425.2 258.383 424.117 262.05 422.45C264.65 421.25 267.9 419.45 271.8 417.05C280.1 411.95 285.483 408.667 287.95 407.2C294.05 403.567 299.533 400.5 304.4 398C307.067 396.633 310.6 395.233 315 393.8C320.133 392.233 324.083 390.967 326.85 390C326.85 390.4 326.867 393.217 326.9 398.45C326.933 401.517 326.917 404.033 326.85 406C326.75 409.5 326.333 414.767 325.6 421.8C325.133 428.1 325.3 433.267 326.1 437.3C326.9 441.2 326.6 444.417 325.2 446.95C324.2 448.783 322.15 450.85 319.05 453.15C318.45 453.583 317.733 453.917 316.9 454.15C316.033 454.35 315.283 454.367 314.65 454.2C297.317 449.467 280.467 450.083 264.1 456.05C254.267 459.683 244.4 464.333 234.5 470C209.433 484.5 194.35 504.733 189.25 530.7C189.183 531.067 189 531.5 188.7 532C188.5 532.3 188.183 532.8 187.75 533.5C184.717 531.867 182.45 530.65 180.95 529.85C178.35 528.483 176.117 527.4 174.25 526.6C173.15 526.133 171.717 525.75 169.95 525.45C168.95 525.283 167.45 525.033 165.45 524.7C165.15 532.1 165 535.817 165 535.85C164.967 536.35 165.283 537.1 165.95 538.1C169.65 546.933 174.933 554.933 181.8 562.1C187.867 568.4 195.433 574.333 204.5 579.9C235.933 599.2 270.167 603.15 307.2 591.75C332.767 583.85 353.283 569.817 368.75 549.65C375.35 540.983 380.35 532.517 383.75 524.25C387.683 514.75 389.667 505.083 389.7 495.25C389.7 492.817 390.05 491.25 390.75 490.55C394.517 486.75 396.717 482.217 397.35 476.95C397.817 473.083 397.433 468.083 396.2 461.95C395.8 459.817 395.717 458.05 395.95 456.65C396.283 454.95 397.15 453.383 398.55 451.95C400.85 449.65 402.367 447.3 403.1 444.9C408.967 426.533 409.833 406.817 405.7 385.75L402.95 371.8L433.5 370.6C435.2 370.533 436.467 370.917 437.3 371.75C438.033 372.483 438.567 373.75 438.9 375.55C440.033 381.95 440.783 386.033 441.15 387.8C442.117 392.4 443.2 396.383 444.4 399.75C445.233 402.083 446.483 404.383 448.15 406.65C449.783 408.85 451.6 410.717 453.6 412.25C459.567 416.783 466.417 420.8 474.15 424.3C480.917 427.367 487.917 428.35 495.15 427.25C501.417 426.283 508.017 423.717 514.95 419.55C515.383 419.317 515.667 418.65 515.8 417.55C515.933 416.45 515.833 415.65 515.5 415.15C512.4 410.417 509.067 406.533 505.5 403.5C501.433 400.067 496.933 397.567 492 396C490.367 395.433 489.3 394.75 488.8 393.95C488.3 393.117 485.317 387.75 479.85 377.85C480.717 378.15 481.75 378.533 482.95 379C483.917 379.333 484.7 379.567 485.3 379.7C486.733 380 488.85 380.467 491.65 381.1C494.117 381.6 496.233 381.85 498 381.85C500.667 381.817 502.5 380.783 503.5 378.75C504.5 376.717 504.25 374.567 502.75 372.3C501.05 369.633 499.183 367.783 497.15 366.75C491.517 363.883 486.05 361.55 480.75 359.75C478.983 359.183 477.733 358.417 477 357.45C476.267 356.483 475.917 355.133 475.95 353.4C476.117 341.633 476.117 333.8 475.95 329.9C475.817 325.233 475.217 319.983 474.15 314.15C473.883 312.717 473.267 310.5 472.3 307.5C471.4 304.6 470.817 302.367 470.55 300.8C467.15 280.233 457.617 263.45 441.95 250.45C440.05 248.883 437.517 247.05 434.35 244.95C429.217 241.583 426.5 239.8 426.2 239.6L432.7 229.95C435.733 231.317 440.05 233.333 445.65 236C450.55 238.267 454.667 240.05 458 241.35C462.067 242.917 465.583 244.733 468.55 246.8C471.85 249.133 474.65 251.917 476.95 255.15C478.517 257.317 480.783 260.267 483.75 264C486.983 268.067 489.267 271 490.6 272.8C490.967 273.267 491.217 273.9 491.35 274.7C491.517 275.467 491.517 276.167 491.35 276.8C488.383 289.367 488.133 302.267 490.6 315.5C492 323.1 494.833 331.183 499.1 339.75C500.033 341.65 501.517 343.45 503.55 345.15C505.483 346.783 507.517 347.983 509.65 348.75C512.417 349.75 514.617 350.717 516.25 351.65C518.417 352.883 520.233 354.35 521.7 356.05C525.833 360.917 531.9 364.167 539.9 365.8C547.333 367.333 553.717 367.05 559.05 364.95C561.683 363.917 563.333 362.683 564 361.25C564.733 359.717 564.533 357.717 563.4 355.25C558.867 345.217 552.9 338.083 545.5 333.85C539.933 330.717 536.183 325.883 534.25 319.35C532.85 314.65 531 310.033 528.7 305.5C520.567 289.467 518.2 273.65 521.6 258.05C523.967 246.95 521.2 237.317 513.3 229.15C504.733 220.283 495.733 212.217 486.3 204.95C476.333 197.283 465.85 192.983 454.85 192.05C453.083 191.883 452 191.7 451.6 191.5C450.567 191.033 450.117 190 450.25 188.4C450.15 186.2 450.2 184.617 450.4 183.65C450.733 181.983 451.983 181.017 454.15 180.75C455.583 180.55 456.683 180.183 457.45 179.65C461.25 177.05 464.65 175.683 467.65 175.55C471.25 175.383 474.6 176.883 477.7 180.05C478.133 180.483 479.067 180.85 480.5 181.15C486.733 183.85 491.933 186.683 496.1 189.65C501.2 193.25 505.417 197.483 508.75 202.35C510.417 204.783 512.667 207.267 515.5 209.8C517.267 211.367 519.917 213.483 523.45 216.15C524.617 217.017 525.45 217.867 525.95 218.7C526.45 219.567 526.767 220.667 526.9 222C527.233 225.7 527.683 231.267 528.25 238.7C528.85 245.133 529.6 250.65 530.5 255.25C533.367 269.717 541.133 277.217 553.8 277.75C555.867 277.85 558.167 278.35 560.7 279.25C562.433 279.85 564.65 280.8 567.35 282.1C576.183 286.267 584.417 287.467 592.05 285.7C595.65 284.867 597.783 283.567 598.45 281.8C599.083 280.1 598.45 277.583 596.55 274.25C594.283 270.283 591.167 266.733 587.2 263.6C584.233 261.267 580.217 258.8 575.15 256.2C573.283 255.333 572.133 254.517 571.7 253.75C570.567 251.65 568.333 247.4 565 241C562.267 235.7 560 231.483 558.2 228.35C554.9 222.55 552.567 217.883 551.2 214.35C549.167 209.05 548.167 203.917 548.2 198.95C548.233 197.583 547.983 195.967 547.45 194.1C547.45 194 546.95 192.4 545.95 189.3C543.817 182.667 540.267 176.6 535.3 171.1C531.167 166.533 525.75 162.05 519.05 157.65C512.183 153.383 506.85 150.067 503.05 147.7C504.55 146.4 505.617 145.483 506.25 144.95C507.35 144.017 508.283 143.283 509.05 142.75C511.917 140.783 514.233 139.867 516 140C517.733 140.1 519.917 141.267 522.55 143.5C525.517 145.967 527.9 147.75 529.7 148.85C536.3 152.983 541.35 157.2 544.85 161.5C549.15 166.8 551.7 172.883 552.5 179.75C552.667 181.283 553.317 182.917 554.45 184.65C555.483 186.217 556.683 187.55 558.05 188.65C559.583 189.85 560.8 191.317 561.7 193.05C562.3 194.217 562.917 195.933 563.55 198.2C564.35 200.967 565.533 205.117 567.1 210.65C568.533 215.417 569.917 219.5 571.25 222.9C573.317 228.133 576.55 231.767 580.95 233.8C585.217 235.8 590.117 236.05 595.65 234.55C598.45 233.75 600 233.317 600.3 233.25C602.1 232.85 603.617 232.75 604.85 232.95C608.35 233.517 611.75 233.333 615.05 232.4C617.95 231.567 620.95 230.067 624.05 227.9C626.95 225.867 628.483 223.45 628.65 220.65C628.783 217.817 627.433 215.433 624.6 213.5C623.2 212.567 621.367 211.667 619.1 210.8C616.5 209.867 614.567 209.15 613.3 208.65C612.933 208.517 611.867 208.233 610.1 207.8C608.8 207.5 607.867 207.1 607.3 206.6C604.133 203.933 598.333 198.717 589.9 190.95C587.433 188.683 585.633 185.9 584.5 182.6C583.6 180.067 582.967 176.717 582.6 172.55C581.833 163.283 580.05 155.617 577.25 149.55C575.817 146.35 573.583 142.65 570.55 138.45C566.983 133.683 564.35 130.067 562.65 127.6C565.183 125.633 567.283 124.4 568.95 123.9C571.483 123.167 574.133 123.517 576.9 124.95C582.7 127.95 588.867 128.533 595.4 126.7C596 126.533 596.717 126.55 597.55 126.75C598.35 126.95 598.967 127.267 599.4 127.7C601.333 129.733 604.317 132.717 608.35 136.65C611.783 140.217 614.433 143.45 616.3 146.35C618.5 149.75 620.967 154.333 623.7 160.1C627.533 168.167 629.8 172.883 630.5 174.25C633.467 179.917 637.8 183.55 643.5 185.15C649.133 186.75 654.75 185.95 660.35 182.75C669.717 177.383 675.433 169.817 677.5 160.05C677.867 158.35 678.5 156.95 679.4 155.85C680.2 154.85 681.383 153.917 682.95 153.05C688.517 150.05 692.733 145.367 695.6 139C698.5 132.633 699.167 126.55 697.6 120.75C697.233 119.417 697.167 118.317 697.4 117.45C697.633 116.583 698.25 115.683 699.25 114.75C703.583 110.583 706.25 104.383 707.25 96.15C708.283 87.5167 706.8 80.75 702.8 75.85C702.033 74.9167 701.683 73.15 701.75 70.55C701.75 70.0167 701.967 67.2667 702.4 62.3C702.667 59 702.617 56.3 702.25 54.2C701.25 47.9333 699.483 42.85 696.95 38.95C693.917 34.2167 689.6 30.85 684 28.85C683.3 28.5833 682.617 27.9333 681.95 26.9C681.417 26.0667 680.967 25.1 680.6 24ZM685.25 36.15C686.217 36.3167 687.217 36.8 688.25 37.6C689.25 38.3667 690.05 39.2167 690.65 40.15C696.417 49.15 698.3 58.3333 696.3 67.7C696.1 68.7333 695.583 69.9167 694.75 71.25C688.283 68.65 683.467 66.7333 680.3 65.5C674.7 63.3 669.933 61.8 666 61C655.067 58.7 645.017 57.9667 635.85 58.8C625.383 59.7 615.717 62.65 606.85 67.65C605.383 68.45 604.117 68.75 603.05 68.55C601.883 68.35 600.867 67.5833 600 66.25L596.45 60.9C598.75 59.3 602.133 56.8 606.6 53.4C610.667 50.4333 614.15 48.1333 617.05 46.5C632.35 37.9667 647.367 33.6 662.1 33.4C665.467 33.3667 669.333 33.65 673.7 34.25C675.333 34.4833 679.183 35.1167 685.25 36.15ZM675.1 30.7H660.8C650.567 30.9667 640.45 33.0333 630.45 36.9C621.583 40.3333 612.517 45.3 603.25 51.8C601.95 52.6667 600.983 53.3167 600.35 53.75C599.25 54.5167 598.35 55.25 597.65 55.95C595.717 57.9167 593.817 58.8333 591.95 58.7C590.083 58.5333 588.067 57.2667 585.9 54.9C587.4 53.1667 589.617 50.4667 592.55 46.8C595.25 43.5667 597.617 40.9667 599.65 39C603.117 35.6667 608.167 30.5 614.8 23.5C620.8 17.6 626.483 13.1833 631.85 10.25C639.517 6.05 647.2 4.5 654.9 5.6C660.633 6.43333 665.35 9.13333 669.05 13.7C672.75 18.3 674.767 23.9667 675.1 30.7ZM672.6 98.95C668.133 95.8167 663.983 93.15 660.15 90.95C654.05 87.45 647.417 84.9333 640.25 83.4C633.483 81.9667 626.017 81.35 617.85 81.55C616.35 81.3833 615 81.4 613.8 81.6C611.7 81.9667 610.083 81.75 608.95 80.95C607.783 80.1833 606.967 78.7167 606.5 76.55C606.067 74.5833 606.267 72.9667 607.1 71.7C607.767 70.6667 609 69.6833 610.8 68.75C618.567 64.8167 627.033 62.4667 636.2 61.7C643.967 61.0333 652.733 61.5 662.5 63.1C675.133 65.1667 686.083 70 695.35 77.6C700.683 81.9333 702.783 87 701.65 92.8C700.883 96.7333 699.833 100.567 698.5 104.3C697.233 107.933 695.367 110.033 692.9 110.6C690.533 111.133 687.767 110.183 684.6 107.75C679.567 103.95 675.567 101.017 672.6 98.95ZM655.7 132.4C657.8 134.233 660.75 136.817 664.55 140.15C667.983 147.35 669.267 154.25 668.4 160.85C667.367 168.517 663.55 173.9 656.95 177C652.283 179.2 647.967 179.617 644 178.25C640.033 176.85 636.85 173.817 634.45 169.15C629.85 159.817 626.35 152.85 623.95 148.25C617.717 136.317 609.833 127.217 600.3 120.95C601.967 117.483 603.217 114.933 604.05 113.3C605.45 110.433 606.7 108.017 607.8 106.05C608.033 105.683 608.617 105.417 609.55 105.25C610.417 105.117 611.183 105.133 611.85 105.3C617.417 106.833 623 109.183 628.6 112.35C633.3 114.983 638.317 118.35 643.65 122.45C646.983 124.983 651 128.3 655.7 132.4ZM663.8 138.7C661.857 136.59 660.307 134.906 659.15 133.65C655.817 130.05 652.9 127.167 650.4 125C645.167 120.467 639.1 116.15 632.2 112.05C626.7 108.783 620.083 105.3 612.35 101.6C611.717 101.3 611.117 100.733 610.55 99.9C610.017 99.1 609.717 98.3333 609.65 97.6C609.117 91.3667 609.533 87.5 610.9 86C612.267 84.5333 616.133 83.7333 622.5 83.6C628.967 83.5 635.633 84.45 642.5 86.45C648.1 88.1167 654.3 90.6667 661.1 94.1C666.4 96.7667 670.95 99.4667 674.75 102.2C679.317 105.5 683.217 109.117 686.45 113.05C690.683 118.217 692.317 124.25 691.35 131.15C690.417 138.083 687.2 143.417 681.7 147.15C678.2 149.583 674.883 149.3 671.75 146.3C667.45 142.067 664.8 139.533 663.8 138.7ZM580.55 87.25C580.45 78.1833 578.067 68.4833 573.4 58.15C580.133 57.55 586.367 59.25 592.1 63.25C600.2 68.95 604.983 77.35 606.45 88.45C607.917 99.55 605.417 108.583 598.95 115.55C595.283 119.483 591.017 121.483 586.15 121.55C581.283 121.617 576.8 119.717 572.7 115.85C578.067 106.717 580.683 97.1833 580.55 87.25ZM528.9 45.6C536.567 43.4667 544.433 44.05 552.5 47.35C560.5 50.65 566.583 55.7667 570.75 62.7C580.35 78.7333 580.633 95 571.6 111.5C568.933 116.367 565.233 119.75 560.5 121.65C555.733 123.55 550.55 123.717 544.95 122.15C552.15 94.5833 546.8 69.0667 528.9 45.6ZM511.65 96C507.15 86.3667 503.067 78.5833 499.4 72.65C494.3 64.5167 488.75 57.7 482.75 52.2C481.283 50.8667 479.383 49.25 477.05 47.35C473.183 44.2167 471.183 42.6 471.05 42.5C479.75 35.3667 490.317 32.9 502.75 35.1C515.65 37.4 526.15 45.4167 534.25 59.15C543.05 74.0167 546.383 91.0167 544.25 110.15C543.817 114.317 542.9 117.1 541.5 118.5C540.167 119.867 537.45 120.833 533.35 121.4C529.983 121.867 527.283 122.783 525.25 124.15C522.883 125.783 521.2 128.133 520.2 131.2C519.7 132.833 519.1 133.75 518.4 133.95C517.767 134.117 515.95 133.95 512.95 133.45C512.95 131.883 513.067 130.817 513.3 130.25C515.833 124.683 516.883 118.9 516.45 112.9C516.05 107.567 514.45 101.933 511.65 96ZM537.9 124.2C543.733 123.867 549.117 125.417 554.05 128.85C557.383 131.183 561.233 135.083 565.6 140.55C572.333 148.917 576.017 158.017 576.65 167.85C576.883 170.883 576.75 174.183 576.25 177.75C575.983 179.783 575.217 181.4 573.95 182.6C572.683 183.8 571.017 184.517 568.95 184.75C566.45 184.983 564.433 184.75 562.9 184.05C561.033 183.183 559.733 181.6 559 179.3L555.4 167.9C553.667 162.867 550.6 158.167 546.2 153.8C543.833 151.467 539.483 147.933 533.15 143.2C529.517 140.533 526.95 138.233 525.45 136.3C523.683 134 523.1 131.917 523.7 130.05C524.267 128.183 525.917 126.767 528.65 125.8C529.817 125.367 531.333 125.033 533.2 124.8C534.233 124.667 535.8 124.467 537.9 124.2ZM510.05 102.15C512.25 108.683 513.283 114.417 513.15 119.35C512.983 125.517 511.067 131.067 507.4 136C504.633 139.733 501 142.45 496.5 144.15C493 145.45 488.55 146.25 483.15 146.55C482.717 146.55 482.183 146.15 481.55 145.35C480.95 144.583 480.567 143.867 480.4 143.2C478.3 133.6 474.55 124.317 469.15 115.35C464.45 107.583 458.283 99.6833 450.65 91.65C438.35 78.7833 423.783 68.5167 406.95 60.85C401.45 58.6167 397.15 56.85 394.05 55.55C403.883 44.0167 415.883 37.4833 430.05 35.95C442.217 34.6167 453.45 36.6667 463.75 42.1C472.683 46.8333 481.317 54.3667 489.65 64.7C498.617 75.8 505.417 88.2833 510.05 102.15ZM511.15 196.15C508.05 191.45 504.05 187.417 499.15 184.05C495.017 181.217 489.933 178.667 483.9 176.4C480.333 175.1 476.983 173.033 473.85 170.2C470.75 167.433 469.583 164.2 470.35 160.5C471.117 156.867 473.433 154.2 477.3 152.5C484.6 149.3 492.65 149.833 501.45 154.1C508.15 157.333 513.767 160.517 518.3 163.65C524.033 167.617 528.783 172 532.55 176.8C535.417 180.467 537.65 183.933 539.25 187.2C541.15 191.167 542.267 195.15 542.6 199.15C542.767 203.817 541.067 206.983 537.5 208.65C534.567 210.05 531.733 210.667 529 210.5C526.067 210.3 523.417 209.217 521.05 207.25C517.317 204.117 514.017 200.417 511.15 196.15ZM568.6 193.7C568 191.433 568.483 189.733 570.05 188.6C572.183 187.633 573.717 186.833 574.65 186.2C575.883 185.333 576.967 185.133 577.9 185.6C578.467 185.867 579.35 186.683 580.55 188.05C582.35 190.117 584.883 192.733 588.15 195.9C592.083 199.8 594.65 202.367 595.85 203.6C597.483 205.3 599.417 207.767 601.65 211C603.983 214.367 603.883 218.267 601.35 222.7C598.75 227.167 595.433 228.917 591.4 227.95C586.067 228.083 581.733 226.25 578.4 222.45C575.633 219.35 573.383 214.65 571.65 208.35C571.15 206.617 570.617 204.183 570.05 201.05C569.45 197.583 568.967 195.133 568.6 193.7ZM339.7 73.1C337.1 77.7 335.433 80.4333 334.7 81.3C332.467 83.9333 329.5 85.5333 325.8 86.1C322.233 86.6667 317.7 87.8667 312.2 89.7C304.967 92.1 300.467 93.5333 298.7 94C295.967 94.7333 292.467 95.5 288.2 96.3C285.8 96.7333 281.983 97.4333 276.75 98.4C281.583 88 290.817 80.2833 304.45 75.25C317.383 70.45 329.133 69.7333 339.7 73.1ZM338.75 83.6C342.283 74.4667 347.367 67.4667 354 62.6C360.733 57.6333 368.4 55.4333 377 56C391.667 56.9333 406.017 61.7833 420.05 70.55C437.983 81.7167 452.8 96 464.5 113.4C467.8 118.3 470.383 122.733 472.25 126.7C474.617 131.667 476.217 136.55 477.05 141.35C477.517 144.183 477.467 146.45 476.9 148.15C476.167 150.217 474.55 151.817 472.05 152.95C470.283 153.783 468.983 155.017 468.15 156.65C467.35 158.183 467.017 159.983 467.15 162.05C467.483 167.35 465.1 170.9 460 172.7C455.9 174.233 453.25 175.183 452.05 175.55C450.283 176.117 449.067 176.2 448.4 175.8C447.767 175.433 447.183 174.367 446.65 172.6C445.85 169.767 445.083 167.217 444.35 164.95C440.65 153.717 436.483 143.967 431.85 135.7C426.383 125.967 419.9 117.583 412.4 110.55C397.667 96.6167 379.2 88.2833 357 85.55C354.5 85.2167 348.417 84.5667 338.75 83.6ZM443.5 192C443.467 193.267 443.05 194.617 442.25 196.05C441.517 197.45 440.617 198.583 439.55 199.45C436.817 201.783 434.817 204.3 433.55 207C432.25 209.733 431.55 212.95 431.45 216.65C431.283 221.817 429.5 226.617 426.1 231.05C423.533 234.383 419.667 237.917 414.5 241.65C413.033 242.683 410.767 243.717 407.7 244.75C399.667 247.35 395.417 252.483 394.95 260.15C394.783 262.783 392.95 265.233 389.45 267.5C386.083 269.633 382.8 270.65 379.6 270.55C379.2 270.55 378.717 270.067 378.15 269.1C377.617 268.2 377.317 267.367 377.25 266.6C377.15 265.433 377.117 263.283 377.15 260.15C377.183 257.383 377.067 255.233 376.8 253.7C375 242.6 371 232.383 364.8 223.05C359.133 214.55 351.517 206.617 341.95 199.25C330.15 190.183 316.333 183.1 300.5 178C292.5 175.467 285.183 173.633 278.55 172.5C270.617 171.167 263.05 170.717 255.85 171.15C255.283 171.183 252.45 171.2 247.35 171.2C248.717 157.9 252.75 145.483 259.45 133.95C270.417 115.083 285.85 101.817 305.75 94.15C326.75 86.1167 347.483 84.8333 367.95 90.3C397.017 98.0333 418.85 116.317 433.45 145.15C440.85 159.783 444.2 175.4 443.5 192ZM454.45 198.6C458.85 198.5 463.3 199.4 467.8 201.3C471.067 202.7 475.017 204.983 479.65 208.15C488.917 214.417 494.233 218.083 495.6 219.15C501.4 223.583 505.967 228.167 509.3 232.9C511.833 236.533 513.633 239.483 514.7 241.75C516.3 245.183 517.117 248.583 517.15 251.95C517.217 257.583 514.95 261.767 510.35 264.5C507.25 266.333 504.4 267.417 501.8 267.75C498.6 268.183 495.633 267.5 492.9 265.7C490.533 264.1 488.45 261.617 486.65 258.25C483.017 251.45 478 245.867 471.6 241.5C466.133 237.767 459.283 234.7 451.05 232.3C446.95 231.067 443.25 228.933 439.95 225.9C437.583 223.667 436.05 221.15 435.35 218.35C434.65 215.45 434.883 212.467 436.05 209.4C438.617 202.733 443.25 199.25 449.95 198.95C450.95 198.917 452.45 198.8 454.45 198.6ZM411.95 246.25C412.65 246.083 413.583 245.967 414.75 245.9C416.783 245.767 417.917 245.683 418.15 245.65C429.183 246.75 439.167 252.633 448.1 263.3C457.3 274.267 462.917 287.883 464.95 304.15C465.383 307.617 465.1 310.317 464.1 312.25C463.133 314.183 461.25 315.783 458.45 317.05C451.75 320.05 446.383 318.983 442.35 313.85C441.35 312.583 439.717 310.067 437.45 306.3C435.483 303.067 433.767 300.65 432.3 299.05C429.667 296.183 426.25 292.817 422.05 288.95C417.283 284.65 413.733 281.4 411.4 279.2C409.367 277.333 407.85 275.933 406.85 275C405.117 273.367 403.683 271.9 402.55 270.6C398.117 265.567 396.95 260.567 399.05 255.6C401.083 250.733 405.383 247.617 411.95 246.25ZM337.4 200.25C347.1 207.517 354.9 215.333 360.8 223.7C367.3 232.967 371.633 243.15 373.8 254.25C375.633 263.483 374.583 273.283 370.65 283.65C368.517 289.25 365.017 296.217 360.15 304.55C359.517 305.65 358.55 306.667 357.25 307.6C356.017 308.5 354.75 309.133 353.45 309.5C339.117 313.6 328.267 322.467 320.9 336.1L321 336V336.05L320.95 336.1C314.817 343.067 306.667 348.283 296.5 351.75C292.233 353.217 282.783 355.417 268.15 358.35C267.55 358.483 266.817 358.533 265.95 358.5C265.483 358.467 264.883 358.433 264.15 358.4L291.75 333.15C291.65 333.05 292.3 333.467 293.7 334.4C294.267 331.333 293.75 329.117 292.15 327.75C290.583 326.383 288.267 326.133 285.2 327L287.65 330.6L287.5 331.5C283.167 338.033 278.6 343.267 273.8 347.2C268.233 351.767 262.033 354.883 255.2 356.55C251.6 357.417 249.167 357.483 247.9 356.75C246.633 356.017 245.5 353.85 244.5 350.25C243.933 348.25 243.2 346.817 242.3 345.95C241.2 344.817 239.65 344.333 237.65 344.5C235.817 344.633 234.45 345.333 233.55 346.6C232.883 347.533 232.383 348.983 232.05 350.95C231.283 355.35 230.45 357.8 229.55 358.3C228.65 358.8 226.017 358.333 221.65 356.9C208.95 352.733 198.117 345.883 189.15 336.35C188.183 335.317 187.65 334.367 187.55 333.5C187.483 332.733 187.733 331.683 188.3 330.35C189.6 327.317 190.25 323.983 190.25 320.35C190.217 318.75 189.733 317.717 188.8 317.25C187.833 316.783 186.617 317.083 185.15 318.15C184.183 318.817 182.433 319.95 179.9 321.55C178.967 318.817 178.3 316.833 177.9 315.6C177.133 313.4 176.667 311.567 176.5 310.1C172.5 278.933 175.633 250.817 185.9 225.75C196.467 199.95 213.25 183.867 236.25 177.5C245.783 174.9 256.483 173.9 268.35 174.5C293.217 175.833 316.233 184.417 337.4 200.25ZM372.75 294.25C374.65 289.783 376.133 286.45 377.2 284.25C378.5 281.517 380.267 279.317 382.5 277.65C383.9 276.583 385.683 275.433 387.85 274.2C390.25 272.867 391.983 271.867 393.05 271.2C395.65 273.4 399.5 276.533 404.6 280.6C409.033 284.2 412.567 287.367 415.2 290.1C418.067 293.033 421.383 296.9 425.15 301.7C427.283 304.367 430.45 308.383 434.65 313.75C435.35 314.617 436.383 315.933 437.75 317.7C438.983 319.2 440.133 320.367 441.2 321.2C442.467 322.267 443.317 323.367 443.75 324.5C444.183 325.633 444.25 326.983 443.95 328.55C442.583 335.45 441.4 342 440.4 348.2C440.167 349.6 439.717 350.6 439.05 351.2C438.383 351.8 437.317 352.117 435.85 352.15C432.417 352.183 426.433 352.317 417.9 352.55C410.267 352.75 404.283 352.867 399.95 352.9C399.25 352.933 398.45 352.55 397.55 351.75C396.717 351.017 396.1 350.233 395.7 349.4C394.733 347.367 393.167 343.817 391 338.75C389.067 334.183 387.467 330.65 386.2 328.15C382.333 320.617 376.817 314.533 369.65 309.9C368.417 309.133 367.717 308.317 367.55 307.45C367.383 306.65 367.617 305.567 368.25 304.2C369.317 302.033 370.817 298.717 372.75 294.25ZM331.7 388.5C331.633 386.8 331.633 385.8 331.7 385.5C331.967 384.6 332.767 383.933 334.1 383.5C346 379.6 354.95 376.767 360.95 375C371.35 371.933 380.533 369.983 388.5 369.15C390.533 368.95 392.1 369.117 393.2 369.65C394.467 370.25 395.467 371.467 396.2 373.3C400.2 383.3 402.633 395.05 403.5 408.55C402.967 411.883 402.217 416.9 401.25 423.6C400.35 429.533 399.45 434.517 398.55 438.55C397.683 442.383 396.083 445.5 393.75 447.9C391.217 450.433 388 451.983 384.1 452.55C375.167 453.883 366.983 453.95 359.55 452.75C351.217 451.417 343.583 448.467 336.65 443.9C331.983 440.8 329.867 436.733 330.3 431.7C331.367 422 331.983 414.717 332.15 409.85C332.35 404.383 332.2 397.267 331.7 388.5ZM385.8 367.15C376.1 368.583 365.1 371.2 352.8 375C352 375.233 341.3 378.783 320.7 385.65C312.533 388.383 303.383 392.5 293.25 398C287.417 401.167 278.717 406.117 267.15 412.85C261.317 416.117 255.15 418.283 248.65 419.35C242.717 420.383 239.317 417.467 238.45 410.6C238.283 409.5 238.183 408.667 238.15 408.1C236.483 377.467 235.55 360.033 235.35 355.8C235.083 353.633 235.017 352.05 235.15 351.05C235.35 349.25 236.367 348.267 238.2 348.1C238.933 348.033 239.9 348.833 241.1 350.5C242.3 352.2 242.95 353.667 243.05 354.9C243.35 359.133 243.55 364.35 243.65 370.55C243.717 374.05 243.8 379.283 243.9 386.25C243.967 388.317 244.017 391.383 244.05 395.45C244.15 399.05 244.3 402.117 244.5 404.65C244.733 407.15 245.583 408.933 247.05 410C248.55 411.1 250.483 411.3 252.85 410.6C257.15 409.367 260.967 407.483 264.3 404.95C269.967 400.65 277.067 396.517 285.6 392.55C295.633 388.25 303.15 385.017 308.15 382.85C317.283 378.917 327.867 374.967 339.9 371C369.433 361.2 398.883 356.883 428.25 358.05C447.95 358.817 466.567 362.083 484.1 367.85C485.633 368.35 487.467 369.167 489.6 370.3C490.8 370.967 492.583 371.95 494.95 373.25L494.5 373.8C494.3 373.767 487.717 372.467 474.75 369.9C466.85 368.333 460.25 367.133 454.95 366.3C434.75 363.1 411.7 363.383 385.8 367.15ZM451.15 324C451.717 323.333 452.35 322.833 453.05 322.5C454.85 321.6 457.183 320.517 460.05 319.25C465.117 316.983 467.717 315.817 467.85 315.75C470.083 320.817 471.033 328.05 470.7 337.45C470.3 348.417 470.6 356.15 471.6 360.65C466.1 359.483 462.067 358.617 459.5 358.05C455 357.083 451.233 356.233 448.2 355.5C447.767 355.367 447.333 354.9 446.9 354.1C446.467 353.3 446.283 352.617 446.35 352.05C447.317 343.617 448.55 334.917 450.05 325.95C450.15 325.317 450.517 324.667 451.15 324ZM444.55 374C444.083 371.067 444.167 369.3 444.8 368.7C445.367 368.167 447.183 368 450.25 368.2L456.7 368.65C461.533 368.983 465.067 369.683 467.3 370.75C470.7 372.317 473.067 375.117 474.4 379.15C475 380.95 476.117 383.25 477.75 386.05C479.717 389.35 480.967 391.6 481.5 392.8C482.967 396 483.3 398.733 482.5 401C481.733 403.233 479.817 405.217 476.75 406.95C471.05 410.183 465.717 410.833 460.75 408.9C455.75 406.967 452.067 402.75 449.7 396.25C447.833 391.117 446.117 383.7 444.55 374ZM609.7 213.8C611.467 213.067 613.967 213.667 617.2 215.6C617.933 216.033 618.783 216.633 619.75 217.4C620.317 217.8 621.133 218.433 622.2 219.3C620 222.467 617.233 224.667 613.9 225.9C610.567 227.133 607.267 227.183 604 226.05C605.1 222.45 605.683 220.483 605.75 220.15C606.617 216.617 607.933 214.5 609.7 213.8ZM570.8 262.05C575.8 262.75 580.25 264.683 584.15 267.85C588.05 271.017 590.517 274.683 591.55 278.85C586.783 280.35 581.917 280.567 576.95 279.5C571.95 278.4 567.683 276.15 564.15 272.75L570.8 262.05ZM536.95 212.95C539.283 211.35 540.85 210.167 541.65 209.4C543.817 213.233 547 218.8 551.2 226.1C554.867 232.533 557.867 237.917 560.2 242.25C562.633 246.683 564.217 249.85 564.95 251.75C566.383 255.45 566.967 258.983 566.7 262.35C566.533 264.35 566.017 265.983 565.15 267.25C564.217 268.517 562.833 269.5 561 270.2C556.8 271.767 552.85 271.95 549.15 270.75C545.317 269.483 542.35 266.95 540.25 263.15C536.45 256.383 534.067 248.883 533.1 240.65C532.267 233.55 532.467 225.683 533.7 217.05C533.9 215.85 534.983 214.483 536.95 212.95ZM510.7 268.85C512.867 267.95 514 267.483 514.1 267.45C514.567 283.017 518.617 298.433 526.25 313.7C527.783 316.767 529.5 320.35 531.4 324.45C533.167 328.383 533.9 331.6 533.6 334.1C533.3 336.567 531.917 338.733 529.45 340.6C526.183 343.133 522.567 344.5 518.6 344.7C514.467 344.9 511.183 343.733 508.75 341.2C504.217 336.5 501.1 331.333 499.4 325.7C495.067 311.767 493.75 298.633 495.45 286.3C495.783 284.333 496 282.867 496.1 281.9C496.533 277.967 497.55 275.033 499.15 273.1C501.05 270.8 503.95 269.633 507.85 269.6C508.583 269.6 509.533 269.35 510.7 268.85ZM531.25 343.45C533.65 341.35 535.233 338.617 536 335.25C544.1 338.917 550.05 343.917 553.85 350.25C556.217 354.15 557.117 356.65 556.55 357.75C555.95 358.883 553.333 359.683 548.7 360.15C543.733 360.65 538.833 359.867 534 357.8C528.5 355.433 524.917 352.05 523.25 347.65C526.617 346.55 529.283 345.15 531.25 343.45ZM199.75 161.7C199.217 161.7 198.417 161.633 197.35 161.5C201.35 142.167 212.15 126.933 229.75 115.8C246.017 105.5 265.3 100.267 287.6 100.1C285.633 101.9 282.65 104.5 278.65 107.9C275.183 110.933 272.45 113.617 270.45 115.95C267.85 119.017 264.85 122.933 261.45 127.7C259.55 130.4 256.7 134.45 252.9 139.85C252.733 140.083 252.433 140.6 252 141.4C251.667 142.033 251.35 142.5 251.05 142.8C245.217 148.3 239.4 153.667 233.6 158.9C232.767 159.633 231.733 160.033 230.5 160.1C223.667 160.5 213.417 161.033 199.75 161.7ZM162.15 181.25C170.55 174.95 179.767 170.2 189.8 167C199.5 163.9 210.5 162.067 222.8 161.5C231.167 163 237.217 164.15 240.95 164.95C241.583 165.083 242.267 165.483 243 166.15C243.7 166.783 244.083 167.383 244.15 167.95C244.183 168.55 243.95 169.25 243.45 170.05C243.017 170.783 242.483 171.4 241.85 171.9C240.317 173.033 238.517 173.817 236.45 174.25C228.817 175.95 221.783 179.1 215.35 183.7C209.55 187.833 204.1 193.25 199 199.95C196.7 202.95 193.6 205.483 189.7 207.55C187.533 208.683 185.217 210.35 182.75 212.55C182.317 212.95 180.217 214.967 176.45 218.6C173.283 221.667 170.35 223.267 167.65 223.4C164.917 223.5 161.933 222.1 158.7 219.2C152.567 213.733 149.817 207.4 150.45 200.2C151.083 192.967 154.983 186.65 162.15 181.25ZM60.3 160.7C59.0333 160.1 57.1667 159.133 54.7 157.8C69.2333 158.133 81.15 164.933 90.45 178.2C108.517 204.1 119.417 233.917 123.15 267.65C124.383 278.683 125.7 291.6 127.1 306.4C127.9 315 129.067 327.933 130.6 345.2C131.267 352.533 132.9 356.95 135.5 358.45C138.2 360.017 142.367 358.617 148 354.25C151.3 351.683 155.167 348.2 159.6 343.8C164.5 338.8 168.2 335.1 170.7 332.7C175.067 328.6 178.417 325.633 180.75 323.8C181.417 323.3 182.367 322.833 183.6 322.4C185 321.933 186.033 321.567 186.7 321.3L188.1 322.7C187.533 323.8 186.767 325.483 185.8 327.75C184.867 329.75 183.917 331.267 182.95 332.3C181.017 334.4 178.45 336.867 175.25 339.7C173.483 341.3 170.817 343.683 167.25 346.85C165.083 348.883 161.867 351.983 157.6 356.15C153.733 359.817 150.417 362.817 147.65 365.15C145.55 366.917 142.367 368.15 138.1 368.85C131.367 369.917 127.3 367.183 125.9 360.65C124.867 355.517 124.133 351.517 123.7 348.65C123 344.183 122.633 340.15 122.6 336.55C122.267 307.917 119.167 278.15 113.3 247.25C111.4 237.183 109.167 228.167 106.6 220.2C103.6 210.867 99.9333 202.333 95.6 194.6C86.7 178.633 74.9333 167.333 60.3 160.7ZM146.55 212.55C148.783 214.25 152.033 216.683 156.3 219.85C159.967 222.617 163 225 165.4 227C166 227.5 166.467 228.367 166.8 229.6C167.133 230.867 167.133 231.733 166.8 232.2C164.433 235.5 163.133 237.283 162.9 237.55C161.267 239.517 159.683 240.783 158.15 241.35C153.617 243.05 148.2 244.817 141.9 246.65C138.267 247.717 132.767 249.267 125.4 251.3C125 251.433 124.433 251.25 123.7 250.75C122.933 250.25 122.467 249.767 122.3 249.3C121.533 246.967 121.467 244.817 122.1 242.85C122.733 240.817 124.05 239.167 126.05 237.9C130.15 235.267 133.867 231.75 137.2 227.35C139.633 224.117 142.283 219.75 145.15 214.25C145.383 213.85 145.7 213.45 146.1 213.05C146.433 212.717 146.583 212.55 146.55 212.55ZM113.75 255.3C113.25 255.967 112.65 256.833 111.95 257.9C111.383 258.7 110.867 259.217 110.4 259.45C108.7 260.283 106.367 261.333 103.4 262.6C100 264.033 97.65 265.05 96.35 265.65C94.55 266.517 93.2334 266.55 92.4 265.75C91.6667 265.117 91.3334 263.95 91.4 262.25C91.4 261.183 91.6 260.1 92 259C92.4333 257.767 92.9667 256.967 93.6 256.6C98.6667 254.033 103.983 251.9 109.55 250.2C109.85 250.1 110.45 250.667 111.35 251.9C111.85 252.6 112.65 253.733 113.75 255.3ZM86.45 258.55C86.8833 258.817 87.15 259.1 87.25 259.4C88.0833 262.2 88.55 263.783 88.65 264.15C89.15 265.983 89.4667 267.6 89.6 269C89.6333 269.533 89.3167 270.183 88.65 270.95C88.05 271.65 87.3834 272.2 86.65 272.6C85.8167 273.033 84.6667 273.467 83.2 273.9C82.3667 274.167 81 274.567 79.1 275.1C78 274.667 76.2833 274.017 73.95 273.15C71.9167 272.383 70.2 271.683 68.8 271.05C67.1334 270.283 66.2 269.317 66 268.15C65.8 267.017 66.35 265.767 67.65 264.4C69.8834 262 72.6167 260.3 75.85 259.3C78.45 258.5 81.6167 258.1 85.35 258.1C85.6833 258.1 86.05 258.25 86.45 258.55ZM115.15 276.1C116.083 281.767 116.767 286.517 117.2 290.35C117.633 294.217 118.033 298.783 118.4 304.05C118.6 307.083 118.867 311.633 119.2 317.7C119.467 321.733 118.05 326.083 114.95 330.75C111.883 335.383 108.45 338.383 104.65 339.75C97.6834 342.283 91.9 341.1 87.3 336.2C79.3 327.767 74.35 317.467 72.45 305.3C70.55 293.033 75.35 283.017 86.85 275.25C89.9833 273.117 94.0667 270.683 99.1 267.95C104.967 264.817 109.467 262.367 112.6 260.6C113.2 264.3 114.05 269.467 115.15 276.1ZM128.6 290.5C127.033 277.433 125.8 267.367 124.9 260.3C124.7 258.8 124.717 257.717 124.95 257.05C125.25 256.05 126.083 255.283 127.45 254.75C137.783 250.817 145.75 247.983 151.35 246.25C160.317 243.483 168.583 241.683 176.15 240.85C176.183 240.85 176.767 240.95 177.9 241.15C175.267 257.917 173.75 267.733 173.35 270.6C173.05 272.8 172.717 276.017 172.35 280.25C171.983 284.65 171.667 287.867 171.4 289.9C171.3 290.7 170.983 291.517 170.45 292.35C169.917 293.217 169.35 293.75 168.75 293.95C157.683 297.75 146.117 303.833 134.05 312.2C133.583 312.5 132.733 312.883 131.5 313.35L128.6 290.5ZM68.8 306.05C73.6 318.183 76.0333 324.333 76.1 324.5C79.1 331.833 84.3334 338.117 91.8 343.35C95.9334 346.217 96.6667 349.783 94 354.05C91.3667 358.317 87.35 360.633 81.95 361C73.3833 361.6 66.0667 358.683 60 352.25C52.7333 344.683 48.45 336.033 47.15 326.3C46.5834 321.933 47.0834 318.467 48.65 315.9C50.1834 313.367 53 311.35 57.1 309.85C58.6 309.317 60.5 308.683 62.8 307.95C66.5667 306.75 68.5667 306.117 68.8 306.05ZM42.45 325.8C46.5833 335.467 49 341.05 49.7 342.55C52.3667 348.35 55.6 352.967 59.4 356.4C63.6333 360.167 68.7667 362.667 74.8 363.9C76.6667 364.3 78.5834 365.267 80.55 366.8C82.4834 368.3 83.95 369.933 84.95 371.7C90.55 381.867 91.9167 393.683 89.05 407.15C88.45 409.983 86.9333 416.367 84.5 426.3C82.5667 434.167 81.2 440.567 80.4 445.5C76.8 467.467 83.7167 486.8 101.15 503.5C101.717 504.033 102.367 504.733 103.1 505.6C103.5 506.1 104.083 506.85 104.85 507.85L104.05 509.25C96.25 509.55 89.4167 509.467 83.55 509C76.25 508.4 69.5 507.133 63.3 505.2C48.8333 500.7 37.15 493.05 28.25 482.25C20.1833 472.483 14.2167 459.867 10.35 444.4C8.75001 438 7.75001 431.1 7.35001 423.7C7.01668 417.5 7.06668 410.517 7.50001 402.75C8.73335 380.117 15.1167 360.45 26.65 343.75C28.3833 341.25 30.8167 338.317 33.95 334.95C37.65 331.05 40.4833 328 42.45 325.8ZM135.65 339.6C135.583 338.967 135.467 337.383 135.3 334.85C135.2 332.917 135.033 331.35 134.8 330.15C133.233 322.683 135.283 317.4 140.95 314.3C145.483 311.8 153.3 307.833 164.4 302.4C167 301.133 168.75 302 169.65 305C169.817 305.6 170.133 306.467 170.6 307.6C171.033 308.767 171.333 309.633 171.5 310.2C172.8 314.667 173 318.6 172.1 322C171.167 325.733 168.867 329.033 165.2 331.9C162.4 334.1 158.9 337.15 154.7 341.05C149.267 346.083 145.85 349.217 144.45 350.45C143.85 350.983 142.933 351.55 141.7 352.15C139.233 353.283 137.9 353.9 137.7 354C136.367 344.667 135.683 339.867 135.65 339.6ZM85.05 365.45C85.2834 364.717 86 364.017 87.2 363.35C91.8 360.95 96.7 361.433 101.9 364.8C111.967 371.367 118.783 381.417 122.35 394.95C127.917 416.117 127.733 438.517 121.8 462.15C121.167 464.617 120.117 467.65 118.65 471.25C117.85 473.283 116.55 476.467 114.75 480.8C112.383 473.967 110.65 468.967 109.55 465.8C107.617 460.3 105.75 455.85 103.95 452.45C102.317 449.317 100.033 445.917 97.1 442.25C95.8667 440.683 93.1834 437.533 89.05 432.8C87.9167 431.533 87.2 430.417 86.9 429.45C86.5334 428.35 86.5667 427.033 87 425.5C89.7 416.067 91.3834 408.283 92.05 402.15C92.9834 393.583 92.4334 385.65 90.4 378.35C89.6334 375.517 88.1 372.233 85.8 368.5C85.0334 367.267 84.7834 366.25 85.05 365.45ZM172.15 234.9C172.617 231.833 173.9 228.95 176 226.25C176.667 225.417 178.8 223.167 182.4 219.5C182.033 223.767 180.95 227.283 179.15 230.05C177.317 232.85 174.983 234.467 172.15 234.9ZM250.3 368.75C250.333 367.35 250.6 366.367 251.1 365.8C251.667 365.167 252.667 364.867 254.1 364.9C262.633 364.933 271.833 363.65 281.7 361.05C288.4 359.283 297.2 356.317 308.1 352.15C310.067 351.417 311.6 351.133 312.7 351.3C314.067 351.533 315.15 352.5 315.95 354.2C318.45 359.733 320.267 364.367 321.4 368.1C321.567 368.667 321.4 369.467 320.9 370.5C320.4 371.533 319.867 372.167 319.3 372.4C308.3 376.867 298.7 381.017 290.5 384.85C280.367 389.583 271.117 394.433 262.75 399.4C261.317 400.233 259.433 401.15 257.1 402.15C255.733 402.717 253.533 403.633 250.5 404.9C249.9 402.167 249.6 400.267 249.6 399.2L250.3 368.75ZM316.45 461.35C318.85 462.85 320.667 464.933 321.9 467.6C320.233 468.333 317.783 469.267 314.55 470.4C311.783 471.467 309.7 472.6 308.3 473.8C302.167 479.1 296.133 485.383 290.2 492.65C288.2 495.083 286.45 496.767 284.95 497.7C282.95 498.933 280.533 499.483 277.7 499.35C250.733 498.083 224.833 506.45 200 524.45L198.4 525.55L197.05 524.8C198.75 520.9 200.017 517.983 200.85 516.05C202.35 512.583 203.767 509.75 205.1 507.55C217.9 486.317 235.717 471.617 258.55 463.45C276.45 457.083 293.3 455.5 309.1 458.7C312.1 459.3 314.55 460.183 316.45 461.35ZM312.55 474.4C315.283 472.267 317.6 471.3 319.5 471.5C320.967 471.667 323.417 472.883 326.85 475.15C336.817 481.75 345.167 486.783 351.9 490.25C361.233 495.05 371.517 495.9 382.75 492.8C383.517 497.2 383.467 501.783 382.6 506.55C382 509.983 380.783 514.2 378.95 519.2C370.883 541.6 356.783 559.133 336.65 571.8C306.483 590.733 275.5 597.067 243.7 590.8C222.1 586.5 203.217 575.95 187.05 559.15C184.65 556.683 182.15 553.333 179.55 549.1C176.717 544.2 174.55 540.55 173.05 538.15C172.683 537.583 172.4 536.733 172.2 535.6C171.967 534.2 171.75 533.083 171.55 532.25C176.817 534.717 180.617 536.533 182.95 537.7C196.583 544.8 210.733 547.567 225.4 546C244.067 543.933 259.817 535.533 272.65 520.8C275.417 517.6 279.05 512.767 283.55 506.3C288.283 499.433 291.85 494.55 294.25 491.65C298.917 485.983 305.017 480.233 312.55 474.4ZM197 537.2C205.1 526.5 217.533 518.133 234.3 512.1C249.667 506.567 263.95 504.45 277.15 505.75C272.917 511.65 268.583 516.683 264.15 520.85C259.25 525.45 254 529.2 248.4 532.1C238.467 537.233 229.083 540.233 220.25 541.1C211.417 541.967 203.667 540.667 197 537.2ZM488 401.75C489 401.283 489.7 401.167 490.1 401.4C495.967 404.9 501.283 408.483 506.05 412.15C507.317 413.15 507.833 414.233 507.6 415.4C507.333 416.533 506.433 417.383 504.9 417.95C500.767 419.483 497.267 420.333 494.4 420.5C489.3 420.833 485.15 420.717 481.95 420.15C477.417 419.35 473.267 417.55 469.5 414.75C471.633 413.717 473.15 412.983 474.05 412.55C475.617 411.783 476.833 411.067 477.7 410.4C478.7 409.667 480.017 408.5 481.65 406.9C483.417 405.167 484.717 403.967 485.55 403.3C486.317 402.7 487.133 402.183 488 401.75ZM331 475.3C326.167 471.567 323.967 466.967 324.4 461.5C324.833 456.067 327.733 451.867 333.1 448.9C333.7 448.567 334.45 448.383 335.35 448.35C336.25 448.317 337 448.467 337.6 448.8C351.833 456.3 367.667 458.683 385.1 455.95C386.467 455.75 387.483 455.85 388.15 456.25C388.883 456.683 389.35 457.6 389.55 459C389.75 460.4 390.417 464 391.55 469.8C391.517 477.333 389.417 483.033 385.25 486.9C381.217 490.7 375.817 492.2 369.05 491.4C355.383 489.767 342.7 484.4 331 475.3ZM325.6 331.1C332.067 322.933 340.133 317 349.8 313.3C353.733 311.8 357.567 311.467 361.3 312.3C364.933 313.133 368.183 315 371.05 317.9C381.083 328.2 387.383 340.017 389.95 353.35C390.217 354.85 390.15 355.95 389.75 356.65C389.283 357.383 388.3 357.867 386.8 358.1C378.633 359.533 373.817 360.383 372.35 360.65C366.883 361.683 362.083 362.683 357.95 363.65C354.15 364.55 349.5 365.783 344 367.35C337.833 369.183 333.167 370.533 330 371.4C327.767 366.967 326.117 363.65 325.05 361.45C323.083 357.517 321.617 354.133 320.65 351.3C320.15 349.9 319.983 348.017 320.15 345.65C320.483 342.983 320.667 340.983 320.7 339.65V339.6C321.1 339.233 321.617 338.183 322.25 336.45C322.883 334.717 323.25 333.783 323.35 333.65C324.283 332.683 325.033 331.833 325.6 331.1ZM209.4 310.25L205.7 313.75C206.067 314.083 206.6 314.667 207.3 315.5C207.933 316.167 208.433 316.467 208.8 316.4C209.867 316.3 210.983 315.35 212.15 313.55C212.217 313.45 211.933 313.05 211.3 312.35C210.2 311.15 209.567 310.45 209.4 310.25ZM210.65 236.05L212.45 232.75L211.45 231.75C211.383 231.783 210.467 232.267 208.7 233.2C207.567 233.767 206.717 234.333 206.15 234.9C192.317 248.5 187.167 265.05 190.7 284.55C191.3 287.95 192.733 290.783 195 293.05C197.3 295.317 200.2 296.817 203.7 297.55C211.233 299.083 217.367 296.683 222.1 290.35C229.267 280.783 231.9 269.6 230 256.8C229.033 250.233 227.083 245.4 224.15 242.3C221.283 239.233 216.783 237.15 210.65 236.05ZM211.55 239.15C216.15 239.15 219.9 241.183 222.8 245.25C224.967 248.283 226.333 251.783 226.9 255.75C227.467 259.817 227.117 263.85 225.85 267.85C223.45 265.017 221.033 263.2 218.6 262.4C215.933 261.5 213.1 261.783 210.1 263.25C203.767 266.35 200.217 271.95 199.45 280.05C199.317 281.417 199.267 283.2 199.3 285.4C199.333 286.633 199.367 288.717 199.4 291.65C199.367 291.583 198.45 290.35 196.65 287.95C195.65 286.617 195.017 285.467 194.75 284.5C190.717 271.433 192.7 258.383 200.7 245.35C203.267 241.183 206.883 239.117 211.55 239.15ZM219.95 284.5C219.483 286.8 218.583 288.717 217.25 290.25C215.917 291.817 214.55 292.517 213.15 292.35C209.65 291.95 207.983 289.917 208.15 286.25C208.25 284.183 208.75 282.583 209.65 281.45C210.65 280.117 212.067 279.55 213.9 279.75C214.767 279.85 215.8 280.467 217 281.6C217.667 282.233 218.65 283.2 219.95 284.5ZM229.95 214.55C228.883 211.15 227.167 209.083 224.8 208.35C221.867 207.45 219.1 208.117 216.5 210.35C213.9 212.65 211.667 216.417 209.8 221.65C214.667 220.35 218.317 219.8 220.75 220C224.45 220.3 227.517 222.083 229.95 225.35C231.017 221.583 231.017 217.983 229.95 214.55ZM281.55 260.2L280.6 261.7C279.967 261.467 278.983 261.033 277.65 260.4C276.483 259.9 275.5 259.617 274.7 259.55C273.133 259.45 270.75 259.267 267.55 259C264.817 258.867 262.5 259.017 260.6 259.45C253.367 261.117 246.883 265.967 241.15 274C235.45 282 232.667 290.1 232.8 298.3C233.033 310.467 239.467 315.817 252.1 314.35C253.033 314.217 254.15 313.95 255.45 313.55C264.783 310.55 272.583 303.633 278.85 292.8C285.117 281.967 287.233 271.767 285.2 262.2C284.433 258.667 282.433 255.867 279.2 253.8C275.933 251.7 272.683 251.183 269.45 252.25L281.55 260.2ZM271.55 261.75C277.117 262.983 280.383 266.317 281.35 271.75C282.717 279.383 280.117 287.683 273.55 296.65C266.983 305.583 259.867 310.517 252.2 311.45C251.9 311.483 251.467 311.467 250.9 311.4C249.767 311.233 249.083 311.133 248.85 311.1C248.983 310.933 249.4 310.317 250.1 309.25C250.467 308.683 250.783 308.317 251.05 308.15C254.85 305.95 257.567 302.833 259.2 298.8C260.467 295.7 261.167 291.683 261.3 286.75C261.433 283.15 260.35 280.25 258.05 278.05C255.817 275.95 252.783 274.817 248.95 274.65L243.75 274.25C245.25 272.55 246.317 271.35 246.95 270.65C248.017 269.45 248.933 268.55 249.7 267.95C253.267 265.283 256.683 263.417 259.95 262.35C263.783 261.117 267.65 260.917 271.55 261.75ZM244.6 290.8C246.5 290.933 247.883 291.567 248.75 292.7C249.55 293.7 249.9 295.05 249.8 296.75C249.767 299.417 249.1 301.483 247.8 302.95C246.533 304.45 244.833 305.167 242.7 305.1C240.933 305.067 239.45 304.433 238.25 303.2C237.05 301.933 236.5 300.433 236.6 298.7C236.7 296.5 237.567 294.6 239.2 293C240.8 291.4 242.6 290.667 244.6 290.8ZM298.45 236.85C296.483 234.417 292.817 233.717 287.45 234.75C282.117 235.783 278.783 237.817 277.45 240.85C282.817 242.25 286.3 243.55 287.9 244.75C289.533 245.983 292.467 249.517 296.7 255.35L298.45 255.4C299.117 247.767 299.483 243.15 299.55 241.55C299.617 239.45 299.25 237.883 298.45 236.85Z" fill="black"/>
    </g>
    <defs>
        <clipPath id="clip0">
            <rect width="708" height="598" fill="white"/>
        </clipPath>
    </defs>
</svg>
