<svg width="201" height="171" viewBox="0 0 201 171" fill="none" xmlns="http://www.w3.org/2000/svg">
<g clip-path="url(#clip0_513_207)">
<path d="M192.386 7.77029C191.821 6.01778 191.208 4.68927 190.549 3.78476C189.644 2.5222 188.476 1.71661 187.044 1.368C185.103 0.887473 182.978 0.854495 180.67 1.26907C179.087 1.55173 177.542 2.20656 176.034 3.23357C174.856 4.02502 173.575 5.14153 172.19 6.58311C171.257 7.563 170.079 8.8444 168.657 10.4273C166.744 12.5661 165.58 13.8569 165.166 14.2998C164.497 15.0253 163.743 15.4398 162.904 15.5435C162.066 15.6471 161.312 15.4163 160.643 14.851C159.192 13.6167 157.553 12.7593 155.725 12.2787C154.085 11.8453 152.253 11.704 150.227 11.8548C149.605 11.9019 149.063 11.883 148.602 11.7982C148.065 11.6946 147.546 11.492 147.047 11.1905C145.785 10.4273 144.362 9.84785 142.779 9.45213C139.359 8.59472 136.367 8.99516 133.804 10.6534C133.135 11.0774 132.424 11.2706 131.67 11.2329C131.039 11.1952 130.318 10.9926 129.508 10.6252C128.5 10.1729 127.619 9.88083 126.865 9.74892C121.174 8.73134 116.001 10.1588 111.347 14.0312C110.678 14.5871 110.014 14.9593 109.354 15.1478C108.704 15.3268 107.964 15.3503 107.135 15.2184C103.706 14.6343 101.001 15.4634 99.0228 17.7059C98.1654 18.6763 97.1996 19.3123 96.1255 19.6138C95.1174 19.9059 93.9585 19.9153 92.6488 19.6421C92.1871 19.5479 91.6548 19.5149 91.0518 19.5432C90.6278 19.562 90.086 19.6185 89.4265 19.7127C84.4422 20.4665 80.3059 22.8362 77.0176 26.8217C76.7255 27.1797 76.3392 27.4954 75.8587 27.7686C75.3876 28.0419 74.9165 28.2162 74.4454 28.2915C71.4586 28.8097 68.5519 29.8556 65.7253 31.4291C59.7328 34.7456 55.6955 39.6074 53.6132 46.0144C53.5567 46.1652 53.4483 46.3207 53.2881 46.4808C53.128 46.6222 52.9584 46.7352 52.7794 46.82C52.3742 47.0179 51.4132 47.4654 49.8962 48.1627C48.709 48.6997 47.7574 49.1614 47.0413 49.5477C45.3171 50.4711 43.9697 51.5075 42.9993 52.657C41.8592 54.0138 41.1808 55.5731 40.9641 57.335C40.7285 59.2571 40.036 61.0144 38.8865 62.6067C37.9349 63.9258 36.5499 65.2825 34.7314 66.677L34.2791 65.5605C32.9224 61.8953 31.8718 59.2336 31.1275 57.5753C29.8178 54.6733 28.4045 52.1859 26.8875 50.113C25.5213 48.2475 24.0562 46.7823 22.4921 45.7176C20.7396 44.521 18.7987 43.7814 16.6693 43.4987C15.68 43.3668 14.8744 43.4139 14.2526 43.6401C13.6024 43.8662 13.202 44.2666 13.0512 44.8414C12.6649 46.2641 13.5082 47.2346 15.5811 47.7528C17.4466 48.2239 19.1285 49.0954 20.6266 50.3674C21.8891 51.451 23.0999 52.8925 24.2588 54.6922C25.5308 56.6614 26.6614 59.0075 27.6507 61.7304C28.2255 63.2851 29.0028 65.7725 29.9827 69.1927C30.0204 69.334 29.9591 69.5319 29.799 69.7863C29.6482 70.0313 29.4927 70.1867 29.3326 70.2527C26.9205 71.1384 25.0926 71.7367 23.8489 72.0476C22.266 72.4433 21.1448 72.7731 20.4852 73.0369C19.2886 73.4986 18.2946 74.111 17.5032 74.8742C16.7871 75.562 16.4479 76.2404 16.4856 76.9094C16.5138 77.5972 16.9284 78.2049 17.7293 78.7325C18.0685 78.9681 18.5066 79.2413 19.0437 79.5523C19.3452 79.7219 19.821 79.9904 20.4711 80.3578C20.3298 80.6876 20.0801 81.1776 19.7221 81.8277C19.43 82.4024 19.2604 82.8924 19.2133 83.2975C19.1002 84.2397 18.7704 84.9935 18.2239 85.5588C17.7528 86.0488 17.0415 86.4728 16.0899 86.8308C14.7613 87.3208 13.7626 87.8484 13.0936 88.4137C12.1703 89.1957 11.6191 90.2039 11.4401 91.4382C11.4118 91.5795 11.3034 91.7397 11.115 91.9187C11.0114 92.0224 10.8418 92.1637 10.6062 92.3427C8.15648 94.4627 6.12131 97.0019 4.50072 99.9604C3.04972 102.599 1.90494 105.637 1.06638 109.076C-0.299821 114.598 -0.34222 120.241 0.93918 126.008C2.18289 131.567 4.51014 136.103 7.92093 139.618C9.97494 141.738 12.3729 143.401 15.1147 144.607C17.6115 145.709 20.4428 146.444 23.6087 146.812C26.6991 147.179 29.3938 146.939 31.6928 146.091C31.9566 145.997 32.211 145.832 32.456 145.596C32.7198 145.351 32.8611 145.125 32.88 144.918C32.9082 144.588 32.602 144.122 31.9613 143.519C31.82 143.396 31.5797 143.25 31.2405 143.081C30.9013 142.911 30.6611 142.765 30.5197 142.642C25.5826 138.497 23.5286 133.088 24.3577 126.418C24.3766 126.286 24.4284 126.116 24.5132 125.909C24.6262 125.654 24.711 125.447 24.7676 125.287C26.6331 126.992 28.07 129.334 29.0782 132.311C29.6623 134.026 30.3973 136.631 31.2829 140.127C32.1309 139.703 32.8093 139.203 33.3181 138.629C33.8269 138.054 34.2367 137.328 34.5477 136.452C37.0539 129.48 37.8972 122.818 37.0775 116.468C36.2578 110.155 33.5489 105.35 28.951 102.052C28.3668 101.638 28.0653 101.261 28.0464 100.921C28.0276 100.582 28.2961 100.201 28.852 99.7767C29.3797 99.3904 30.0581 98.924 30.8872 98.3775C31.8482 97.7651 32.5879 97.2846 33.1061 96.936C33.1249 97.2186 33.1391 97.6096 33.1485 98.109C33.1673 98.5236 33.1956 98.8675 33.2333 99.1407C33.3275 99.6778 33.4594 100.488 33.629 101.572C33.7892 102.504 33.9588 103.305 34.1378 103.974C34.5241 105.416 35.4333 106.386 36.8655 106.886C38.1657 107.338 39.3906 107.281 40.5401 106.716C41.765 106.104 42.9851 105.256 44.2006 104.172C45.0862 103.39 46.2452 102.321 47.6773 100.964C49.3733 99.3527 50.5181 98.2786 51.1117 97.7415C51.2341 97.6379 51.4273 97.572 51.6911 97.5437C51.9643 97.5154 52.1481 97.5484 52.2423 97.6426C55.5589 100.771 59.4737 103.013 63.9869 104.37C64.4203 104.502 64.7359 104.686 64.9338 104.921C65.1317 105.176 65.2306 105.524 65.2306 105.967C65.2212 106.909 65.2542 108.323 65.3295 110.207C65.3672 111.036 65.4002 112.284 65.4285 113.952C65.4662 115.413 65.5651 116.647 65.7253 117.655C65.942 119.078 66.5214 120.1 67.4636 120.722C68.3776 121.325 69.5742 121.523 71.0534 121.316C72.0333 121.174 73.0415 120.868 74.0779 120.397C74.8128 120.058 75.7315 119.549 76.8339 118.871C79.18 117.429 80.7016 116.501 81.3989 116.086C83.1231 115.059 84.673 114.192 86.0486 113.486C86.8024 113.1 87.8011 112.704 89.0449 112.299C90.4959 111.856 91.6124 111.498 92.3944 111.225C92.3944 111.338 92.3991 112.134 92.4085 113.613C92.418 114.48 92.4132 115.191 92.3944 115.747C92.3661 116.736 92.2484 118.225 92.0411 120.213C91.9092 121.994 91.9563 123.454 92.1824 124.594C92.4085 125.697 92.3237 126.606 91.928 127.322C91.6453 127.84 91.0659 128.424 90.1896 129.075C90.02 129.197 89.8175 129.291 89.5819 129.357C89.3369 129.414 89.1249 129.419 88.9459 129.371C84.0465 128.033 79.2836 128.208 74.6574 129.894C71.8779 130.921 69.0889 132.236 66.2906 133.837C59.2052 137.936 54.9417 143.655 53.5001 150.995C53.4813 151.099 53.4295 151.221 53.3447 151.362C53.2881 151.447 53.1986 151.589 53.0761 151.786C52.2187 151.325 51.578 150.981 51.154 150.755C50.4191 150.368 49.7878 150.062 49.2602 149.836C48.9493 149.704 48.5441 149.596 48.0448 149.511C47.7621 149.464 47.3381 149.393 46.7728 149.299C46.688 151.391 46.6456 152.441 46.6456 152.451C46.6362 152.592 46.7257 152.804 46.9141 153.087C47.96 155.584 49.4534 157.845 51.3943 159.871C53.1091 161.651 55.2479 163.329 57.8107 164.902C66.6957 170.357 76.3722 171.474 86.8401 168.252C94.0668 166.019 99.8661 162.052 104.238 156.351C106.103 153.902 107.517 151.509 108.478 149.172C109.59 146.487 110.15 143.754 110.16 140.975C110.16 140.287 110.259 139.844 110.456 139.646C111.521 138.572 112.143 137.291 112.322 135.802C112.454 134.709 112.346 133.296 111.997 131.562C111.884 130.959 111.86 130.46 111.926 130.064C112.021 129.583 112.266 129.141 112.661 128.735C113.311 128.085 113.74 127.421 113.947 126.743C115.606 121.551 115.851 115.978 114.682 110.023L113.905 106.08L122.54 105.741C123.021 105.722 123.379 105.83 123.614 106.066C123.822 106.273 123.972 106.631 124.067 107.14C124.387 108.949 124.599 110.103 124.703 110.603C124.976 111.903 125.282 113.029 125.621 113.98C125.857 114.64 126.21 115.29 126.681 115.931C127.143 116.553 127.656 117.08 128.222 117.514C129.908 118.795 131.845 119.93 134.03 120.92C135.943 121.787 137.922 122.065 139.966 121.754C141.738 121.48 143.603 120.755 145.563 119.577C145.686 119.511 145.766 119.323 145.803 119.012C145.841 118.701 145.813 118.475 145.719 118.333C144.842 116.996 143.9 115.898 142.892 115.04C141.742 114.07 140.47 113.363 139.076 112.92C138.614 112.76 138.313 112.567 138.171 112.341C138.03 112.105 137.187 110.589 135.642 107.79C135.887 107.875 136.179 107.983 136.518 108.115C136.791 108.209 137.013 108.275 137.182 108.313C137.587 108.398 138.186 108.53 138.977 108.709C139.674 108.85 140.273 108.921 140.772 108.921C141.526 108.911 142.044 108.619 142.327 108.045C142.609 107.47 142.539 106.862 142.115 106.221C141.634 105.468 141.106 104.945 140.532 104.653C138.939 103.842 137.394 103.183 135.896 102.674C135.397 102.514 135.043 102.297 134.836 102.024C134.629 101.751 134.53 101.369 134.539 100.879C134.586 97.5531 134.586 95.3389 134.539 94.2365C134.502 92.9175 134.332 91.4335 134.03 89.7846C133.955 89.3795 133.781 88.7529 133.508 87.9049C133.253 87.0852 133.088 86.4539 133.013 86.0111C132.052 80.1977 129.357 75.4537 124.929 71.7791C124.392 71.3362 123.676 70.818 122.781 70.2244C121.33 69.2728 120.562 68.7687 120.477 68.7122L122.314 65.9845C123.172 66.3708 124.392 66.9408 125.975 67.6946C127.36 68.3353 128.523 68.8394 129.465 69.2068C130.615 69.6497 131.609 70.1632 132.448 70.7473C133.38 71.4069 134.172 72.1936 134.822 73.1076C135.265 73.72 135.905 74.5539 136.744 75.6091C137.658 76.7586 138.303 77.5878 138.68 78.0965C138.784 78.2285 138.855 78.4075 138.892 78.6336C138.939 78.8503 138.939 79.0482 138.892 79.2272C138.054 82.7793 137.983 86.4257 138.68 90.1662C139.076 92.3144 139.877 94.5993 141.083 97.0208C141.347 97.5578 141.766 98.0666 142.341 98.5471C142.887 99.0088 143.462 99.348 144.065 99.5647C144.847 99.8474 145.469 100.121 145.931 100.384C146.543 100.733 147.056 101.148 147.471 101.628C148.639 103.004 150.354 103.922 152.616 104.384C154.717 104.818 156.521 104.737 158.028 104.144C158.773 103.852 159.239 103.503 159.428 103.098C159.635 102.665 159.578 102.099 159.258 101.402C157.977 98.566 156.29 96.5497 154.198 95.3531C152.625 94.4674 151.565 93.1012 151.018 91.2545C150.623 89.926 150.1 88.621 149.45 87.3396C147.151 82.8076 146.482 78.3368 147.443 73.9273C148.112 70.7897 147.33 68.0668 145.097 65.7584C142.675 63.2521 140.131 60.972 137.465 58.9179C134.648 56.7509 131.684 55.5354 128.575 55.2716C128.076 55.2245 127.77 55.1727 127.656 55.1161C127.364 54.9842 127.237 54.6922 127.275 54.2399C127.247 53.618 127.261 53.1705 127.317 52.8972C127.411 52.4261 127.765 52.1529 128.377 52.0775C128.782 52.021 129.093 51.9174 129.31 51.7666C130.384 51.0317 131.345 50.6454 132.193 50.6077C133.211 50.5606 134.158 50.9846 135.034 51.8797C135.156 52.0022 135.42 52.1058 135.825 52.1906C137.587 52.9538 139.057 53.7547 140.235 54.5932C141.676 55.6108 142.868 56.8074 143.811 58.183C144.282 58.8708 144.918 59.5728 145.719 60.2889C146.218 60.7317 146.967 61.33 147.966 62.0838C148.295 62.3287 148.531 62.569 148.672 62.8045C148.814 63.0495 148.903 63.3604 148.941 63.7373C149.035 64.7832 149.162 66.3567 149.322 68.4578C149.492 70.2762 149.704 71.8356 149.958 73.1358C150.769 77.225 152.964 79.345 156.544 79.4957C157.129 79.524 157.779 79.6653 158.495 79.9197C158.985 80.0893 159.611 80.3578 160.375 80.7253C162.871 81.9031 165.199 82.2423 167.356 81.7429C168.374 81.5073 168.977 81.1399 169.165 80.6405C169.344 80.16 169.165 79.4486 168.628 78.5064C167.988 77.3852 167.107 76.3817 165.985 75.4961C165.147 74.8365 164.011 74.1393 162.579 73.4044C162.052 73.1594 161.727 72.9286 161.604 72.7118C161.284 72.1183 160.653 70.9169 159.71 69.1079C158.938 67.6098 158.297 66.4179 157.788 65.5322C156.855 63.8928 156.196 62.5737 155.81 61.575C155.235 60.0769 154.952 58.6259 154.962 57.222C154.971 56.8357 154.9 56.3787 154.75 55.8511C154.75 55.8228 154.608 55.3705 154.326 54.4943C153.723 52.6193 152.719 50.9045 151.315 49.3498C150.147 48.059 148.616 46.7918 146.722 45.548C144.781 44.342 143.274 43.4045 142.199 42.7356C142.623 42.3681 142.925 42.109 143.104 41.9582C143.415 41.6944 143.679 41.4871 143.895 41.3364C144.706 40.7805 145.361 40.5214 145.86 40.5591C146.35 40.5873 146.967 40.9171 147.711 41.5484C148.55 42.2456 149.224 42.7497 149.732 43.0606C151.598 44.229 153.025 45.4208 154.015 46.6363C155.23 48.1344 155.951 49.8539 156.177 51.7949C156.224 52.2283 156.408 52.69 156.728 53.1799C157.02 53.6227 157.359 53.9996 157.746 54.3106C158.179 54.6498 158.523 55.0643 158.778 55.5543C158.947 55.884 159.121 56.3693 159.3 57.01C159.527 57.792 159.861 58.9651 160.304 60.5291C160.709 61.8765 161.1 63.0307 161.477 63.9917C162.061 65.471 162.975 66.498 164.219 67.0727C165.425 67.6381 166.81 67.7087 168.374 67.2847C169.165 67.0586 169.603 66.9361 169.688 66.9173C170.197 66.8042 170.626 66.7759 170.974 66.8325C171.964 66.9927 172.925 66.9408 173.858 66.677C174.677 66.4415 175.525 66.0175 176.401 65.405C177.221 64.8303 177.655 64.1472 177.702 63.3557C177.739 62.5549 177.358 61.8812 176.557 61.3347C176.161 61.0709 175.643 60.8165 175.002 60.5715C174.267 60.3077 173.721 60.1051 173.363 59.9638C173.259 59.9261 172.958 59.846 172.458 59.7235C172.091 59.6387 171.827 59.5257 171.667 59.3843C170.772 58.6306 169.132 57.156 166.749 54.9607C166.051 54.32 165.543 53.5332 165.222 52.6005C164.968 51.8844 164.789 50.9375 164.685 49.7597C164.468 47.1404 163.964 44.9733 163.173 43.2585C162.768 42.354 162.136 41.3081 161.279 40.1209C160.271 38.7736 159.527 37.7513 159.046 37.0541C159.762 36.4982 160.356 36.1495 160.827 36.0082C161.543 35.8009 162.292 35.8998 163.074 36.305C164.713 37.153 166.457 37.3179 168.303 36.7997C168.473 36.7525 168.675 36.7573 168.911 36.8138C169.137 36.8703 169.311 36.9598 169.434 37.0823C169.98 37.6571 170.824 38.5003 171.964 39.6121C172.934 40.6203 173.683 41.5342 174.211 42.354C174.833 43.315 175.53 44.6105 176.303 46.2406C177.386 48.5207 178.027 49.8539 178.225 50.2402C179.063 51.842 180.288 52.869 181.899 53.3212C183.492 53.7735 185.079 53.5474 186.662 52.6429C189.31 51.1259 190.926 48.9871 191.51 46.2264C191.613 45.7459 191.792 45.3502 192.047 45.0393C192.273 44.7566 192.607 44.4928 193.05 44.2478C194.624 43.3998 195.816 42.076 196.626 40.2764C197.446 38.4768 197.634 36.7573 197.191 35.1178C197.088 34.7409 197.069 34.43 197.135 34.185C197.201 33.9401 197.375 33.6857 197.658 33.4218C198.883 32.2441 199.636 30.4916 199.919 28.1643C200.211 25.724 199.792 23.8113 198.661 22.4263C198.444 22.1625 198.345 21.6631 198.364 20.9282C198.364 20.7774 198.426 20.0001 198.548 18.5962C198.623 17.6635 198.609 16.9003 198.506 16.3067C198.223 14.5353 197.724 13.0985 197.008 11.9961C196.15 10.6582 194.93 9.70652 193.347 9.1412C193.149 9.06582 192.956 8.88209 192.768 8.59001C192.617 8.35446 192.49 8.08122 192.386 7.77029ZM193.7 11.2046C193.974 11.2517 194.256 11.3884 194.548 11.6145C194.831 11.8312 195.057 12.0715 195.227 12.3353C196.857 14.8792 197.389 17.475 196.824 20.1226C196.767 20.4147 196.621 20.7492 196.386 21.1261C194.558 20.3911 193.196 19.8494 192.301 19.5008C190.718 18.8789 189.371 18.4549 188.259 18.2288C185.169 17.5787 182.328 17.3714 179.737 17.6069C176.778 17.8613 174.046 18.6952 171.54 20.1085C171.125 20.3346 170.767 20.4194 170.466 20.3629C170.136 20.3063 169.848 20.0896 169.603 19.7127L168.6 18.2005C169.25 17.7483 170.206 17.0416 171.469 16.0805C172.619 15.242 173.603 14.5919 174.423 14.1302C178.748 11.7181 182.992 10.4838 187.157 10.4273C188.108 10.4179 189.201 10.498 190.436 10.6676C190.897 10.7335 191.986 10.9125 193.7 11.2046ZM190.831 9.66412H186.789C183.897 9.7395 181.037 10.3237 178.211 11.4166C175.704 12.3871 173.141 13.791 170.522 15.6283C170.155 15.8733 169.881 16.057 169.702 16.1795C169.391 16.3962 169.137 16.6035 168.939 16.8013C168.393 17.3572 167.856 17.6163 167.328 17.5787C166.8 17.5315 166.23 17.1735 165.618 16.5045C166.042 16.0146 166.668 15.2514 167.498 14.215C168.261 13.301 168.93 12.5661 169.505 12.0102C170.484 11.068 171.912 9.60759 173.787 7.62896C175.483 5.96125 177.089 4.71283 178.606 3.88369C180.773 2.69651 182.945 2.25838 185.122 2.56931C186.742 2.80486 188.075 3.56805 189.121 4.85887C190.167 6.15912 190.737 7.76087 190.831 9.66412ZM190.125 28.9558C188.862 28.0701 187.689 27.3164 186.606 26.6945C184.881 25.7052 183.006 24.9938 180.981 24.5604C179.068 24.1553 176.957 23.9809 174.649 24.0375C174.225 23.9904 173.843 23.9951 173.504 24.0516C172.911 24.1553 172.454 24.094 172.133 23.8679C171.804 23.6512 171.573 23.2366 171.441 22.6242C171.318 22.0683 171.375 21.6113 171.61 21.2533C171.799 20.9612 172.147 20.6832 172.656 20.4194C174.852 19.3076 177.245 18.6433 179.836 18.4266C182.031 18.2382 184.509 18.3701 187.27 18.8224C190.841 19.4065 193.936 20.7727 196.555 22.921C198.063 24.1458 198.656 25.578 198.336 27.2174C198.119 28.3292 197.823 29.4128 197.446 30.468C197.088 31.495 196.56 32.0886 195.863 32.2488C195.194 32.3996 194.412 32.131 193.517 31.4432C192.094 30.3691 190.963 29.54 190.125 28.9558ZM185.348 38.4108C185.941 38.929 186.775 39.6593 187.849 40.6015C188.82 42.6366 189.183 44.587 188.938 46.4526C188.645 48.6196 187.567 50.1413 185.701 51.0175C184.382 51.6394 183.162 51.7572 182.041 51.3709C180.919 50.9751 180.02 50.1177 179.341 48.7987C178.041 46.1605 177.052 44.1913 176.373 42.891C174.611 39.5179 172.383 36.9457 169.688 35.1744C170.159 34.1945 170.513 33.4737 170.748 33.012C171.144 32.2017 171.497 31.5186 171.808 30.9627C171.874 30.859 172.039 30.7837 172.303 30.7366C172.548 30.6989 172.765 30.7036 172.953 30.7507C174.526 31.1841 176.105 31.8484 177.688 32.7435C179.016 33.4878 180.434 34.4394 181.942 35.5983C182.884 36.3144 184.019 37.2519 185.348 38.4108ZM187.637 40.1916C187.088 39.5951 186.65 39.1193 186.323 38.7642C185.381 37.7466 184.556 36.9316 183.85 36.3191C182.37 35.0377 180.656 33.8176 178.705 32.6587C177.151 31.7353 175.28 30.7507 173.094 29.7048C172.915 29.62 172.746 29.4599 172.586 29.2243C172.435 28.9982 172.35 28.7815 172.331 28.5742C172.18 26.8123 172.298 25.7193 172.684 25.2953C173.071 24.8807 174.164 24.6546 175.963 24.6169C177.791 24.5887 179.676 24.8572 181.617 25.4225C183.2 25.8936 184.952 26.6144 186.874 27.5849C188.372 28.3386 189.658 29.1018 190.732 29.8744C192.023 30.8072 193.126 31.8295 194.04 32.9413C195.236 34.4017 195.698 36.1071 195.425 38.0575C195.161 40.0173 194.252 41.5248 192.697 42.5801C191.708 43.2679 190.77 43.1878 189.884 42.3398C188.669 41.1432 187.92 40.4272 187.637 40.1916ZM164.106 25.6486C164.077 23.0858 163.404 20.344 162.085 17.4232C163.988 17.2536 165.75 17.7341 167.37 18.8648C169.66 20.4759 171.012 22.8503 171.427 25.9878C171.841 29.1254 171.135 31.6788 169.307 33.648C168.27 34.7598 167.064 35.3251 165.689 35.3439C164.313 35.3628 163.046 34.8257 161.887 33.7328C163.404 31.1511 164.143 28.4564 164.106 25.6486ZM149.506 13.8758C151.673 13.2728 153.897 13.4377 156.177 14.3704C158.438 15.3032 160.158 16.7495 161.336 18.7093C164.049 23.2413 164.129 27.8393 161.576 32.5032C160.822 33.8788 159.776 34.8352 158.438 35.3722C157.091 35.9093 155.626 35.9564 154.043 35.5135C156.078 27.7215 154.566 20.5089 149.506 13.8758ZM144.63 28.1219C143.358 25.399 142.204 23.1989 141.168 21.5218C139.726 19.2228 138.157 17.296 136.461 15.7414C136.047 15.3645 135.51 14.9075 134.85 14.3704C133.757 13.4848 133.192 13.0278 133.154 12.9995C135.613 10.9832 138.6 10.286 142.115 10.9078C145.761 11.558 148.729 13.824 151.018 17.7059C153.506 21.9081 154.448 26.7133 153.845 32.1216C153.723 33.2994 153.463 34.0861 153.068 34.4818C152.691 34.8681 151.923 35.1414 150.764 35.3015C149.812 35.4335 149.049 35.6926 148.475 36.0789C147.806 36.5406 147.33 37.2048 147.047 38.0716C146.906 38.5333 146.736 38.7924 146.538 38.849C146.359 38.8961 145.846 38.849 144.998 38.7076C144.998 38.2648 145.031 37.9633 145.097 37.8031C145.813 36.2296 146.11 34.5949 145.987 32.8989C145.874 31.3914 145.422 29.7991 144.63 28.1219ZM152.05 36.093C153.699 35.9988 155.221 36.4369 156.615 37.4074C157.557 38.0669 158.646 39.1693 159.88 40.7145C161.783 43.0795 162.824 45.6517 163.003 48.4312C163.069 49.2886 163.032 50.2214 162.89 51.2295C162.815 51.8043 162.598 52.2613 162.24 52.6005C161.882 52.9397 161.411 53.1422 160.827 53.2082C160.12 53.2741 159.55 53.2082 159.117 53.0103C158.589 52.7653 158.222 52.3178 158.014 51.6677L156.997 48.4453C156.507 47.0226 155.64 45.6941 154.396 44.4598C153.727 43.8003 152.498 42.8015 150.708 41.4636C149.681 40.7098 148.955 40.0597 148.531 39.5132C148.032 38.8631 147.867 38.2742 148.036 37.7466C148.197 37.2189 148.663 36.8185 149.436 36.5453C149.765 36.4228 150.194 36.3286 150.722 36.2626C151.014 36.2249 151.457 36.1684 152.05 36.093ZM144.178 29.8603C144.8 31.707 145.092 33.3276 145.054 34.7221C145.007 36.4652 144.465 38.0339 143.429 39.4284C142.647 40.4837 141.62 41.2516 140.348 41.7321C139.359 42.0996 138.101 42.3257 136.574 42.4105C136.452 42.4105 136.301 42.2974 136.122 42.0713C135.953 41.8546 135.844 41.652 135.797 41.4636C135.204 38.75 134.144 36.126 132.617 33.5914C131.289 31.3961 129.546 29.1631 127.388 26.8924C123.911 23.2554 119.794 20.3534 115.036 18.1864C113.481 17.5551 112.266 17.0557 111.389 16.6883C114.169 13.4282 117.561 11.5815 121.565 11.1481C125.004 10.7712 128.179 11.3507 131.091 12.8865C133.616 14.2244 136.056 16.3538 138.412 19.2746C140.946 22.4122 142.868 25.9407 144.178 29.8603ZM144.489 56.4305C143.613 55.102 142.482 53.9619 141.097 53.0103C139.929 52.2094 138.492 51.4886 136.786 50.8479C135.778 50.4805 134.831 49.8963 133.946 49.0954C133.069 48.3134 132.74 47.3995 132.956 46.3536C133.173 45.3266 133.828 44.5729 134.921 44.0923C136.984 43.1878 139.26 43.3386 141.747 44.5446C143.641 45.4585 145.229 46.3583 146.51 47.244C148.131 48.3652 149.473 49.6042 150.538 50.961C151.348 51.9974 151.98 52.9773 152.432 53.9007C152.969 55.0219 153.284 56.1479 153.379 57.2785C153.426 58.5976 152.945 59.4927 151.937 59.9638C151.108 60.3595 150.307 60.5338 149.534 60.4867C148.705 60.4302 147.956 60.124 147.287 59.5681C146.232 58.6824 145.299 57.6365 144.489 56.4305ZM160.728 55.738C160.558 55.0973 160.695 54.6168 161.138 54.2964C161.741 54.0232 162.174 53.7971 162.438 53.618C162.787 53.3731 163.093 53.3165 163.357 53.4484C163.517 53.5238 163.767 53.7547 164.106 54.141C164.614 54.7251 165.331 55.4648 166.254 56.3599C167.366 57.4622 168.091 58.1877 168.43 58.5364C168.892 59.0169 169.439 59.7141 170.07 60.6281C170.729 61.5797 170.701 62.6821 169.985 63.9352C169.25 65.1977 168.313 65.6924 167.173 65.4192C165.665 65.4569 164.44 64.9386 163.498 63.8645C162.716 62.9883 162.08 61.6598 161.59 59.879C161.449 59.3891 161.298 58.7012 161.138 57.8156C160.968 56.8357 160.832 56.1431 160.728 55.738ZM96.0266 21.649C95.2917 22.9492 94.8206 23.7218 94.6133 23.9668C93.982 24.7112 93.1435 25.1634 92.0976 25.3236C91.0894 25.4838 89.808 25.823 88.2534 26.3412C86.2088 27.0196 84.9368 27.4247 84.4375 27.5566C83.6649 27.7639 82.6755 27.9806 81.4695 28.2067C80.7911 28.3292 79.7123 28.5271 78.233 28.8003C79.5992 25.8606 82.2092 23.6794 86.0628 22.2567C89.7185 20.8999 93.0398 20.6974 96.0266 21.649ZM95.7581 24.6169C96.7568 22.0353 98.1937 20.0567 100.069 18.681C101.972 17.2771 104.139 16.6553 106.57 16.8155C110.716 17.0793 114.772 18.4502 118.738 20.9282C123.808 24.0846 127.996 28.1219 131.303 33.0403C132.236 34.4253 132.966 35.6784 133.493 36.7997C134.162 38.2035 134.615 39.5839 134.85 40.9407C134.982 41.7415 134.968 42.3822 134.808 42.8628C134.601 43.4469 134.144 43.8992 133.437 44.2195C132.938 44.4551 132.57 44.8037 132.335 45.2654C132.108 45.6988 132.014 46.2076 132.052 46.7918C132.146 48.2899 131.472 49.2933 130.031 49.8021C128.872 50.2355 128.123 50.504 127.784 50.6077C127.284 50.7679 126.94 50.7914 126.752 50.6784C126.573 50.5747 126.408 50.2732 126.257 49.7738C126.031 48.973 125.814 48.2522 125.607 47.6115C124.561 44.4362 123.384 41.6803 122.074 39.3436C120.529 36.5924 118.696 34.2227 116.576 32.2347C112.412 28.2962 107.192 25.9407 100.917 25.1681C100.21 25.0739 98.4905 24.8902 95.7581 24.6169ZM125.367 55.2575C125.357 55.6155 125.24 55.9971 125.014 56.4023C124.806 56.798 124.552 57.1183 124.25 57.3633C123.478 58.0228 122.912 58.7342 122.554 59.4974C122.187 60.27 121.989 61.1792 121.961 62.2251C121.914 63.6855 121.41 65.0423 120.449 66.2954C119.723 67.2376 118.63 68.2364 117.17 69.2916C116.755 69.5837 116.114 69.8758 115.248 70.1679C112.977 70.9028 111.776 72.3538 111.644 74.5209C111.597 75.2652 111.078 75.9577 110.089 76.5984C109.137 77.2015 108.209 77.4888 107.305 77.4606C107.192 77.4606 107.055 77.3239 106.895 77.0507C106.744 76.7963 106.659 76.5608 106.641 76.344C106.612 76.0143 106.603 75.4066 106.612 74.5209C106.622 73.7388 106.589 73.1311 106.513 72.6977C106.005 69.5602 104.874 66.6723 103.121 64.0341C101.52 61.6315 99.3667 59.389 96.6626 57.3068C93.3272 54.744 89.4217 52.7418 84.9463 51.3002C82.685 50.5841 80.6168 50.0659 78.7418 49.7456C76.4994 49.3687 74.3606 49.2415 72.3254 49.364C72.1652 49.3734 71.3644 49.3781 69.9228 49.3781C70.3091 45.6187 71.4492 42.109 73.343 38.849C76.4429 33.5161 80.8053 29.7661 86.4302 27.599C92.3661 25.3283 98.2267 24.9655 104.012 26.5108C112.228 28.6967 118.399 33.8647 122.526 42.0148C124.618 46.1511 125.565 50.5653 125.367 55.2575ZM128.462 57.123C129.706 57.0948 130.964 57.3492 132.236 57.8862C133.159 58.282 134.275 58.9274 135.585 59.8225C138.204 61.5938 139.707 62.6302 140.094 62.9317C141.733 64.1849 143.024 65.4804 143.966 66.8183C144.682 67.8453 145.191 68.6792 145.492 69.3199C145.945 70.2904 146.176 71.2514 146.185 72.2031C146.204 73.7954 145.563 74.9778 144.263 75.7505C143.387 76.2687 142.581 76.5749 141.846 76.6691C140.942 76.7916 140.103 76.5984 139.33 76.0897C138.661 75.6374 138.073 74.9354 137.564 73.9838C136.537 72.0617 135.119 70.4835 133.31 69.2492C131.764 68.194 129.828 67.3271 127.501 66.6487C126.342 66.3001 125.296 65.6971 124.363 64.8397C123.694 64.2084 123.261 63.4971 123.063 62.7056C122.865 61.8859 122.931 61.0426 123.261 60.1758C123.987 58.2914 125.296 57.3068 127.19 57.222C127.473 57.2126 127.897 57.1796 128.462 57.123ZM116.449 70.5919C116.647 70.5448 116.911 70.5118 117.24 70.4929C117.815 70.4553 118.135 70.4317 118.201 70.4223C121.32 70.7332 124.142 72.3962 126.667 75.4113C129.268 78.5111 130.855 82.36 131.43 86.958C131.552 87.9379 131.472 88.7011 131.19 89.2476C130.916 89.794 130.384 90.2463 129.593 90.6043C127.699 91.4523 126.182 91.1508 125.042 89.6998C124.759 89.3418 124.297 88.6304 123.657 87.5657C123.101 86.6518 122.616 85.9687 122.201 85.5164C121.457 84.7061 120.491 83.7545 119.304 82.6615C117.956 81.4461 116.953 80.5274 116.293 79.9056C115.719 79.378 115.29 78.9822 115.007 78.7184C114.517 78.2567 114.112 77.8422 113.792 77.4747C112.539 76.052 112.209 74.6387 112.803 73.2348C113.377 71.8591 114.593 70.9782 116.449 70.5919ZM95.3765 57.5894C98.1183 59.6434 100.323 61.8529 101.991 64.2179C103.828 66.8372 105.053 69.7156 105.665 72.8532C106.184 75.4631 105.887 78.2332 104.775 81.1634C104.172 82.7463 103.183 84.7155 101.807 87.0711C101.628 87.382 101.355 87.6694 100.987 87.9332C100.639 88.1876 100.281 88.3666 99.9132 88.4702C95.8617 89.6292 92.7948 92.1354 90.7126 95.989L90.7408 95.9608V95.9749L90.7267 95.989C88.993 97.9583 86.6893 99.4328 83.8156 100.413C82.6096 100.827 79.9384 101.449 75.8022 102.278C75.6326 102.316 75.4253 102.33 75.1803 102.321C75.0484 102.311 74.8788 102.302 74.6715 102.292L82.473 95.1552C82.4447 95.1269 82.6284 95.2447 83.0242 95.5085C83.1843 94.6417 83.0383 94.0151 82.586 93.6288C82.1432 93.2425 81.4884 93.1718 80.6215 93.4168L81.3141 94.4344L81.2717 94.6888C80.0468 96.5355 78.756 98.0148 77.3992 99.1266C75.8257 100.417 74.0732 101.298 72.1417 101.769C71.1241 102.014 70.4363 102.033 70.0783 101.826C69.7202 101.619 69.3999 101.006 69.1172 99.9887C68.957 99.4234 68.7497 99.0182 68.4954 98.7733C68.1844 98.4529 67.7463 98.3163 67.181 98.3634C66.6628 98.4011 66.2765 98.599 66.0221 98.957C65.8336 99.2208 65.6923 99.6307 65.5981 100.187C65.3814 101.43 65.1458 102.123 64.8914 102.264C64.637 102.405 63.8927 102.274 62.6584 101.868C59.0686 100.691 56.0064 98.7544 53.4719 96.0597C53.1986 95.7676 53.0479 95.4991 53.0196 95.2541C53.0008 95.0374 53.0714 94.7406 53.2316 94.3637C53.5991 93.5063 53.7828 92.5641 53.7828 91.5371C53.7734 91.0849 53.6368 90.7928 53.3729 90.6609C53.0997 90.529 52.7558 90.6138 52.3412 90.9153C52.068 91.1037 51.5733 91.4241 50.8573 91.8763C50.5934 91.1037 50.405 90.5431 50.2919 90.1945C50.0752 89.5726 49.9433 89.0544 49.8962 88.6398C48.7656 79.8302 49.6512 71.8827 52.5532 64.7973C55.54 57.5046 60.284 52.9585 66.7852 51.1589C69.48 50.424 72.5044 50.1413 75.8587 50.3109C82.8875 50.6878 89.3935 53.114 95.3765 57.5894ZM105.369 84.1596C105.906 82.8971 106.325 81.9549 106.626 81.333C106.994 80.5604 107.493 79.9386 108.125 79.4675C108.52 79.166 109.024 78.8409 109.637 78.4923C110.315 78.1154 110.805 77.8327 111.107 77.6443C111.842 78.2662 112.93 79.1518 114.371 80.3013C115.624 81.3189 116.623 82.214 117.368 82.9866C118.178 83.8157 119.115 84.9087 120.18 86.2655C120.783 87.0192 121.678 88.1546 122.865 89.6716C123.063 89.9165 123.355 90.2887 123.742 90.7881C124.09 91.2121 124.415 91.5418 124.717 91.7774C125.075 92.0789 125.315 92.3898 125.438 92.7102C125.56 93.0305 125.579 93.4121 125.494 93.8549C125.108 95.8053 124.773 97.6568 124.491 99.4093C124.425 99.805 124.297 100.088 124.109 100.257C123.921 100.427 123.619 100.516 123.205 100.526C122.234 100.535 120.543 100.573 118.131 100.639C115.973 100.695 114.282 100.728 113.057 100.738C112.859 100.747 112.633 100.639 112.379 100.413C112.143 100.205 111.969 99.984 111.856 99.7484C111.582 99.1737 111.14 98.1703 110.527 96.7381C109.981 95.4473 109.528 94.4485 109.17 93.7419C108.077 91.6125 106.518 89.893 104.492 88.5833C104.144 88.3666 103.946 88.1358 103.899 87.8908C103.852 87.6647 103.918 87.3584 104.097 86.9721C104.398 86.3597 104.822 85.4222 105.369 84.1596ZM93.7653 110.801C93.7465 110.32 93.7465 110.037 93.7653 109.953C93.8407 109.698 94.0668 109.51 94.4437 109.387C97.8074 108.285 100.337 107.484 102.033 106.985C104.973 106.118 107.569 105.567 109.82 105.331C110.395 105.274 110.838 105.322 111.149 105.472C111.507 105.642 111.79 105.986 111.997 106.504C113.128 109.331 113.815 112.652 114.06 116.468C113.91 117.41 113.698 118.828 113.424 120.722C113.17 122.399 112.916 123.808 112.661 124.948C112.416 126.031 111.964 126.912 111.304 127.591C110.588 128.307 109.679 128.745 108.577 128.905C106.052 129.282 103.739 129.301 101.637 128.962C99.2819 128.585 97.1243 127.751 95.1645 126.46C93.8454 125.584 93.2471 124.434 93.3696 123.012C93.6711 120.27 93.8454 118.211 93.8925 116.835C93.949 115.29 93.9066 113.279 93.7653 110.801ZM109.057 104.766C106.315 105.171 103.206 105.91 99.7295 106.985C99.5033 107.051 96.4789 108.054 90.656 109.995C88.3476 110.768 85.7613 111.931 82.897 113.486C81.2481 114.381 78.7889 115.78 75.5195 117.683C73.8706 118.607 72.1276 119.219 70.2903 119.521C68.6131 119.813 67.6521 118.988 67.4071 117.047C67.36 116.736 67.3317 116.501 67.3223 116.341C66.8512 107.682 66.5874 102.754 66.5309 101.557C66.4555 100.945 66.4366 100.497 66.4743 100.215C66.5308 99.706 66.8182 99.4281 67.3364 99.381C67.5437 99.3621 67.817 99.5883 68.1562 100.059C68.4954 100.54 68.6791 100.954 68.7073 101.303C68.7921 102.5 68.8487 103.974 68.8769 105.727C68.8958 106.716 68.9193 108.195 68.9476 110.165C68.9665 110.749 68.9806 111.616 68.99 112.765C69.0183 113.783 69.0607 114.649 69.1172 115.366C69.1832 116.072 69.4234 116.576 69.838 116.878C70.262 117.189 70.8085 117.245 71.4774 117.047C72.6929 116.699 73.7717 116.166 74.7139 115.45C76.3157 114.235 78.3226 113.067 80.7346 111.945C83.5706 110.73 85.6953 109.816 87.1086 109.203C89.6903 108.092 92.6818 106.975 96.0831 105.854C104.431 103.084 112.755 101.864 121.056 102.193C126.625 102.41 131.887 103.334 136.843 104.964C137.276 105.105 137.795 105.336 138.398 105.656C138.737 105.845 139.241 106.122 139.91 106.49L139.783 106.645C139.726 106.636 137.865 106.269 134.2 105.543C131.967 105.1 130.101 104.761 128.603 104.525C122.894 103.621 116.378 103.701 109.057 104.766ZM127.529 92.5688C127.689 92.3804 127.868 92.2391 128.066 92.1448C128.575 91.8904 129.235 91.5842 130.045 91.2262C131.477 90.5855 132.212 90.2557 132.25 90.2369C132.881 91.669 133.15 93.7136 133.055 96.3706C132.942 99.4705 133.027 101.656 133.31 102.928C131.755 102.599 130.615 102.354 129.889 102.193C128.618 101.92 127.553 101.68 126.695 101.473C126.573 101.435 126.45 101.303 126.328 101.077C126.205 100.851 126.154 100.658 126.172 100.497C126.446 98.1137 126.794 95.6546 127.218 93.12C127.247 92.941 127.35 92.7573 127.529 92.5688ZM125.664 106.702C125.532 105.873 125.555 105.373 125.734 105.204C125.895 105.053 126.408 105.006 127.275 105.062L129.098 105.19C130.464 105.284 131.463 105.482 132.094 105.783C133.055 106.226 133.724 107.018 134.101 108.158C134.271 108.666 134.586 109.317 135.048 110.108C135.604 111.041 135.957 111.677 136.108 112.016C136.523 112.92 136.617 113.693 136.391 114.334C136.174 114.965 135.632 115.526 134.765 116.016C133.154 116.93 131.647 117.113 130.243 116.567C128.83 116.02 127.788 114.828 127.119 112.991C126.592 111.54 126.107 109.444 125.664 106.702ZM172.345 61.4195C172.845 61.2122 173.551 61.3818 174.465 61.9283C174.673 62.0508 174.913 62.2204 175.186 62.4371C175.346 62.5501 175.577 62.7292 175.879 62.9741C175.257 63.8692 174.475 64.4911 173.532 64.8397C172.59 65.1883 171.657 65.2025 170.734 64.8821C171.045 63.8645 171.21 63.3086 171.229 63.2144C171.474 62.2157 171.846 61.6174 172.345 61.4195ZM161.35 75.0579C162.763 75.2558 164.021 75.8023 165.123 76.6974C166.226 77.5925 166.923 78.6289 167.215 79.8067C165.868 80.2306 164.492 80.2919 163.088 79.9904C161.675 79.6795 160.469 79.0435 159.47 78.0824L161.35 75.0579ZM151.782 61.1792C152.441 60.727 152.884 60.3925 153.11 60.1758C153.723 61.2593 154.622 62.8328 155.81 64.8962C156.846 66.7147 157.694 68.2364 158.354 69.4612C159.041 70.7144 159.489 71.6095 159.696 72.1465C160.101 73.1924 160.266 74.1911 160.191 75.1427C160.144 75.7081 159.998 76.1697 159.753 76.5278C159.489 76.8858 159.098 77.1638 158.58 77.3616C157.392 77.8045 156.276 77.8563 155.23 77.5171C154.147 77.1591 153.308 76.443 152.714 75.3689C151.64 73.4562 150.967 71.3362 150.693 69.009C150.458 67.0021 150.514 64.7785 150.863 62.3382C150.92 61.999 151.226 61.6127 151.782 61.1792ZM144.362 76.98C144.974 76.7256 145.295 76.5937 145.323 76.5843C145.455 80.9844 146.6 85.3421 148.757 89.6574C149.191 90.5243 149.676 91.5371 150.213 92.696C150.712 93.8078 150.92 94.7171 150.835 95.4237C150.75 96.121 150.359 96.7334 149.662 97.261C148.738 97.9771 147.716 98.3634 146.595 98.4199C145.426 98.4765 144.498 98.1467 143.811 97.4306C142.529 96.1021 141.648 94.6417 141.168 93.0494C139.943 89.1109 139.571 85.3986 140.051 81.9125C140.145 81.3566 140.207 80.942 140.235 80.6688C140.357 79.557 140.645 78.7278 141.097 78.1814C141.634 77.5312 142.454 77.2015 143.556 77.192C143.763 77.192 144.032 77.1214 144.362 76.98ZM150.17 98.0666C150.849 97.473 151.296 96.7004 151.513 95.7488C153.803 96.7852 155.485 98.1985 156.559 99.9887C157.228 101.091 157.482 101.798 157.322 102.109C157.152 102.429 156.413 102.655 155.103 102.787C153.699 102.928 152.314 102.707 150.948 102.123C149.393 101.454 148.38 100.497 147.909 99.2538C148.861 98.9429 149.615 98.5471 150.17 98.0666ZM56.4681 46.6928C56.3173 46.6928 56.0912 46.674 55.7897 46.6363C56.9204 41.1715 59.9731 36.8656 64.9479 33.7186C69.5459 30.8072 74.9966 29.328 81.2999 29.2809C80.744 29.7896 79.9007 30.5246 78.7701 31.4856C77.7902 32.343 77.0176 33.1015 76.4523 33.761C75.7174 34.6279 74.8694 35.735 73.9083 37.0823C73.3713 37.8455 72.5657 38.9903 71.4916 40.5167C71.4445 40.5826 71.3597 40.7287 71.2372 40.9548C71.1429 41.1338 71.0534 41.2657 70.9686 41.3505C69.3198 42.9052 67.6756 44.4221 66.0362 45.9014C65.8006 46.1087 65.5086 46.2217 65.1599 46.2406C63.2284 46.3536 60.3311 46.5044 56.4681 46.6928ZM45.84 52.2189C48.2144 50.4381 50.8196 49.0954 53.6556 48.1909C56.3974 47.3147 59.5067 46.7965 62.9834 46.6363C65.3484 47.0603 67.0585 47.3853 68.1138 47.6115C68.2928 47.6492 68.4859 47.7622 68.6932 47.9507C68.8911 48.1297 68.9994 48.2993 69.0183 48.4595C69.0277 48.6291 68.9617 48.8269 68.8204 49.053C68.6979 49.2603 68.5472 49.4346 68.3682 49.576C67.9347 49.8963 67.4259 50.1177 66.8418 50.2402C64.6841 50.7208 62.6961 51.6111 60.8776 52.9114C59.2382 54.0797 57.6977 55.6108 56.2561 57.5046C55.606 58.3526 54.7297 59.0687 53.6273 59.6529C53.0149 59.9732 52.3601 60.4443 51.6628 61.0662C51.5404 61.1792 50.9468 61.7493 49.8821 62.7763C48.987 63.6431 48.1578 64.0954 47.3946 64.1331C46.622 64.1613 45.7788 63.7656 44.8648 62.9459C43.1312 61.4007 42.3538 59.6105 42.5329 57.5753C42.7119 55.5307 43.8143 53.7452 45.84 52.2189ZM17.0509 46.4102C16.6929 46.2406 16.1652 45.9673 15.468 45.5904C19.576 45.6847 22.9444 47.6068 25.5732 51.3567C30.6799 58.6777 33.7609 67.1057 34.8162 76.6408C35.1648 79.7595 35.537 83.4106 35.9327 87.594C36.1588 90.0249 36.4886 93.6806 36.922 98.5613C37.1105 100.634 37.5721 101.883 38.3071 102.307C39.0703 102.749 40.248 102.354 41.8403 101.119C42.7731 100.394 43.8661 99.4092 45.1192 98.1655C46.5043 96.7522 47.5501 95.7064 48.2568 95.028C49.4911 93.8691 50.438 93.0305 51.0975 92.5123C51.286 92.371 51.5545 92.2391 51.9031 92.1166C52.2988 91.9847 52.5909 91.881 52.7794 91.8056L53.1751 92.2014C53.0149 92.5123 52.7982 92.9881 52.525 93.6288C52.2611 94.1941 51.9926 94.6228 51.7194 94.9149C51.1729 95.5085 50.4474 96.2058 49.5429 97.0066C49.0435 97.4589 48.2897 98.1326 47.2816 99.0277C46.6691 99.6024 45.7599 100.479 44.5539 101.656C43.4609 102.693 42.5234 103.541 41.7414 104.2C41.1478 104.7 40.248 105.048 39.042 105.246C37.1387 105.548 35.9892 104.775 35.5935 102.928C35.3014 101.477 35.0941 100.347 34.9717 99.5364C34.7738 98.2739 34.6702 97.1338 34.6607 96.1162C34.5665 88.0227 33.6903 79.6088 32.032 70.8745C31.4949 68.0291 30.8636 65.4804 30.1381 63.2285C29.2902 60.5904 28.2537 58.1783 27.0289 55.9924C24.5132 51.4792 21.1872 48.2851 17.0509 46.4102ZM41.4305 61.0662C42.0618 61.5467 42.9804 62.2345 44.1864 63.1296C45.2229 63.9116 46.0803 64.5853 46.7587 65.1506C46.9283 65.292 47.0602 65.5369 47.1544 65.8856C47.2486 66.2436 47.2486 66.4886 47.1544 66.6205C46.4854 67.5533 46.118 68.0573 46.052 68.1327C45.5903 68.6886 45.1428 69.0467 44.7094 69.2068C43.428 69.6874 41.8969 70.1867 40.1161 70.7049C39.0891 71.0064 37.5345 71.4446 35.4522 72.0193C35.3391 72.057 35.1789 72.0052 34.9717 71.8639C34.755 71.7225 34.623 71.5859 34.5759 71.454C34.3592 70.7945 34.3404 70.1867 34.5194 69.6308C34.6984 69.0561 35.0706 68.5897 35.6359 68.2317C36.7948 67.4873 37.8454 66.4933 38.7876 65.2496C39.4754 64.3356 40.2245 63.1013 41.0348 61.5467C41.1007 61.4336 41.1902 61.3206 41.3033 61.2075C41.3975 61.1133 41.4399 61.0662 41.4305 61.0662ZM32.1592 73.15C32.0178 73.3384 31.8482 73.5834 31.6504 73.8849C31.4902 74.111 31.3442 74.2571 31.2123 74.323C30.7317 74.5586 30.0722 74.8554 29.2336 75.2134C28.2726 75.6186 27.6083 75.9059 27.2409 76.0755C26.7321 76.3205 26.3599 76.3299 26.1243 76.1038C25.9171 75.9248 25.8228 75.595 25.8417 75.1145C25.8417 74.813 25.8982 74.5067 26.0113 74.1958C26.1338 73.8472 26.2845 73.6211 26.4635 73.5174C27.8957 72.7919 29.3985 72.1889 30.972 71.7084C31.0568 71.6801 31.2264 71.8403 31.4808 72.1889C31.6221 72.3868 31.8482 72.7071 32.1592 73.15ZM24.4425 74.0686C24.565 74.144 24.6404 74.2241 24.6686 74.3089C24.9042 75.1003 25.0361 75.5479 25.0644 75.6515C25.2057 76.1697 25.2952 76.6267 25.3329 77.0224C25.3423 77.1732 25.2528 77.3569 25.0644 77.5736C24.8948 77.7715 24.7063 77.927 24.499 78.04C24.2635 78.1625 23.9384 78.285 23.5239 78.4075C23.2883 78.4829 22.902 78.5959 22.3649 78.7467C22.054 78.6242 21.5688 78.4405 20.9092 78.1955C20.3345 77.9788 19.8493 77.7809 19.4535 77.6019C18.9824 77.3852 18.7186 77.1119 18.6621 76.7822C18.6055 76.4618 18.761 76.1085 19.1285 75.7222C19.7597 75.0438 20.5324 74.5633 21.4463 74.2806C22.1812 74.0545 23.0763 73.9414 24.1316 73.9414C24.2258 73.9414 24.3294 73.9838 24.4425 74.0686ZM32.5549 79.0293C32.8187 80.6311 33.0119 81.9737 33.1344 83.0573C33.2568 84.1502 33.3699 85.441 33.4736 86.9297C33.5301 87.7871 33.6055 89.0733 33.6997 90.7881C33.7751 91.9281 33.3746 93.1577 32.4984 94.4768C31.6315 95.7865 30.6611 96.6345 29.587 97.0208C27.6177 97.7368 25.983 97.4024 24.6828 96.0173C22.4215 93.6335 21.0223 90.7221 20.4852 87.2831C19.9482 83.8157 21.305 80.9844 24.5556 78.7891C25.4412 78.1861 26.5954 77.4983 28.0182 76.7256C29.6765 75.84 30.9484 75.1474 31.8341 74.6481C32.0037 75.6939 32.244 77.1543 32.5549 79.0293ZM36.3567 83.0997C35.9139 79.4062 35.5653 76.5608 35.3109 74.5633C35.2543 74.1393 35.259 73.8331 35.325 73.6446C35.4098 73.362 35.6453 73.1453 36.0316 72.9945C38.9525 71.8827 41.2044 71.0818 42.7873 70.5919C45.3218 69.8098 47.6585 69.3011 49.7973 69.0655C49.8067 69.0655 49.9716 69.0938 50.2919 69.1503C49.5476 73.8896 49.1189 76.6644 49.0058 77.4747C48.921 78.0966 48.8268 79.0058 48.7232 80.2024C48.6195 81.4461 48.53 82.3553 48.4546 82.9301C48.4264 83.1562 48.3369 83.387 48.1861 83.6226C48.0353 83.8676 47.8752 84.0183 47.7056 84.0749C44.5775 85.149 41.308 86.8685 37.8972 89.2334C37.7653 89.3182 37.525 89.4266 37.1764 89.5585L36.3567 83.0997ZM19.4535 87.4951C20.8103 90.9247 21.4981 92.6631 21.517 92.7102C22.3649 94.783 23.8442 96.5591 25.9548 98.0383C27.1231 98.8486 27.3304 99.8568 26.5766 101.063C25.8323 102.269 24.6969 102.924 23.1705 103.027C20.7491 103.197 18.6809 102.372 16.9661 100.554C14.9121 98.4152 13.7014 95.9702 13.3339 93.219C13.1737 91.9847 13.3151 91.0048 13.7579 90.2793C14.1913 89.5632 14.9875 88.9932 16.1464 88.5692C16.5704 88.4184 17.1074 88.2394 17.7576 88.0321C18.8222 87.6929 19.3876 87.5139 19.4535 87.4951ZM12.0054 93.0776C13.1737 95.81 13.8568 97.3882 14.0547 97.8122C14.8085 99.4516 15.7224 100.757 16.7965 101.727C17.9931 102.792 19.4441 103.498 21.1495 103.847C21.6771 103.96 22.2189 104.233 22.7748 104.667C23.3213 105.091 23.7359 105.552 24.0185 106.052C25.6014 108.926 25.9877 112.266 25.1774 116.072C25.0078 116.873 24.5791 118.677 23.8913 121.485C23.3448 123.709 22.9585 125.518 22.7324 126.912C21.7148 133.121 23.6699 138.586 28.5976 143.307C28.7578 143.457 28.9415 143.655 29.1488 143.9C29.2619 144.042 29.4268 144.254 29.6435 144.536L29.4174 144.932C27.2126 145.017 25.2811 144.993 23.6228 144.861C21.5594 144.692 19.6514 144.334 17.8989 143.787C13.8097 142.515 10.5073 140.353 7.99159 137.3C5.71145 134.539 4.0249 130.973 2.93195 126.601C2.47969 124.792 2.19703 122.842 2.08396 120.75C1.98974 118.998 2.00387 117.024 2.12636 114.828C2.47498 108.431 4.2793 102.872 7.53933 98.1514C8.02928 97.4448 8.71709 96.6156 9.60276 95.664C10.6486 94.5616 11.4495 93.6995 12.0054 93.0776ZM38.3495 96.9784C38.3306 96.7993 38.2976 96.3518 38.2505 95.6357C38.2223 95.0892 38.1752 94.6464 38.1092 94.3072C37.6664 92.1967 38.2458 90.7033 39.8476 89.827C41.129 89.1204 43.3384 87.9991 46.476 86.4633C47.2109 86.1053 47.7056 86.3503 47.96 87.1983C48.0071 87.3679 48.0966 87.6128 48.2285 87.9332C48.351 88.263 48.4358 88.5079 48.4829 88.6681C48.8504 89.9307 48.9069 91.0425 48.6525 92.0035C48.3887 93.0588 47.7386 93.9916 46.7021 94.8019C45.9107 95.4237 44.9214 96.2858 43.7342 97.3882C42.1984 98.8109 41.2326 99.6966 40.8369 100.045C40.6673 100.196 40.4082 100.356 40.0596 100.526C39.3623 100.846 38.9855 101.02 38.9289 101.049C38.552 98.4105 38.3589 97.0537 38.3495 96.9784ZM24.0468 104.285C24.1127 104.078 24.3153 103.88 24.6545 103.692C25.9547 103.013 27.3398 103.15 28.8096 104.101C31.6551 105.958 33.5819 108.798 34.5901 112.624C36.1636 118.607 36.1117 124.938 34.4346 131.619C34.2556 132.316 33.9588 133.173 33.5442 134.191C33.3181 134.766 32.9506 135.665 32.4418 136.89C31.7729 134.959 31.2829 133.545 30.972 132.65C30.4255 131.096 29.8979 129.838 29.3891 128.877C28.9274 127.991 28.282 127.03 27.4529 125.994C27.1042 125.551 26.3458 124.66 25.1774 123.322C24.8571 122.964 24.6545 122.649 24.5697 122.376C24.4661 122.065 24.4755 121.692 24.598 121.259C25.3612 118.593 25.837 116.393 26.0254 114.659C26.2892 112.237 26.1338 109.995 25.559 107.932C25.3423 107.131 24.9089 106.203 24.2588 105.147C24.0421 104.799 23.9714 104.511 24.0468 104.285ZM48.6666 67.3837C48.7985 66.5168 49.1613 65.7018 49.7549 64.9386C49.9433 64.7031 50.5463 64.0671 51.5639 63.0307C51.4603 64.2367 51.154 65.2307 50.6453 66.0128C50.127 66.8042 49.4675 67.2612 48.6666 67.3837ZM70.7566 105.218C70.7661 104.822 70.8414 104.544 70.9828 104.384C71.143 104.205 71.4256 104.12 71.8308 104.13C74.2428 104.139 76.8433 103.776 79.6322 103.041C81.5261 102.542 84.0135 101.704 87.0945 100.526C87.6504 100.318 88.0838 100.238 88.3947 100.286C88.781 100.351 89.0873 100.625 89.3134 101.105C90.02 102.669 90.5335 103.979 90.8539 105.034C90.901 105.194 90.8539 105.421 90.7126 105.713C90.5712 106.005 90.4205 106.184 90.2603 106.25C87.151 107.512 84.4375 108.685 82.1196 109.769C79.2553 111.107 76.6407 112.478 74.2758 113.882C73.8706 114.117 73.3383 114.376 72.6787 114.659C72.2924 114.819 71.6706 115.078 70.8132 115.436C70.6436 114.664 70.5588 114.127 70.5588 113.825L70.7566 105.218ZM89.4547 131.392C90.1331 131.816 90.6466 132.405 90.9952 133.159C90.5241 133.366 89.8316 133.63 88.9177 133.951C88.1356 134.252 87.5467 134.572 87.151 134.912C85.4174 136.41 83.712 138.186 82.0348 140.24C81.4695 140.928 80.9749 141.403 80.5509 141.667C79.9856 142.016 79.3025 142.171 78.5016 142.134C70.8791 141.776 63.5582 144.14 56.5388 149.228L56.0865 149.539L55.7049 149.327C56.1854 148.225 56.5435 147.401 56.779 146.854C57.203 145.874 57.6035 145.073 57.9803 144.451C61.5984 138.45 66.6345 134.294 73.0886 131.986C78.1482 130.186 82.9111 129.739 87.3772 130.643C88.2251 130.813 88.9177 131.063 89.4547 131.392ZM88.3523 135.081C89.1249 134.478 89.7798 134.205 90.3168 134.261C90.7314 134.309 91.4239 134.652 92.3944 135.293C95.2116 137.159 97.5718 138.581 99.4751 139.561C102.113 140.918 105.02 141.158 108.195 140.282C108.412 141.526 108.398 142.821 108.153 144.169C107.983 145.139 107.639 146.331 107.121 147.744C104.841 154.076 100.855 159.032 95.1645 162.612C86.6375 167.964 77.8797 169.754 68.8911 167.983C62.7856 166.768 57.448 163.785 52.8783 159.037C52.1999 158.34 51.4932 157.393 50.7583 156.196C49.9574 154.811 49.345 153.779 48.921 153.101C48.8174 152.941 48.7373 152.7 48.6808 152.38C48.6148 151.984 48.5536 151.669 48.497 151.433C49.9857 152.13 51.0598 152.644 51.7194 152.974C55.573 154.981 59.5727 155.763 63.7184 155.32C68.9947 154.736 73.4466 152.361 77.0741 148.197C77.8562 147.292 78.8832 145.926 80.1551 144.098C81.4931 142.157 82.5012 140.777 83.1796 139.957C84.4987 138.355 86.2229 136.73 88.3523 135.081ZM55.6908 152.832C57.9803 149.808 61.4948 147.443 66.2341 145.738C70.5776 144.173 74.615 143.575 78.3461 143.943C77.1495 145.61 75.9246 147.033 74.6715 148.211C73.2865 149.511 71.8025 150.571 70.2196 151.391C67.4118 152.842 64.7595 153.69 62.2627 153.935C59.7658 154.18 57.5752 153.812 55.6908 152.832ZM137.945 114.546C138.228 114.414 138.426 114.381 138.539 114.447C140.197 115.436 141.7 116.449 143.047 117.485C143.405 117.768 143.551 118.074 143.486 118.404C143.41 118.724 143.156 118.965 142.722 119.125C141.554 119.558 140.565 119.799 139.754 119.846C138.313 119.94 137.14 119.907 136.235 119.747C134.954 119.521 133.781 119.012 132.716 118.22C133.319 117.928 133.748 117.721 134.002 117.599C134.445 117.382 134.789 117.179 135.034 116.991C135.317 116.784 135.689 116.454 136.15 116.002C136.65 115.512 137.017 115.172 137.253 114.984C137.47 114.814 137.7 114.668 137.945 114.546ZM93.5674 135.336C92.2012 134.28 91.5794 132.98 91.7019 131.435C91.8244 129.899 92.6441 128.712 94.161 127.873C94.3306 127.779 94.5426 127.727 94.797 127.718C95.0514 127.708 95.2634 127.751 95.433 127.845C99.4562 129.965 103.932 130.639 108.859 129.866C109.246 129.81 109.533 129.838 109.722 129.951C109.929 130.073 110.061 130.332 110.117 130.728C110.174 131.124 110.362 132.141 110.683 133.781C110.673 135.91 110.08 137.521 108.902 138.614C107.762 139.689 106.235 140.113 104.323 139.886C100.46 139.425 96.8746 137.908 93.5674 135.336ZM92.0411 94.5757C93.869 92.2673 96.1491 90.5902 98.8815 89.5444C99.9933 89.1204 101.077 89.0261 102.132 89.2617C103.159 89.4972 104.078 90.0249 104.888 90.8446C107.724 93.756 109.505 97.0961 110.23 100.865C110.306 101.289 110.287 101.6 110.174 101.798C110.042 102.005 109.764 102.142 109.34 102.208C107.032 102.613 105.67 102.853 105.256 102.928C103.71 103.22 102.354 103.503 101.185 103.776C100.111 104.031 98.7967 104.379 97.242 104.822C95.499 105.34 94.1799 105.722 93.2848 105.967C92.6535 104.714 92.1871 103.776 91.8856 103.155C91.3297 102.043 90.9151 101.086 90.6419 100.286C90.5006 99.8898 90.4535 99.3574 90.5006 98.6885C90.5948 97.9347 90.6466 97.3694 90.656 96.9925V96.9784C90.7691 96.8747 90.9151 96.5779 91.0942 96.088C91.2732 95.598 91.3768 95.3342 91.4051 95.2965C91.6689 95.0233 91.8809 94.783 92.0411 94.5757ZM59.1958 88.6822L58.1499 89.6716C58.2536 89.7658 58.4043 89.9307 58.6022 90.1662C58.7812 90.3547 58.9225 90.4394 59.0262 90.4206C59.3277 90.3923 59.6433 90.1238 59.9731 89.615C59.9919 89.5868 59.9119 89.4737 59.7328 89.2758C59.4219 88.9366 59.2429 88.7388 59.1958 88.6822ZM59.5491 67.7087L60.0579 66.7759L59.7752 66.4933C59.7564 66.5027 59.4973 66.6393 58.9979 66.9031C58.6776 67.0633 58.4373 67.2235 58.2771 67.3837C54.367 71.2279 52.9113 75.9059 53.91 81.4178C54.0796 82.3789 54.4847 83.1797 55.1254 83.8204C55.7756 84.4612 56.5953 84.8851 57.5846 85.0924C59.714 85.5258 61.4477 84.8475 62.7856 83.0573C64.8113 80.3531 65.5557 77.192 65.0186 73.574C64.7454 71.7178 64.1942 70.3516 63.365 69.4754C62.5547 68.6085 61.2828 68.0197 59.5491 67.7087ZM59.8035 68.585C61.1037 68.585 62.1637 69.1597 62.9834 70.3092C63.5959 71.1666 63.9822 72.1559 64.1424 73.2772C64.3025 74.4267 64.2036 75.5667 63.8456 76.6974C63.1672 75.8965 62.4841 75.383 61.7963 75.1569C61.0425 74.9025 60.2416 74.9826 59.3936 75.3971C57.6035 76.2734 56.6 77.8563 56.3833 80.1458C56.3456 80.5322 56.3315 81.0362 56.3409 81.6581C56.3503 82.0067 56.3597 82.5956 56.3692 83.4247C56.3597 83.4059 56.1006 83.0573 55.5918 82.3789C55.3092 82.002 55.1302 81.6769 55.0548 81.4037C53.9147 77.7102 54.4753 74.0215 56.7366 70.3375C57.4621 69.1597 58.4844 68.5756 59.8035 68.585ZM62.1779 81.4037C62.0459 82.0538 61.7916 82.5956 61.4147 83.029C61.0378 83.4718 60.6515 83.6697 60.2558 83.6226C59.2664 83.5095 58.7953 82.9348 58.8424 81.8984C58.8707 81.3142 59.012 80.8619 59.2664 80.5416C59.5491 80.1647 59.9495 80.0045 60.4678 80.0611C60.7127 80.0893 61.0048 80.2636 61.344 80.584C61.5324 80.763 61.8104 81.0362 62.1779 81.4037ZM65.0045 61.6315C64.703 60.6705 64.2177 60.0863 63.5488 59.879C62.7196 59.6246 61.9376 59.813 61.2027 60.4443C60.4678 61.0944 59.8365 62.1591 59.3088 63.6384C60.6845 63.2709 61.7162 63.1155 62.404 63.172C63.4498 63.2568 64.3167 63.7609 65.0045 64.6842C65.306 63.6196 65.306 62.602 65.0045 61.6315ZM79.5898 74.535L79.3213 74.959C79.1423 74.8931 78.8643 74.7706 78.4874 74.5915C78.1577 74.4502 77.8797 74.3701 77.6536 74.3513C77.2108 74.323 76.5371 74.2712 75.6326 74.1958C74.8599 74.1581 74.2051 74.2005 73.6681 74.323C71.6235 74.7941 69.7909 76.165 68.1703 78.4357C66.5591 80.697 65.7724 82.9866 65.8101 85.3044C65.876 88.7435 67.6945 90.2557 71.2654 89.8412C71.5293 89.8035 71.8449 89.7281 72.2124 89.615C74.8505 88.767 77.0553 86.812 78.8266 83.7498C80.598 80.6876 81.1963 77.8045 80.6215 75.1003C80.4048 74.1016 79.8395 73.3101 78.9256 72.726C78.0022 72.1324 77.0836 71.9863 76.1696 72.2879L79.5898 74.535ZM76.7632 74.9731C78.3367 75.3218 79.2601 76.264 79.5333 77.7998C79.9196 79.9574 79.1847 82.3035 77.3285 84.838C75.4724 87.3631 73.4608 88.7576 71.2937 89.0214C71.2089 89.0309 71.0864 89.0261 70.9262 89.0073C70.6059 88.9602 70.4127 88.9319 70.3468 88.9225C70.3845 88.8754 70.5023 88.7011 70.7001 88.3996C70.8038 88.2394 70.8933 88.1358 70.9686 88.0886C72.0428 87.4668 72.8107 86.5858 73.2723 85.4458C73.6304 84.5695 73.8282 83.4341 73.8659 82.0397C73.9036 81.0221 73.5974 80.2024 72.9473 79.5805C72.316 78.9869 71.4586 78.6666 70.375 78.6195L68.9052 78.5064C69.3292 78.0259 69.6307 77.6867 69.8097 77.4888C70.1112 77.1496 70.3703 76.8952 70.587 76.7256C71.5952 75.9719 72.561 75.4442 73.4843 75.1427C74.5679 74.7941 75.6608 74.7376 76.7632 74.9731ZM69.1455 83.1845C69.6825 83.2221 70.0735 83.4012 70.3185 83.7215C70.5446 84.0042 70.6436 84.3858 70.6153 84.8663C70.6059 85.6201 70.4175 86.2042 70.05 86.6188C69.692 87.0428 69.2114 87.2454 68.6084 87.2265C68.109 87.2171 67.6898 87.0381 67.3506 86.6895C67.0114 86.3314 66.8559 85.9074 66.8842 85.4175C66.9124 84.7956 67.1574 84.2586 67.6191 83.8063C68.0714 83.3541 68.5801 83.1468 69.1455 83.1845ZM84.3668 67.9349C83.8109 67.2471 82.7745 67.0492 81.2575 67.3413C79.75 67.6334 78.8078 68.2081 78.4309 69.0655C79.9479 69.4612 80.9325 69.8287 81.3847 70.1679C81.8464 70.5165 82.6755 71.5152 83.8722 73.1641L84.3668 73.1782C84.5552 71.0206 84.6589 69.7156 84.6777 69.2634C84.6966 68.6698 84.5929 68.2269 84.3668 67.9349Z" fill="black"/>
</g>
<defs>
<clipPath id="clip0_513_207">
<rect width="201" height="171" fill="white"/>
</clipPath>
</defs>
</svg>
