<svg width="612" height="721" viewBox="0 0 612 721" fill="none" xmlns="http://www.w3.org/2000/svg">
    <g clip-path="url(#clip0)">
        <path d="M612.4 0H0V720.9H612.4V0ZM554.2 137.75C552.733 139.983 550.9 142.6 548.7 145.6C547.067 147.8 545.117 150.333 542.85 153.2C541.217 155.267 539.15 157.717 536.65 160.55C535.75 161.583 533.6 163.917 530.2 167.55C530.3 167.783 530.4 168.05 530.5 168.35C535.5 176.217 538.783 181.283 540.35 183.55C544.15 189.183 547.8 193.983 551.3 197.95C558.633 206.383 566.2 212.7 574 216.9C574.367 217.1 574.633 217.417 574.8 217.85L569.15 217.15C558.35 215.883 549.05 216.317 541.25 218.45C537.617 219.45 531.633 221.417 523.3 224.35C516.167 226.883 506.933 230.25 495.6 234.45C495.567 234.45 494.917 234.7 493.65 235.2C504.95 245.933 518.567 253.017 534.5 256.45C523.3 264.75 510.017 272.033 494.65 278.3L497.5 281.1C510.3 293.9 520.483 307.967 528.05 323.3C529.517 326.333 530.633 328.9 531.4 331C532.433 333.867 533.1 336.583 533.4 339.15C533.567 340.75 533.567 342.333 533.4 343.9C532.867 348.267 530.433 351.383 526.1 353.25C523.4 354.417 519.7 355.35 515 356.05C506.1 357.283 497.483 357.783 489.15 357.55C477.483 357.25 465.917 355.4 454.45 352L451.75 351.2L452.6 359.3L460.3 360.8C465.567 361.9 471.067 363.8 476.8 366.5C478 367.033 478.917 367.867 479.55 369C486.35 380.7 490.95 393.5 493.35 407.4C495.65 421.1 495.85 435.517 493.95 450.65C492.483 462.65 489.733 475.2 485.7 488.3C485.3 489.633 484.55 490.6 483.45 491.2L472.3 496.85L472.1 498.4C471.6 504.4 470.867 513.4 469.9 525.4C468.9 536.133 467.05 548.217 464.35 561.65C458.283 592.117 449.367 620.85 437.6 647.85C435.7 652.217 433.283 657.433 430.35 663.5C428.683 666.967 426.167 672.133 422.8 679C422.3 680 421.517 680.867 420.45 681.6C412.55 687.267 403.167 692 392.3 695.8C380.1 700.1 366.1 703.35 350.3 705.55C341.3 706.817 331.517 707.733 320.95 708.3C312.483 708.733 302.65 708.983 291.45 709.05C274.783 709.15 260.083 708.75 247.35 707.85C225.317 706.283 206.133 702.967 189.8 697.9C176.1 693.633 164.567 688.217 155.2 681.65C154.2 680.983 153.383 680.033 152.75 678.8C135.25 645.4 122.3 610.333 113.9 573.6C110.067 556.833 107.417 541.083 105.95 526.35C105.55 522.517 105.15 517.817 104.75 512.25C104.283 505.983 103.917 501.283 103.65 498.15L103.5 496.7C100.367 495.3 98.0333 494.217 96.5 493.45C93.6333 492.05 91.8833 490.983 91.25 490.25C90.6167 489.517 89.85 487.633 88.95 484.6C82.5833 463 79.8333 442.733 80.7 423.8C81.6 403.867 86.6 385.883 95.7 369.85C96.5667 368.317 97.6833 367.1 99.05 366.2C106.683 361.2 114.867 357.933 123.6 356.4L126.1 355.9C125.433 355.433 124.533 355 123.4 354.6C122.067 354.1 121.2 353.75 120.8 353.55C117.633 351.95 115.85 351.05 115.45 350.85C114.983 350.583 113.25 349.533 110.25 347.7L114.2 335.7L106.2 336.55C98.5 337.417 90.45 337.483 82.05 336.75C72.8833 335.983 64.6167 334.583 57.25 332.55C54.5167 331.75 52.35 330.967 50.75 330.2C44.7833 327.4 42.35 322.717 43.45 316.15C44.1167 312.083 45.8167 307.617 48.55 302.75C54.7833 291.517 63.0833 280.6 73.45 270C74.2833 269.133 75.3167 267.983 76.55 266.55C78.3167 264.517 79.3333 263.35 79.6 263.05C73.6 261.917 67.0167 261.733 59.85 262.5C54.4167 263.033 47.8 264.25 40 266.15L40.6 265.5C48.1333 260.2 55.2333 252.8 61.9 243.3C65.2667 238.467 68.6167 232.867 71.95 226.5C74.2167 222.2 77.1 216.267 80.6 208.7C63.3333 198.867 48.6 186.95 36.4 172.95L39.3 172.85C54.1667 172.75 67.6667 168.667 79.8 160.6C84.5 157.467 89.7167 152.667 95.45 146.2C97.1167 144.267 98.4 142.8 99.3 141.8C71.3667 118.6 51.7 89.7167 40.3 55.15L42.9 55.7C58.4667 59.9333 73.9667 61.8333 89.4 61.4C93.8333 61.3 98.7167 60.9333 104.05 60.3C107.783 59.8667 112.65 59.1833 118.65 58.25C122.417 57.6833 128.033 56.8167 135.5 55.65C142 54.6833 147.617 53.9667 152.35 53.5C167.05 52.0333 179.983 53.4167 191.15 57.65L195.05 59.2C195.25 52.8333 194.867 46.1833 193.9 39.25C193.1 33.35 191.8 26.8 190 19.6C190.7 19.9333 191.1 20.15 191.2 20.25C199.2 26.5833 209.017 31.4667 220.65 34.9C228.55 37.2333 238.5 39.1833 250.5 40.75C252.967 41.05 255.367 40.7833 257.7 39.95C267.7 36.3833 278.733 34.9 290.8 35.5C294.367 35.6667 298.667 35.9667 303.7 36.4C306.567 36.6667 310.867 37.0667 316.6 37.6C322.7 38.1667 331.85 39.0833 344.05 40.35C345.05 40.45 346 40.4 346.9 40.2C353.933 38.5667 358.95 37.35 361.95 36.55C367.517 35.1167 372.45 33.65 376.75 32.15C387.283 28.45 395.933 24.0333 402.7 18.9C403.867 18 405.283 16.8333 406.95 15.4C407.917 14.6 409.367 13.35 411.3 11.65C411.4 12.1167 411.417 12.7 411.35 13.4C411.317 13.7667 411.25 14.3333 411.15 15.1L410.65 23.35C410.45 26.65 410.317 29.4 410.25 31.6C410.15 35.4333 410.383 39.6333 410.95 44.2C411.317 47.4 411.967 51.5333 412.9 56.6C414.9 67.7333 416.333 76.0833 417.2 81.65C417.4 82.95 417.533 84.5833 417.6 86.55C417.667 87.65 417.75 89.2833 417.85 91.45V94.85L419.85 95.35C428.717 96.5833 438.117 99.1 448.05 102.9C456.083 106.033 468.117 110.8 484.15 117.2C497.583 122.5 510.9 126.067 524.1 127.9C534.267 129.333 544.967 129.867 556.2 129.5H559.25C558.583 130.8 557.767 132.233 556.8 133.8C555.633 135.567 554.767 136.883 554.2 137.75Z" fill="white"/>
        <path d="M193 96.3L194.9 62.8C192.5 61.7333 191.1 61.1167 190.7 60.95C182.867 57.85 173.867 56.2667 163.7 56.2C156.933 56.1667 147.867 57 136.5 58.7C118.267 61.4333 106.25 63.15 100.45 63.85C86.15 65.5833 70.6667 64.8333 54 61.6L50.15 60.85C50.9834 61.9167 52.0334 62.9333 53.3 63.9C54.1 64.5 55.3 65.2833 56.9 66.25C64.6334 70.95 74.2834 74.6167 85.85 77.25C91.65 78.5833 98.1834 79.6333 105.45 80.4C110.217 80.9333 116.833 81.4667 125.3 82C132.933 82.4667 138.667 82.8667 142.5 83.2C148.867 83.7667 154.583 84.5 159.65 85.4C172.25 87.5333 182.9 91 191.6 95.8C191.9 95.9667 192.367 96.1333 193 96.3Z" fill="white"/>
        <path d="M191.55 109.6C191.917 109.7 192.783 109.817 194.15 109.95C193.983 108.317 193.85 107.117 193.75 106.35C193.617 105.017 193.55 103.9 193.55 103C193.55 101.367 192.783 100.2 191.25 99.5C185.517 96.6667 181.167 94.6833 178.2 93.55C172.8 91.55 166.85 89.95 160.35 88.75C155.15 87.7833 149.05 87 142.05 86.4C126.95 85.3667 115.633 84.5667 108.1 84C95.7667 83.0667 84.95 81.1167 75.65 78.15C64.95 74.85 55.8 70.0667 48.2 63.8L46.9 62.95C58.2 93.2833 76.3667 118.733 101.4 139.3C102.767 137.667 103.783 136.517 104.45 135.85C107.083 133.05 109.05 130.95 110.35 129.55C112.717 127.05 114.783 125.05 116.55 123.55C128.75 112.95 142.467 107.317 157.7 106.65C168.4 106.183 179.683 107.167 191.55 109.6Z" fill="white"/>
        <path d="M125.9 273.65C124.7 273.283 122.267 272.683 118.6 271.85C103.767 268.35 93.2166 265.817 86.95 264.25C85.7166 263.983 84.65 264.25 83.75 265.05C69.05 278.75 57.8666 292.75 50.2 307.05C49.0333 309.217 48.05 311.483 47.25 313.85C46.25 316.783 46.2833 319.483 47.35 321.95C68.55 297.883 94.7333 281.783 125.9 273.65Z" fill="white"/>
        <path d="M158.85 277.6C157.317 277.267 155.733 277.017 154.1 276.85L139.55 275.6C137.15 275.467 135.567 275.467 134.8 275.6C131.4 276.233 127.667 277.1 123.6 278.2C98.9 285.1 77.2667 297.45 58.7 315.25C58.2667 315.65 55.1667 318.883 49.4 324.95C51.1 326.65 53.4167 327.883 56.35 328.65C67.5167 331.483 77.6834 333.083 86.85 333.45C95.45 333.85 104.133 333.417 112.9 332.15C114.1 331.983 115.05 331.65 115.75 331.15C116.55 330.65 117.233 329.867 117.8 328.8C125.867 313.533 137.683 301.5 153.25 292.7C161.317 288.167 170.317 284.833 180.25 282.7L158.85 277.6Z" fill="white"/>
        <path d="M194.75 115.7C194.983 115 194.917 114.483 194.55 114.15C194.35 113.983 193.883 113.817 193.15 113.65C182.883 111.317 172.5 110.217 162 110.35C157.4 110.35 153.5 110.6 150.3 111.1C142.533 112.3 134.483 115.483 126.15 120.65C120.45 124.25 114.333 129.833 107.8 137.4L96.2999 150.6C84.8666 163.533 70.9 171.633 54.4 174.9L52.25 175.3C52.0833 175.333 51.3166 175.533 49.95 175.9C55.0833 177.333 60.6833 178.333 66.75 178.9C75.15 179.767 83.9833 179.483 93.25 178.05C94.3833 177.883 95.3 177.55 96 177.05C96.7666 176.55 97.4333 175.8 98 174.8C106.733 159.9 117.317 147.5 129.75 137.6C149.45 121.933 170.817 114.65 193.85 115.75C194.05 115.783 194.35 115.767 194.75 115.7Z" fill="white"/>
        <path d="M47.8 179.45C57.4 189.083 68.8667 197.683 82.2001 205.25L93.9 181.6C78.2334 183.9 62.8667 183.183 47.8 179.45Z" fill="white"/>
        <path d="M228.3 162.3C227.833 161.367 227.133 160.833 226.2 160.7C220.033 159.733 213.9 159.683 207.8 160.55C200.733 161.55 193.15 163.733 185.05 167.1C174.817 171.3 163.367 177 150.7 184.2C126.433 198 105.317 213.683 87.35 231.25L59.45 257.95C59.2834 258.117 59.0167 258.483 58.65 259.05L63.45 258.65C71.5167 258.217 79.7 258.95 88 260.85L120.1 268.5C133.433 271.667 146.667 273.3 159.8 273.4C170.933 273.433 182.3 272.483 193.9 270.55C194.033 270.517 195.583 270.2 198.55 269.6V266.6C198.717 263.667 198.85 261.467 198.95 260C199.15 257.433 199.367 255.25 199.6 253.45C201.6 238.417 207.267 224.783 216.6 212.55C225.033 201.517 235.283 193.567 247.35 188.7C247.95 188.467 250.117 187.7 253.85 186.4C253.15 186.033 252.75 185.85 252.65 185.85C243.817 183.783 236.95 178.367 232.05 169.6C231.15 168 229.9 165.567 228.3 162.3Z" fill="white"/>
        <path d="M227.9 144C230.367 144.067 234.483 143.833 240.25 143.3C240.15 142.867 240.083 142.633 240.05 142.6C239.983 142.5 239.733 142.183 239.3 141.65C234.767 136.35 229.467 131.883 223.4 128.25C209.633 120.15 194.05 117.45 176.65 120.15C160.55 122.65 145.633 129.383 131.9 140.35C119.933 149.95 109.2 162.65 99.7 178.45C97.1667 182.717 94.4333 187.85 91.5 193.85C89.8 197.35 87.3 202.633 84 209.7C79.0667 220.1 75.3833 227.583 72.95 232.15C68.55 240.383 64.0667 247.467 59.5 253.4L75.65 238.05C80.65 233.183 84.4167 229.55 86.95 227.15C91.35 222.917 95.1667 219.35 98.4 216.45C111.8 204.583 127.917 193.217 146.75 182.35C161.917 173.65 175 167.117 186 162.75C199.833 157.217 212.717 155.167 224.65 156.6C224.683 156.6 224.9 156.517 225.3 156.35C222.733 150.65 219.517 145.767 215.65 141.7C219.217 143.133 223.3 143.9 227.9 144Z" fill="white"/>
        <path d="M477.7 373.1L476.65 371.35L425.45 386.15L425.35 386.8C425.483 388.8 425.667 391.8 425.9 395.8C426.1 399.3 426.217 402.283 426.25 404.75C426.417 416.083 425.283 426.55 422.85 436.15C421.517 441.217 419.717 445.1 417.45 447.8C414.883 450.933 411.667 452.383 407.8 452.15C405.067 451.983 401.867 451.033 398.2 449.3C377.733 439.5 360.85 426.1 347.55 409.1C347.35 408.833 346.833 408.217 346 407.25C342.1 414.55 337.983 420.45 333.65 424.95L332 423.95C323.967 418.85 317 412.683 311.1 405.45C310 404.15 308.583 403.517 306.85 403.55L270.6 403.75C270.333 403.75 269.733 403.783 268.8 403.85L265.1 415.15L263.55 413C261.15 409.467 259.4 406.783 258.3 404.95C257.567 403.75 256.467 403.133 255 403.1C246.833 402.633 239.183 402.067 232.05 401.4C231.05 401.333 230.2 401.4 229.5 401.6C228.8 401.833 228.1 402.283 227.4 402.95C226.667 403.65 223.65 406.3 218.35 410.9L216.85 409.6L208 399.55C207.667 399.117 207.417 398.8 207.25 398.6C206.917 398.267 206.6 398.05 206.3 397.95C205.967 397.85 204.617 397.617 202.25 397.25C199.917 400.583 198.317 402.8 197.45 403.9C187.383 417.233 174.767 428.667 159.6 438.2C155.433 440.9 151.8 442.717 148.7 443.65C143.767 445.117 139.683 444.033 136.45 440.4C134.517 438.2 133.017 435.883 131.95 433.45C130.417 430.05 129.133 426.35 128.1 422.35C124.8 409.75 123.283 395.967 123.55 381V378.6L99.15 371.15C95.05 378.117 91.7667 385.667 89.3 393.8C84.7334 408.967 83.1667 425.417 84.6 443.15C85.6667 456.517 88.4167 470.533 92.85 485.2C93.45 487.167 94.6334 488.617 96.4 489.55C101.867 492.35 108.3 494.75 115.7 496.75C148.733 505.683 179.2 512.5 207.1 517.2C220.067 519.367 232.05 520.867 243.05 521.7C251.15 522.3 259.917 522.817 269.35 523.25C282.617 523.917 297.65 523.8 314.45 522.9C327.183 522.2 340.083 521.017 353.15 519.35C366.55 517.617 378.85 515.583 390.05 513.25C396.383 511.917 405.883 509.767 418.55 506.8C429.85 504.333 437.65 502.583 441.95 501.55C450.65 499.483 458.35 497.383 465.05 495.25C471.117 493.317 476.267 491.167 480.5 488.8C481.533 488.267 482.217 487.45 482.55 486.35C489.35 464.317 492.333 443.683 491.5 424.45C490.7 405.383 486.1 388.267 477.7 373.1Z" fill="white"/>
        <path d="M102.9 368.6L123.55 374.9L125.35 359.7C117.317 360.967 109.817 363.75 102.85 368.05L102.9 368.6Z" fill="white"/>
        <path d="M467.45 513C467.85 507.6 468.15 503.533 468.35 500.8V498L465.6 498.85C461.633 500.15 458.65 501.05 456.65 501.55C442.05 505.083 431.083 507.683 423.75 509.35C408.683 512.85 396.367 515.583 386.8 517.55C372.733 520.483 358.667 522.617 344.6 523.95C333.733 525.017 322.017 525.9 309.45 526.6C288.483 527.733 267.3 527.317 245.9 525.35C232.633 524.083 221.05 522.683 211.15 521.15C198.383 519.217 185.333 516.883 172 514.15C162.3 512.15 151.533 509.7 139.7 506.8C131.767 504.867 121 502.117 107.4 498.55V500.95C107.7 504.283 108.1 509.267 108.6 515.9C109.1 521.767 109.583 526.75 110.05 530.85C111.817 546.183 114.717 562.133 118.75 578.7C127.05 612.733 139.333 645.333 155.6 676.5C156.167 677.6 157 678.533 158.1 679.3C166.767 685.267 177.133 690.167 189.2 694C205.1 699.033 223.55 702.383 244.55 704.05C255.417 704.95 268.6 705.433 284.1 705.5C296.433 705.567 307.233 705.4 316.5 705C328.1 704.467 338.85 703.533 348.75 702.2C363.65 700.167 376.883 697.217 388.45 693.35C399.683 689.617 409.45 684.9 417.75 679.2C418.817 678.433 419.6 677.567 420.1 676.6C437.233 643.833 449.967 609.267 458.3 572.9C461.933 557 464.617 541.1 466.35 525.2C466.683 521.9 467.05 517.833 467.45 513Z" fill="white"/>
        <path d="M199.25 284.65C198.283 284.55 197.767 284.5 197.7 284.5C195.233 284.7 193.417 284.883 192.25 285.05C188.85 285.483 186.3 285.817 184.6 286.05C181.633 286.45 179.117 286.867 177.05 287.3C163.45 290.267 151.15 296.583 140.15 306.25C129.383 315.717 121.5 327.017 116.5 340.15C116.267 340.817 115.6 342.817 114.5 346.15C119.033 349.117 124.483 351.533 130.85 353.4V354.05C129.55 357.617 128.6 361.583 128 365.95C127.567 369.35 127.3 373.4 127.2 378.1C127 385.433 127.267 393.017 128 400.85C128.967 410.983 130.933 420.6 133.9 429.7C134.4 431.2 135.55 433.467 137.35 436.5C138.083 437.833 139.483 438.95 141.55 439.85C139.95 413.417 144.683 388.417 155.75 364.85C166.783 341.45 182.817 321.9 203.85 306.2L199.25 284.65Z" fill="white"/>
        <path d="M240.05 381.3C240.45 380.6 240.65 379.983 240.65 379.45C240.617 378.95 240.383 378.35 239.95 377.65C234.95 370.05 231 363.85 228.1 359.05C218.1 342.683 210.633 326.817 205.7 311.45L205.1 309.9C196.167 315.933 187.45 324.183 178.95 334.65C169.617 346.15 162.2 358.4 156.7 371.4C151.733 383.167 148.267 396.067 146.3 410.1C144.6 422.533 144.383 432.667 145.65 440.5C148.083 440.367 150.617 439.483 153.25 437.85C159.183 434.15 163.4 431.4 165.9 429.6C181.133 418.733 193.617 405.1 203.35 388.7C203.517 388.433 203.917 387.883 204.55 387.05C208.583 394.683 213.2 401.033 218.4 406.1L219.95 404.9C227.917 398.367 234.617 390.5 240.05 381.3Z" fill="white"/>
        <path d="M316.2 56.4C311.033 54.2667 305.017 52.4 298.15 50.8C292.983 49.6333 287 48.6 280.2 47.7C277.9 47.4 271.867 46.7 262.1 45.6C248.233 44.0667 237.883 42.5833 231.05 41.15C218.55 38.55 208.017 34.8833 199.45 30.15C198.95 29.9833 198.567 29.85 198.3 29.75L197.95 30.15C198.183 30.5167 199.2 32.1833 201 35.15C202.233 37.15 203.3 38.7833 204.2 40.05C210.3 48.85 218.8 57.4833 229.7 65.95C233.3 68.7167 238.283 72.45 244.65 77.15C251.883 82.5167 256.883 86.25 259.65 88.35C264.817 92.25 268.983 95.6167 272.15 98.45C276.55 102.317 280.267 106.167 283.3 110C288.167 116.067 293.467 120.933 299.2 124.6C307.067 129.667 311.883 136.533 313.65 145.2L314.95 144.05C318.85 140.15 323.633 137.55 329.3 136.25C330.067 136.083 332.517 135.7 336.65 135.1C337.817 134.933 338.683 134.467 339.25 133.7C343.883 127.633 350.15 121.25 358.05 114.55C359.15 113.617 359.583 112.45 359.35 111.05C356.55 91.95 347.667 76.7833 332.7 65.55C327.867 61.95 322.367 58.9 316.2 56.4Z" fill="white"/>
        <path d="M279.6 134C280.433 130.1 281.033 127.167 281.4 125.2C282 121.8 282.35 118.817 282.45 116.25C282.517 114.883 282.15 113.8 281.35 113C277.083 108.4 273.817 105.017 271.55 102.85C268.183 99.6167 264.117 96.1333 259.35 92.4C257.55 91 253.267 87.7833 246.5 82.75C235.767 74.8167 227.8 68.7833 222.6 64.65C211.967 56.1167 203.783 47.1 198.05 37.6C198.017 37.5333 197.767 37.3 197.3 36.9V37.85C198.133 43.15 198.567 48.8833 198.6 55.05C198.633 60.05 198.4 65.8 197.9 72.3C197.3 79.7 196.95 87.1167 196.85 94.55C196.75 101.617 197.433 108.833 198.9 116.2L202.4 116.8C219.533 119.967 233.383 128.3 243.95 141.8C244.583 142.633 245.467 143.017 246.6 142.95C250.133 142.883 252.533 142.9 253.8 143C265.067 143.867 272.733 149.35 276.8 159.45L277.45 160.8L280.3 158.6V157.95L279.7 156.4C278.1 152.433 277.533 148.267 278 143.9C278.267 141.333 278.8 138.033 279.6 134Z" fill="white"/>
        <path d="M299.45 195.95C297.45 194.817 295.983 194.033 295.05 193.6C275.983 185.067 257.533 186.017 239.7 196.45C224.733 205.283 213.95 218.833 207.35 237.1C202.483 250.5 200.917 265.4 202.65 281.8C203.917 293.833 206.883 305.983 211.55 318.25C217.017 332.55 224.233 346.683 233.2 360.65C236.967 366.517 241.7 373.733 247.4 382.3C250.6 387.1 255.4 394.283 261.8 403.85L262.65 404.85C263.217 401.117 263.533 397.017 263.6 392.55C263.7 385.65 263.333 378.083 262.5 369.85C261.867 364.017 260.833 356.483 259.4 347.25C258.1 339.05 257.133 332.9 256.5 328.8C255.333 321.433 254.4 315.267 253.7 310.3C251.8 296.433 251.333 283.367 252.3 271.1C253.267 258.967 255.8 248.117 259.9 238.55C267.9 219.75 280.55 205.85 297.85 196.85L299.45 195.95Z" fill="white"/>
        <path d="M264.25 168.4C258.517 161.1 250.883 156.317 241.35 154.05C235.383 152.517 230.9 151.367 227.9 150.6L226.05 150.15C226.217 150.45 227.967 154.017 231.3 160.85C233.333 165.05 235.25 168.417 237.05 170.95C239.783 174.783 242.867 177.65 246.3 179.55C249.7 181.417 253.483 182.633 257.65 183.2C261.117 183.667 265.167 183.7 269.8 183.3C269.6 177.833 267.75 172.867 264.25 168.4Z" fill="white"/>
        <path d="M232.8 397.9C242.433 398.833 249.7 399.367 254.6 399.5L243.5 383.1L232.8 397.9Z" fill="white"/>
        <path d="M271 172.55C272.5 169.183 273.567 166.683 274.2 165.05C274.467 164.317 274.5 163.55 274.3 162.75C273.4 159.417 271.733 156.45 269.3 153.85C264.733 148.983 259.117 146.5 252.45 146.4C249.917 146.333 246.8 146.4 243.1 146.6C238.967 146.833 235.85 146.983 233.75 147.05L230.4 147.35C230.9 147.817 231.5 148.133 232.2 148.3L242.2 150.65C250.7 152.65 257.9 156.6 263.8 162.5C266.667 165.367 269.067 168.717 271 172.55Z" fill="white"/>
        <path d="M372.9 222.2C366.867 206.9 355.85 198.067 339.85 195.7C337.45 195.333 334.667 195.067 331.5 194.9C331.233 194.9 328.433 194.8 323.1 194.6C315.967 194.367 308.9 195.8 301.9 198.9C290.533 203.933 280.633 212.167 272.2 223.6C263.6 235.233 258.267 249.6 256.2 266.7C254.767 279.033 255.017 292.767 256.95 307.9C257.683 313.667 258.683 320.617 259.95 328.75C260.683 333.383 261.783 340.333 263.25 349.6C265.483 364.167 266.717 376.333 266.95 386.1V397.75L267.5 397.85L268.1 396.6C270.9 390.533 274.6 384.267 279.2 377.8C285.2 369.4 292.233 361.35 300.3 353.65C304.433 349.683 310.033 344.417 317.1 337.85C325.467 330.05 331.067 324.8 333.9 322.1C343.667 312.933 351.817 303.833 358.35 294.8C366.35 283.7 371.767 272.55 374.6 261.35C378.1 247.15 377.533 234.1 372.9 222.2Z" fill="white"/>
        <path d="M294.65 153C294.117 151.467 293.25 149.633 292.05 147.5L289.1 142.2C288.433 140.933 286.65 137.2 283.75 131C282.883 135.133 282.417 137.433 282.35 137.9C281.483 143.067 281.267 147.2 281.7 150.3C282.1 153.2 282.8 155.35 283.8 156.75L294.65 153Z" fill="white"/>
        <path d="M294 168.15C294.2 164.483 292.483 161.85 288.85 160.25C287.283 159.55 285.767 159.567 284.3 160.3C278.433 163.4 275.183 168.567 274.55 175.8C274.217 179.033 274.617 181.983 275.75 184.65L281 185.3C280.8 176.4 285.133 170.683 294 168.15Z" fill="white"/>
        <path d="M291.7 367.7C282.033 378.9 274.967 389.7 270.5 400.1C273.467 400.433 279.917 400.55 289.85 400.45C299.717 400.35 305.167 400.133 306.2 399.8C304.3 396.433 302.883 393.9 301.95 392.2C300.25 389.167 298.917 386.583 297.95 384.45C296.983 382.25 295.9 379.517 294.7 376.25C293.4 372.483 292.4 369.633 291.7 367.7Z" fill="white"/>
        <path d="M362.45 43.55C357.55 43.9167 352.233 43.9833 346.5 43.75C342.033 43.55 336.733 43.1333 330.6 42.5C323.333 41.7 317.9 41.1 314.3 40.7C307.8 40 302.35 39.4667 297.95 39.1C287.65 38.2333 278.083 38.6167 269.25 40.25L263.25 41.6L263.3 42.05C276.4 43.6833 283.217 44.5333 283.75 44.6C293.717 45.9667 302.383 47.8167 309.75 50.15C322.417 54.25 332.8 60.0667 340.9 67.6C340.933 67.6333 341.2 67.8167 341.7 68.15C350.367 64.2167 357.75 60.2 363.85 56.1C369.917 52.0333 375.083 47.65 379.35 42.95C380.383 41.8167 381.05 40.8833 381.35 40.15L378.5 40.9C373.667 42.2333 368.317 43.1167 362.45 43.55Z" fill="white"/>
        <path d="M293.1 124.6C288.333 121.367 285.933 119.733 285.9 119.7C286.333 123.333 286.617 125.533 286.75 126.3C287.15 128.8 287.95 131.467 289.15 134.3C289.917 136.067 291.167 138.567 292.9 141.8C294.467 144.633 296.317 148.35 298.45 152.95C298.85 153.783 299.533 154.5 300.5 155.1C301.067 155.4 301.917 155.85 303.05 156.45C303.15 156.517 303.383 156.5 303.75 156.4L309.35 155.2C310.317 152.533 310.6 149.767 310.2 146.9C309.3 140 305.833 134.167 299.8 129.4C298.067 128.067 295.833 126.467 293.1 124.6Z" fill="white"/>
        <path d="M307.45 186.85C308.55 184.283 308.6 181.667 307.6 179C306.567 176.233 304.683 174.167 301.95 172.8C299.183 171.433 296.383 171.167 293.55 172C290.617 172.867 288.3 174.7 286.6 177.5C284.933 180.3 284.417 183.133 285.05 186L285.45 186.25C290.817 187.75 295.55 189.65 299.65 191.95C300.35 192.283 301.1 192.3 301.9 192C304.467 191.133 306.317 189.417 307.45 186.85Z" fill="white"/>
        <path d="M319.15 164.8C318.217 161.467 316.083 159.583 312.75 159.15C309.95 158.817 306.667 159.3 302.9 160.6C300.167 161.5 298.2 162.45 297 163.45L297.8 168C302.133 168.467 305.567 170.117 308.1 172.95L319.45 171.3C319.85 168.9 319.75 166.733 319.15 164.8Z" fill="white"/>
        <path d="M337.9 323L336.5 324.2C325.233 334.633 319.083 340.35 318.05 341.35C313.217 345.95 306.05 352.917 296.55 362.25C295.983 362.817 295.617 363.383 295.45 363.95C295.25 364.517 295.25 365.217 295.45 366.05C298.217 378.45 303.517 389.8 311.35 400.1C317.417 408.167 324.617 414.9 332.95 420.3C337.683 415 341.783 408.267 345.25 400.1L346.9 402.25C352.167 409.45 358.017 416.1 364.45 422.2C373.783 431 384.95 438.667 397.95 445.2C400.35 446.367 402.567 447.283 404.6 447.95C405.4 448.25 406.067 448.433 406.6 448.5C407.367 448.6 408.067 448.5 408.7 448.2C408.533 423.7 402.333 400.283 390.1 377.95C377.3 354.617 359.9 336.3 337.9 323Z" fill="white"/>
        <path d="M327.95 191.1C329.083 191.1 329.917 190.65 330.45 189.75C331.75 187.65 332.317 185.283 332.15 182.65C332.017 180.917 331.6 179.583 330.9 178.65C330.2 177.717 329.033 177.033 327.4 176.6C321.933 175.133 317.2 174.817 313.2 175.65C312.033 175.983 311.117 176.233 310.45 176.4C312.95 182.4 312.033 187.867 307.7 192.8C308.633 192.633 309.933 192.367 311.6 192C313.067 191.7 314.3 191.517 315.3 191.45C317.533 191.283 321.75 191.167 327.95 191.1Z" fill="white"/>
        <path d="M335.6 151.65C341.467 148.15 346 144.05 349.2 139.35L350.05 137.8C346.683 137.967 344.167 138.1 342.5 138.2C339.567 138.367 337.1 138.55 335.1 138.75C329.233 139.283 324.217 141.183 320.05 144.45C317.95 146.05 316.4 147.567 315.4 149C314.067 150.9 313.383 153.017 313.35 155.35C313.817 155.517 314.483 155.717 315.35 155.95C316.083 156.183 316.683 156.417 317.15 156.65C317.583 156.883 318.133 157.25 318.8 157.75C319.567 158.35 320.117 158.75 320.45 158.95C321.083 159.383 321.533 159.633 321.8 159.7C322.333 159.833 322.883 159.717 323.45 159.35C326.383 157.383 330.433 154.817 335.6 151.65Z" fill="white"/>
        <path d="M327.2 160.9C327.133 160.933 326.7 161.35 325.9 162.15C329.4 163.05 331.833 164.467 333.2 166.4L340.45 162.25C341.083 161.85 341.5 161.4 341.7 160.9L346.65 148.75L346.1 148.3C344.333 150.033 342.167 151.733 339.6 153.4C338.167 154.333 335.8 155.733 332.5 157.6C331.133 158.367 329.367 159.467 327.2 160.9Z" fill="white"/>
        <path d="M375.55 179.2L380.7 180.95C380.567 180.45 380.283 180.033 379.85 179.7C375.617 176.467 372.933 174.45 371.8 173.65C367.167 170.45 364.033 168.367 362.4 167.4C358 164.8 353.167 163.7 347.9 164.1C343.5 164.5 339.567 166.083 336.1 168.85C335.667 169.183 335.383 169.45 335.25 169.65C334.983 169.983 334.9 170.367 335 170.8L336.3 177.55L338.1 176.9C345.333 174.033 352.95 173.283 360.95 174.65C363.15 175.017 365.617 175.65 368.35 176.55C369.483 176.95 371.883 177.833 375.55 179.2Z" fill="white"/>
        <path d="M377.8 188.1C379.9 186.833 381.483 185.883 382.55 185.25L368.05 180.15C359.517 177.083 351.033 176.7 342.6 179C340.267 179.667 338.567 180.75 337.5 182.25C336.7 183.317 336.133 184.45 335.8 185.65C335.633 186.35 335 188.233 333.9 191.3L335.25 191.5C339.417 192 342.617 192.5 344.85 193C348.35 193.767 351.383 194.85 353.95 196.25C355.517 197.117 357.05 197.55 358.55 197.55C359.917 197.517 361.383 197.1 362.95 196.3C363.817 195.967 364.467 195.683 364.9 195.45L377.8 188.1Z" fill="white"/>
        <path d="M372.95 77.75C374.583 66.2833 376.95 56.6167 380.05 48.75C380.25 48.05 380.4 47.5333 380.5 47.2C375.667 52 369.933 56.4333 363.3 60.5C358.067 63.7 351.583 67.0667 343.85 70.6C354.183 81.8667 360.517 95.1667 362.85 110.5C364.75 109.133 365.717 108.45 365.75 108.45C366.617 107.917 367.217 107.017 367.55 105.75C369.883 95.9167 371.683 86.5833 372.95 77.75Z" fill="white"/>
        <path d="M547.6 133.7L547.55 133.2C545.95 133.133 544.767 133.067 544 133C536.3 132.533 531.2 132.183 528.7 131.95C515.067 130.683 501.633 127.55 488.4 122.55C483.6 120.75 477.717 118.467 470.75 115.7C462.95 112.567 457.083 110.217 453.15 108.65C445.783 105.75 439.25 103.5 433.55 101.9C426.417 99.9 419.633 98.65 413.2 98.15C400 97.05 388.1 99.4 377.5 105.2C365.8 111.633 354.617 121.083 343.95 133.55C343.783 133.717 343.567 134.1 343.3 134.7C346 134.667 348.883 134.1 351.95 133C352.883 132.633 355.5 131.483 359.8 129.55C359.6 130.05 359.3 130.55 358.9 131.05C355.9 134.717 353.467 139.183 351.6 144.45L346.15 160.05L346.35 160.55C347.783 160.383 348.633 160.317 348.9 160.35C349.667 160.417 350.35 160.3 350.95 160C351.45 159.7 351.967 159.217 352.5 158.55C359.633 149.517 368.867 142.733 380.2 138.2C390.533 134.067 402.85 132.083 417.15 132.25C423.283 132.283 430.017 132.733 437.35 133.6C442.517 134.233 449.2 135.217 457.4 136.55C467.667 138.217 474.5 139.283 477.9 139.75C485.567 140.817 492.433 141.5 498.5 141.8C512.133 142.4 524.2 141.333 534.7 138.6C539.833 137.2 544.133 135.567 547.6 133.7Z" fill="white"/>
        <path d="M431.5 351.9C429.267 346.067 426.667 340.967 423.7 336.6C408.733 314.533 388.25 301.717 362.25 298.15C360.95 298.017 359.95 298.433 359.25 299.4C354.983 305.067 349.483 311.3 342.75 318.1C342.65 318.2 342.183 318.75 341.35 319.75C386.517 351.717 410.267 394.267 412.6 447.4C414.367 446.467 415.583 445.333 416.25 444C417.017 442.4 417.567 441.2 417.9 440.4C418.5 439 418.933 437.767 419.2 436.7C420.667 430.633 421.7 423.917 422.3 416.55C423 407.683 422.8 397.7 421.7 386.6C421.2 381.567 420.417 376.533 419.35 371.5C419.017 370 418.5 368.15 417.8 365.95C416.933 363.517 416.3 361.667 415.9 360.4C422.1 358.067 427.3 355.233 431.5 351.9Z" fill="white"/>
        <path d="M517.55 174.6C530.917 162.6 541.817 149.817 550.25 136.25L548.15 137.2C544.517 138.767 541.783 139.883 539.95 140.55C529.583 144.183 517.867 145.95 504.8 145.85C498.7 145.75 491.933 145.25 484.5 144.35C479.8 143.75 473.067 142.733 464.3 141.3C453.867 139.6 447.4 138.567 444.9 138.2C437.567 137.133 431.05 136.433 425.35 136.1C413.317 135.333 402.433 136.033 392.7 138.2C378.867 141.333 367.533 147.517 358.7 156.75L355.4 160.5C356 161.033 356.633 161.233 357.3 161.1C357.433 161.067 357.95 160.817 358.85 160.35C376.383 151.15 394.6 148.733 413.5 153.1C432.267 157.4 447.567 166.95 459.4 181.75C461.6 184.483 463.817 187.717 466.05 191.45C467.45 193.817 469.35 197.233 471.75 201.7L473.2 204.35C488.8 197.017 503.583 187.1 517.55 174.6Z" fill="white"/>
        <path d="M480.95 225.95C477.817 221.317 474.133 214.883 469.9 206.65C465.733 198.45 462.117 192.15 459.05 187.75C450.083 174.983 438.233 165.783 423.5 160.15C408.733 154.517 393.767 153.467 378.6 157C372.867 158.333 367.383 160.35 362.15 163.05C366.85 166.183 369.783 168.167 370.95 169C373.35 170.733 376.917 173.417 381.65 177.05C386.15 180.25 390.45 182.317 394.55 183.25L396.45 183.7L388.75 186.05C389.683 186.617 390.233 186.933 390.4 187C399.067 190.633 407.133 195.9 414.6 202.8C417.067 205.1 420.567 208.5 425.1 213C429.8 217.633 433.3 221.017 435.6 223.15C441.433 228.617 446.3 232.767 450.2 235.6C469.6 249.567 491.95 256.5 517.25 256.4L519.25 256.1L516.55 254.95C501.45 248.417 489.583 238.75 480.95 225.95Z" fill="white"/>
        <path d="M514 264.85L520.75 260.95L520.65 260.55C520.05 260.45 519.617 260.4 519.35 260.4C511.617 260.633 503.733 260.033 495.7 258.6C473.667 254.667 455.033 245.917 439.8 232.35C436.333 229.25 430.167 223.333 421.3 214.6C414.3 207.733 408.617 202.7 404.25 199.5C398.15 195.067 391.85 191.633 385.35 189.2C384.117 188.733 383 188.833 382 189.5C380.967 190.167 378.983 191.35 376.05 193.05L364.95 199.25L361.95 200.6C362.717 201.4 363.867 202.567 365.4 204.1C366.733 205.467 367.8 206.65 368.6 207.65C376.267 217.383 380.2 229.15 380.4 242.95C380.6 253.517 378.317 264.383 373.55 275.55L372.45 278.15L373.75 278.7C388.15 283.6 403.017 286.483 418.35 287.35C429.983 287.95 441.683 287.283 453.45 285.35C474.917 281.817 495.1 274.983 514 264.85Z" fill="white"/>
        <path d="M380.8 285.35L380.9 285L370.65 281.8L367.05 288.2L380.8 285.35Z" fill="white"/>
        <path d="M448.65 369.45C449.083 365.75 449.133 361.817 448.8 357.65C448.5 354.317 447.917 350.417 447.05 345.95C448.017 346.183 448.617 346.35 448.85 346.45C457.983 349.517 467.15 351.683 476.35 352.95C489.45 354.717 503.85 354.283 519.55 351.65C522.65 351.083 525.083 350.017 526.85 348.45C524.917 346.05 523.483 344.267 522.55 343.1C520.85 341.033 519.4 339.317 518.2 337.95C498.7 316.017 474.783 300.883 446.45 292.55C443.883 291.817 441.783 291.333 440.15 291.1C437.85 290.767 435.7 290.767 433.7 291.1C433.533 291.133 432.983 291.15 432.05 291.15C419.35 291.483 406.3 290.383 392.9 287.85C392.267 287.717 391.25 287.683 389.85 287.75C387.45 287.95 385.633 288.183 384.4 288.45C378.567 289.617 372.233 290.95 365.4 292.45C364.067 292.683 363.333 293.433 363.2 294.7C379.8 296.9 394.617 303.217 407.65 313.65C420.95 324.35 430.3 337.483 435.7 353.05C431.6 356.583 426.533 359.7 420.5 362.4C420.833 364.333 421.167 365.483 421.5 365.85C421.867 366.283 422.85 366.65 424.45 366.95C430.283 368.05 435.4 368.85 439.8 369.35C441 369.483 442.467 369.55 444.2 369.55C445.167 369.517 446.65 369.483 448.65 369.45Z" fill="white"/>
        <path d="M380.5 57.7C384.767 54.6 389.717 48.9167 395.35 40.65C400.95 32.4167 404.267 25.9333 405.3 21.2C399.333 25.6 392.4 29.4167 384.5 32.65C378.667 35.05 371.233 37.5167 362.2 40.05C372.1 39.5833 381.617 37.1833 390.75 32.85C385.783 42.8167 382.367 51.1 380.5 57.7Z" fill="white"/>
        <path d="M405.9 29.5C403.367 34.7 400.283 39.7333 396.65 44.6C392.45 50.2333 387.05 56.2333 380.45 62.6C379.217 63.7333 378.433 65.1667 378.1 66.9L371.55 102.7C371.517 102.867 371.5 103.45 371.5 104.45L373.65 103.25C378.183 100.683 382.7 98.6833 387.2 97.25C394.433 95.05 402.583 94.1333 411.65 94.5H414.6L414.55 91.9C414.483 84.1 413.317 74.6667 411.05 63.6C409.783 57.2333 408.983 53.0833 408.65 51.15C407.85 46.4167 407.367 42.2 407.2 38.5C407.133 37.1667 407.117 35.5 407.15 33.5L407.2 28.45L406.55 28.3L405.9 29.5Z" fill="white"/>
        <path d="M424.95 382.25C430.25 380.783 438.183 378.617 448.75 375.75C458.083 373.183 466.017 370.767 472.55 368.5C465.65 365.567 459.05 363.817 452.75 363.25L452 372.8L450.15 373C441.617 373.4 433.283 372.667 425.15 370.8L422.85 370.45L424.95 382.25Z" fill="white"/>
        <path d="M522.75 320.85C516.65 309.25 507.817 297.233 496.25 284.8C495.783 284.3 494.117 282.667 491.25 279.9C486.65 281.3 483.233 282.333 481 283C477.133 284.167 473.817 285.083 471.05 285.75C468.383 286.417 465.017 287.15 460.95 287.95C456.317 288.85 452.783 289.55 450.35 290.05C482.817 300.25 509.033 318.717 529 345.45L529.5 345.05L529.85 344.15C530.75 341.283 530.533 338.233 529.2 335C527 329.633 524.85 324.917 522.75 320.85Z" fill="white"/>
        <path d="M556.7 213.1L556.9 212.65C552.267 209.55 545.267 204.4 535.9 197.2C526.8 190.267 519.733 185.133 514.7 181.8C502.833 191.733 489.567 200.35 474.9 207.65C476.233 210.25 477.117 211.933 477.55 212.7C481.917 220.6 485.967 226.717 489.7 231.05C490.167 231.583 490.617 231.933 491.05 232.1C491.517 232.233 492.083 232.167 492.75 231.9C493.717 231.567 495.167 231.1 497.1 230.5C499.033 229.9 500.467 229.417 501.4 229.05C508.2 226.55 518.383 222.783 531.95 217.75C539.383 215.017 546.867 213.533 554.4 213.3L556.7 213.1Z" fill="white"/>
        <path d="M527.7 170.15L517.35 179.7C521.65 182.667 528.05 187.383 536.55 193.85C544.85 200.183 551.217 204.867 555.65 207.9C550.017 202.067 545.067 196.017 540.8 189.75C539 187.15 534.633 180.617 527.7 170.15Z" fill="white"/>
        <path d="M323.2 171.8L331.55 174.15C331.683 171.517 330.917 169.383 329.25 167.75C327.617 166.15 325.6 165.567 323.2 166V171.8Z" fill="white"/>
        <path d="M298.75 158.25C297.55 157.65 296.45 157.3 295.45 157.2C294.417 157.1 293.333 157.283 292.2 157.75L295.05 160.2L298.75 158.25Z" fill="white"/>
        <path d="M186.2 279.7C193.267 280.633 197.533 280.867 199 280.4L198.45 273.65L172.2 276.9C174.467 277.833 179.133 278.767 186.2 279.7Z" fill="white"/>
        <path d="M559.25 129.5H556.2C544.967 129.867 534.267 129.333 524.1 127.9C510.9 126.067 497.583 122.5 484.15 117.2C468.117 110.8 456.083 106.033 448.05 102.9C438.117 99.1 428.717 96.5833 419.85 95.35L417.85 94.85V91.45C417.75 89.2833 417.667 87.65 417.6 86.55C417.533 84.5833 417.4 82.95 417.2 81.65C416.333 76.0833 414.9 67.7333 412.9 56.6C411.967 51.5333 411.317 47.4 410.95 44.2C410.383 39.6333 410.15 35.4333 410.25 31.6C410.317 29.4 410.45 26.65 410.65 23.35L411.15 15.1C411.25 14.3333 411.317 13.7667 411.35 13.4C411.417 12.7 411.4 12.1167 411.3 11.65C409.367 13.35 407.917 14.6 406.95 15.4C405.283 16.8333 403.867 18 402.7 18.9C395.933 24.0333 387.283 28.45 376.75 32.15C372.45 33.65 367.517 35.1167 361.95 36.55C358.95 37.35 353.933 38.5667 346.9 40.2C346 40.4 345.05 40.45 344.05 40.35C331.85 39.0833 322.7 38.1667 316.6 37.6C310.867 37.0667 306.567 36.6667 303.7 36.4C298.667 35.9667 294.367 35.6667 290.8 35.5C278.733 34.9 267.7 36.3833 257.7 39.95C255.367 40.7833 252.967 41.05 250.5 40.75C238.5 39.1833 228.55 37.2333 220.65 34.9C209.017 31.4667 199.2 26.5833 191.2 20.25C191.1 20.15 190.7 19.9333 190 19.6C191.8 26.8 193.1 33.35 193.9 39.25C194.867 46.1833 195.25 52.8333 195.05 59.2L191.15 57.65C179.983 53.4167 167.05 52.0333 152.35 53.5C147.617 53.9667 142 54.6833 135.5 55.65C128.033 56.8167 122.417 57.6833 118.65 58.25C112.65 59.1833 107.783 59.8667 104.05 60.3C98.7167 60.9333 93.8334 61.3 89.4 61.4C73.9667 61.8333 58.4667 59.9333 42.9 55.7L40.3 55.15C51.7 89.7167 71.3667 118.6 99.3 141.8C98.4 142.8 97.1167 144.267 95.45 146.2C89.7167 152.667 84.5 157.467 79.8 160.6C67.6667 168.667 54.1667 172.75 39.3 172.85L36.4 172.95C48.6 186.95 63.3334 198.867 80.6 208.7C77.1 216.267 74.2167 222.2 71.95 226.5C68.6167 232.867 65.2667 238.467 61.9 243.3C55.2334 252.8 48.1334 260.2 40.6 265.5L40 266.15C47.8 264.25 54.4167 263.033 59.85 262.5C67.0167 261.733 73.6 261.917 79.6 263.05C79.3334 263.35 78.3167 264.517 76.55 266.55C75.3167 267.983 74.2834 269.133 73.45 270C63.0834 280.6 54.7834 291.517 48.55 302.75C45.8167 307.617 44.1167 312.083 43.45 316.15C42.35 322.717 44.7834 327.4 50.75 330.2C52.35 330.967 54.5167 331.75 57.25 332.55C64.6167 334.583 72.8834 335.983 82.05 336.75C90.45 337.483 98.5 337.417 106.2 336.55L114.2 335.7L110.25 347.7C113.25 349.533 114.983 350.583 115.45 350.85C115.85 351.05 117.633 351.95 120.8 353.55C121.2 353.75 122.067 354.1 123.4 354.6C124.533 355 125.433 355.433 126.1 355.9L123.6 356.4C114.867 357.933 106.683 361.2 99.05 366.2C97.6834 367.1 96.5667 368.317 95.7 369.85C86.6 385.883 81.6 403.867 80.7 423.8C79.8334 442.733 82.5834 463 88.95 484.6C89.85 487.633 90.6167 489.517 91.25 490.25C91.8834 490.983 93.6334 492.05 96.5 493.45C98.0334 494.217 100.367 495.3 103.5 496.7L103.65 498.15C103.917 501.283 104.283 505.983 104.75 512.25C105.15 517.817 105.55 522.517 105.95 526.35C107.417 541.083 110.067 556.833 113.9 573.6C122.3 610.333 135.25 645.4 152.75 678.8C153.383 680.033 154.2 680.983 155.2 681.65C164.567 688.217 176.1 693.633 189.8 697.9C206.133 702.967 225.317 706.283 247.35 707.85C260.083 708.75 274.783 709.15 291.45 709.05C302.65 708.983 312.483 708.733 320.95 708.3C331.517 707.733 341.3 706.817 350.3 705.55C366.1 703.35 380.1 700.1 392.3 695.8C403.167 692 412.55 687.267 420.45 681.6C421.517 680.867 422.3 680 422.8 679C426.167 672.133 428.683 666.967 430.35 663.5C433.283 657.433 435.7 652.217 437.6 647.85C449.367 620.85 458.283 592.117 464.35 561.65C467.05 548.217 468.9 536.133 469.9 525.4C470.867 513.4 471.6 504.4 472.1 498.4L472.3 496.85L483.45 491.2C484.55 490.6 485.3 489.633 485.7 488.3C489.733 475.2 492.483 462.65 493.95 450.65C495.85 435.517 495.65 421.1 493.35 407.4C490.95 393.5 486.35 380.7 479.55 369C478.917 367.867 478 367.033 476.8 366.5C471.067 363.8 465.567 361.9 460.3 360.8L452.6 359.3L451.75 351.2L454.45 352C465.917 355.4 477.483 357.25 489.15 357.55C497.483 357.783 506.1 357.283 515 356.05C519.7 355.35 523.4 354.417 526.1 353.25C530.433 351.383 532.867 348.267 533.4 343.9C533.567 342.333 533.567 340.75 533.4 339.15C533.1 336.583 532.433 333.867 531.4 331C530.633 328.9 529.517 326.333 528.05 323.3C520.483 307.967 510.3 293.9 497.5 281.1L494.65 278.3C510.017 272.033 523.3 264.75 534.5 256.45C518.567 253.017 504.95 245.933 493.65 235.2C494.917 234.7 495.567 234.45 495.6 234.45C506.933 230.25 516.167 226.883 523.3 224.35C531.633 221.417 537.617 219.45 541.25 218.45C549.05 216.317 558.35 215.883 569.15 217.15L574.8 217.85C574.633 217.417 574.367 217.1 574 216.9C566.2 212.7 558.633 206.383 551.3 197.95C547.8 193.983 544.15 189.183 540.35 183.55C538.783 181.283 535.5 176.217 530.5 168.35C530.4 168.05 530.3 167.783 530.2 167.55C533.6 163.917 535.75 161.583 536.65 160.55C539.15 157.717 541.217 155.267 542.85 153.2C545.117 150.333 547.067 147.8 548.7 145.6C550.9 142.6 552.733 139.983 554.2 137.75C554.767 136.883 555.633 135.567 556.8 133.8C557.767 132.233 558.583 130.8 559.25 129.5ZM528.7 131.95C531.2 132.183 536.3 132.533 544 133C544.767 133.067 545.95 133.133 547.55 133.2L547.6 133.7C544.133 135.567 539.833 137.2 534.7 138.6C524.2 141.333 512.133 142.4 498.5 141.8C492.433 141.5 485.567 140.817 477.9 139.75C474.5 139.283 467.667 138.217 457.4 136.55C449.2 135.217 442.517 134.233 437.35 133.6C430.017 132.733 423.283 132.283 417.15 132.25C402.85 132.083 390.533 134.067 380.2 138.2C368.867 142.733 359.633 149.517 352.5 158.55C351.967 159.217 351.45 159.7 350.95 160C350.35 160.3 349.667 160.417 348.9 160.35C348.633 160.317 347.783 160.383 346.35 160.55L346.15 160.05L351.6 144.45C353.467 139.183 355.9 134.717 358.9 131.05C359.3 130.55 359.6 130.05 359.8 129.55C355.5 131.483 352.883 132.633 351.95 133C348.883 134.1 346 134.667 343.3 134.7C343.567 134.1 343.783 133.717 343.95 133.55C354.617 121.083 365.8 111.633 377.5 105.2C388.1 99.4 400 97.05 413.2 98.15C419.633 98.65 426.417 99.9 433.55 101.9C439.25 103.5 445.783 105.75 453.15 108.65C457.083 110.217 462.95 112.567 470.75 115.7C477.717 118.467 483.6 120.75 488.4 122.55C501.633 127.55 515.067 130.683 528.7 131.95ZM548.15 137.2L550.25 136.25C541.817 149.817 530.917 162.6 517.55 174.6C503.583 187.1 488.8 197.017 473.2 204.35L471.75 201.7C469.35 197.233 467.45 193.817 466.05 191.45C463.817 187.717 461.6 184.483 459.4 181.75C447.567 166.95 432.267 157.4 413.5 153.1C394.6 148.733 376.383 151.15 358.85 160.35C357.95 160.817 357.433 161.067 357.3 161.1C356.633 161.233 356 161.033 355.4 160.5L358.7 156.75C367.533 147.517 378.867 141.333 392.7 138.2C402.433 136.033 413.317 135.333 425.35 136.1C431.05 136.433 437.567 137.133 444.9 138.2C447.4 138.567 453.867 139.6 464.3 141.3C473.067 142.733 479.8 143.75 484.5 144.35C491.933 145.25 498.7 145.75 504.8 145.85C517.867 145.95 529.583 144.183 539.95 140.55C541.783 139.883 544.517 138.767 548.15 137.2ZM527.7 170.15C534.633 180.617 539 187.15 540.8 189.75C545.067 196.017 550.017 202.067 555.65 207.9C551.217 204.867 544.85 200.183 536.55 193.85C528.05 187.383 521.65 182.667 517.35 179.7L527.7 170.15ZM514.7 181.8C519.733 185.133 526.8 190.267 535.9 197.2C545.267 204.4 552.267 209.55 556.9 212.65L556.7 213.1L554.4 213.3C546.867 213.533 539.383 215.017 531.95 217.75C518.383 222.783 508.2 226.55 501.4 229.05C500.467 229.417 499.033 229.9 497.1 230.5C495.167 231.1 493.717 231.567 492.75 231.9C492.083 232.167 491.517 232.233 491.05 232.1C490.617 231.933 490.167 231.583 489.7 231.05C485.967 226.717 481.917 220.6 477.55 212.7C477.117 211.933 476.233 210.25 474.9 207.65C489.567 200.35 502.833 191.733 514.7 181.8ZM407.15 33.5C407.117 35.5 407.133 37.1667 407.2 38.5C407.367 42.2 407.85 46.4167 408.65 51.15C408.983 53.0833 409.783 57.2333 411.05 63.6C413.317 74.6667 414.483 84.1 414.55 91.9L414.6 94.5H411.65C402.583 94.1333 394.433 95.05 387.2 97.25C382.7 98.6833 378.183 100.683 373.65 103.25L371.5 104.45C371.5 103.45 371.517 102.867 371.55 102.7L378.1 66.9C378.433 65.1667 379.217 63.7333 380.45 62.6C387.05 56.2333 392.45 50.2333 396.65 44.6C400.283 39.7333 403.367 34.7 405.9 29.5L406.55 28.3L407.2 28.45L407.15 33.5ZM381.35 40.15C381.05 40.8833 380.383 41.8167 379.35 42.95C375.083 47.65 369.917 52.0333 363.85 56.1C357.75 60.2 350.367 64.2167 341.7 68.15C341.2 67.8167 340.933 67.6333 340.9 67.6C332.8 60.0667 322.417 54.25 309.75 50.15C302.383 47.8167 293.717 45.9667 283.75 44.6C283.217 44.5333 276.4 43.6833 263.3 42.05L263.25 41.6L269.25 40.25C278.083 38.6167 287.65 38.2333 297.95 39.1C302.35 39.4667 307.8 40 314.3 40.7C317.9 41.1 323.333 41.7 330.6 42.5C336.733 43.1333 342.033 43.55 346.5 43.75C352.233 43.9833 357.55 43.9167 362.45 43.55C368.317 43.1167 373.667 42.2333 378.5 40.9L381.35 40.15ZM380.5 47.2C380.4 47.5333 380.25 48.05 380.05 48.75C376.95 56.6167 374.583 66.2833 372.95 77.75C371.683 86.5833 369.883 95.9167 367.55 105.75C367.217 107.017 366.617 107.917 365.75 108.45C365.717 108.45 364.75 109.133 362.85 110.5C360.517 95.1667 354.183 81.8667 343.85 70.6C351.583 67.0667 358.067 63.7 363.3 60.5C369.933 56.4333 375.667 52 380.5 47.2ZM390.75 32.85C381.617 37.1833 372.1 39.5833 362.2 40.05C371.233 37.5167 378.667 35.05 384.5 32.65C392.4 29.4167 399.333 25.6 405.3 21.2C404.267 25.9333 400.95 32.4167 395.35 40.65C389.717 48.9167 384.767 54.6 380.5 57.7C382.367 51.1 385.783 42.8167 390.75 32.85ZM359.35 111.05C359.583 112.45 359.15 113.617 358.05 114.55C350.15 121.25 343.883 127.633 339.25 133.7C338.683 134.467 337.817 134.933 336.65 135.1C332.517 135.7 330.067 136.083 329.3 136.25C323.633 137.55 318.85 140.15 314.95 144.05L313.65 145.2C311.883 136.533 307.067 129.667 299.2 124.6C293.467 120.933 288.167 116.067 283.3 110C280.267 106.167 276.55 102.317 272.15 98.45C268.983 95.6167 264.817 92.25 259.65 88.35C256.883 86.25 251.883 82.5167 244.65 77.15C238.283 72.45 233.3 68.7167 229.7 65.95C218.8 57.4833 210.3 48.85 204.2 40.05C203.3 38.7833 202.233 37.15 201 35.15C199.2 32.1833 198.183 30.5167 197.95 30.15L198.3 29.75C198.567 29.85 198.95 29.9833 199.45 30.15C208.017 34.8833 218.55 38.55 231.05 41.15C237.883 42.5833 248.233 44.0667 262.1 45.6C271.867 46.7 277.9 47.4 280.2 47.7C287 48.6 292.983 49.6333 298.15 50.8C305.017 52.4 311.033 54.2667 316.2 56.4C322.367 58.9 327.867 61.95 332.7 65.55C347.667 76.7833 356.55 91.95 359.35 111.05ZM335.1 138.75C337.1 138.55 339.567 138.367 342.5 138.2C344.167 138.1 346.683 137.967 350.05 137.8L349.2 139.35C346 144.05 341.467 148.15 335.6 151.65C330.433 154.817 326.383 157.383 323.45 159.35C322.883 159.717 322.333 159.833 321.8 159.7C321.533 159.633 321.083 159.383 320.45 158.95C320.117 158.75 319.567 158.35 318.8 157.75C318.133 157.25 317.583 156.883 317.15 156.65C316.683 156.417 316.083 156.183 315.35 155.95C314.483 155.717 313.817 155.517 313.35 155.35C313.383 153.017 314.067 150.9 315.4 149C316.4 147.567 317.95 146.05 320.05 144.45C324.217 141.183 329.233 139.283 335.1 138.75ZM347.9 164.1C353.167 163.7 358 164.8 362.4 167.4C364.033 168.367 367.167 170.45 371.8 173.65C372.933 174.45 375.617 176.467 379.85 179.7C380.283 180.033 380.567 180.45 380.7 180.95L375.55 179.2C371.883 177.833 369.483 176.95 368.35 176.55C365.617 175.65 363.15 175.017 360.95 174.65C352.95 173.283 345.333 174.033 338.1 176.9L336.3 177.55L335 170.8C334.9 170.367 334.983 169.983 335.25 169.65C335.383 169.45 335.667 169.183 336.1 168.85C339.567 166.083 343.5 164.5 347.9 164.1ZM325.9 162.15C326.7 161.35 327.133 160.933 327.2 160.9C329.367 159.467 331.133 158.367 332.5 157.6C335.8 155.733 338.167 154.333 339.6 153.4C342.167 151.733 344.333 150.033 346.1 148.3L346.65 148.75L341.7 160.9C341.5 161.4 341.083 161.85 340.45 162.25L333.2 166.4C331.833 164.467 329.4 163.05 325.9 162.15ZM337.5 182.25C338.567 180.75 340.267 179.667 342.6 179C351.033 176.7 359.517 177.083 368.05 180.15L382.55 185.25C381.483 185.883 379.9 186.833 377.8 188.1L364.9 195.45C364.467 195.683 363.817 195.967 362.95 196.3C361.383 197.1 359.917 197.517 358.55 197.55C357.05 197.55 355.517 197.117 353.95 196.25C351.383 194.85 348.35 193.767 344.85 193C342.617 192.5 339.417 192 335.25 191.5L333.9 191.3C335 188.233 335.633 186.35 335.8 185.65C336.133 184.45 336.7 183.317 337.5 182.25ZM327.4 176.6C329.033 177.033 330.2 177.717 330.9 178.65C331.6 179.583 332.017 180.917 332.15 182.65C332.317 185.283 331.75 187.65 330.45 189.75C329.917 190.65 329.083 191.1 327.95 191.1C321.75 191.167 317.533 191.283 315.3 191.45C314.3 191.517 313.067 191.7 311.6 192C309.933 192.367 308.633 192.633 307.7 192.8C312.033 187.867 312.95 182.4 310.45 176.4C311.117 176.233 312.033 175.983 313.2 175.65C317.2 174.817 321.933 175.133 327.4 176.6ZM331.5 194.9C334.667 195.067 337.45 195.333 339.85 195.7C355.85 198.067 366.867 206.9 372.9 222.2C377.533 234.1 378.1 247.15 374.6 261.35C371.767 272.55 366.35 283.7 358.35 294.8C351.817 303.833 343.667 312.933 333.9 322.1C331.067 324.8 325.467 330.05 317.1 337.85C310.033 344.417 304.433 349.683 300.3 353.65C292.233 361.35 285.2 369.4 279.2 377.8C274.6 384.267 270.9 390.533 268.1 396.6L267.5 397.85L266.95 397.75V386.1C266.717 376.333 265.483 364.167 263.25 349.6C261.783 340.333 260.683 333.383 259.95 328.75C258.683 320.617 257.683 313.667 256.95 307.9C255.017 292.767 254.767 279.033 256.2 266.7C258.267 249.6 263.6 235.233 272.2 223.6C280.633 212.167 290.533 203.933 301.9 198.9C308.9 195.8 315.967 194.367 323.1 194.6C328.433 194.8 331.233 194.9 331.5 194.9ZM329.25 167.75C330.917 169.383 331.683 171.517 331.55 174.15L323.2 171.8V166C325.6 165.567 327.617 166.15 329.25 167.75ZM376.05 193.05C378.983 191.35 380.967 190.167 382 189.5C383 188.833 384.117 188.733 385.35 189.2C391.85 191.633 398.15 195.067 404.25 199.5C408.617 202.7 414.3 207.733 421.3 214.6C430.167 223.333 436.333 229.25 439.8 232.35C455.033 245.917 473.667 254.667 495.7 258.6C503.733 260.033 511.617 260.633 519.35 260.4C519.617 260.4 520.05 260.45 520.65 260.55L520.75 260.95L514 264.85C495.1 274.983 474.917 281.817 453.45 285.35C441.683 287.283 429.983 287.95 418.35 287.35C403.017 286.483 388.15 283.6 373.75 278.7L372.45 278.15L373.55 275.55C378.317 264.383 380.6 253.517 380.4 242.95C380.2 229.15 376.267 217.383 368.6 207.65C367.8 206.65 366.733 205.467 365.4 204.1C363.867 202.567 362.717 201.4 361.95 200.6L364.95 199.25L376.05 193.05ZM390.4 187C390.233 186.933 389.683 186.617 388.75 186.05L396.45 183.7L394.55 183.25C390.45 182.317 386.15 180.25 381.65 177.05C376.917 173.417 373.35 170.733 370.95 169C369.783 168.167 366.85 166.183 362.15 163.05C367.383 160.35 372.867 158.333 378.6 157C393.767 153.467 408.733 154.517 423.5 160.15C438.233 165.783 450.083 174.983 459.05 187.75C462.117 192.15 465.733 198.45 469.9 206.65C474.133 214.883 477.817 221.317 480.95 225.95C489.583 238.75 501.45 248.417 516.55 254.95L519.25 256.1L517.25 256.4C491.95 256.5 469.6 249.567 450.2 235.6C446.3 232.767 441.433 228.617 435.6 223.15C433.3 221.017 429.8 217.633 425.1 213C420.567 208.5 417.067 205.1 414.6 202.8C407.133 195.9 399.067 190.633 390.4 187ZM432.05 291.15C432.983 291.15 433.533 291.133 433.7 291.1C435.7 290.767 437.85 290.767 440.15 291.1C441.783 291.333 443.883 291.817 446.45 292.55C474.783 300.883 498.7 316.017 518.2 337.95C519.4 339.317 520.85 341.033 522.55 343.1C523.483 344.267 524.917 346.05 526.85 348.45C525.083 350.017 522.65 351.083 519.55 351.65C503.85 354.283 489.45 354.717 476.35 352.95C467.15 351.683 457.983 349.517 448.85 346.45C448.617 346.35 448.017 346.183 447.05 345.95C447.917 350.417 448.5 354.317 448.8 357.65C449.133 361.817 449.083 365.75 448.65 369.45C446.65 369.483 445.167 369.517 444.2 369.55C442.467 369.55 441 369.483 439.8 369.35C435.4 368.85 430.283 368.05 424.45 366.95C422.85 366.65 421.867 366.283 421.5 365.85C421.167 365.483 420.833 364.333 420.5 362.4C426.533 359.7 431.6 356.583 435.7 353.05C430.3 337.483 420.95 324.35 407.65 313.65C394.617 303.217 379.8 296.9 363.2 294.7C363.333 293.433 364.067 292.683 365.4 292.45C372.233 290.95 378.567 289.617 384.4 288.45C385.633 288.183 387.45 287.95 389.85 287.75C391.25 287.683 392.267 287.717 392.9 287.85C406.3 290.383 419.35 291.483 432.05 291.15ZM450.35 290.05C452.783 289.55 456.317 288.85 460.95 287.95C465.017 287.15 468.383 286.417 471.05 285.75C473.817 285.083 477.133 284.167 481 283C483.233 282.333 486.65 281.3 491.25 279.9C494.117 282.667 495.783 284.3 496.25 284.8C507.817 297.233 516.65 309.25 522.75 320.85C524.85 324.917 527 329.633 529.2 335C530.533 338.233 530.75 341.283 529.85 344.15L529.5 345.05L529 345.45C509.033 318.717 482.817 300.25 450.35 290.05ZM380.8 285.35L367.05 288.2L370.65 281.8L380.9 285L380.8 285.35ZM359.25 299.4C359.95 298.433 360.95 298.017 362.25 298.15C388.25 301.717 408.733 314.533 423.7 336.6C426.667 340.967 429.267 346.067 431.5 351.9C427.3 355.233 422.1 358.067 415.9 360.4C416.3 361.667 416.933 363.517 417.8 365.95C418.5 368.15 419.017 370 419.35 371.5C420.417 376.533 421.2 381.567 421.7 386.6C422.8 397.7 423 407.683 422.3 416.55C421.7 423.917 420.667 430.633 419.2 436.7C418.933 437.767 418.5 439 417.9 440.4C417.567 441.2 417.017 442.4 416.25 444C415.583 445.333 414.367 446.467 412.6 447.4C410.267 394.267 386.517 351.717 341.35 319.75C342.183 318.75 342.65 318.2 342.75 318.1C349.483 311.3 354.983 305.067 359.25 299.4ZM336.5 324.2L337.9 323C359.9 336.3 377.3 354.617 390.1 377.95C402.333 400.283 408.533 423.7 408.7 448.2C408.067 448.5 407.367 448.6 406.6 448.5C406.067 448.433 405.4 448.25 404.6 447.95C402.567 447.283 400.35 446.367 397.95 445.2C384.95 438.667 373.783 431 364.45 422.2C358.017 416.1 352.167 409.45 346.9 402.25L345.25 400.1C341.783 408.267 337.683 415 332.95 420.3C324.617 414.9 317.417 408.167 311.35 400.1C303.517 389.8 298.217 378.45 295.45 366.05C295.25 365.217 295.25 364.517 295.45 363.95C295.617 363.383 295.983 362.817 296.55 362.25C306.05 352.917 313.217 345.95 318.05 341.35C319.083 340.35 325.233 334.633 336.5 324.2ZM422.85 370.45L425.15 370.8C433.283 372.667 441.617 373.4 450.15 373L452 372.8L452.75 363.25C459.05 363.817 465.65 365.567 472.55 368.5C466.017 370.767 458.083 373.183 448.75 375.75C438.183 378.617 430.25 380.783 424.95 382.25L422.85 370.45ZM425.9 395.8C425.667 391.8 425.483 388.8 425.35 386.8L425.45 386.15L476.65 371.35L477.7 373.1C486.1 388.267 490.7 405.383 491.5 424.45C492.333 443.683 489.35 464.317 482.55 486.35C482.217 487.45 481.533 488.267 480.5 488.8C476.267 491.167 471.117 493.317 465.05 495.25C458.35 497.383 450.65 499.483 441.95 501.55C437.65 502.583 429.85 504.333 418.55 506.8C405.883 509.767 396.383 511.917 390.05 513.25C378.85 515.583 366.55 517.617 353.15 519.35C340.083 521.017 327.183 522.2 314.45 522.9C297.65 523.8 282.617 523.917 269.35 523.25C259.917 522.817 251.15 522.3 243.05 521.7C232.05 520.867 220.067 519.367 207.1 517.2C179.2 512.5 148.733 505.683 115.7 496.75C108.3 494.75 101.867 492.35 96.4 489.55C94.6334 488.617 93.45 487.167 92.85 485.2C88.4167 470.533 85.6667 456.517 84.6 443.15C83.1667 425.417 84.7334 408.967 89.3 393.8C91.7667 385.667 95.05 378.117 99.15 371.15L123.55 378.6V381C123.283 395.967 124.8 409.75 128.1 422.35C129.133 426.35 130.417 430.05 131.95 433.45C133.017 435.883 134.517 438.2 136.45 440.4C139.683 444.033 143.767 445.117 148.7 443.65C151.8 442.717 155.433 440.9 159.6 438.2C174.767 428.667 187.383 417.233 197.45 403.9C198.317 402.8 199.917 400.583 202.25 397.25C204.617 397.617 205.967 397.85 206.3 397.95C206.6 398.05 206.917 398.267 207.25 398.6C207.417 398.8 207.667 399.117 208 399.55L216.85 409.6L218.35 410.9C223.65 406.3 226.667 403.65 227.4 402.95C228.1 402.283 228.8 401.833 229.5 401.6C230.2 401.4 231.05 401.333 232.05 401.4C239.183 402.067 246.833 402.633 255 403.1C256.467 403.133 257.567 403.75 258.3 404.95C259.4 406.783 261.15 409.467 263.55 413L265.1 415.15L268.8 403.85C269.733 403.783 270.333 403.75 270.6 403.75L306.85 403.55C308.583 403.517 310 404.15 311.1 405.45C317 412.683 323.967 418.85 332 423.95L333.65 424.95C337.983 420.45 342.1 414.55 346 407.25C346.833 408.217 347.35 408.833 347.55 409.1C360.85 426.1 377.733 439.5 398.2 449.3C401.867 451.033 405.067 451.983 407.8 452.15C411.667 452.383 414.883 450.933 417.45 447.8C419.717 445.1 421.517 441.217 422.85 436.15C425.283 426.55 426.417 416.083 426.25 404.75C426.217 402.283 426.1 399.3 425.9 395.8ZM246.5 82.75C253.267 87.7833 257.55 91 259.35 92.4C264.117 96.1333 268.183 99.6167 271.55 102.85C273.817 105.017 277.083 108.4 281.35 113C282.15 113.8 282.517 114.883 282.45 116.25C282.35 118.817 282 121.8 281.4 125.2C281.033 127.167 280.433 130.1 279.6 134C278.8 138.033 278.267 141.333 278 143.9C277.533 148.267 278.1 152.433 279.7 156.4L280.3 157.95V158.6L277.45 160.8L276.8 159.45C272.733 149.35 265.067 143.867 253.8 143C252.533 142.9 250.133 142.883 246.6 142.95C245.467 143.017 244.583 142.633 243.95 141.8C233.383 128.3 219.533 119.967 202.4 116.8L198.9 116.2C197.433 108.833 196.75 101.617 196.85 94.55C196.95 87.1167 197.3 79.7 197.9 72.3C198.4 65.8 198.633 60.05 198.6 55.05C198.567 48.8833 198.133 43.15 197.3 37.85V36.9C197.767 37.3 198.017 37.5333 198.05 37.6C203.783 47.1 211.967 56.1167 222.6 64.65C227.8 68.7833 235.767 74.8167 246.5 82.75ZM194.9 62.8L193 96.3C192.367 96.1333 191.9 95.9667 191.6 95.8C182.9 91 172.25 87.5333 159.65 85.4C154.583 84.5 148.867 83.7667 142.5 83.2C138.667 82.8667 132.933 82.4667 125.3 82C116.833 81.4667 110.217 80.9333 105.45 80.4C98.1834 79.6333 91.65 78.5833 85.85 77.25C74.2834 74.6167 64.6334 70.95 56.9 66.25C55.3 65.2833 54.1 64.5 53.3 63.9C52.0334 62.9333 50.9834 61.9167 50.15 60.85L54 61.6C70.6667 64.8333 86.15 65.5833 100.45 63.85C106.25 63.15 118.267 61.4333 136.5 58.7C147.867 57 156.933 56.1667 163.7 56.2C173.867 56.2667 182.867 57.85 190.7 60.95C191.1 61.1167 192.5 61.7333 194.9 62.8ZM239.3 141.65C239.733 142.183 239.983 142.5 240.05 142.6C240.083 142.633 240.15 142.867 240.25 143.3C234.483 143.833 230.367 144.067 227.9 144C223.3 143.9 219.217 143.133 215.65 141.7C219.517 145.767 222.733 150.65 225.3 156.35C224.9 156.517 224.683 156.6 224.65 156.6C212.717 155.167 199.833 157.217 186 162.75C175 167.117 161.917 173.65 146.75 182.35C127.917 193.217 111.8 204.583 98.4 216.45C95.1667 219.35 91.35 222.917 86.95 227.15C84.4167 229.55 80.65 233.183 75.65 238.05L59.5 253.4C64.0667 247.467 68.55 240.383 72.95 232.15C75.3834 227.583 79.0667 220.1 84 209.7C87.3 202.633 89.8 197.35 91.5 193.85C94.4334 187.85 97.1667 182.717 99.7 178.45C109.2 162.65 119.933 149.95 131.9 140.35C145.633 129.383 160.55 122.65 176.65 120.15C194.05 117.45 209.633 120.15 223.4 128.25C229.467 131.883 234.767 136.35 239.3 141.65ZM232.2 148.3C231.5 148.133 230.9 147.817 230.4 147.35L233.75 147.05C235.85 146.983 238.967 146.833 243.1 146.6C246.8 146.4 249.917 146.333 252.45 146.4C259.117 146.5 264.733 148.983 269.3 153.85C271.733 156.45 273.4 159.417 274.3 162.75C274.5 163.55 274.467 164.317 274.2 165.05C273.567 166.683 272.5 169.183 271 172.55C269.067 168.717 266.667 165.367 263.8 162.5C257.9 156.6 250.7 152.65 242.2 150.65L232.2 148.3ZM194.75 115.7C194.35 115.767 194.05 115.783 193.85 115.75C170.817 114.65 149.45 121.933 129.75 137.6C117.317 147.5 106.733 159.9 98 174.8C97.4334 175.8 96.7667 176.55 96 177.05C95.3 177.55 94.3834 177.883 93.25 178.05C83.9834 179.483 75.15 179.767 66.75 178.9C60.6834 178.333 55.0834 177.333 49.95 175.9C51.3167 175.533 52.0834 175.333 52.25 175.3L54.4 174.9C70.9 171.633 84.8667 163.533 96.3 150.6L107.8 137.4C114.333 129.833 120.45 124.25 126.15 120.65C134.483 115.483 142.533 112.3 150.3 111.1C153.5 110.6 157.4 110.35 162 110.35C172.5 110.217 182.883 111.317 193.15 113.65C193.883 113.817 194.35 113.983 194.55 114.15C194.917 114.483 194.983 115 194.75 115.7ZM191.25 99.5C192.783 100.2 193.55 101.367 193.55 103C193.55 103.9 193.617 105.017 193.75 106.35C193.85 107.117 193.983 108.317 194.15 109.95C192.783 109.817 191.917 109.7 191.55 109.6C179.683 107.167 168.4 106.183 157.7 106.65C142.467 107.317 128.75 112.95 116.55 123.55C114.783 125.05 112.717 127.05 110.35 129.55C109.05 130.95 107.083 133.05 104.45 135.85C103.783 136.517 102.767 137.667 101.4 139.3C76.3667 118.733 58.2 93.2833 46.9 62.95L48.2 63.8C55.8 70.0667 64.95 74.85 75.65 78.15C84.95 81.1167 95.7667 83.0667 108.1 84C115.633 84.5667 126.95 85.3667 142.05 86.4C149.05 87 155.15 87.7833 160.35 88.75C166.85 89.95 172.8 91.55 178.2 93.55C181.167 94.6833 185.517 96.6667 191.25 99.5ZM226.2 160.7C227.133 160.833 227.833 161.367 228.3 162.3C229.9 165.567 231.15 168 232.05 169.6C236.95 178.367 243.817 183.783 252.65 185.85C252.75 185.85 253.15 186.033 253.85 186.4C250.117 187.7 247.95 188.467 247.35 188.7C235.283 193.567 225.033 201.517 216.6 212.55C207.267 224.783 201.6 238.417 199.6 253.45C199.367 255.25 199.15 257.433 198.95 260C198.85 261.467 198.717 263.667 198.55 266.6V269.6C195.583 270.2 194.033 270.517 193.9 270.55C182.3 272.483 170.933 273.433 159.8 273.4C146.667 273.3 133.433 271.667 120.1 268.5L88 260.85C79.7 258.95 71.5167 258.217 63.45 258.65L58.65 259.05C59.0167 258.483 59.2834 258.117 59.45 257.95L87.35 231.25C105.317 213.683 126.433 198 150.7 184.2C163.367 177 174.817 171.3 185.05 167.1C193.15 163.733 200.733 161.55 207.8 160.55C213.9 159.683 220.033 159.733 226.2 160.7ZM237.05 170.95C235.25 168.417 233.333 165.05 231.3 160.85C227.967 154.017 226.217 150.45 226.05 150.15L227.9 150.6C230.9 151.367 235.383 152.517 241.35 154.05C250.883 156.317 258.517 161.1 264.25 168.4C267.75 172.867 269.6 177.833 269.8 183.3C265.167 183.7 261.117 183.667 257.65 183.2C253.483 182.633 249.7 181.417 246.3 179.55C242.867 177.65 239.783 174.783 237.05 170.95ZM283.75 131C286.65 137.2 288.433 140.933 289.1 142.2L292.05 147.5C293.25 149.633 294.117 151.467 294.65 153L283.8 156.75C282.8 155.35 282.1 153.2 281.7 150.3C281.267 147.2 281.483 143.067 282.35 137.9C282.417 137.433 282.883 135.133 283.75 131ZM292.9 141.8C291.167 138.567 289.917 136.067 289.15 134.3C287.95 131.467 287.15 128.8 286.75 126.3C286.617 125.533 286.333 123.333 285.9 119.7C285.933 119.733 288.333 121.367 293.1 124.6C295.833 126.467 298.067 128.067 299.8 129.4C305.833 134.167 309.3 140 310.2 146.9C310.6 149.767 310.317 152.533 309.35 155.2L303.75 156.4C303.383 156.5 303.15 156.517 303.05 156.45C301.917 155.85 301.067 155.4 300.5 155.1C299.533 154.5 298.85 153.783 298.45 152.95C296.317 148.35 294.467 144.633 292.9 141.8ZM281 185.3L275.75 184.65C274.617 181.983 274.217 179.033 274.55 175.8C275.183 168.567 278.433 163.4 284.3 160.3C285.767 159.567 287.283 159.55 288.85 160.25C292.483 161.85 294.2 164.483 294 168.15C285.133 170.683 280.8 176.4 281 185.3ZM319.15 164.8C319.75 166.733 319.85 168.9 319.45 171.3L308.1 172.95C305.567 170.117 302.133 168.467 297.8 168L297 163.45C298.2 162.45 300.167 161.5 302.9 160.6C306.667 159.3 309.95 158.817 312.75 159.15C316.083 159.583 318.217 161.467 319.15 164.8ZM293.55 172C296.383 171.167 299.183 171.433 301.95 172.8C304.683 174.167 306.567 176.233 307.6 179C308.6 181.667 308.55 184.283 307.45 186.85C306.317 189.417 304.467 191.133 301.9 192C301.1 192.3 300.35 192.283 299.65 191.95C295.55 189.65 290.817 187.75 285.45 186.25L285.05 186C284.417 183.133 284.933 180.3 286.6 177.5C288.3 174.7 290.617 172.867 293.55 172ZM295.05 193.6C295.983 194.033 297.45 194.817 299.45 195.95L297.85 196.85C280.55 205.85 267.9 219.75 259.9 238.55C255.8 248.117 253.267 258.967 252.3 271.1C251.333 283.367 251.8 296.433 253.7 310.3C254.4 315.267 255.333 321.433 256.5 328.8C257.133 332.9 258.1 339.05 259.4 347.25C260.833 356.483 261.867 364.017 262.5 369.85C263.333 378.083 263.7 385.65 263.6 392.55C263.533 397.017 263.217 401.117 262.65 404.85L261.8 403.85C255.4 394.283 250.6 387.1 247.4 382.3C241.7 373.733 236.967 366.517 233.2 360.65C224.233 346.683 217.017 332.55 211.55 318.25C206.883 305.983 203.917 293.833 202.65 281.8C200.917 265.4 202.483 250.5 207.35 237.1C213.95 218.833 224.733 205.283 239.7 196.45C257.533 186.017 275.983 185.067 295.05 193.6ZM47.8 179.45C62.8667 183.183 78.2334 183.9 93.9 181.6L82.2 205.25C68.8667 197.683 57.4 189.083 47.8 179.45ZM86.95 264.25C93.2167 265.817 103.767 268.35 118.6 271.85C122.267 272.683 124.7 273.283 125.9 273.65C94.7334 281.783 68.55 297.883 47.35 321.95C46.2834 319.483 46.25 316.783 47.25 313.85C48.05 311.483 49.0334 309.217 50.2 307.05C57.8667 292.75 69.05 278.75 83.75 265.05C84.65 264.25 85.7167 263.983 86.95 264.25ZM154.1 276.85C155.733 277.017 157.317 277.267 158.85 277.6L180.25 282.7C170.317 284.833 161.317 288.167 153.25 292.7C137.683 301.5 125.867 313.533 117.8 328.8C117.233 329.867 116.55 330.65 115.75 331.15C115.05 331.65 114.1 331.983 112.9 332.15C104.133 333.417 95.45 333.85 86.85 333.45C77.6834 333.083 67.5167 331.483 56.35 328.65C53.4167 327.883 51.1 326.65 49.4 324.95C55.1667 318.883 58.2667 315.65 58.7 315.25C77.2667 297.45 98.9 285.1 123.6 278.2C127.667 277.1 131.4 276.233 134.8 275.6C135.567 275.467 137.15 275.467 139.55 275.6L154.1 276.85ZM114.5 346.15C115.6 342.817 116.267 340.817 116.5 340.15C121.5 327.017 129.383 315.717 140.15 306.25C151.15 296.583 163.45 290.267 177.05 287.3C179.117 286.867 181.633 286.45 184.6 286.05C186.3 285.817 188.85 285.483 192.25 285.05C193.417 284.883 195.233 284.7 197.7 284.5C197.767 284.5 198.283 284.55 199.25 284.65L203.85 306.2C182.817 321.9 166.783 341.45 155.75 364.85C144.683 388.417 139.95 413.417 141.55 439.85C139.483 438.95 138.083 437.833 137.35 436.5C135.55 433.467 134.4 431.2 133.9 429.7C130.933 420.6 128.967 410.983 128 400.85C127.267 393.017 127 385.433 127.2 378.1C127.3 373.4 127.567 369.35 128 365.95C128.6 361.583 129.55 357.617 130.85 354.05V353.4C124.483 351.533 119.033 349.117 114.5 346.15ZM102.9 368.6L102.85 368.05C109.817 363.75 117.317 360.967 125.35 359.7L123.55 374.9L102.9 368.6ZM198.45 273.65L199 280.4C197.533 280.867 193.267 280.633 186.2 279.7C179.133 278.767 174.467 277.833 172.2 276.9L198.45 273.65ZM205.1 309.9L205.7 311.45C210.633 326.817 218.1 342.683 228.1 359.05C231 363.85 234.95 370.05 239.95 377.65C240.383 378.35 240.617 378.95 240.65 379.45C240.65 379.983 240.45 380.6 240.05 381.3C234.617 390.5 227.917 398.367 219.95 404.9L218.4 406.1C213.2 401.033 208.583 394.683 204.55 387.05C203.917 387.883 203.517 388.433 203.35 388.7C193.617 405.1 181.133 418.733 165.9 429.6C163.4 431.4 159.183 434.15 153.25 437.85C150.617 439.483 148.083 440.367 145.65 440.5C144.383 432.667 144.6 422.533 146.3 410.1C148.267 396.067 151.733 383.167 156.7 371.4C162.2 358.4 169.617 346.15 178.95 334.65C187.45 324.183 196.167 315.933 205.1 309.9ZM291.7 367.7C292.4 369.633 293.4 372.483 294.7 376.25C295.9 379.517 296.983 382.25 297.95 384.45C298.917 386.583 300.25 389.167 301.95 392.2C302.883 393.9 304.3 396.433 306.2 399.8C305.167 400.133 299.717 400.35 289.85 400.45C279.917 400.55 273.467 400.433 270.5 400.1C274.967 389.7 282.033 378.9 291.7 367.7ZM172 514.15C185.333 516.883 198.383 519.217 211.15 521.15C221.05 522.683 232.633 524.083 245.9 525.35C267.3 527.317 288.483 527.733 309.45 526.6C322.017 525.9 333.733 525.017 344.6 523.95C358.667 522.617 372.733 520.483 386.8 517.55C396.367 515.583 408.683 512.85 423.75 509.35C431.083 507.683 442.05 505.083 456.65 501.55C458.65 501.05 461.633 500.15 465.6 498.85L468.35 498V500.8C468.15 503.533 467.85 507.6 467.45 513C467.05 517.833 466.683 521.9 466.35 525.2C464.617 541.1 461.933 557 458.3 572.9C449.967 609.267 437.233 643.833 420.1 676.6C419.6 677.567 418.817 678.433 417.75 679.2C409.45 684.9 399.683 689.617 388.45 693.35C376.883 697.217 363.65 700.167 348.75 702.2C338.85 703.533 328.1 704.467 316.5 705C307.233 705.4 296.433 705.567 284.1 705.5C268.6 705.433 255.417 704.95 244.55 704.05C223.55 702.383 205.1 699.033 189.2 694C177.133 690.167 166.767 685.267 158.1 679.3C157 678.533 156.167 677.6 155.6 676.5C139.333 645.333 127.05 612.733 118.75 578.7C114.717 562.133 111.817 546.183 110.05 530.85C109.583 526.75 109.1 521.767 108.6 515.9C108.1 509.267 107.7 504.283 107.4 500.95V498.55C121 502.117 131.767 504.867 139.7 506.8C151.533 509.7 162.3 512.15 172 514.15ZM254.6 399.5C249.7 399.367 242.433 398.833 232.8 397.9L243.5 383.1L254.6 399.5Z" fill="black"/>
    </g>
    <defs>
        <clipPath id="clip0">
            <rect width="612" height="721" fill="white"/>
        </clipPath>
    </defs>
</svg>
