<svg width="612" height="717" viewBox="0 0 612 717" fill="none" xmlns="http://www.w3.org/2000/svg">
    <g clip-path="url(#clip0)">
        <path d="M267.45 244.2C268.283 243.733 268.717 243.2 268.75 242.6C268.783 242.167 268.567 241.617 268.1 240.95L267.45 244.2Z" fill="white"/>
        <path d="M0 717H612.35V0H0V717ZM405.2 84.7C407.2 86.0333 407.383 87.6667 405.75 89.6C405.35 90.0667 404.95 90.45 404.55 90.75C399.05 95.4167 394.917 98.8833 392.15 101.15C387.317 105.05 382.983 108.267 379.15 110.8C376.817 112.333 373.933 114.15 370.5 116.25C366.667 118.617 363.783 120.383 361.85 121.55L359.3 123.05C360.5 123.15 361.183 123.2 361.35 123.2C367.45 122.633 374.467 122.633 382.4 123.2C388.233 123.633 393.183 124.217 397.25 124.95C402.583 125.917 407.383 127.267 411.65 129C413.083 129.567 415.667 130.833 419.4 132.8C419.633 132.9 419.85 133.083 420.05 133.35C420.283 133.65 420.367 133.867 420.3 134C420.267 134.267 420.133 134.533 419.9 134.8C419.667 135.067 419.433 135.233 419.2 135.3C416.267 136.233 412.95 137.717 409.25 139.75C405.083 142.217 401.933 144.033 399.8 145.2C398.4 146 396.633 146.917 394.5 147.95C392.067 149.083 390.233 149.95 389 150.55C389.1 150.583 389.283 150.717 389.55 150.95C398.717 152.917 408.867 157.067 420 163.4C427.267 167.467 433.283 171.933 438.05 176.8C438.55 177.3 439.917 178.883 442.15 181.55C442.717 182.283 443.1 182.967 443.3 183.6C443.933 185.2 443.45 186.283 441.85 186.85C440.817 187.25 439.8 187.417 438.8 187.35C434.533 187.05 429.633 187.967 424.1 190.1C413.467 194.1 404.583 196.967 397.45 198.7C386.483 201.367 376.1 202.067 366.3 200.8C365 200.633 363.4 200.333 361.5 199.9C358.6 199.233 357 198.867 356.7 198.8C356.1 198.667 355.583 198.683 355.15 198.85C356.317 199.617 357.067 200.15 357.4 200.45C358.3 201.183 359.633 202.25 361.4 203.65C362.933 204.917 364.217 206.05 365.25 207.05C373.683 215.25 380.517 225.217 385.75 236.95C386.283 238.15 387.367 240.567 389 244.2C390.333 247.167 391.383 249.567 392.15 251.4C392.95 253.367 393.45 255.45 393.65 257.65C393.783 258.75 393.55 259.483 392.95 259.85C392.383 260.217 391.617 260.117 390.65 259.55C388.65 258.35 386.283 257.367 383.55 256.6C382.05 256.167 379.567 255.617 376.1 254.95C373.433 254.45 370.583 253.583 367.55 252.35C365.55 251.517 362.833 250.233 359.4 248.5C355.8 246.7 352.167 244.367 348.5 241.5C345.7 239.3 342.467 236.45 338.8 232.95C338.1 232.017 337.567 231.333 337.2 230.9L336.65 231.25L337.25 233.15C343.283 248.15 345.867 263.383 345 278.85C344.933 280.117 344.65 280.917 344.15 281.25C343.683 281.617 342.85 281.583 341.65 281.15C337.583 279.683 333.5 277.517 329.4 274.65C318.067 266.517 309.617 257.067 304.05 246.3L302.35 242.7C301.983 243.733 301.783 244.333 301.75 244.5C299.683 258.133 296.7 270.3 292.8 281C291.733 283.9 290.817 286.117 290.05 287.65C288.883 289.983 287.517 291.933 285.95 293.5C285.517 293.933 285.417 294.6 285.65 295.5L288.15 303.25C289.783 308.283 292.25 315.8 295.55 325.8C298.483 334.733 300.9 342.25 302.8 348.35C306.467 360.15 309.8 373.067 312.8 387.1L313.5 389.95C314.367 388.783 314.833 388.15 314.9 388.05C321.867 376.75 332.117 369.583 345.65 366.55C364.35 362.417 382.967 364.25 401.5 372.05C413.867 377.283 425.517 385.55 436.45 396.85C444.817 405.483 452.1 415.267 458.3 426.2C462.267 433.133 465.9 438.683 469.2 442.85C473.7 448.383 478.483 452.3 483.55 454.6L486.9 455.85C488.533 456.45 489.417 457.083 489.55 457.75C489.717 458.417 489.183 459.333 487.95 460.5C484.083 464.1 479.333 467.167 473.7 469.7C465 473.667 455.467 476.2 445.1 477.3C437.4 478.067 429.35 476.45 420.95 472.45C412.717 468.517 404.233 462.85 395.5 455.45C391.067 451.75 386.233 447.2 381 441.8C379.267 440 374.733 435.15 367.4 427.25C363.433 422.95 360.083 419.467 357.35 416.8C353.583 413.1 349.967 409.9 346.5 407.2C341.433 403.3 336.783 400.5 332.55 398.8C329.783 397.667 327.067 397.083 324.4 397.05C321.067 396.983 318.083 398.017 315.45 400.15C318.217 415.983 319.817 430.267 320.25 443C320.75 455.7 320.35 470.2 319.05 486.5H380.2C381.067 486.5 382.55 486.467 384.65 486.4C386.517 486.3 387.983 486.267 389.05 486.3C391.483 486.3 395.133 486.283 400 486.25C404.2 486.25 407.817 486.383 410.85 486.65C414.217 486.917 418.683 488.05 424.25 490.05C426.317 490.783 427.95 492.117 429.15 494.05C430.15 495.583 430.883 497.617 431.35 500.15C432.483 505.917 431.55 512.217 428.55 519.05C428.383 519.45 428.133 520.033 427.8 520.8C426.967 523.933 424.833 525.883 421.4 526.65C420.033 526.95 418.983 527.567 418.25 528.5C417.65 529.267 417.233 530.367 417 531.8C416.333 535.467 415.35 540.967 414.05 548.3C409.217 574.6 405.85 592.583 403.95 602.25C402.35 610.417 399.75 622.617 396.15 638.85C393.95 649.383 392.233 660.183 391 671.25C390.2 678.117 389.083 683.5 387.65 687.4C385.683 692.8 382.75 696.683 378.85 699.05C376.817 700.283 373.8 701.25 369.8 701.95C360 703.583 350.45 704.383 341.15 704.35C327.15 704.317 313.15 704.117 299.15 703.75C296.117 703.683 292.217 703.517 287.45 703.25C280.883 702.883 276.967 702.667 275.7 702.6C274.2 702.533 271.917 702.5 268.85 702.5C265.817 702.467 263.533 702.417 262 702.35C258.8 702.183 256.3 701.967 254.5 701.7C251.767 701.267 249.35 700.567 247.25 699.6C244.183 698.233 241.15 696.65 238.15 694.85C235.783 693.45 233.95 691.1 232.65 687.8C231.917 685.9 231.25 683.683 230.65 681.15C230.317 679.883 229.817 677.617 229.15 674.35C228.483 671.083 227.433 666.2 226 659.7C224.567 653.2 223.517 648.317 222.85 645.05C217.85 620.15 214.75 604.483 213.55 598.05C211.983 589.65 208.833 571.783 204.1 544.45C203.833 542.95 203.117 538.45 201.95 530.95L201.45 528.35C201.217 527.383 200.867 526.633 200.4 526.1C199.9 525.467 199.167 524.983 198.2 524.65C195.433 523.683 193.25 522.183 191.65 520.15C190.05 518.117 189.083 515.65 188.75 512.75C188.083 506.75 188.35 501.517 189.55 497.05C190.783 492.517 193.55 489.567 197.85 488.2C198.417 488 198.967 487.9 199.5 487.9C232.033 487.3 248.35 487 248.45 487C260.75 486.833 279.217 486.7 303.85 486.6H307.05C307.617 478.8 307.933 474.25 308 472.95C308.633 460.083 308.533 445.767 307.7 430C307.2 420 306.533 412.283 305.7 406.85C305.5 405.017 305.283 403.667 305.05 402.8C304.717 401.7 304.267 400.783 303.7 400.05C299.233 393.917 292.967 389.933 284.9 388.1C278.833 386.733 271.2 386.5 262 387.4C253.567 388.3 247.25 388.933 243.05 389.3C235.683 389.967 229.333 390.2 224 390C211.933 389.533 200.917 386.617 190.95 381.25C173.15 371.65 158.717 357.8 147.65 339.7C144.783 335 141.833 329.883 138.8 324.35C138.433 323.717 138.1 322.917 137.8 321.95C137.467 320.817 137.2 319.967 137 319.4C136.9 319.167 136.817 318.783 136.75 318.25C136.35 314.683 137.85 313.483 141.25 314.65C144.317 315.683 146.483 316.383 147.75 316.75C150.183 317.45 152.4 317.95 154.4 318.25C159.8 319.017 165.45 319.217 171.35 318.85C175.817 318.55 181.183 317.917 187.45 316.95C190.983 316.417 196.3 315.567 203.4 314.4C211.967 313.133 219.367 312.617 225.6 312.85C238.6 313.45 250.433 317.733 261.1 325.7C271.167 333.3 279.9 343.6 287.3 356.6C288.533 358.733 291.7 364.2 296.8 373C297.233 373.8 297.75 374.383 298.35 374.75C297.683 372.317 297.15 370.5 296.75 369.3L281.9 327C279.033 319 276.9 312.983 275.5 308.95C273.067 301.983 271.117 295.9 269.65 290.7C266.35 278.967 264.683 267.85 264.65 257.35V256.15C264.25 256.483 263.95 256.9 263.75 257.4C263.65 257.667 263.517 258.067 263.35 258.6C261.683 263.1 260.217 266.7 258.95 269.4C257.15 273.233 255.2 276.567 253.1 279.4C251.433 281.633 249.367 284.217 246.9 287.15C245.467 288.85 243.3 291.367 240.4 294.7C239.833 295.4 238.85 296.217 237.45 297.15C236.217 297.917 235.033 298.15 233.9 297.85C232.767 297.55 231.85 296.767 231.15 295.5C230.45 294.2 230.05 293 229.95 291.9C229.783 289.933 229.133 284.783 228 276.45C227.133 270.117 226.667 264.933 226.6 260.9C226.433 251.667 227.75 242.85 230.55 234.45C230.85 233.65 230.967 232.883 230.9 232.15L228.35 234.4C227.983 234.7 225.933 236.417 222.2 239.55C219.7 241.617 217.617 243.3 215.95 244.6C214.117 246.033 211.7 247.45 208.7 248.85C205.667 250.317 197.933 253.933 185.5 259.7C183.067 260.8 180.983 261.217 179.25 260.95C178.317 260.817 177.717 260.6 177.45 260.3C177.183 260.033 176.967 259.45 176.8 258.55C176.367 255.617 176.867 252.1 178.3 248C180.2 242.567 183.4 236.967 187.9 231.2C188.933 229.867 191.8 226.433 196.5 220.9C197 220.3 197.317 219.683 197.45 219.05L195.5 220C184.567 225.4 175.483 229.333 168.25 231.8C160.217 234.533 151.533 235.4 142.2 234.4C139.467 234.033 137.3 233.3 135.7 232.2C134.633 231.5 133.95 230.767 133.65 230C133.35 229.233 133.4 228.283 133.8 227.15C134.767 224.583 135.817 222.517 136.95 220.95C142.317 213.55 147.65 207.183 152.95 201.85C159.083 195.617 165.533 190.4 172.3 186.2C174.067 185.1 176.333 183.85 179.1 182.45C182.2 180.883 184.517 179.683 186.05 178.85L188.2 177.8C184.233 177.8 182.017 177.783 181.55 177.75L162.9 176.55C157.567 176.217 153.567 176.017 150.9 175.95C146.333 175.783 143.183 175.617 141.45 175.45C137.917 175.15 134.8 174.65 132.1 173.95C130.533 173.55 128.083 172.617 124.75 171.15C124.45 171.017 124.1 170.783 123.7 170.45C122.967 169.85 122.55 169.517 122.45 169.45C123.45 168.583 123.983 168.133 124.05 168.1L147.35 154.3C151.283 151.967 154.717 150.15 157.65 148.85C161.45 147.117 165.117 145.883 168.65 145.15C171.483 144.583 175.817 144 181.65 143.4C181.517 143.233 181.383 143.117 181.25 143.05C173.55 140.117 165.767 135.167 157.9 128.2C155.433 126.033 152.6 123.383 149.4 120.25C145.767 116.583 143.033 113.833 141.2 112C140.2 111.033 139.167 109.617 138.1 107.75C137.333 106.417 137.1 105.233 137.4 104.2C137.7 103.133 138.55 102.283 139.95 101.65C142.183 100.717 144.25 100.167 146.15 100C152.75 99.4 157.7 99.1167 161 99.15C168.8 99.25 177 101.117 185.6 104.75C186.5 105.183 187.333 105.433 188.1 105.5L165.45 85.65C160.917 81.7167 157.367 77.95 154.8 74.35C154.033 73.2833 153.417 72.35 152.95 71.55C152.117 70.15 152.5 69.45 154.1 69.45C157.367 69.3833 160.167 69.4167 162.5 69.55C172.633 70.0833 181.7 71.7667 189.7 74.6C195.5 76.6667 200.95 79.3333 206.05 82.6C207.217 83.4 208.267 83.9167 209.2 84.15L208.5 82.7C205.867 77.9667 203.733 73.8 202.1 70.2C200.067 65.6 198.533 61.2 197.5 57C197 55.0333 196.75 52.4167 196.75 49.15C196.783 47.95 197.217 46.4333 198.05 44.6C198.55 43.6 199.05 43.0167 199.55 42.85C200.05 42.6833 200.85 42.7833 201.95 43.15C206.917 44.9167 211.817 47.2333 216.65 50.1C224.05 54.5667 230.65 59.7 236.45 65.5C236.483 65.5333 236.8 66 237.4 66.9L237.95 66.55C237.95 66.0833 237.917 65.75 237.85 65.55C235.517 57.9833 234.967 49.6 236.2 40.4C237.567 30.9667 238.333 25.75 238.5 24.75C239.067 21.45 240.317 18.45 242.25 15.75C243.017 14.6833 243.683 14.1333 244.25 14.1C244.85 14.0667 245.55 14.55 246.35 15.55C247.417 17.0167 248.2 18.2167 248.7 19.15C250.4 22.2833 252.85 25.9333 256.05 30.1C263.817 40.2 269.117 50.6833 271.95 61.55C272.15 62.05 272.433 62.4333 272.8 62.7C273.1 60.9667 273.367 59.6833 273.6 58.85C279.1 39.6833 287.783 24.0667 299.65 12C300.25 11.4333 302.083 9.76667 305.15 7C306.15 6.13333 307.1 5.86667 308 6.2C308.867 6.53333 309.333 7.38333 309.4 8.75C309.633 12.3833 309.983 17.8167 310.45 25.05C310.75 30.6833 311.15 39.15 311.65 50.45C312.017 58.4167 311.433 65.6333 309.9 72.1L309.75 73.05C310.083 73.05 310.267 73.0333 310.3 73L323.2 60.15C325.533 57.8167 329.017 54.3 333.65 49.6C337.883 45.5 341.35 42.2833 344.05 39.95C346.517 37.85 349.25 36.4167 352.25 35.65C353.55 35.2833 354.45 35.2833 354.95 35.65C355.483 35.9833 355.767 36.8 355.8 38.1C355.867 40.1 355.717 42.1 355.35 44.1C354.65 48.1333 353.55 54.1833 352.05 62.25C350.517 71.2833 346.317 80.5 339.45 89.9C338.717 91 338.267 91.85 338.1 92.45C338.5 92.25 339.117 91.9667 339.95 91.6C348.217 87.2667 357.833 84.2 368.8 82.4C373.5 81.6333 376.933 81.1333 379.1 80.9C382.967 80.4667 386.45 80.3333 389.55 80.5C392.983 80.7 396.367 81.2 399.7 82C401.333 82.3667 403.167 83.2667 405.2 84.7Z" fill="white"/>
        <path d="M234.55 167C233.15 162.467 232.033 159.017 231.2 156.65C231.1 156.383 230.9 156.117 230.6 155.85C230.3 155.617 230.017 155.467 229.75 155.4C227.35 154.867 224.45 154.333 221.05 153.8L208.6 151.9L208.65 151.4H215.8C219.067 151.467 223.383 152.2 228.75 153.6C229.117 153.7 229.733 153.783 230.6 153.85L229.9 146.5C229.067 146.367 228.45 146.283 228.05 146.25C227.35 146.15 226.767 146.117 226.3 146.15C225.5 146.217 223.933 146.467 221.6 146.9C213.033 148.567 204.85 148.667 197.05 147.2C196.883 147.167 195.6 146.867 193.2 146.3C191.633 145.933 190.333 145.767 189.3 145.8C183.833 145.9 178.667 146.283 173.8 146.95C168.2 147.75 162.017 150.017 155.25 153.75C152.95 155.017 147.15 158.4 137.85 163.9L131.3 167.9C130.8 168.167 130.45 168.417 130.25 168.65C129.917 168.983 129.75 169.433 129.75 170C130.05 170.1 130.483 170.233 131.05 170.4C131.55 170.533 131.967 170.617 132.3 170.65C139.333 171.483 145.767 172.167 151.6 172.7C153.433 172.867 156.183 173.05 159.85 173.25C163.517 173.45 166.267 173.617 168.1 173.75C177.8 174.55 186.267 174.633 193.5 174C197.8 173.6 200.95 173.133 202.95 172.6C212.383 170.1 220.833 168.467 228.3 167.7L234.55 167Z" fill="white"/>
        <path d="M230.25 141.7L230.55 139.1C226.55 138.733 222.617 137.567 218.75 135.6C217.75 135.1 213.433 132.85 205.8 128.85C205.533 128.55 205.333 128.333 205.2 128.2L205.4 127.75L207.5 128.5L217.65 133.4C221.683 135.367 225.433 136.7 228.9 137.4C228.967 137.4 229.683 137.45 231.05 137.55L231.4 135.2C228.2 134.233 225.883 133.433 224.45 132.8C222.45 131.9 220.3 130.7 218 129.2C215.167 127.3 212.533 125.35 210.1 123.35C202.967 117.483 195.25 112.517 186.95 108.45C173.183 101.717 159.2 100.05 145 103.45C144.533 103.55 143.933 103.733 143.2 104C141.9 104.5 141.233 104.75 141.2 104.75L142.5 106.8C151.333 119.067 161.917 128.65 174.25 135.55C184.05 141.05 193.883 143.683 203.75 143.45L206.15 143.55C212.017 144.017 217.1 143.8 221.4 142.9C222.567 142.667 224.033 142.45 225.8 142.25C226.767 142.117 228.25 141.933 230.25 141.7Z" fill="white"/>
        <path d="M234.7 172.85C230.033 173.983 225.25 176.483 220.35 180.35C220.117 180.517 219.333 181.183 218 182.35C217.033 183.183 216.2 183.817 215.5 184.25C212.867 185.883 207.933 188.817 200.7 193.05C200.6 193.117 200.15 193.283 199.35 193.55C199.517 193.183 199.817 192.883 200.25 192.65C206.65 188.783 212.4 184.6 217.5 180.1C222.633 175.567 228.683 172.683 235.65 171.45C235.817 171.417 236.35 171.25 237.25 170.95L235.8 168.7L226.05 170.1C214.383 171.8 203.65 174.5 193.85 178.2C172.817 186.167 155.983 199.25 143.35 217.45C141.183 220.55 139.833 223.25 139.3 225.55C138.6 228.383 139.733 229.95 142.7 230.25L143.9 230.3C154.933 230.867 166.4 228.8 178.3 224.1C191.733 218.8 204.35 210.95 216.15 200.55C224.85 192.85 232.05 184.533 237.75 175.6L238.6 174.15C238.833 173.683 238.833 173.267 238.6 172.9C238.4 172.533 238.033 172.367 237.5 172.4C236.833 172.433 235.9 172.583 234.7 172.85Z" fill="white"/>
        <path d="M287.9 360.3C282.733 351.4 277.517 344.15 272.25 338.55C255.483 320.517 234.917 313.233 210.55 316.7C207.483 317.133 203.867 317.75 199.7 318.55C194.9 319.483 191.283 320.183 188.85 320.65C184.65 321.45 181.433 322 179.2 322.3C175.6 322.833 172.333 323.117 169.4 323.15C164.533 323.217 160.233 323.033 156.5 322.6C151.933 322.1 147.717 321.2 143.85 319.9C143.583 319.8 143.283 319.75 142.95 319.75C142.55 319.75 142.283 319.833 142.15 320C141.717 320.467 141.9 321.067 142.7 321.8L143.8 322.75C147.633 326.083 152.633 328.65 158.8 330.45C164.767 332.183 171.767 333.367 179.8 334C196.767 335.433 208.067 336.333 213.7 336.7C224.467 337.467 233.65 338.617 241.25 340.15C257.517 343.55 271.817 351.25 284.15 363.25C287.65 366.683 291.75 371.983 296.45 379.15L300.85 385.65L301.5 385.45C301.067 384.083 300.75 383.067 300.55 382.4C300.15 381.167 299.733 380.183 299.3 379.45C298 377.15 296.1 373.967 293.6 369.9C290.933 365.467 289.033 362.267 287.9 360.3Z" fill="white"/>
        <path d="M251.05 345.3C245.883 343.633 240.167 342.283 233.9 341.25C229.1 340.483 223.283 339.8 216.45 339.2C202.85 338.2 192.667 337.367 185.9 336.7C179.733 336.1 172.617 335.117 164.55 333.75C158.017 332.65 152.2 330.533 147.1 327.4L144.55 325.85L144.4 326.2L147.05 331.55C156.583 349.817 169.7 363.9 186.4 373.8C200.367 382.033 214.733 385.983 229.5 385.65C234.1 385.55 241.833 385.05 252.7 384.15C258.567 383.65 263.317 383.383 266.95 383.35C272.117 383.283 276.85 383.6 281.15 384.3C289.65 385.7 296.583 389.033 301.95 394.3L303.45 395.65C303.25 393.817 303.067 392.6 302.9 392C302.633 391.2 302.033 390.133 301.1 388.8C296.633 382.133 292.85 376.783 289.75 372.75C279.483 359.483 266.583 350.333 251.05 345.3Z" fill="white"/>
        <path d="M234.4 108.8C231.367 105.6 228.533 102.95 225.9 100.85C222.567 98.0167 220.05 95.9 218.35 94.5C215.283 91.8667 213.133 90.1 211.9 89.2C198 78.9333 181.967 72.9833 163.8 71.35C162.167 71.25 160.733 71.3 159.5 71.5C157.6 71.8667 157.2 72.85 158.3 74.45C158.933 75.4167 159.767 76.3833 160.8 77.35C164.667 80.8167 170.417 86.0167 178.05 92.95C184.917 99.1833 190.717 104.317 195.45 108.35C198.817 111.25 202.8 114.45 207.4 117.95C209.067 119.217 213.167 122.283 219.7 127.15C220.967 128.083 222.567 129.05 224.5 130.05C225.6 130.65 227.267 131.517 229.5 132.65C229.8 132.817 230.183 132.967 230.65 133.1C230.917 133.167 231.3 133.25 231.8 133.35L236.25 124.5L222.2 109C224.9 110.067 227.683 112.033 230.55 114.9C232.183 116.5 234.533 119.017 237.6 122.45L242.25 117.5C237.65 112.4 235.033 109.5 234.4 108.8Z" fill="white"/>
        <path d="M254.45 189.5C254.817 188.3 255.033 187.633 255.1 187.5L250.95 185C249.717 186.4 249.033 187.2 248.9 187.4C247.167 189.9 246 191.717 245.4 192.85C243.1 197.25 239.783 201.2 235.45 204.7L231.5 207.9C231.633 207.3 232.033 206.6 232.7 205.8C237.5 199.833 241.067 195.333 243.4 192.3C244.2 191.267 245.2 189.9 246.4 188.2C248.067 185.8 249.067 184.383 249.4 183.95L248.95 183.5C247.35 182.167 246.483 181.433 246.35 181.3C245.417 180.4 244.783 179.433 244.45 178.4C244.217 177.767 243.783 177.383 243.15 177.25C242.483 177.15 241.833 177.317 241.2 177.75C240.867 177.983 240.233 178.6 239.3 179.6C237.3 181.867 234.3 185.283 230.3 189.85C226.7 193.917 223.633 197.3 221.1 200C217.8 203.533 213.067 208.033 206.9 213.5C205.033 215.1 202.983 217.167 200.75 219.7C199.45 221.167 197.533 223.383 195 226.35C188.6 233.65 184.083 243.05 181.45 254.55C181.417 254.683 181.283 255.85 181.05 258.05C181.583 257.85 182.133 257.65 182.7 257.45C185.133 256.317 188.767 254.633 193.6 252.4C197.833 250.4 201.417 248.667 204.35 247.2C215.583 241.567 225.233 234.3 233.3 225.4C234.133 224.433 234.967 223.183 235.8 221.65C238.967 215.617 241.317 211.25 242.85 208.55C245.583 203.75 248.25 199.583 250.85 196.05C251.65 195.017 252.6 193.45 253.7 191.35C253.933 190.883 254.183 190.267 254.45 189.5Z" fill="white"/>
        <path d="M428.3 505.6C428.567 502.067 428.333 498.967 427.6 496.3C427.033 494.367 425.85 493.083 424.05 492.45C422.217 491.717 420.567 491.3 419.1 491.2C417.267 491.033 415.883 490.917 414.95 490.85C413.317 490.717 411.917 490.667 410.75 490.7C408.717 490.767 404.767 490.933 398.9 491.2C393.967 491.4 390.017 491.517 387.05 491.55C382.183 491.583 375.867 491.567 368.1 491.5C357.867 491.367 351.55 491.3 349.15 491.3L226.75 490.7C225.45 490.7 223.533 490.633 221 490.5L200.15 489.8C199.183 489.767 198.3 490.067 197.5 490.7C195.1 492.733 193.55 495.017 192.85 497.55C191.25 503.383 191.367 509.05 193.2 514.55C194.567 518.95 197.483 521.45 201.95 522.05C208.817 522.883 213.733 523.333 216.7 523.4C219.4 523.467 223.167 523.45 228 523.35C233.267 523.25 237.017 523.217 239.25 523.25C253.183 523.417 274.067 523.733 301.9 524.2V524.05H319.9C330.567 523.85 346.567 523.5 367.9 523C380.867 522.733 393.083 523.117 404.55 524.15C409.25 524.517 413.083 524.467 416.05 524C419.417 523.467 422 522.433 423.8 520.9C426.1 518.933 427.383 516.05 427.65 512.25C427.983 509.283 428.2 507.067 428.3 505.6Z" fill="white"/>
        <path d="M235.5 68.35C227.033 59.7833 216.667 52.8667 204.4 47.6C202.033 46.5333 200.917 47.3333 201.05 50C201.117 51.7333 201.367 53.2333 201.8 54.5C203.867 60.7667 205.5 65.4333 206.7 68.5C208.4 72.8 210.067 76.4167 211.7 79.35C213.8 83.1167 216.133 86.35 218.7 89.05C221.433 91.9167 225.067 95.4167 229.6 99.55C230.6 100.45 235.967 105.233 245.7 113.9C245.833 114.033 246.067 114.183 246.4 114.35C247.767 113.617 248.667 113.183 249.1 113.05C250.6 112.583 251.217 111.55 250.95 109.95L250.85 108.9C250.817 108.467 250.75 108.117 250.65 107.85C248.917 103.117 247.833 100.283 247.4 99.35C245.9 96.1833 244.717 93.0167 243.85 89.85C246.85 93.1167 249.133 96.3667 250.7 99.6C252.467 103.3 253.383 107.167 253.45 111.2L257.75 110.2L255.65 103.15C254.117 98.1833 253.117 95.0667 252.65 93.8C249.117 84.7333 243.4 76.25 235.5 68.35Z" fill="white"/>
        <path d="M411.35 543.65C411.55 542.517 412.167 538.5 413.2 531.6L413.8 528.75H410.75C407.983 528.75 405.9 528.75 404.5 528.75C402.033 528.75 399.967 528.683 398.3 528.55C388.533 527.683 380.233 527.283 373.4 527.35C359.2 527.717 348.567 527.95 341.5 528.05C326.767 528.25 315.717 528.317 308.35 528.25C285.017 527.817 267.517 527.517 255.85 527.35L210.75 526.65C210.017 526.65 207.867 526.533 204.3 526.3L208.8 550.45C214.467 582.75 217.783 601.567 218.75 606.9C221.017 619.433 223.433 631.483 226 643.05C226.833 646.717 228.117 652.2 229.85 659.5C231.317 665.933 232.35 671.467 232.95 676.1C233.283 678.5 233.983 681.367 235.05 684.7C236.05 687.8 237.917 690.1 240.65 691.6C245.75 694.467 251.283 696.183 257.25 696.75C261.383 697.183 266.883 697.517 273.75 697.75C291.717 698.55 304.183 699.017 311.15 699.15C331.983 699.517 349.4 699.033 363.4 697.7C367.033 697.333 370.483 696.717 373.75 695.85C378.783 694.483 382.117 691.433 383.75 686.7C384.85 683.4 385.683 680.15 386.25 676.95C386.583 675.117 387.083 671.967 387.75 667.5C388.35 663.467 388.883 660.317 389.35 658.05C389.85 655.55 392.75 641.383 398.05 615.55C401.55 598.417 404.283 584.217 406.25 572.95C409.483 554.383 411.183 544.617 411.35 543.65Z" fill="white"/>
        <path d="M259.2 190.5C258.967 189.833 258.75 189.383 258.55 189.15C258.25 188.783 257.833 188.617 257.3 188.65C255.167 193.05 253.817 195.767 253.25 196.8C252.517 198.133 250.117 202.367 246.05 209.5C243.083 214.667 240.733 218.933 239 222.3C230.767 238.3 228.267 255.617 231.5 274.25C232.033 277.383 232.7 282.283 233.5 288.95C233.567 289.417 233.65 290.083 233.75 290.95C233.95 291.683 234.35 292.2 234.95 292.5C235.65 292.8 236.35 292.783 237.05 292.45C237.55 292.217 238.117 291.783 238.75 291.15C241.783 287.95 243.7 285.8 244.5 284.7C251.167 275.1 256.317 265.917 259.95 257.15C264.35 246.683 266.317 236.5 265.85 226.6C265.55 224.133 265.4 222.3 265.4 221.1C265.433 218.7 265.55 215.1 265.75 210.3C265.983 204.567 265.317 198.117 263.75 190.95L260.95 190.05L261.45 191.85C263.317 198.383 262.65 204.383 259.45 209.85L253.55 220.3C253.55 220.333 253.333 220.45 252.9 220.65C253.067 218.483 253.983 215.817 255.65 212.65C257.383 209.35 258.433 207.217 258.8 206.25C260.867 200.883 261 195.633 259.2 190.5Z" fill="white"/>
        <path d="M251.35 27.95C250.517 26.95 249.567 25.6167 248.5 23.95C247.367 22.1167 246.483 20.7333 245.85 19.8L244.65 18.05C244.05 18.35 243.6 18.7833 243.3 19.35C243.133 19.6833 242.967 20.2167 242.8 20.95C242.033 24.6167 241.283 28.5333 240.55 32.7C238.317 45.4333 238.717 57.0833 241.75 67.65C242.783 71.45 244.217 74.5167 246.05 76.85C251.083 83.2167 254.35 89.9167 255.85 96.95C256.183 98.55 256.633 100.167 257.2 101.8C257.9 103.933 258.733 106.167 259.7 108.5C259.8 108.8 259.983 109.067 260.25 109.3C260.483 109.567 260.717 109.717 260.95 109.75C261.783 109.783 264.3 109.8 268.5 109.8C267.8 104.467 267.3 100.467 267 97.8C266.467 93.1667 266.3 89.2167 266.5 85.95C267.8 89.15 268.683 93.0833 269.15 97.75C269.45 100.517 269.833 104.667 270.3 110.2L276.45 111.35V107.25C276.45 106.45 276.367 105.583 276.2 104.65C275.867 102.75 275.35 100.167 274.65 96.9C273.75 92.5667 273.15 89.55 272.85 87.85C272.283 84.45 271.917 81.4 271.75 78.7C271.617 74.9333 271.367 72.15 271 70.35C267.6 53.7833 261.05 39.65 251.35 27.95Z" fill="white"/>
        <path d="M313.45 154.6C312.783 149.7 311.583 145.15 309.85 140.95C306.483 132.95 301.783 126.8 295.75 122.5C285.283 115 273.983 111.85 261.85 113.05C252.217 114.05 244.983 118.317 240.15 125.85C236.117 132.183 234.333 139.45 234.8 147.65C235.433 158.683 239.75 168.317 247.75 176.55C256.483 185.55 266.8 190.067 278.7 190.1C285.9 190.133 292.55 188.417 298.65 184.95C304.183 181.717 308.25 177.433 310.85 172.1C313.45 166.767 314.317 160.933 313.45 154.6Z" fill="white"/>
        <path d="M293.85 197.4C293.017 196.033 291.767 194.533 290.1 192.9C289.667 192.467 289.25 192.283 288.85 192.35C288.117 192.45 286.133 192.767 282.9 193.3C285.1 197.9 286.433 202.133 286.9 206C286.367 206.1 286 206.133 285.8 206.1C285.467 206.033 285.233 205.817 285.1 205.45L284.55 203.4C283.95 201.1 283.467 199.383 283.1 198.25C282.467 196.383 281.733 194.767 280.9 193.4C275.233 193 271.7 192.783 270.3 192.75C268.833 192.717 267.85 192.967 267.35 193.5C266.85 194.033 266.633 195.017 266.7 196.45L267.9 222.55C268.067 225.95 268.267 228.583 268.5 230.45C268.833 233.317 269.383 235.883 270.15 238.15C270.917 240.55 271.55 242.7 272.05 244.6L275.8 260.2C276.5 262.967 277.6 267.083 279.1 272.55C280.333 277.35 281.117 281.55 281.45 285.15C281.55 286.117 281.933 288.417 282.6 292.05C283.6 291.683 284.417 291.083 285.05 290.25C285.483 289.717 285.933 288.883 286.4 287.75C288.767 282.217 290.967 275.05 293 266.25C294.333 261.05 295.317 257.15 295.95 254.55C297.083 249.917 297.85 245.95 298.25 242.65C298.683 238.883 298.917 236.267 298.95 234.8C299.05 231.867 298.783 229.25 298.15 226.95C297.95 226.283 297.733 224.7 297.5 222.2C296.367 210.067 295.767 203.633 295.7 202.9C295.533 200.967 294.917 199.133 293.85 197.4Z" fill="white"/>
        <path d="M268.2 250.7C267.3 254.033 267.05 257.283 267.45 260.45C268.083 266.35 268.733 271.017 269.4 274.45C271.4 284.483 275.05 297.05 280.35 312.15C281.617 315.717 284.6 324.033 289.3 337.1C293 347.333 295.95 355.633 298.15 362C306.017 384.733 310.55 407.133 311.75 429.2C312.883 448.667 312.65 466.883 311.05 483.85C311.05 483.95 311 484.833 310.9 486.5H314.85C317.483 456.4 316.45 427.7 311.75 400.4L309.2 399.35C310.133 398.683 310.667 397.9 310.8 397C310.9 396.433 310.833 395.567 310.6 394.4C308.733 384.533 306.133 373.5 302.8 361.3C300.5 352.8 297.283 342.15 293.15 329.35C286.95 310.217 283.517 299.6 282.85 297.5C282.617 296.767 282.333 296.333 282 296.2C281.433 296 281 295.65 280.7 295.15C280.533 294.85 280.367 294.333 280.2 293.6C279.733 291.633 279.417 290.15 279.25 289.15C277.15 276.55 274.917 266.083 272.55 257.75C272.183 256.417 271.317 253.05 269.95 247.65L269.35 247.6C268.617 249.533 268.233 250.567 268.2 250.7Z" fill="white"/>
        <path d="M305.7 11.4L303.05 13.85C297.317 19.55 292.35 26.1 288.15 33.5C282.617 43.3667 278.917 53.4333 277.05 63.7C276.35 67.5667 276.1 71.7833 276.3 76.35C276.433 79.8167 276.85 84.0333 277.55 89C277.883 91.3667 278.383 94.8833 279.05 99.55C279.583 103.65 279.917 107.183 280.05 110.15C280.05 110.617 280.117 111.35 280.25 112.35L282.9 113.2C283.1 112.867 283.4 112.4 283.8 111.8C284.133 111.3 284.367 110.85 284.5 110.45C285.6 107.25 286.4 104.583 286.9 102.45C288.167 96.85 289.15 92.65 289.85 89.85C290.05 88.9833 290.3 88.3167 290.6 87.85C290.867 87.45 291.3 86.9667 291.9 86.4C290.667 92.5 289.833 96.8167 289.4 99.35C288.367 105.317 286.933 110.033 285.1 113.5C285.067 113.533 285.15 113.783 285.35 114.25C285.617 113.917 285.95 113.533 286.35 113.1C289.283 107.867 290.85 105.1 291.05 104.8C291.683 103.767 292.967 101.733 294.9 98.7C296.533 96.2 297.8 94.1667 298.7 92.6C302.7 85.6 305.333 78.95 306.6 72.65C308.133 64.8833 308.517 55.25 307.75 43.75L306.05 14.55C305.917 13.3833 305.8 12.3333 305.7 11.4Z" fill="white"/>
        <path d="M348.95 58.65C350.15 52.3833 350.767 49.1667 350.8 49C351.333 45.8 351.65 43.75 351.75 42.85C351.817 41.8833 351.633 41.2667 351.2 41C350.767 40.7 350.133 40.8167 349.3 41.35C348.2 42.05 346.817 43.1333 345.15 44.6C337.683 51.4667 332.833 56 330.6 58.2C323.5 65.2 317.8 71.0333 313.5 75.7C309 80.5333 305.333 85.85 302.5 91.65C301.8 93.0833 300.867 94.7 299.7 96.5C298.3 98.6 297.25 100.167 296.55 101.2C293.883 104.9 291.917 107.7 290.65 109.6C290.217 110.267 289.717 111.133 289.15 112.2C288.55 113.4 288.083 114.3 287.75 114.9L295.1 118.75C300.067 113.683 304.8 107.2 309.3 99.3C309.233 103.033 308.267 106.033 306.4 108.3C305.7 109.133 302.967 112.25 298.2 117.65L296.35 119.5L303.3 124.75C303.333 124.717 303.883 124.3 304.95 123.5C305.55 123.033 306.017 122.617 306.35 122.25C309.35 118.85 311.483 116.267 312.75 114.5C316.117 109.767 319.367 106.033 322.5 103.3C326 100.3 329.083 97.5333 331.75 95C339.517 87.5333 344.567 78.6167 346.9 68.25C347.5 65.7167 348.183 62.5167 348.95 58.65Z" fill="white"/>
        <path d="M295.55 195.15C297.983 207.683 299.4 215.133 299.8 217.5C301 224.4 302.617 230.567 304.65 236C307.017 242.233 310.05 247.85 313.75 252.85C316.75 256.883 319.55 260.317 322.15 263.15C325.35 266.65 328.617 269.633 331.95 272.1C335.15 274.4 338.1 276.1 340.8 277.2C340.933 275.267 341 273.983 341 273.35C341 263.25 339.55 253.317 336.65 243.55C333.05 231.35 326.8 218.283 317.9 204.35C315.433 200.45 312.367 196.883 308.7 193.65C305.833 190.95 303.6 188.867 302 187.4C299.6 188.6 298.283 189.267 298.05 189.4C296.817 190.133 296.017 190.917 295.65 191.75C295.317 192.55 295.283 193.683 295.55 195.15Z" fill="white"/>
        <path d="M400.3 89.1C400.9 88.6667 401.333 88.3 401.6 88C401.967 87.5 402.083 86.9667 401.95 86.4C401.817 85.8333 401.45 85.4333 400.85 85.2C400.617 85.1333 400.067 85.0333 399.2 84.9C394.933 84.3 391.75 83.9667 389.65 83.9C380.35 83.6 371.55 84.35 363.25 86.15C342.483 90.7167 326.217 101.067 314.45 117.2C312.883 119.367 311.533 121.05 310.4 122.25C308.8 123.983 307.15 125.35 305.45 126.35C305.417 126.35 305.367 126.517 305.3 126.85L306.4 128.05L307.1 128.55C313.233 123.183 320.967 118.883 330.3 115.65C328.733 117.017 327.067 118.217 325.3 119.25C321.833 121.117 319.25 122.55 317.55 123.55C313.983 125.65 310.983 127.95 308.55 130.45C308.917 130.95 309.35 131.533 309.85 132.2C310.283 133.1 310.883 133.7 311.65 134C312.25 134.2 313.083 134.25 314.15 134.15C322.05 133.283 329.5 131.533 336.5 128.9C343.167 126.367 350.017 123.117 357.05 119.15C362.917 115.85 369.317 111.783 376.25 106.95C380.383 104.05 386.45 99.4833 394.45 93.25C395.717 92.2833 397.667 90.9 400.3 89.1Z" fill="white"/>
        <path d="M395.05 144.55L412.15 134.85C412.583 134.583 413.383 134.017 414.55 133.15C413.383 132.383 412.567 131.917 412.1 131.75C410.2 131.05 408.767 130.533 407.8 130.2C406.1 129.6 404.65 129.167 403.45 128.9C397.283 127.6 391.783 126.667 386.95 126.1C381.583 125.433 376.65 125.15 372.15 125.25C368.583 125.317 363.333 125.75 356.4 126.55C352.967 126.983 349.817 127.85 346.95 129.15C340.983 131.85 335.583 133.733 330.75 134.8C324.583 136.2 319.633 136.967 315.9 137.1C315.833 137.1 314.967 137.233 313.3 137.5L316.2 144.5C320.3 143.1 325.383 141.983 331.45 141.15C334.85 140.683 339.967 140 346.8 139.1C345.7 139.8 344.7 140.233 343.8 140.4C336.467 141.633 330.967 142.6 327.3 143.3C322.967 144.133 319.5 145.217 316.9 146.55L318.2 156.7C321.567 157.067 325.133 156.85 328.9 156.05C336.233 154.45 342.133 153 346.6 151.7C357.9 148.433 369.517 147.667 381.45 149.4C382.15 149.5 382.933 149.433 383.8 149.2C387.433 148.267 391.183 146.717 395.05 144.55Z" fill="white"/>
        <path d="M388 254.7L389.85 255.25C389.75 254.483 389.683 253.933 389.65 253.6C389.55 253.033 389.433 252.583 389.3 252.25C387.433 247.25 385.95 243.55 384.85 241.15C379.55 229.617 373.3 219.517 366.1 210.85C359.667 203.15 352.467 197.467 344.5 193.8C343.967 193.567 342 192.483 338.6 190.55C336.4 189.25 334.017 187.567 331.45 185.5C330.35 184.6 328.133 182.717 324.8 179.85C322.567 177.95 321 176.65 320.1 175.95C318.267 174.55 316.517 173.417 314.85 172.55L311.6 178.2C312.067 178.533 312.35 178.7 312.45 178.7C317.683 179.967 322.517 182.95 326.95 187.65C328.983 189.817 334.55 195.983 343.65 206.15C342.45 206.017 341.3 205.4 340.2 204.3L327.8 191.95C323.3 187.45 319.183 184.317 315.45 182.55C313.017 181.55 311.25 180.817 310.15 180.35L304.05 186.1L305.95 187.85C306.717 188.55 307.383 189.117 307.95 189.55C311.583 192.35 314.633 195.383 317.1 198.65C321.9 205.05 325.933 210.7 329.2 215.6C334.967 224.333 341.617 231.617 349.15 237.45C358.35 244.583 367.817 249.233 377.55 251.4C379.017 251.733 380.767 252.233 382.8 252.9C383.967 253.3 385.7 253.9 388 254.7Z" fill="white"/>
        <path d="M426.05 171.8C416.817 165.033 407.783 159.983 398.95 156.65C392.217 154.083 384.767 152.45 376.6 151.75C368.933 151.083 361.683 151.383 354.85 152.65C352.75 153.05 350.2 153.65 347.2 154.45C343.8 155.35 341.25 156.017 339.55 156.45C335.683 157.417 332.4 158.083 329.7 158.45C326.1 158.917 322.75 158.983 319.65 158.65C319.517 158.65 318.933 158.683 317.9 158.75L317.75 161.05L319.05 160.8C322.45 160.033 325.3 159.933 327.6 160.5C333.4 161.9 341.183 163.867 350.95 166.4C347.983 166.8 344.433 166.533 340.3 165.6C334.933 164.367 330.333 163.4 326.5 162.7C323.967 162.233 321.367 162.467 318.7 163.4C317.9 163.733 317.4 164.167 317.2 164.7C317.133 164.933 316.783 166.417 316.15 169.15C319.083 170.683 322.417 172.867 326.15 175.7C328.25 177.3 331.383 179.717 335.55 182.95C340.217 186.417 344.05 188.867 347.05 190.3C361.55 197.3 376.483 198.967 391.85 195.3C395.317 194.467 399.4 193.367 404.1 192C406.8 191.2 410.85 189.983 416.25 188.35C420.583 187.083 423.7 186.217 425.6 185.75C429.1 184.917 432.267 184.35 435.1 184.05C435.567 184.017 436.15 183.883 436.85 183.65C437.283 183.517 438.017 183.283 439.05 182.95C437.25 181.017 436.233 179.95 436 179.75C431.367 175.883 428.05 173.233 426.05 171.8Z" fill="white"/>
        <path d="M481.75 460.5L481.65 459.95L480.3 459.6C475.967 459.033 471.45 457.783 466.75 455.85C459.85 453.083 452.817 448.717 445.65 442.75C440.217 438.283 433.45 431.617 425.35 422.75C418.95 415.783 415.483 412.017 414.95 411.45C410.95 407.217 407.3 403.633 404 400.7C395.467 393.1 386.933 387.55 378.4 384.05C369.733 380.483 361.3 379.283 353.1 380.45C342.067 382.117 331.733 385.717 322.1 391.25C321.3 391.717 320.2 392.45 318.8 393.45C318.967 393.45 320 393.433 321.9 393.4C323 393.367 323.883 393.383 324.55 393.45C326.717 393.75 328.5 394.167 329.9 394.7C339.5 398.1 347.9 403.05 355.1 409.55C360.2 414.183 365.383 419.4 370.65 425.2C377.217 432.367 381.567 437.067 383.7 439.3C388.7 444.467 393.333 448.867 397.6 452.5C406 459.567 414.283 464.933 422.45 468.6C432.117 472.967 441.85 474.017 451.65 471.75C460.583 469.717 469.017 466.833 476.95 463.1C477.583 462.833 479.183 461.967 481.75 460.5Z" fill="white"/>
        <path d="M480.05 457.15H482.15C478.25 454.783 474.6 451.867 471.2 448.4C469.233 446.367 467.2 443.95 465.1 441.15C463.867 439.45 462.083 436.85 459.75 433.35C452.05 421.783 446.933 414.25 444.4 410.75C435.867 399.05 426.317 389.8 415.75 383C395.65 369.967 374.667 365.1 352.8 368.4C341.2 370.2 331.317 374.567 323.15 381.5C321.383 383.033 319.733 384.917 318.2 387.15C317.067 388.817 315.817 390.983 314.45 393.65L317.7 391C319 389.933 320.117 389.117 321.05 388.55C327.983 384.35 335.467 381.183 343.5 379.05C349.2 377.583 354.567 376.85 359.6 376.85C365.933 376.883 372.433 378.35 379.1 381.25C389.567 385.817 399.6 392.817 409.2 402.25C412.067 405.083 415.483 408.633 419.45 412.9C421.683 415.3 425.033 418.917 429.5 423.75C434.133 428.717 437.883 432.583 440.75 435.35C445.05 439.45 449.183 442.917 453.15 445.75C461.45 451.75 470.417 455.55 480.05 457.15Z" fill="white"/>
        <path d="M405.75 89.6C407.383 87.6666 407.2 86.0333 405.2 84.7C403.167 83.2666 401.333 82.3667 399.7 82C396.367 81.2 392.983 80.7 389.55 80.5C386.45 80.3333 382.967 80.4667 379.1 80.9C376.933 81.1333 373.5 81.6333 368.8 82.4C357.833 84.2 348.217 87.2666 339.95 91.6C339.117 91.9666 338.5 92.25 338.1 92.45C338.267 91.85 338.717 91 339.45 89.9C346.317 80.5 350.517 71.2833 352.05 62.25C353.55 54.1833 354.65 48.1333 355.35 44.1C355.717 42.1 355.867 40.1 355.8 38.1C355.767 36.8 355.483 35.9833 354.95 35.65C354.45 35.2833 353.55 35.2833 352.25 35.65C349.25 36.4167 346.517 37.85 344.05 39.95C341.35 42.2833 337.883 45.5 333.65 49.6C329.017 54.3 325.533 57.8167 323.2 60.15L310.3 73C310.267 73.0333 310.083 73.05 309.75 73.05L309.9 72.1C311.433 65.6333 312.017 58.4167 311.65 50.45C311.15 39.15 310.75 30.6833 310.45 25.05C309.983 17.8167 309.633 12.3833 309.4 8.74999C309.333 7.38332 308.867 6.53332 308 6.19999C307.1 5.86665 306.15 6.13332 305.15 6.99999C302.083 9.76665 300.25 11.4333 299.65 12C287.783 24.0667 279.1 39.6833 273.6 58.85C273.367 59.6833 273.1 60.9667 272.8 62.7C272.433 62.4333 272.15 62.05 271.95 61.55C269.117 50.6833 263.817 40.2 256.05 30.1C252.85 25.9333 250.4 22.2833 248.7 19.15C248.2 18.2167 247.417 17.0167 246.35 15.55C245.55 14.55 244.85 14.0667 244.25 14.1C243.683 14.1333 243.017 14.6833 242.25 15.75C240.317 18.45 239.067 21.45 238.5 24.75C238.333 25.75 237.567 30.9667 236.2 40.4C234.967 49.6 235.517 57.9833 237.85 65.55C237.917 65.75 237.95 66.0833 237.95 66.55L237.4 66.9C236.8 66 236.483 65.5333 236.45 65.5C230.65 59.7 224.05 54.5666 216.65 50.1C211.817 47.2333 206.917 44.9167 201.95 43.15C200.85 42.7833 200.05 42.6833 199.55 42.85C199.05 43.0166 198.55 43.6 198.05 44.6C197.217 46.4333 196.783 47.95 196.75 49.15C196.75 52.4167 197 55.0333 197.5 57C198.533 61.2 200.067 65.6 202.1 70.2C203.733 73.8 205.867 77.9666 208.5 82.7L209.2 84.15C208.267 83.9167 207.217 83.4 206.05 82.6C200.95 79.3333 195.5 76.6666 189.7 74.6C181.7 71.7666 172.633 70.0833 162.5 69.55C160.167 69.4167 157.367 69.3833 154.1 69.45C152.5 69.45 152.117 70.15 152.95 71.55C153.417 72.35 154.033 73.2833 154.8 74.35C157.367 77.95 160.917 81.7167 165.45 85.65L188.1 105.5C187.333 105.433 186.5 105.183 185.6 104.75C177 101.117 168.8 99.25 161 99.15C157.7 99.1167 152.75 99.4 146.15 100C144.25 100.167 142.183 100.717 139.95 101.65C138.55 102.283 137.7 103.133 137.4 104.2C137.1 105.233 137.333 106.417 138.1 107.75C139.167 109.617 140.2 111.033 141.2 112C143.033 113.833 145.767 116.583 149.4 120.25C152.6 123.383 155.433 126.033 157.9 128.2C165.767 135.167 173.55 140.117 181.25 143.05C181.383 143.117 181.517 143.233 181.65 143.4C175.817 144 171.483 144.583 168.65 145.15C165.117 145.883 161.45 147.117 157.65 148.85C154.717 150.15 151.283 151.967 147.35 154.3L124.05 168.1C123.983 168.133 123.45 168.583 122.45 169.45C122.55 169.517 122.967 169.85 123.7 170.45C124.1 170.783 124.45 171.017 124.75 171.15C128.083 172.617 130.533 173.55 132.1 173.95C134.8 174.65 137.917 175.15 141.45 175.45C143.183 175.617 146.333 175.783 150.9 175.95C153.567 176.017 157.567 176.217 162.9 176.55L181.55 177.75C182.017 177.783 184.233 177.8 188.2 177.8L186.05 178.85C184.517 179.683 182.2 180.883 179.1 182.45C176.333 183.85 174.067 185.1 172.3 186.2C165.533 190.4 159.083 195.617 152.95 201.85C147.65 207.183 142.317 213.55 136.95 220.95C135.817 222.517 134.767 224.583 133.8 227.15C133.4 228.283 133.35 229.233 133.65 230C133.95 230.767 134.633 231.5 135.7 232.2C137.3 233.3 139.467 234.033 142.2 234.4C151.533 235.4 160.217 234.533 168.25 231.8C175.483 229.333 184.567 225.4 195.5 220L197.45 219.05C197.317 219.683 197 220.3 196.5 220.9C191.8 226.433 188.933 229.867 187.9 231.2C183.4 236.967 180.2 242.567 178.3 248C176.867 252.1 176.367 255.617 176.8 258.55C176.967 259.45 177.183 260.033 177.45 260.3C177.717 260.6 178.317 260.817 179.25 260.95C180.983 261.217 183.067 260.8 185.5 259.7C197.933 253.933 205.667 250.317 208.7 248.85C211.7 247.45 214.117 246.033 215.95 244.6C217.617 243.3 219.7 241.617 222.2 239.55C225.933 236.417 227.983 234.7 228.35 234.4L230.9 232.15C230.967 232.883 230.85 233.65 230.55 234.45C227.75 242.85 226.433 251.667 226.6 260.9C226.667 264.933 227.133 270.117 228 276.45C229.133 284.783 229.783 289.933 229.95 291.9C230.05 293 230.45 294.2 231.15 295.5C231.85 296.767 232.767 297.55 233.9 297.85C235.033 298.15 236.217 297.917 237.45 297.15C238.85 296.217 239.833 295.4 240.4 294.7C243.3 291.367 245.467 288.85 246.9 287.15C249.367 284.217 251.433 281.633 253.1 279.4C255.2 276.567 257.15 273.233 258.95 269.4C260.217 266.7 261.683 263.1 263.35 258.6C263.517 258.067 263.65 257.667 263.75 257.4C263.95 256.9 264.25 256.483 264.65 256.15V257.35C264.683 267.85 266.35 278.967 269.65 290.7C271.117 295.9 273.067 301.983 275.5 308.95C276.9 312.983 279.033 319 281.9 327L296.75 369.3C297.15 370.5 297.683 372.317 298.35 374.75C297.75 374.383 297.233 373.8 296.8 373C291.7 364.2 288.533 358.733 287.3 356.6C279.9 343.6 271.167 333.3 261.1 325.7C250.433 317.733 238.6 313.45 225.6 312.85C219.367 312.617 211.967 313.133 203.4 314.4C196.3 315.567 190.983 316.417 187.45 316.95C181.183 317.917 175.817 318.55 171.35 318.85C165.45 319.217 159.8 319.017 154.4 318.25C152.4 317.95 150.183 317.45 147.75 316.75C146.483 316.383 144.317 315.683 141.25 314.65C137.85 313.483 136.35 314.683 136.75 318.25C136.817 318.783 136.9 319.167 137 319.4C137.2 319.967 137.467 320.817 137.8 321.95C138.1 322.917 138.433 323.717 138.8 324.35C141.833 329.883 144.783 335 147.65 339.7C158.717 357.8 173.15 371.65 190.95 381.25C200.917 386.617 211.933 389.533 224 390C229.333 390.2 235.683 389.967 243.05 389.3C247.25 388.933 253.567 388.3 262 387.4C271.2 386.5 278.833 386.733 284.9 388.1C292.967 389.933 299.233 393.917 303.7 400.05C304.267 400.783 304.717 401.7 305.05 402.8C305.283 403.667 305.5 405.017 305.7 406.85C306.533 412.283 307.2 420 307.7 430C308.533 445.767 308.633 460.083 308 472.95C307.933 474.25 307.617 478.8 307.05 486.6H303.85C279.217 486.7 260.75 486.833 248.45 487C248.35 487 232.033 487.3 199.5 487.9C198.967 487.9 198.417 488 197.85 488.2C193.55 489.567 190.783 492.517 189.55 497.05C188.35 501.517 188.083 506.75 188.75 512.75C189.083 515.65 190.05 518.117 191.65 520.15C193.25 522.183 195.433 523.683 198.2 524.65C199.167 524.983 199.9 525.467 200.4 526.1C200.867 526.633 201.217 527.383 201.45 528.35L201.95 530.95C203.117 538.45 203.833 542.95 204.1 544.45C208.833 571.783 211.983 589.65 213.55 598.05C214.75 604.483 217.85 620.15 222.85 645.05C223.517 648.317 224.567 653.2 226 659.7C227.433 666.2 228.483 671.083 229.15 674.35C229.817 677.617 230.317 679.883 230.65 681.15C231.25 683.683 231.917 685.9 232.65 687.8C233.95 691.1 235.783 693.45 238.15 694.85C241.15 696.65 244.183 698.233 247.25 699.6C249.35 700.567 251.767 701.267 254.5 701.7C256.3 701.967 258.8 702.183 262 702.35C263.533 702.417 265.817 702.467 268.85 702.5C271.917 702.5 274.2 702.533 275.7 702.6C276.967 702.667 280.883 702.883 287.45 703.25C292.217 703.517 296.117 703.683 299.15 703.75C313.15 704.117 327.15 704.317 341.15 704.35C350.45 704.383 360 703.583 369.8 701.95C373.8 701.25 376.817 700.283 378.85 699.05C382.75 696.683 385.683 692.8 387.65 687.4C389.083 683.5 390.2 678.117 391 671.25C392.233 660.183 393.95 649.383 396.15 638.85C399.75 622.617 402.35 610.417 403.95 602.25C405.85 592.583 409.217 574.6 414.05 548.3C415.35 540.967 416.333 535.467 417 531.8C417.233 530.367 417.65 529.267 418.25 528.5C418.983 527.567 420.033 526.95 421.4 526.65C424.833 525.883 426.967 523.933 427.8 520.8C428.133 520.033 428.383 519.45 428.55 519.05C431.55 512.217 432.483 505.917 431.35 500.15C430.883 497.617 430.15 495.583 429.15 494.05C427.95 492.117 426.317 490.783 424.25 490.05C418.683 488.05 414.217 486.917 410.85 486.65C407.817 486.383 404.2 486.25 400 486.25C395.133 486.283 391.483 486.3 389.05 486.3C387.983 486.267 386.517 486.3 384.65 486.4C382.55 486.467 381.067 486.5 380.2 486.5H319.05C320.35 470.2 320.75 455.7 320.25 443C319.817 430.267 318.217 415.983 315.45 400.15C318.083 398.017 321.067 396.983 324.4 397.05C327.067 397.083 329.783 397.667 332.55 398.8C336.783 400.5 341.433 403.3 346.5 407.2C349.967 409.9 353.583 413.1 357.35 416.8C360.083 419.467 363.433 422.95 367.4 427.25C374.733 435.15 379.267 440 381 441.8C386.233 447.2 391.067 451.75 395.5 455.45C404.233 462.85 412.717 468.517 420.95 472.45C429.35 476.45 437.4 478.067 445.1 477.3C455.467 476.2 465 473.667 473.7 469.7C479.333 467.167 484.083 464.1 487.95 460.5C489.183 459.333 489.717 458.417 489.55 457.75C489.417 457.083 488.533 456.45 486.9 455.85L483.55 454.6C478.483 452.3 473.7 448.383 469.2 442.85C465.9 438.683 462.267 433.133 458.3 426.2C452.1 415.267 444.817 405.483 436.45 396.85C425.517 385.55 413.867 377.283 401.5 372.05C382.967 364.25 364.35 362.417 345.65 366.55C332.117 369.583 321.867 376.75 314.9 388.05C314.833 388.15 314.367 388.783 313.5 389.95L312.8 387.1C309.8 373.067 306.467 360.15 302.8 348.35C300.9 342.25 298.483 334.733 295.55 325.8C292.25 315.8 289.783 308.283 288.15 303.25L285.65 295.5C285.417 294.6 285.517 293.933 285.95 293.5C287.517 291.933 288.883 289.983 290.05 287.65C290.817 286.117 291.733 283.9 292.8 281C296.7 270.3 299.683 258.133 301.75 244.5C301.783 244.333 301.983 243.733 302.35 242.7L304.05 246.3C309.617 257.067 318.067 266.517 329.4 274.65C333.5 277.517 337.583 279.683 341.65 281.15C342.85 281.583 343.683 281.617 344.15 281.25C344.65 280.917 344.933 280.117 345 278.85C345.867 263.383 343.283 248.15 337.25 233.15L336.65 231.25L337.2 230.9C337.567 231.333 338.1 232.017 338.8 232.95C342.467 236.45 345.7 239.3 348.5 241.5C352.167 244.367 355.8 246.7 359.4 248.5C362.833 250.233 365.55 251.517 367.55 252.35C370.583 253.583 373.433 254.45 376.1 254.95C379.567 255.617 382.05 256.167 383.55 256.6C386.283 257.367 388.65 258.35 390.65 259.55C391.617 260.117 392.383 260.217 392.95 259.85C393.55 259.483 393.783 258.75 393.65 257.65C393.45 255.45 392.95 253.367 392.15 251.4C391.383 249.567 390.333 247.167 389 244.2C387.367 240.567 386.283 238.15 385.75 236.95C380.517 225.217 373.683 215.25 365.25 207.05C364.217 206.05 362.933 204.917 361.4 203.65C359.633 202.25 358.3 201.183 357.4 200.45C357.067 200.15 356.317 199.617 355.15 198.85C355.583 198.683 356.1 198.667 356.7 198.8C357 198.867 358.6 199.233 361.5 199.9C363.4 200.333 365 200.633 366.3 200.8C376.1 202.067 386.483 201.367 397.45 198.7C404.583 196.967 413.467 194.1 424.1 190.1C429.633 187.967 434.533 187.05 438.8 187.35C439.8 187.417 440.817 187.25 441.85 186.85C443.45 186.283 443.933 185.2 443.3 183.6C443.1 182.967 442.717 182.283 442.15 181.55C439.917 178.883 438.55 177.3 438.05 176.8C433.283 171.933 427.267 167.467 420 163.4C408.867 157.067 398.717 152.917 389.55 150.95C389.283 150.717 389.1 150.583 389 150.55C390.233 149.95 392.067 149.083 394.5 147.95C396.633 146.917 398.4 146 399.8 145.2C401.933 144.033 405.083 142.217 409.25 139.75C412.95 137.717 416.267 136.233 419.2 135.3C419.433 135.233 419.667 135.067 419.9 134.8C420.133 134.533 420.267 134.267 420.3 134C420.367 133.867 420.283 133.65 420.05 133.35C419.85 133.083 419.633 132.9 419.4 132.8C415.667 130.833 413.083 129.567 411.65 129C407.383 127.267 402.583 125.917 397.25 124.95C393.183 124.217 388.233 123.633 382.4 123.2C374.467 122.633 367.45 122.633 361.35 123.2C361.183 123.2 360.5 123.15 359.3 123.05L361.85 121.55C363.783 120.383 366.667 118.617 370.5 116.25C373.933 114.15 376.817 112.333 379.15 110.8C382.983 108.267 387.317 105.05 392.15 101.15C394.917 98.8833 399.05 95.4167 404.55 90.75C404.95 90.45 405.35 90.0666 405.75 89.6ZM345.15 44.6C346.817 43.1333 348.2 42.05 349.3 41.35C350.133 40.8166 350.767 40.7 351.2 41C351.633 41.2667 351.817 41.8833 351.75 42.85C351.65 43.75 351.333 45.8 350.8 49C350.767 49.1667 350.15 52.3833 348.95 58.65C348.183 62.5167 347.5 65.7167 346.9 68.25C344.567 78.6167 339.517 87.5333 331.75 95C329.083 97.5333 326 100.3 322.5 103.3C319.367 106.033 316.117 109.767 312.75 114.5C311.483 116.267 309.35 118.85 306.35 122.25C306.017 122.617 305.55 123.033 304.95 123.5C303.883 124.3 303.333 124.717 303.3 124.75L296.35 119.5L298.2 117.65C302.967 112.25 305.7 109.133 306.4 108.3C308.267 106.033 309.233 103.033 309.3 99.3C304.8 107.2 300.067 113.683 295.1 118.75L287.75 114.9C288.083 114.3 288.55 113.4 289.15 112.2C289.717 111.133 290.217 110.267 290.65 109.6C291.917 107.7 293.883 104.9 296.55 101.2C297.25 100.167 298.3 98.6 299.7 96.5C300.867 94.7 301.8 93.0833 302.5 91.65C305.333 85.85 309 80.5333 313.5 75.7C317.8 71.0333 323.5 65.2 330.6 58.2C332.833 56 337.683 51.4667 345.15 44.6ZM400.85 85.2C401.45 85.4333 401.817 85.8333 401.95 86.4C402.083 86.9667 401.967 87.5 401.6 88C401.333 88.3 400.9 88.6666 400.3 89.1C397.667 90.9 395.717 92.2833 394.45 93.25C386.45 99.4833 380.383 104.05 376.25 106.95C369.317 111.783 362.917 115.85 357.05 119.15C350.017 123.117 343.167 126.367 336.5 128.9C329.5 131.533 322.05 133.283 314.15 134.15C313.083 134.25 312.25 134.2 311.65 134C310.883 133.7 310.283 133.1 309.85 132.2C309.35 131.533 308.917 130.95 308.55 130.45C310.983 127.95 313.983 125.65 317.55 123.55C319.25 122.55 321.833 121.117 325.3 119.25C327.067 118.217 328.733 117.017 330.3 115.65C320.967 118.883 313.233 123.183 307.1 128.55L306.4 128.05L305.3 126.85C305.367 126.517 305.417 126.35 305.45 126.35C307.15 125.35 308.8 123.983 310.4 122.25C311.533 121.05 312.883 119.367 314.45 117.2C326.217 101.067 342.483 90.7167 363.25 86.15C371.55 84.35 380.35 83.6 389.65 83.9C391.75 83.9667 394.933 84.3 399.2 84.9C400.067 85.0333 400.617 85.1333 400.85 85.2ZM386.95 126.1C391.783 126.667 397.283 127.6 403.45 128.9C404.65 129.167 406.1 129.6 407.8 130.2C408.767 130.533 410.2 131.05 412.1 131.75C412.567 131.917 413.383 132.383 414.55 133.15C413.383 134.017 412.583 134.583 412.15 134.85L395.05 144.55C391.183 146.717 387.433 148.267 383.8 149.2C382.933 149.433 382.15 149.5 381.45 149.4C369.517 147.667 357.9 148.433 346.6 151.7C342.133 153 336.233 154.45 328.9 156.05C325.133 156.85 321.567 157.067 318.2 156.7L316.9 146.55C319.5 145.217 322.967 144.133 327.3 143.3C330.967 142.6 336.467 141.633 343.8 140.4C344.7 140.233 345.7 139.8 346.8 139.1C339.967 140 334.85 140.683 331.45 141.15C325.383 141.983 320.3 143.1 316.2 144.5L313.3 137.5C314.967 137.233 315.833 137.1 315.9 137.1C319.633 136.967 324.583 136.2 330.75 134.8C335.583 133.733 340.983 131.85 346.95 129.15C349.817 127.85 352.967 126.983 356.4 126.55C363.333 125.75 368.583 125.317 372.15 125.25C376.65 125.15 381.583 125.433 386.95 126.1ZM347.2 154.45C350.2 153.65 352.75 153.05 354.85 152.65C361.683 151.383 368.933 151.083 376.6 151.75C384.767 152.45 392.217 154.083 398.95 156.65C407.783 159.983 416.817 165.033 426.05 171.8C428.05 173.233 431.367 175.883 436 179.75C436.233 179.95 437.25 181.017 439.05 182.95C438.017 183.283 437.283 183.517 436.85 183.65C436.15 183.883 435.567 184.017 435.1 184.05C432.267 184.35 429.1 184.917 425.6 185.75C423.7 186.217 420.583 187.083 416.25 188.35C410.85 189.983 406.8 191.2 404.1 192C399.4 193.367 395.317 194.467 391.85 195.3C376.483 198.967 361.55 197.3 347.05 190.3C344.05 188.867 340.217 186.417 335.55 182.95C331.383 179.717 328.25 177.3 326.15 175.7C322.417 172.867 319.083 170.683 316.15 169.15C316.783 166.417 317.133 164.933 317.2 164.7C317.4 164.167 317.9 163.733 318.7 163.4C321.367 162.467 323.967 162.233 326.5 162.7C330.333 163.4 334.933 164.367 340.3 165.6C344.433 166.533 347.983 166.8 350.95 166.4C341.183 163.867 333.4 161.9 327.6 160.5C325.3 159.933 322.45 160.033 319.05 160.8L317.75 161.05L317.9 158.75C318.933 158.683 319.517 158.65 319.65 158.65C322.75 158.983 326.1 158.917 329.7 158.45C332.4 158.083 335.683 157.417 339.55 156.45C341.25 156.017 343.8 155.35 347.2 154.45ZM324.8 179.85C328.133 182.717 330.35 184.6 331.45 185.5C334.017 187.567 336.4 189.25 338.6 190.55C342 192.483 343.967 193.567 344.5 193.8C352.467 197.467 359.667 203.15 366.1 210.85C373.3 219.517 379.55 229.617 384.85 241.15C385.95 243.55 387.433 247.25 389.3 252.25C389.433 252.583 389.55 253.033 389.65 253.6C389.683 253.933 389.75 254.483 389.85 255.25L388 254.7C385.7 253.9 383.967 253.3 382.8 252.9C380.767 252.233 379.017 251.733 377.55 251.4C367.817 249.233 358.35 244.583 349.15 237.45C341.617 231.617 334.967 224.333 329.2 215.6C325.933 210.7 321.9 205.05 317.1 198.65C314.633 195.383 311.583 192.35 307.95 189.55C307.383 189.117 306.717 188.55 305.95 187.85L304.05 186.1L310.15 180.35C311.25 180.817 313.017 181.55 315.45 182.55C319.183 184.317 323.3 187.45 327.8 191.95L340.2 204.3C341.3 205.4 342.45 206.017 343.65 206.15C334.55 195.983 328.983 189.817 326.95 187.65C322.517 182.95 317.683 179.967 312.45 178.7C312.35 178.7 312.067 178.533 311.6 178.2L314.85 172.55C316.517 173.417 318.267 174.55 320.1 175.95C321 176.65 322.567 177.95 324.8 179.85ZM341 273.35C341 273.983 340.933 275.267 340.8 277.2C338.1 276.1 335.15 274.4 331.95 272.1C328.617 269.633 325.35 266.65 322.15 263.15C319.55 260.317 316.75 256.883 313.75 252.85C310.05 247.85 307.017 242.233 304.65 236C302.617 230.567 301 224.4 299.8 217.5C299.4 215.133 297.983 207.683 295.55 195.15C295.283 193.683 295.317 192.55 295.65 191.75C296.017 190.917 296.817 190.133 298.05 189.4C298.283 189.267 299.6 188.6 302 187.4C303.6 188.867 305.833 190.95 308.7 193.65C312.367 196.883 315.433 200.45 317.9 204.35C326.8 218.283 333.05 231.35 336.65 243.55C339.55 253.317 341 263.25 341 273.35ZM359.6 376.85C354.567 376.85 349.2 377.583 343.5 379.05C335.467 381.183 327.983 384.35 321.05 388.55C320.117 389.117 319 389.933 317.7 391L314.45 393.65C315.817 390.983 317.067 388.817 318.2 387.15C319.733 384.917 321.383 383.033 323.15 381.5C331.317 374.567 341.2 370.2 352.8 368.4C374.667 365.1 395.65 369.967 415.75 383C426.317 389.8 435.867 399.05 444.4 410.75C446.933 414.25 452.05 421.783 459.75 433.35C462.083 436.85 463.867 439.45 465.1 441.15C467.2 443.95 469.233 446.367 471.2 448.4C474.6 451.867 478.25 454.783 482.15 457.15H480.05C470.417 455.55 461.45 451.75 453.15 445.75C449.183 442.917 445.05 439.45 440.75 435.35C437.883 432.583 434.133 428.717 429.5 423.75C425.033 418.917 421.683 415.3 419.45 412.9C415.483 408.633 412.067 405.083 409.2 402.25C399.6 392.817 389.567 385.817 379.1 381.25C372.433 378.35 365.933 376.883 359.6 376.85ZM329.9 394.7C328.5 394.167 326.717 393.75 324.55 393.45C323.883 393.383 323 393.367 321.9 393.4C320 393.433 318.967 393.45 318.8 393.45C320.2 392.45 321.3 391.717 322.1 391.25C331.733 385.717 342.067 382.117 353.1 380.45C361.3 379.283 369.733 380.483 378.4 384.05C386.933 387.55 395.467 393.1 404 400.7C407.3 403.633 410.95 407.217 414.95 411.45C415.483 412.017 418.95 415.783 425.35 422.75C433.45 431.617 440.217 438.283 445.65 442.75C452.817 448.717 459.85 453.083 466.75 455.85C471.45 457.783 475.967 459.033 480.3 459.6L481.65 459.95L481.75 460.5C479.183 461.967 477.583 462.833 476.95 463.1C469.017 466.833 460.583 469.717 451.65 471.75C441.85 474.017 432.117 472.967 422.45 468.6C414.283 464.933 406 459.567 397.6 452.5C393.333 448.867 388.7 444.467 383.7 439.3C381.567 437.067 377.217 432.367 370.65 425.2C365.383 419.4 360.2 414.183 355.1 409.55C347.9 403.05 339.5 398.1 329.9 394.7ZM305.7 11.4C305.8 12.3333 305.917 13.3833 306.05 14.55L307.75 43.75C308.517 55.25 308.133 64.8833 306.6 72.65C305.333 78.95 302.7 85.6 298.7 92.6C297.8 94.1666 296.533 96.2 294.9 98.7C292.967 101.733 291.683 103.767 291.05 104.8C290.85 105.1 289.283 107.867 286.35 113.1C285.95 113.533 285.617 113.917 285.35 114.25C285.15 113.783 285.067 113.533 285.1 113.5C286.933 110.033 288.367 105.317 289.4 99.35C289.833 96.8166 290.667 92.5 291.9 86.4C291.3 86.9667 290.867 87.45 290.6 87.85C290.3 88.3166 290.05 88.9833 289.85 89.85C289.15 92.65 288.167 96.85 286.9 102.45C286.4 104.583 285.6 107.25 284.5 110.45C284.367 110.85 284.133 111.3 283.8 111.8C283.4 112.4 283.1 112.867 282.9 113.2L280.25 112.35C280.117 111.35 280.05 110.617 280.05 110.15C279.917 107.183 279.583 103.65 279.05 99.55C278.383 94.8833 277.883 91.3667 277.55 89C276.85 84.0333 276.433 79.8166 276.3 76.35C276.1 71.7833 276.35 67.5667 277.05 63.7C278.917 53.4333 282.617 43.3667 288.15 33.5C292.35 26.1 297.317 19.55 303.05 13.85L305.7 11.4ZM245.85 19.8C246.483 20.7333 247.367 22.1167 248.5 23.95C249.567 25.6167 250.517 26.95 251.35 27.95C261.05 39.65 267.6 53.7833 271 70.35C271.367 72.15 271.617 74.9333 271.75 78.7C271.917 81.4 272.283 84.45 272.85 87.85C273.15 89.55 273.75 92.5667 274.65 96.9C275.35 100.167 275.867 102.75 276.2 104.65C276.367 105.583 276.45 106.45 276.45 107.25V111.35L270.3 110.2C269.833 104.667 269.45 100.517 269.15 97.75C268.683 93.0833 267.8 89.15 266.5 85.95C266.3 89.2166 266.467 93.1667 267 97.8C267.3 100.467 267.8 104.467 268.5 109.8C264.3 109.8 261.783 109.783 260.95 109.75C260.717 109.717 260.483 109.567 260.25 109.3C259.983 109.067 259.8 108.8 259.7 108.5C258.733 106.167 257.9 103.933 257.2 101.8C256.633 100.167 256.183 98.55 255.85 96.95C254.35 89.9166 251.083 83.2167 246.05 76.85C244.217 74.5166 242.783 71.45 241.75 67.65C238.717 57.0833 238.317 45.4333 240.55 32.7C241.283 28.5333 242.033 24.6167 242.8 20.95C242.967 20.2167 243.133 19.6833 243.3 19.35C243.6 18.7833 244.05 18.35 244.65 18.05L245.85 19.8ZM201.8 54.5C201.367 53.2333 201.117 51.7333 201.05 50C200.917 47.3333 202.033 46.5333 204.4 47.6C216.667 52.8667 227.033 59.7833 235.5 68.35C243.4 76.25 249.117 84.7333 252.65 93.8C253.117 95.0667 254.117 98.1833 255.65 103.15L257.75 110.2L253.45 111.2C253.383 107.167 252.467 103.3 250.7 99.6C249.133 96.3666 246.85 93.1166 243.85 89.85C244.717 93.0166 245.9 96.1833 247.4 99.35C247.833 100.283 248.917 103.117 250.65 107.85C250.75 108.117 250.817 108.467 250.85 108.9L250.95 109.95C251.217 111.55 250.6 112.583 249.1 113.05C248.667 113.183 247.767 113.617 246.4 114.35C246.067 114.183 245.833 114.033 245.7 113.9C235.967 105.233 230.6 100.45 229.6 99.55C225.067 95.4167 221.433 91.9167 218.7 89.05C216.133 86.35 213.8 83.1166 211.7 79.35C210.067 76.4166 208.4 72.8 206.7 68.5C205.5 65.4333 203.867 60.7667 201.8 54.5ZM211.9 89.2C213.133 90.1 215.283 91.8667 218.35 94.5C220.05 95.9 222.567 98.0166 225.9 100.85C228.533 102.95 231.367 105.6 234.4 108.8C235.033 109.5 237.65 112.4 242.25 117.5L237.6 122.45C234.533 119.017 232.183 116.5 230.55 114.9C227.683 112.033 224.9 110.067 222.2 109L236.25 124.5L231.8 133.35C231.3 133.25 230.917 133.167 230.65 133.1C230.183 132.967 229.8 132.817 229.5 132.65C227.267 131.517 225.6 130.65 224.5 130.05C222.567 129.05 220.967 128.083 219.7 127.15C213.167 122.283 209.067 119.217 207.4 117.95C202.8 114.45 198.817 111.25 195.45 108.35C190.717 104.317 184.917 99.1833 178.05 92.95C170.417 86.0166 164.667 80.8166 160.8 77.35C159.767 76.3833 158.933 75.4166 158.3 74.45C157.2 72.85 157.6 71.8667 159.5 71.5C160.733 71.3 162.167 71.25 163.8 71.35C181.967 72.9833 198 78.9333 211.9 89.2ZM205.8 128.85C213.433 132.85 217.75 135.1 218.75 135.6C222.617 137.567 226.55 138.733 230.55 139.1L230.25 141.7C228.25 141.933 226.767 142.117 225.8 142.25C224.033 142.45 222.567 142.667 221.4 142.9C217.1 143.8 212.017 144.017 206.15 143.55L203.75 143.45C193.883 143.683 184.05 141.05 174.25 135.55C161.917 128.65 151.333 119.067 142.5 106.8L141.2 104.75C141.233 104.75 141.9 104.5 143.2 104C143.933 103.733 144.533 103.55 145 103.45C159.2 100.05 173.183 101.717 186.95 108.45C195.25 112.517 202.967 117.483 210.1 123.35C212.533 125.35 215.167 127.3 218 129.2C220.3 130.7 222.45 131.9 224.45 132.8C225.883 133.433 228.2 134.233 231.4 135.2L231.05 137.55C229.683 137.45 228.967 137.4 228.9 137.4C225.433 136.7 221.683 135.367 217.65 133.4L207.5 128.5L205.4 127.75L205.2 128.2C205.333 128.333 205.533 128.55 205.8 128.85ZM228.05 146.25C228.45 146.283 229.067 146.367 229.9 146.5L230.6 153.85C229.733 153.783 229.117 153.7 228.75 153.6C223.383 152.2 219.067 151.467 215.8 151.4H208.65L208.6 151.9L221.05 153.8C224.45 154.333 227.35 154.867 229.75 155.4C230.017 155.467 230.3 155.617 230.6 155.85C230.9 156.117 231.1 156.383 231.2 156.65C232.033 159.017 233.15 162.467 234.55 167L228.3 167.7C220.833 168.467 212.383 170.1 202.95 172.6C200.95 173.133 197.8 173.6 193.5 174C186.267 174.633 177.8 174.55 168.1 173.75C166.267 173.617 163.517 173.45 159.85 173.25C156.183 173.05 153.433 172.867 151.6 172.7C145.767 172.167 139.333 171.483 132.3 170.65C131.967 170.617 131.55 170.533 131.05 170.4C130.483 170.233 130.05 170.1 129.75 170C129.75 169.433 129.917 168.983 130.25 168.65C130.45 168.417 130.8 168.167 131.3 167.9L137.85 163.9C147.15 158.4 152.95 155.017 155.25 153.75C162.017 150.017 168.2 147.75 173.8 146.95C178.667 146.283 183.833 145.9 189.3 145.8C190.333 145.767 191.633 145.933 193.2 146.3C195.6 146.867 196.883 147.167 197.05 147.2C204.85 148.667 213.033 148.567 221.6 146.9C223.933 146.467 225.5 146.217 226.3 146.15C226.767 146.117 227.35 146.15 228.05 146.25ZM234.8 147.65C234.333 139.45 236.117 132.183 240.15 125.85C244.983 118.317 252.217 114.05 261.85 113.05C273.983 111.85 285.283 115 295.75 122.5C301.783 126.8 306.483 132.95 309.85 140.95C311.583 145.15 312.783 149.7 313.45 154.6C314.317 160.933 313.45 166.767 310.85 172.1C308.25 177.433 304.183 181.717 298.65 184.95C292.55 188.417 285.9 190.133 278.7 190.1C266.8 190.067 256.483 185.55 247.75 176.55C239.75 168.317 235.433 158.683 234.8 147.65ZM200.25 192.65C199.817 192.883 199.517 193.183 199.35 193.55C200.15 193.283 200.6 193.117 200.7 193.05C207.933 188.817 212.867 185.883 215.5 184.25C216.2 183.817 217.033 183.183 218 182.35C219.333 181.183 220.117 180.517 220.35 180.35C225.25 176.483 230.033 173.983 234.7 172.85C235.9 172.583 236.833 172.433 237.5 172.4C238.033 172.367 238.4 172.533 238.6 172.9C238.833 173.267 238.833 173.683 238.6 174.15L237.75 175.6C232.05 184.533 224.85 192.85 216.15 200.55C204.35 210.95 191.733 218.8 178.3 224.1C166.4 228.8 154.933 230.867 143.9 230.3L142.7 230.25C139.733 229.95 138.6 228.383 139.3 225.55C139.833 223.25 141.183 220.55 143.35 217.45C155.983 199.25 172.817 186.167 193.85 178.2C203.65 174.5 214.383 171.8 226.05 170.1L235.8 168.7L237.25 170.95C236.35 171.25 235.817 171.417 235.65 171.45C228.683 172.683 222.633 175.567 217.5 180.1C212.4 184.6 206.65 188.783 200.25 192.65ZM230.3 189.85C234.3 185.283 237.3 181.867 239.3 179.6C240.233 178.6 240.867 177.983 241.2 177.75C241.833 177.317 242.483 177.15 243.15 177.25C243.783 177.383 244.217 177.767 244.45 178.4C244.783 179.433 245.417 180.4 246.35 181.3C246.483 181.433 247.35 182.167 248.95 183.5L249.4 183.95C249.067 184.383 248.067 185.8 246.4 188.2C245.2 189.9 244.2 191.267 243.4 192.3C241.067 195.333 237.5 199.833 232.7 205.8C232.033 206.6 231.633 207.3 231.5 207.9L235.45 204.7C239.783 201.2 243.1 197.25 245.4 192.85C246 191.717 247.167 189.9 248.9 187.4C249.033 187.2 249.717 186.4 250.95 185L255.1 187.5C255.033 187.633 254.817 188.3 254.45 189.5C254.183 190.267 253.933 190.883 253.7 191.35C252.6 193.45 251.65 195.017 250.85 196.05C248.25 199.583 245.583 203.75 242.85 208.55C241.317 211.25 238.967 215.617 235.8 221.65C234.967 223.183 234.133 224.433 233.3 225.4C225.233 234.3 215.583 241.567 204.35 247.2C201.417 248.667 197.833 250.4 193.6 252.4C188.767 254.633 185.133 256.317 182.7 257.45C182.133 257.65 181.583 257.85 181.05 258.05C181.283 255.85 181.417 254.683 181.45 254.55C184.083 243.05 188.6 233.65 195 226.35C197.533 223.383 199.45 221.167 200.75 219.7C202.983 217.167 205.033 215.1 206.9 213.5C213.067 208.033 217.8 203.533 221.1 200C223.633 197.3 226.7 193.917 230.3 189.85ZM261.45 191.85L260.95 190.05L263.75 190.95C265.317 198.117 265.983 204.567 265.75 210.3C265.55 215.1 265.433 218.7 265.4 221.1C265.4 222.3 265.55 224.133 265.85 226.6C266.317 236.5 264.35 246.683 259.95 257.15C256.317 265.917 251.167 275.1 244.5 284.7C243.7 285.8 241.783 287.95 238.75 291.15C238.117 291.783 237.55 292.217 237.05 292.45C236.35 292.783 235.65 292.8 234.95 292.5C234.35 292.2 233.95 291.683 233.75 290.95C233.65 290.083 233.567 289.417 233.5 288.95C232.7 282.283 232.033 277.383 231.5 274.25C228.267 255.617 230.767 238.3 239 222.3C240.733 218.933 243.083 214.667 246.05 209.5C250.117 202.367 252.517 198.133 253.25 196.8C253.817 195.767 255.167 193.05 257.3 188.65C257.833 188.617 258.25 188.783 258.55 189.15C258.75 189.383 258.967 189.833 259.2 190.5C261 195.633 260.867 200.883 258.8 206.25C258.433 207.217 257.383 209.35 255.65 212.65C253.983 215.817 253.067 218.483 252.9 220.65C253.333 220.45 253.55 220.333 253.55 220.3L259.45 209.85C262.65 204.383 263.317 198.383 261.45 191.85ZM267.35 193.5C267.85 192.967 268.833 192.717 270.3 192.75C271.7 192.783 275.233 193 280.9 193.4C281.733 194.767 282.467 196.383 283.1 198.25C283.467 199.383 283.95 201.1 284.55 203.4L285.1 205.45C285.233 205.817 285.467 206.033 285.8 206.1C286 206.133 286.367 206.1 286.9 206C286.433 202.133 285.1 197.9 282.9 193.3C286.133 192.767 288.117 192.45 288.85 192.35C289.25 192.283 289.667 192.467 290.1 192.9C291.767 194.533 293.017 196.033 293.85 197.4C294.917 199.133 295.533 200.967 295.7 202.9C295.767 203.633 296.367 210.067 297.5 222.2C297.733 224.7 297.95 226.283 298.15 226.95C298.783 229.25 299.05 231.867 298.95 234.8C298.917 236.267 298.683 238.883 298.25 242.65C297.85 245.95 297.083 249.917 295.95 254.55C295.317 257.15 294.333 261.05 293 266.25C290.967 275.05 288.767 282.217 286.4 287.75C285.933 288.883 285.483 289.717 285.05 290.25C284.417 291.083 283.6 291.683 282.6 292.05C281.933 288.417 281.55 286.117 281.45 285.15C281.117 281.55 280.333 277.35 279.1 272.55C277.6 267.083 276.5 262.967 275.8 260.2L272.05 244.6C271.55 242.7 270.917 240.55 270.15 238.15C269.383 235.883 268.833 233.317 268.5 230.45C268.267 228.583 268.067 225.95 267.9 222.55L266.7 196.45C266.633 195.017 266.85 194.033 267.35 193.5ZM142.15 320C142.283 319.833 142.55 319.75 142.95 319.75C143.283 319.75 143.583 319.8 143.85 319.9C147.717 321.2 151.933 322.1 156.5 322.6C160.233 323.033 164.533 323.217 169.4 323.15C172.333 323.117 175.6 322.833 179.2 322.3C181.433 322 184.65 321.45 188.85 320.65C191.283 320.183 194.9 319.483 199.7 318.55C203.867 317.75 207.483 317.133 210.55 316.7C234.917 313.233 255.483 320.517 272.25 338.55C277.517 344.15 282.733 351.4 287.9 360.3C289.033 362.267 290.933 365.467 293.6 369.9C296.1 373.967 298 377.15 299.3 379.45C299.733 380.183 300.15 381.167 300.55 382.4C300.75 383.067 301.067 384.083 301.5 385.45L300.85 385.65L296.45 379.15C291.75 371.983 287.65 366.683 284.15 363.25C271.817 351.25 257.517 343.55 241.25 340.15C233.65 338.617 224.467 337.467 213.7 336.7C208.067 336.333 196.767 335.433 179.8 334C171.767 333.367 164.767 332.183 158.8 330.45C152.633 328.65 147.633 326.083 143.8 322.75L142.7 321.8C141.9 321.067 141.717 320.467 142.15 320ZM147.05 331.55L144.4 326.2L144.55 325.85L147.1 327.4C152.2 330.533 158.017 332.65 164.55 333.75C172.617 335.117 179.733 336.1 185.9 336.7C192.667 337.367 202.85 338.2 216.45 339.2C223.283 339.8 229.1 340.483 233.9 341.25C240.167 342.283 245.883 343.633 251.05 345.3C266.583 350.333 279.483 359.483 289.75 372.75C292.85 376.783 296.633 382.133 301.1 388.8C302.033 390.133 302.633 391.2 302.9 392C303.067 392.6 303.25 393.817 303.45 395.65L301.95 394.3C296.583 389.033 289.65 385.7 281.15 384.3C276.85 383.6 272.117 383.283 266.95 383.35C263.317 383.383 258.567 383.65 252.7 384.15C241.833 385.05 234.1 385.55 229.5 385.65C214.733 385.983 200.367 382.033 186.4 373.8C169.7 363.9 156.583 349.817 147.05 331.55ZM267.45 244.2L268.1 240.95C268.567 241.617 268.783 242.167 268.75 242.6C268.717 243.2 268.283 243.733 267.45 244.2ZM269.35 247.6L269.95 247.65C271.317 253.05 272.183 256.417 272.55 257.75C274.917 266.083 277.15 276.55 279.25 289.15C279.417 290.15 279.733 291.633 280.2 293.6C280.367 294.333 280.533 294.85 280.7 295.15C281 295.65 281.433 296 282 296.2C282.333 296.333 282.617 296.767 282.85 297.5C283.517 299.6 286.95 310.217 293.15 329.35C297.283 342.15 300.5 352.8 302.8 361.3C306.133 373.5 308.733 384.533 310.6 394.4C310.833 395.567 310.9 396.433 310.8 397C310.667 397.9 310.133 398.683 309.2 399.35L311.75 400.4C316.45 427.7 317.483 456.4 314.85 486.5H310.9C311 484.833 311.05 483.95 311.05 483.85C312.65 466.883 312.883 448.667 311.75 429.2C310.55 407.133 306.017 384.733 298.15 362C295.95 355.633 293 347.333 289.3 337.1C284.6 324.033 281.617 315.717 280.35 312.15C275.05 297.05 271.4 284.483 269.4 274.45C268.733 271.017 268.083 266.35 267.45 260.45C267.05 257.283 267.3 254.033 268.2 250.7C268.233 250.567 268.617 249.533 269.35 247.6ZM197.5 490.7C198.3 490.067 199.183 489.767 200.15 489.8L221 490.5C223.533 490.633 225.45 490.7 226.75 490.7L349.15 491.3C351.55 491.3 357.867 491.367 368.1 491.5C375.867 491.567 382.183 491.583 387.05 491.55C390.017 491.517 393.967 491.4 398.9 491.2C404.767 490.933 408.717 490.767 410.75 490.7C411.917 490.667 413.317 490.717 414.95 490.85C415.883 490.917 417.267 491.033 419.1 491.2C420.567 491.3 422.217 491.717 424.05 492.45C425.85 493.083 427.033 494.367 427.6 496.3C428.333 498.967 428.567 502.067 428.3 505.6C428.2 507.067 427.983 509.283 427.65 512.25C427.383 516.05 426.1 518.933 423.8 520.9C422 522.433 419.417 523.467 416.05 524C413.083 524.467 409.25 524.517 404.55 524.15C393.083 523.117 380.867 522.733 367.9 523C346.567 523.5 330.567 523.85 319.9 524.05H301.9V524.2C274.067 523.733 253.183 523.417 239.25 523.25C237.017 523.217 233.267 523.25 228 523.35C223.167 523.45 219.4 523.467 216.7 523.4C213.733 523.333 208.817 522.883 201.95 522.05C197.483 521.45 194.567 518.95 193.2 514.55C191.367 509.05 191.25 503.383 192.85 497.55C193.55 495.017 195.1 492.733 197.5 490.7ZM204.3 526.3C207.867 526.533 210.017 526.65 210.75 526.65L255.85 527.35C267.517 527.517 285.017 527.817 308.35 528.25C315.717 528.317 326.767 528.25 341.5 528.05C348.567 527.95 359.2 527.717 373.4 527.35C380.233 527.283 388.533 527.683 398.3 528.55C399.967 528.683 402.033 528.75 404.5 528.75C405.9 528.75 407.983 528.75 410.75 528.75H413.8L413.2 531.6C412.167 538.5 411.55 542.517 411.35 543.65C411.183 544.617 409.483 554.383 406.25 572.95C404.283 584.217 401.55 598.417 398.05 615.55C392.75 641.383 389.85 655.55 389.35 658.05C388.883 660.317 388.35 663.467 387.75 667.5C387.083 671.967 386.583 675.117 386.25 676.95C385.683 680.15 384.85 683.4 383.75 686.7C382.117 691.433 378.783 694.483 373.75 695.85C370.483 696.717 367.033 697.333 363.4 697.7C349.4 699.033 331.983 699.517 311.15 699.15C304.183 699.017 291.717 698.55 273.75 697.75C266.883 697.517 261.383 697.183 257.25 696.75C251.283 696.183 245.75 694.467 240.65 691.6C237.917 690.1 236.05 687.8 235.05 684.7C233.983 681.367 233.283 678.5 232.95 676.1C232.35 671.467 231.317 665.933 229.85 659.5C228.117 652.2 226.833 646.717 226 643.05C223.433 631.483 221.017 619.433 218.75 606.9C217.783 601.567 214.467 582.75 208.8 550.45L204.3 526.3Z" fill="black"/>
    </g>
    <defs>
        <clipPath id="clip0">
            <rect width="612" height="717" fill="white"/>
        </clipPath>
    </defs>
</svg>
