<svg width="103" height="195" fill="none" xmlns="http://www.w3.org/2000/svg"><g clip-path="url(#a)"><path d="M79.024 23.302c.455-.539.404-.994-.154-1.366-.567-.4-1.078-.651-1.534-.754a16.122 16.122 0 0 0-2.831-.418c-.865-.046-1.837-.01-2.915.112-.604.065-1.562.204-2.873.418-3.06.502-5.742 1.357-8.047 2.566-.233.102-.405.181-.517.237.047-.167.172-.404.377-.711 1.915-2.622 3.087-5.193 3.515-7.713.418-2.25.725-3.937.92-5.062a7.817 7.817 0 0 0 .126-1.674c-.01-.363-.089-.59-.237-.683-.14-.103-.391-.103-.754 0-.836.213-1.599.613-2.287 1.199-.753.65-1.72 1.548-2.9 2.692a630.19 630.19 0 0 1-2.916 2.943L52.4 18.672c-.01.01-.06.014-.154.014l.042-.265c.428-1.804.59-3.817.489-6.04-.14-3.151-.252-5.513-.335-7.084L52.148.75c-.019-.381-.149-.618-.39-.711-.252-.093-.517-.019-.796.223a144.68 144.68 0 0 0-1.534 1.395c-3.31 3.365-5.732 7.722-7.266 13.068-.065.232-.14.59-.223 1.074a.711.711 0 0 1-.237-.32c-.79-3.032-2.27-5.956-4.436-8.774-.892-1.162-1.576-2.18-2.05-3.054a9.247 9.247 0 0 0-.655-1.004c-.224-.28-.419-.414-.586-.405-.158.01-.344.163-.558.46a6.001 6.001 0 0 0-1.046 2.511c-.047.279-.26 1.734-.642 4.365-.344 2.567-.19 4.905.46 7.016a.979.979 0 0 1 .029.279l-.154.097a11.961 11.961 0 0 0-.265-.39 28.85 28.85 0 0 0-5.523-4.296 23.431 23.431 0 0 0-4.1-1.938c-.307-.103-.53-.13-.67-.084s-.279.21-.418.488c-.233.511-.354.934-.363 1.27 0 .91.07 1.64.21 2.189a22.372 22.372 0 0 0 1.283 3.682 48.787 48.787 0 0 0 1.785 3.487l.195.404c-.26-.065-.553-.21-.879-.432a22.307 22.307 0 0 0-4.56-2.232c-2.232-.79-4.76-1.26-7.588-1.408a30.872 30.872 0 0 0-2.343-.028c-.446 0-.553.195-.32.585.13.224.302.484.516.782.716 1.004 1.706 2.054 2.97 3.152l6.318 5.537a2.031 2.031 0 0 1-.697-.21c-2.399-1.013-4.686-1.534-6.862-1.562-.92-.01-2.301.07-4.142.237-.53.047-1.107.2-1.73.46-.39.177-.627.414-.71.712-.085.288-.02.618.194.99.298.52.586.916.865 1.186.512.511 1.274 1.278 2.287 2.3a61.012 61.012 0 0 0 2.371 2.218c2.195 1.944 4.366 3.325 6.514 4.143a.349.349 0 0 1 .111.097c-1.627.168-2.836.33-3.626.489-.986.204-2.008.548-3.068 1.032-.819.362-1.776.869-2.873 1.52l-6.5 3.85a9.35 9.35 0 0 0-.446.376c.028.018.144.111.349.279.111.093.209.158.293.195.93.409 1.613.67 2.05.78.753.196 1.622.336 2.608.42.483.046 1.362.092 2.636.139.744.018 1.86.074 3.347.167l5.202.335c.13.01.749.014 1.855.014l-.6.293c-.427.232-1.073.567-1.938 1.004-.772.39-1.404.74-1.897 1.046-1.887 1.172-3.686 2.627-5.397 4.365-1.479 1.488-2.966 3.264-4.463 5.328-.317.437-.61 1.014-.879 1.73-.112.316-.126.58-.042.794.084.214.274.419.572.614.446.307 1.05.512 1.813.614 2.604.279 5.026.037 7.266-.725 2.018-.688 4.552-1.786 7.602-3.292l.544-.265a1.193 1.193 0 0 1-.265.516c-1.311 1.544-2.111 2.501-2.4 2.873-1.255 1.609-2.147 3.17-2.677 4.686-.4 1.144-.54 2.125-.419 2.943.047.251.107.414.182.488.074.084.242.144.502.182.483.074 1.064-.042 1.743-.349a633.32 633.32 0 0 0 6.472-3.026c.836-.391 1.51-.786 2.022-1.186a81.728 81.728 0 0 0 1.743-1.409 439.523 439.523 0 0 1 1.716-1.436l.711-.628c.019.205-.014.419-.098.642-.78 2.343-1.148 4.802-1.101 7.378.018 1.125.148 2.57.39 4.337.316 2.325.498 3.761.544 4.31.028.307.14.642.335 1.004.195.353.45.572.767.656.316.083.646.018.99-.196.39-.26.665-.488.823-.683a195.92 195.92 0 0 0 1.813-2.106 48.637 48.637 0 0 0 1.73-2.162c.585-.79 1.13-1.72 1.631-2.79.354-.752.763-1.757 1.228-3.012.046-.149.083-.26.111-.334a.863.863 0 0 1 .251-.35v.335c.01 2.93.474 6.03 1.395 9.303.41 1.45.953 3.148 1.632 5.09.39 1.126.985 2.804 1.785 5.036l4.142 11.799c.112.335.26.841.447 1.52a1.248 1.248 0 0 1-.433-.488l-2.65-4.575c-2.064-3.626-4.5-6.499-7.308-8.619-2.975-2.222-6.276-3.417-9.902-3.584-1.74-.065-3.803.079-6.193.432-1.98.326-3.463.563-4.449.711-1.748.27-3.245.447-4.49.53a23.305 23.305 0 0 1-4.729-.167 14.638 14.638 0 0 1-1.855-.418 51.34 51.34 0 0 1-1.813-.586c-.948-.326-1.367.01-1.255 1.004a1.3 1.3 0 0 0 .07.32c.055.159.13.396.223.712a3.3 3.3 0 0 0 .279.67c.846 1.543 1.669 2.97 2.468 4.281 3.087 5.05 7.113 8.912 12.078 11.59 2.78 1.497 5.854 2.311 9.22 2.441 1.487.056 3.258-.009 5.313-.195 1.172-.103 2.934-.279 5.286-.53 2.566-.251 4.696-.186 6.388.195 2.25.511 3.998 1.622 5.244 3.333.158.205.284.461.376.767.066.242.126.619.182 1.13.232 1.516.418 3.668.558 6.458.232 4.397.26 8.391.083 11.98a318.57 318.57 0 0 1-.265 3.808H50.6c-6.872.027-12.023.065-15.454.111l-13.654.251c-.148 0-.302.028-.46.084-1.2.381-1.971 1.204-2.315 2.468-.335 1.246-.41 2.706-.223 4.38.093.809.362 1.497.809 2.064.446.567 1.055.986 1.827 1.255.27.093.474.228.613.405.13.148.228.358.293.627l.14.726c.325 2.092.525 3.347.6 3.765 1.32 7.625 2.198 12.608 2.635 14.951.335 1.795 1.2 6.165 2.595 13.111.186.911.478 2.273.878 4.086.4 1.813.693 3.175.879 4.087.186.911.325 1.543.418 1.896.168.707.354 1.325.558 1.855.363.921.874 1.576 1.534 1.967.837.502 1.683.944 2.539 1.325.586.269 1.26.465 2.022.586.502.074 1.2.134 2.092.181.428.018 1.065.032 1.91.042.856 0 1.493.009 1.912.028.353.018 1.445.079 3.277.181 1.33.074 2.418.121 3.264.139 3.905.103 7.81.158 11.715.168a47.53 47.53 0 0 0 7.992-.67c1.116-.195 1.957-.465 2.524-.809 1.088-.66 1.906-1.743 2.455-3.249.4-1.088.711-2.59.934-4.505.344-3.087.823-6.1 1.437-9.038 1.004-4.528 1.73-7.931 2.176-10.209.53-2.696 1.469-7.713 2.817-15.049.362-2.045.637-3.58.823-4.602.065-.4.181-.707.348-.921.205-.26.498-.432.88-.516.957-.214 1.552-.758 1.784-1.632.093-.214.163-.376.21-.488.836-1.906 1.097-3.663.78-5.272-.13-.706-.334-1.274-.613-1.701a2.589 2.589 0 0 0-1.367-1.116c-1.553-.558-2.799-.874-3.738-.949a35.39 35.39 0 0 0-3.026-.111c-1.358.009-2.376.014-3.055.014-.297-.009-.706 0-1.227.028-.586.018-1 .028-1.241.028H54.84c.362-4.547.474-8.592.334-12.134-.12-3.552-.567-7.536-1.339-11.953a3.739 3.739 0 0 1 2.497-.865c.744.01 1.502.172 2.273.489 1.181.474 2.478 1.255 3.892 2.343a35.251 35.251 0 0 1 3.026 2.678 79.08 79.08 0 0 1 2.803 2.914 443.406 443.406 0 0 0 3.794 4.059c1.46 1.506 2.808 2.775 4.045 3.808 2.436 2.064 4.802 3.644 7.099 4.742 2.343 1.115 4.588 1.566 6.736 1.352 2.892-.306 5.55-1.013 7.978-2.12 1.571-.706 2.896-1.562 3.975-2.566.344-.325.492-.581.446-.767-.037-.186-.284-.363-.739-.53l-.935-.349c-1.413-.641-2.747-1.734-4.002-3.277-.921-1.162-1.934-2.71-3.041-4.644-1.73-3.05-3.761-5.779-6.095-8.187-3.05-3.152-6.3-5.458-9.749-6.918-5.17-2.176-10.362-2.687-15.579-1.534-3.775.846-6.634 2.845-8.577 5.997-.019.028-.149.205-.39.53l-.196-.795c-.837-3.914-1.766-7.517-2.79-10.809a443.569 443.569 0 0 0-2.021-6.29c-.921-2.79-1.609-4.886-2.065-6.29l-.697-2.162c-.065-.251-.037-.437.084-.558.437-.437.818-.98 1.143-1.632.214-.427.47-1.046.767-1.855 1.088-2.984 1.92-6.378 2.497-10.18.01-.047.065-.215.167-.503l.475 1.004c1.552 3.004 3.91 5.64 7.07 7.908 1.144.8 2.283 1.404 3.418 1.813.334.121.567.13.697.028.14-.093.218-.316.237-.67.242-4.313-.479-8.563-2.162-12.747l-.167-.53.153-.097c.103.12.251.311.447.571 1.023.977 1.924 1.772 2.705 2.385 1.023.8 2.037 1.45 3.04 1.953a36.72 36.72 0 0 0 2.274 1.074c.846.344 1.641.586 2.385.725.967.186 1.66.34 2.078.46.763.214 1.423.489 1.98.823.27.158.484.186.642.084.168-.102.233-.307.195-.614a6.053 6.053 0 0 0-.418-1.743 86.965 86.965 0 0 0-.879-2.008 673.964 673.964 0 0 1-.906-2.023c-1.46-3.273-3.366-6.053-5.718-8.34a18.631 18.631 0 0 0-1.074-.949c-.493-.39-.865-.688-1.116-.892a6.475 6.475 0 0 0-.628-.447.745.745 0 0 1 .433-.013c.083.018.53.12 1.339.306.53.121.976.205 1.338.252 2.734.353 5.63.157 8.69-.586 1.99-.484 4.467-1.283 7.433-2.4 1.544-.594 2.91-.85 4.1-.766.28.018.563-.028.851-.14.447-.158.582-.46.405-.906a1.896 1.896 0 0 0-.32-.572c-.624-.744-1.005-1.186-1.144-1.325-1.33-1.358-3.008-2.603-5.035-3.738-3.106-1.767-5.937-2.924-8.494-3.473a.627.627 0 0 0-.153-.111c.343-.168.855-.41 1.534-.726a25.087 25.087 0 0 0 1.478-.767A97.637 97.637 0 0 0 80 37.291c1.032-.567 1.957-.98 2.775-1.241a.427.427 0 0 0 .196-.14.423.423 0 0 0 .111-.223c.019-.037-.004-.097-.07-.181a.458.458 0 0 0-.18-.154c-1.042-.548-1.763-.901-2.162-1.06-1.19-.483-2.53-.86-4.017-1.13-1.135-.204-2.515-.366-4.143-.487-2.213-.158-4.17-.158-5.871 0-.047 0-.237-.014-.572-.042l.711-.419c.54-.325 1.344-.818 2.413-1.478a90.283 90.283 0 0 0 2.413-1.52c1.07-.707 2.278-1.604 3.626-2.692.772-.632 1.925-1.6 3.459-2.9a2.14 2.14 0 0 0 .335-.322zM62.12 10.75c.465-.41.85-.711 1.158-.907.232-.148.409-.18.53-.097.12.074.172.246.153.516-.028.25-.116.823-.265 1.715l-.516 2.692a76.618 76.618 0 0 1-.572 2.678c-.65 2.892-2.06 5.379-4.226 7.462a68.407 68.407 0 0 1-2.58 2.315c-.874.762-1.78 1.804-2.72 3.124-.353.493-.948 1.213-1.785 2.162a3.155 3.155 0 0 1-.39.348c-.298.224-.451.34-.46.35l-1.94-1.465.517-.516a266.789 266.789 0 0 0 2.287-2.608c.52-.633.79-1.47.809-2.51-1.255 2.203-2.576 4.011-3.961 5.424l-2.05-1.073c.093-.168.223-.419.39-.754.158-.297.298-.539.419-.725a85.79 85.79 0 0 1 1.645-2.343c.196-.288.489-.725.88-1.311.325-.502.585-.953.78-1.353a18.27 18.27 0 0 1 3.069-4.449c1.199-1.302 2.789-2.929 4.77-4.881.622-.614 1.975-1.879 4.058-3.794zm15.537 11.325c.167.065.27.177.307.335a.522.522 0 0 1-.098.446 2.331 2.331 0 0 1-.362.307c-.735.502-1.279.888-1.632 1.157-2.232 1.74-3.924 3.013-5.077 3.822-1.934 1.348-3.72 2.483-5.356 3.403-1.962 1.106-3.872 2.013-5.732 2.72a25.545 25.545 0 0 1-6.234 1.464c-.298.028-.53.014-.697-.042-.214-.083-.382-.25-.503-.502-.14-.186-.26-.349-.362-.488.678-.697 1.515-1.339 2.51-1.925a71.394 71.394 0 0 1 2.162-1.2 9.13 9.13 0 0 0 1.395-1.003c-2.604.902-4.76 2.101-6.472 3.598l-.195-.14-.307-.334c.019-.093.033-.14.042-.14.474-.279.934-.66 1.38-1.143.317-.335.694-.804 1.13-1.409 3.283-4.5 7.82-7.387 13.613-8.661 2.315-.502 4.77-.711 7.364-.628.586.019 1.474.112 2.664.28.241.037.395.064.46.083zM73.78 33.484c1.348.158 2.882.418 4.602.78.335.075.74.196 1.213.363.27.093.67.237 1.2.433.13.046.358.176.683.39-.325.242-.548.4-.67.474L76.04 38.63c-1.079.604-2.124 1.037-3.138 1.297a1.64 1.64 0 0 1-.655.056c-3.33-.483-6.57-.27-9.722.642-1.245.362-2.891.767-4.937 1.213-1.05.223-2.045.283-2.985.181l-.362-2.831c.725-.372 1.692-.674 2.9-.907 1.024-.195 2.558-.465 4.603-.809.251-.046.53-.167.837-.362-1.906.25-3.333.441-4.282.572-1.692.232-3.11.544-4.253.934l-.81-1.952c.466-.075.707-.112.726-.112 1.041-.037 2.422-.251 4.142-.642 1.348-.297 2.855-.822 4.519-1.576a9.105 9.105 0 0 1 2.636-.725c1.934-.223 3.398-.344 4.393-.362 1.256-.028 2.632.05 4.129.237zm-11.088 7.908c.837-.224 1.548-.39 2.134-.503 1.906-.353 3.928-.437 6.067-.25 2.278.195 4.356.65 6.234 1.366 2.464.93 4.984 2.339 7.56 4.226.557.4 1.482 1.14 2.775 2.218.065.056.348.353.85.892l-.613.196a2.075 2.075 0 0 1-.488.111c-.79.084-1.674.242-2.65.474-.53.13-1.4.372-2.608.726a690.54 690.54 0 0 1-3.39 1.018c-1.31.381-2.45.688-3.417.92-4.286 1.023-8.451.558-12.496-1.394-.837-.4-1.906-1.084-3.208-2.05a406.755 406.755 0 0 0-2.622-2.023c-1.041-.79-1.971-1.4-2.79-1.827.177-.762.275-1.176.294-1.241.055-.149.195-.27.418-.363.744-.26 1.47-.325 2.176-.195 1.069.195 2.352.465 3.85.809 1.152.26 2.142.334 2.97.223a417.555 417.555 0 0 0-6.514-1.646c-.641-.158-1.436-.13-2.384.084l-.363.07.042-.642c.288-.019.45-.028.488-.028.865.093 1.8.075 2.803-.056.753-.102 1.67-.288 2.748-.557.474-.121 1.185-.307 2.134-.558zm-6.248 7.085c.93.8 1.548 1.325 1.854 1.576a17.12 17.12 0 0 0 1.995 1.408c.948.54 1.497.842 1.646.907 2.222 1.023 4.23 2.608 6.025 4.756 2.008 2.417 3.752 5.235 5.23 8.452.307.67.72 1.701 1.241 3.096.037.093.07.218.098.377.01.092.028.246.056.46l-.516-.154a382.49 382.49 0 0 0-1.451-.502 16.728 16.728 0 0 0-1.464-.418c-2.715-.605-5.356-1.902-7.922-3.891-2.102-1.627-3.957-3.66-5.565-6.095a106.665 106.665 0 0 0-3.375-4.728c-.688-.911-1.54-1.758-2.553-2.539a8.625 8.625 0 0 1-.558-.474l-.53-.488 1.702-1.604c.307.13.8.335 1.478.614 1.042.493 2.19 1.367 3.445 2.622l3.46 3.445c.306.307.627.479.962.516-2.539-2.836-4.092-4.556-4.659-5.16-1.236-1.312-2.585-2.144-4.044-2.497-.028 0-.107-.047-.238-.14l.907-1.576c.465.242.953.558 1.465.949.25.195.688.558 1.31 1.088zm4.518 26.08c0 .177-.018.535-.055 1.075-.754-.307-1.576-.782-2.47-1.423a19.226 19.226 0 0 1-2.733-2.497 36.481 36.481 0 0 1-2.343-2.873c-1.032-1.394-1.878-2.961-2.538-4.7-.567-1.515-1.018-3.235-1.353-5.16-.112-.66-.507-2.739-1.185-6.234-.075-.41-.066-.726.027-.949.103-.232.326-.45.67-.655.065-.038.432-.224 1.102-.558.446.409 1.069.99 1.869 1.743a13.837 13.837 0 0 1 2.566 2.985c2.482 3.886 4.226 7.531 5.23 10.934a29.055 29.055 0 0 1 1.213 8.313zm5.189 28.871c-1.404 0-2.901.204-4.491.614a23.83 23.83 0 0 0-6.262 2.649c-.26.159-.572.386-.935.684l-.907.739c.382-.744.73-1.348 1.047-1.813a8.268 8.268 0 0 1 1.38-1.576c2.278-1.934 5.035-3.152 8.27-3.654 6.1-.921 11.953.437 17.56 4.072 2.948 1.897 5.611 4.477 7.992 7.741.706.976 2.134 3.078 4.281 6.304.651.976 1.149 1.702 1.493 2.176a21.268 21.268 0 0 0 1.701 2.022 15.641 15.641 0 0 0 3.055 2.441h-.586c-2.687-.447-5.188-1.507-7.503-3.18-1.107-.79-2.26-1.757-3.46-2.901-.799-.772-1.845-1.85-3.138-3.236-1.245-1.348-2.18-2.357-2.803-3.026a99.963 99.963 0 0 0-2.859-2.971c-2.678-2.631-5.477-4.584-8.396-5.858-1.86-.809-3.673-1.218-5.44-1.227zm-8.285 4.979c-.39-.149-.888-.265-1.492-.349a6.135 6.135 0 0 0-.74-.014c-.53.01-.818.014-.864.014.39-.279.697-.483.92-.613a24.575 24.575 0 0 1 8.648-3.013c2.287-.325 4.64.009 7.057 1.004 2.38.977 4.76 2.525 7.14 4.645.921.818 1.94 1.817 3.055 2.998.149.158 1.116 1.209 2.9 3.152 2.26 2.473 4.148 4.333 5.663 5.579 2 1.664 3.961 2.882 5.886 3.654 1.311.539 2.57.888 3.78 1.046l.376.098.028.153c-.716.409-1.162.651-1.339.725a34.453 34.453 0 0 1-7.057 2.413c-2.734.633-5.449.34-8.145-.878-2.278-1.023-4.589-2.52-6.932-4.491-1.19-1.014-2.482-2.241-3.877-3.682a329.275 329.275 0 0 1-3.64-3.933 64.363 64.363 0 0 0-4.338-4.366c-2.008-1.813-4.351-3.194-7.029-4.142zM51.116 1.489c.028.26.06.553.097.879l.475 8.145c.213 3.208.106 5.895-.321 8.061-.353 1.758-1.088 3.613-2.204 5.565a36.773 36.773 0 0 1-1.06 1.702c-.54.846-.897 1.413-1.074 1.701-.056.084-.493.856-1.31 2.315-.112.121-.205.228-.28.321-.056-.13-.079-.2-.07-.209.512-.967.912-2.283 1.2-3.947.12-.707.353-1.91.697-3.612a2.536 2.536 0 0 0-.362.404c-.084.13-.154.316-.21.558-.195.781-.469 1.953-.822 3.515a23.91 23.91 0 0 1-.67 2.231 1.628 1.628 0 0 1-.195.377c-.112.167-.195.297-.251.39l-.74-.237a5.19 5.19 0 0 1-.055-.613 35.834 35.834 0 0 0-.279-2.957c-.186-1.302-.325-2.283-.418-2.943-.196-1.385-.312-2.562-.35-3.529-.055-1.273.015-2.45.21-3.528.52-2.864 1.553-5.672 3.096-8.424a25.253 25.253 0 0 1 4.157-5.481l.739-.684zM34.42 3.832c.177.26.423.647.74 1.158.297.465.562.837.794 1.116 2.706 3.263 4.533 7.206 5.482 11.827.102.502.172 1.278.209 2.329.046.753.148 1.604.307 2.552.083.474.25 1.316.502 2.525.195.91.34 1.631.432 2.161.047.26.07.503.07.726v1.143l-1.716-.32c-.13-1.544-.237-2.702-.32-3.473-.13-1.302-.377-2.4-.74-3.292-.055.911-.009 2.013.14 3.306.084.744.223 1.86.418 3.347-1.171 0-1.873-.005-2.106-.014-.065-.01-.13-.051-.195-.125a.51.51 0 0 1-.154-.224c-.27-.65-.502-1.274-.697-1.869a10.92 10.92 0 0 1-.376-1.352c-.419-1.962-1.33-3.831-2.734-5.607-.511-.651-.911-1.506-1.2-2.566-.846-2.948-.957-6.197-.334-9.75.204-1.162.414-2.254.627-3.277.047-.204.093-.353.14-.446a.837.837 0 0 1 .377-.363l.334.488zm-12.287 9.68a4.417 4.417 0 0 1-.21-1.256c-.037-.744.275-.967.935-.67 3.422 1.47 6.313 3.4 8.675 5.789 2.204 2.203 3.798 4.57 4.784 7.099.13.353.41 1.223.837 2.608l.586 1.966-1.2.28a7.724 7.724 0 0 0-.767-3.236c-.437-.902-1.074-1.809-1.91-2.72.241.883.571 1.767.99 2.65.12.26.423 1.05.906 2.371.028.074.047.172.056.293l.028.293c.074.446-.098.734-.516.864-.121.038-.372.159-.753.363a.783.783 0 0 1-.196-.125 2821.977 2821.977 0 0 1-4.49-4.003c-1.265-1.153-2.279-2.13-3.041-2.93-.716-.752-1.367-1.654-1.953-2.705-.455-.818-.92-1.827-1.394-3.026-.335-.856-.79-2.157-1.367-3.906zm2.817 9.679c.344.25.944.744 1.8 1.478.473.39 1.175.981 2.105 1.771.735.586 1.525 1.325 2.371 2.218l2.19 2.427-1.297 1.38c-.855-.957-1.511-1.66-1.967-2.106-.8-.8-1.576-1.348-2.329-1.645l3.92 4.323-1.242 2.469a7.39 7.39 0 0 1-.32-.07 1.538 1.538 0 0 1-.322-.125 58.2 58.2 0 0 1-1.394-.725 10.11 10.11 0 0 1-1.34-.81 624.574 624.574 0 0 1-3.43-2.566 71.408 71.408 0 0 1-3.333-2.678 213.127 213.127 0 0 1-4.854-4.295c-2.13-1.934-3.733-3.385-4.812-4.352-.288-.27-.52-.539-.697-.809-.307-.446-.195-.72.335-.823.344-.055.744-.07 1.2-.041 5.067.455 9.539 2.115 13.416 4.979zM23.25 34.25a449.783 449.783 0 0 0 3.612 1.883c1.079.548 2.176.874 3.291.976l-.083.725c-.558.065-.972.116-1.242.154-.492.055-.901.116-1.227.18-1.2.252-2.617.312-4.254.182l-.67-.028c-2.751.065-5.494-.67-8.228-2.203-3.44-1.925-6.392-4.598-8.856-8.02l-.363-.572c.01 0 .195-.07.558-.209.205-.074.372-.125.502-.153 3.961-.949 7.862-.484 11.702 1.394a32.963 32.963 0 0 1 6.457 4.157 28.243 28.243 0 0 0 2.204 1.631c.641.419 1.241.754 1.799 1.005.4.176 1.046.4 1.938.669l-.097.656a36.516 36.516 0 0 0-.6-.042c-.967-.196-2.013-.568-3.138-1.116l-2.831-1.367-.586-.21-.056.126c.037.038.093.098.168.182zm6.206 4.853c.112.01.284.033.516.07l.195 2.05a3.121 3.121 0 0 1-.516-.07c-1.497-.39-2.7-.595-3.612-.613h-1.994l-.014.14 3.473.53c.948.148 1.757.297 2.426.446.075.018.154.06.237.125.084.075.14.149.168.223.232.66.544 1.623.934 2.887l-1.743.196c-2.083.213-4.44.669-7.071 1.366-.558.15-1.437.28-2.636.39-2.018.178-4.38.154-7.085-.069-.512-.037-1.279-.084-2.302-.14a69.992 69.992 0 0 1-2.3-.153c-1.628-.148-3.423-.34-5.384-.572a2.286 2.286 0 0 1-.35-.07 11.434 11.434 0 0 1-.362-.11.51.51 0 0 1 .14-.377c.056-.066.153-.135.293-.21l1.827-1.115c2.594-1.535 4.212-2.478 4.853-2.832 1.888-1.041 3.613-1.673 5.175-1.896a36.872 36.872 0 0 1 4.323-.321c.288-.01.651.037 1.088.14.67.157 1.027.241 1.074.25 2.176.41 4.458.382 6.848-.083.65-.121 1.088-.191 1.31-.21.131-.009.294 0 .49.028zm1.883.39c-.13-2.286.367-4.313 1.492-6.08 1.348-2.101 3.366-3.292 6.053-3.57 3.385-.335 6.537.543 9.456 2.636 1.683 1.199 2.994 2.914 3.933 5.146.484 1.172.819 2.44 1.005 3.807.241 1.767 0 3.394-.726 4.882-.725 1.488-1.86 2.682-3.403 3.584-1.701.967-3.556 1.446-5.565 1.437-3.319-.01-6.197-1.27-8.633-3.78-2.231-2.296-3.435-4.984-3.612-8.061zm-9.637 12.553a.546.546 0 0 0-.252.251 2.98 2.98 0 0 0 .377-.14c2.018-1.18 3.394-1.998 4.128-2.454.196-.12.428-.297.698-.53.372-.325.59-.511.655-.558 1.367-1.078 2.701-1.776 4.003-2.092.335-.074.595-.116.781-.125.149-.01.251.037.307.139.065.102.065.219 0 .349l-.237.404c-1.59 2.492-3.598 4.812-6.025 6.96-3.292 2.9-6.811 5.09-10.558 6.569-3.32 1.31-6.518 1.887-9.596 1.73l-.334-.015c-.828-.083-1.144-.52-.949-1.31.149-.642.525-1.395 1.13-2.26 3.524-5.077 8.22-8.726 14.086-10.949 2.734-1.032 5.728-1.785 8.982-2.259l2.72-.39.404.627c-.25.084-.4.13-.446.14-1.943.344-3.63 1.148-5.063 2.412a33.178 33.178 0 0 1-4.812 3.501zm8.382-.78c1.115-1.275 1.952-2.228 2.51-2.86.26-.279.437-.451.53-.516a.744.744 0 0 1 .544-.14.471.471 0 0 1 .363.321c.093.288.27.558.53.81.037.036.279.24.725.613l.125.125c-.093.121-.372.516-.836 1.186-.335.474-.614.855-.837 1.144a242.24 242.24 0 0 1-2.985 3.765c-.186.223-.297.419-.335.586l1.102-.893c1.209-.976 2.134-2.078 2.776-3.305.167-.316.492-.823.976-1.52.037-.056.228-.28.572-.67l1.157.698a7.835 7.835 0 0 0-.18.557 4.48 4.48 0 0 1-.21.517c-.307.585-.572 1.022-.795 1.31-.725.986-1.47 2.148-2.232 3.487-.427.753-1.083 1.971-1.966 3.654a5.987 5.987 0 0 1-.697 1.046c-2.25 2.483-4.942 4.51-8.076 6.081-.818.41-1.818.893-2.998 1.45a1209.11 1209.11 0 0 0-3.04 1.41c-.159.055-.312.111-.461.167.065-.614.102-.94.111-.977.735-3.207 1.995-5.83 3.78-7.866.707-.827 1.241-1.446 1.604-1.855.623-.706 1.195-1.283 1.715-1.729 1.72-1.525 3.04-2.78 3.961-3.766.707-.753 1.563-1.697 2.567-2.83zm8.689.557-.14-.502.781.25c.437 2 .623 3.8.558 5.398a118.718 118.718 0 0 0-.098 3.013c0 .335.042.846.126 1.534.13 2.762-.418 5.602-1.646 8.522-1.013 2.445-2.45 5.007-4.31 7.684-.222.307-.757.907-1.603 1.8a1.782 1.782 0 0 1-.475.362.68.68 0 0 1-.585.014.644.644 0 0 1-.335-.432 22.426 22.426 0 0 0-.07-.558c-.223-1.86-.409-3.226-.558-4.1-.901-5.198-.204-10.028 2.093-14.491.483-.94 1.139-2.13 1.966-3.57 1.134-1.99 1.804-3.171 2.008-3.543.158-.288.535-1.046 1.13-2.274a.391.391 0 0 1 .349.14c.056.065.116.19.181.376.502 1.432.465 2.897-.112 4.394-.102.27-.395.864-.878 1.785-.465.883-.72 1.627-.767 2.231.12-.055.181-.088.181-.097l1.646-2.915c.892-1.525 1.078-3.199.558-5.021zm1.645.46c.14-.149.414-.218.823-.209.39.01 1.376.07 2.957.181.233.382.437.833.614 1.353.102.316.237.795.404 1.437l.154.572c.037.102.102.162.195.18.056.01.158 0 .307-.027-.13-1.079-.502-2.26-1.116-3.543a90.861 90.861 0 0 1 1.66-.265c.111-.018.227.033.348.154.465.455.814.874 1.046 1.255.298.484.47.995.516 1.534l.502 5.384c.066.697.126 1.139.182 1.325.176.641.25 1.371.223 2.19-.01.408-.075 1.138-.195 2.19-.112.92-.326 2.026-.642 3.319a307.26 307.26 0 0 1-.823 3.263c-.567 2.455-1.18 4.454-1.84 5.997-.131.316-.256.549-.377.698-.177.232-.405.4-.684.502-.186-1.014-.293-1.655-.32-1.925-.093-1.004-.312-2.176-.656-3.515a194.698 194.698 0 0 1-.92-3.445l-1.047-4.351c-.139-.53-.316-1.13-.53-1.8a10.505 10.505 0 0 1-.46-2.147c-.065-.52-.12-1.255-.167-2.204l-.335-7.28c-.019-.4.042-.674.181-.823zM5.495 87.57c.037-.046.112-.07.223-.07a.71.71 0 0 1 .251.042c1.079.363 2.255.614 3.529.753 1.041.121 2.24.172 3.598.154a20.38 20.38 0 0 0 2.734-.237c.623-.084 1.52-.237 2.692-.46.678-.13 1.687-.326 3.026-.586a63.412 63.412 0 0 1 3.027-.516c6.797-.967 12.533 1.064 17.21 6.094 1.47 1.563 2.924 3.585 4.366 6.067.316.549.846 1.442 1.59 2.678a91.757 91.757 0 0 1 1.59 2.664c.12.205.237.479.348.823.056.186.144.47.265.851l-.181.056-1.227-1.814c-1.311-1.999-2.455-3.477-3.431-4.435-3.44-3.347-7.43-5.495-11.967-6.443-2.12-.428-4.681-.749-7.685-.963-1.571-.102-4.723-.353-9.456-.753-2.24-.176-4.193-.506-5.857-.99-1.72-.502-3.115-1.218-4.185-2.148l-.306-.265c-.224-.204-.275-.372-.154-.502zm1.367 3.222-.74-1.492.043-.098.71.432c1.423.874 3.046 1.465 4.868 1.772 2.25.38 4.236.655 5.956.822 1.887.186 4.728.419 8.521.698 1.907.167 3.529.358 4.868.572 1.748.288 3.343.664 4.784 1.13 4.333 1.403 7.93 3.956 10.795 7.656.864 1.125 1.92 2.618 3.166 4.477.26.372.427.67.502.893.046.167.097.507.153 1.018l-.418-.377c-1.497-1.469-3.431-2.399-5.802-2.789-1.2-.195-2.52-.284-3.961-.265-1.014.009-2.339.084-3.975.223-3.031.251-5.188.391-6.472.419-4.119.093-8.126-1.009-12.022-3.306-4.658-2.761-8.317-6.69-10.976-11.785zm33.584-24.365.182-.907c.13.186.19.34.18.46-.008.167-.13.316-.362.447zm.53.948.168.014c.38 1.506.623 2.445.725 2.817.66 2.325 1.283 5.244 1.869 8.759.046.279.135.692.265 1.241.046.205.093.349.14.432.083.14.204.238.362.293.093.038.172.158.237.363.186.586 1.144 3.547 2.873 8.884 1.153 3.57 2.05 6.541 2.692 8.912.93 3.403 1.655 6.481 2.176 9.233.065.326.083.567.055.726-.037.251-.186.469-.446.655l.711.293c1.311 7.615 1.6 15.621.865 24.017h-1.102c.028-.465.042-.712.042-.74.446-4.732.512-9.814.195-15.244-.334-6.155-1.599-12.403-3.793-18.744a541.15 541.15 0 0 0-2.469-6.946 2523.174 2523.174 0 0 1-2.496-6.96c-1.479-4.212-2.497-7.717-3.055-10.516-.186-.957-.367-2.259-.544-3.905a6.992 6.992 0 0 1 .21-2.72c.009-.037.116-.325.32-.864zm-20.042 67.81c.224-.176.47-.26.74-.251l5.816.195c.706.038 1.24.056 1.603.056l34.143.168c.67 0 2.431.018 5.286.055 2.166.019 3.928.024 5.285.014.828-.009 1.93-.042 3.306-.097 1.636-.075 2.738-.121 3.305-.14.326-.009.716.005 1.172.042.26.019.646.051 1.158.098.409.028.869.144 1.38.348.502.177.832.535.99 1.074.205.744.27 1.609.196 2.594-.028.41-.088 1.028-.181 1.855-.075 1.06-.433 1.865-1.074 2.413-.502.428-1.223.716-2.162.865-.828.13-1.897.144-3.208.042-3.198-.289-6.606-.395-10.223-.321-5.95.139-10.414.237-13.39.293h-5.02v.042c-7.764-.13-13.59-.219-17.476-.265-.623-.01-1.669 0-3.138.028a76.628 76.628 0 0 1-3.152.014c-.827-.019-2.199-.145-4.114-.377-1.246-.167-2.06-.865-2.441-2.092-.511-1.534-.544-3.115-.098-4.742.196-.707.628-1.344 1.297-1.911zm1.897 9.93c.995.066 1.595.098 1.8.098l12.58.195c3.254.047 8.135.131 14.644.251 2.055.019 5.137 0 9.247-.055 1.971-.028 4.937-.093 8.898-.196 1.906-.018 4.221.093 6.946.335.465.037 1.041.056 1.729.056H81.269l-.167.795c-.288 1.925-.46 3.045-.516 3.361-.047.27-.52 2.994-1.423 8.173-.548 3.143-1.31 7.104-2.287 11.883a6205.053 6205.053 0 0 0-2.427 11.855c-.13.632-.279 1.511-.446 2.636a97.877 97.877 0 0 1-.419 2.636c-.158.892-.39 1.799-.697 2.719-.456 1.321-1.385 2.172-2.79 2.553-.91.241-1.873.413-2.886.516-3.906.372-8.764.507-14.575.404-1.943-.037-5.42-.167-10.432-.39-1.916-.065-3.45-.158-4.603-.279a11.57 11.57 0 0 1-4.63-1.437c-.763-.418-1.283-1.06-1.562-1.924-.298-.93-.493-1.73-.586-2.399-.168-1.293-.456-2.836-.865-4.631a542.114 542.114 0 0 1-1.074-4.588 261.386 261.386 0 0 1-2.022-10.084c-.27-1.488-1.195-6.736-2.775-15.746l-1.256-6.737z" fill="#000"/></g><defs><clipPath id="a"><path fill="#fff" d="M0 0h103v195H0z"/></clipPath></defs></svg>