<svg width="543" height="666" viewBox="0 0 543 666" fill="none" xmlns="http://www.w3.org/2000/svg">
    <g clip-path="url(#clip0)">
        <path d="M50.35 623.1C53.55 622.333 56.0833 621.733 57.95 621.3C50.9166 616.133 45.1166 610.367 40.55 604C36.1166 597.8 32.6833 590.767 30.25 582.9C28.15 587.633 25.2833 592.117 21.65 596.35C18.6833 599.85 14.8833 603.467 10.25 607.2C7.01664 609.833 5.54998 612.183 5.84998 614.25C6.11664 616.317 8.16664 618.3 12 620.2C20.8333 624.667 31.3833 626.083 43.65 624.45C45.4166 624.217 47.65 623.767 50.35 623.1Z" fill="white"/>
        <path d="M71.05 442.55L72 441.95C70.6333 438.05 69.6 435.117 68.9 433.15C67.6333 429.683 66.3667 426.9 65.1 424.8C62.7667 420.967 59.6167 418.55 55.65 417.55C51.8167 416.583 47.8167 417.083 43.65 419.05C37.3167 422.017 31.6 427.85 26.5 436.55C21.4 445.25 19.0667 453.1 19.5 460.1C19.6667 462.933 20.3667 464.783 21.6 465.65C22.8667 466.55 24.75 466.45 27.25 465.35C37.0167 461.083 47.2 459.217 57.8 459.75C60.6 459.883 62.9833 459.25 64.95 457.85C66.7833 456.483 68.15 454.45 69.05 451.75C69.45 450.55 69.8333 449.033 70.2 447.2C70.5667 445.133 70.85 443.583 71.05 442.55Z" fill="white"/>
        <path d="M56.75 474.5C53.75 473.567 50.4167 471.983 46.75 469.75C41.4833 481.05 38.5667 493.967 38 508.5C37.5 522.367 39.1833 536.4 43.05 550.6C46.8833 564.8 52.4833 577.617 59.85 589.05C67.5833 601.017 76.5 610.267 86.6 616.8C75.6667 597.8 71.8 578.567 75 559.1C77.7 542.4 85.8667 524.55 99.5 505.55C87.4333 497.35 77.5167 487.717 69.75 476.65C69.5167 476.317 69.2 476.017 68.8 475.75C68.4 475.483 68.0667 475.367 67.8 475.4C64.1667 475.933 60.4833 475.633 56.75 474.5Z" fill="white"/>
        <path d="M35.85 580C37.05 586.367 39.8833 592.883 44.35 599.55C54.4833 614.75 67.5333 622.617 83.5 623.15C61.6333 607.15 46.4 585.6 37.8 558.5C35.1333 565.667 34.4833 572.833 35.85 580Z" fill="white"/>
        <path d="M410.55 274.95C412.95 265.883 413.617 256.933 412.55 248.1C410.85 234.1 405.367 223.417 396.1 216.05C386.8 208.65 375.167 205.733 361.2 207.3C346.967 208.9 333.217 212.617 319.95 218.45C317.117 219.717 313.567 221.383 309.3 223.45C302.2 226.85 298.45 228.65 298.05 228.85C304.183 232.117 309.083 235.317 312.75 238.45C317.25 242.283 320.7 246.617 323.1 251.45C317.133 245.717 311.583 241.217 306.45 237.95C299.95 233.85 293.183 231.067 286.15 229.6L301.95 252.75L300.55 253.95C288.417 238.383 276.233 226.133 264 217.2C249.433 206.5 233.683 199.6 216.75 196.5C182.983 190.233 149.9 196.917 117.5 216.55L116.65 215.2L136.7 200.9L136.65 199.65L100.35 203.15L100.1 202.3L119.15 196.85C118.45 196.217 118.067 195.883 118 195.85C111.267 191.983 104.167 189.817 96.7 189.35C89.5666 188.917 82.6833 190.067 76.05 192.8C69.4166 195.533 63.7 199.583 58.9 204.95C53.8666 210.55 50.3 217.1 48.2 224.6C44.3 238.367 44.6166 253.483 49.15 269.95C54.8166 290.683 64.1333 310.017 77.1 327.95C88.8 344.117 103.767 359.517 122 374.15C122.2 374.283 122.95 374.617 124.25 375.15L121.35 366.55C122.95 368.317 124.75 370.567 126.75 373.3C127.85 374.833 129.483 377.117 131.65 380.15C157.383 414.45 190.367 426.717 230.6 416.95C241.433 414.317 252.05 410 262.45 404C271.483 398.733 280.717 391.95 290.15 383.65L299.85 375L300.95 376.05L287.45 392C287.683 391.933 288.617 391.633 290.25 391.1C291.183 390.767 291.933 390.467 292.5 390.2C296.333 388.333 302.133 385.583 309.9 381.95C316.7 378.683 322.333 375.683 326.8 372.95C359.567 352.917 384.017 328.467 400.15 299.6C405.017 290.933 408.483 282.717 410.55 274.95ZM365.1 256.6L356.55 251.6C360.283 250.333 363.867 251.317 367.3 254.55C369.033 256.183 370.083 258.267 370.45 260.8C370.783 263.2 370.45 265.567 369.45 267.9L365.15 256.75C365.05 256.817 364.95 256.883 364.85 256.95C364.683 257.117 364.483 257.383 364.25 257.75C363.917 258.217 363.617 258.567 363.35 258.8C354.45 266.467 341.1 277.95 323.3 293.25C322.667 293.783 322.067 294.55 321.5 295.55C321.267 295.95 320.817 296.833 320.15 298.2C310.983 316.833 300.05 332.367 287.35 344.8C273.55 358.333 257.517 368.333 239.25 374.8C218.55 382.2 199.783 383.483 182.95 378.65C166.117 373.85 150.45 362.733 135.95 345.3C133.083 341.867 129.933 337.417 126.5 331.95C122.667 325.683 119.75 321 117.75 317.9C116.65 316.2 114.55 312.733 111.45 307.5C108.883 303.133 106.733 299.7 105 297.2C101 291.367 97.3833 284.55 94.15 276.75C91.95 271.383 89.4 264.1 86.5 254.9C85.5666 251.867 84.2833 248.183 82.65 243.85C80.75 238.817 79.3 234.933 78.3 232.2C79.0666 233.267 80.2166 234.717 81.75 236.55C82.9833 238.117 83.8666 239.5 84.4 240.7C88.0666 249 90.9333 256.25 93 262.45C99.5666 282.35 110.133 298.283 124.7 310.25C138.367 321.45 155.817 329.4 177.05 334.1C201.383 339.5 224.733 339.083 247.1 332.85C268.233 326.95 288.683 315.8 308.45 299.4C310.683 297.567 316.067 292.967 324.6 285.6C331.2 279.867 336.65 275.35 340.95 272.05C344.017 269.717 348 267.067 352.9 264.1C358.167 261 362.15 258.617 364.85 256.95C364.95 256.75 365.033 256.633 365.1 256.6ZM74 229C76.0666 227.367 78.3333 226.683 80.8 226.95C83.3333 227.25 85.8833 228.517 88.45 230.75C82.35 229.05 77.95 229.167 75.25 231.1C72.5833 233 70.8333 237.2 70 243.7C68.8 241.533 68.6 238.983 69.4 236.05C70.2 233.117 71.7333 230.767 74 229Z" fill="white"/>
        <path d="M58.95 399.9C50.9166 400.333 45 404.933 41.2 413.7L44.65 412.75C54.15 409.817 62.0833 412.1 68.45 419.6C75.4166 427.867 77.9666 437.533 76.1 448.6C75.1333 454.267 73.1 458.417 70 461.05C66.9333 463.617 62.5166 465.033 56.75 465.3C56.1833 465.333 54.6333 465.483 52.1 465.75C55.9333 469.017 60.3833 470.583 65.45 470.45C70.45 470.35 75.1166 468.617 79.45 465.25C82.7833 462.683 85.55 459.367 87.75 455.3C89.4833 452.133 91.0333 448.117 92.4 443.25L93.6 439.25C94.4333 454.583 88.4333 465.983 75.6 473.45C84.7333 486.35 97.15 497.167 112.85 505.9C110.617 501.033 108.933 497.367 107.8 494.9C105.767 490.5 104.35 486.75 103.55 483.65C98.3833 463.45 100.233 441.917 109.1 419.05C110.967 414.217 113.55 408.45 116.85 401.75C120.517 394.383 123.183 388.95 124.85 385.45L82.75 347.1C73.35 360.033 66.6833 375.833 62.75 394.5C68.3166 395.4 72.9999 397.133 76.7999 399.7C80.9333 402.467 84.3333 406.383 87 411.45C76.3666 403.35 67.0166 399.5 58.95 399.9Z" fill="white"/>
        <path d="M367 128.65C360.8 116.117 353.817 105.517 346.05 96.85C337.817 87.65 329.733 81.8167 321.8 79.35L328 97L326.55 97.6L321.35 88.1C317.65 81.4 313.7 75.6667 309.5 70.9C304.667 65.4667 299.283 61.0334 293.35 57.6C285.05 52.8334 277.083 51.1 269.45 52.4C261.783 53.7 254.883 57.9834 248.75 65.25L245.35 69.35L244.3 68.8L249.1 58.8H226.7L229.15 69.55L227.9 69.85L225.45 65.15C222.517 59.5167 218.917 55.7167 214.65 53.75C210.383 51.75 205.183 51.4834 199.05 52.95C193.583 54.2834 188.167 56.75 182.8 60.35C178.867 63.0167 174.267 66.85 169 71.85C167.567 73.1834 165.95 75.0167 164.15 77.35C163.15 78.65 161.633 80.6 159.6 83.2C155.867 87.7667 151.917 90.6834 147.75 91.95C129.017 107.917 112.867 129.117 99.3 155.55C97.5 159.05 95.3833 163.467 92.95 168.8C91.5833 171.8 89.5 176.4 86.7 182.6C88.9666 182.833 90.2833 182.933 90.65 182.9C97.0166 182.7 103.417 183.583 109.85 185.55C115.45 187.283 121.367 189.933 127.6 193.5C129.033 194.3 130.917 195.05 133.25 195.75C135.917 196.483 137.9 197.067 139.2 197.5L140.3 196.05C130.4 189.15 126.15 178.883 127.55 165.25C128.083 160.517 129.017 156.133 130.35 152.1C133.817 141.2 139.217 130.85 146.55 121.05C152.883 112.583 160.983 104.133 170.85 95.7C178.383 89.2334 186.1 85.15 194 83.45C199.333 82.35 204.167 82.95 208.5 85.25C212.867 87.55 216 91.1834 217.9 96.15C211.6 89.35 204.85 85.7167 197.65 85.25C190.45 84.7834 184.1 87.5667 178.6 93.6C190.267 90.4 199.383 90.7667 205.95 94.7C212.55 98.6667 217.067 106.583 219.5 118.45C224.533 142.783 219.317 164.517 203.85 183.65C203.617 183.95 202.583 185.317 200.75 187.75L232.6 193.45C230.067 187.617 228.4 181.283 227.6 174.45C226.933 168.65 226.883 162.167 227.45 155C229.117 133.567 236.7 116.067 250.2 102.5C256.767 95.9334 263.583 92.5 270.65 92.2C277.717 91.8667 284.867 94.6334 292.1 100.5C293.667 101.767 295.567 103.483 297.8 105.65C301.6 109.25 303.55 111.1 303.65 111.2C300.617 105.767 297.45 101.283 294.15 97.75C290.317 93.65 286 90.5 281.2 88.3C276.133 85.9667 270.817 85.2334 265.25 86.1C260.65 86.8334 255.55 88.7167 249.95 91.75C256.45 86.55 263.25 83.9 270.35 83.8C277.483 83.7334 284.117 86.2667 290.25 91.4C295.817 96.1334 300.417 101.533 304.05 107.6C308.883 115.567 312.933 124.5 316.2 134.4C318.933 142.733 321.267 152.25 323.2 162.95C325.967 178.017 324.383 191.333 318.45 202.9C317.45 204.867 315.983 207.167 314.05 209.8C312.983 211.267 311.367 213.45 309.2 216.35C322.767 210.083 334.633 205.783 344.8 203.45C357.967 200.417 370.583 200 382.65 202.2C384.283 191.867 383.6 179.95 380.6 166.45C377.767 153.75 373.233 141.15 367 128.65Z" fill="white"/>
        <path d="M200.9 534.75C188.733 534.45 178.05 533.483 168.85 531.85C159.65 530.183 149.883 527.45 139.55 523.65C130.817 520.483 118.833 515.467 103.6 508.6C103.133 508.767 102.833 508.9 102.7 509C102.233 509.367 101.783 509.85 101.35 510.45C83.5833 532.217 75.7667 555.783 77.9 581.15C79.0333 594.417 83.1 605.483 90.1 614.35C97.2 623.35 107.117 629.85 119.85 633.85C135.317 638.717 152.2 642.05 170.5 643.85C185.467 645.317 202.65 645.817 222.05 645.35C224.117 645.317 226.633 645.2 229.6 645C231.267 644.9 233.733 644.733 237 644.5C225.733 626.467 221.5 607.567 224.3 587.8C226.433 572.567 233.383 554.7 245.15 534.2C225.917 534.833 211.167 535.017 200.9 534.75Z" fill="white"/>
        <path d="M210.5 46.4C207.6 39 204.483 32.8167 201.15 27.85C197.05 21.7167 192.217 16.6834 186.65 12.75C178.55 7.01669 169.583 4.65002 159.75 5.65002C134.95 8.21668 116.45 21.1334 104.25 44.4C103.317 46.2 102.6 48.45 102.1 51.15C101.833 52.3834 101.5 54.7667 101.1 58.3C101.033 59 101.283 59.9334 101.85 61.1C102.183 61.7334 102.683 62.7 103.35 64C104.65 63.4 105.617 62.9667 106.25 62.7C107.383 62.1667 108.217 61.6167 108.75 61.05C114.75 54.4834 121 47.3667 127.5 39.7C132.167 34.1667 136.35 29.7667 140.05 26.5C144.95 22.1667 149.983 18.8167 155.15 16.45C166.683 11.2167 177.733 12.15 188.3 19.25C192.433 22.0167 196.1 25.5 199.3 29.7C202.067 33.3334 204.617 37.7 206.95 42.8C207.217 43.4 207.95 44.8667 209.15 47.2L210.5 46.4Z" fill="white"/>
        <path d="M264.25 409.8C237.75 423.3 213.85 428.6 192.55 425.7C169.417 422.5 148.867 409.583 130.9 386.95C130.033 387.45 129.583 387.717 129.55 387.75C119.717 402.25 112.783 416.483 108.75 430.45C104.25 446.083 103.267 461.817 105.8 477.65C107.4 487.683 111.017 496.083 116.65 502.85C122.417 509.75 130.2 514.817 140 518.05C164.333 526.05 190.55 529.833 218.65 529.4C223.217 529.333 228.867 529.033 235.6 528.5C239.4 528.233 245.283 527.783 253.25 527.15C248.717 517.617 245.833 507.633 244.6 497.2C243.5 487.9 243.683 477.85 245.15 467.05C247.783 447.85 254.15 428.767 264.25 409.8Z" fill="white"/>
        <path d="M312.05 304.3C311.983 303.733 311.95 303.4 311.95 303.3C253.317 352.467 190.217 357.233 122.65 317.6L122.95 318.55C130.717 332.65 139.567 344.45 149.5 353.95C150.8 355.183 152.05 355.983 153.25 356.35C154.55 356.717 156.067 356.65 157.8 356.15C190.967 346.783 223.117 348.033 254.25 359.9C255.817 360.5 257.25 360.733 258.55 360.6C259.817 360.433 261.15 359.9 262.55 359C282.083 346.167 298.55 328.15 311.95 304.95C312.017 304.817 312.05 304.6 312.05 304.3Z" fill="white"/>
        <path d="M218.3 134.2C218 128.3 217.467 123.467 216.7 119.7C215.6 114.333 213.85 109.617 211.45 105.55C208.683 100.85 205.267 97.55 201.2 95.65C197.033 93.7167 192.467 93.4334 187.5 94.8C179.133 97.1 172.567 100.1 167.8 103.8C148.267 119 135.967 138.967 130.9 163.7C129.5 170.433 130.017 176.567 132.45 182.1C134.883 187.567 138.883 191.783 144.45 194.75C145.45 195.317 146.65 195.667 148.05 195.8C149.483 195.933 150.733 195.817 151.8 195.45C163.4 191.483 176.6 189.033 191.4 188.1C192.667 188.033 193.967 187.683 195.3 187.05C196.7 186.45 197.8 185.7 198.6 184.8C211.233 171.033 217.8 154.167 218.3 134.2ZM194.2 137.45C198 137.417 201.3 139.033 204.1 142.3C206.9 145.567 208.3 149.417 208.3 153.85C208.333 158.083 207.067 161.683 204.5 164.65C201.9 167.617 198.767 169.067 195.1 169C191.3 168.967 188.067 167.383 185.4 164.25C182.767 161.15 181.433 157.383 181.4 152.95C181.367 148.55 182.567 144.867 185 141.9C187.433 138.967 190.5 137.483 194.2 137.45Z" fill="white"/>
        <path d="M156.5 359.35C169.8 370.95 185.867 376.85 204.7 377.05C222.367 377.25 239 372.567 254.6 363C238.467 356.933 222.267 353.6 206 353C189.8 352.433 173.3 354.55 156.5 359.35Z" fill="white"/>
        <path d="M196.7 148.25C196.367 145.583 195.8 143.633 195 142.4C194.067 141 192.7 140.267 190.9 140.2C189.2 140.167 187.883 140.717 186.95 141.85C186.083 142.85 185.6 144.25 185.5 146.05C185.333 147.85 185.883 149.517 187.15 151.05C188.383 152.617 189.683 153.167 191.05 152.7C192.017 152.367 193.083 151.683 194.25 150.65C195.417 149.45 196.233 148.65 196.7 148.25Z" fill="white"/>
        <path d="M303.35 118C298.15 109.6 291.867 103.283 284.5 99.05C274.633 93.45 265.317 94.0333 256.55 100.8C252.817 103.667 249.583 107 246.85 110.8C235.85 126 230.2 143.433 229.9 163.1L228.5 163.4C229.267 166.633 230.4 171.467 231.9 177.9C233.233 183.567 234.433 188.367 235.5 192.3C235.733 193.2 236.317 194.1 237.25 195C238.117 195.867 239.033 196.517 240 196.95C252.867 202.45 264.483 209.817 274.85 219.05C276.483 220.417 277.917 221.117 279.15 221.15C289.683 221.65 298.3 219.267 305 214C311.433 208.967 315.933 202.633 318.5 195C320.667 188.533 321.533 180.85 321.1 171.95C320.167 153.65 314.25 135.667 303.35 118ZM255.75 160.4C255.017 155.867 255.917 151.65 258.45 147.75C260.983 143.85 264.25 141.617 268.25 141.05C272.283 140.517 275.967 141.7 279.3 144.6C282.667 147.467 284.683 151.2 285.35 155.8C285.45 156.467 285.5 157.283 285.5 158.25C285.533 162.95 284.317 166.933 281.85 170.2C279.417 173.433 276.283 175.267 272.45 175.7C268.817 176.133 265.467 175.083 262.4 172.55C259.367 170.017 257.317 166.617 256.25 162.35C255.983 161.483 255.817 160.833 255.75 160.4Z" fill="white"/>
        <path d="M373 476.15C370.733 462.617 367.683 453.283 363.85 448.15C362.317 451.05 359.95 455.45 356.75 461.35C353.917 466.617 351.617 471.167 349.85 475C348.283 478.4 347.533 482.617 347.6 487.65C347.633 489.817 347.95 493.533 348.55 498.8C349.083 503.567 349.317 507.283 349.25 509.95C349.05 519.683 346.167 528.05 340.6 535.05C334.833 542.35 328.85 542.617 322.65 535.85C321.617 534.75 320.333 533.233 318.8 531.3C316.8 528.833 315.533 527.283 315 526.65C312.6 523.85 309.067 521.933 304.4 520.9C299.9 519.9 295.8 520.017 292.1 521.25C287.733 522.683 281.717 524.533 274.05 526.8C265.35 529.367 259.317 531.183 255.95 532.25C252.95 533.217 250.7 534.683 249.2 536.65C236.833 552.75 229.633 571.783 227.6 593.75C226.767 602.283 227.083 610.033 228.55 617C230.217 624.867 233.383 632 238.05 638.4C239.783 640.8 241.533 642.35 243.3 643.05C245.4 643.85 247.783 643.583 250.45 642.25C243.083 633.25 241.5 623.283 245.7 612.35C247.6 607.383 250.767 602.617 255.2 598.05C259.667 593.45 263.65 590.883 267.15 590.35C266.183 591.25 264.9 592.433 263.3 593.9C259.567 597.7 256.633 601.2 254.5 604.4C251.767 608.433 249.883 612.583 248.85 616.85C247.083 624.15 248.383 630.683 252.75 636.45C257.15 642.25 262.95 645.117 270.15 645.05C267.883 641.417 266.333 638.3 265.5 635.7C264.4 632.167 264.233 628.717 265 625.35C266.567 618.517 270.467 612.683 276.7 607.85C282.967 603.017 290.033 600.417 297.9 600.05C312.067 599.317 320.1 605.2 322 617.7C322.033 617.967 322.133 618.3 322.3 618.7L322.75 619.65C325.483 615.117 327.017 611.067 327.35 607.5C328.017 600.767 326.267 595.017 322.1 590.25C317.967 585.517 312.033 582.45 304.3 581.05L299.5 580C308.367 578.933 315.4 580.283 320.6 584.05C325.767 587.783 329.933 594.5 333.1 604.2C356.467 581.3 370.183 552.783 374.25 518.65C375.883 505.05 375.467 490.883 373 476.15Z" fill="white"/>
        <path d="M349.75 365.25L345.25 368.35C324.25 383.617 302.2 394.65 279.1 401.45C276.8 402.117 274.883 403.05 273.35 404.25C271.783 405.417 270.417 406.983 269.25 408.95C256.617 430.083 249.433 453.217 247.7 478.35C246.567 494.583 249.017 509.017 255.05 521.65C255.417 522.45 256.083 523.233 257.05 524C258.017 524.767 258.783 525.083 259.35 524.95C263.217 524.017 267.783 522.817 273.05 521.35C276.117 520.483 280.767 519.15 287 517.35C279.367 508.45 275.05 499.483 274.05 490.45C273.05 481.417 275.517 473.9 281.45 467.9C279.617 474.1 278.467 478.917 278 482.35C277.3 487.583 277.567 492.383 278.8 496.75C280.3 501.983 283.017 506.3 286.95 509.7C290.95 513.2 295.05 514.7 299.25 514.2C289.683 509.567 286.233 501.95 288.9 491.35C291.8 479.95 298.617 471.55 309.35 466.15C320.95 460.283 331.283 462.3 340.35 472.2C340.517 472.4 341.267 473.083 342.6 474.25C342.7 468.65 341.867 463.867 340.1 459.9C338.2 455.667 335.183 452.167 331.05 449.4C327.217 446.867 322.833 445.483 317.9 445.25C314.2 445.083 309.55 445.6 303.95 446.8C311.983 441.1 320.033 440 328.1 443.5C336.1 446.967 342.65 454.35 347.75 465.65C355.817 455.95 360.05 440.45 360.45 419.15C360.85 397.917 357.283 379.95 349.75 365.25Z" fill="white"/>
        <path d="M271.2 146.7C270.333 145.3 268.983 144.567 267.15 144.5C265.35 144.433 263.95 145.017 262.95 146.25C262.017 147.383 261.567 148.867 261.6 150.7C261.6 152.567 262.05 154.067 262.95 155.2C263.983 156.5 265.383 157.033 267.15 156.8C268.083 156.667 269.117 156.067 270.25 155C271.383 153.833 272.167 153.083 272.6 152.75C272.467 150.017 272 148 271.2 146.7Z" fill="white"/>
        <path d="M327.6 646.9C321.567 637.633 317.883 628.633 316.55 619.9C315.717 614.467 314.033 610.783 311.5 608.85C308.833 606.817 304.183 605.817 297.55 605.85C294.25 605.917 290.85 606.7 287.35 608.2C283.483 609.867 279.983 612.2 276.85 615.2C272.683 619.233 270.467 623.733 270.2 628.7C269.9 633.733 271.717 638.283 275.65 642.35C282.017 648.883 289.083 653.55 296.85 656.35C304.75 659.183 313.2 660.033 322.2 658.9C326.6 658.367 329.217 657.167 330.05 655.3C330.85 653.433 330.033 650.633 327.6 646.9Z" fill="white"/>
        <path d="M391.65 71.1C394.917 75.0334 397.917 78.1334 400.65 80.4C402.15 81.6334 403.55 81.9834 404.85 81.45C406.15 80.9167 406.917 79.7 407.15 77.8C407.717 73.2 407.533 69.4333 406.6 66.5C401.567 50.3667 392.417 37.1667 379.15 26.9C371.65 21.1333 364.167 17.0667 356.7 14.7C348.4 12.0667 339.917 11.4834 331.25 12.95C321.383 14.6167 312.667 18.7834 305.1 25.45C298.933 30.85 293.017 38.4333 287.35 48.2L288.9 49.55C290.067 47.9167 290.983 46.7333 291.65 46C294.95 42.1 297.417 39.1834 299.05 37.25C302.017 33.7834 304.683 31.0667 307.05 29.1C322.95 15.8667 339.117 15.9 355.55 29.2C359.383 32.2667 362.067 34.75 363.6 36.65C369.9 44.25 379.25 55.7334 391.65 71.1Z" fill="white"/>
        <path d="M343.65 503.85C343.617 498.917 343.2 494.55 342.4 490.75C341.433 486.217 339.867 482.117 337.7 478.45C335.1 474.083 331.783 471.167 327.75 469.7C323.717 468.233 319.35 468.367 314.65 470.1C306.017 473.267 299.733 479.117 295.8 487.65C291.3 497.517 293.633 504.983 302.8 510.05C311.7 514.95 319.267 521.75 325.5 530.45C327.733 533.55 329.817 535.033 331.75 534.9C333.617 534.767 335.533 533.033 337.5 529.7C341.7 522.567 343.75 513.95 343.65 503.85Z" fill="white"/>
        <path d="M403.65 419.35C392.917 407.583 380.333 399.483 365.9 395.05C365.633 396.117 365.5 396.7 365.5 396.8C365.5 413.2 365.55 425.5 365.65 433.7C365.65 434.933 365.983 436.183 366.65 437.45C374.917 453.717 379.667 470.75 380.9 488.55C384.267 536.85 369.3 577.5 336 610.5C334.133 612.333 332.15 614.933 330.05 618.3C328.85 620.2 327.083 623.033 324.75 626.8L326 628.4L357.85 623.6C355.583 615.433 355.767 607.883 358.4 600.95C361 594.183 365.033 590.233 370.5 589.1C369.533 590.767 367.9 593.317 365.6 596.75C363.567 599.95 362.083 602.75 361.15 605.15C359.217 610.15 359.4 614.65 361.7 618.65C363.967 622.583 367.6 624.883 372.6 625.55C370.267 618.717 369.983 612.95 371.75 608.25C373.55 603.583 377.483 599.75 383.55 596.75C389.583 593.783 394.833 592.917 399.3 594.15C403.767 595.417 407.9 598.9 411.7 604.6C413.2 601.6 413.833 598.633 413.6 595.7C413.3 592.6 412.017 590.133 409.75 588.3C407.983 586.833 405.567 585.317 402.5 583.75C399.033 582.05 396.45 580.733 394.75 579.8L394.95 578.7L414.95 584.2C417.65 579.367 419.717 575.65 421.15 573.05C423.717 568.317 425.767 564.233 427.3 560.8C432.167 549.733 434.983 537.433 435.75 523.9C436.35 513.4 435.7 500.817 433.8 486.15C430.433 460.05 420.383 437.783 403.65 419.35Z" fill="white"/>
        <path d="M406.6 609.8C405.167 605.1 403.45 602.083 401.45 600.75C399.35 599.317 396.017 599.133 391.45 600.2C387.983 601 384.85 602.433 382.05 604.5C377.85 607.633 375.733 611.233 375.7 615.3C375.633 619.4 377.633 623.083 381.7 626.35C388.033 631.45 395.983 634.367 405.55 635.1C406.117 635.067 406.933 635.033 408 635C408.9 634.933 409.65 634.867 410.25 634.8C413.483 634.3 415.367 633.483 415.9 632.35C416.4 631.25 415.867 629.267 414.3 626.4C412.367 622.9 410.933 620.183 410 618.25C408.5 615.183 407.367 612.367 406.6 609.8Z" fill="white"/>
        <path d="M422.35 434.1C425.25 439.167 427.517 443.5 429.15 447.1C433.017 455.567 436 464.783 438.1 474.75C439.967 483.417 441.25 493.067 441.95 503.7C443.017 519.6 441.733 534.45 438.1 548.25C434.333 562.683 427.967 576.133 419 588.6C417.933 590.033 417.417 591.2 417.45 592.1C417.517 593.9 417.667 596.167 417.9 598.9C418.033 600.433 418.25 602.817 418.55 606.05L429.2 603.75C430.3 590.95 434.667 583.35 442.3 580.95C441.467 582.517 440.1 584.917 438.2 588.15C436.567 591.083 435.4 593.65 434.7 595.85C433.667 599.083 433.9 601.933 435.4 604.4C436.833 606.8 439.35 608.617 442.95 609.85C441.083 604.883 440.933 600.483 442.5 596.65C444 592.983 447 589.933 451.5 587.5C456.4 584.867 460.733 583.75 464.5 584.15C469 584.65 472.867 587.317 476.1 592.15C477.1 586.683 476.017 582.467 472.85 579.5C471.15 577.867 467.45 575.9 461.75 573.6C463.717 573.4 465.167 573.317 466.1 573.35C467.633 573.35 468.917 573.6 469.95 574.1C471.85 574.967 473.417 575.133 474.65 574.6C475.717 574.167 476.817 573.067 477.95 571.3C498.017 540.233 500.25 506.733 484.65 470.8C475.017 448.667 459.683 433.5 438.65 425.3C430.05 421.933 422.1 420.517 414.8 421.05C416.467 424.05 418.983 428.4 422.35 434.1Z" fill="white"/>
        <path d="M476.75 610.65C474.717 606.883 472.65 602.05 470.55 596.15C469.617 593.617 468.467 591.883 467.1 590.95C465.633 589.917 463.7 589.667 461.3 590.2C457.333 591.1 454.183 592.433 451.85 594.2C448.75 596.5 447.183 599.2 447.15 602.3C447.117 605.367 448.583 608.15 451.55 610.65C454.15 612.883 457.233 614.6 460.8 615.8C463.633 616.767 467 617.467 470.9 617.9L473.25 617.75C476.217 617.35 477.9 616.717 478.3 615.85C478.7 615.017 478.183 613.283 476.75 610.65Z" fill="white"/>
        <path d="M531.85 509C530.85 506.3 529.8 503.95 528.7 501.95C527.767 500.317 526.6 498.517 525.2 496.55C521.133 490.683 517.883 486.417 515.45 483.75C514.917 483.15 514.483 482.6 514.15 482.1L492.3 468.95C493.2 472.717 494.583 478.1 496.45 485.1C497.983 491.2 499.05 496.317 499.65 500.45C503.75 529.65 497.683 555.2 481.45 577.1C480.717 578.133 480.4 580.1 480.5 583C480.633 585.933 481.133 587.75 482 588.45C482.333 588.717 482.883 588.867 483.65 588.9C484.083 588.9 484.717 588.9 485.55 588.9C485.883 583 486.983 578.35 488.85 574.95C490.717 571.583 493.45 569.217 497.05 567.85C492.817 577.05 490.75 583.167 490.85 586.2C490.917 589.267 493.183 591.733 497.65 593.6C497.017 587.567 497.4 582.967 498.8 579.8C500.2 576.633 503.05 573.967 507.35 571.8C511.083 569.933 514.55 569.233 517.75 569.7C520.95 570.167 524.117 571.85 527.25 574.75C528.05 571.683 527.783 569.4 526.45 567.9C525.15 566.4 520.95 563.567 513.85 559.4L527.85 561L534.9 539.85C534.567 539.183 534.417 538.383 534.45 537.45C534.45 536.817 534.6 535.75 534.9 534.25C536.333 526.883 535.317 518.467 531.85 509Z" fill="white"/>
        <path d="M527.35 591.05C525.983 588.25 524.367 584.45 522.5 579.65C521.8 577.883 520.833 576.65 519.6 575.95C518.3 575.183 516.8 575.05 515.1 575.55C511.3 576.583 508.35 577.95 506.25 579.65C503.55 581.85 502.217 584.367 502.25 587.2C502.317 590.033 503.783 592.4 506.65 594.3C508.45 595.5 510.717 596.667 513.45 597.8C514.917 598.4 516.717 599.1 518.85 599.9C523.65 599.833 526.667 599.1 527.9 597.7C529.067 596.367 528.883 594.15 527.35 591.05Z" fill="white"/>
        <path d="M406.4 86.7C410.3 85.2666 412.55 81.8333 413.15 76.4C413.383 74.2333 413.283 72.25 412.85 70.45C409.25 54.65 402.583 41.5833 392.85 31.25C383.183 21.05 370.6 13.6333 355.1 8.99997C344.867 5.96664 335.067 5.64997 325.7 8.04997C316.533 10.4166 308.033 15.35 300.2 22.85C297.567 25.3833 294.717 28.7 291.65 32.8C289.917 35.1666 287.35 38.75 283.95 43.55C282.95 44.95 282.117 45.8833 281.45 46.35C280.45 47.0166 279.217 47.2666 277.75 47.1C270.65 46.3666 263.95 47.8833 257.65 51.65C256.55 52.2833 255.133 52.6 253.4 52.6C252.3 52.6333 247.817 52.65 239.95 52.65C234.483 52.65 229.983 52.75 226.45 52.95C223.817 53.0833 221.717 52.6333 220.15 51.6C218.683 50.6333 217.383 48.9166 216.25 46.45C213.483 40.4833 211.483 36.2833 210.25 33.85C207.85 29.1833 205.5 25.1833 203.2 21.85C193.2 7.41664 180.05 0.133306 163.75 -2.77595e-05C150.083 -0.133361 136.85 4.23331 124.05 13.1C111.25 21.9333 102.517 32.7833 97.85 45.65C96.55 49.2833 95.8333 54 95.7 59.8C95.6666 62.0666 96.15 64.05 97.15 65.75C98.25 67.6833 99.8 68.8166 101.8 69.15C103.233 69.4166 104.917 69.2166 106.85 68.55C108.65 67.95 110.2 67.1 111.5 66C113.2 64.6 115.15 62.5833 117.35 59.95C120.517 56.2166 122.367 54.0666 122.9 53.5C128.267 47.5333 132.3 43.0833 135 40.15C139.767 34.9833 144.017 30.7833 147.75 27.55C150.217 25.4166 153.133 23.6 156.5 22.1C159.8 20.6 163.1 19.6 166.4 19.1C173.933 17.9666 181.15 20.1 188.05 25.5C194.817 30.8 199.533 37.8833 202.2 46.75C194.133 48.25 186.633 51.3333 179.7 56C173.533 60.2 167.65 65.7833 162.05 72.75C161.317 73.6166 159.9 74.75 157.8 76.15C145.733 84.15 134.6 94.1333 124.4 106.1C107.467 125.933 93.15 150.567 81.45 180C80.3166 182.767 79.1333 184.4 77.9 184.9C52.5333 195.267 39.7666 215.167 39.6 244.6C39.5333 256.033 41.3333 267.6 45 279.3C48.2333 289.533 53.0166 300.217 59.35 311.35C61.7833 315.55 64.9666 320.633 68.9 326.6C71.1 329.967 74.4666 335.067 79 341.9C68.5 355.733 60.9833 372.783 56.45 393.05C56.3166 393.617 55.9 394.2 55.2 394.8C54.5666 395.367 53.9 395.783 53.2 396.05C45.5333 399.05 40.45 403.133 37.95 408.3C36.0833 412.167 33.35 416.717 29.75 421.95C27.75 424.85 24.75 429.2 20.75 435C20.2166 435.8 19.65 436.817 19.05 438.05C16.8166 443.183 15.3333 447.3 14.6 450.4C13.5 455.067 13.4166 459.45 14.35 463.55C15.2166 467.25 16.7166 469.733 18.85 471C21.0166 472.267 23.9333 472.35 27.6 471.25C28.8 470.883 33.0333 469.45 40.3 466.95C39.8333 469.183 39.5333 470.55 39.4 471.05C32.1 495.983 30.8333 521.017 35.6 546.15C35.9 547.75 35.9 549.267 35.6 550.7C35.3333 551.933 34.8 553.35 34 554.95C33.1333 556.683 32.3333 558.917 31.6 561.65C31.1666 563.217 30.55 565.55 29.75 568.65C29.5166 569.483 29.15 570.733 28.65 572.4C28.2166 573.833 27.7666 575.033 27.3 576C21.8 587.8 14.4333 597.1 5.19998 603.9C4.53331 604.433 3.74998 605.3 2.84998 606.5C0.816645 609.1 -0.133355 611.65 -2.14074e-05 614.15C0.133312 616.717 1.41665 619.033 3.84998 621.1C7.51665 624.167 11.3666 626.4 15.4 627.8C29 632.7 43.65 632.233 59.35 626.4C61.0833 625.767 62.5666 625.4 63.8 625.3C65.3333 625.2 66.85 625.467 68.35 626.1C75.25 629 82.2666 629.733 89.4 628.3C90.1333 628.133 91.05 628.217 92.15 628.55C92.7166 628.683 93.65 629.017 94.95 629.55L107.9 635.5C113.067 637.9 117.45 639.667 121.05 640.8C139.783 646.667 159.7 650.317 180.8 651.75C199.567 653.017 219.833 652.567 241.6 650.4C241.767 650.4 244.783 649.85 250.65 648.75C254.217 648.083 257.083 648.017 259.25 648.55C268.05 650.683 273.267 652 274.9 652.5C280.767 654.267 285.817 656.4 290.05 658.9C295.383 662.1 300.917 664.2 306.65 665.2C312.717 666.267 318.733 666.017 324.7 664.45C330.6 662.917 334.217 660.533 335.55 657.3C336.917 654.033 336.067 649.783 333 644.55C333 644.517 331.05 641.25 327.15 634.75C329.883 634.35 333.8 633.783 338.9 633.05C343.333 632.417 347.033 631.783 350 631.15C356.767 629.717 360.433 628.983 361 628.95C365.1 628.583 368.717 629.45 371.85 631.55C372.083 631.683 372.467 631.783 373 631.85C373.667 631.883 374.1 631.933 374.3 632C375.5 632.367 377.317 632.85 379.75 633.45C381.883 634.05 383.633 634.683 385 635.35C393.733 639.55 402.617 641.15 411.65 640.15C417.117 639.517 420.533 637.767 421.9 634.9C423.233 632.067 422.383 628.35 419.35 623.75C419.217 623.55 417.2 620.15 413.3 613.55C414.733 613.05 415.483 612.8 415.55 612.8C418.283 612.5 422.383 611.75 427.85 610.55C432.617 610.117 436.583 611.483 439.75 614.65C440.183 615.083 440.9 615.4 441.9 615.6C442.5 615.7 443.367 615.85 444.5 616.05C445.667 616.417 447.4 616.933 449.7 617.6C451.733 618.233 453.417 618.85 454.75 619.45C463.15 623.317 471.25 624.217 479.05 622.15C481.983 621.35 483.85 619.967 484.65 618C485.45 616.067 485.133 613.733 483.7 611C482.833 609.367 481.65 607.567 480.15 605.6C478.95 604.033 478.3 602.5 478.2 601C478.1 599.333 478.75 598.067 480.15 597.2C481.55 596.367 483.2 595.817 485.1 595.55C487.033 595.283 488.767 595.367 490.3 595.8C493.6 596.733 497.933 598.183 503.3 600.15C509.8 602.55 514.133 604.1 516.3 604.8C517.2 605.1 518.333 605.25 519.7 605.25C520.067 605.25 521.25 605.183 523.25 605.05C528.983 604.783 532.667 603.217 534.3 600.35C535.933 597.483 535.333 593.583 532.5 588.65C531.7 587.25 531.233 585.917 531.1 584.65C530.933 583.317 531.117 581.867 531.65 580.3C532.05 579.067 532.267 577.4 532.3 575.3C532.367 572.1 532.417 570.367 532.45 570.1C532.517 568.333 532.583 567 532.65 566.1C532.783 564.533 533.083 563.283 533.55 562.35C535.75 557.683 537.333 553.783 538.3 550.65C538.8 549.083 539.467 546.583 540.3 543.15C541.033 540.15 541.5 538.1 541.7 537C542.1 534.5 542.35 532 542.45 529.5C542.75 519.8 540.767 510.6 536.5 501.9C535.067 498.967 533.217 495.817 530.95 492.45C529.583 490.45 527.417 487.483 524.45 483.55L521.95 480.15C520.917 478.783 519.983 477.833 519.15 477.3V477.25C513.183 474.05 508.783 471.7 505.95 470.2C501.017 467.567 496.767 465.45 493.2 463.85C491.1 462.883 489.383 461.867 488.05 460.8C486.517 459.6 485.183 458.1 484.05 456.3C465.85 428.033 441.283 414.117 410.35 414.55C409.617 414.55 408.8 414.333 407.9 413.9C407.033 413.5 406.3 413 405.7 412.4C394.767 401.667 381.967 393.817 367.3 388.85C366.467 388.583 365.65 387.967 364.85 387C364.117 386.133 363.567 385.2 363.2 384.2C362.5 382.367 361.45 379.217 360.05 374.75C358.783 370.683 357.7 367.55 356.8 365.35C356.1 363.65 355.867 362.267 356.1 361.2C356.333 360.133 357.15 359.017 358.55 357.85C378.217 341.55 393.417 324.233 404.15 305.9C410.15 295.633 414.35 285.9 416.75 276.7C419.55 265.967 420.083 255.383 418.35 244.95C416.917 236.25 414.317 228.867 410.55 222.8C406.35 215.967 400.617 210.617 393.35 206.75C391.817 205.95 390.75 205.033 390.15 204C389.55 202.967 389.217 201.583 389.15 199.85C388.817 179.183 385.883 160.517 380.35 143.85C375.017 127.85 368.283 114.35 360.15 103.35C350.85 90.75 339.433 80.9666 325.9 74C321.667 71.8 316.383 68.2 310.05 63.2C302.817 57.5 297.633 53.6833 294.5 51.75C298.033 46.05 301.65 41.35 305.35 37.65C309.717 33.2833 314.533 29.9166 319.8 27.55C329.233 23.3166 337.967 23.85 346 29.15C352.1 33.2166 357.167 37.4833 361.2 41.95C364.2 45.25 367.783 49.5333 371.95 54.8L382.35 67.9C387.95 74.7666 392.233 79.85 395.2 83.15C398.767 87.0166 402.5 88.2 406.4 86.7ZM406.6 66.5C407.533 69.4333 407.717 73.2 407.15 77.8C406.917 79.7 406.15 80.9166 404.85 81.45C403.55 81.9833 402.15 81.6333 400.65 80.4C397.917 78.1333 394.917 75.0333 391.65 71.1C379.25 55.7333 369.9 44.25 363.6 36.65C362.067 34.75 359.383 32.2666 355.55 29.2C339.117 15.9 322.95 15.8666 307.05 29.1C304.683 31.0666 302.017 33.7833 299.05 37.25C297.417 39.1833 294.95 42.1 291.65 46C290.983 46.7333 290.067 47.9166 288.9 49.55L287.35 48.2C293.017 38.4333 298.933 30.85 305.1 25.45C312.667 18.7833 321.383 14.6166 331.25 12.95C339.917 11.4833 348.4 12.0666 356.7 14.7C364.167 17.0666 371.65 21.1333 379.15 26.9C392.417 37.1666 401.567 50.3666 406.6 66.5ZM326.55 97.6L328 97L321.8 79.35C329.733 81.8166 337.817 87.65 346.05 96.85C353.817 105.517 360.8 116.117 367 128.65C373.233 141.15 377.767 153.75 380.6 166.45C383.6 179.95 384.283 191.867 382.65 202.2C370.583 200 357.967 200.417 344.8 203.45C334.633 205.783 322.767 210.083 309.2 216.35C311.367 213.45 312.983 211.267 314.05 209.8C315.983 207.167 317.45 204.867 318.45 202.9C324.383 191.333 325.967 178.017 323.2 162.95C321.267 152.25 318.933 142.733 316.2 134.4C312.933 124.5 308.883 115.567 304.05 107.6C300.417 101.533 295.817 96.1333 290.25 91.4C284.117 86.2666 277.483 83.7333 270.35 83.8C263.25 83.9 256.45 86.55 249.95 91.75C255.55 88.7166 260.65 86.8333 265.25 86.1C270.817 85.2333 276.133 85.9666 281.2 88.3C286 90.5 290.317 93.65 294.15 97.75C297.45 101.283 300.617 105.767 303.65 111.2C303.55 111.1 301.6 109.25 297.8 105.65C295.567 103.483 293.667 101.767 292.1 100.5C284.867 94.6333 277.717 91.8666 270.65 92.2C263.583 92.5 256.767 95.9333 250.2 102.5C236.7 116.067 229.117 133.567 227.45 155C226.883 162.167 226.933 168.65 227.6 174.45C228.4 181.283 230.067 187.617 232.6 193.45L200.75 187.75C202.583 185.317 203.617 183.95 203.85 183.65C219.317 164.517 224.533 142.783 219.5 118.45C217.067 106.583 212.55 98.6666 205.95 94.7C199.383 90.7666 190.267 90.4 178.6 93.6C184.1 87.5666 190.45 84.7833 197.65 85.25C204.85 85.7166 211.6 89.35 217.9 96.15C216 91.1833 212.867 87.55 208.5 85.25C204.167 82.95 199.333 82.35 194 83.45C186.1 85.15 178.383 89.2333 170.85 95.7C160.983 104.133 152.883 112.583 146.55 121.05C139.217 130.85 133.817 141.2 130.35 152.1C129.017 156.133 128.083 160.517 127.55 165.25C126.15 178.883 130.4 189.15 140.3 196.05L139.2 197.5C137.9 197.067 135.917 196.483 133.25 195.75C130.917 195.05 129.033 194.3 127.6 193.5C121.367 189.933 115.45 187.283 109.85 185.55C103.417 183.583 97.0166 182.7 90.65 182.9C90.2833 182.933 88.9666 182.833 86.7 182.6C89.5 176.4 91.5833 171.8 92.95 168.8C95.3833 163.467 97.5 159.05 99.3 155.55C112.867 129.117 129.017 107.917 147.75 91.95C151.917 90.6833 155.867 87.7666 159.6 83.2C161.633 80.6 163.15 78.65 164.15 77.35C165.95 75.0166 167.567 73.1833 169 71.85C174.267 66.85 178.867 63.0166 182.8 60.35C188.167 56.75 193.583 54.2833 199.05 52.95C205.183 51.4833 210.383 51.75 214.65 53.75C218.917 55.7166 222.517 59.5166 225.45 65.15L227.9 69.85L229.15 69.55L226.7 58.8H249.1L244.3 68.8L245.35 69.35L248.75 65.25C254.883 57.9833 261.783 53.7 269.45 52.4C277.083 51.1 285.05 52.8333 293.35 57.6C299.283 61.0333 304.667 65.4666 309.5 70.9C313.7 75.6666 317.65 81.4 321.35 88.1L326.55 97.6ZM412.55 248.1C413.617 256.933 412.95 265.883 410.55 274.95C408.483 282.717 405.017 290.933 400.15 299.6C384.017 328.467 359.567 352.917 326.8 372.95C322.333 375.683 316.7 378.683 309.9 381.95C302.133 385.583 296.333 388.333 292.5 390.2C291.933 390.467 291.183 390.767 290.25 391.1C288.617 391.633 287.683 391.933 287.45 392L300.95 376.05L299.85 375L290.15 383.65C280.717 391.95 271.483 398.733 262.45 404C252.05 410 241.433 414.317 230.6 416.95C190.367 426.717 157.383 414.45 131.65 380.15C129.483 377.117 127.85 374.833 126.75 373.3C124.75 370.567 122.95 368.317 121.35 366.55L124.25 375.15C122.95 374.617 122.2 374.283 122 374.15C103.767 359.517 88.8 344.117 77.1 327.95C64.1333 310.017 54.8166 290.683 49.15 269.95C44.6166 253.483 44.3 238.367 48.2 224.6C50.3 217.1 53.8666 210.55 58.9 204.95C63.7 199.583 69.4166 195.533 76.05 192.8C82.6833 190.067 89.5666 188.917 96.7 189.35C104.167 189.817 111.267 191.983 118 195.85C118.067 195.883 118.45 196.217 119.15 196.85L100.1 202.3L100.35 203.15L136.65 199.65L136.7 200.9L116.65 215.2L117.5 216.55C149.9 196.917 182.983 190.233 216.75 196.5C233.683 199.6 249.433 206.5 264 217.2C276.233 226.133 288.417 238.383 300.55 253.95L301.95 252.75L286.15 229.6C293.183 231.067 299.95 233.85 306.45 237.95C311.583 241.217 317.133 245.717 323.1 251.45C320.7 246.617 317.25 242.283 312.75 238.45C309.083 235.317 304.183 232.117 298.05 228.85C298.45 228.65 302.2 226.85 309.3 223.45C313.567 221.383 317.117 219.717 319.95 218.45C333.217 212.617 346.967 208.9 361.2 207.3C375.167 205.733 386.8 208.65 396.1 216.05C405.367 223.417 410.85 234.1 412.55 248.1ZM345.25 368.35L349.75 365.25C357.283 379.95 360.85 397.917 360.45 419.15C360.05 440.45 355.817 455.95 347.75 465.65C342.65 454.35 336.1 446.967 328.1 443.5C320.033 440 311.983 441.1 303.95 446.8C309.55 445.6 314.2 445.083 317.9 445.25C322.833 445.483 327.217 446.867 331.05 449.4C335.183 452.167 338.2 455.667 340.1 459.9C341.867 463.867 342.7 468.65 342.6 474.25C341.267 473.083 340.517 472.4 340.35 472.2C331.283 462.3 320.95 460.283 309.35 466.15C298.617 471.55 291.8 479.95 288.9 491.35C286.233 501.95 289.683 509.567 299.25 514.2C295.05 514.7 290.95 513.2 286.95 509.7C283.017 506.3 280.3 501.983 278.8 496.75C277.567 492.383 277.3 487.583 278 482.35C278.467 478.917 279.617 474.1 281.45 467.9C275.517 473.9 273.05 481.417 274.05 490.45C275.05 499.483 279.367 508.45 287 517.35C280.767 519.15 276.117 520.483 273.05 521.35C267.783 522.817 263.217 524.017 259.35 524.95C258.783 525.083 258.017 524.767 257.05 524C256.083 523.233 255.417 522.45 255.05 521.65C249.017 509.017 246.567 494.583 247.7 478.35C249.433 453.217 256.617 430.083 269.25 408.95C270.417 406.983 271.783 405.417 273.35 404.25C274.883 403.05 276.8 402.117 279.1 401.45C302.2 394.65 324.25 383.617 345.25 368.35ZM209.15 47.2C207.95 44.8666 207.217 43.4 206.95 42.8C204.617 37.7 202.067 33.3333 199.3 29.7C196.1 25.5 192.433 22.0166 188.3 19.25C177.733 12.15 166.683 11.2166 155.15 16.45C149.983 18.8166 144.95 22.1666 140.05 26.5C136.35 29.7666 132.167 34.1666 127.5 39.7C121 47.3666 114.75 54.4833 108.75 61.05C108.217 61.6166 107.383 62.1666 106.25 62.7C105.617 62.9666 104.65 63.4 103.35 64C102.683 62.7 102.183 61.7333 101.85 61.1C101.283 59.9333 101.033 59 101.1 58.3C101.5 54.7666 101.833 52.3833 102.1 51.15C102.6 48.45 103.317 46.2 104.25 44.4C116.45 21.1333 134.95 8.21664 159.75 5.64997C169.583 4.64997 178.55 7.01664 186.65 12.75C192.217 16.6833 197.05 21.7166 201.15 27.85C204.483 32.8166 207.6 39 210.5 46.4L209.15 47.2ZM187.5 94.8C192.467 93.4333 197.033 93.7166 201.2 95.65C205.267 97.55 208.683 100.85 211.45 105.55C213.85 109.617 215.6 114.333 216.7 119.7C217.467 123.467 218 128.3 218.3 134.2C217.8 154.167 211.233 171.033 198.6 184.8C197.8 185.7 196.7 186.45 195.3 187.05C193.967 187.683 192.667 188.033 191.4 188.1C176.6 189.033 163.4 191.483 151.8 195.45C150.733 195.817 149.483 195.933 148.05 195.8C146.65 195.667 145.45 195.317 144.45 194.75C138.883 191.783 134.883 187.567 132.45 182.1C130.017 176.567 129.5 170.433 130.9 163.7C135.967 138.967 148.267 119 167.8 103.8C172.567 100.1 179.133 97.1 187.5 94.8ZM237.25 195C236.317 194.1 235.733 193.2 235.5 192.3C234.433 188.367 233.233 183.567 231.9 177.9C230.4 171.467 229.267 166.633 228.5 163.4L229.9 163.1C230.2 143.433 235.85 126 246.85 110.8C249.583 107 252.817 103.667 256.55 100.8C265.317 94.0333 274.633 93.45 284.5 99.05C291.867 103.283 298.15 109.6 303.35 118C314.25 135.667 320.167 153.65 321.1 171.95C321.533 180.85 320.667 188.533 318.5 195C315.933 202.633 311.433 208.967 305 214C298.3 219.267 289.683 221.65 279.15 221.15C277.917 221.117 276.483 220.417 274.85 219.05C264.483 209.817 252.867 202.45 240 196.95C239.033 196.517 238.117 195.867 237.25 195ZM129.55 387.75C129.583 387.717 130.033 387.45 130.9 386.95C148.867 409.583 169.417 422.5 192.55 425.7C213.85 428.6 237.75 423.3 264.25 409.8C254.15 428.767 247.783 447.85 245.15 467.05C243.683 477.85 243.5 487.9 244.6 497.2C245.833 507.633 248.717 517.617 253.25 527.15C245.283 527.783 239.4 528.233 235.6 528.5C228.867 529.033 223.217 529.333 218.65 529.4C190.55 529.833 164.333 526.05 140 518.05C130.2 514.817 122.417 509.75 116.65 502.85C111.017 496.083 107.4 487.683 105.8 477.65C103.267 461.817 104.25 446.083 108.75 430.45C112.783 416.483 119.717 402.25 129.55 387.75ZM82.75 347.1L124.85 385.45C123.183 388.95 120.517 394.383 116.85 401.75C113.55 408.45 110.967 414.217 109.1 419.05C100.233 441.917 98.3833 463.45 103.55 483.65C104.35 486.75 105.767 490.5 107.8 494.9C108.933 497.367 110.617 501.033 112.85 505.9C97.15 497.167 84.7333 486.35 75.6 473.45C88.4333 465.983 94.4333 454.583 93.6 439.25L92.4 443.25C91.0333 448.117 89.4833 452.133 87.75 455.3C85.55 459.367 82.7833 462.683 79.45 465.25C75.1166 468.617 70.45 470.35 65.45 470.45C60.3833 470.583 55.9333 469.017 52.1 465.75C54.6333 465.483 56.1833 465.333 56.75 465.3C62.5166 465.033 66.9333 463.617 70 461.05C73.1 458.417 75.1333 454.267 76.1 448.6C77.9666 437.533 75.4166 427.867 68.45 419.6C62.0833 412.1 54.15 409.817 44.65 412.75L41.2 413.7C45 404.933 50.9166 400.333 58.95 399.9C67.0166 399.5 76.3666 403.35 87 411.45C84.3333 406.383 80.9333 402.467 76.8 399.7C73 397.133 68.3166 395.4 62.75 394.5C66.6833 375.833 73.35 360.033 82.75 347.1ZM295.8 487.65C299.733 479.117 306.017 473.267 314.65 470.1C319.35 468.367 323.717 468.233 327.75 469.7C331.783 471.167 335.1 474.083 337.7 478.45C339.867 482.117 341.433 486.217 342.4 490.75C343.2 494.55 343.617 498.917 343.65 503.85C343.75 513.95 341.7 522.567 337.5 529.7C335.533 533.033 333.617 534.767 331.75 534.9C329.817 535.033 327.733 533.55 325.5 530.45C319.267 521.75 311.7 514.95 302.8 510.05C293.633 504.983 291.3 497.517 295.8 487.65ZM168.85 531.85C178.05 533.483 188.733 534.45 200.9 534.75C211.167 535.017 225.917 534.833 245.15 534.2C233.383 554.7 226.433 572.567 224.3 587.8C221.5 607.567 225.733 626.467 237 644.5C233.733 644.733 231.267 644.9 229.6 645C226.633 645.2 224.117 645.317 222.05 645.35C202.65 645.817 185.467 645.317 170.5 643.85C152.2 642.05 135.317 638.717 119.85 633.85C107.117 629.85 97.2 623.35 90.1 614.35C83.1 605.483 79.0333 594.417 77.9 581.15C75.7666 555.783 83.5833 532.217 101.35 510.45C101.783 509.85 102.233 509.367 102.7 509C102.833 508.9 103.133 508.767 103.6 508.6C118.833 515.467 130.817 520.483 139.55 523.65C149.883 527.45 159.65 530.183 168.85 531.85ZM292.1 521.25C295.8 520.017 299.9 519.9 304.4 520.9C309.067 521.933 312.6 523.85 315 526.65C315.533 527.283 316.8 528.833 318.8 531.3C320.333 533.233 321.617 534.75 322.65 535.85C328.85 542.617 334.833 542.35 340.6 535.05C346.167 528.05 349.05 519.683 349.25 509.95C349.317 507.283 349.083 503.567 348.55 498.8C347.95 493.533 347.633 489.817 347.6 487.65C347.533 482.617 348.283 478.4 349.85 475C351.617 471.167 353.917 466.617 356.75 461.35C359.95 455.45 362.317 451.05 363.85 448.15C367.683 453.283 370.733 462.617 373 476.15C375.467 490.883 375.883 505.05 374.25 518.65C370.183 552.783 356.467 581.3 333.1 604.2C329.933 594.5 325.767 587.783 320.6 584.05C315.4 580.283 308.367 578.933 299.5 580L304.3 581.05C312.033 582.45 317.967 585.517 322.1 590.25C326.267 595.017 328.017 600.767 327.35 607.5C327.017 611.067 325.483 615.117 322.75 619.65L322.3 618.7C322.133 618.3 322.033 617.967 322 617.7C320.1 605.2 312.067 599.317 297.9 600.05C290.033 600.417 282.967 603.017 276.7 607.85C270.467 612.683 266.567 618.517 265 625.35C264.233 628.717 264.4 632.167 265.5 635.7C266.333 638.3 267.883 641.417 270.15 645.05C262.95 645.117 257.15 642.25 252.75 636.45C248.383 630.683 247.083 624.15 248.85 616.85C249.883 612.583 251.767 608.433 254.5 604.4C256.633 601.2 259.567 597.7 263.3 593.9C264.9 592.433 266.183 591.25 267.15 590.35C263.65 590.883 259.667 593.45 255.2 598.05C250.767 602.617 247.6 607.383 245.7 612.35C241.5 623.283 243.083 633.25 250.45 642.25C247.783 643.583 245.4 643.85 243.3 643.05C241.533 642.35 239.783 640.8 238.05 638.4C233.383 632 230.217 624.867 228.55 617C227.083 610.033 226.767 602.283 227.6 593.75C229.633 571.783 236.833 552.75 249.2 536.65C250.7 534.683 252.95 533.217 255.95 532.25C259.317 531.183 265.35 529.367 274.05 526.8C281.717 524.533 287.733 522.683 292.1 521.25ZM72 441.95L71.05 442.55C70.85 443.583 70.5666 445.133 70.2 447.2C69.8333 449.033 69.45 450.55 69.05 451.75C68.15 454.45 66.7833 456.483 64.95 457.85C62.9833 459.25 60.6 459.883 57.8 459.75C47.2 459.217 37.0166 461.083 27.25 465.35C24.75 466.45 22.8666 466.55 21.6 465.65C20.3666 464.783 19.6666 462.933 19.5 460.1C19.0666 453.1 21.4 445.25 26.5 436.55C31.6 427.85 37.3166 422.017 43.65 419.05C47.8166 417.083 51.8166 416.583 55.65 417.55C59.6166 418.55 62.7666 420.967 65.1 424.8C66.3666 426.9 67.6333 429.683 68.9 433.15C69.6 435.117 70.6333 438.05 72 441.95ZM67.8 475.4C68.0666 475.367 68.4 475.483 68.8 475.75C69.2 476.017 69.5166 476.317 69.75 476.65C77.5166 487.717 87.4333 497.35 99.5 505.55C85.8666 524.55 77.7 542.4 75 559.1C71.8 578.567 75.6666 597.8 86.6 616.8C76.5 610.267 67.5833 601.017 59.85 589.05C52.4833 577.617 46.8833 564.8 43.05 550.6C39.1833 536.4 37.5 522.367 38 508.5C38.5666 493.967 41.4833 481.05 46.75 469.75C50.4166 471.983 53.75 473.567 56.75 474.5C60.4833 475.633 64.1666 475.933 67.8 475.4ZM35.85 580C34.4833 572.833 35.1333 565.667 37.8 558.5C46.4 585.6 61.6333 607.15 83.5 623.15C67.5333 622.617 54.4833 614.75 44.35 599.55C39.8833 592.883 37.05 586.367 35.85 580ZM40.55 604C45.1166 610.367 50.9166 616.133 57.95 621.3C56.0833 621.733 53.55 622.333 50.35 623.1C47.65 623.767 45.4166 624.217 43.65 624.45C31.3833 626.083 20.8333 624.667 12 620.2C8.16665 618.3 6.11665 616.317 5.84998 614.25C5.54998 612.183 7.01665 609.833 10.25 607.2C14.8833 603.467 18.6833 599.85 21.65 596.35C25.2833 592.117 28.15 587.633 30.25 582.9C32.6833 590.767 36.1166 597.8 40.55 604ZM287.35 608.2C290.85 606.7 294.25 605.917 297.55 605.85C304.183 605.817 308.833 606.817 311.5 608.85C314.033 610.783 315.717 614.467 316.55 619.9C317.883 628.633 321.567 637.633 327.6 646.9C330.033 650.633 330.85 653.433 330.05 655.3C329.217 657.167 326.6 658.367 322.2 658.9C313.2 660.033 304.75 659.183 296.85 656.35C289.083 653.55 282.017 648.883 275.65 642.35C271.717 638.283 269.9 633.733 270.2 628.7C270.467 623.733 272.683 619.233 276.85 615.2C279.983 612.2 283.483 609.867 287.35 608.2ZM514.15 482.2C514.617 482.867 515.05 483.417 515.45 483.85C517.883 486.517 521.133 490.783 525.2 496.65C526.6 498.617 527.767 500.417 528.7 502.05C529.8 504.05 530.85 506.4 531.85 509.1C535.317 518.567 536.333 526.983 534.9 534.35C534.767 534.95 534.733 535.933 534.8 537.3C534.833 538.033 534.867 538.917 534.9 539.95L527.85 561.1L513.85 559.5C520.95 563.667 525.15 566.5 526.45 568C527.783 569.5 528.05 571.783 527.25 574.85C524.117 571.95 520.95 570.267 517.75 569.8C514.55 569.333 511.083 570.033 507.35 571.9C503.05 574.067 500.2 576.733 498.8 579.9C497.4 583.067 497.017 587.667 497.65 593.7C493.183 591.833 490.917 589.367 490.85 586.3C490.75 583.267 492.817 577.15 497.05 567.95C493.45 569.317 490.717 571.683 488.85 575.05C486.983 578.45 485.883 583.1 485.55 589C484.717 589 484.083 589 483.65 589C482.883 588.967 482.333 588.817 482 588.55C481.133 587.85 480.633 586.033 480.5 583.1C480.4 580.2 480.717 578.233 481.45 577.2C497.683 555.3 503.75 529.75 499.65 500.55C499.05 496.417 497.983 491.3 496.45 485.2C494.583 478.2 493.2 472.817 492.3 469.05L514.15 482.2ZM506.25 579.65C508.35 577.95 511.3 576.583 515.1 575.55C516.8 575.05 518.3 575.183 519.6 575.95C520.833 576.65 521.8 577.883 522.5 579.65C524.367 584.45 525.983 588.25 527.35 591.05C528.883 594.15 529.067 596.367 527.9 597.7C526.667 599.1 523.65 599.833 518.85 599.9C516.717 599.1 514.917 598.4 513.45 597.8C510.717 596.667 508.45 595.5 506.65 594.3C503.783 592.4 502.317 590.033 502.25 587.2C502.217 584.367 503.55 581.85 506.25 579.65ZM422.35 434.1C418.983 428.4 416.467 424.05 414.8 421.05C422.1 420.517 430.05 421.933 438.65 425.3C459.683 433.5 475.017 448.667 484.65 470.8C500.25 506.733 498.017 540.233 477.95 571.3C476.817 573.067 475.717 574.167 474.65 574.6C473.417 575.133 471.85 574.967 469.95 574.1C468.917 573.6 467.633 573.35 466.1 573.35C465.167 573.317 463.717 573.4 461.75 573.6C467.45 575.9 471.15 577.867 472.85 579.5C476.017 582.467 477.1 586.683 476.1 592.15C472.867 587.317 469 584.65 464.5 584.15C460.733 583.75 456.4 584.867 451.5 587.5C447 589.933 444 592.983 442.5 596.65C440.933 600.483 441.083 604.883 442.95 609.85C439.35 608.617 436.833 606.8 435.4 604.4C433.9 601.933 433.667 599.083 434.7 595.85C435.4 593.65 436.567 591.083 438.2 588.15C440.1 584.917 441.467 582.517 442.3 580.95C434.667 583.35 430.3 590.95 429.2 603.75L418.55 606.05C418.25 602.817 418.033 600.433 417.9 598.9C417.667 596.167 417.517 593.9 417.45 592.1C417.417 591.2 417.933 590.033 419 588.6C427.967 576.133 434.333 562.683 438.1 548.25C441.733 534.45 443.017 519.6 441.95 503.7C441.25 493.067 439.967 483.417 438.1 474.75C436 464.783 433.017 455.567 429.15 447.1C427.517 443.5 425.25 439.167 422.35 434.1ZM366.65 437.45C365.983 436.183 365.65 434.933 365.65 433.7C365.55 425.5 365.5 413.2 365.5 396.8C365.5 396.7 365.633 396.117 365.9 395.05C380.333 399.483 392.917 407.583 403.65 419.35C420.383 437.783 430.433 460.05 433.8 486.15C435.7 500.817 436.35 513.4 435.75 523.9C434.983 537.433 432.167 549.733 427.3 560.8C425.767 564.233 423.717 568.317 421.15 573.05C419.717 575.65 417.65 579.367 414.95 584.2L394.95 578.7L394.75 579.8C396.45 580.733 399.033 582.05 402.5 583.75C405.567 585.317 407.983 586.833 409.75 588.3C412.017 590.133 413.3 592.6 413.6 595.7C413.833 598.633 413.2 601.6 411.7 604.6C407.9 598.9 403.767 595.417 399.3 594.15C394.833 592.917 389.583 593.783 383.55 596.75C377.483 599.75 373.55 603.583 371.75 608.25C369.983 612.95 370.267 618.717 372.6 625.55C367.6 624.883 363.967 622.583 361.7 618.65C359.4 614.65 359.217 610.15 361.15 605.15C362.083 602.75 363.567 599.95 365.6 596.75C367.9 593.317 369.533 590.767 370.5 589.1C365.033 590.233 361 594.183 358.4 600.95C355.767 607.883 355.583 615.433 357.85 623.6L326 628.4L324.75 626.8C327.083 623.033 328.85 620.2 330.05 618.3C332.15 614.933 334.133 612.333 336 610.5C369.3 577.5 384.267 536.85 380.9 488.55C379.667 470.75 374.917 453.717 366.65 437.45ZM461.3 590.2C463.7 589.667 465.633 589.917 467.1 590.95C468.467 591.883 469.617 593.617 470.55 596.15C472.65 602.05 474.717 606.883 476.75 610.65C478.183 613.283 478.7 615.017 478.3 615.85C477.9 616.717 476.217 617.35 473.25 617.75L470.9 617.9C467 617.467 463.633 616.767 460.8 615.8C457.233 614.6 454.15 612.883 451.55 610.65C448.583 608.15 447.117 605.367 447.15 602.3C447.183 599.2 448.75 596.5 451.85 594.2C454.183 592.433 457.333 591.1 461.3 590.2ZM406.6 609.8C407.367 612.367 408.5 615.183 410 618.25C410.933 620.183 412.367 622.9 414.3 626.4C415.867 629.267 416.4 631.25 415.9 632.35C415.367 633.483 413.483 634.3 410.25 634.8C409.65 634.867 408.9 634.933 408 635C406.933 635.033 406.117 635.067 405.55 635.1C395.983 634.367 388.033 631.45 381.7 626.35C377.633 623.083 375.633 619.4 375.7 615.3C375.733 611.233 377.85 607.633 382.05 604.5C384.85 602.433 387.983 601 391.45 600.2C396.017 599.133 399.35 599.317 401.45 600.75C403.45 602.083 405.167 605.1 406.6 609.8ZM268.25 141.05C264.25 141.617 260.983 143.85 258.45 147.75C255.917 151.65 255.017 155.867 255.75 160.4C255.817 160.833 255.983 161.483 256.25 162.35C257.317 166.617 259.367 170.017 262.4 172.55C265.467 175.083 268.817 176.133 272.45 175.7C276.283 175.267 279.417 173.433 281.85 170.2C284.317 166.933 285.533 162.95 285.5 158.25C285.5 157.283 285.45 156.467 285.35 155.8C284.683 151.2 282.667 147.467 279.3 144.6C275.967 141.7 272.283 140.517 268.25 141.05ZM262.95 146.25C263.95 145.017 265.35 144.433 267.15 144.5C268.983 144.567 270.333 145.3 271.2 146.7C272 148 272.467 150.017 272.6 152.75C272.167 153.083 271.383 153.833 270.25 155C269.117 156.067 268.083 156.667 267.15 156.8C265.383 157.033 263.983 156.5 262.95 155.2C262.05 154.067 261.6 152.567 261.6 150.7C261.567 148.867 262.017 147.383 262.95 146.25ZM194.2 137.45C190.5 137.483 187.433 138.967 185 141.9C182.567 144.867 181.367 148.55 181.4 152.95C181.433 157.383 182.767 161.15 185.4 164.25C188.067 167.383 191.3 168.967 195.1 169C198.767 169.067 201.9 167.617 204.5 164.65C207.067 161.683 208.333 158.083 208.3 153.85C208.3 149.417 206.9 145.567 204.1 142.3C201.3 139.033 198 137.417 194.2 137.45ZM185.5 146.05C185.6 144.25 186.083 142.85 186.95 141.85C187.883 140.717 189.2 140.167 190.9 140.2C192.7 140.267 194.067 141 195 142.4C195.8 143.633 196.367 145.583 196.7 148.25C196.233 148.65 195.417 149.45 194.25 150.65C193.083 151.683 192.017 152.367 191.05 152.7C189.683 153.167 188.383 152.617 187.15 151.05C185.883 149.517 185.333 147.85 185.5 146.05ZM70 243.7C70.8333 237.2 72.5833 233 75.25 231.1C77.95 229.167 82.35 229.05 88.45 230.75C85.8833 228.517 83.3333 227.25 80.8 226.95C78.3333 226.683 76.0666 227.367 74 229C71.7333 230.767 70.2 233.117 69.4 236.05C68.6 238.983 68.8 241.533 70 243.7ZM370.45 260.8C370.083 258.267 369.033 256.183 367.3 254.55C363.867 251.317 360.283 250.333 356.55 251.6L365.1 256.6C365.033 256.633 364.95 256.75 364.85 256.95C364.95 256.883 365.05 256.817 365.15 256.75L369.45 267.9C370.45 265.567 370.783 263.2 370.45 260.8ZM340.95 272.05C336.65 275.35 331.2 279.867 324.6 285.6C316.067 292.967 310.683 297.567 308.45 299.4C288.683 315.8 268.233 326.95 247.1 332.85C224.733 339.083 201.383 339.5 177.05 334.1C155.817 329.4 138.367 321.45 124.7 310.25C110.133 298.283 99.5666 282.35 93 262.45C90.9333 256.25 88.0666 249 84.4 240.7C83.8666 239.5 82.9833 238.117 81.75 236.55C80.2166 234.717 79.0666 233.267 78.3 232.2C79.3 234.933 80.75 238.817 82.65 243.85C84.2833 248.183 85.5666 251.867 86.5 254.9C89.4 264.1 91.95 271.383 94.15 276.75C97.3833 284.55 101 291.367 105 297.2C106.733 299.7 108.883 303.133 111.45 307.5C114.55 312.733 116.65 316.2 117.75 317.9C119.75 321 122.667 325.683 126.5 331.95C129.933 337.417 133.083 341.867 135.95 345.3C150.45 362.733 166.117 373.85 182.95 378.65C199.783 383.483 218.55 382.2 239.25 374.8C257.517 368.333 273.55 358.333 287.35 344.8C300.05 332.367 310.983 316.833 320.15 298.2C320.817 296.833 321.267 295.95 321.5 295.55C322.067 294.55 322.667 293.783 323.3 293.25C341.1 277.95 354.45 266.467 363.35 258.8C363.617 258.567 363.917 258.217 364.25 257.75C364.483 257.383 364.683 257.117 364.85 256.95C362.15 258.617 358.167 261 352.9 264.1C348 267.067 344.017 269.717 340.95 272.05ZM122.95 318.55L122.65 317.6C190.217 357.233 253.317 352.467 311.95 303.3C311.95 303.4 311.983 303.733 312.05 304.3C312.05 304.6 312.017 304.817 311.95 304.95C298.55 328.15 282.083 346.167 262.55 359C261.15 359.9 259.817 360.433 258.55 360.6C257.25 360.733 255.817 360.5 254.25 359.9C223.117 348.033 190.967 346.783 157.8 356.15C156.067 356.65 154.55 356.717 153.25 356.35C152.05 355.983 150.8 355.183 149.5 353.95C139.567 344.45 130.717 332.65 122.95 318.55ZM206 353C222.267 353.6 238.467 356.933 254.6 363C239 372.567 222.367 377.25 204.7 377.05C185.867 376.85 169.8 370.95 156.5 359.35C173.3 354.55 189.8 352.433 206 353Z" fill="black"/>
    </g>
    <defs>
        <clipPath id="clip0">
            <rect width="543" height="666" fill="white"/>
        </clipPath>
    </defs>
</svg>
