<svg width="606" height="548" viewBox="0 0 606 548" fill="none" xmlns="http://www.w3.org/2000/svg">
    <g clip-path="url(#clip0)">
        <path d="M177.2 149.35C176.2 147.383 175 145.6 173.6 144C172 142.2 170.383 140.967 168.75 140.3C164.05 138.367 158.433 138.467 151.9 140.6C145.533 142.667 140.8 145.8 137.7 150C135.367 153.2 134.567 156.633 135.3 160.3C136.067 164 138.15 166.9 141.55 169C145.117 171.167 148.667 171.833 152.2 171C155.733 170.2 158.467 168.067 160.4 164.6C162.033 161.933 163.25 159.933 164.05 158.6C164.183 159.533 164.117 161.25 163.85 163.75C163.65 165.717 163.767 167.1 164.2 167.9C166.633 172.367 168.467 177.367 169.7 182.9C170.667 187.3 171.367 192.55 171.8 198.65C172.167 203.95 171.833 209.5 170.8 215.3C169.767 221.067 168.317 225.55 166.45 228.75C166.65 225.25 166.45 223.067 165.85 222.2C165.183 221.333 163.067 220.383 159.5 219.35C147.467 215.983 135.783 214.8 124.45 215.8C114.083 216.7 105.467 218 98.6 219.7C89.5334 222 81.5167 225.4 74.55 229.9C73.85 230.367 72.9 230.85 71.7 231.35C71 231.65 69.8834 232.133 68.35 232.8L61.1 213.65C55.6 199.183 48.25 187.633 39.05 179C36.4834 176.6 34.0334 174.917 31.7 173.95C28.8334 172.783 25.8667 172.533 22.8 173.2C17.6667 174.367 13.3 177.483 9.70002 182.55C6.10002 187.65 4.58336 192.833 5.15002 198.1C5.71669 203.233 8.66669 206.683 14 208.45C16.2667 209.183 18.5167 209.167 20.75 208.4C23.0167 207.633 24.9 206.233 26.4 204.2C29.7334 199.8 31.1667 195.15 30.7 190.25C30.6334 189.583 30.6834 188.717 30.85 187.65C31.0834 186.483 31.2334 185.617 31.3 185.05H32.9C33.0334 185.617 33.2834 186.467 33.65 187.6C33.9167 188.6 33.9667 189.4 33.8 190C33.2 192.133 33.35 194.05 34.25 195.75C34.8834 196.983 36.15 198.45 38.05 200.15C47.05 208.25 53.7834 218.617 58.25 231.25C58.6167 232.25 59.2167 233.45 60.05 234.85C60.5167 235.65 61.2334 236.867 62.2 238.5C60.9334 240.4 58.9334 243.267 56.2 247.1C53.7667 250.567 51.8834 253.567 50.55 256.1C47.75 261.433 46.4167 267.4 46.55 274C46.6834 278.9 47.7 284.967 49.6 292.2C51.3 298.5 51.9167 303.8 51.45 308.1C50.8834 313.533 48.5667 318.417 44.5 322.75C42.8667 324.483 41.5 326.783 40.4 329.65C39.4667 332.15 38.8 334.817 38.4 337.65C36.4 352.883 42.4 366 56.4 377C62.3334 381.633 69.1667 385.783 76.9 389.45C83.2 392.417 90.6334 395.3 99.2 398.1C105.767 400.233 110.667 401.683 113.9 402.45C119.467 403.783 124.417 404.383 128.75 404.25C149.55 403.65 167.3 398.583 182 389.05C197.067 379.25 208.733 364.9 217 346C221.667 335.367 224.583 325.25 225.75 315.65C227.083 304.75 226.217 294.25 223.15 284.15C218.817 269.817 210.983 255.633 199.65 241.6C198.217 239.833 196.233 238 193.7 236.1C190.7 233.967 188.45 232.367 186.95 231.3C184.75 229.8 182.95 229.1 181.55 229.2C179.717 229.333 178.317 230.817 177.35 233.65C182.283 217.883 184.467 201.1 183.9 183.3C183.667 176.2 183.167 170.4 182.4 165.9C181.367 159.633 179.633 154.117 177.2 149.35ZM170.1 282C171.1 287.8 170.883 293.75 169.45 299.85C168.25 304.883 166.117 310.433 163.05 316.5C162.383 317.8 161.783 318.8 161.25 319.5C159.283 322.367 158.2 324.533 158 326C157.7 328.367 158.983 330.433 161.85 332.2C161.95 332.267 162.05 332.483 162.15 332.85C162.283 333.617 162.383 334.133 162.45 334.4C160.583 333.667 157.917 332.467 154.45 330.8C151.417 329.467 148.867 328.683 146.8 328.45C144.8 328.217 142.35 328.45 139.45 329.15C137.883 329.517 135.717 330.067 132.95 330.8C132.917 330.733 132.433 329.417 131.5 326.85C130.967 325.383 130.4 324.25 129.8 323.45C124.433 316.317 122.3 307.183 123.4 296.05C124.5 284.883 128.417 276.417 135.15 270.65C138.75 267.617 142.8 264.833 147.3 262.3C148.267 261.8 150.233 261.85 153.2 262.45C157.6 263.45 161.317 265.717 164.35 269.25C167.317 272.75 169.233 277 170.1 282ZM75.1 244.15C77.5667 241.917 80.25 240.75 83.15 240.65C87.9834 240.45 91 243.217 92.2 248.95L70.95 251.55C71.25 248.85 72.6334 246.383 75.1 244.15ZM77.7 266.3C78.2334 265.9 78.9 265.3 79.7 264.5C81.1667 263.067 81.9667 262.283 82.1 262.15C87.6 261.55 92.3 263.183 96.2 267.05C100.2 270.95 102.5 276.317 103.1 283.15C103.467 287.383 103.05 292 101.85 297C101.217 299.733 99.8334 304.183 97.7 310.35C97.4334 311.183 97.2 312.283 97 313.65C96.9 314.45 96.7334 315.75 96.5 317.55C96.0667 317.65 94.5667 317.917 92 318.35C90.0667 318.717 88.5334 319.133 87.4 319.6C83.9667 321.067 81.9667 324.017 81.4 328.45C80.8667 324.117 79.2 322 76.4 322.1C75.6667 322.133 74.4 322.383 72.6 322.85C70.9667 323.283 69.75 323.467 68.95 323.4C66.85 319.1 65.6834 316.75 65.45 316.35C61.65 309.45 60.2334 301.567 61.2 292.7C62.2 283.8 65.3167 276.767 70.55 271.6C71.35 270.8 72.5 269.9 74 268.9C76 267.533 77.2334 266.667 77.7 266.3ZM161.4 244.25C163.033 246.517 163.633 249.533 163.2 253.3L142.2 246.45C142.733 244.25 144.133 242.517 146.4 241.25C148.733 239.983 151.233 239.567 153.9 240C157.3 240.567 159.8 241.983 161.4 244.25ZM146.7 357.45L142.55 352.8C120.517 381.1 95.7167 384.733 68.15 363.7C67.6167 363.9 66.8167 364.217 65.75 364.65C64.95 364.983 64.4 365.05 64.1 364.85C63.6334 364.55 63.2167 364.017 62.85 363.25C62.55 362.55 62.3834 361.85 62.35 361.15C62.3167 358.883 63.15 357.083 64.85 355.75C66.55 354.383 68.75 353.767 71.45 353.9C69.85 355.767 69.4334 357.5 70.2 359.1C70.6667 360.067 71.8667 361.267 73.8 362.7C83.9667 370.233 94.45 373.633 105.25 372.9C116.783 372.133 126.5 366.65 134.4 356.45C134.833 355.883 135.35 355.117 135.95 354.15C136.683 352.983 137.267 352.033 137.7 351.3H133C133.233 349.233 134 347.867 135.3 347.2C136.3 346.7 137.767 346.583 139.7 346.85C142.5 347.217 144.517 348.317 145.75 350.15C147.017 352.05 147.333 354.483 146.7 357.45ZM112.35 392.2C110.017 391.733 108.367 391.183 107.4 390.55C105.9 389.55 105.183 387.983 105.25 385.85L117.3 389.65C117 390.817 116.517 391.6 115.85 392C115.083 392.433 113.917 392.5 112.35 392.2Z" fill="white"/>
        <path d="M84.2501 267.9C78.3501 269.3 73.6001 272.367 70.0001 277.1C66.4001 281.8 64.4334 287.55 64.1001 294.35C63.9001 298.85 64.2167 302.733 65.0501 306C66.0834 310.067 68.0501 313.733 70.9501 317C69.7167 310.867 69.9334 305.617 71.6001 301.25C73.3001 296.717 76.6001 293.033 81.5001 290.2C84.7334 288.367 87.9001 287.933 91.0001 288.9C93.7334 289.767 96.6334 291.817 99.7001 295.05C100.1 290.383 100.067 286.383 99.6001 283.05C99.0667 279.25 97.9001 275.8 96.1001 272.7C94.7667 270.367 93.1334 268.817 91.2001 268.05C89.3001 267.283 86.9834 267.233 84.2501 267.9Z" fill="white"/>
        <path d="M89.6 301.55C87.4 301.55 85.5667 302.333 84.1 303.9C82.6667 305.433 81.9167 307.35 81.85 309.65C81.75 313.417 83.5 315.35 87.1 315.45C89.1 315.517 90.7833 314.783 92.15 313.25C93.4833 311.717 94.1667 309.8 94.2 307.5C94.2667 303.833 92.7333 301.85 89.6 301.55Z" fill="white"/>
        <path d="M139.2 460.9C136.4 469.6 134.333 475.65 133 479.05C130.333 485.65 127.267 491.267 123.8 495.9C122.7 497.333 121.85 498.217 121.25 498.55C120.217 499.117 118.917 499 117.35 498.2C116.517 497.767 115.433 497.6 114.1 497.7C112.9 497.8 111.767 498.083 110.7 498.55C109.833 498.917 109.033 499.567 108.3 500.5C107.533 501.433 107.1 502.3 107 503.1C106.933 503.767 107.283 504.55 108.05 505.45C108.817 506.35 109.6 506.967 110.4 507.3C111.5 507.767 112.917 508.167 114.65 508.5C116.617 508.833 118.083 509.1 119.05 509.3C122.85 509.067 125.683 508.55 127.55 507.75C129.617 506.883 131.333 505.35 132.7 503.15C140.367 490.883 144.833 477.45 146.1 462.85C146.233 461.417 146.017 460.317 145.45 459.55C144.45 458.283 143.283 457.783 141.95 458.05C140.617 458.35 139.7 459.3 139.2 460.9Z" fill="white"/>
        <path d="M167.2 298.55C167.1 294.65 167 291.717 166.9 289.75C166.767 286.283 166.5 283.367 166.1 281C165.133 275.233 162.483 271.2 158.15 268.9C153.783 266.6 148.967 266.683 143.7 269.15C139.8 270.983 136.55 273.467 133.95 276.6C128.05 283.833 125.517 291.9 126.35 300.8C127.117 309.1 130.65 317.133 136.95 324.9C137.083 325.067 137.383 325.183 137.85 325.25C138.85 325.417 139.467 325.517 139.7 325.55L137.4 319.1C135.167 313.333 135.517 307.617 138.45 301.95C141.35 296.283 145.6 293.017 151.2 292.15C154.033 291.717 156.683 292.2 159.15 293.6C160.983 294.633 163.033 296.4 165.3 298.9L167.2 298.55Z" fill="white"/>
        <path d="M184.15 428.9C184.983 426.333 184.733 423.217 183.4 419.55C182.967 418.417 182.217 417.8 181.15 417.7C179.983 417.567 179.033 418.133 178.3 419.4C175.567 423.9 171.533 428.283 166.2 432.55C163.1 435.05 158.283 438.583 151.75 443.15C150.283 444.283 148.55 445.917 146.55 448.05C145.417 449.283 143.583 451.267 141.05 454C144.883 455.633 148.317 456.367 151.35 456.2C154.35 456.067 157.133 455.033 159.7 453.1C166.467 448 172.617 442.933 178.15 437.9C181.15 435.133 183.15 432.133 184.15 428.9Z" fill="white"/>
        <path d="M152.7 308.65C150.3 308.717 148.317 309.6 146.75 311.3C145.183 313 144.417 315.067 144.45 317.5C144.517 319.8 145.117 321.533 146.25 322.7C147.417 323.867 149.067 324.383 151.2 324.25C153.533 324.117 155.5 323.15 157.1 321.35C158.667 319.583 159.417 317.533 159.35 315.2C159.283 313.167 158.633 311.55 157.4 310.35C156.167 309.15 154.6 308.583 152.7 308.65Z" fill="white"/>
        <path d="M313.7 25.8C318.3 22.7333 321.767 20.3833 324.1 18.75C317.367 11.25 308.767 7.04999 298.3 6.14999C279.3 4.48332 262.117 7.14999 246.75 14.15C231.517 21.1167 218.25 32.2833 206.95 47.65C198.95 58.5833 192.733 71.0167 188.3 84.95C184.433 97.05 181.767 110.783 180.3 126.15C179.667 132.917 179.383 138.217 179.45 142.05C179.55 147.883 180.367 153.117 181.9 157.75C185.567 168.783 186.983 179.767 186.15 190.7C185.85 194.733 185.683 197.9 185.65 200.2C185.617 203.733 185.783 206.883 186.15 209.65C186.983 215.683 187.783 219.9 188.55 222.3C189.917 226.867 192.15 230.683 195.25 233.75C207.55 245.917 216.417 258.517 221.85 271.55C227.883 285.983 229.867 301.283 227.8 317.45C227.733 318.017 227.8 318.667 228 319.4C228.233 320.167 228.517 320.617 228.85 320.75C233.75 322.85 237.317 324.183 239.55 324.75C243.683 325.783 247.667 325.85 251.5 324.95C251.333 322.183 251.217 320.1 251.15 318.7C250.983 316.267 250.783 314.233 250.55 312.6C250.017 309.233 249.283 305.05 248.35 300.05L246.05 287.55C243.917 275.383 242.583 260.983 242.05 244.35C241.75 225.05 241.5 210.583 241.3 200.95C240.533 162.683 247.45 126.517 262.05 92.45C267.317 80.15 273.083 69.4 279.35 60.2C286.55 49.5667 294.717 40.5 303.85 33C306.35 30.9333 309.633 28.5333 313.7 25.8Z" fill="white"/>
        <path d="M338.65 405.85C339.583 402.55 340.067 399.667 340.1 397.2C340.1 374.1 329.483 355.833 308.25 342.4C306.05 341.067 303.367 340.483 300.2 340.65C295.733 340.85 289.017 341.233 280.05 341.8C271.083 342.333 264.35 342.7 259.85 342.9C259.183 342.933 258.383 342.6 257.45 341.9C256.583 341.267 255.95 340.583 255.55 339.85C255.183 339.15 254.883 338.05 254.65 336.55C254.383 334.917 254.117 333.783 253.85 333.15C253.517 332.35 253.05 331.617 252.45 330.95C251.783 330.183 251.133 329.717 250.5 329.55C247.4 328.783 243.6 327.917 239.1 326.95C233.967 325.883 230.067 325.067 227.4 324.5C225.8 329.7 224.767 333 224.3 334.4C219.867 347.9 214.15 359.367 207.15 368.8C199.283 379.367 189.567 387.7 178 393.8C175.933 394.9 174.733 396.067 174.4 397.3C174.1 398.367 174.417 399.9 175.35 401.9C182.583 417.5 194.783 429.25 211.95 437.15C214.117 438.15 216.867 439.317 220.2 440.65C222.1 441.383 225.167 442.583 229.4 444.25L227.9 439.7C226.067 433.767 224.7 429.317 223.8 426.35C222.2 421.15 220.9 416.683 219.9 412.95C219.233 410.483 219.75 408.467 221.45 406.9C223.183 405.367 225.3 405 227.8 405.8C230.533 406.7 232.5 407.867 233.7 409.3C237.967 414.5 241.083 418.95 243.05 422.65C244.217 424.817 245.383 427.383 246.55 430.35C247.05 431.683 248.017 434.333 249.45 438.3C252.15 445.767 257.433 450.483 265.3 452.45C272.067 454.117 278.633 453.517 285 450.65C284.2 448.85 283.667 447.533 283.4 446.7L275.15 421.15C274.65 419.65 274.767 418.467 275.5 417.6C276.133 416.9 277.233 416.383 278.8 416.05C281.633 415.483 284.283 415.783 286.75 416.95C289.383 418.15 291.483 420.183 293.05 423.05C294.183 425.117 295.35 427.667 296.55 430.7C297.25 432.433 298.267 435.067 299.6 438.6C301.067 442.333 302.567 444.483 304.1 445.05C305.633 445.617 308.083 444.9 311.45 442.9C313.183 441.867 315 440.7 316.9 439.4C320.467 437 322.383 435.25 322.65 434.15C322.917 433.017 322.017 430.6 319.95 426.9C318.25 423.833 317.867 421.45 318.8 419.75C319.733 418.017 321.917 417.1 325.35 417C325.65 417 326.667 417.05 328.4 417.15C329.6 417.217 330.567 417.167 331.3 417C332.333 416.767 333.25 416.433 334.05 416C335.05 415.5 335.633 414.967 335.8 414.4C337.133 410.6 338.083 407.75 338.65 405.85Z" fill="white"/>
        <path d="M223.25 407.8C223.25 408.333 223.233 409.433 223.2 411.1C223.167 412.033 223.183 412.733 223.25 413.2C224.383 420.567 225.967 427.033 228 432.6C230.433 439.167 233.65 444.967 237.65 450C240.383 453.467 242.85 456.133 245.05 458C248.05 460.567 251.233 462.333 254.6 463.3C256.5 463.867 258.033 464.05 259.2 463.85C260.833 463.583 262.017 462.567 262.75 460.8C263.483 459.1 263.367 457.65 262.4 456.45C261.8 455.683 260.6 454.833 258.8 453.9C253.167 450.933 249.15 446.05 246.75 439.25C245.85 436.517 245.15 434.467 244.65 433.1C243.783 430.767 242.883 428.8 241.95 427.2C238.683 421.433 235.083 416.15 231.15 411.35C230.583 410.617 229.5 409.983 227.9 409.45L223.25 407.8Z" fill="white"/>
        <path d="M248.85 473.8C246.183 486.267 244.483 496.9 243.75 505.7C242.717 517.4 244.35 527.967 248.65 537.4C249.217 538.633 250.133 539.783 251.4 540.85C252.7 541.983 253.9 542.583 255 542.65C259.4 542.883 263.9 542.167 268.5 540.5C270.767 539.7 272.333 538.35 273.2 536.45C274.033 534.617 274.05 532.783 273.25 530.95C272.383 528.983 271.05 528.017 269.25 528.05C267.05 528.517 265.4 528.8 264.3 528.9C262.967 529.067 259.933 529.333 255.2 529.7C254.033 518.533 253.783 508.017 254.45 498.15C255.15 487.65 256.917 477.5 259.75 467.7C255.25 467.1 252.533 467.033 251.6 467.5C250.533 468.067 249.617 470.167 248.85 473.8Z" fill="white"/>
        <path d="M431.05 43.5C427.55 36.4 422.817 30.3333 416.85 25.3C405.95 16.1333 392.25 11.3667 375.75 11C345.583 10.2667 320.2 19.5833 299.6 38.95C289.367 48.55 280.55 59.8833 273.15 72.95C266.65 84.35 261 97.5167 256.2 112.45C251.467 127.15 248.017 143.05 245.85 160.15C244.017 174.617 243 190.867 242.8 208.9C242.467 238.833 244.917 270 250.15 302.4C250.85 306.8 251.867 312.233 253.2 318.7C253.933 322.333 255.05 327.767 256.55 335L258.65 336C260.417 333.467 261.8 331.633 262.8 330.5C271.567 320.633 278.133 313.233 282.5 308.3C290.267 299.6 296.95 292.3 302.55 286.4C308.517 280.133 319.683 268.683 336.05 252.05C350.183 237.683 361.267 226.183 369.3 217.55C394.3 190.75 413.283 162.417 426.25 132.55C431.383 120.683 434.917 109.817 436.85 99.95C439.183 88.0833 439.467 76.6333 437.7 65.6C436.367 57.2 434.15 49.8333 431.05 43.5ZM398.4 56.5C398.067 57.5667 397.733 58.4333 397.4 59.1C394.067 66.2333 389.233 73.1 382.9 79.7C378.4 84.4 372.1 89.9333 364 96.3C355.033 103.4 347.4 110.333 341.1 117.1C333.7 125.067 327.633 133.383 322.9 142.05L320.95 146.1C320.95 146.133 321.067 146.7 321.3 147.8C325.8 147 332.567 145.833 341.6 144.3C349.7 142.9 356.467 141.65 361.9 140.55C376.767 137.55 388.4 131.2 396.8 121.5L398.15 123.25C397.683 123.783 397 124.6 396.1 125.7C395.3 126.7 394.567 127.467 393.9 128C388.433 132.6 381.967 136.333 374.5 139.2C368.667 141.467 361.467 143.433 352.9 145.1C349.433 145.8 345.25 146.517 340.35 147.25C334.75 148.083 330.55 148.717 327.75 149.15C319.683 150.417 314.433 154.617 312 161.75C308.233 172.983 302.45 189.783 294.65 212.15C294.45 212.783 294.283 213.567 294.15 214.5C294.083 215.033 293.983 215.883 293.85 217.05C313.317 211.917 326.217 208.15 332.55 205.75C346.45 200.517 357.883 193.667 366.85 185.2L368.25 187.55L364.4 190.7C362.867 191.933 361.55 192.933 360.45 193.7C346.883 203.133 331.067 209.883 313 213.95L311.55 214.25C304.217 215.95 298.7 218.517 295 221.95C290.667 226.017 288.2 231.75 287.6 239.15C287.233 243.65 286.15 249.167 284.35 255.7C283.35 259.367 281.817 264.833 279.75 272.1C279.683 272.333 279.183 274.65 278.25 279.05C293.683 272.583 306.317 263.1 316.15 250.6L317.6 251.9C317.367 252.333 317.033 252.983 316.6 253.85C316.233 254.617 315.85 255.2 315.45 255.6C310.483 260.833 306.5 264.717 303.5 267.25C298.833 271.183 294.15 274.183 289.45 276.25C285.083 278.15 281.583 280.433 278.95 283.1C275.883 286.133 273.817 289.817 272.75 294.15C272.517 295.05 272 296.083 271.2 297.25C270.733 297.917 270.033 298.9 269.1 300.2L267.95 299.65C268.017 298.95 268.05 298.417 268.05 298.05C268.117 297.417 268.25 296.933 268.45 296.6C271.45 291.7 272.783 286.1 272.45 279.8C272.283 276.667 271.25 270.983 269.35 262.75C268.583 259.417 267.917 255.283 267.35 250.35C266.817 244.75 266.383 240.55 266.05 237.75C265.95 237.083 266.4 236.333 267.4 235.5C266.833 241.1 267.517 247.483 269.45 254.65C270.583 258.75 272.433 264.85 275 272.95L276.3 273.05C278.267 266.083 279.317 262.317 279.45 261.75L282.85 247.65C284.217 242.017 285.483 237.367 286.65 233.7C287.95 229.533 288.433 225.233 288.1 220.8C287.8 217.067 286.883 212.8 285.35 208C282.117 198.133 279.133 186.067 276.4 171.8C275.967 169.5 275.85 166.7 276.05 163.4C276.417 159.6 276.667 156.75 276.8 154.85C277 152.617 278.117 150.35 280.15 148.05C277.283 159.917 277.167 170.733 279.8 180.5C281 184.9 282.583 190.217 284.55 196.45C285.65 199.983 287.317 205.283 289.55 212.35L290.9 212.2C292.4 207.3 293.533 203.633 294.3 201.2C295.667 196.833 296.917 193.2 298.05 190.3C299.783 185.933 302.483 179.417 306.15 170.75C309.817 162.083 312.5 155.567 314.2 151.2C315.167 148.7 315.317 145.667 314.65 142.1C311.55 124.8 311.333 108.917 314 94.45C314.267 93.0833 314.683 91.4333 315.25 89.5C315.95 87.3333 316.45 85.7 316.75 84.6L318.75 84.9C318.683 85.5333 318.583 86.5 318.45 87.8C318.317 88.9333 318.133 89.8833 317.9 90.65C315.433 98.3167 314.317 106.833 314.55 116.2C314.717 122.433 315.65 130.933 317.35 141.7L318.9 142.2C320.567 139.567 321.817 137.583 322.65 136.25C324.15 133.883 325.467 131.933 326.6 130.4C329 126.9 330.817 124.283 332.05 122.55C334.25 119.55 336.367 117.283 338.4 115.75C344.267 111.317 348.4 105.75 350.8 99.05C352.733 93.65 353.717 86.8333 353.75 78.6C353.75 75.7 353.867 72.05 354.1 67.65C354.4 62.6167 354.6 58.75 354.7 56.05C356.1 57.35 356.883 58.5833 357.05 59.75C357.183 60.7833 357.067 64.0667 356.7 69.6C356.567 71.3 356.467 73.7167 356.4 76.85C356.3 80.1833 356.2 82.5833 356.1 84.05C356 85.6167 355.833 87.95 355.6 91.05C355.433 93.8167 355.383 96.2667 355.45 98.4C367.083 89.3333 375.083 82.65 379.45 78.35C387.717 70.2167 393.8 61.6833 397.7 52.75L399.25 53.85C399.05 54.45 398.767 55.3333 398.4 56.5Z" fill="white"/>
        <path d="M482.25 217.15C477.65 210.783 471.383 206.317 463.45 203.75C446.717 198.417 431.133 197.733 416.7 201.7L399.2 206.75C405.833 203.583 411.8 201.333 417.1 200C419.667 199.367 422.817 198.75 426.55 198.15C428.65 197.817 431.833 197.317 436.1 196.65C436.167 195.617 436.2 195.083 436.2 195.05C434.667 189.717 431.15 184.767 425.65 180.2C420.15 175.6 414.633 173.05 409.1 172.55C408.467 172.483 407.7 172.7 406.8 173.2C405.967 173.667 405.317 174.217 404.85 174.85C401.85 178.75 392.883 190.533 377.95 210.2L370.55 219.8L371.3 220.65L381.65 215.5C381.15 216.5 380.2 217.55 378.8 218.65C376.567 220.45 373.117 223.083 368.45 226.55C364.317 229.683 361.017 232.467 358.55 234.9C332.55 260.5 305.15 287.95 276.35 317.25C273.917 319.717 271.15 322.967 268.05 327C266.317 329.3 263.717 332.733 260.25 337.3L261.5 338.8C262.967 339.033 263.917 339.15 264.35 339.15C287.617 339.317 308.317 338.783 326.45 337.55C348.55 336.017 369.1 333.317 388.1 329.45C404.6 326.083 419.367 321.1 432.4 314.5C446.667 307.3 459.167 298 469.9 286.6C476.533 279.533 481.45 272.4 484.65 265.2C488.283 257.067 489.917 248.533 489.55 239.6C489.183 230.933 486.75 223.45 482.25 217.15ZM441.6 237.8C442.633 237.1 444.183 236.983 446.25 237.45C436.117 242.85 427.867 249.367 421.5 257H440L440.1 258.45C438.633 258.683 437.533 258.85 436.8 258.95C435.467 259.117 434.35 259.167 433.45 259.1C428.617 258.733 423.883 259.45 419.25 261.25C415.317 262.817 411.217 265.283 406.95 268.65C404.15 270.85 400.733 273.483 396.7 276.55C394.4 278.283 390.933 280.883 386.3 284.35C389.133 286.583 393.233 288.167 398.6 289.1C407.133 290.567 411.883 291.45 412.85 291.75C407.95 292.45 403.033 292.383 398.1 291.55C394.233 290.883 389.8 289.6 384.8 287.7C383.6 287.233 382.283 286.983 380.85 286.95C379.383 286.883 378.05 287.033 376.85 287.4C373.583 288.467 369.667 289.867 365.1 291.6C359.967 293.633 356.1 295.133 353.5 296.1C353.267 296.2 351.433 296.983 348 298.45L364.4 306.9L363.75 308.15C359.75 306.65 356.733 305.533 354.7 304.8C351.133 303.467 348.1 302.417 345.6 301.65C342.8 300.817 340.283 300.8 338.05 301.6C330.75 304.3 321.333 308.05 309.8 312.85C308.867 313.25 307.75 313.917 306.45 314.85C305.683 315.383 304.5 316.233 302.9 317.4C304.133 318.433 307.15 319.717 311.95 321.25C315.883 322.483 318.55 324.433 319.95 327.1L295.1 319.35L316 295.6L317.9 297.15L308.35 308.45C309.05 308.917 309.417 309.15 309.45 309.15C312.617 308.017 317.4 306.35 323.8 304.15C329.433 302.15 334.1 300.233 337.8 298.4C339.6 297.533 341.45 295.933 343.35 293.6C345.45 290.767 347 288.667 348 287.3C348.9 286.1 350.233 284 352 281C353.633 278.267 355.017 276.217 356.15 274.85C356.883 273.983 358.05 273.133 359.65 272.3C361.517 271.433 362.883 270.75 363.75 270.25L364.35 271.35C363.25 272.483 361.533 274.133 359.2 276.3C357.167 278.3 355.567 280.05 354.4 281.55C353.233 283.083 351.917 285.133 350.45 287.7C349.617 289.2 348.25 291.683 346.35 295.15C349.783 294.017 354.617 292.467 360.85 290.5C366.25 288.767 370.65 287.183 374.05 285.75C379.183 283.617 383.25 279.917 386.25 274.65C387.95 271.617 389.95 266.433 392.25 259.1C392.517 258.3 392.9 257.317 393.4 256.15C394.2 254.35 394.633 253.367 394.7 253.2L397 254.1L388.35 277.75C388.983 277.483 389.867 277.117 391 276.65C391.967 276.25 392.717 275.833 393.25 275.4C406.95 264.2 417.283 255.85 424.25 250.35C428.55 246.983 434.333 242.8 441.6 237.8Z" fill="white"/>
        <path d="M320.15 466.1C320.683 463.933 320.233 462.283 318.8 461.15C318.067 460.583 316.5 459.933 314.1 459.2C308.3 457.367 304.283 454.117 302.05 449.45C301.283 447.817 300.117 445.067 298.55 441.2C297.083 437.633 295.883 434.9 294.95 433C292.683 428.6 290.167 424.75 287.4 421.45C286.267 420.083 284.9 419.267 283.3 419C281.667 418.733 279.917 419.067 278.05 420C279.617 431.367 283.233 441.95 288.9 451.75C294 460.583 301.133 466.533 310.3 469.6C312.333 470.267 314.4 470.233 316.5 469.5C318.567 468.733 319.783 467.6 320.15 466.1Z" fill="white"/>
        <path d="M317.3 520.9C317.267 515.767 317.25 500.25 317.25 474.35C312.85 473.15 310.217 472.85 309.35 473.45C308.483 474.017 308.017 476.35 307.95 480.45C307.95 480.783 307.8 484.767 307.5 492.4C307.333 497.233 307.367 501.217 307.6 504.35C307.967 509.417 308.367 513.4 308.8 516.3C309.433 520.7 310.383 524.517 311.65 527.75C313.75 533.15 316.15 536.417 318.85 537.55C321.45 538.65 325.75 538.35 331.75 536.65C333.883 536.05 335.533 535.2 336.7 534.1C338.167 532.7 338.633 531.033 338.1 529.1C337.533 527.167 336.267 526.017 334.3 525.65C333.033 525.417 331.15 525.5 328.65 525.9C328.383 525.933 324.95 526.633 318.35 528C318.017 526.2 317.783 524.917 317.65 524.15C317.417 522.817 317.3 521.733 317.3 520.9Z" fill="white"/>
        <path d="M356.2 462.45C355.8 461.783 355.533 461.383 355.4 461.25C354.5 460.45 353.85 459.933 353.45 459.7C347.85 456.833 343.133 453.95 339.3 451.05C334.633 447.483 330.767 443.517 327.7 439.15C327.467 438.817 326.9 438.6 326 438.5C325.1 438.4 324.417 438.483 323.95 438.75C322.217 439.817 318.4 442.45 312.5 446.65C318.4 451.017 325.867 454.983 334.9 458.55C344.933 462.483 352.033 463.783 356.2 462.45Z" fill="white"/>
        <path d="M363.85 456.65C365.383 455.817 366.5 454.167 367.2 451.7C363.267 451.133 359.733 449.167 356.6 445.8C353.3 441.467 350.783 438.233 349.05 436.1C346.083 432.467 341.633 428.25 335.7 423.45C333.7 421.883 331.567 420.9 329.3 420.5C326.967 420.1 324.583 420.35 322.15 421.25C323.383 426.583 325.967 432 329.9 437.5C333.967 443.133 338.4 447.367 343.2 450.2C347.167 452.533 352.483 454.767 359.15 456.9C360.95 457.5 362.517 457.417 363.85 456.65Z" fill="white"/>
        <path d="M598.7 357.25C597.6 345.65 591.867 336 581.5 328.3C581.6 329.433 582.1 331.5 583 334.5C585.867 344.8 585.2 354.2 581 362.7C579.533 365.667 577.467 367.9 574.8 369.4C572.167 370.9 569.35 371.467 566.35 371.1C563.15 370.733 560.65 369.667 558.85 367.9C557.017 366.067 555.733 363.333 555 359.7C554.433 356.867 553.867 352.083 553.3 345.35C552.467 335.317 549.433 326.633 544.2 319.3C540.2 313.633 535.083 311.283 528.85 312.25C526.65 312.583 523.833 313.1 520.4 313.8C514.833 314.933 511.783 315.55 511.25 315.65C512.783 318.217 513.717 319.817 514.05 320.45C515.483 323.15 517.7 327.167 520.7 332.5C523.3 337.267 525.267 341.367 526.6 344.8C532.133 358.8 532.617 372.483 528.05 385.85C526.683 389.917 524.217 393.15 520.65 395.55C517.217 397.917 513.25 399.117 508.75 399.15C504.483 399.183 500.8 398.083 497.7 395.85C494.6 393.617 492.25 390.367 490.65 386.1C489.55 383.1 488.717 380.05 488.15 376.95C486.55 368.35 484.8 361.183 482.9 355.45C480.4 347.883 477.183 341.233 473.25 335.5C471.917 333.567 470.65 332.367 469.45 331.9C467.983 331.333 466.25 331.6 464.25 332.7C463.017 333.4 461.5 334.067 459.7 334.7C459.567 334.767 457.983 335.3 454.95 336.3C452.95 336.933 451.767 337.767 451.4 338.8C451 339.867 451.367 341.333 452.5 343.2C456.4 349.733 459.5 355.8 461.8 361.4C464.6 368.1 466.483 374.65 467.45 381.05C468.417 387.517 468.567 393.133 467.9 397.9C467.1 403.767 465.017 409 461.65 413.6C457.583 419.167 452.367 421.717 446 421.25C439.633 420.817 434.833 417.567 431.6 411.5C430.033 408.5 428.917 405.383 428.25 402.15C427.683 399.283 427 395.35 426.2 390.35C425.267 384.683 424.6 380.733 424.2 378.5C423.333 373.633 422.083 369.417 420.45 365.85C418.55 361.617 416.033 358.033 412.9 355.1C412.2 354.467 411.25 353.983 410.05 353.65C408.883 353.317 407.817 353.233 406.85 353.4C402.55 354.133 397.567 355.45 391.9 357.35C391.467 357.483 391.067 357.983 390.7 358.85C390.367 359.617 390.167 360.383 390.1 361.15C390.067 361.617 390.233 362.233 390.6 363C390.8 363.4 391.117 364.017 391.55 364.85C394.683 372.417 396.933 379.017 398.3 384.65C400.033 391.917 400.667 398.85 400.2 405.45C399.867 409.85 399.067 413.667 397.8 416.9C396.3 420.667 394.1 423.867 391.2 426.5C385.833 431.333 379.133 432.6 371.1 430.3C367.933 429.4 365.567 427.617 364 424.95C362.8 422.883 362 420.05 361.6 416.45C361.4 414.85 361.2 411.85 361 407.45C360.8 403.683 360.517 400.717 360.15 398.55C359.25 393.383 358.517 389.467 357.95 386.8C356.983 382.467 355.883 378.667 354.65 375.4C353.05 371.1 350.433 368 346.8 366.1C343.3 364.267 339.483 363.817 335.35 364.75C335.85 366.283 336.6 368.567 337.6 371.6C338.433 374.3 339.083 376.6 339.55 378.5C341.317 385.833 342.25 392.067 342.35 397.2C342.483 403.967 341.317 410.133 338.85 415.7C337.983 417.667 337.717 419.3 338.05 420.6C338.317 421.8 339.233 423.117 340.8 424.55C344.7 428.15 350.283 433.8 357.55 441.5C358.25 442.233 359.283 443.383 360.65 444.95C361.85 446.25 362.983 447.1 364.05 447.5C366.283 448.333 367.883 449.65 368.85 451.45C369.55 452.717 370.067 454.617 370.4 457.15C370.5 458.15 370.717 459.633 371.05 461.6C371.45 464.867 373.233 466.733 376.4 467.2C376.933 467.267 381.45 467.983 389.95 469.35C395.417 470.217 399.95 470.817 403.55 471.15C434.317 473.917 463.117 472.233 489.95 466.1C505.783 462.467 520.033 457.717 532.7 451.85C546.9 445.317 559.55 437.217 570.65 427.55C592.05 408.95 601.4 385.517 598.7 357.25Z" fill="white"/>
        <path d="M382.75 359.85C379.983 360.283 369.833 362.133 352.3 365.4C353.067 367.167 354.3 369.767 356 373.2C357.4 376.267 358.317 378.883 358.75 381.05C360.183 388.55 361.583 399.383 362.95 413.55C363.383 418.05 364.367 421.367 365.9 423.5C367.533 425.733 370.167 427.25 373.8 428.05C379.133 429.283 383.75 428.683 387.65 426.25C391.55 423.85 394.383 419.85 396.15 414.25C398.85 405.717 399.1 396.733 396.9 387.3C395.4 380.7 392.15 372.333 387.15 362.2C386.85 361.567 386.217 361 385.25 360.5C384.25 359.967 383.417 359.75 382.75 359.85Z" fill="white"/>
        <path d="M367.8 459.6C365.033 459.833 363.117 460.45 362.05 461.45C360.883 462.583 360.483 464.4 360.85 466.9C361.25 469.5 361.8 473.867 362.5 480C363.133 485.633 363.717 490 364.25 493.1C365.617 500.733 367.583 507.117 370.15 512.25C373.283 518.55 377.6 523.667 383.1 527.6C385.5 529.333 387.533 530.417 389.2 530.85C391.467 531.45 393.717 531.15 395.95 529.95C399.017 528.283 401.35 526.533 402.95 524.7C404.983 522.4 406.067 519.767 406.2 516.8C406.267 515.6 405.967 514.283 405.3 512.85C404.6 511.35 403.783 510.35 402.85 509.85C401.417 509.017 398.817 509.25 395.05 510.55C394.35 510.817 393.583 511.4 392.75 512.3C391.417 513.767 390.717 514.517 390.65 514.55C388.517 516.45 386.9 517.317 385.8 517.15C384.633 516.983 383.55 515.65 382.55 513.15C379.15 504.45 376.283 495.817 373.95 487.25C372.95 483.617 371.883 479.033 370.75 473.5C369.483 467.333 368.5 462.7 367.8 459.6Z" fill="white"/>
        <path d="M446.05 340.55C445.217 340.25 444.55 340.183 444.05 340.35C439.05 342.083 429.083 345.75 414.15 351.35C414.25 351.583 414.533 352.233 415 353.3C415.267 353.933 415.517 354.383 415.75 354.65C419.117 358.217 421.75 362.617 423.65 367.85C424.95 371.45 426.2 376.433 427.4 382.8C428.6 389.267 429.333 393.183 429.6 394.55C430.467 398.983 431.35 402.867 432.25 406.2C433.717 411.867 437.05 415.5 442.25 417.1C447.417 418.733 451.983 418.45 455.95 416.25C460.017 414.017 462.683 410.183 463.95 404.75C466.517 393.483 466.267 382.367 463.2 371.4C460.433 361.6 455.317 351.7 447.85 341.7C447.483 341.233 446.883 340.85 446.05 340.55Z" fill="white"/>
        <path d="M481 345.75C483.6 352.183 485.667 357.617 487.2 362.05C488.067 364.617 488.95 368.15 489.85 372.65C490.883 377.917 491.667 381.5 492.2 383.4C494.833 392.633 500.433 397.05 509 396.65C513.6 396.483 517.483 395.1 520.65 392.5C523.883 389.867 525.9 386.35 526.7 381.95C527.9 375.217 528.317 368.95 527.95 363.15C526.95 346.483 520.717 331.967 509.25 319.6C508.583 318.867 507.617 318.283 506.35 317.85C505.05 317.417 504.017 317.333 503.25 317.6C499.15 319.067 494.217 320.933 488.45 323.2C482.017 325.767 477.233 327.65 474.1 328.85C475.667 332.75 477.967 338.383 481 345.75Z" fill="white"/>
        <path d="M570.5 318.7C569.1 317.7 567.717 317.05 566.35 316.75C563.317 316.083 559.6 315.45 555.2 314.85C550.2 314.25 546.45 313.767 543.95 313.4L543.35 315.15C544.75 317.25 545.567 318.433 545.8 318.7C551.733 325.633 555.067 334.65 555.8 345.75C556.133 350.617 556.633 354.9 557.3 358.6C558.033 362.633 559.767 365.517 562.5 367.25C565.267 369.05 568.35 369.183 571.75 367.65C573.45 366.883 575.067 365.683 576.6 364.05C578.133 362.417 579.217 360.717 579.85 358.95C582.35 352.35 583.1 345.917 582.1 339.65C581.067 333.45 578.35 327.55 573.95 321.95C572.983 320.717 571.833 319.633 570.5 318.7Z" fill="white"/>
        <path d="M441.15 98.05C443.45 85.25 443.5 72.8 441.3 60.7C438.433 44.8 431.15 31.8333 419.45 21.8C407.783 11.7333 393.933 6.50001 377.9 6.10001C370.733 5.90001 363.1 6.50001 355 7.90001C348.567 9.00001 341.133 10.75 332.7 13.15C331.633 13.4833 330.417 13.5333 329.05 13.3C327.683 13.1 326.5 12.7 325.5 12.1C312.167 3.73335 298.983 -0.299987 285.95 1.29584e-05C256.15 0.66668 230.883 12.9333 210.15 36.8C201.05 47.2667 193.7 59.2833 188.1 72.85C183.167 84.8833 179.467 98.5 177 113.7C176.533 116.567 176.033 120.15 175.5 124.45L174.15 135.15C172.617 135.083 170.483 134.95 167.75 134.75C165.45 134.617 163.5 134.567 161.9 134.6C151.267 134.833 142.8 137.767 136.5 143.4C133.467 146.133 131.4 149.45 130.3 153.35C129.167 157.25 129.3 160.883 130.7 164.25C132.267 168.017 134.6 170.9 137.7 172.9C140.667 174.833 144.217 175.85 148.35 175.95C150.05 175.983 152.167 175.783 154.7 175.35C157.533 174.817 159.667 174.433 161.1 174.2C163.8 179 165.6 185.65 166.5 194.15C167.367 202.683 166.917 209.367 165.15 214.2C132.783 206.367 101.367 209.717 70.9 224.25C68.0667 216.617 66.5 212.433 66.2 211.7C62.8 203.167 59.0667 195.833 55 189.7C50.2 182.467 44.65 176.433 38.35 171.6C36.65 170.267 34.7167 169.217 32.55 168.45C30.2167 167.65 28.0833 167.317 26.15 167.45C19.05 167.983 12.9 171.183 7.7 177.05C2.56667 182.883 0 189.433 0 196.7C0 202.467 1.91667 206.95 5.75 210.15C9.65 213.35 14.3333 214.25 19.8 212.85C21.9 212.317 24.4167 211.2 27.35 209.5C30.7833 207.467 33.45 205.95 35.35 204.95C43.35 212.283 49.4333 221.7 53.6 233.2C54.2667 235.1 54.5 236.867 54.3 238.5C54.0667 240.167 53.3833 241.833 52.25 243.5C48.6167 248.8 46.2333 252.95 45.1 255.95C42.5 262.817 41.35 270.167 41.65 278C41.9167 284.633 43.2667 291.967 45.7 300C46.6667 303.2 46.9333 306.117 46.5 308.75C46 311.617 44.6167 314.25 42.35 316.65C34.65 324.85 31.1833 334.567 31.95 345.8C32.6833 356.367 36.8 365.45 44.3 373.05C50.1333 378.95 57.2333 384.3 65.6 389.1C71.8 392.7 79.8167 396.55 89.65 400.65C101.583 405.683 112.867 408.617 123.5 409.45C135.433 410.383 146.967 408.717 158.1 404.45C160.367 403.417 162.067 402.683 163.2 402.25C165.2 401.483 166.75 401.3 167.85 401.7C168.85 402.033 169.85 403.167 170.85 405.1C172.317 407.867 173.217 409.467 173.55 409.9C176.317 413.333 176.1 416.383 172.9 419.05C170.333 421.217 166.467 424.467 161.3 428.8C156.767 432.533 152.75 435.6 149.25 438C145.417 440.633 142.25 443.65 139.75 447.05C137.283 450.417 135.367 454.333 134 458.8C133 462.067 131.4 466.5 129.2 472.1C126.767 478.4 125.117 482.833 124.25 485.4C123.383 488.067 122.067 489.983 120.3 491.15C118.633 492.283 116.383 492.817 113.55 492.75C111.583 492.717 109.2 493.4 106.4 494.8C103.067 496.467 101.283 499 101.05 502.4C100.817 505.767 102.2 508.55 105.2 510.75C110.733 514.75 116.967 515.95 123.9 514.35C130.867 512.717 135.95 508.917 139.15 502.95C142.117 497.417 144.633 491.267 146.7 484.5C148.4 478.967 149.917 472.5 151.25 465.1C151.417 464.267 151.8 463.4 152.4 462.5C153.033 461.6 153.683 461 154.35 460.7C160.617 458 166.433 454.3 171.8 449.6C176.6 445.433 181.2 440.317 185.6 434.25C187.467 431.717 188.783 430.417 189.55 430.35C190.183 430.283 191.95 431.15 194.85 432.95C197.35 434.483 201.1 436.817 206.1 439.95C210.5 442.517 214.45 444.317 217.95 445.35C223.217 446.917 228.1 449.45 232.6 452.95C236.233 455.817 240 459.65 243.9 464.45C244.6 465.35 244.817 466.717 244.55 468.55C244.35 469.817 243.333 476.133 241.5 487.5C240.233 495.167 239.317 501.5 238.75 506.5C237.417 518.533 238.917 529.617 243.25 539.75C244.35 542.283 245.533 544.183 246.8 545.45C248.433 547.117 250.45 548 252.85 548.1C257.683 548.333 262.017 548.333 265.85 548.1C269.35 547.9 272.483 546.033 275.25 542.5C278.017 539 279.25 535.383 278.95 531.65C278.683 528.283 277.533 525.933 275.5 524.6C273.467 523.3 270.217 522.783 265.75 523.05L264.95 523.15C264.617 523.15 264.383 523.117 264.25 523.05C263.217 522.383 262.433 521.883 261.9 521.55C261 520.917 260.517 520.35 260.45 519.85C257.25 500.35 259.567 481.117 267.4 462.15C267.667 461.517 268.267 460.917 269.2 460.35C269.967 459.883 270.817 459.517 271.75 459.25C276.783 457.817 281.133 457.617 284.8 458.65C288.9 459.85 292.283 462.6 294.95 466.9C295.05 467.033 295.183 467.133 295.35 467.2C298.65 468.6 300.883 470.717 302.05 473.55C303.05 475.983 303.283 479.067 302.75 482.8C302.583 484.1 302.467 485.583 302.4 487.25C302.167 497.05 302.217 504.45 302.55 509.45C303.117 517.617 304.517 524.867 306.75 531.2C309.417 538.833 314.1 543.05 320.8 543.85C329.3 544.817 336.033 542.317 341 536.35C343.633 533.183 344.317 529.9 343.05 526.5C341.75 523.1 339.083 521.083 335.05 520.45C333.55 520.217 331.65 520.133 329.35 520.2C326.717 520.3 324.717 520.35 323.35 520.35C321.383 508.883 320.533 498.85 320.8 490.25C321.167 479.65 323.2 469.883 326.9 460.95C329.733 461.85 334.05 463.217 339.85 465.05C344.983 466.683 349.35 468.133 352.95 469.4C353.617 469.633 354.25 470.233 354.85 471.2C355.383 472.1 355.733 473 355.9 473.9C356.333 476.2 356.867 479.65 357.5 484.25C358.167 488.85 358.7 492.3 359.1 494.6C360.7 503.367 363.217 510.8 366.65 516.9C370.617 524.033 375.983 529.767 382.75 534.1C384.217 535.033 385.767 535.767 387.4 536.3C389.2 536.9 390.85 537.15 392.35 537.05C396.65 536.75 400.817 534.567 404.85 530.5C408.85 526.433 411.083 522.2 411.55 517.8C412.15 511.7 410.15 507.233 405.55 504.4C401.45 501.9 397.1 502.317 392.5 505.65C392.3 505.783 390.683 506.783 387.65 508.65C385.317 505.983 382.883 500.583 380.35 492.45C377.817 484.317 376.633 478.083 376.8 473.75C378.867 474.017 381.967 474.433 386.1 475C418.933 478.533 450.433 477.633 480.6 472.3C509.967 467.1 535.833 457.467 558.2 443.4C586.867 425.367 602.583 400.433 605.35 368.6C606.383 356.067 602.883 344.133 594.85 332.8C586.817 321.5 576.667 314.15 564.4 310.75C549.233 306.517 534.4 305.983 519.9 309.15C506.8 311.983 492.183 316.383 476.05 322.35C457.383 329.683 443.367 335.15 434 338.75C417.367 345.15 403.05 349.75 391.05 352.55C376.583 355.917 361.85 358.317 346.85 359.75C341.45 360.25 335.917 358.633 330.25 354.9C324.817 351.267 321.217 347.033 319.45 342.2C321.717 341.967 325.05 341.633 329.45 341.2C335.783 340.467 345.317 339.517 358.05 338.35C369.35 337.15 378.8 335.783 386.4 334.25C401.833 331.117 415.733 326.7 428.1 321C441.9 314.667 454.1 306.6 464.7 296.8C473.133 289.033 479.617 281.467 484.15 274.1C489.617 265.2 492.9 255.717 494 245.65C495.167 234.617 492.233 224.15 485.2 214.25C478 204.117 469.217 198.65 458.85 197.85C454.65 197.517 450.917 196.75 447.65 195.55C444.217 194.217 441.817 192.5 440.45 190.4C437.217 185.267 433.783 181 430.15 177.6C426.05 173.733 421.467 170.767 416.4 168.7C416.2 168.6 415.317 168.033 413.75 167C417.45 159.5 420.217 153.917 422.05 150.25C425.25 143.683 427.85 138.1 429.85 133.5C435.417 120.833 439.183 109.017 441.15 98.05ZM416.85 25.3C422.817 30.3333 427.55 36.4 431.05 43.5C434.15 49.8333 436.367 57.2 437.7 65.6C439.467 76.6333 439.183 88.0833 436.85 99.95C434.917 109.817 431.383 120.683 426.25 132.55C413.283 162.417 394.3 190.75 369.3 217.55C361.267 226.183 350.183 237.683 336.05 252.05C319.683 268.683 308.517 280.133 302.55 286.4C296.95 292.3 290.267 299.6 282.5 308.3C278.133 313.233 271.567 320.633 262.8 330.5C261.8 331.633 260.417 333.467 258.65 336L256.55 335C255.05 327.767 253.933 322.333 253.2 318.7C251.867 312.233 250.85 306.8 250.15 302.4C244.917 270 242.467 238.833 242.8 208.9C243 190.867 244.017 174.617 245.85 160.15C248.017 143.05 251.467 127.15 256.2 112.45C261 97.5167 266.65 84.35 273.15 72.95C280.55 59.8833 289.367 48.55 299.6 38.95C320.2 19.5833 345.583 10.2667 375.75 11C392.25 11.3667 405.95 16.1333 416.85 25.3ZM406.8 173.2C407.7 172.7 408.467 172.483 409.1 172.55C414.633 173.05 420.15 175.6 425.65 180.2C431.15 184.767 434.667 189.717 436.2 195.05C436.2 195.083 436.167 195.617 436.1 196.65C431.833 197.317 428.65 197.817 426.55 198.15C422.817 198.75 419.667 199.367 417.1 200C411.8 201.333 405.833 203.583 399.2 206.75L416.7 201.7C431.133 197.733 446.717 198.417 463.45 203.75C471.383 206.317 477.65 210.783 482.25 217.15C486.75 223.45 489.183 230.933 489.55 239.6C489.917 248.533 488.283 257.067 484.65 265.2C481.45 272.4 476.533 279.533 469.9 286.6C459.167 298 446.667 307.3 432.4 314.5C419.367 321.1 404.6 326.083 388.1 329.45C369.1 333.317 348.55 336.017 326.45 337.55C308.317 338.783 287.617 339.317 264.35 339.15C263.917 339.15 262.967 339.033 261.5 338.8L260.25 337.3C263.717 332.733 266.317 329.3 268.05 327C271.15 322.967 273.917 319.717 276.35 317.25C305.15 287.95 332.55 260.5 358.55 234.9C361.017 232.467 364.317 229.683 368.45 226.55C373.117 223.083 376.567 220.45 378.8 218.65C380.2 217.55 381.15 216.5 381.65 215.5L371.3 220.65L370.55 219.8L377.95 210.2C392.883 190.533 401.85 178.75 404.85 174.85C405.317 174.217 405.967 173.667 406.8 173.2ZM339.55 378.5C339.083 376.6 338.433 374.3 337.6 371.6C336.6 368.567 335.85 366.283 335.35 364.75C339.483 363.817 343.3 364.267 346.8 366.1C350.433 368 353.05 371.1 354.65 375.4C355.883 378.667 356.983 382.467 357.95 386.8C358.517 389.467 359.25 393.383 360.15 398.55C360.517 400.717 360.8 403.683 361 407.45C361.2 411.85 361.4 414.85 361.6 416.45C362 420.05 362.8 422.883 364 424.95C365.567 427.617 367.933 429.4 371.1 430.3C379.133 432.6 385.833 431.333 391.2 426.5C394.1 423.867 396.3 420.667 397.8 416.9C399.067 413.667 399.867 409.85 400.2 405.45C400.667 398.85 400.033 391.917 398.3 384.65C396.933 379.017 394.683 372.417 391.55 364.85C391.117 364.017 390.8 363.4 390.6 363C390.233 362.233 390.067 361.617 390.1 361.15C390.167 360.383 390.367 359.617 390.7 358.85C391.067 357.983 391.467 357.483 391.9 357.35C397.567 355.45 402.55 354.133 406.85 353.4C407.817 353.233 408.883 353.317 410.05 353.65C411.25 353.983 412.2 354.467 412.9 355.1C416.033 358.033 418.55 361.617 420.45 365.85C422.083 369.417 423.333 373.633 424.2 378.5C424.6 380.733 425.267 384.683 426.2 390.35C427 395.35 427.683 399.283 428.25 402.15C428.917 405.383 430.033 408.5 431.6 411.5C434.833 417.567 439.633 420.817 446 421.25C452.367 421.717 457.583 419.167 461.65 413.6C465.017 409 467.1 403.767 467.9 397.9C468.567 393.133 468.417 387.517 467.45 381.05C466.483 374.65 464.6 368.1 461.8 361.4C459.5 355.8 456.4 349.733 452.5 343.2C451.367 341.333 451 339.867 451.4 338.8C451.767 337.767 452.95 336.933 454.95 336.3C457.983 335.3 459.567 334.767 459.7 334.7C461.5 334.067 463.017 333.4 464.25 332.7C466.25 331.6 467.983 331.333 469.45 331.9C470.65 332.367 471.917 333.567 473.25 335.5C477.183 341.233 480.4 347.883 482.9 355.45C484.8 361.183 486.55 368.35 488.15 376.95C488.717 380.05 489.55 383.1 490.65 386.1C492.25 390.367 494.6 393.617 497.7 395.85C500.8 398.083 504.483 399.183 508.75 399.15C513.25 399.117 517.217 397.917 520.65 395.55C524.217 393.15 526.683 389.917 528.05 385.85C532.617 372.483 532.133 358.8 526.6 344.8C525.267 341.367 523.3 337.267 520.7 332.5C517.7 327.167 515.483 323.15 514.05 320.45C513.717 319.817 512.783 318.217 511.25 315.65C511.783 315.55 514.833 314.933 520.4 313.8C523.833 313.1 526.65 312.583 528.85 312.25C535.083 311.283 540.2 313.633 544.2 319.3C549.433 326.633 552.467 335.317 553.3 345.35C553.867 352.083 554.433 356.867 555 359.7C555.733 363.333 557.017 366.067 558.85 367.9C560.65 369.667 563.15 370.733 566.35 371.1C569.35 371.467 572.167 370.9 574.8 369.4C577.467 367.9 579.533 365.667 581 362.7C585.2 354.2 585.867 344.8 583 334.5C582.1 331.5 581.6 329.433 581.5 328.3C591.867 336 597.6 345.65 598.7 357.25C601.4 385.517 592.05 408.95 570.65 427.55C559.55 437.217 546.9 445.317 532.7 451.85C520.033 457.717 505.783 462.467 489.95 466.1C463.117 472.233 434.317 473.917 403.55 471.15C399.95 470.817 395.417 470.217 389.95 469.35C381.45 467.983 376.933 467.267 376.4 467.2C373.233 466.733 371.45 464.867 371.05 461.6C370.717 459.633 370.5 458.15 370.4 457.15C370.067 454.617 369.55 452.717 368.85 451.45C367.883 449.65 366.283 448.333 364.05 447.5C362.983 447.1 361.85 446.25 360.65 444.95C359.283 443.383 358.25 442.233 357.55 441.5C350.283 433.8 344.7 428.15 340.8 424.55C339.233 423.117 338.317 421.8 338.05 420.6C337.717 419.3 337.983 417.667 338.85 415.7C341.317 410.133 342.483 403.967 342.35 397.2C342.25 392.067 341.317 385.833 339.55 378.5ZM358.75 381.05C358.317 378.883 357.4 376.267 356 373.2C354.3 369.767 353.067 367.167 352.3 365.4C369.833 362.133 379.983 360.283 382.75 359.85C383.417 359.75 384.25 359.967 385.25 360.5C386.217 361 386.85 361.567 387.15 362.2C392.15 372.333 395.4 380.7 396.9 387.3C399.1 396.733 398.85 405.717 396.15 414.25C394.383 419.85 391.55 423.85 387.65 426.25C383.75 428.683 379.133 429.283 373.8 428.05C370.167 427.25 367.533 425.733 365.9 423.5C364.367 421.367 363.383 418.05 362.95 413.55C361.583 399.383 360.183 388.55 358.75 381.05ZM481 345.75C477.967 338.383 475.667 332.75 474.1 328.85C477.233 327.65 482.017 325.767 488.45 323.2C494.217 320.933 499.15 319.067 503.25 317.6C504.017 317.333 505.05 317.417 506.35 317.85C507.617 318.283 508.583 318.867 509.25 319.6C520.717 331.967 526.95 346.483 527.95 363.15C528.317 368.95 527.9 375.217 526.7 381.95C525.9 386.35 523.883 389.867 520.65 392.5C517.483 395.1 513.6 396.483 509 396.65C500.433 397.05 494.833 392.633 492.2 383.4C491.667 381.5 490.883 377.917 489.85 372.65C488.95 368.15 488.067 364.617 487.2 362.05C485.667 357.617 483.6 352.183 481 345.75ZM446.05 340.55C446.883 340.85 447.483 341.233 447.85 341.7C455.317 351.7 460.433 361.6 463.2 371.4C466.267 382.367 466.517 393.483 463.95 404.75C462.683 410.183 460.017 414.017 455.95 416.25C451.983 418.45 447.417 418.733 442.25 417.1C437.05 415.5 433.717 411.867 432.25 406.2C431.35 402.867 430.467 398.983 429.6 394.55C429.333 393.183 428.6 389.267 427.4 382.8C426.2 376.433 424.95 371.45 423.65 367.85C421.75 362.617 419.117 358.217 415.75 354.65C415.517 354.383 415.267 353.933 415 353.3C414.533 352.233 414.25 351.583 414.15 351.35C429.083 345.75 439.05 342.083 444.05 340.35C444.55 340.183 445.217 340.25 446.05 340.55ZM543.95 313.4C546.45 313.767 550.2 314.25 555.2 314.85C559.6 315.45 563.317 316.083 566.35 316.75C567.717 317.05 569.1 317.7 570.5 318.7C571.833 319.633 572.983 320.717 573.95 321.95C578.35 327.55 581.067 333.45 582.1 339.65C583.1 345.917 582.35 352.35 579.85 358.95C579.217 360.717 578.133 362.417 576.6 364.05C575.067 365.683 573.45 366.883 571.75 367.65C568.35 369.183 565.267 369.05 562.5 367.25C559.767 365.517 558.033 362.633 557.3 358.6C556.633 354.9 556.133 350.617 555.8 345.75C555.067 334.65 551.733 325.633 545.8 318.7C545.567 318.433 544.75 317.25 543.35 315.15L543.95 313.4ZM313.7 25.8C309.633 28.5333 306.35 30.9333 303.85 33C294.717 40.5 286.55 49.5667 279.35 60.2C273.083 69.4 267.317 80.15 262.05 92.45C247.45 126.517 240.533 162.683 241.3 200.95C241.5 210.583 241.75 225.05 242.05 244.35C242.583 260.983 243.917 275.383 246.05 287.55L248.35 300.05C249.283 305.05 250.017 309.233 250.55 312.6C250.783 314.233 250.983 316.267 251.15 318.7C251.217 320.1 251.333 322.183 251.5 324.95C247.667 325.85 243.683 325.783 239.55 324.75C237.317 324.183 233.75 322.85 228.85 320.75C228.517 320.617 228.233 320.167 228 319.4C227.8 318.667 227.733 318.017 227.8 317.45C229.867 301.283 227.883 285.983 221.85 271.55C216.417 258.517 207.55 245.917 195.25 233.75C192.15 230.683 189.917 226.867 188.55 222.3C187.783 219.9 186.983 215.683 186.15 209.65C185.783 206.883 185.617 203.733 185.65 200.2C185.683 197.9 185.85 194.733 186.15 190.7C186.983 179.767 185.567 168.783 181.9 157.75C180.367 153.117 179.55 147.883 179.45 142.05C179.383 138.217 179.667 132.917 180.3 126.15C181.767 110.783 184.433 97.05 188.3 84.95C192.733 71.0167 198.95 58.5833 206.95 47.65C218.25 32.2833 231.517 21.1167 246.75 14.15C262.117 7.15001 279.3 4.48335 298.3 6.15001C308.767 7.05001 317.367 11.25 324.1 18.75C321.767 20.3833 318.3 22.7333 313.7 25.8ZM168.75 140.3C170.383 140.967 172 142.2 173.6 144C175 145.6 176.2 147.383 177.2 149.35C179.633 154.117 181.367 159.633 182.4 165.9C183.167 170.4 183.667 176.2 183.9 183.3C184.467 201.1 182.283 217.883 177.35 233.65C178.317 230.817 179.717 229.333 181.55 229.2C182.95 229.1 184.75 229.8 186.95 231.3C188.45 232.367 190.7 233.967 193.7 236.1C196.233 238 198.217 239.833 199.65 241.6C210.983 255.633 218.817 269.817 223.15 284.15C226.217 294.25 227.083 304.75 225.75 315.65C224.583 325.25 221.667 335.367 217 346C208.733 364.9 197.067 379.25 182 389.05C167.3 398.583 149.55 403.65 128.75 404.25C124.417 404.383 119.467 403.783 113.9 402.45C110.667 401.683 105.767 400.233 99.2 398.1C90.6333 395.3 83.2 392.417 76.9 389.45C69.1667 385.783 62.3333 381.633 56.4 377C42.4 366 36.4 352.883 38.4 337.65C38.8 334.817 39.4667 332.15 40.4 329.65C41.5 326.783 42.8667 324.483 44.5 322.75C48.5667 318.417 50.8833 313.533 51.45 308.1C51.9167 303.8 51.3 298.5 49.6 292.2C47.7 284.967 46.6833 278.9 46.55 274C46.4167 267.4 47.75 261.433 50.55 256.1C51.8833 253.567 53.7667 250.567 56.2 247.1C58.9333 243.267 60.9333 240.4 62.2 238.5C61.2333 236.867 60.5167 235.65 60.05 234.85C59.2167 233.45 58.6167 232.25 58.25 231.25C53.7833 218.617 47.05 208.25 38.05 200.15C36.15 198.45 34.8833 196.983 34.25 195.75C33.35 194.05 33.2 192.133 33.8 190C33.9667 189.4 33.9167 188.6 33.65 187.6C33.2833 186.467 33.0333 185.617 32.9 185.05H31.3C31.2333 185.617 31.0833 186.483 30.85 187.65C30.6833 188.717 30.6333 189.583 30.7 190.25C31.1667 195.15 29.7333 199.8 26.4 204.2C24.9 206.233 23.0167 207.633 20.75 208.4C18.5167 209.167 16.2667 209.183 14 208.45C8.66667 206.683 5.71667 203.233 5.15 198.1C4.58333 192.833 6.1 187.65 9.7 182.55C13.3 177.483 17.6667 174.367 22.8 173.2C25.8667 172.533 28.8333 172.783 31.7 173.95C34.0333 174.917 36.4833 176.6 39.05 179C48.25 187.633 55.6 199.183 61.1 213.65L68.35 232.8C69.8833 232.133 71 231.65 71.7 231.35C72.9 230.85 73.85 230.367 74.55 229.9C81.5167 225.4 89.5333 222 98.6 219.7C105.467 218 114.083 216.7 124.45 215.8C135.783 214.8 147.467 215.983 159.5 219.35C163.067 220.383 165.183 221.333 165.85 222.2C166.45 223.067 166.65 225.25 166.45 228.75C168.317 225.55 169.767 221.067 170.8 215.3C171.833 209.5 172.167 203.95 171.8 198.65C171.367 192.55 170.667 187.3 169.7 182.9C168.467 177.367 166.633 172.367 164.2 167.9C163.767 167.1 163.65 165.717 163.85 163.75C164.117 161.25 164.183 159.533 164.05 158.6C163.25 159.933 162.033 161.933 160.4 164.6C158.467 168.067 155.733 170.2 152.2 171C148.667 171.833 145.117 171.167 141.55 169C138.15 166.9 136.067 164 135.3 160.3C134.567 156.633 135.367 153.2 137.7 150C140.8 145.8 145.533 142.667 151.9 140.6C158.433 138.467 164.05 138.367 168.75 140.3ZM224.3 334.4C224.767 333 225.8 329.7 227.4 324.5C230.067 325.067 233.967 325.883 239.1 326.95C243.6 327.917 247.4 328.783 250.5 329.55C251.133 329.717 251.783 330.183 252.45 330.95C253.05 331.617 253.517 332.35 253.85 333.15C254.117 333.783 254.383 334.917 254.65 336.55C254.883 338.05 255.183 339.15 255.55 339.85C255.95 340.583 256.583 341.267 257.45 341.9C258.383 342.6 259.183 342.933 259.85 342.9C264.35 342.7 271.083 342.333 280.05 341.8C289.017 341.233 295.733 340.85 300.2 340.65C303.367 340.483 306.05 341.067 308.25 342.4C329.483 355.833 340.1 374.1 340.1 397.2C340.067 399.667 339.583 402.55 338.65 405.85C338.083 407.75 337.133 410.6 335.8 414.4C335.633 414.967 335.05 415.5 334.05 416C333.25 416.433 332.333 416.767 331.3 417C330.567 417.167 329.6 417.217 328.4 417.15C326.667 417.05 325.65 417 325.35 417C321.917 417.1 319.733 418.017 318.8 419.75C317.867 421.45 318.25 423.833 319.95 426.9C322.017 430.6 322.917 433.017 322.65 434.15C322.383 435.25 320.467 437 316.9 439.4C315 440.7 313.183 441.867 311.45 442.9C308.083 444.9 305.633 445.617 304.1 445.05C302.567 444.483 301.067 442.333 299.6 438.6C298.267 435.067 297.25 432.433 296.55 430.7C295.35 427.667 294.183 425.117 293.05 423.05C291.483 420.183 289.383 418.15 286.75 416.95C284.283 415.783 281.633 415.483 278.8 416.05C277.233 416.383 276.133 416.9 275.5 417.6C274.767 418.467 274.65 419.65 275.15 421.15L283.4 446.7C283.667 447.533 284.2 448.85 285 450.65C278.633 453.517 272.067 454.117 265.3 452.45C257.433 450.483 252.15 445.767 249.45 438.3C248.017 434.333 247.05 431.683 246.55 430.35C245.383 427.383 244.217 424.817 243.05 422.65C241.083 418.95 237.967 414.5 233.7 409.3C232.5 407.867 230.533 406.7 227.8 405.8C225.3 405 223.183 405.367 221.45 406.9C219.75 408.467 219.233 410.483 219.9 412.95C220.9 416.683 222.2 421.15 223.8 426.35C224.7 429.317 226.067 433.767 227.9 439.7L229.4 444.25C225.167 442.583 222.1 441.383 220.2 440.65C216.867 439.317 214.117 438.15 211.95 437.15C194.783 429.25 182.583 417.5 175.35 401.9C174.417 399.9 174.1 398.367 174.4 397.3C174.733 396.067 175.933 394.9 178 393.8C189.567 387.7 199.283 379.367 207.15 368.8C214.15 359.367 219.867 347.9 224.3 334.4ZM287.4 421.45C290.167 424.75 292.683 428.6 294.95 433C295.883 434.9 297.083 437.633 298.55 441.2C300.117 445.067 301.283 447.817 302.05 449.45C304.283 454.117 308.3 457.367 314.1 459.2C316.5 459.933 318.067 460.583 318.8 461.15C320.233 462.283 320.683 463.933 320.15 466.1C319.783 467.6 318.567 468.733 316.5 469.5C314.4 470.233 312.333 470.267 310.3 469.6C301.133 466.533 294 460.583 288.9 451.75C283.233 441.95 279.617 431.367 278.05 420C279.917 419.067 281.667 418.733 283.3 419C284.9 419.267 286.267 420.083 287.4 421.45ZM244.65 433.1C245.15 434.467 245.85 436.517 246.75 439.25C249.15 446.05 253.167 450.933 258.8 453.9C260.6 454.833 261.8 455.683 262.4 456.45C263.367 457.65 263.483 459.1 262.75 460.8C262.017 462.567 260.833 463.583 259.2 463.85C258.033 464.05 256.5 463.867 254.6 463.3C251.233 462.333 248.05 460.567 245.05 458C242.85 456.133 240.383 453.467 237.65 450C233.65 444.967 230.433 439.167 228 432.6C225.967 427.033 224.383 420.567 223.25 413.2C223.183 412.733 223.167 412.033 223.2 411.1C223.233 409.433 223.25 408.333 223.25 407.8L227.9 409.45C229.5 409.983 230.583 410.617 231.15 411.35C235.083 416.15 238.683 421.433 241.95 427.2C242.883 428.8 243.783 430.767 244.65 433.1ZM251.6 467.5C252.533 467.033 255.25 467.1 259.75 467.7C256.917 477.5 255.15 487.65 254.45 498.15C253.783 508.017 254.033 518.533 255.2 529.7C259.933 529.333 262.967 529.067 264.3 528.9C265.4 528.8 267.05 528.517 269.25 528.05C271.05 528.017 272.383 528.983 273.25 530.95C274.05 532.783 274.033 534.617 273.2 536.45C272.333 538.35 270.767 539.7 268.5 540.5C263.9 542.167 259.4 542.883 255 542.65C253.9 542.583 252.7 541.983 251.4 540.85C250.133 539.783 249.217 538.633 248.65 537.4C244.35 527.967 242.717 517.4 243.75 505.7C244.483 496.9 246.183 486.267 248.85 473.8C249.617 470.167 250.533 468.067 251.6 467.5ZM307.5 492.4C307.8 484.767 307.95 480.783 307.95 480.45C308.017 476.35 308.483 474.017 309.35 473.45C310.217 472.85 312.85 473.15 317.25 474.35C317.25 500.25 317.267 515.767 317.3 520.9C317.3 521.733 317.417 522.817 317.65 524.15C317.783 524.917 318.017 526.2 318.35 528C324.95 526.633 328.383 525.933 328.65 525.9C331.15 525.5 333.033 525.417 334.3 525.65C336.267 526.017 337.533 527.167 338.1 529.1C338.633 531.033 338.167 532.7 336.7 534.1C335.533 535.2 333.883 536.05 331.75 536.65C325.75 538.35 321.45 538.65 318.85 537.55C316.15 536.417 313.75 533.15 311.65 527.75C310.383 524.517 309.433 520.7 308.8 516.3C308.367 513.4 307.967 509.417 307.6 504.35C307.367 501.217 307.333 497.233 307.5 492.4ZM312.5 446.65C318.4 442.45 322.217 439.817 323.95 438.75C324.417 438.483 325.1 438.4 326 438.5C326.9 438.6 327.467 438.817 327.7 439.15C330.767 443.517 334.633 447.483 339.3 451.05C343.133 453.95 347.85 456.833 353.45 459.7C353.85 459.933 354.5 460.45 355.4 461.25C355.533 461.383 355.8 461.783 356.2 462.45C352.033 463.783 344.933 462.483 334.9 458.55C325.867 454.983 318.4 451.017 312.5 446.65ZM178.3 419.4C179.033 418.133 179.983 417.567 181.15 417.7C182.217 417.8 182.967 418.417 183.4 419.55C184.733 423.217 184.983 426.333 184.15 428.9C183.15 432.133 181.15 435.133 178.15 437.9C172.617 442.933 166.467 448 159.7 453.1C157.133 455.033 154.35 456.067 151.35 456.2C148.317 456.367 144.883 455.633 141.05 454C143.583 451.267 145.417 449.283 146.55 448.05C148.55 445.917 150.283 444.283 151.75 443.15C158.283 438.583 163.1 435.05 166.2 432.55C171.533 428.283 175.567 423.9 178.3 419.4ZM141.95 458.05C143.283 457.783 144.45 458.283 145.45 459.55C146.017 460.317 146.233 461.417 146.1 462.85C144.833 477.45 140.367 490.883 132.7 503.15C131.333 505.35 129.617 506.883 127.55 507.75C125.683 508.55 122.85 509.067 119.05 509.3C118.083 509.1 116.617 508.833 114.65 508.5C112.917 508.167 111.5 507.767 110.4 507.3C109.6 506.967 108.817 506.35 108.05 505.45C107.283 504.55 106.933 503.767 107 503.1C107.1 502.3 107.533 501.433 108.3 500.5C109.033 499.567 109.833 498.917 110.7 498.55C111.767 498.083 112.9 497.8 114.1 497.7C115.433 497.6 116.517 497.767 117.35 498.2C118.917 499 120.217 499.117 121.25 498.55C121.85 498.217 122.7 497.333 123.8 495.9C127.267 491.267 130.333 485.65 133 479.05C134.333 475.65 136.4 469.6 139.2 460.9C139.7 459.3 140.617 458.35 141.95 458.05ZM329.3 420.5C331.567 420.9 333.7 421.883 335.7 423.45C341.633 428.25 346.083 432.467 349.05 436.1C350.783 438.233 353.3 441.467 356.6 445.8C359.733 449.167 363.267 451.133 367.2 451.7C366.5 454.167 365.383 455.817 363.85 456.65C362.517 457.417 360.95 457.5 359.15 456.9C352.483 454.767 347.167 452.533 343.2 450.2C338.4 447.367 333.967 443.133 329.9 437.5C325.967 432 323.383 426.583 322.15 421.25C324.583 420.35 326.967 420.1 329.3 420.5ZM360.85 466.9C360.483 464.4 360.883 462.583 362.05 461.45C363.117 460.45 365.033 459.833 367.8 459.6C368.5 462.7 369.483 467.333 370.75 473.5C371.883 479.033 372.95 483.617 373.95 487.25C376.283 495.817 379.15 504.45 382.55 513.15C383.55 515.65 384.633 516.983 385.8 517.15C386.9 517.317 388.517 516.45 390.65 514.55C390.717 514.517 391.417 513.767 392.75 512.3C393.583 511.4 394.35 510.817 395.05 510.55C398.817 509.25 401.417 509.017 402.85 509.85C403.783 510.35 404.6 511.35 405.3 512.85C405.967 514.283 406.267 515.6 406.2 516.8C406.067 519.767 404.983 522.4 402.95 524.7C401.35 526.533 399.017 528.283 395.95 529.95C393.717 531.15 391.467 531.45 389.2 530.85C387.533 530.417 385.5 529.333 383.1 527.6C377.6 523.667 373.283 518.55 370.15 512.25C367.583 507.117 365.617 500.733 364.25 493.1C363.717 490 363.133 485.633 362.5 480C361.8 473.867 361.25 469.5 360.85 466.9ZM117.3 389.65L105.25 385.85C105.183 387.983 105.9 389.55 107.4 390.55C108.367 391.183 110.017 391.733 112.35 392.2C113.917 392.5 115.083 392.433 115.85 392C116.517 391.6 117 390.817 117.3 389.65ZM65.75 364.65C66.8167 364.217 67.6167 363.9 68.15 363.7C95.7167 384.733 120.517 381.1 142.55 352.8L146.7 357.45C147.333 354.483 147.017 352.05 145.75 350.15C144.517 348.317 142.5 347.217 139.7 346.85C137.767 346.583 136.3 346.7 135.3 347.2C134 347.867 133.233 349.233 133 351.3H137.7C137.267 352.033 136.683 352.983 135.95 354.15C135.35 355.117 134.833 355.883 134.4 356.45C126.5 366.65 116.783 372.133 105.25 372.9C94.45 373.633 83.9667 370.233 73.8 362.7C71.8667 361.267 70.6667 360.067 70.2 359.1C69.4333 357.5 69.85 355.767 71.45 353.9C68.75 353.767 66.55 354.383 64.85 355.75C63.15 357.083 62.3167 358.883 62.35 361.15C62.3833 361.85 62.55 362.55 62.85 363.25C63.2167 364.017 63.6333 364.55 64.1 364.85C64.4 365.05 64.95 364.983 65.75 364.65ZM92.2 248.95C91 243.217 87.9833 240.45 83.15 240.65C80.25 240.75 77.5667 241.917 75.1 244.15C72.6333 246.383 71.25 248.85 70.95 251.55L92.2 248.95ZM135.15 270.65C128.417 276.417 124.5 284.883 123.4 296.05C122.3 307.183 124.433 316.317 129.8 323.45C130.4 324.25 130.967 325.383 131.5 326.85C132.433 329.417 132.917 330.733 132.95 330.8C135.717 330.067 137.883 329.517 139.45 329.15C142.35 328.45 144.8 328.217 146.8 328.45C148.867 328.683 151.417 329.467 154.45 330.8C157.917 332.467 160.583 333.667 162.45 334.4C162.383 334.133 162.283 333.617 162.15 332.85C162.05 332.483 161.95 332.267 161.85 332.2C158.983 330.433 157.7 328.367 158 326C158.2 324.533 159.283 322.367 161.25 319.5C161.783 318.8 162.383 317.8 163.05 316.5C166.117 310.433 168.25 304.883 169.45 299.85C170.883 293.75 171.1 287.8 170.1 282C169.233 277 167.317 272.75 164.35 269.25C161.317 265.717 157.6 263.45 153.2 262.45C150.233 261.85 148.267 261.8 147.3 262.3C142.8 264.833 138.75 267.617 135.15 270.65ZM159.15 293.6C156.683 292.2 154.033 291.717 151.2 292.15C145.6 293.017 141.35 296.283 138.45 301.95C135.517 307.617 135.167 313.333 137.4 319.1L139.7 325.55C139.467 325.517 138.85 325.417 137.85 325.25C137.383 325.183 137.083 325.067 136.95 324.9C130.65 317.133 127.117 309.1 126.35 300.8C125.517 291.9 128.05 283.833 133.95 276.6C136.55 273.467 139.8 270.983 143.7 269.15C148.967 266.683 153.783 266.6 158.15 268.9C162.483 271.2 165.133 275.233 166.1 281C166.5 283.367 166.767 286.283 166.9 289.75C167 291.717 167.1 294.65 167.2 298.55L165.3 298.9C163.033 296.4 160.983 294.633 159.15 293.6ZM152.7 308.65C154.6 308.583 156.167 309.15 157.4 310.35C158.633 311.55 159.283 313.167 159.35 315.2C159.417 317.533 158.667 319.583 157.1 321.35C155.5 323.15 153.533 324.117 151.2 324.25C149.067 324.383 147.417 323.867 146.25 322.7C145.117 321.533 144.517 319.8 144.45 317.5C144.417 315.067 145.183 313 146.75 311.3C148.317 309.6 150.3 308.717 152.7 308.65ZM96.2 267.05C92.3 263.183 87.6 261.55 82.1 262.15C81.9667 262.283 81.1667 263.067 79.7 264.5C78.9 265.3 78.2333 265.9 77.7 266.3C77.2333 266.667 76 267.533 74 268.9C72.5 269.9 71.35 270.8 70.55 271.6C65.3167 276.767 62.2 283.8 61.2 292.7C60.2333 301.567 61.65 309.45 65.45 316.35C65.6833 316.75 66.85 319.1 68.95 323.4C69.75 323.467 70.9667 323.283 72.6 322.85C74.4 322.383 75.6667 322.133 76.4 322.1C79.2 322 80.8667 324.117 81.4 328.45C81.9667 324.017 83.9667 321.067 87.4 319.6C88.5333 319.133 90.0667 318.717 92 318.35C94.5667 317.917 96.0667 317.65 96.5 317.55C96.7333 315.75 96.9 314.45 97 313.65C97.2 312.283 97.4333 311.183 97.7 310.35C99.8333 304.183 101.217 299.733 101.85 297C103.05 292 103.467 287.383 103.1 283.15C102.5 276.317 100.2 270.95 96.2 267.05ZM99.7 295.05C96.6333 291.817 93.7333 289.767 91 288.9C87.9 287.933 84.7333 288.367 81.5 290.2C76.6 293.033 73.3 296.717 71.6 301.25C69.9333 305.617 69.7167 310.867 70.95 317C68.05 313.733 66.0833 310.067 65.05 306C64.2167 302.733 63.9 298.85 64.1 294.35C64.4333 287.55 66.4 281.8 70 277.1C73.6 272.367 78.35 269.3 84.25 267.9C86.9833 267.233 89.3 267.283 91.2 268.05C93.1333 268.817 94.7667 270.367 96.1 272.7C97.9 275.8 99.0667 279.25 99.6 283.05C100.067 286.383 100.1 290.383 99.7 295.05ZM84.1 303.9C85.5667 302.333 87.4 301.55 89.6 301.55C92.7333 301.85 94.2667 303.833 94.2 307.5C94.1667 309.8 93.4833 311.717 92.15 313.25C90.7833 314.783 89.1 315.517 87.1 315.45C83.5 315.35 81.75 313.417 81.85 309.65C81.9167 307.35 82.6667 305.433 84.1 303.9ZM146.4 241.25C144.133 242.517 142.733 244.25 142.2 246.45L163.2 253.3C163.633 249.533 163.033 246.517 161.4 244.25C159.8 241.983 157.3 240.567 153.9 240C151.233 239.567 148.733 239.983 146.4 241.25ZM440 257H421.5C427.867 249.367 436.117 242.85 446.25 237.45C444.183 236.983 442.633 237.1 441.6 237.8C434.333 242.8 428.55 246.983 424.25 250.35C417.283 255.85 406.95 264.2 393.25 275.4C392.717 275.833 391.967 276.25 391 276.65C389.867 277.117 388.983 277.483 388.35 277.75L397 254.1L394.7 253.2C394.633 253.367 394.2 254.35 393.4 256.15C392.9 257.317 392.517 258.3 392.25 259.1C389.95 266.433 387.95 271.617 386.25 274.65C383.25 279.917 379.183 283.617 374.05 285.75C370.65 287.183 366.25 288.767 360.85 290.5C354.617 292.467 349.783 294.017 346.35 295.15C348.25 291.683 349.617 289.2 350.45 287.7C351.917 285.133 353.233 283.083 354.4 281.55C355.567 280.05 357.167 278.3 359.2 276.3C361.533 274.133 363.25 272.483 364.35 271.35L363.75 270.25C362.883 270.75 361.517 271.433 359.65 272.3C358.05 273.133 356.883 273.983 356.15 274.85C355.017 276.217 353.633 278.267 352 281C350.233 284 348.9 286.1 348 287.3C347 288.667 345.45 290.767 343.35 293.6C341.45 295.933 339.6 297.533 337.8 298.4C334.1 300.233 329.433 302.15 323.8 304.15C317.4 306.35 312.617 308.017 309.45 309.15C309.417 309.15 309.05 308.917 308.35 308.45L317.9 297.15L316 295.6L295.1 319.35L319.95 327.1C318.55 324.433 315.883 322.483 311.95 321.25C307.15 319.717 304.133 318.433 302.9 317.4C304.5 316.233 305.683 315.383 306.45 314.85C307.75 313.917 308.867 313.25 309.8 312.85C321.333 308.05 330.75 304.3 338.05 301.6C340.283 300.8 342.8 300.817 345.6 301.65C348.1 302.417 351.133 303.467 354.7 304.8C356.733 305.533 359.75 306.65 363.75 308.15L364.4 306.9L348 298.45C351.433 296.983 353.267 296.2 353.5 296.1C356.1 295.133 359.967 293.633 365.1 291.6C369.667 289.867 373.583 288.467 376.85 287.4C378.05 287.033 379.383 286.883 380.85 286.95C382.283 286.983 383.6 287.233 384.8 287.7C389.8 289.6 394.233 290.883 398.1 291.55C403.033 292.383 407.95 292.45 412.85 291.75C411.883 291.45 407.133 290.567 398.6 289.1C393.233 288.167 389.133 286.583 386.3 284.35C390.933 280.883 394.4 278.283 396.7 276.55C400.733 273.483 404.15 270.85 406.95 268.65C411.217 265.283 415.317 262.817 419.25 261.25C423.883 259.45 428.617 258.733 433.45 259.1C434.35 259.167 435.467 259.117 436.8 258.95C437.533 258.85 438.633 258.683 440.1 258.45L440 257ZM354.1 67.65C353.867 72.05 353.75 75.7 353.75 78.6C353.717 86.8333 352.733 93.65 350.8 99.05C348.4 105.75 344.267 111.317 338.4 115.75C336.367 117.283 334.25 119.55 332.05 122.55C330.817 124.283 329 126.9 326.6 130.4C325.467 131.933 324.15 133.883 322.65 136.25C321.817 137.583 320.567 139.567 318.9 142.2L317.35 141.7C315.65 130.933 314.717 122.433 314.55 116.2C314.317 106.833 315.433 98.3167 317.9 90.65C318.133 89.8834 318.317 88.9334 318.45 87.8C318.583 86.5 318.683 85.5334 318.75 84.9L316.75 84.6C316.45 85.7 315.95 87.3333 315.25 89.5C314.683 91.4333 314.267 93.0833 314 94.45C311.333 108.917 311.55 124.8 314.65 142.1C315.317 145.667 315.167 148.7 314.2 151.2C312.5 155.567 309.817 162.083 306.15 170.75C302.483 179.417 299.783 185.933 298.05 190.3C296.917 193.2 295.667 196.833 294.3 201.2C293.533 203.633 292.4 207.3 290.9 212.2L289.55 212.35C287.317 205.283 285.65 199.983 284.55 196.45C282.583 190.217 281 184.9 279.8 180.5C277.167 170.733 277.283 159.917 280.15 148.05C278.117 150.35 277 152.617 276.8 154.85C276.667 156.75 276.417 159.6 276.05 163.4C275.85 166.7 275.967 169.5 276.4 171.8C279.133 186.067 282.117 198.133 285.35 208C286.883 212.8 287.8 217.067 288.1 220.8C288.433 225.233 287.95 229.533 286.65 233.7C285.483 237.367 284.217 242.017 282.85 247.65L279.45 261.75C279.317 262.317 278.267 266.083 276.3 273.05L275 272.95C272.433 264.85 270.583 258.75 269.45 254.65C267.517 247.483 266.833 241.1 267.4 235.5C266.4 236.333 265.95 237.083 266.05 237.75C266.383 240.55 266.817 244.75 267.35 250.35C267.917 255.283 268.583 259.417 269.35 262.75C271.25 270.983 272.283 276.667 272.45 279.8C272.783 286.1 271.45 291.7 268.45 296.6C268.25 296.933 268.117 297.417 268.05 298.05C268.05 298.417 268.017 298.95 267.95 299.65L269.1 300.2C270.033 298.9 270.733 297.917 271.2 297.25C272 296.083 272.517 295.05 272.75 294.15C273.817 289.817 275.883 286.133 278.95 283.1C281.583 280.433 285.083 278.15 289.45 276.25C294.15 274.183 298.833 271.183 303.5 267.25C306.5 264.717 310.483 260.833 315.45 255.6C315.85 255.2 316.233 254.617 316.6 253.85C317.033 252.983 317.367 252.333 317.6 251.9L316.15 250.6C306.317 263.1 293.683 272.583 278.25 279.05C279.183 274.65 279.683 272.333 279.75 272.1C281.817 264.833 283.35 259.367 284.35 255.7C286.15 249.167 287.233 243.65 287.6 239.15C288.2 231.75 290.667 226.017 295 221.95C298.7 218.517 304.217 215.95 311.55 214.25L313 213.95C331.067 209.883 346.883 203.133 360.45 193.7C361.55 192.933 362.867 191.933 364.4 190.7L368.25 187.55L366.85 185.2C357.883 193.667 346.45 200.517 332.55 205.75C326.217 208.15 313.317 211.917 293.85 217.05C293.983 215.883 294.083 215.033 294.15 214.5C294.283 213.567 294.45 212.783 294.65 212.15C302.45 189.783 308.233 172.983 312 161.75C314.433 154.617 319.683 150.417 327.75 149.15C330.55 148.717 334.75 148.083 340.35 147.25C345.25 146.517 349.433 145.8 352.9 145.1C361.467 143.433 368.667 141.467 374.5 139.2C381.967 136.333 388.433 132.6 393.9 128C394.567 127.467 395.3 126.7 396.1 125.7C397 124.6 397.683 123.783 398.15 123.25L396.8 121.5C388.4 131.2 376.767 137.55 361.9 140.55C356.467 141.65 349.7 142.9 341.6 144.3C332.567 145.833 325.8 147 321.3 147.8C321.067 146.7 320.95 146.133 320.95 146.1L322.9 142.05C327.633 133.383 333.7 125.067 341.1 117.1C347.4 110.333 355.033 103.4 364 96.3C372.1 89.9334 378.4 84.4 382.9 79.7C389.233 73.1 394.067 66.2333 397.4 59.1C397.733 58.4333 398.067 57.5667 398.4 56.5C398.767 55.3333 399.05 54.45 399.25 53.85L397.7 52.75C393.8 61.6833 387.717 70.2167 379.45 78.35C375.083 82.65 367.083 89.3334 355.45 98.4C355.383 96.2667 355.433 93.8167 355.6 91.05C355.833 87.95 356 85.6167 356.1 84.05C356.2 82.5834 356.3 80.1833 356.4 76.85C356.467 73.7167 356.567 71.3 356.7 69.6C357.067 64.0667 357.183 60.7833 357.05 59.75C356.883 58.5833 356.1 57.35 354.7 56.05C354.6 58.75 354.4 62.6167 354.1 67.65Z" fill="black"/>
    </g>
    <defs>
        <clipPath id="clip0">
            <rect width="606" height="548" fill="white"/>
        </clipPath>
    </defs>
</svg>
