<svg width="576" height="385" viewBox="0 0 576 385" fill="none" xmlns="http://www.w3.org/2000/svg">
    <g clip-path="url(#clip0)">
        <path d="M498 227.85V227.9L498.05 227.85H498Z" fill="#373535"/>
        <path d="M143.05 210.7C142.15 209.3 138.55 203.967 132.25 194.7C120.917 250.333 105.283 301.25 85.35 347.45L74.6 345.15C60.3667 342.283 51.1667 340.517 47 339.85C36.5667 338.217 27.2167 337.5 18.95 337.7C17.65 337.767 16.3167 338.05 14.95 338.55C13.55 339.083 12.3667 339.75 11.4 340.55C8.83333 342.75 6.83333 345.6 5.4 349.1C4.26667 351.867 3.3 355.583 2.5 360.25C7.8 358.25 10.95 357.083 11.95 356.75C15.0167 355.617 17.3167 354.783 18.85 354.25C21.5833 353.283 23.8833 352.783 25.75 352.75C36.65 352.55 46.5833 353.067 55.55 354.3C65.95 355.7 75.6167 358.15 84.55 361.65C88.75 363.283 91.4333 363.85 92.6 363.35C93.8 362.85 95.1 360.533 96.5 356.4C108 321.767 123.6 274.45 143.3 214.45C143.5 213.85 143.583 213.2 143.55 212.5C143.517 211.767 143.35 211.167 143.05 210.7Z" fill="white"/>
        <path d="M110.15 268.3L112.9 258.55L104.5 256.1C104 262.967 105.883 267.033 110.15 268.3Z" fill="white"/>
        <path d="M159.2 365.55C160.467 365.217 161.4 364.267 162 362.7C166.733 349.667 170.317 339.8 172.75 333.1L161.25 328.55L152.65 349.5C148.65 348.733 142.717 347.567 134.85 346C128.017 344.633 122.15 343.55 117.25 342.75C111.183 341.717 107.467 341.667 106.1 342.6C104.8 343.467 103.35 346.967 101.75 353.1C101.717 353.3 101.75 353.783 101.85 354.55C106.317 354.817 109.683 355.033 111.95 355.2C115.95 355.467 119.3 355.883 122 356.45C126.833 357.483 132.35 358.85 138.55 360.55C140.55 361.083 146.05 362.617 155.05 365.15C156.85 365.65 158.233 365.783 159.2 365.55Z" fill="white"/>
        <path d="M138.75 196.45C142.317 202.65 145.75 207.817 149.05 211.95C160.517 226.283 173.117 244.65 186.85 267.05C187.883 268.75 192.5 276.55 200.7 290.45C206.267 299.95 211.05 307.65 215.05 313.55C225.683 329.35 239.1 337.633 255.3 338.4C264.067 336.6 269.217 335.533 270.75 335.2C273.95 334.467 276.45 333.017 278.25 330.85C279.983 328.75 280.967 326.083 281.2 322.85C281.4 320.117 280.883 316.717 279.65 312.65C278.15 307.55 275.75 302.45 272.45 297.35C269.883 293.35 266.417 288.883 262.05 283.95C240.183 259.05 213.1 232.717 180.8 204.95C175 199.95 168.067 194.417 160 188.35C158 186.817 150.85 181.517 138.55 172.45C137.55 171.717 136.033 171.2 134 170.9C132.867 170.733 131.15 170.5 128.85 170.2C128.95 171.333 128.967 173.067 128.9 175.4C128.9 177.433 129.2 178.983 129.8 180.05C135.7 190.85 138.683 196.317 138.75 196.45Z" fill="white"/>
        <path d="M201.2 297.45C190.333 279.65 182.9 267.583 178.9 261.25C178.633 260.817 178.083 260.467 177.25 260.2C176.483 259.933 175.75 259.817 175.05 259.85C173.15 259.95 168.183 260.267 160.15 260.8C154.05 261.233 149.083 261.483 145.25 261.55C138.283 261.717 134.1 262.333 132.7 263.4C131.2 264.533 129.533 268.433 127.7 275.1C127.633 275.3 127.583 275.883 127.55 276.85C140.15 281.917 152.1 286.083 163.4 289.35C176.167 293.017 188.767 295.717 201.2 297.45Z" fill="white"/>
        <path d="M396.95 291.05C397.683 292.917 397.55 295.317 396.55 298.25C395.55 301.083 393.883 303.367 391.55 305.1C389.683 306.467 387.167 307.6 384 308.5C382.2 309.033 379.967 309.617 377.3 310.25C374.2 311.017 371.8 311.6 370.1 312L378.15 325.85C391.983 319.317 402.8 312.817 410.6 306.35C420.933 297.75 428.533 287.467 433.4 275.5C422.167 276.433 411.9 274.533 402.6 269.8C394.467 265.667 386.733 259.15 379.4 250.25C364.9 262.55 348.833 272.7 331.2 280.7C314.8 288.167 296.767 293.917 277.1 297.95C277.767 299.317 278.717 301.183 279.95 303.55C280.95 305.55 281.683 307.25 282.15 308.65C283.517 312.583 284.383 316.3 284.75 319.8C285.65 328.8 281.833 334.85 273.3 337.95C256.567 343.917 241.417 341.917 227.85 331.95C218.883 325.317 211.867 317.217 206.8 307.65C205.267 304.717 203.617 302.533 201.85 301.1C199.85 299.5 197.267 298.467 194.1 298C183.2 296.367 171.85 293.783 160.05 290.25C149.817 287.183 138.683 283.217 126.65 278.35C126.217 279.717 125.633 281.683 124.9 284.25C124.233 286.483 123.567 288.267 122.9 289.6C120.933 293.533 121.733 296.867 125.3 299.6C128.367 301.967 132.933 305.583 139 310.45C144.367 314.65 149.133 317.917 153.3 320.25C167.233 328.117 183.317 334 201.55 337.9C214.85 340.767 231.833 342.95 252.5 344.45C274.733 346.083 295.133 345.483 313.7 342.65C314.867 342.483 316.017 342.167 317.15 341.7C318.483 341.167 319.183 340.65 319.25 340.15C319.717 336.283 318.35 333.817 315.15 332.75C313.217 332.117 310.75 330.733 307.75 328.6C304.75 326.4 302.45 323.6 300.85 320.2C299.217 316.8 298.683 313.6 299.25 310.6C300.817 315.567 303.083 319.733 306.05 323.1C309.05 326.533 312.883 329.3 317.55 331.4C316.517 326.067 315.75 322.1 315.25 319.5C314.383 314.967 313.783 311.117 313.45 307.95C312.95 303.55 313.267 299 314.4 294.3C315 291.867 316.15 290.017 317.85 288.75C319.65 287.417 321.833 286.867 324.4 287.1C329.033 287.533 335.95 288.317 345.15 289.45C347.75 289.717 349.667 289.7 350.9 289.4C352.533 289 355.333 288.2 359.3 287C362.833 285.967 365.617 285.217 367.65 284.75C372.217 283.75 376.233 283.3 379.7 283.4C384 283.5 387.95 284.4 391.55 286.1C394.383 287.467 396.183 289.117 396.95 291.05ZM405.7 287.5C407.7 288.5 410.683 290 414.65 292C406.817 290.933 399.967 288.117 394.1 283.55C388.267 279.05 384.817 273.933 383.75 268.2C385.15 269.7 387.267 272.117 390.1 275.45C392.733 278.383 395.1 280.667 397.2 282.3C399.333 283.933 402.167 285.667 405.7 287.5ZM156.3 303.5L161 321.55C158.067 319.417 156.317 316.667 155.75 313.3C155.383 311 155.567 307.733 156.3 303.5ZM187.25 324.5C183.983 319.6 183.45 314.183 185.65 308.25C185.917 314.65 186.817 319 188.35 321.3C189.85 323.6 194.133 327.183 201.2 332.05C195.133 331.85 190.483 329.333 187.25 324.5Z" fill="white"/>
        <path d="M282.5 232.1L283.35 230.35C270.95 217.683 261.633 208.2 255.4 201.9C244.467 190.767 235.1 181.333 227.3 173.6C224.833 171.167 221.8 168.6 218.2 165.9C216.4 164.533 213.167 162.217 208.5 158.95C207.767 158.45 206.667 158.133 205.2 158C204.367 157.933 203.1 157.85 201.4 157.75C201.333 158.55 201.15 159.783 200.85 161.45C200.65 162.917 200.7 164.05 201 164.85C203.6 171.717 206.267 177.417 209 181.95C211.467 186.117 214.767 191 218.9 196.6C221.2 199.767 224.717 204.517 229.45 210.85C237.95 222.55 243.767 233.05 246.9 242.35L282.5 232.1Z" fill="white"/>
        <path d="M215.7 199.75C215.633 199.017 215.45 198.417 215.15 197.95C214.317 196.65 210.983 191.733 205.15 183.2C204.517 183.633 204.2 183.883 204.2 183.95C201.2 196.783 199.067 206.183 197.8 212.15C197.667 212.75 197.733 213.45 198 214.25C198.233 215.017 198.567 215.633 199 216.1C200.067 217.2 201.483 218.517 203.25 220.05C204.283 220.917 205.933 222.317 208.2 224.25C211.867 213.15 214.3 205.633 215.5 201.7C215.667 201.133 215.733 200.483 215.7 199.75Z" fill="white"/>
        <path d="M378.65 248.4C373.95 241.867 370.633 235.3 368.7 228.7C366.6 221.567 366.017 214.167 366.95 206.5C342.517 215.733 320.683 223.5 301.45 229.8C277.95 237.467 255.6 243.883 234.4 249.05L237.1 252.15C255.867 273.083 268.35 286.917 274.55 293.65C275.15 294.283 276.067 294.75 277.3 295.05C278.467 295.35 279.533 295.417 280.5 295.25C302.167 290.883 322.017 283.95 340.05 274.45C356.117 265.95 368.983 257.267 378.65 248.4Z" fill="white"/>
        <path d="M348.8 312.8L345.2 292.9C338.2 291.9 332.7 291.167 328.7 290.7C323.967 290.167 320.783 290.817 319.15 292.65C317.75 294.25 316.8 297.85 316.3 303.45C316.233 304.117 316.383 305.267 316.75 306.9L324.1 343.5C324.167 343.767 325.867 351.5 329.2 366.7C323.767 366.667 319.733 366.65 317.1 366.65C312.467 366.65 308.567 366.683 305.4 366.75C303.133 366.783 300.733 367.25 298.2 368.15C297.567 368.35 296.933 368.767 296.3 369.4C295.633 370.033 295.3 370.583 295.3 371.05C295.3 371.717 295.533 372.467 296 373.3C296.467 374.1 297 374.667 297.6 375C300.2 376.367 302.233 376.767 303.7 376.2C307.2 374.767 310.883 374.383 314.75 375.05C317.417 375.55 320.9 376.767 325.2 378.7C326.367 379.233 327.867 379.8 329.7 380.4C330.8 380.767 332.617 381.367 335.15 382.2C336.15 371.4 335.767 359.25 334 345.75C333.433 341.25 331.417 329.45 327.95 310.35L348.8 312.8Z" fill="white"/>
        <path d="M361.65 332.65C357.75 325.983 354.75 320.933 352.65 317.5C352.483 317.2 352.2 316.933 351.8 316.7C351.4 316.5 351.017 316.383 350.65 316.35C342.817 315.783 336.85 315.35 332.75 315.05L337.05 339.15L361.65 332.65Z" fill="white"/>
        <path d="M392.3 299.5C393.433 297.6 393.767 295.567 393.3 293.4C393.1 292.4 392.1 291.35 390.3 290.25C388.1 289.117 386.533 288.267 385.6 287.7C384.767 287.167 383.467 287.033 381.7 287.3C375.933 288.167 371.6 288.833 368.7 289.3C363.7 290.1 359.417 290.883 355.85 291.65C350.817 292.717 348.817 295.917 349.85 301.25C350.417 304.25 351.4 307.05 352.8 309.65C355.167 314.217 358.35 319.85 362.35 326.55C364.483 330.15 371.683 342.217 383.95 362.75C378.317 364.183 374.2 365.317 371.6 366.15C365.867 368.05 361.833 369.583 359.5 370.75C358.6 371.217 357.067 371.933 354.9 372.9C353.333 374.033 352.883 375.65 353.55 377.75C354.083 379.483 355.3 380.433 357.2 380.6C359.067 380.733 361.317 380.1 363.95 378.7C364.483 378.433 364.783 378.267 364.85 378.2C368.25 375.3 372.6 374.1 377.9 374.6L387.8 375.35C390.267 375.583 391.9 375.25 392.7 374.35C393.5 373.45 393.583 371.833 392.95 369.5C392.283 367 391.65 364.933 391.05 363.3C383.35 343.5 374.233 325.333 363.7 308.8C364.2 308.767 364.867 308.717 365.7 308.65C366.367 308.583 366.917 308.5 367.35 308.4C369.55 307.9 372.85 307.133 377.25 306.1C381.083 305.2 384.35 304.333 387.05 303.5C389.383 302.8 391.133 301.467 392.3 299.5Z" fill="white"/>
        <path d="M386.2 214.5C384.233 205.733 383.95 196.1 385.35 185.6C374.25 194.633 369.2 204.5 370.2 215.2C371.333 227.767 375.183 238.583 381.75 247.65C388.317 256.65 397.417 263.7 409.05 268.8C420.617 273.833 432.917 273.55 445.95 267.95C425.95 265.017 410 255.7 398.1 240C392.2 232.267 388.233 223.767 386.2 214.5Z" fill="white"/>
        <path d="M499.15 153.15C493.117 146.983 486.217 142.2 478.45 138.8C470.383 135.3 462.017 133.583 453.35 133.65C434.683 133.783 419.033 140.383 406.4 153.45C394.033 166.217 387.967 181.433 388.2 199.1C388.067 208.2 389.867 216.933 393.6 225.3C397.167 233.333 402.217 240.417 408.75 246.55C415.317 252.683 422.75 257.283 431.05 260.35C439.683 263.583 448.55 264.883 457.65 264.25C473.583 263.183 487.4 256.833 499.1 245.2C511.6 232.8 517.933 217.667 518.1 199.8C518.2 190.967 516.533 182.45 513.1 174.25C509.833 166.35 505.183 159.317 499.15 153.15ZM475.6 163.15C478.967 158.35 483.067 155.917 487.9 155.85C492.7 155.75 497.033 157.95 500.9 162.45C505.733 168.083 507.883 175.3 507.35 184.1C506.85 192.867 503.867 199.783 498.4 204.85C494.933 208.083 491.3 209.65 487.5 209.55C483.7 209.45 480.133 207.717 476.8 204.35C474.2 201.717 472.233 198.4 470.9 194.4C470.167 192.133 469.4 188.533 468.6 183.6C467.9 184.933 466.883 187.083 465.55 190.05C464.283 192.683 463.017 194.767 461.75 196.3C456.483 202.733 450.083 205.5 442.55 204.6C435.05 203.7 429.35 199.533 425.45 192.1C420.383 182.433 420.417 172.9 425.55 163.5C430.683 154.133 437.783 149.833 446.85 150.6C455.95 151.4 462.483 156.817 466.45 166.85C467.083 168.483 467.6 170.483 468 172.85C468.2 174.117 468.45 175.75 468.75 177.75C469.95 174.75 470.917 172.4 471.65 170.7C472.95 167.6 474.267 165.083 475.6 163.15ZM498 227.9V227.85H498.05C498.283 227.417 498.5 227.05 498.7 226.75L499.15 225.9C499.583 225.133 499.75 224.5 499.65 224C499.517 223.267 499.167 222.417 498.6 221.45C497.933 220.35 497.45 219.533 497.15 219C500.55 219.8 502.567 222.033 503.2 225.7C503.867 229.4 502.833 233.083 500.1 236.75C499.967 236.35 500.1 234.7 500.5 231.8C500.5 231.767 500.5 231.733 500.5 231.7C500.5 231.667 500.5 231.633 500.5 231.6C500.5 231.533 500.517 231.483 500.55 231.45L500.3 229.7C500.3 229.667 500.283 229.65 500.25 229.65C500.25 229.617 500.233 229.583 500.2 229.55L499.85 229.05C499.417 228.55 498.8 228.167 498 227.9V227.95C497.967 228.017 497.933 228.117 497.9 228.25C497.767 228.55 497.567 229.05 497.3 229.75C497.033 230.483 496.717 230.983 496.35 231.25C490.65 235.583 485.6 238.783 481.2 240.85C475.367 243.65 469.617 245.1 463.95 245.2C456.683 245.3 450.083 244.167 444.15 241.8C429.017 235.767 417.167 224.433 408.6 207.8C408.4 207.433 408 206.767 407.4 205.8C407.267 205.667 407.15 205.517 407.05 205.35L407.1 205.4C407.069 205.337 407.035 205.287 407 205.25C407.171 205.421 407.438 205.671 407.8 206L407.9 206.05L408 206.15L408.7 206.75C409.5 207.417 410.083 208.033 410.45 208.6C418.25 220.8 427.55 230.05 438.35 236.35C452.483 244.55 467.067 245 482.1 237.7C484.333 236.6 487.017 235.05 490.15 233.05C492.117 231.75 493.8 230.633 495.2 229.7L496.75 228.75C497.183 228.417 497.6 228.133 498 227.9ZM406.75 205H406.85L406.8 205.05L400.4 209.6C400.4 206.167 401.967 203.617 405.1 201.95C408.267 200.217 411.767 200.1 415.6 201.6L406.75 205Z" fill="white"/>
        <path d="M405.6 314.75C403.3 316.683 401.717 318.517 400.85 320.25C399.817 322.283 398.1 325.983 395.7 331.35C393.567 336.05 391.8 339.7 390.4 342.3C389.267 344.467 388.9 346.583 389.3 348.65C389.633 350.317 390.55 352.3 392.05 354.6C391.95 354.567 391.85 354.533 391.75 354.5C392.317 355.967 392.983 357.8 393.75 360C394.383 361.7 394.95 363.067 395.45 364.1C395.683 364.6 396.083 365.083 396.65 365.55C397.217 366.017 397.7 366.233 398.1 366.2C402.8 365.833 407.483 367.133 412.15 370.1C412.883 370.533 413.85 370.917 415.05 371.25C415.717 371.45 416.733 371.717 418.1 372.05L420 370.95C419.6 368.95 419.283 367.45 419.05 366.45C418.65 364.717 418.133 363.7 417.5 363.4C414.2 362 410.1 360.5 405.2 358.9C399.767 357.167 395.483 355.767 392.35 354.7L421.9 302.45C416.967 305.717 411.533 309.817 405.6 314.75Z" fill="white"/>
        <path d="M473.2 6.54998C473.733 6.28331 474.4 5.88331 475.2 5.34998C475.667 5.04998 476.533 4.46664 477.8 3.59998C472.233 3.16664 463.833 7.36664 452.6 16.2C441.367 25.0333 433.017 34.0166 427.55 43.15C419.117 57.2833 414.917 72.55 414.95 88.95C414.95 102.883 418.083 118.4 424.35 135.5L426.35 135.55C426.417 134.783 426.45 134.2 426.45 133.8C426.483 133.1 426.433 132.55 426.3 132.15C420.5 117.017 417.833 100.917 418.3 83.85C418.733 69.6833 422.583 56.6 429.85 44.6C434.717 36.5 441.067 29.1666 448.9 22.6C455.533 17 463.633 11.65 473.2 6.54998Z" fill="white"/>
        <path d="M467.45 177.25C466.517 173.983 465.8 171.55 465.3 169.95C464.433 167.05 463.517 164.717 462.55 162.95C459.55 157.583 455.267 154.217 449.7 152.85C444.2 151.483 439.133 152.467 434.5 155.8C427.967 160.533 424.383 167.167 423.75 175.7C423.083 184.267 425.617 191.4 431.35 197.1C434.35 200.133 437.717 202.017 441.45 202.75C445.25 203.483 449.017 202.933 452.75 201.1C457.383 198.867 460.917 195.65 463.35 191.45C465.483 187.717 466.85 182.983 467.45 177.25ZM446.9 167.8C449.4 167.867 451.6 168.9 453.5 170.9C455.433 172.867 456.383 175.083 456.35 177.55C456.35 180.15 455.333 182.45 453.3 184.45C451.233 186.417 448.917 187.367 446.35 187.3C443.85 187.2 441.667 186.183 439.8 184.25C437.933 182.283 436.983 180.033 436.95 177.5C436.917 174.933 437.933 172.65 440 170.65C442.033 168.65 444.333 167.7 446.9 167.8Z" fill="white"/>
        <path d="M428.05 294.4L449.3 309.25C442.333 321.85 437.15 331.833 433.75 339.2C428.517 350.533 424.683 361.3 422.25 371.5C423.883 371.5 426.167 371.533 429.1 371.6C431.6 371.667 433.667 371.6 435.3 371.4C438.333 371.067 441.067 371.133 443.5 371.6C446.233 372.133 448.75 373.167 451.05 374.7C452.983 376 455 376.65 457.1 376.65C457.833 376.65 458.65 376.383 459.55 375.85C460.45 375.317 461.017 374.75 461.25 374.15C461.45 373.617 461.35 372.883 460.95 371.95C460.55 371.05 460.05 370.333 459.45 369.8C458.083 368.5 456.2 367.467 453.8 366.7C444.2 363.733 436.883 361.467 431.85 359.9C437.85 349.5 441.583 342.983 443.05 340.35C447.183 332.983 450.267 327.467 452.3 323.8C455.833 317.4 458.817 311.833 461.25 307.1C462.717 304.233 463.533 301.767 463.7 299.7C463.9 296.833 462.917 294.55 460.75 292.85C457.95 290.617 454.467 288.217 450.3 285.65C445.467 282.783 441.833 280.617 439.4 279.15C439 278.917 438.317 278.933 437.35 279.2C436.383 279.467 435.767 279.817 435.5 280.25C434.433 282.083 433.2 284.35 431.8 287.05C431 288.617 429.75 291.067 428.05 294.4Z" fill="white"/>
        <path d="M573.2 64.85C569.933 60.9166 560.583 58.5166 545.15 57.65C529.35 56.7833 516.817 58.2 507.55 61.9C492.55 67.8666 480.017 76.9833 469.95 89.25C461.117 100.017 453.85 113.667 448.15 130.2C449.683 129.467 450.833 128.367 451.6 126.9C451.667 126.767 454.083 121.933 458.85 112.4C461.75 106.6 464.367 101.9 466.7 98.3C476.433 83.3333 489.433 72.5333 505.7 65.9C521.867 59.3 538.783 57.8166 556.45 61.45L573.2 64.85Z" fill="white"/>
        <path d="M503.75 171.15C502.517 167.65 500.8 164.767 498.6 162.5C495.4 159.167 491.783 157.6 487.75 157.8C483.717 157.967 480.25 159.833 477.35 163.4C473.05 168.767 470.867 175.133 470.8 182.5C470.733 189.867 472.817 196.317 477.05 201.85C479.817 205.45 483.15 207.367 487.05 207.6C490.95 207.833 494.5 206.333 497.7 203.1C502.7 198 505.317 191.033 505.55 182.2C505.583 178.333 504.983 174.65 503.75 171.15ZM478.85 175.9C480.85 174.033 483.2 173.167 485.9 173.3C488.5 173.4 490.717 174.417 492.55 176.35C494.35 178.25 495.217 180.483 495.15 183.05C495.083 185.683 494.033 187.967 492 189.9C489.967 191.833 487.667 192.717 485.1 192.55C482.6 192.417 480.4 191.35 478.5 189.35C476.633 187.35 475.733 185.133 475.8 182.7C475.867 180.033 476.883 177.767 478.85 175.9Z" fill="white"/>
        <path d="M574.9 60.4C574.167 59.9 572.817 59.3833 570.85 58.85C558.317 55.5833 545.833 54.1667 533.4 54.6C511.833 55.3667 493.183 62.9667 477.45 77.4C463.917 89.8 453.267 106.267 445.5 126.8C444.667 128.933 443.767 130.167 442.8 130.5C441.133 131.067 438.983 131.667 436.35 132.3C433.25 133 430.833 133.567 429.1 134C427.433 127.567 426.183 122.783 425.35 119.65C423.917 114.05 422.867 109.367 422.2 105.6C417.633 79.3667 422.983 56.6334 438.25 37.4C446.683 26.8 458.517 17.5 473.75 9.50002C476.05 8.26668 477.467 7.36668 478 6.80002C479.233 5.53335 479.367 4.01668 478.4 2.25002C477.433 0.416683 476.067 -0.299984 474.3 0.100016C473.467 0.300016 471.983 1.06668 469.85 2.40002C464.817 5.40002 461.05 7.68335 458.55 9.25002C454.25 11.9167 450.617 14.3834 447.65 16.65C429.983 30.2833 418.917 47.7 414.45 68.9C412.217 79.5 411.717 90.35 412.95 101.45C414.083 111.55 416.667 122.067 420.7 133C421.333 134.733 421.483 136.05 421.15 136.95C420.817 137.883 419.883 138.783 418.35 139.65C405.017 147.217 395.5 158.167 389.8 172.5C387.867 177.233 385.083 181.2 381.45 184.4C379.75 185.933 377.8 188.167 375.6 191.1C372.6 195.167 370.8 197.55 370.2 198.25C368.933 199.717 368.017 200.733 367.45 201.3C366.317 202.4 365.233 203.133 364.2 203.5C347.967 209.4 323.55 218.083 290.95 229.55C289.517 230.083 288.3 230.2 287.3 229.9C286.3 229.633 285.267 228.917 284.2 227.75C276 218.683 269.833 211.9 265.7 207.4C258.567 199.633 252.25 193.017 246.75 187.55C241.883 182.75 236.2 177.517 229.7 171.85C226 168.617 220.117 163.617 212.05 156.85C209.883 155.083 207.767 153.967 205.7 153.5C203.133 152.933 200.817 153.5 198.75 155.2C196.883 156.733 196 158.783 196.1 161.35C196.2 163.35 196.85 165.467 198.05 167.7C199.783 171 200.717 174.517 200.85 178.25C200.95 181.283 200.5 184.817 199.5 188.85C198.267 193.717 196.45 201.283 194.05 211.55L188.4 206.75C179.067 199.217 172.067 193.583 167.4 189.85C159.133 183.217 152.083 177.65 146.25 173.15C142.617 170.317 138.217 168.067 133.05 166.4C130.383 165.5 128.217 165.733 126.55 167.1C124.917 168.5 124.267 170.583 124.6 173.35C124.8 175.05 125.317 177.2 126.15 179.8C127.317 183.4 127.983 185.533 128.15 186.2C128.85 188.867 129.067 190.883 128.8 192.25C126.533 203.85 124.467 213.6 122.6 221.5C121.7 225.333 118.85 236.567 114.05 255.2L100.75 250.85C100.217 253.517 100.367 257.1 101.2 261.6C101.933 265.767 103.183 270.3 104.95 275.2C105.45 276.467 105.733 277.867 105.8 279.4C105.867 280.933 105.7 282.317 105.3 283.55C103.2 289.85 100.55 297.467 97.35 306.4C95.55 311.467 92.8333 319.05 89.2 329.15C88.1333 332.05 87.25 333.933 86.55 334.8C85.1833 336.467 83.1833 337.15 80.55 336.85C80.05 336.817 79.35 337.117 78.45 337.75C77.3833 338.517 76.6333 338.967 76.2 339.1C74.7 339.567 73.6167 339.867 72.95 340C71.7167 340.267 70.6333 340.35 69.7 340.25C60.2667 338.95 46.1667 336.883 27.4 334.05C20.6 333.083 15.2 333.8 11.2 336.2C7.2 338.567 3.96667 342.983 1.5 349.45C1.03333 350.55 0.8 351.167 0.8 351.3L0 362.25C2.43333 362.083 4.26667 361.967 5.5 361.9C7.66667 361.733 9.43333 361.417 10.8 360.95C15.8 359.183 19.3167 358.033 21.35 357.5C25.3167 356.433 29.0167 355.95 32.45 356.05C42.3167 356.317 51.4 357.183 59.7 358.65C69.0667 360.283 77.8333 362.733 86 366C89.4333 367.367 91.9833 367.7 93.65 367C95.25 366.333 96.95 364.35 98.75 361.05C99.1167 360.383 99.8333 359.8 100.9 359.3C101.933 358.8 102.867 358.567 103.7 358.6C122.033 359.033 138.233 362.183 152.3 368.05C156.233 369.683 159.183 370.067 161.15 369.2C163.083 368.3 164.817 365.817 166.35 361.75C168.25 356.883 169.65 353.233 170.55 350.8C172.15 346.533 173.3 342.817 174 339.65C174.567 337.083 175.5 335.6 176.8 335.2C177.667 334.933 179.25 335.183 181.55 335.95C199.95 342.117 220.267 345.85 242.5 347.15C251.067 347.65 261.283 347.867 273.15 347.8C279.983 347.733 290.217 347.583 303.85 347.35C306.117 347.317 308.917 347.1 312.25 346.7C314.117 346.467 316.967 346.1 320.8 345.6L324.55 362.95C324.417 362.95 322.817 362.933 319.75 362.9C317.917 362.867 316.417 362.883 315.25 362.95C307.25 363.483 301.3 364 297.4 364.5C295.5 364.767 294 365.55 292.9 366.85C291.767 368.183 291.367 369.717 291.7 371.45C291.967 372.783 292.6 374.133 293.6 375.5C294.6 376.833 295.7 377.817 296.9 378.45C298.133 379.117 299.617 379.517 301.35 379.65C303.017 379.75 304.567 379.6 306 379.2C310.8 377.867 315.967 378.45 321.5 380.95C325.567 382.783 329.117 384.133 332.15 385C334.05 385.567 335.583 385.433 336.75 384.6C337.95 383.767 338.633 382.383 338.8 380.45C339.333 374.617 339.517 369.633 339.35 365.5C339.217 362.367 338.95 358.567 338.55 354.1C338.117 349 337.783 345.15 337.55 342.55L350.4 339.45C351.833 339.083 354.083 338.283 357.15 337.05C359.783 336.15 361.733 335.967 363 336.5C364.467 337.167 365.9 338.733 367.3 341.2C368.1 342.6 369.267 344.75 370.8 347.65C372.033 349.617 374.567 353.833 378.4 360.3C376.2 360.933 374.717 361.4 373.95 361.7C369.317 363.5 365.833 364.85 363.5 365.75C359.367 367.35 355.967 368.833 353.3 370.2C350.533 371.667 349.25 373.85 349.45 376.75C349.617 379.617 351.133 381.833 354 383.4C356 384.533 358.167 384.767 360.5 384.1C361.867 383.733 363.9 382.883 366.6 381.55C370.5 379.983 374.55 378.9 378.75 378.3C379.95 378.133 381.433 378.15 383.2 378.35C384.2 378.45 385.7 378.617 387.7 378.85C390.7 379.083 392.867 378.717 394.2 377.75C395.467 376.817 396.533 374.867 397.4 371.9C397.533 371.433 397.883 370.967 398.45 370.5C399.017 370 399.517 369.767 399.95 369.8C403.217 369.933 405.467 370.417 406.7 371.25C410.567 373.85 415.167 375.3 420.5 375.6C422.6 375.7 427.4 375.483 434.9 374.95C437.867 374.717 440.233 374.717 442 374.95C444.5 375.317 446.733 376.183 448.7 377.55C450.733 378.95 453.2 379.85 456.1 380.25C460.6 380.85 463.55 379.3 464.95 375.6C466.317 371.933 465.217 368.95 461.65 366.65C459.55 365.317 457.483 364.267 455.45 363.5C454.417 363.133 448.417 361.15 437.45 357.55C442.217 349.383 445.683 343.317 447.85 339.35C451.85 332.183 454.833 326.8 456.8 323.2C460.267 316.867 463.083 311.4 465.25 306.8C467.183 302.667 467.717 299.083 466.85 296.05C466.05 293.083 463.817 290.267 460.15 287.6C457.517 285.7 454.2 283.467 450.2 280.9C445.733 278.1 442.417 275.983 440.25 274.55C447.017 271.75 452.067 269.683 455.4 268.35C455.833 268.183 456.383 268.05 457.05 267.95C457.417 267.883 457.983 267.8 458.75 267.7C460.75 267.3 463.767 266.75 467.8 266.05C471.4 265.383 474.367 264.633 476.7 263.8C491.4 258.533 502.933 249.217 511.3 235.85C519.667 222.517 523.1 208 521.6 192.3C520.167 177.333 514.167 164.133 503.6 152.7C493.033 141.267 480.283 134.183 465.35 131.45C464.85 131.35 460.4 130.75 452 129.65C456.267 121.983 459.417 116.333 461.45 112.7C465.083 106.2 468.317 100.967 471.15 97C479.283 85.6 488.85 77.0334 499.85 71.3C511.083 65.4334 523.617 62.6167 537.45 62.85C541.817 62.95 547.067 63.45 553.2 64.35C556.7 64.8833 561.933 65.7167 568.9 66.85C571.233 67.1833 572.733 67.2834 573.4 67.15C574.9 66.8834 575.833 65.8667 576.2 64.1C576.533 62.5 576.1 61.2667 574.9 60.4ZM556.45 61.45C538.783 57.8167 521.867 59.3 505.7 65.9C489.433 72.5333 476.433 83.3334 466.7 98.3C464.367 101.9 461.75 106.6 458.85 112.4C454.083 121.933 451.667 126.767 451.6 126.9C450.833 128.367 449.683 129.467 448.15 130.2C453.85 113.667 461.117 100.017 469.95 89.25C480.017 76.9833 492.55 67.8667 507.55 61.9C516.817 58.2 529.35 56.7834 545.15 57.65C560.583 58.5167 569.933 60.9167 573.2 64.85L556.45 61.45ZM499.15 153.15C505.183 159.317 509.833 166.35 513.1 174.25C516.533 182.45 518.2 190.967 518.1 199.8C517.933 217.667 511.6 232.8 499.1 245.2C487.4 256.833 473.583 263.183 457.65 264.25C448.55 264.883 439.683 263.583 431.05 260.35C422.75 257.283 415.317 252.683 408.75 246.55C402.217 240.417 397.167 233.333 393.6 225.3C389.867 216.933 388.067 208.2 388.2 199.1C387.967 181.433 394.033 166.217 406.4 153.45C419.033 140.383 434.683 133.783 453.35 133.65C462.017 133.583 470.383 135.3 478.45 138.8C486.217 142.2 493.117 146.983 499.15 153.15ZM475.2 5.35002C474.4 5.88335 473.733 6.28335 473.2 6.55002C463.633 11.65 455.533 17 448.9 22.6C441.067 29.1667 434.717 36.5 429.85 44.6C422.583 56.6 418.733 69.6833 418.3 83.85C417.833 100.917 420.5 117.017 426.3 132.15C426.433 132.55 426.483 133.1 426.45 133.8C426.45 134.2 426.417 134.783 426.35 135.55L424.35 135.5C418.083 118.4 414.95 102.883 414.95 88.95C414.917 72.55 419.117 57.2833 427.55 43.15C433.017 34.0167 441.367 25.0334 452.6 16.2C463.833 7.36668 472.233 3.16668 477.8 3.60002C476.533 4.46668 475.667 5.05002 475.2 5.35002ZM428.05 294.4C429.75 291.067 431 288.617 431.8 287.05C433.2 284.35 434.433 282.083 435.5 280.25C435.767 279.817 436.383 279.467 437.35 279.2C438.317 278.933 439 278.917 439.4 279.15C441.833 280.617 445.467 282.783 450.3 285.65C454.467 288.217 457.95 290.617 460.75 292.85C462.917 294.55 463.9 296.833 463.7 299.7C463.533 301.767 462.717 304.233 461.25 307.1C458.817 311.833 455.833 317.4 452.3 323.8C450.267 327.467 447.183 332.983 443.05 340.35C441.583 342.983 437.85 349.5 431.85 359.9C436.883 361.467 444.2 363.733 453.8 366.7C456.2 367.467 458.083 368.5 459.45 369.8C460.05 370.333 460.55 371.05 460.95 371.95C461.35 372.883 461.45 373.617 461.25 374.15C461.017 374.75 460.45 375.317 459.55 375.85C458.65 376.383 457.833 376.65 457.1 376.65C455 376.65 452.983 376 451.05 374.7C448.75 373.167 446.233 372.133 443.5 371.6C441.067 371.133 438.333 371.067 435.3 371.4C433.667 371.6 431.6 371.667 429.1 371.6C426.167 371.533 423.883 371.5 422.25 371.5C424.683 361.3 428.517 350.533 433.75 339.2C437.15 331.833 442.333 321.85 449.3 309.25L428.05 294.4ZM445.95 267.95C432.917 273.55 420.617 273.833 409.05 268.8C397.417 263.7 388.317 256.65 381.75 247.65C375.183 238.583 371.333 227.767 370.2 215.2C369.2 204.5 374.25 194.633 385.35 185.6C383.95 196.1 384.233 205.733 386.2 214.5C388.233 223.767 392.2 232.267 398.1 240C410 255.7 425.95 265.017 445.95 267.95ZM366.95 206.5C366.017 214.167 366.6 221.567 368.7 228.7C370.633 235.3 373.95 241.867 378.65 248.4C368.983 257.267 356.117 265.95 340.05 274.45C322.017 283.95 302.167 290.883 280.5 295.25C279.533 295.417 278.467 295.35 277.3 295.05C276.067 294.75 275.15 294.283 274.55 293.65C268.35 286.917 255.867 273.083 237.1 252.15L234.4 249.05C255.6 243.883 277.95 237.467 301.45 229.8C320.683 223.5 342.517 215.733 366.95 206.5ZM328.7 290.7C332.7 291.167 338.2 291.9 345.2 292.9L348.8 312.8L327.95 310.35C331.417 329.45 333.433 341.25 334 345.75C335.767 359.25 336.15 371.4 335.15 382.2C332.617 381.367 330.8 380.767 329.7 380.4C327.867 379.8 326.367 379.233 325.2 378.7C320.9 376.767 317.417 375.55 314.75 375.05C310.883 374.383 307.2 374.767 303.7 376.2C302.233 376.767 300.2 376.367 297.6 375C297 374.667 296.467 374.1 296 373.3C295.533 372.467 295.3 371.717 295.3 371.05C295.3 370.583 295.633 370.033 296.3 369.4C296.933 368.767 297.567 368.35 298.2 368.15C300.733 367.25 303.133 366.783 305.4 366.75C308.567 366.683 312.467 366.65 317.1 366.65C319.733 366.65 323.767 366.667 329.2 366.7C325.867 351.5 324.167 343.767 324.1 343.5L316.75 306.9C316.383 305.267 316.233 304.117 316.3 303.45C316.8 297.85 317.75 294.25 319.15 292.65C320.783 290.817 323.967 290.167 328.7 290.7ZM359.3 287C355.333 288.2 352.533 289 350.9 289.4C349.667 289.7 347.75 289.717 345.15 289.45C335.95 288.317 329.033 287.533 324.4 287.1C321.833 286.867 319.65 287.417 317.85 288.75C316.15 290.017 315 291.867 314.4 294.3C313.267 299 312.95 303.55 313.45 307.95C313.783 311.117 314.383 314.967 315.25 319.5C315.75 322.1 316.517 326.067 317.55 331.4C312.883 329.3 309.05 326.533 306.05 323.1C303.083 319.733 300.817 315.567 299.25 310.6C298.683 313.6 299.217 316.8 300.85 320.2C302.45 323.6 304.75 326.4 307.75 328.6C310.75 330.733 313.217 332.117 315.15 332.75C318.35 333.817 319.717 336.283 319.25 340.15C319.183 340.65 318.483 341.167 317.15 341.7C316.017 342.167 314.867 342.483 313.7 342.65C295.133 345.483 274.733 346.083 252.5 344.45C231.833 342.95 214.85 340.767 201.55 337.9C183.317 334 167.233 328.117 153.3 320.25C149.133 317.917 144.367 314.65 139 310.45C132.933 305.583 128.367 301.967 125.3 299.6C121.733 296.867 120.933 293.533 122.9 289.6C123.567 288.267 124.233 286.483 124.9 284.25C125.633 281.683 126.217 279.717 126.65 278.35C138.683 283.217 149.817 287.183 160.05 290.25C171.85 293.783 183.2 296.367 194.1 298C197.267 298.467 199.85 299.5 201.85 301.1C203.617 302.533 205.267 304.717 206.8 307.65C211.867 317.217 218.883 325.317 227.85 331.95C241.417 341.917 256.567 343.917 273.3 337.95C281.833 334.85 285.65 328.8 284.75 319.8C284.383 316.3 283.517 312.583 282.15 308.65C281.683 307.25 280.95 305.55 279.95 303.55C278.717 301.183 277.767 299.317 277.1 297.95C296.767 293.917 314.8 288.167 331.2 280.7C348.833 272.7 364.9 262.55 379.4 250.25C386.733 259.15 394.467 265.667 402.6 269.8C411.9 274.533 422.167 276.433 433.4 275.5C428.533 287.467 420.933 297.75 410.6 306.35C402.8 312.817 391.983 319.317 378.15 325.85L370.1 312C371.8 311.6 374.2 311.017 377.3 310.25C379.967 309.617 382.2 309.033 384 308.5C387.167 307.6 389.683 306.467 391.55 305.1C393.883 303.367 395.55 301.083 396.55 298.25C397.55 295.317 397.683 292.917 396.95 291.05C396.183 289.117 394.383 287.467 391.55 286.1C387.95 284.4 384 283.5 379.7 283.4C376.233 283.3 372.217 283.75 367.65 284.75C365.617 285.217 362.833 285.967 359.3 287ZM368.7 289.3C371.6 288.833 375.933 288.167 381.7 287.3C383.467 287.033 384.767 287.167 385.6 287.7C386.533 288.267 388.1 289.117 390.3 290.25C392.1 291.35 393.1 292.4 393.3 293.4C393.767 295.567 393.433 297.6 392.3 299.5C391.133 301.467 389.383 302.8 387.05 303.5C384.35 304.333 381.083 305.2 377.25 306.1C372.85 307.133 369.55 307.9 367.35 308.4C366.917 308.5 366.367 308.583 365.7 308.65C364.867 308.717 364.2 308.767 363.7 308.8C374.233 325.333 383.35 343.5 391.05 363.3C391.65 364.933 392.283 367 392.95 369.5C393.583 371.833 393.5 373.45 392.7 374.35C391.9 375.25 390.267 375.583 387.8 375.35L377.9 374.6C372.6 374.1 368.25 375.3 364.85 378.2C364.783 378.267 364.483 378.433 363.95 378.7C361.317 380.1 359.067 380.733 357.2 380.6C355.3 380.433 354.083 379.483 353.55 377.75C352.883 375.65 353.333 374.033 354.9 372.9C357.067 371.933 358.6 371.217 359.5 370.75C361.833 369.583 365.867 368.05 371.6 366.15C374.2 365.317 378.317 364.183 383.95 362.75C371.683 342.217 364.483 330.15 362.35 326.55C358.35 319.85 355.167 314.217 352.8 309.65C351.4 307.05 350.417 304.25 349.85 301.25C348.817 295.917 350.817 292.717 355.85 291.65C359.417 290.883 363.7 290.1 368.7 289.3ZM390.4 342.3C391.8 339.7 393.567 336.05 395.7 331.35C398.1 325.983 399.817 322.283 400.85 320.25C401.717 318.517 403.3 316.683 405.6 314.75C411.533 309.817 416.967 305.717 421.9 302.45L392.35 354.7C395.483 355.767 399.767 357.167 405.2 358.9C410.1 360.5 414.2 362 417.5 363.4C418.133 363.7 418.65 364.717 419.05 366.45C419.283 367.45 419.6 368.95 420 370.95L418.1 372.05C416.733 371.717 415.717 371.45 415.05 371.25C413.85 370.917 412.883 370.533 412.15 370.1C407.483 367.133 402.8 365.833 398.1 366.2C397.7 366.233 397.217 366.017 396.65 365.55C396.083 365.083 395.683 364.6 395.45 364.1C394.95 363.067 394.383 361.7 393.75 360C392.983 357.8 392.317 355.967 391.75 354.5C391.85 354.533 391.95 354.567 392.05 354.6C390.55 352.3 389.633 350.317 389.3 348.65C388.9 346.583 389.267 344.467 390.4 342.3ZM396.45 320.65L386.25 342.4L379.6 329.45L396.45 320.65ZM350.65 316.35C351.017 316.383 351.4 316.5 351.8 316.7C352.2 316.933 352.483 317.2 352.65 317.5C354.75 320.933 357.75 325.983 361.65 332.65L337.05 339.15L332.75 315.05C336.85 315.35 342.817 315.783 350.65 316.35ZM427.85 298.8L443.85 309.8L420.5 359.9L398.05 352.55L427.85 298.8ZM201 164.85C200.7 164.05 200.65 162.917 200.85 161.45C201.15 159.783 201.333 158.55 201.4 157.75C203.1 157.85 204.367 157.933 205.2 158C206.667 158.133 207.767 158.45 208.5 158.95C213.167 162.217 216.4 164.533 218.2 165.9C221.8 168.6 224.833 171.167 227.3 173.6C235.1 181.333 244.467 190.767 255.4 201.9C261.633 208.2 270.95 217.683 283.35 230.35L282.5 232.1L246.9 242.35C243.767 233.05 237.95 222.55 229.45 210.85C224.717 204.517 221.2 199.767 218.9 196.6C214.767 191 211.467 186.117 209 181.95C206.267 177.417 203.6 171.717 201 164.85ZM204.2 183.95C204.2 183.883 204.517 183.633 205.15 183.2C210.983 191.733 214.317 196.65 215.15 197.95C215.45 198.417 215.633 199.017 215.7 199.75C215.733 200.483 215.667 201.133 215.5 201.7C214.3 205.633 211.867 213.15 208.2 224.25C205.933 222.317 204.283 220.917 203.25 220.05C201.483 218.517 200.067 217.2 199 216.1C198.567 215.633 198.233 215.017 198 214.25C197.733 213.45 197.667 212.75 197.8 212.15C199.067 206.183 201.2 196.783 204.2 183.95ZM134 170.9C136.033 171.2 137.55 171.717 138.55 172.45C150.85 181.517 158 186.817 160 188.35C168.067 194.417 175 199.95 180.8 204.95C213.1 232.717 240.183 259.05 262.05 283.95C266.417 288.883 269.883 293.35 272.45 297.35C275.75 302.45 278.15 307.55 279.65 312.65C280.883 316.717 281.4 320.117 281.2 322.85C280.967 326.083 279.983 328.75 278.25 330.85C276.45 333.017 273.95 334.467 270.75 335.2C269.217 335.533 264.067 336.6 255.3 338.4C239.1 337.633 225.683 329.35 215.05 313.55C211.05 307.65 206.267 299.95 200.7 290.45C192.5 276.55 187.883 268.75 186.85 267.05C173.117 244.65 160.517 226.283 149.05 211.95C145.75 207.817 142.317 202.65 138.75 196.45C138.683 196.317 135.7 190.85 129.8 180.05C129.2 178.983 128.9 177.433 128.9 175.4C128.967 173.067 128.95 171.333 128.85 170.2C131.15 170.5 132.867 170.733 134 170.9ZM143.05 210.7C143.35 211.167 143.517 211.767 143.55 212.5C143.583 213.2 143.5 213.85 143.3 214.45C123.6 274.45 108 321.767 96.5 356.4C95.1 360.533 93.8 362.85 92.6 363.35C91.4333 363.85 88.75 363.283 84.55 361.65C75.6167 358.15 65.95 355.7 55.55 354.3C46.5833 353.067 36.65 352.55 25.75 352.75C23.8833 352.783 21.5833 353.283 18.85 354.25C17.3167 354.783 15.0167 355.617 11.95 356.75C10.95 357.083 7.8 358.25 2.5 360.25C3.3 355.583 4.26667 351.867 5.4 349.1C6.83333 345.6 8.83333 342.75 11.4 340.55C12.3667 339.75 13.55 339.083 14.95 338.55C16.3167 338.05 17.65 337.767 18.95 337.7C27.2167 337.5 36.5667 338.217 47 339.85C51.1667 340.517 60.3667 342.283 74.6 345.15L85.35 347.45C105.283 301.25 120.917 250.333 132.25 194.7C138.55 203.967 142.15 209.3 143.05 210.7ZM110.15 268.3C105.883 267.033 104 262.967 104.5 256.1L112.9 258.55L110.15 268.3ZM127.55 276.85C127.583 275.883 127.633 275.3 127.7 275.1C129.533 268.433 131.2 264.533 132.7 263.4C134.1 262.333 138.283 261.717 145.25 261.55C149.083 261.483 154.05 261.233 160.15 260.8C168.183 260.267 173.15 259.95 175.05 259.85C175.75 259.817 176.483 259.933 177.25 260.2C178.083 260.467 178.633 260.817 178.9 261.25C182.9 267.583 190.333 279.65 201.2 297.45C188.767 295.717 176.167 293.017 163.4 289.35C152.1 286.083 140.15 281.917 127.55 276.85ZM133.05 258.45L147.15 214.65L175.8 254.8L174.55 256.9L133.05 258.45ZM157.4 328.2L150.35 345.35L107.15 337.2L119.25 300.75L157.4 328.2ZM106.1 342.6C107.467 341.667 111.183 341.717 117.25 342.75C122.15 343.55 128.017 344.633 134.85 346C142.717 347.567 148.65 348.733 152.65 349.5L161.25 328.55L172.75 333.1C170.317 339.8 166.733 349.667 162 362.7C161.4 364.267 160.467 365.217 159.2 365.55C158.233 365.783 156.85 365.65 155.05 365.15C146.05 362.617 140.55 361.083 138.55 360.55C132.35 358.85 126.833 357.483 122 356.45C119.3 355.883 115.95 355.467 111.95 355.2C109.683 355.033 106.317 354.817 101.85 354.55C101.75 353.783 101.717 353.3 101.75 353.1C103.35 346.967 104.8 343.467 106.1 342.6ZM215.35 214.25C216.983 209.55 218.217 205.95 219.05 203.45C223.95 208.383 228.583 214.617 232.95 222.15C234.45 224.717 238.067 231.65 243.8 242.95C241.367 243.65 239.617 244.15 238.55 244.45C236.717 244.983 235.167 245.317 233.9 245.45C233.033 245.517 232.117 245.4 231.15 245.1C230.15 244.767 229.333 244.333 228.7 243.8C224.267 239.933 219.233 235.117 213.6 229.35C213.067 228.817 212.633 228.083 212.3 227.15C211.933 226.183 211.85 225.383 212.05 224.75C212.883 221.85 213.983 218.35 215.35 214.25ZM188.35 321.3C186.817 319 185.917 314.65 185.65 308.25C183.45 314.183 183.983 319.6 187.25 324.5C190.483 329.333 195.133 331.85 201.2 332.05C194.133 327.183 189.85 323.6 188.35 321.3ZM155.75 313.3C156.317 316.667 158.067 319.417 161 321.55L156.3 303.5C155.567 307.733 155.383 311 155.75 313.3ZM414.65 292C410.683 290 407.7 288.5 405.7 287.5C402.167 285.667 399.333 283.933 397.2 282.3C395.1 280.667 392.733 278.383 390.1 275.45C387.267 272.117 385.15 269.7 383.75 268.2C384.817 273.933 388.267 279.05 394.1 283.55C399.967 288.117 406.817 290.933 414.65 292ZM498 227.9L498.05 227.85H498V227.9ZM497.15 219C497.45 219.533 497.933 220.35 498.6 221.45C499.167 222.417 499.517 223.267 499.65 224C499.75 224.5 499.583 225.133 499.15 225.9L498.7 226.75C498.5 227.05 498.283 227.417 498.05 227.85C498.824 228.132 499.424 228.515 499.85 229L500.2 229.55C500.221 229.575 500.237 229.592 500.25 229.6C500.271 229.641 500.287 229.674 500.3 229.7L500.55 231.45C500.517 231.483 500.5 231.533 500.5 231.6C500.5 231.633 500.5 231.667 500.5 231.7C500.5 231.733 500.5 231.767 500.5 231.8C500.1 234.7 499.967 236.35 500.1 236.75C502.833 233.083 503.867 229.4 503.2 225.7C502.567 222.033 500.55 219.8 497.15 219ZM406.85 205H406.7L415.6 201.6C411.767 200.1 408.267 200.217 405.1 201.95C401.967 203.617 400.4 206.167 400.4 209.6L406.8 205.05L406.85 205ZM463.95 245.2C469.617 245.1 475.367 243.65 481.2 240.85C485.6 238.783 490.65 235.583 496.35 231.25C496.717 230.983 497.033 230.483 497.3 229.75C497.567 229.05 497.767 228.55 497.9 228.25C497.933 228.117 497.967 228.017 498 227.95C497.6 228.183 497.183 228.45 496.75 228.75L495.2 229.7C493.8 230.633 492.117 231.75 490.15 233.05C487.017 235.05 484.333 236.6 482.1 237.7C467.067 245 452.483 244.55 438.35 236.35C427.55 230.05 418.25 220.8 410.45 208.6C410.083 208.033 409.5 207.417 408.7 206.75L408 206.15L407.9 206.05L407.1 205.4L407.05 205.35C407.15 205.517 407.267 205.667 407.4 205.8C408 206.767 408.4 207.433 408.6 207.8C417.167 224.433 429.017 235.767 444.15 241.8C450.083 244.167 456.683 245.3 463.95 245.2ZM500.9 162.45C497.033 157.95 492.7 155.75 487.9 155.85C483.067 155.917 478.967 158.35 475.6 163.15C474.267 165.083 472.95 167.6 471.65 170.7C470.917 172.4 469.95 174.75 468.75 177.75C468.45 175.75 468.2 174.117 468 172.85C467.6 170.483 467.083 168.483 466.45 166.85C462.483 156.817 455.95 151.4 446.85 150.6C437.783 149.833 430.683 154.133 425.55 163.5C420.417 172.9 420.383 182.433 425.45 192.1C429.35 199.533 435.05 203.7 442.55 204.6C450.083 205.5 456.483 202.733 461.75 196.3C463.017 194.767 464.283 192.683 465.55 190.05C466.883 187.083 467.9 184.933 468.6 183.6C469.4 188.533 470.167 192.133 470.9 194.4C472.233 198.4 474.2 201.717 476.8 204.35C480.133 207.717 483.7 209.45 487.5 209.55C491.3 209.65 494.933 208.083 498.4 204.85C503.867 199.783 506.85 192.867 507.35 184.1C507.883 175.3 505.733 168.083 500.9 162.45ZM498.6 162.5C500.8 164.767 502.517 167.65 503.75 171.15C504.983 174.65 505.583 178.333 505.55 182.2C505.317 191.033 502.7 198 497.7 203.1C494.5 206.333 490.95 207.833 487.05 207.6C483.15 207.367 479.817 205.45 477.05 201.85C472.817 196.317 470.733 189.867 470.8 182.5C470.867 175.133 473.05 168.767 477.35 163.4C480.25 159.833 483.717 157.967 487.75 157.8C491.783 157.6 495.4 159.167 498.6 162.5ZM431.35 197.1C425.617 191.4 423.083 184.267 423.75 175.7C424.383 167.167 427.967 160.533 434.5 155.8C439.133 152.467 444.2 151.483 449.7 152.85C455.267 154.217 459.55 157.583 462.55 162.95C463.517 164.717 464.433 167.05 465.3 169.95C465.8 171.55 466.517 173.983 467.45 177.25C466.85 182.983 465.483 187.717 463.35 191.45C460.917 195.65 457.383 198.867 452.75 201.1C449.017 202.933 445.25 203.483 441.45 202.75C437.717 202.017 434.35 200.133 431.35 197.1ZM436.95 177.5C436.983 180.033 437.933 182.283 439.8 184.25C441.667 186.183 443.85 187.2 446.35 187.3C448.917 187.367 451.233 186.417 453.3 184.45C455.333 182.45 456.35 180.15 456.35 177.55C456.383 175.083 455.433 172.867 453.5 170.9C451.6 168.9 449.4 167.867 446.9 167.8C444.333 167.7 442.033 168.65 440 170.65C437.933 172.65 436.917 174.933 436.95 177.5ZM495.15 183.05C495.217 180.483 494.35 178.25 492.55 176.35C490.717 174.417 488.5 173.4 485.9 173.3C483.2 173.167 480.85 174.033 478.85 175.9C476.883 177.767 475.867 180.033 475.8 182.7C475.733 185.133 476.633 187.35 478.5 189.35C480.4 191.35 482.6 192.417 485.1 192.55C487.667 192.717 489.967 191.833 492 189.9C494.033 187.967 495.083 185.683 495.15 183.05Z" fill="black"/>
    </g>
    <defs>
        <clipPath id="clip0">
            <rect width="576" height="385" fill="white"/>
        </clipPath>
    </defs>
</svg>
