<svg width="716" height="451" viewBox="0 0 716 451" fill="none" xmlns="http://www.w3.org/2000/svg">
    <path d="M254.65 226.7C252.117 224.867 250.2 223.5 248.9 222.6C246.6 220.933 244.617 219.617 242.95 218.65C241.917 218.05 240.817 217.6 239.65 217.3C238.35 216.967 237.183 216.883 236.15 217.05C198.65 223.95 165.383 233.65 136.35 246.15C114.283 255.617 94.5833 266.167 77.25 277.8C57.9833 290.733 41.1 305.35 26.6 321.65C23.4667 325.183 19.7667 329.717 15.5 335.25C13.1333 338.35 9.56667 343 4.8 349.2L5.8 351.15C9.8 351.617 12.8167 351.967 14.85 352.2C18.3833 352.567 21.3833 352.683 23.85 352.55C25.5833 352.45 27.3833 351.983 29.25 351.15C31.15 350.283 32.6833 349.233 33.85 348C36.65 345.033 41.15 339.9 47.35 332.6C53.0167 325.933 57.55 320.867 60.95 317.4C67.55 310.7 72.65 305.683 76.25 302.35C82.0833 296.917 87.5667 292.35 92.7 288.65C103.567 280.85 116.15 273.75 130.45 267.35C141.517 262.417 155.05 257.317 171.05 252.05C182.217 248.383 196.1 244.083 212.7 239.15C231.333 233.683 245.317 229.533 254.65 226.7Z" fill="white"/>
    <path d="M149.7 236.95C151.133 236.383 152.25 235.483 153.05 234.25C155.717 230.25 158.05 225.517 160.05 220.05C161.283 216.683 162.8 211.733 164.6 205.2L139.35 192.2C131.917 197.933 121.283 210.267 107.45 229.2C93.55 248.233 85.4333 261.617 83.1 269.35H83.95C104.483 256.817 126.4 246.017 149.7 236.95Z" fill="white"/>
    <path d="M686 228.65C686.2 228.25 686.317 227.667 686.35 226.9C686.383 225.7 686.4 225.05 686.4 224.95L686.45 224.9C686.183 225.067 685.933 225.233 685.7 225.4L673.05 231.2C668.883 232.4 664.017 233.217 658.45 233.65C637.95 235.25 616.067 232.317 592.8 224.85C592.567 224.783 592.317 224.633 592.05 224.4L591.3 223.8L591.5 224C591 224.267 590.2 224.65 589.1 225.15C588.167 225.583 587.417 226.017 586.85 226.45C585.983 227.083 584.35 228.4 581.95 230.4C579.95 232.033 578.317 233.283 577.05 234.15C551.583 251.383 524.7 259.267 496.4 257.8C526.267 270.4 549.65 278.95 566.55 283.45C592.983 290.517 617.817 292.767 641.05 290.2C634.283 291.8 627 292.75 619.2 293.05C612.7 293.283 605.4 293.05 597.3 292.35C585.233 291.283 572.517 288.867 559.15 285.1C548.383 282.033 536.15 277.767 522.45 272.3C517.85 270.467 501.25 263.733 472.65 252.1C465.517 249.133 460.15 246.933 456.55 245.5C455.75 245.133 455.15 244.867 454.75 244.7C454.017 244.4 453.417 244.3 452.95 244.4C444.317 246.167 431.4 248.917 414.2 252.65C414.2 253.25 414.217 253.583 414.25 253.65C414.683 254.417 415.217 255.267 415.85 256.2C427.917 273.133 445.133 284.983 467.5 291.75C470.967 292.783 475.767 294.117 481.9 295.75C488.767 297.55 493.583 298.85 496.35 299.65C498.517 300.283 500.15 301.067 501.25 302C502.717 303.233 503.433 304.883 503.4 306.95C503.367 309.283 502.7 311.233 501.4 312.8C500.1 314.333 498.333 315.383 496.1 315.95C491.667 317.05 487.733 317.45 484.3 317.15C474.8 316.317 465.217 313.967 455.55 310.1C447.183 306.8 438.45 302.217 429.35 296.35C416.35 287.983 405.383 275.233 396.45 258.1C396.05 257.367 395.45 256.683 394.65 256.05C393.783 255.35 393.017 255 392.35 255C383.083 255.067 370.933 255.383 355.9 255.95C355.7 255.95 355.45 256.183 355.15 256.65C354.983 256.917 354.733 257.317 354.4 257.85C352.367 257.183 350.833 256.683 349.8 256.35C347.967 255.75 346.417 255.333 345.15 255.1C330.15 252.5 318.017 250.55 308.75 249.25C307.683 249.083 306.533 249.183 305.3 249.55C304.033 249.883 303.017 250.383 302.25 251.05C292.183 260.05 281.7 266.333 270.8 269.9C268.067 270.8 264.583 271.8 260.35 272.9C257.95 273.533 254.133 274.533 248.9 275.9C249.233 276.133 249.9 276.583 250.9 277.25C251.533 277.65 252.017 278 252.35 278.3C262.95 287.933 272.133 296.783 279.9 304.85C289.333 314.65 297.667 324.267 304.9 333.7C308.467 338.333 314.9 347.033 324.2 359.8C332.233 370.833 338.75 379.467 343.75 385.7C353.717 398.133 362.983 408.35 371.55 416.35C382.383 426.483 393.55 434.583 405.05 440.65C405.317 440.783 405.617 441.05 405.95 441.45C406.117 441.65 406.367 441.967 406.7 442.4C399.867 438.333 394.733 435.267 391.3 433.2C385.167 429.533 380.233 426.217 376.5 423.25C365.7 414.65 355.233 404.533 345.1 392.9C336.5 382.967 327.683 371.383 318.65 358.15C300.75 331.917 277.45 305.267 248.75 278.2C247.217 276.7 245.383 275.817 243.25 275.55C242.217 275.45 239.883 275.383 236.25 275.35C233.317 275.35 231.017 275.133 229.35 274.7C221.317 272.733 213.35 270.117 205.45 266.85C204.383 266.383 203.367 265.367 202.4 263.8C201.467 262.233 201.083 260.917 201.25 259.85C201.417 258.883 202.2 257.85 203.6 256.75C204.9 255.717 206.217 255.033 207.55 254.7C209.283 254.233 211.483 253.917 214.15 253.75C217.15 253.65 219.4 253.533 220.9 253.4L220.2 251.2C228.733 255.433 239.3 256.783 251.9 255.25C265.567 253.617 275.767 248.917 282.5 241.15C278.267 239.017 275.083 237.417 272.95 236.35C269.217 234.483 266 232.933 263.3 231.7C260.9 230.633 258.75 230.367 256.85 230.9C233.45 236.9 215.967 241.6 204.4 245C185.4 250.567 168.917 256.017 154.95 261.35C137.55 267.983 121.783 275.233 107.65 283.1C101.817 286.333 96.8667 289.383 92.8 292.25C87.6333 295.85 83.0833 299.65 79.15 303.65C105.217 315.717 133.067 330.95 162.7 349.35C182.5 361.65 208.833 379.117 241.7 401.75L246.1 396.45C251.8 389.75 257.967 385.983 264.6 385.15C271.267 384.317 278.167 386.433 285.3 391.5C291.2 395.7 295.95 401 299.55 407.4C302.683 413.033 305.033 419.75 306.6 427.55C306.8 428.517 307.25 429.5 307.95 430.5C308.683 431.533 309.45 432.2 310.25 432.5C343.217 444.2 377.583 448.967 413.35 446.8C413.783 446.767 414.4 446.25 415.2 445.25L419.4 445.7C421.067 445.867 422.467 445.917 423.6 445.85C443.467 444.15 462.283 440.217 480.05 434.05C485.517 432.15 492.283 429.617 500.35 426.45C504.917 424.65 511.95 421.867 521.45 418.1L515.85 414.25C512.217 411.517 509.267 408.717 507 405.85C504.367 402.517 502.517 398.917 501.45 395.05C500.083 390.25 500.167 385.05 501.7 379.45C503.167 374.217 505.733 369.217 509.4 364.45C513.067 359.683 517.333 355.833 522.2 352.9C527.367 349.8 532.583 348.083 537.85 347.75C545.817 347.283 553.767 348.533 561.7 351.5C568.233 353.933 575.267 357.75 582.8 362.95C584.3 364.017 585.583 364.517 586.65 364.45C587.683 364.383 588.8 363.733 590 362.5C591.3 361.2 594.467 358.15 599.5 353.35C603.433 349.583 606.55 346.467 608.85 344C639.017 311.9 664.733 273.45 686 228.65ZM438.65 415.6C426.383 415.067 415.7 411.433 406.6 404.7C402.367 401.533 399.483 397.933 397.95 393.9C396.417 389.867 396.367 385.817 397.8 381.75C399.2 377.717 401.917 374.567 405.95 372.3C410.117 369.933 415.35 368.75 421.65 368.75C427.983 369.517 433.817 371.417 439.15 374.45C445.117 377.85 450.067 382.517 454 388.45C458.6 395.383 459.217 401.817 455.85 407.75C452.717 413.417 446.983 416.033 438.65 415.6ZM452.9 344.6C440.833 338.733 430.4 331.817 421.6 323.85C418.167 320.75 413.717 316.267 408.25 310.4C402.017 303.767 397.617 299.217 395.05 296.75C390.283 292.083 384.183 286.3 376.75 279.4C365.283 268.7 359.133 262.95 358.3 262.15C357.833 261.717 356.583 260.333 354.55 258C356.917 259.8 360.433 262.45 365.1 265.95C369.333 269.15 372.783 271.983 375.45 274.45C392.383 290.117 405.417 302.75 414.55 312.35C428.783 327.317 447.217 339.517 469.85 348.95C472.683 350.117 477.7 352.1 484.9 354.9C491.333 357.367 496.367 359.4 500 361C494.7 359.7 490.733 358.65 488.1 357.85C474.367 353.717 462.633 349.3 452.9 344.6ZM175.75 324.35C195.65 350.317 207.083 367.583 210.05 376.15L138.55 282.3C143.617 284.633 156.017 298.65 175.75 324.35Z" fill="white"/>
    <path d="M144.6 190.75C148.5 194.017 154.417 197.033 162.35 199.8C172.583 203.367 182.217 205 191.25 204.7C201.183 204.333 210.683 201.65 219.75 196.65L214.1 189.7C200.633 197.733 186.233 198.967 170.9 193.4C168.233 192.4 164.833 190.883 160.7 188.85C155.3 186.15 151.95 184.517 150.65 183.95C149.017 183.183 146.933 182.333 144.4 181.4C142.933 180.867 140.633 180.017 137.5 178.85C138.267 183.483 140.633 187.45 144.6 190.75Z" fill="white"/>
    <path d="M173 161.9L150.9 180.3L168.6 189.35L174.1 162.5L173 161.9Z" fill="white"/>
    <path d="M235.6 212.4C232.933 209.8 230.917 207.833 229.55 206.5C227.117 204.167 225.017 202.217 223.25 200.65C222.95 200.383 222.417 200.283 221.65 200.35C220.917 200.417 220.283 200.583 219.75 200.85C208.817 206.617 196.233 208.933 182 207.8C180.133 207.633 177.883 207.333 175.25 206.9C173.783 206.667 171.683 206.317 168.95 205.85L156.25 233.5L235.6 212.4Z" fill="white"/>
    <path d="M194.9 147.05C187 152.417 181.133 156.45 177.3 159.15C176.1 160.017 175.45 160.9 175.35 161.8C174.917 165.4 173.883 174.75 172.25 189.85C177.35 192.55 184.333 193.617 193.2 193.05C202.067 192.483 207.833 190.6 210.5 187.4L194.9 147.05Z" fill="white"/>
    <path d="M488.8 101.05C487.967 99.75 487.467 98.9833 487.3 98.75C467.633 72.4833 443.833 52.05 415.9 37.45C382 19.7833 345.017 14.0166 304.95 20.15C296.483 21.4833 289.817 22.7833 284.95 24.05C277.75 25.9166 271.417 28.3833 265.95 31.45C241.517 45.0833 222.817 64.4166 209.85 89.45C200.483 107.517 197.183 126.383 199.95 146.05C201.683 158.283 205.783 169.733 212.25 180.4C218.083 190.067 226 199.3 236 208.1C251.233 221.567 268.55 231.95 287.95 239.25C305.65 245.883 325.4 250.05 347.2 251.75C370.1 253.517 393.967 252.2 418.8 247.8C423.1 247.033 428.367 246.033 434.6 244.8C438.133 244.1 443.483 243.017 450.65 241.55C444.817 232.283 441.25 221.3 439.95 208.6C438.683 196.2 439.717 183.383 443.05 170.15C446.417 156.583 451.883 143.95 459.45 132.25C467.483 119.783 477.267 109.383 488.8 101.05ZM374.45 42.4C377.783 50.5666 376.933 58.6 371.9 66.5C367.867 72.8 362.55 78.0166 355.95 82.15C350.317 85.6833 343.45 88.55 335.35 90.75C325.45 93.4833 316.083 93.55 307.25 90.95C297.117 87.9833 289.567 81.4333 284.6 71.3C282.8 67.5667 282.05 63.9333 282.35 60.4C282.617 56.7333 284 53.3166 286.5 50.15C289.733 46.05 293.217 42.7666 296.95 40.3C311.05 31.0333 327.233 26.1 345.5 25.5C346.3 25.6 347.833 25.7666 350.1 26C352.333 26.2333 354.233 26.5333 355.8 26.9C364.9 29.0666 371.117 34.2333 374.45 42.4ZM404.95 139.95C409.183 144.95 412.65 150.983 415.35 158.05C418.083 165.25 419.467 172.05 419.5 178.45C419.7 192.017 413.917 202.567 402.15 210.1C392.85 216.033 382.1 218.633 369.9 217.9C357.633 217.167 347.517 213.217 339.55 206.05C334.25 201.283 330.017 195.617 326.85 189.05C323.583 182.317 321.85 175.45 321.65 168.45C321.217 152.083 328.65 139.05 343.95 129.35C347.317 127.217 351.617 125.7 356.85 124.8C362.217 123.9 367.767 123.783 373.5 124.45C387.1 126.017 397.583 131.183 404.95 139.95ZM247 89.25C248.133 92.5166 249.217 96.65 250.25 101.65C250.85 104.45 251.7 108.65 252.8 114.25L251.6 114.55C251.4 122.083 250.8 128.867 249.8 134.9C248.6 142 246.75 148.533 244.25 154.5C242.517 158.767 240.933 161.817 239.5 163.65C237.2 166.583 234.317 168.217 230.85 168.55C227.483 168.883 224.467 167.8 221.8 165.3C220.367 163.967 218.333 161.283 215.7 157.25C206.9 143.717 204.267 130.25 207.8 116.85C211.033 104.583 218.933 93.8 231.5 84.5C234.367 82.3666 237.35 81.75 240.45 82.65C243.617 83.5833 245.8 85.7833 247 89.25Z" fill="white"/>
    <path d="M300.45 247.6C299.917 247.1 299.567 246.833 299.4 246.8C297.3 246.033 295.733 245.467 294.7 245.1C292.867 244.467 291.267 244.017 289.9 243.75C289.033 243.55 288.117 243.517 287.15 243.65C286.05 243.817 285.233 244.133 284.7 244.6C277.533 250.9 269.433 255.15 260.4 257.35C252.267 259.283 243.117 259.617 232.95 258.35C226.383 257.583 220.067 257.217 214 257.25C212.667 257.25 211.05 257.483 209.15 257.95C208.083 258.217 206.467 258.633 204.3 259.2L203.85 261.55C205.05 262.25 206.8 263.367 209.1 264.9C211.2 266.233 213.033 267.183 214.6 267.75C231.1 273.717 248.867 273.55 267.9 267.25C280.567 263.083 291.417 256.533 300.45 247.6Z" fill="white"/>
    <path d="M246.8 101.85C245.967 97.6833 245.033 94.1 244 91.1C243 88.2 241.433 86.4833 239.3 85.95C237.233 85.4166 234.967 86.1166 232.5 88.05C220.733 97.2833 213.517 107.6 210.85 119C207.983 131.3 210.767 143.667 219.2 156.1C221.533 159.5 223.083 161.567 223.85 162.3C225.917 164.3 228.267 165.133 230.9 164.8C233.367 164.5 235.417 163.233 237.05 161C237.883 159.867 239.033 157.633 240.5 154.3C243.167 148.367 245.1 141.6 246.3 134C247.233 128.1 247.933 120.117 248.4 110.05C247.8 106.817 247.267 104.083 246.8 101.85Z" fill="white"/>
    <path d="M366.7 67.8C373 60.1333 374.617 52.25 371.55 44.15C368.483 35.9833 362.05 31.2333 352.25 29.9C341.483 28.4 331.05 29.2167 320.95 32.35C311.283 35.3833 302.1 40.4833 293.4 47.65C288.7 51.55 286.15 55.7667 285.75 60.3C285.35 64.6667 286.95 69.4333 290.55 74.6C297.483 84.5667 307.517 89.4167 320.65 89.15C340.45 88.1833 355.8 81.0667 366.7 67.8Z" fill="white"/>
    <path d="M492.1 98.8C493.9 98.5333 495.283 97.85 496.25 96.75C497.15 95.7833 497.783 94.3833 498.15 92.55C498.383 91.45 498.95 89.1833 499.85 85.75C500.583 82.95 501.083 80.6833 501.35 78.95C501.783 75.7833 501.433 73.2 500.3 71.2C490.467 54.5667 477.033 40.7 460 29.6C458.433 28.6 455.95 28.1667 452.55 28.3C451.183 28.3667 447.383 28.6833 441.15 29.25C436.45 29.6833 432.633 29.8167 429.7 29.65C420.833 29.1167 413.367 27.2167 407.3 23.95C400.367 20.2167 395.033 14.5833 391.3 7.04998C391.033 6.51665 390.5 6.03332 389.7 5.59998C388.933 5.19998 388.183 4.96665 387.45 4.89998C370.083 2.63332 352.533 3.41665 334.8 7.24998C331.3 7.98332 327.033 9.11665 322 10.65C316.4 12.4167 312.183 13.7 309.35 14.5L309.6 15.85C347.133 11.6167 381.433 16.9167 412.5 31.75C441.567 45.6167 468.1 67.9667 492.1 98.8Z" fill="white"/>
    <path d="M408.7 200.05C414.4 193.25 416.883 185.75 416.15 177.55C414.783 162.483 410.017 150.533 401.85 141.7C392.183 131.233 378.767 126.6 361.6 127.8C353.567 128.367 346.133 131.533 339.3 137.3C332.433 143.067 328.1 149.867 326.3 157.7C324.7 164.8 324.767 171.817 326.5 178.75C328.167 185.383 331.233 191.4 335.7 196.8C340.133 202.2 345.517 206.433 351.85 209.5C358.483 212.7 365.55 214.35 373.05 214.45C374.583 214.283 376.9 214.033 380 213.7C382.733 213.4 385.033 213.067 386.9 212.7C395.767 211 403.033 206.783 408.7 200.05Z" fill="white"/>
    <path d="M395.6 6.3C398.4 14.5667 405.517 20.4333 416.95 23.9C427.917 27.2333 439.367 27.4333 451.3 24.5C445.667 20.4667 436.5 16.3833 423.8 12.25C411.167 8.15 401.767 6.16667 395.6 6.3Z" fill="white"/>
    <path d="M483.45 313.6C485.217 313.933 487.367 313.867 489.9 313.4C490.867 313.233 493.067 312.7 496.5 311.8C497.2 311.6 497.9 311 498.6 310C499.3 309 499.65 308.1 499.65 307.3C499.617 306.633 499.2 305.867 498.4 305C497.633 304.167 496.85 303.6 496.05 303.3C492.75 302 488.767 300.867 484.1 299.9C467.767 296.367 453.95 291.383 442.65 284.95C429.417 277.383 418.683 267.35 410.45 254.85C410.15 254.383 409.633 253.983 408.9 253.65C408.167 253.317 407.483 253.167 406.85 253.2C405.85 253.233 404.617 253.367 403.15 253.6C401.383 253.933 399.983 254.183 398.95 254.35C400.283 257.283 401.067 258.983 401.3 259.45C409.667 275.05 421.183 287.383 435.85 296.45C448.783 304.45 464.65 310.167 483.45 313.6Z" fill="white"/>
    <path d="M454.15 397.5C453.683 395.367 452.533 392.8 450.7 389.8C450.3 389.1 449.817 388.417 449.25 387.75C441.917 378.85 432.2 373.65 420.1 372.15C416.1 371.617 412.283 372.383 408.65 374.45C405.083 376.483 402.65 379.183 401.35 382.55C400.05 385.917 400 389.25 401.2 392.55C402.433 395.917 404.85 398.95 408.45 401.65C416.583 407.717 426.033 411.167 436.8 412C441.167 411.967 444.417 411.617 446.55 410.95C449.383 410.05 451.517 408.317 452.95 405.75C454.383 403.15 454.783 400.4 454.15 397.5Z" fill="white"/>
    <path d="M557.55 110.95C554.383 108.683 552.017 107 550.45 105.9C547.517 103.833 545 102.25 542.9 101.15C529.2 94.1166 516.217 93.0166 503.95 97.85C503.017 98.1833 502.117 98.8666 501.25 99.9C500.417 100.867 499.867 101.85 499.6 102.85C499.033 105.117 498.45 108.05 497.85 111.65C497.017 116.783 496.533 119.733 496.4 120.5C496.333 120.9 496.117 121.367 495.75 121.9C495.55 122.2 495.233 122.65 494.8 123.25L493.15 122.75C493.617 118.283 494 114.95 494.3 112.75C494.5 111.183 495.05 107.383 495.95 101.35C493.85 102.45 492.733 103.05 492.6 103.15C491.9 103.617 490.85 104.3 489.45 105.2C488.217 106 487.217 106.75 486.45 107.45C451.65 137.75 437.833 175.05 445 219.35C446.033 225.783 447.9 231.033 450.6 235.1C453.733 239.867 458.067 243.167 463.6 245C470.433 247.3 476.317 249.083 481.25 250.35C487.75 252.017 493.75 253.1 499.25 253.6C512.317 254.767 525.3 253.383 538.2 249.45C549.867 245.883 561.65 240.167 573.55 232.3C578.883 228.8 583.383 225.233 587.05 221.6C591.35 217.367 594.8 212.783 597.4 207.85C601.167 200.617 602.233 192.433 600.6 183.3L598.55 185.5C593.983 190.967 589.167 193.733 584.1 193.8C579.067 193.867 574.183 191.217 569.45 185.85C566.45 182.45 564 178.033 562.1 172.6C560.167 167.067 559.117 161.3 558.95 155.3C558.483 141.1 562.533 130.167 571.1 122.5L557.55 110.95ZM548 118.6C547.767 115.6 548.433 113.483 550 112.25C551.533 111.083 554.017 110.683 557.45 111.05L548 118.6ZM544.15 187.2C544.283 188.267 544.45 189.633 544.65 191.3C544.317 199.567 543.033 206.417 540.8 211.85C538.2 218.183 534.05 223.333 528.35 227.3C521.017 232.367 512.85 234.2 503.85 232.8C494.883 231.4 487.317 227.117 481.15 219.95C473.583 211.117 470.467 200.667 471.8 188.6C473.1 176.533 478.417 167.033 487.75 160.1C492.65 156.467 498.083 154.317 504.05 153.65C509.717 153.017 515.3 153.8 520.8 156C526.267 158.167 530.95 161.467 534.85 165.9C539.017 170.6 541.833 176.05 543.3 182.25C543.633 183.617 543.917 185.267 544.15 187.2ZM483.8 139.85C485.733 134.917 488.833 131.65 493.1 130.05C497.4 128.417 501.517 128.967 505.45 131.7C501.617 131.167 497.783 131.767 493.95 133.5C491.517 134.6 488.133 136.717 483.8 139.85ZM581.05 217.7C576.583 223.833 571.8 227.617 566.7 229.05C561.067 230.617 554.917 229.35 548.25 225.25L551.8 220.3C552.467 222.967 553.733 224.85 555.6 225.95C557.533 227.05 559.85 227.217 562.55 226.45C564.383 225.95 566.467 225.183 568.8 224.15C569.333 223.883 571.35 222.9 574.85 221.2C575.45 220.9 576.483 220.3 577.95 219.4C579.217 218.6 580.25 218.033 581.05 217.7Z" fill="white"/>
    <path d="M535.85 213.85C541.05 204.183 542.433 194.05 540 183.45C539.067 179.317 537.383 175.483 534.95 171.95C532.55 168.45 529.983 166.017 527.25 164.65L530.25 173.45C527.817 173.85 525.967 174.533 524.7 175.5C523.233 176.6 522.383 178.183 522.15 180.25C521.85 182.883 522.533 184.95 524.2 186.45C525.333 187.483 527.267 188.433 530 189.3C527.6 201.133 521.233 208.917 510.9 212.65C506.167 214.317 500.967 214.9 495.3 214.4C490.967 214.033 485.583 212.883 479.15 210.95C482.883 217.017 487.05 221.583 491.65 224.65C496.583 227.95 502.167 229.617 508.4 229.65C514.467 229.717 519.817 228.467 524.45 225.9C529.183 223.2 532.983 219.183 535.85 213.85Z" fill="white"/>
    <path d="M510.55 92.1L505.6 80.85L504.45 81.2L501.2 94.5L510.55 92.1Z" fill="white"/>
    <path d="M526.3 34.9C531.533 32.7667 537.05 29.6667 542.85 25.6C548.617 21.5667 552.033 18.4333 553.1 16.2C548.067 15.5333 543.233 16.8167 538.6 20.05C533.933 23.2833 529.833 28.2333 526.3 34.9Z" fill="white"/>
    <path d="M600.85 32.9C608.55 30.4333 613.45 28.1 615.55 25.9C610.483 23.0667 604.083 22.8833 596.35 25.35C588.617 27.8167 582.817 31.9 578.95 37.6C585.817 36.9333 593.117 35.3667 600.85 32.9Z" fill="white"/>
    <path d="M661.05 136.25C682.883 126.517 696.917 118.017 703.15 110.75C683.483 117.317 661.267 120.533 636.5 120.4C621.2 120.3 598.833 118.483 569.4 114.95L568.7 116.2C569.533 116.733 570.767 117.717 572.4 119.15C573.9 120.283 575.117 120.817 576.05 120.75C585.883 120.083 593.55 124.45 599.05 133.85C600.617 136.517 602.217 140.017 603.85 144.35C604.75 146.783 606.117 150.45 607.95 155.35C623.817 151.35 641.517 144.983 661.05 136.25Z" fill="white"/>
    <path d="M603.15 158.1C602.883 149.267 600.517 141.833 596.05 135.8C594.083 137.667 593 138.683 592.8 138.85C590.633 140.517 589.65 142.55 589.85 144.95C590.05 147.35 591.367 149.1 593.8 150.2C594.667 150.567 596.05 150.95 597.95 151.35C595.717 169.25 585.567 177.683 567.5 176.65C569.633 180.083 570.8 181.933 571 182.2C575.067 187.667 579.533 190.317 584.4 190.15C589.3 189.983 593.567 187.033 597.2 181.3C601.4 174.7 603.383 166.967 603.15 158.1Z" fill="white"/>
    <path d="M709.1 147.75C702.6 152.65 695.4 155.717 687.5 156.95C680.467 158.083 672.633 157.783 664 156.05C662.433 155.75 660.117 156.233 657.05 157.5C654.783 158.4 648.883 160.833 639.35 164.8C632.15 167.833 626.25 170.2 621.65 171.9C619.317 172.8 616.333 173.65 612.7 174.45C608.6 175.317 605.533 176 603.5 176.5C603.5 177.933 603.517 178.717 603.55 178.85C606.883 195.55 603.3 209.45 592.8 220.55C592.5 220.883 592.233 221.417 592 222.15C591.933 222.383 591.85 222.7 591.75 223.1L591.7 223.25C591.667 223.45 591.617 223.65 591.55 223.85C592.05 223.917 592.583 224 593.15 224.1L609.5 226.6C616.7 227.733 622.75 228.583 627.65 229.15C639.217 230.55 648.883 231.083 656.65 230.75C667.083 230.317 676.55 228.367 685.05 224.9C685.35 224.8 685.833 224.767 686.5 224.8C686.767 224.267 687.033 223.75 687.3 223.25L688.05 221.8C689.017 219.967 689.783 218.483 690.35 217.35C691.95 214.317 693.167 211.733 694 209.6C701.8 189.6 707.25 168.95 710.35 147.65L709.1 147.75Z" fill="white"/>
    <path d="M644 147.1C634.367 150.8 623.15 154.7 610.35 158.8C608.15 159.5 606.933 160.333 606.7 161.3C606.367 162.667 606.117 164.383 605.95 166.45C605.817 167.65 605.65 169.55 605.45 172.15C639.95 165.783 669.117 149.667 692.95 123.8C685.717 127.933 680.25 130.933 676.55 132.8C666.717 137.767 655.867 142.533 644 147.1Z" fill="white"/>
    <path d="M712.6 109.9L710.55 109.7C698.25 126.667 682.583 141.317 663.55 153.65C672.95 154.217 680.583 154.15 686.45 153.45C694.217 152.55 701.117 150.433 707.15 147.1C707.983 146.667 708.75 146.067 709.45 145.3C710.25 144.467 710.667 143.717 710.7 143.05C711.067 138.483 711.417 132.967 711.75 126.5C712.117 119.133 712.4 113.6 712.6 109.9Z" fill="white"/>
    <path d="M703.9 105.8C699.933 107.533 696.6 108.833 693.9 109.7C677.9 115 660.333 117.3 641.2 116.6C631.633 116.267 620.183 115.567 606.85 114.5C591.617 113.2 580.183 112.233 572.55 111.6C570.083 111.4 568.233 111.183 567 110.95C564.933 110.55 563.25 109.967 561.95 109.2C558.917 107.433 555.267 105.1 551 102.2C546.133 98.8667 542.417 96.3333 539.85 94.6C543.15 83.9667 547.267 74.6667 552.2 66.7C557.833 57.6 564.7 49.9333 572.8 43.7C573.633 43.0667 575.15 42.4667 577.35 41.9C581.45 40.7667 587.6 39.0667 595.8 36.8C603.067 34.8 609.2 33.0167 614.2 31.45C615.1 31.1833 616.067 30.3833 617.1 29.05C617.7 28.35 618.567 27.25 619.7 25.75C618.333 24.5167 617.3 23.6167 616.6 23.05C615.4 21.9833 614.317 21.3167 613.35 21.05C603.083 18.0833 593.133 20.5667 583.5 28.5C573.867 36.4333 566.233 43.55 560.6 49.85C553.033 58.3167 547.267 67.0667 543.3 76.1C542.533 77.8333 540.133 83.6333 536.1 93.5L514 91.1C510.233 82.7667 508.1 77.9833 507.6 76.75C507.3 76.05 507.133 75.2833 507.1 74.45C507.033 73.55 507.117 72.7833 507.35 72.15C510.55 64.3167 512.25 60.1667 512.45 59.7C514.45 55 516.333 50.9333 518.1 47.5C519.267 45.2 521.933 42.6167 526.1 39.75C528.833 37.8833 533.483 34.8333 540.05 30.6C546.05 26.7333 550.683 23.65 553.95 21.35C554.683 20.8167 555.333 19.7667 555.9 18.2C556.467 16.3667 556.917 15.05 557.25 14.25C555.617 13.65 554.383 13.2 553.55 12.9C552.083 12.3667 550.883 12.1333 549.95 12.2C545.35 12.5667 541.167 13.9333 537.4 16.3C533.767 18.6 530.683 21.7 528.15 25.6C525.05 30.4 521.617 36.0833 517.85 42.65C517.583 43.05 514.3 48.8167 508 59.95C507.333 61.1167 506.65 62.6833 505.95 64.65C504.683 68.0167 504.033 69.75 504 69.85C502.7 67.9833 502.033 67.0167 502 66.95C492.567 52.35 481.733 40.7 469.5 32C424 -0.233343 373.35 -8.10001 317.55 8.39999C312.617 9.86666 306.533 11.9667 299.3 14.7C295.267 16.2333 289.233 18.5333 281.2 21.6C280.733 21.7667 278.767 22.4333 275.3 23.6C272.9 24.4 270.967 25.15 269.5 25.85C252.667 33.5833 237.4 45.7 223.7 62.2C214.033 73.8 206.867 85.7 202.2 97.9C197.133 111.067 194.883 124.783 195.45 139.05C195.483 139.917 195.2 140.9 194.6 142C194 143.033 193.3 143.867 192.5 144.5C189.467 146.8 183.067 151.567 173.3 158.8C165.3 164.667 158.933 169.467 154.2 173.2C151.633 175.233 149.633 176.5 148.2 177C146.067 177.767 143.717 177.633 141.15 176.6C138.683 175.633 136.783 175.883 135.45 177.35C134.117 178.817 133.85 180.867 134.65 183.5C134.883 184.267 135.25 185.167 135.75 186.2C136.05 186.8 136.517 187.7 137.15 188.9L133.35 193C113.55 213.667 98.0667 234.233 86.9 254.7C82.7 262.433 78.7667 268.533 75.1 273C70.2333 279 64.7667 283.7 58.7 287.1C58.2333 287.367 57.5667 287.867 56.7 288.6C33.4 307.2 15.3667 326.85 2.6 347.55C2.56667 347.617 1.7 349.3 0 352.6C3.03333 353.4 5.25 353.983 6.65 354.35C9.11667 354.983 11.1667 355.417 12.8 355.65C19.3667 356.65 24.5667 356.617 28.4 355.55C33.6 354.083 37.5333 350.633 40.2 345.2C40.4667 344.667 41.3167 343.65 42.75 342.15C49.3833 335.083 54.35 329.783 57.65 326.25C63.5167 319.95 68.4167 314.617 72.35 310.25C73.7167 308.717 75.0833 307.85 76.45 307.65C77.7167 307.417 79.3167 307.733 81.25 308.6C98.15 316.2 116.15 325.6 135.25 336.8C149.25 345 166.45 355.733 186.85 369C194.517 374 203.867 380.233 214.9 387.7C221.1 391.9 230.433 398.233 242.9 406.7C246.1 402.2 248.133 399.433 249 398.4C253.8 392.767 259.083 389.567 264.85 388.8C270.617 388 276.55 389.7 282.65 393.9C294.017 401.7 300.867 413.75 303.2 430.05C303.433 431.617 303.883 432.817 304.55 433.65C305.183 434.45 306.217 435.083 307.65 435.55C333.35 444.55 359.05 449.583 384.75 450.65C425.25 452.383 464.567 445.4 502.7 429.7C506.1 428.3 510.283 426.367 515.25 423.9C518.05 422.533 522.333 420.417 528.1 417.55C527.767 417.35 525.617 416.05 521.65 413.65C519.35 412.283 517.533 411.067 516.2 410C511.833 406.5 508.65 402.833 506.65 399C504.35 394.567 503.5 389.783 504.1 384.65C505.467 373.383 511.133 364.483 521.1 357.95C531.033 351.417 541.617 349.6 552.85 352.5C563.617 355.267 574.85 361.067 586.55 369.9C590.55 366.667 593.483 364.183 595.35 362.45C618.583 340.95 639.933 314.867 659.4 284.2C674.9 259.867 687.05 236.65 695.85 214.55C706.05 188.983 712.383 163.55 714.85 138.25C716.217 124.15 715.95 111.867 714.05 101.4C709.483 103.4 706.1 104.867 703.9 105.8ZM710.55 109.7L712.6 109.9C712.4 113.6 712.117 119.133 711.75 126.5C711.417 132.967 711.067 138.483 710.7 143.05C710.667 143.717 710.25 144.467 709.45 145.3C708.75 146.067 707.983 146.667 707.15 147.1C701.117 150.433 694.217 152.55 686.45 153.45C680.583 154.15 672.95 154.217 663.55 153.65C682.583 141.317 698.25 126.667 710.55 109.7ZM709.1 147.75L710.35 147.65C707.25 168.95 701.8 189.6 694 209.6C693.167 211.733 691.95 214.317 690.35 217.35C689.783 218.483 689.017 219.967 688.05 221.8L687.3 223.25C687.033 223.75 686.767 224.267 686.5 224.8C685.833 224.767 685.35 224.8 685.05 224.9C676.55 228.367 667.083 230.317 656.65 230.75C648.883 231.083 639.217 230.55 627.65 229.15C622.75 228.583 616.7 227.733 609.5 226.6L593.15 224.1C592.583 224 592.05 223.917 591.55 223.85C591.617 223.65 591.667 223.45 591.7 223.25L591.75 223.1C591.85 222.7 591.933 222.383 592 222.15C592.233 221.417 592.5 220.883 592.8 220.55C603.3 209.45 606.883 195.55 603.55 178.85C603.517 178.717 603.5 177.933 603.5 176.5C605.533 176 608.6 175.317 612.7 174.45C616.333 173.65 619.317 172.8 621.65 171.9C626.25 170.2 632.15 167.833 639.35 164.8C648.883 160.833 654.783 158.4 657.05 157.5C660.117 156.233 662.433 155.75 664 156.05C672.633 157.783 680.467 158.083 687.5 156.95C695.4 155.717 702.6 152.65 709.1 147.75ZM676.55 132.8C680.25 130.933 685.717 127.933 692.95 123.8C669.117 149.667 639.95 165.783 605.45 172.15C605.65 169.55 605.817 167.65 605.95 166.45C606.117 164.383 606.367 162.667 606.7 161.3C606.933 160.333 608.15 159.5 610.35 158.8C623.15 154.7 634.367 150.8 644 147.1C655.867 142.533 666.717 137.767 676.55 132.8ZM703.15 110.75C696.917 118.017 682.883 126.517 661.05 136.25C641.517 144.983 623.817 151.35 607.95 155.35C606.117 150.45 604.75 146.783 603.85 144.35C602.217 140.017 600.617 136.517 599.05 133.85C593.55 124.45 585.883 120.083 576.05 120.75C575.117 120.817 573.9 120.283 572.4 119.15C570.767 117.717 569.533 116.733 568.7 116.2L569.4 114.95C598.833 118.483 621.2 120.3 636.5 120.4C661.267 120.533 683.483 117.317 703.15 110.75ZM686.35 226.9C686.317 227.667 686.2 228.25 686 228.65C664.733 273.45 639.017 311.9 608.85 344C606.55 346.467 603.433 349.583 599.5 353.35C594.467 358.15 591.3 361.2 590 362.5C588.8 363.733 587.683 364.383 586.65 364.45C585.583 364.517 584.3 364.017 582.8 362.95C575.267 357.75 568.233 353.933 561.7 351.5C553.767 348.533 545.817 347.283 537.85 347.75C532.583 348.083 527.367 349.8 522.2 352.9C517.333 355.833 513.067 359.683 509.4 364.45C505.733 369.217 503.167 374.217 501.7 379.45C500.167 385.05 500.083 390.25 501.45 395.05C502.517 398.917 504.367 402.517 507 405.85C509.267 408.717 512.217 411.517 515.85 414.25L521.45 418.1C511.95 421.867 504.917 424.65 500.35 426.45C492.283 429.617 485.517 432.15 480.05 434.05C462.283 440.217 443.467 444.15 423.6 445.85C422.467 445.917 421.067 445.867 419.4 445.7L415.2 445.25C414.4 446.25 413.783 446.767 413.35 446.8C377.583 448.967 343.217 444.2 310.25 432.5C309.45 432.2 308.683 431.533 307.95 430.5C307.25 429.5 306.8 428.517 306.6 427.55C305.033 419.75 302.683 413.033 299.55 407.4C295.95 401 291.2 395.7 285.3 391.5C278.167 386.433 271.267 384.317 264.6 385.15C257.967 385.983 251.8 389.75 246.1 396.45L241.7 401.75C208.833 379.117 182.5 361.65 162.7 349.35C133.067 330.95 105.217 315.717 79.15 303.65C83.0833 299.65 87.6333 295.85 92.8 292.25C96.8667 289.383 101.817 286.333 107.65 283.1C121.783 275.233 137.55 267.983 154.95 261.35C168.917 256.017 185.4 250.567 204.4 245C215.967 241.6 233.45 236.9 256.85 230.9C258.75 230.367 260.9 230.633 263.3 231.7C266 232.933 269.217 234.483 272.95 236.35C275.083 237.417 278.267 239.017 282.5 241.15C275.767 248.917 265.567 253.617 251.9 255.25C239.3 256.783 228.733 255.433 220.2 251.2L220.9 253.4C219.4 253.533 217.15 253.65 214.15 253.75C211.483 253.917 209.283 254.233 207.55 254.7C206.217 255.033 204.9 255.717 203.6 256.75C202.2 257.85 201.417 258.883 201.25 259.85C201.083 260.917 201.467 262.233 202.4 263.8C203.367 265.367 204.383 266.383 205.45 266.85C213.35 270.117 221.317 272.733 229.35 274.7C231.017 275.133 233.317 275.35 236.25 275.35C239.883 275.383 242.217 275.45 243.25 275.55C245.383 275.817 247.217 276.7 248.75 278.2C277.45 305.267 300.75 331.917 318.65 358.15C327.683 371.383 336.5 382.967 345.1 392.9C355.233 404.533 365.7 414.65 376.5 423.25C380.233 426.217 385.167 429.533 391.3 433.2C394.733 435.267 399.867 438.333 406.7 442.4C406.367 441.967 406.117 441.65 405.95 441.45C405.617 441.05 405.317 440.783 405.05 440.65C393.55 434.583 382.383 426.483 371.55 416.35C362.983 408.35 353.717 398.133 343.75 385.7C338.75 379.467 332.233 370.833 324.2 359.8C314.9 347.033 308.467 338.333 304.9 333.7C297.667 324.267 289.333 314.65 279.9 304.85C272.133 296.783 262.95 287.933 252.35 278.3C252.017 278 251.533 277.65 250.9 277.25C249.9 276.583 249.233 276.133 248.9 275.9C254.133 274.533 257.95 273.533 260.35 272.9C264.583 271.8 268.067 270.8 270.8 269.9C281.7 266.333 292.183 260.05 302.25 251.05C303.017 250.383 304.033 249.883 305.3 249.55C306.533 249.183 307.683 249.083 308.75 249.25C318.017 250.55 330.15 252.5 345.15 255.1C346.417 255.333 347.967 255.75 349.8 256.35C350.833 256.683 352.367 257.183 354.4 257.85C354.733 257.317 354.983 256.917 355.15 256.65C355.45 256.183 355.7 255.95 355.9 255.95C370.933 255.383 383.083 255.067 392.35 255C393.017 255 393.783 255.35 394.65 256.05C395.45 256.683 396.05 257.367 396.45 258.1C405.383 275.233 416.35 287.983 429.35 296.35C438.45 302.217 447.183 306.8 455.55 310.1C465.217 313.967 474.8 316.317 484.3 317.15C487.733 317.45 491.667 317.05 496.1 315.95C498.333 315.383 500.1 314.333 501.4 312.8C502.7 311.233 503.367 309.283 503.4 306.95C503.433 304.883 502.717 303.233 501.25 302C500.15 301.067 498.517 300.283 496.35 299.65C493.583 298.85 488.767 297.55 481.9 295.75C475.767 294.117 470.967 292.783 467.5 291.75C445.133 284.983 427.917 273.133 415.85 256.2C415.217 255.267 414.683 254.417 414.25 253.65C414.217 253.583 414.2 253.25 414.2 252.65C431.4 248.917 444.317 246.167 452.95 244.4C453.417 244.3 454.017 244.4 454.75 244.7C455.15 244.867 455.75 245.133 456.55 245.5C460.15 246.933 465.517 249.133 472.65 252.1C501.25 263.733 517.85 270.467 522.45 272.3C536.15 277.767 548.383 282.033 559.15 285.1C572.517 288.867 585.233 291.283 597.3 292.35C605.4 293.05 612.7 293.283 619.2 293.05C627 292.75 634.283 291.8 641.05 290.2C617.817 292.767 592.983 290.517 566.55 283.45C549.65 278.95 526.267 270.4 496.4 257.8C524.7 259.267 551.583 251.383 577.05 234.15C578.317 233.283 579.95 232.033 581.95 230.4C584.35 228.4 585.983 227.083 586.85 226.45C587.417 226.017 588.167 225.583 589.1 225.15C590.2 224.65 591 224.267 591.5 224L591.3 223.8L592.05 224.4C592.317 224.633 592.567 224.783 592.8 224.85C616.067 232.317 637.95 235.25 658.45 233.65C664.017 233.217 668.883 232.4 673.05 231.2L685.7 225.4C685.933 225.233 686.183 225.067 686.45 224.9L686.4 224.95C686.4 225.05 686.383 225.7 686.35 226.9ZM578.95 37.6C582.817 31.9 588.617 27.8167 596.35 25.35C604.083 22.8833 610.483 23.0667 615.55 25.9C613.45 28.1 608.55 30.4333 600.85 32.9C593.117 35.3667 585.817 36.9333 578.95 37.6ZM553.1 16.2C552.033 18.4333 548.617 21.5667 542.85 25.6C537.05 29.6667 531.533 32.7667 526.3 34.9C529.833 28.2333 533.933 23.2833 538.6 20.05C543.233 16.8167 548.067 15.5333 553.1 16.2ZM501.35 78.95C501.083 80.6833 500.583 82.95 499.85 85.75C498.95 89.1833 498.383 91.45 498.15 92.55C497.783 94.3833 497.15 95.7833 496.25 96.75C495.283 97.85 493.9 98.5333 492.1 98.8C468.1 67.9667 441.567 45.6167 412.5 31.75C381.433 16.9167 347.133 11.6167 309.6 15.85L309.35 14.5C312.183 13.7 316.4 12.4167 322 10.65C327.033 9.11666 331.3 7.98332 334.8 7.24999C352.533 3.41666 370.083 2.63332 387.45 4.89999C388.183 4.96666 388.933 5.19999 389.7 5.59999C390.5 6.03332 391.033 6.51666 391.3 7.04999C395.033 14.5833 400.367 20.2167 407.3 23.95C413.367 27.2167 420.833 29.1167 429.7 29.65C432.633 29.8167 436.45 29.6833 441.15 29.25C447.383 28.6833 451.183 28.3667 452.55 28.3C455.95 28.1667 458.433 28.6 460 29.6C477.033 40.7 490.467 54.5667 500.3 71.2C501.433 73.2 501.783 75.7833 501.35 78.95ZM501.2 94.5L504.45 81.2L505.6 80.85L510.55 92.1L501.2 94.5ZM542.9 101.15C545 102.25 547.517 103.833 550.45 105.9C552.017 107 554.383 108.683 557.55 110.95L571.1 122.5C562.533 130.167 558.483 141.1 558.95 155.3C559.117 161.3 560.167 167.067 562.1 172.6C564 178.033 566.45 182.45 569.45 185.85C574.183 191.217 579.067 193.867 584.1 193.8C589.167 193.733 593.983 190.967 598.55 185.5L600.6 183.3C602.233 192.433 601.167 200.617 597.4 207.85C594.8 212.783 591.35 217.367 587.05 221.6C583.383 225.233 578.883 228.8 573.55 232.3C561.65 240.167 549.867 245.883 538.2 249.45C525.3 253.383 512.317 254.767 499.25 253.6C493.75 253.1 487.75 252.017 481.25 250.35C476.317 249.083 470.433 247.3 463.6 245C458.067 243.167 453.733 239.867 450.6 235.1C447.9 231.033 446.033 225.783 445 219.35C437.833 175.05 451.65 137.75 486.45 107.45C487.217 106.75 488.217 106 489.45 105.2C490.85 104.3 491.9 103.617 492.6 103.15C492.733 103.05 493.85 102.45 495.95 101.35C495.05 107.383 494.5 111.183 494.3 112.75C494 114.95 493.617 118.283 493.15 122.75L494.8 123.25C495.233 122.65 495.55 122.2 495.75 121.9C496.117 121.367 496.333 120.9 496.4 120.5C496.533 119.733 497.017 116.783 497.85 111.65C498.45 108.05 499.033 105.117 499.6 102.85C499.867 101.85 500.417 100.867 501.25 99.9C502.117 98.8667 503.017 98.1833 503.95 97.85C516.217 93.0167 529.2 94.1167 542.9 101.15ZM592.8 138.85C593 138.683 594.083 137.667 596.05 135.8C600.517 141.833 602.883 149.267 603.15 158.1C603.383 166.967 601.4 174.7 597.2 181.3C593.567 187.033 589.3 189.983 584.4 190.15C579.533 190.317 575.067 187.667 571 182.2C570.8 181.933 569.633 180.083 567.5 176.65C585.567 177.683 595.717 169.25 597.95 151.35C596.05 150.95 594.667 150.567 593.8 150.2C591.367 149.1 590.05 147.35 589.85 144.95C589.65 142.55 590.633 140.517 592.8 138.85ZM487.3 98.75C487.467 98.9833 487.967 99.75 488.8 101.05C477.267 109.383 467.483 119.783 459.45 132.25C451.883 143.95 446.417 156.583 443.05 170.15C439.717 183.383 438.683 196.2 439.95 208.6C441.25 221.3 444.817 232.283 450.65 241.55C443.483 243.017 438.133 244.1 434.6 244.8C428.367 246.033 423.1 247.033 418.8 247.8C393.967 252.2 370.1 253.517 347.2 251.75C325.4 250.05 305.65 245.883 287.95 239.25C268.55 231.95 251.233 221.567 236 208.1C226 199.3 218.083 190.067 212.25 180.4C205.783 169.733 201.683 158.283 199.95 146.05C197.183 126.383 200.483 107.517 209.85 89.45C222.817 64.4167 241.517 45.0833 265.95 31.45C271.417 28.3833 277.75 25.9167 284.95 24.05C289.817 22.7833 296.483 21.4833 304.95 20.15C345.017 14.0167 382 19.7833 415.9 37.45C443.833 52.05 467.633 72.4833 487.3 98.75ZM451.3 24.5C439.367 27.4333 427.917 27.2333 416.95 23.9C405.517 20.4333 398.4 14.5667 395.6 6.29999C401.767 6.16666 411.167 8.14999 423.8 12.25C436.5 16.3833 445.667 20.4667 451.3 24.5ZM406.85 253.2C407.483 253.167 408.167 253.317 408.9 253.65C409.633 253.983 410.15 254.383 410.45 254.85C418.683 267.35 429.417 277.383 442.65 284.95C453.95 291.383 467.767 296.367 484.1 299.9C488.767 300.867 492.75 302 496.05 303.3C496.85 303.6 497.633 304.167 498.4 305C499.2 305.867 499.617 306.633 499.65 307.3C499.65 308.1 499.3 309 498.6 310C497.9 311 497.2 311.6 496.5 311.8C493.067 312.7 490.867 313.233 489.9 313.4C487.367 313.867 485.217 313.933 483.45 313.6C464.65 310.167 448.783 304.45 435.85 296.45C421.183 287.383 409.667 275.05 401.3 259.45C401.067 258.983 400.283 257.283 398.95 254.35C399.983 254.183 401.383 253.933 403.15 253.6C404.617 253.367 405.85 253.233 406.85 253.2ZM173 161.9L174.1 162.5L168.6 189.35L150.9 180.3L173 161.9ZM193.2 193.05C184.333 193.617 177.35 192.55 172.25 189.85C173.883 174.75 174.917 165.4 175.35 161.8C175.45 160.9 176.1 160.017 177.3 159.15C181.133 156.45 187 152.417 194.9 147.05L210.5 187.4C207.833 190.6 202.067 192.483 193.2 193.05ZM214.1 189.7L219.75 196.65C210.683 201.65 201.183 204.333 191.25 204.7C182.217 205 172.583 203.367 162.35 199.8C154.417 197.033 148.5 194.017 144.6 190.75C140.633 187.45 138.267 183.483 137.5 178.85C140.633 180.017 142.933 180.867 144.4 181.4C146.933 182.333 149.017 183.183 150.65 183.95C151.95 184.517 155.3 186.15 160.7 188.85C164.833 190.883 168.233 192.4 170.9 193.4C186.233 198.967 200.633 197.733 214.1 189.7ZM160.05 220.05C158.05 225.517 155.717 230.25 153.05 234.25C152.25 235.483 151.133 236.383 149.7 236.95C126.4 246.017 104.483 256.817 83.95 269.35H83.1C85.4333 261.617 93.55 248.233 107.45 229.2C121.283 210.267 131.917 197.933 139.35 192.2L164.6 205.2C162.8 211.733 161.283 216.683 160.05 220.05ZM130.45 267.35C116.15 273.75 103.567 280.85 92.7 288.65C87.5667 292.35 82.0833 296.917 76.25 302.35C72.65 305.683 67.55 310.7 60.95 317.4C57.55 320.867 53.0167 325.933 47.35 332.6C41.15 339.9 36.65 345.033 33.85 348C32.6833 349.233 31.15 350.283 29.25 351.15C27.3833 351.983 25.5833 352.45 23.85 352.55C21.3833 352.683 18.3833 352.567 14.85 352.2C12.8167 351.967 9.8 351.617 5.8 351.15L4.8 349.2C9.56667 343 13.1333 338.35 15.5 335.25C19.7667 329.717 23.4667 325.183 26.6 321.65C41.1 305.35 57.9833 290.733 77.25 277.8C94.5833 266.167 114.283 255.617 136.35 246.15C165.383 233.65 198.65 223.95 236.15 217.05C237.183 216.883 238.35 216.967 239.65 217.3C240.817 217.6 241.917 218.05 242.95 218.65C244.617 219.617 246.6 220.933 248.9 222.6C250.2 223.5 252.117 224.867 254.65 226.7C245.317 229.533 231.333 233.683 212.7 239.15C196.1 244.083 182.217 248.383 171.05 252.05C155.05 257.317 141.517 262.417 130.45 267.35ZM284.7 244.6C285.233 244.133 286.05 243.817 287.15 243.65C288.117 243.517 289.033 243.55 289.9 243.75C291.267 244.017 292.867 244.467 294.7 245.1C295.733 245.467 297.3 246.033 299.4 246.8C299.567 246.833 299.917 247.1 300.45 247.6C291.417 256.533 280.567 263.083 267.9 267.25C248.867 273.55 231.1 273.717 214.6 267.75C213.033 267.183 211.2 266.233 209.1 264.9C206.8 263.367 205.05 262.25 203.85 261.55L204.3 259.2C206.467 258.633 208.083 258.217 209.15 257.95C211.05 257.483 212.667 257.25 214 257.25C220.067 257.217 226.383 257.583 232.95 258.35C243.117 259.617 252.267 259.283 260.4 257.35C269.433 255.15 277.533 250.9 284.7 244.6ZM219.75 200.85C220.283 200.583 220.917 200.417 221.65 200.35C222.417 200.283 222.95 200.383 223.25 200.65C225.017 202.217 227.117 204.167 229.55 206.5C230.917 207.833 232.933 209.8 235.6 212.4L156.25 233.5L168.95 205.85C171.683 206.317 173.783 206.667 175.25 206.9C177.883 207.333 180.133 207.633 182 207.8C196.233 208.933 208.817 206.617 219.75 200.85ZM240.45 82.65C237.35 81.75 234.367 82.3667 231.5 84.5C218.933 93.8 211.033 104.583 207.8 116.85C204.267 130.25 206.9 143.717 215.7 157.25C218.333 161.283 220.367 163.967 221.8 165.3C224.467 167.8 227.483 168.883 230.85 168.55C234.317 168.217 237.2 166.583 239.5 163.65C240.933 161.817 242.517 158.767 244.25 154.5C246.75 148.533 248.6 142 249.8 134.9C250.8 128.867 251.4 122.083 251.6 114.55L252.8 114.25C251.7 108.65 250.85 104.45 250.25 101.65C249.217 96.65 248.133 92.5167 247 89.25C245.8 85.7833 243.617 83.5833 240.45 82.65ZM232.5 88.05C234.967 86.1167 237.233 85.4167 239.3 85.95C241.433 86.4833 243 88.2 244 91.1C245.033 94.1 245.967 97.6833 246.8 101.85C247.267 104.083 247.8 106.817 248.4 110.05C247.933 120.117 247.233 128.1 246.3 134C245.1 141.6 243.167 148.367 240.5 154.3C239.033 157.633 237.883 159.867 237.05 161C235.417 163.233 233.367 164.5 230.9 164.8C228.267 165.133 225.917 164.3 223.85 162.3C223.083 161.567 221.533 159.5 219.2 156.1C210.767 143.667 207.983 131.3 210.85 119C213.517 107.6 220.733 97.2833 232.5 88.05ZM404.95 139.95C397.583 131.183 387.1 126.017 373.5 124.45C367.767 123.783 362.217 123.9 356.85 124.8C351.617 125.7 347.317 127.217 343.95 129.35C328.65 139.05 321.217 152.083 321.65 168.45C321.85 175.45 323.583 182.317 326.85 189.05C330.017 195.617 334.25 201.283 339.55 206.05C347.517 213.217 357.633 217.167 369.9 217.9C382.1 218.633 392.85 216.033 402.15 210.1C413.917 202.567 419.7 192.017 419.5 178.45C419.467 172.05 418.083 165.25 415.35 158.05C412.65 150.983 409.183 144.95 404.95 139.95ZM339.3 137.3C346.133 131.533 353.567 128.367 361.6 127.8C378.767 126.6 392.183 131.233 401.85 141.7C410.017 150.533 414.783 162.483 416.15 177.55C416.883 185.75 414.4 193.25 408.7 200.05C403.033 206.783 395.767 211 386.9 212.7C385.033 213.067 382.733 213.4 380 213.7C376.9 214.033 374.583 214.283 373.05 214.45C365.55 214.35 358.483 212.7 351.85 209.5C345.517 206.433 340.133 202.2 335.7 196.8C331.233 191.4 328.167 185.383 326.5 178.75C324.767 171.817 324.7 164.8 326.3 157.7C328.1 149.867 332.433 143.067 339.3 137.3ZM350.1 26C347.833 25.7667 346.3 25.6 345.5 25.5C327.233 26.1 311.05 31.0333 296.95 40.3C293.217 42.7667 289.733 46.05 286.5 50.15C284 53.3167 282.617 56.7333 282.35 60.4C282.05 63.9333 282.8 67.5667 284.6 71.3C289.567 81.4333 297.117 87.9833 307.25 90.95C316.083 93.55 325.45 93.4833 335.35 90.75C343.45 88.55 350.317 85.6833 355.95 82.15C362.55 78.0167 367.867 72.8 371.9 66.5C376.933 58.6 377.783 50.5667 374.45 42.4C371.117 34.2333 364.9 29.0667 355.8 26.9C354.233 26.5333 352.333 26.2333 350.1 26ZM352.25 29.9C362.05 31.2333 368.483 35.9833 371.55 44.15C374.617 52.25 373 60.1333 366.7 67.8C355.8 81.0667 340.45 88.1833 320.65 89.15C307.517 89.4167 297.483 84.5667 290.55 74.6C286.95 69.4333 285.35 64.6667 285.75 60.3C286.15 55.7667 288.7 51.55 293.4 47.65C302.1 40.4833 311.283 35.3833 320.95 32.35C331.05 29.2167 341.483 28.4 352.25 29.9ZM577.95 219.4C576.483 220.3 575.45 220.9 574.85 221.2C571.35 222.9 569.333 223.883 568.8 224.15C566.467 225.183 564.383 225.95 562.55 226.45C559.85 227.217 557.533 227.05 555.6 225.95C553.733 224.85 552.467 222.967 551.8 220.3L548.25 225.25C554.917 229.35 561.067 230.617 566.7 229.05C571.8 227.617 576.583 223.833 581.05 217.7C580.25 218.033 579.217 218.6 577.95 219.4ZM504.05 153.65C498.083 154.317 492.65 156.467 487.75 160.1C478.417 167.033 473.1 176.533 471.8 188.6C470.467 200.667 473.583 211.117 481.15 219.95C487.317 227.117 494.883 231.4 503.85 232.8C512.85 234.2 521.017 232.367 528.35 227.3C534.05 223.333 538.2 218.183 540.8 211.85C543.033 206.417 544.317 199.567 544.65 191.3C544.45 189.633 544.283 188.267 544.15 187.2C543.917 185.267 543.633 183.617 543.3 182.25C541.833 176.05 539.017 170.6 534.85 165.9C530.95 161.467 526.267 158.167 520.8 156C515.3 153.8 509.717 153.017 504.05 153.65ZM524.2 186.45C522.533 184.95 521.85 182.883 522.15 180.25C522.383 178.183 523.233 176.6 524.7 175.5C525.967 174.533 527.817 173.85 530.25 173.45L527.25 164.65C529.983 166.017 532.55 168.45 534.95 171.95C537.383 175.483 539.067 179.317 540 183.45C542.433 194.05 541.05 204.183 535.85 213.85C532.983 219.183 529.183 223.2 524.45 225.9C519.817 228.467 514.467 229.717 508.4 229.65C502.167 229.617 496.583 227.95 491.65 224.65C487.05 221.583 482.883 217.017 479.15 210.95C485.583 212.883 490.967 214.033 495.3 214.4C500.967 214.9 506.167 214.317 510.9 212.65C521.233 208.917 527.6 201.133 530 189.3C527.267 188.433 525.333 187.483 524.2 186.45ZM505.45 131.7C501.517 128.967 497.4 128.417 493.1 130.05C488.833 131.65 485.733 134.917 483.8 139.85C488.133 136.717 491.517 134.6 493.95 133.5C497.783 131.767 501.617 131.167 505.45 131.7ZM557.45 111.05C554.017 110.683 551.533 111.083 550 112.25C548.433 113.483 547.767 115.6 548 118.6L557.45 111.05ZM210.05 376.15C207.083 367.583 195.65 350.317 175.75 324.35C156.017 298.65 143.617 284.633 138.55 282.3L210.05 376.15ZM397.8 381.75C396.367 385.817 396.417 389.867 397.95 393.9C399.483 397.933 402.367 401.533 406.6 404.7C415.7 411.433 426.383 415.067 438.65 415.6C446.983 416.033 452.717 413.417 455.85 407.75C459.217 401.817 458.6 395.383 454 388.45C450.067 382.517 445.117 377.85 439.15 374.45C433.817 371.417 427.983 369.517 421.65 368.75C415.35 368.75 410.117 369.933 405.95 372.3C401.917 374.567 399.2 377.717 397.8 381.75ZM401.2 392.55C400 389.25 400.05 385.917 401.35 382.55C402.65 379.183 405.083 376.483 408.65 374.45C412.283 372.383 416.1 371.617 420.1 372.15C432.2 373.65 441.917 378.85 449.25 387.75C449.817 388.417 450.3 389.1 450.7 389.8C452.533 392.8 453.683 395.367 454.15 397.5C454.783 400.4 454.383 403.15 452.95 405.75C451.517 408.317 449.383 410.05 446.55 410.95C444.417 411.617 441.167 411.967 436.8 412C426.033 411.167 416.583 407.717 408.45 401.65C404.85 398.95 402.433 395.917 401.2 392.55ZM354.55 258C356.583 260.333 357.833 261.717 358.3 262.15C359.133 262.95 365.283 268.7 376.75 279.4C384.183 286.3 390.283 292.083 395.05 296.75C397.617 299.217 402.017 303.767 408.25 310.4C413.717 316.267 418.167 320.75 421.6 323.85C430.4 331.817 440.833 338.733 452.9 344.6C462.633 349.3 474.367 353.717 488.1 357.85C490.733 358.65 494.7 359.7 500 361C496.367 359.4 491.333 357.367 484.9 354.9C477.7 352.1 472.683 350.117 469.85 348.95C447.217 339.517 428.783 327.317 414.55 312.35C405.417 302.75 392.383 290.117 375.45 274.45C372.783 271.983 369.333 269.15 365.1 265.95C360.433 262.45 356.917 259.8 354.55 258Z" fill="black"/>
</svg>
