<svg width="164" height="201" viewBox="0 0 164 201" fill="none" xmlns="http://www.w3.org/2000/svg">
<g clip-path="url(#clip0_513_121)">
<path d="M123.061 27.0398C124.232 26.6093 124.908 25.578 125.088 23.946C125.158 23.2952 125.128 22.6995 124.998 22.1588C123.917 17.413 121.914 13.4882 118.991 10.3844C116.087 7.32066 112.308 5.09294 107.652 3.70124C104.578 2.79012 101.634 2.69501 98.8211 3.41589C96.0677 4.12676 93.5146 5.60857 91.1617 7.86133C90.3707 8.62226 89.5147 9.61848 88.5935 10.85C88.0729 11.5609 87.302 12.6372 86.2807 14.0789C85.9803 14.4994 85.73 14.7798 85.5298 14.92C85.2294 15.1202 84.859 15.1953 84.4184 15.1452C82.2858 14.925 80.2734 15.3805 78.381 16.5119C78.0506 16.7021 77.6251 16.7973 77.1045 16.7973C76.7741 16.8073 75.4274 16.8123 73.0645 16.8123C71.4225 16.8123 70.0709 16.8423 69.0096 16.9024C68.2186 16.9424 67.5878 16.8073 67.1173 16.4969C66.6767 16.2065 66.2863 15.6909 65.9458 14.95C65.1148 13.1578 64.5141 11.8963 64.1436 11.1654C63.4227 9.76365 62.7169 8.56218 62.026 7.56096C59.0224 3.22566 55.0725 1.03798 50.1765 0.99793C46.0715 0.957881 42.0967 2.26949 38.252 4.93274C34.4072 7.58599 31.784 10.845 30.3823 14.7097C29.9918 15.801 29.7766 17.2178 29.7365 18.9599C29.7265 19.6407 29.8717 20.2365 30.1721 20.7471C30.5025 21.3278 30.968 21.6682 31.5688 21.7683C31.9993 21.8484 32.5049 21.7884 33.0856 21.5881C33.6263 21.4079 34.0919 21.1526 34.4823 20.8222C34.993 20.4017 35.5787 19.7959 36.2395 19.005C37.1907 17.8836 37.7463 17.2378 37.9065 17.0676C39.5185 15.2754 40.73 13.9388 41.541 13.0577C42.9727 11.5058 44.2493 10.2442 45.3707 9.27305C46.1116 8.63227 46.9876 8.0866 47.9989 7.63605C48.9901 7.1855 49.9813 6.88513 50.9725 6.73495C53.2353 6.39453 55.4029 7.03532 57.4755 8.6573C59.508 10.2492 60.9247 12.3769 61.7257 15.0401C59.3027 15.4907 57.05 16.4168 54.9674 17.8185C53.1151 19.0801 51.348 20.7571 49.6659 22.8497C49.4457 23.11 49.0201 23.4504 48.3894 23.8709C44.7649 26.2739 41.4208 29.2725 38.3571 32.8669C33.2709 38.8242 28.9706 46.2233 25.4563 55.0641C25.1159 55.8951 24.7604 56.3857 24.39 56.5359C16.7707 59.6497 12.936 65.627 12.8859 74.4678C12.8659 77.902 13.4066 81.3763 14.5079 84.8906C15.4791 87.9643 16.9158 91.1733 18.8182 94.5173C19.5491 95.7789 20.5052 97.3058 21.6867 99.0979C22.3475 100.109 23.3587 101.641 24.7204 103.694C21.5665 107.849 19.3088 112.97 17.9471 119.057C17.9071 119.228 17.7819 119.403 17.5717 119.583C17.3814 119.753 17.1812 119.878 16.9709 119.958C14.6681 120.86 13.1412 122.086 12.3903 123.638C11.8296 124.799 11.0086 126.166 9.9273 127.738C9.32657 128.609 8.42546 129.916 7.22399 131.658C7.0638 131.898 6.89359 132.203 6.71337 132.574C6.04255 134.116 5.597 135.352 5.37673 136.283C5.04633 137.685 5.0213 139.002 5.30164 140.233C5.56196 141.345 6.01251 142.091 6.65329 142.471C7.30409 142.851 8.18016 142.877 9.28151 142.546C9.64195 142.436 10.9135 142.005 13.0962 141.255C12.956 141.925 12.8659 142.336 12.8258 142.486C10.6332 149.975 10.2527 157.494 11.6844 165.044C11.7746 165.524 11.7746 165.98 11.6844 166.41C11.6044 166.781 11.4442 167.206 11.2039 167.687C10.9435 168.208 10.7032 168.878 10.483 169.699C10.3528 170.17 10.1676 170.871 9.9273 171.802C9.85721 172.052 9.74708 172.428 9.5969 172.928C9.46674 173.359 9.33157 173.719 9.1914 174.01C7.53938 177.554 5.32667 180.347 2.55328 182.39C2.35303 182.55 2.11775 182.81 1.84741 183.171C1.23667 183.952 0.951319 184.718 0.991368 185.469C1.03142 186.24 1.41689 186.935 2.14778 187.556C3.24913 188.477 4.40554 189.148 5.61703 189.569C9.70202 191.04 14.1024 190.9 18.8182 189.148C19.3388 188.958 19.7844 188.848 20.1548 188.818C20.6154 188.788 21.0709 188.868 21.5215 189.058C23.594 189.929 25.7016 190.149 27.8442 189.719C28.0645 189.669 28.3398 189.694 28.6702 189.794C28.8404 189.834 29.1208 189.934 29.5113 190.094L33.401 191.881C34.9529 192.602 36.2695 193.133 37.3509 193.473C42.9777 195.236 48.9601 196.332 55.2978 196.762C60.9347 197.143 67.0222 197.008 73.5602 196.357C73.6102 196.357 74.5163 196.192 76.2785 195.861C77.3498 195.661 78.2108 195.641 78.8616 195.801C81.5049 196.442 83.0718 196.838 83.5624 196.988C85.3245 197.518 86.8414 198.159 88.1129 198.91C89.7149 199.871 91.3769 200.502 93.099 200.802C94.9213 201.123 96.7285 201.048 98.5207 200.577C100.293 200.117 101.379 199.401 101.78 198.429C102.19 197.448 101.935 196.172 101.014 194.6C101.014 194.59 100.428 193.609 99.2566 191.656C100.078 191.536 101.254 191.366 102.786 191.146C104.118 190.955 105.229 190.765 106.12 190.575C108.152 190.144 109.254 189.924 109.424 189.914C110.656 189.804 111.742 190.064 112.683 190.695C112.753 190.735 112.868 190.765 113.028 190.785C113.229 190.795 113.359 190.81 113.419 190.83C113.779 190.94 114.325 191.085 115.056 191.266C115.697 191.446 116.222 191.636 116.633 191.836C119.256 193.098 121.924 193.579 124.638 193.278C126.28 193.088 127.306 192.562 127.716 191.701C128.117 190.85 127.862 189.734 126.95 188.352C126.91 188.292 126.305 187.271 125.133 185.288C125.564 185.138 125.789 185.063 125.809 185.063C126.63 184.973 127.862 184.748 129.504 184.387C130.935 184.257 132.127 184.668 133.078 185.619C133.208 185.749 133.423 185.844 133.724 185.904C133.904 185.934 134.164 185.979 134.505 186.039C134.855 186.149 135.376 186.305 136.067 186.505C136.677 186.695 137.183 186.88 137.583 187.061C140.107 188.222 142.54 188.492 144.882 187.872C145.763 187.631 146.324 187.216 146.564 186.625C146.805 186.044 146.71 185.343 146.279 184.522C146.019 184.032 145.663 183.491 145.213 182.9C144.852 182.43 144.657 181.969 144.627 181.519C144.597 181.018 144.792 180.638 145.213 180.377C145.633 180.127 146.129 179.962 146.7 179.882C147.28 179.802 147.801 179.827 148.262 179.957C149.253 180.237 150.554 180.673 152.166 181.263C154.119 181.984 155.42 182.45 156.071 182.66C156.341 182.75 156.682 182.795 157.092 182.795C157.202 182.795 157.558 182.775 158.159 182.735C159.881 182.655 160.987 182.185 161.478 181.324C161.968 180.462 161.788 179.291 160.937 177.809C160.697 177.389 160.557 176.988 160.517 176.608C160.466 176.207 160.522 175.772 160.682 175.301C160.802 174.931 160.867 174.43 160.877 173.799C160.897 172.838 160.912 172.318 160.922 172.237C160.942 171.707 160.962 171.306 160.982 171.036C161.022 170.565 161.112 170.19 161.252 169.91C161.913 168.508 162.389 167.336 162.679 166.395C162.829 165.925 163.03 165.174 163.28 164.143C163.5 163.241 163.64 162.626 163.7 162.295C163.821 161.544 163.896 160.793 163.926 160.043C164.016 157.129 163.42 154.366 162.139 151.752C161.708 150.871 161.152 149.925 160.471 148.914C160.061 148.313 159.41 147.422 158.519 146.241L157.768 145.219C157.458 144.809 157.177 144.524 156.927 144.363V144.348C155.135 143.387 153.813 142.681 152.962 142.231C151.48 141.44 150.204 140.804 149.133 140.323C148.502 140.033 147.986 139.728 147.586 139.407C147.125 139.047 146.725 138.596 146.384 138.056C140.918 129.565 133.539 125.385 124.247 125.515C124.027 125.515 123.782 125.45 123.511 125.32C123.251 125.2 123.031 125.05 122.85 124.869C119.566 121.646 115.722 119.288 111.316 117.796C111.066 117.716 110.821 117.53 110.58 117.24C110.36 116.98 110.195 116.699 110.085 116.399C109.875 115.848 109.559 114.902 109.139 113.561C108.758 112.339 108.433 111.398 108.162 110.737C107.952 110.227 107.882 109.811 107.952 109.491C108.022 109.17 108.268 108.835 108.688 108.484C114.595 103.588 119.161 98.3871 122.385 92.8803C124.187 89.7966 125.449 86.873 126.17 84.1096C127.011 80.8857 127.171 77.7068 126.65 74.5729C126.22 71.9597 125.439 69.742 124.307 67.9198C123.046 65.8673 121.324 64.2603 119.141 63.0989C118.68 62.8586 118.36 62.5833 118.18 62.2729C118 61.9625 117.899 61.547 117.879 61.0264C117.779 54.8188 116.898 49.2119 115.236 44.2058C113.634 39.3999 111.612 35.3449 109.169 32.0409C106.375 28.2563 102.946 25.3177 98.8811 23.2251C97.6096 22.5643 96.0226 21.483 94.1203 19.9812C91.9476 18.2691 90.3907 17.1227 89.4496 16.5419C90.5109 14.8299 91.5972 13.4181 92.7086 12.3068C94.0202 10.9952 95.4669 9.98392 97.0489 9.27305C99.8823 8.0015 102.506 8.16169 104.919 9.75364C106.751 10.9751 108.273 12.2567 109.484 13.5983C110.385 14.5896 111.462 15.8761 112.713 17.4581L115.837 21.3929C117.519 23.4554 118.806 24.9823 119.697 25.9735C120.768 27.1349 121.889 27.4903 123.061 27.0398ZM123.121 20.9724C123.401 21.8534 123.456 22.9848 123.286 24.3665C123.216 24.9372 122.986 25.3027 122.595 25.4629C122.205 25.6231 121.784 25.5179 121.334 25.1475C120.513 24.4666 119.611 23.5355 118.63 22.3541C114.906 17.7384 112.097 14.2892 110.205 12.0064C109.744 11.4357 108.938 10.6898 107.787 9.76866C102.851 5.77377 97.995 5.76376 93.2192 9.73862C92.5083 10.3293 91.7073 11.1453 90.8163 12.1866C90.3257 12.7673 89.5847 13.6434 88.5935 14.8148C88.3933 15.0351 88.118 15.3905 87.7675 15.8811L87.302 15.4756C89.004 12.5421 90.7812 10.2643 92.6335 8.64228C94.9063 6.63983 97.5245 5.3883 100.488 4.88769C103.091 4.44715 105.639 4.62236 108.132 5.41333C110.375 6.1242 112.623 7.3457 114.876 9.07781C118.861 12.1616 121.609 16.1264 123.121 20.9724ZM99.0764 30.3138L99.5119 30.1336L97.6496 24.8321C100.033 25.573 102.461 27.3251 104.934 30.0885C107.266 32.6917 109.364 35.8756 111.226 39.6402C113.099 43.3948 114.46 47.1794 115.311 50.9941C116.212 55.0491 116.418 58.6284 115.927 61.7322C112.303 61.0714 108.513 61.1966 104.558 62.1077C101.504 62.8085 97.94 64.1001 93.865 65.9824C94.5158 65.1114 95.0014 64.4556 95.3218 64.015C95.9025 63.2241 96.343 62.5332 96.6434 61.9425C98.4256 58.4682 98.9012 54.4683 98.0701 49.9428C97.4894 46.7289 96.7886 43.8704 95.9676 41.3673C94.9864 38.3937 93.7699 35.7104 92.3181 33.3175C91.2268 31.4952 89.8451 29.8733 88.173 28.4515C86.3308 26.9096 84.3383 26.1487 82.1957 26.1687C80.0631 26.1988 78.0206 26.9947 76.0682 28.5566C77.7503 27.6455 79.2821 27.0798 80.6638 26.8596C82.3359 26.5992 83.9328 26.8195 85.4547 27.5204C86.8965 28.1812 88.193 29.1273 89.3445 30.3588C90.3357 31.4201 91.2868 32.7668 92.1979 34.3988C92.1679 34.3688 91.5822 33.8131 90.4408 32.7318C89.77 32.081 89.1993 31.5653 88.7287 31.1849C86.556 29.4227 84.4084 28.5917 82.2858 28.6918C80.1632 28.7819 78.1157 29.8132 76.1433 31.7856C72.0883 35.8606 69.8106 41.117 69.31 47.5549C69.1397 49.7075 69.1548 51.6549 69.355 53.397C69.5953 55.4495 70.0959 57.3519 70.8568 59.104L61.2901 57.3919C61.8408 56.661 62.1512 56.2505 62.2213 56.1604C66.867 50.4134 68.4339 43.8854 66.922 36.5765C66.1911 33.0121 64.8345 30.6342 62.8521 29.4427C60.8796 28.2613 58.1413 28.1511 54.637 29.1123C56.289 27.3001 58.1964 26.4641 60.359 26.6043C62.5216 26.7444 64.5491 27.8358 66.4414 29.8783C65.8707 28.3864 64.9296 27.2951 63.618 26.6043C62.3164 25.9134 60.8646 25.7332 59.2627 26.0636C56.8898 26.5742 54.5719 27.8007 52.3092 29.7431C49.3455 32.2762 46.9126 34.8143 45.0102 37.3574C42.8075 40.301 41.1855 43.4098 40.1443 46.6838C39.7438 47.8953 39.4634 49.2119 39.3032 50.6337C38.8827 54.7287 40.1593 57.8124 43.1329 59.885L42.8025 60.3205C42.412 60.1903 41.8163 60.0151 41.0153 59.7949C40.3145 59.5846 39.7488 59.3593 39.3183 59.119C37.446 58.0477 35.6688 57.2518 33.9867 56.7311C32.0544 56.1404 30.132 55.8751 28.2197 55.9351C28.1095 55.9452 27.7141 55.9151 27.0332 55.845C27.8743 53.9828 28.5 52.6011 28.9105 51.7C29.6414 50.098 30.2772 48.7714 30.8179 47.7201C34.8928 39.7804 39.7438 33.4126 45.3707 28.6167C46.6222 28.2363 47.8086 27.3602 48.93 25.9885C49.5408 25.2075 49.9963 24.6218 50.2967 24.2314C50.8374 23.5305 51.3229 22.9798 51.7535 22.5793C53.3354 21.0775 54.7171 19.9261 55.8985 19.1251C57.5105 18.0438 59.1375 17.3029 60.7795 16.9024C62.6218 16.4618 64.1837 16.5419 65.4652 17.1427C66.7468 17.7334 67.8281 18.8748 68.7092 20.5669L69.4451 21.9786L69.8206 21.8885L69.0847 18.6595H75.8129L74.3711 21.6632L74.6865 21.8284L75.7078 20.5969C77.55 18.4142 79.6226 17.1277 81.9254 16.7372C84.2182 16.3467 86.6111 16.8673 89.1042 18.2991C90.8863 19.3304 92.5033 20.662 93.9551 22.294C95.2166 23.7257 96.4031 25.4478 97.5145 27.4603L99.0764 30.3138ZM124.908 75.5191C125.228 78.1723 125.028 80.8606 124.307 83.584C123.686 85.9168 122.645 88.3848 121.183 90.988C116.337 99.6586 108.993 107.003 99.1515 113.02C97.8098 113.841 96.1177 114.742 94.0752 115.723C91.7424 116.815 90.0003 117.641 88.8489 118.201C88.6786 118.281 88.4534 118.372 88.173 118.472C87.6824 118.632 87.4021 118.722 87.332 118.742L91.387 113.951L91.0566 113.636L88.143 116.234C85.3095 118.727 82.5361 120.764 79.8228 122.346C76.699 124.149 73.5101 125.445 70.2561 126.236C58.1713 129.17 48.2642 125.485 40.5347 115.183C39.8839 114.272 39.3933 113.586 39.0629 113.125C38.4622 112.304 37.9215 111.628 37.441 111.098L38.312 113.681C37.9215 113.521 37.6963 113.42 37.6362 113.38C32.1595 108.985 27.664 104.359 24.1497 99.5034C20.2549 94.1169 17.4565 88.3098 15.7544 82.0821C14.3928 77.1361 14.2976 72.5955 15.4691 68.4605C16.0999 66.2077 17.1712 64.2403 18.683 62.5582C20.1248 60.9463 21.8419 59.7298 23.8343 58.9088C25.8268 58.0878 27.8943 57.7424 30.0369 57.8725C32.2796 58.0127 34.4123 58.6635 36.4347 59.8249C36.4548 59.8349 36.5699 59.935 36.7802 60.1253L31.0582 61.7623L31.1332 62.0176L42.0366 60.9663L42.0516 61.3418L36.0292 65.637L36.2845 66.0425C46.0165 60.1453 55.9536 58.1378 66.096 60.0201C71.1822 60.9513 75.913 63.0238 80.2884 66.2377C83.9629 68.921 87.6223 72.6005 91.2668 77.2762L91.6873 76.9158L86.9415 69.9623C89.0541 70.4028 91.0866 71.2389 93.039 72.4704C94.5809 73.4516 96.2479 74.8032 98.0401 76.5253C97.3192 75.0736 96.2829 73.772 94.9313 72.6206C93.8299 71.6794 92.3581 70.7182 90.5159 69.737C90.636 69.677 91.7624 69.1363 93.895 68.115C95.1766 67.4943 96.2429 66.9937 97.0939 66.6132C101.079 64.8611 105.209 63.7447 109.484 63.2641C113.679 62.7935 117.174 63.6696 119.967 65.8923C122.75 68.105 124.397 71.314 124.908 75.5191ZM104.693 111.638L106.045 110.707C108.308 115.123 109.379 120.519 109.259 126.897C109.139 133.295 107.867 137.95 105.444 140.864C103.912 137.47 101.945 135.252 99.5419 134.211C97.119 133.16 94.701 133.49 92.2881 135.202C93.9701 134.842 95.3668 134.686 96.4782 134.737C97.96 134.807 99.2766 135.222 100.428 135.983C101.67 136.814 102.576 137.865 103.146 139.137C103.677 140.328 103.927 141.765 103.897 143.447C103.497 143.097 103.271 142.892 103.221 142.831C100.498 139.858 97.3943 139.252 93.91 141.014C90.6861 142.636 88.6386 145.159 87.7675 148.583C86.9665 151.767 88.0028 154.055 90.8763 155.447C89.6148 155.597 88.3833 155.147 87.1818 154.095C86.0004 153.074 85.1844 151.777 84.7338 150.205C84.3634 148.894 84.2833 147.452 84.4935 145.88C84.6337 144.849 84.9791 143.402 85.5298 141.54C83.7476 143.342 83.0067 145.6 83.3071 148.313C83.6074 151.026 84.904 153.72 87.1968 156.393C85.3245 156.934 83.9278 157.334 83.0067 157.595C81.4248 158.035 80.0531 158.396 78.8917 158.676C78.7215 158.716 78.4912 158.621 78.2008 158.39C77.9105 158.16 77.7102 157.925 77.6001 157.685C75.7879 153.89 75.052 149.555 75.3924 144.679C75.913 137.129 78.0707 130.181 81.8653 123.833C82.2157 123.242 82.6262 122.772 83.0968 122.421C83.5574 122.061 84.1331 121.781 84.8239 121.58C91.7624 119.538 98.3855 116.224 104.693 111.638ZM63.8132 15.1753C63.4528 14.4744 63.2325 14.0339 63.1524 13.8537C62.4516 12.3218 61.6856 11.0102 60.8546 9.91884C59.8934 8.6573 58.7921 7.61102 57.5506 6.78C54.3767 4.64739 51.0576 4.36705 47.5934 5.93897C46.0415 6.64984 44.5296 7.65608 43.0578 8.95767C41.9465 9.93887 40.6899 11.2605 39.2882 12.9225C37.3358 15.2253 35.4585 17.363 33.6563 19.3354C33.4961 19.5056 33.2458 19.6708 32.9054 19.831C32.7152 19.9111 32.4248 20.0412 32.0343 20.2214C31.8341 19.831 31.6839 19.5406 31.5838 19.3504C31.4136 19 31.3385 18.7196 31.3585 18.5094C31.4787 17.4481 31.5788 16.7322 31.6589 16.3617C31.8091 15.5507 32.0243 14.8749 32.3047 14.3342C35.9692 7.3457 41.526 3.46595 48.9751 2.69501C51.9287 2.39464 54.622 3.10551 57.055 4.82762C58.727 6.00906 60.1788 7.52091 61.4103 9.36316C62.4115 10.855 63.3477 12.7123 64.2187 14.935L63.8132 15.1753ZM57.3103 29.4728C58.8021 29.0623 60.1738 29.1474 61.4253 29.7281C62.6468 30.2988 63.6731 31.29 64.5041 32.7017C65.225 33.9232 65.7506 35.3399 66.081 36.9519C66.3113 38.0833 66.4715 39.5351 66.5616 41.3072C66.4114 47.3046 64.439 52.3708 60.6444 56.5058C60.4041 56.7762 60.0737 57.0014 59.6531 57.1817C59.2526 57.3719 58.8622 57.477 58.4817 57.4971C54.0363 57.7774 50.0714 58.5133 46.5872 59.7048C46.2668 59.8149 45.8913 59.8499 45.4608 59.8099C45.0403 59.7698 44.6798 59.6647 44.3795 59.4945C42.7074 58.6034 41.5059 57.3369 40.775 55.6948C40.0441 54.0328 39.889 52.1906 40.3095 50.1681C41.8313 42.739 45.5259 36.7417 51.393 32.1761C52.8248 31.0647 54.7972 30.1636 57.3103 29.4728ZM72.2536 59.5696C71.9732 59.2993 71.798 59.0289 71.7279 58.7586C71.4075 57.5771 71.0471 56.1354 70.6466 54.4333C70.196 52.5009 69.8556 51.0492 69.6253 50.078L70.0459 49.9879C70.136 44.0806 71.833 38.8442 75.1371 34.2786C75.9581 33.1372 76.9293 32.136 78.0506 31.275C80.6839 29.2425 83.4823 29.0673 86.4459 30.7493C88.6586 32.0209 90.5459 33.9182 92.1078 36.4413C95.3818 41.7478 97.159 47.1494 97.4394 52.6461C97.5695 55.3194 97.3092 57.6272 96.6584 59.5696C95.8875 61.8624 94.5358 63.7647 92.6034 65.2766C90.591 66.8585 88.0028 67.5744 84.8389 67.4242C84.4685 67.4142 84.038 67.2039 83.5474 66.7934C80.4336 64.02 76.9443 61.8073 73.0796 60.1553C72.7892 60.0251 72.5139 59.8299 72.2536 59.5696ZM39.904 117.465C39.914 117.455 40.0492 117.375 40.3095 117.225C45.7061 124.023 51.8786 127.903 58.8271 128.864C65.225 129.735 72.4037 128.143 80.3635 124.089C77.3298 129.785 75.4174 135.517 74.6265 141.285C74.1859 144.529 74.1309 147.547 74.4613 150.341C74.8317 153.474 75.6978 156.473 77.0594 159.337C74.6665 159.527 72.8993 159.662 71.7579 159.742C69.7355 159.902 68.0384 159.992 66.6667 160.012C58.2264 160.143 50.3518 159.006 43.0428 156.603C40.0992 155.632 37.7614 154.11 36.0292 152.038C34.3372 150.005 33.2508 147.482 32.7702 144.468C32.0093 139.713 32.3047 134.987 33.6563 130.291C34.8678 126.096 36.9504 121.821 39.904 117.465ZM25.8468 105.255L38.4922 116.775C37.9916 117.826 37.1907 119.458 36.0893 121.671C35.0981 123.683 34.3221 125.415 33.7615 126.867C31.0982 133.735 30.5425 140.203 32.0944 146.271C32.3347 147.202 32.7602 148.328 33.371 149.65C33.7114 150.391 34.217 151.492 34.8878 152.954C30.1721 150.331 26.4425 147.082 23.6991 143.207C27.5539 140.964 29.3561 137.54 29.1058 132.934L28.7453 134.136C28.3348 135.598 27.8693 136.804 27.3486 137.755C26.6878 138.977 25.8568 139.973 24.8556 140.744C23.554 141.755 22.1523 142.276 20.6504 142.306C19.1286 142.346 17.7919 141.875 16.6405 140.894C17.4014 140.814 17.867 140.769 18.0372 140.759C19.7693 140.679 21.096 140.253 22.0171 139.482C22.9482 138.691 23.559 137.445 23.8493 135.743C24.41 132.419 23.6441 129.515 21.5515 127.032C19.6392 124.779 17.2563 124.094 14.4028 124.975L13.3665 125.26C14.5079 122.627 16.2851 121.245 18.698 121.115C21.121 120.995 23.9294 122.151 27.1233 124.584C26.3224 123.062 25.3011 121.886 24.0596 121.055C22.9182 120.284 21.5115 119.763 19.8394 119.493C21.0209 113.886 23.0233 109.14 25.8468 105.255ZM89.8401 147.472C91.0215 144.909 92.9088 143.152 95.502 142.201C96.9137 141.68 98.2253 141.64 99.4368 142.081C100.648 142.521 101.645 143.397 102.425 144.709C103.076 145.81 103.547 147.042 103.837 148.403C104.077 149.545 104.203 150.856 104.213 152.338C104.243 155.372 103.627 157.96 102.365 160.103C101.775 161.104 101.199 161.624 100.638 161.665C100.058 161.705 99.4318 161.259 98.761 160.328C96.8887 157.715 94.6159 155.672 91.9426 154.2C89.1893 152.678 88.4884 150.436 89.8401 147.472ZM51.7084 160.748C54.4718 161.239 57.6807 161.529 61.3352 161.619C64.419 161.7 68.8494 161.644 74.6265 161.454C71.0921 167.612 69.0046 172.978 68.3638 177.554C67.5228 183.491 68.7943 189.168 72.1785 194.585C71.1973 194.655 70.4564 194.705 69.9557 194.735C69.0647 194.795 68.3087 194.83 67.688 194.84C61.8608 194.98 56.6995 194.83 52.204 194.39C46.7073 193.849 41.6361 192.848 36.9904 191.386C33.1657 190.184 30.1871 188.232 28.0545 185.529C25.9519 182.865 24.7304 179.541 24.39 175.557C23.7492 167.937 26.0971 160.859 31.4336 154.321C31.5638 154.14 31.6989 153.995 31.8391 153.885C31.8792 153.855 31.9693 153.815 32.1094 153.765C36.685 155.827 40.2844 157.334 42.9077 158.285C46.0114 159.427 48.945 160.248 51.7084 160.748ZM88.7287 157.564C89.8401 157.194 91.0716 157.159 92.4232 157.459C93.8249 157.77 94.8862 158.345 95.6071 159.186C95.7673 159.377 96.1478 159.842 96.7485 160.583C97.2091 161.164 97.5945 161.619 97.9049 161.95C99.7672 163.982 101.564 163.902 103.297 161.71C104.969 159.607 105.835 157.094 105.895 154.17C105.915 153.369 105.845 152.253 105.684 150.821C105.504 149.239 105.409 148.123 105.399 147.472C105.379 145.96 105.604 144.694 106.075 143.672C106.606 142.521 107.296 141.154 108.147 139.572C109.109 137.8 109.82 136.479 110.28 135.608C111.431 137.149 112.348 139.953 113.028 144.018C113.769 148.443 113.894 152.699 113.404 156.784C112.182 167.036 108.062 175.602 101.044 182.48C100.093 179.566 98.8411 177.549 97.2892 176.428C95.7273 175.296 93.6147 174.891 90.9514 175.211L92.3932 175.526C94.716 175.947 96.4982 176.868 97.7397 178.29C98.9913 179.722 99.5169 181.449 99.3167 183.471C99.2165 184.542 98.756 185.759 97.935 187.121L97.7998 186.835C97.7497 186.715 97.7197 186.615 97.7097 186.535C97.139 182.78 94.726 181.013 90.4708 181.233C88.1079 181.344 85.9854 182.125 84.103 183.576C82.2308 185.028 81.0593 186.78 80.5887 188.833C80.3585 189.844 80.4085 190.88 80.7389 191.942C80.9892 192.723 81.4548 193.659 82.1356 194.75C79.973 194.77 78.2309 193.909 76.9092 192.167C75.5976 190.435 75.2072 188.472 75.7378 186.28C76.0482 184.998 76.6139 183.752 77.4349 182.54C78.0757 181.579 78.9567 180.528 80.0781 179.386C80.5587 178.946 80.9442 178.59 81.2345 178.32C80.1832 178.48 78.9868 179.251 77.6451 180.633C76.3135 182.004 75.3624 183.436 74.7917 184.928C73.5301 188.212 74.0057 191.206 76.2184 193.909C75.4174 194.309 74.7015 194.39 74.0708 194.149C73.5401 193.939 73.0145 193.473 72.4938 192.753C71.0921 190.83 70.141 188.688 69.6404 186.325C69.1998 184.232 69.1047 181.904 69.355 179.341C69.9658 172.743 72.1284 167.026 75.8429 162.19C76.2935 161.599 76.9693 161.159 77.8704 160.869C78.8817 160.548 80.6939 160.002 83.3071 159.232C85.6099 158.551 87.4171 157.995 88.7287 157.564ZM22.6178 133.745L22.3325 133.926C22.2724 134.236 22.1873 134.702 22.0772 135.322C21.967 135.873 21.8519 136.328 21.7317 136.689C21.4614 137.5 21.0509 138.111 20.5002 138.521C19.9095 138.942 19.1936 139.132 18.3526 139.092C15.1687 138.932 12.11 139.492 9.17638 140.774C8.42546 141.104 7.85977 141.134 7.47931 140.864C7.10885 140.604 6.89859 140.048 6.84853 139.197C6.71837 137.094 7.41923 134.737 8.95111 132.123C10.483 129.51 12.2001 127.758 14.1024 126.867C15.3539 126.276 16.5554 126.126 17.7068 126.416C18.8983 126.717 19.8444 127.443 20.5453 128.594C20.9258 129.225 21.3062 130.061 21.6867 131.102C21.8969 131.693 22.2073 132.574 22.6178 133.745ZM21.3563 143.793C21.4364 143.783 21.5365 143.818 21.6567 143.898C21.7768 143.978 21.8719 144.068 21.942 144.168C24.2749 147.492 27.2535 150.386 30.8779 152.849C26.7829 158.556 24.3299 163.917 23.5189 168.933C22.5578 174.781 23.7192 180.558 27.0032 186.265C23.9695 184.302 21.2912 181.524 18.9684 177.929C16.7557 174.495 15.0736 170.645 13.9222 166.38C12.7608 162.115 12.2551 157.9 12.4053 153.735C12.5755 149.369 13.4516 145.49 15.0335 142.096C16.1349 142.766 17.1361 143.242 18.0372 143.522C19.1586 143.863 20.2649 143.953 21.3563 143.793ZM11.7595 175.211C11.349 173.058 11.5443 170.906 12.3453 168.753C14.9284 176.893 19.504 183.366 26.0721 188.172C21.2762 188.012 17.3564 185.649 14.3127 181.083C12.971 179.081 12.12 177.123 11.7595 175.211ZM13.1713 182.42C14.5429 184.332 16.2851 186.064 18.3977 187.616C17.837 187.746 17.076 187.927 16.1149 188.157C15.3039 188.357 14.6331 188.492 14.1024 188.562C10.4179 189.053 7.24902 188.627 4.59578 187.286C3.44437 186.715 2.82862 186.119 2.74852 185.499C2.65841 184.878 3.09895 184.172 4.07013 183.381C5.46184 182.26 6.60323 181.173 7.49432 180.122C8.58566 178.851 9.44671 177.504 10.0775 176.082C10.8084 178.445 11.8396 180.558 13.1713 182.42ZM87.302 183.681C88.3532 183.231 89.3745 182.996 90.3657 182.976C92.3581 182.966 93.7549 183.266 94.5558 183.877C95.3168 184.457 95.8224 185.564 96.0727 187.196C96.4732 189.819 97.5795 192.522 99.3918 195.306C100.123 196.427 100.368 197.268 100.128 197.829C99.8773 198.389 99.0914 198.75 97.7698 198.91C95.0665 199.25 92.5284 198.995 90.1555 198.144C87.8226 197.303 85.7 195.901 83.7877 193.939C82.6062 192.717 82.0606 191.351 82.1507 189.839C82.2308 188.347 82.8966 186.995 84.1481 185.784C85.0893 184.883 86.1405 184.182 87.302 183.681ZM155.425 145.835C155.565 146.035 155.696 146.201 155.816 146.331C156.547 147.132 157.523 148.413 158.744 150.175C159.165 150.766 159.515 151.307 159.796 151.797C160.126 152.398 160.441 153.104 160.742 153.915C161.783 156.758 162.088 159.287 161.658 161.499C161.618 161.68 161.608 161.975 161.628 162.385C161.638 162.606 161.648 162.871 161.658 163.181L159.54 169.534L155.335 169.054C157.468 170.305 158.729 171.156 159.12 171.607C159.52 172.057 159.6 172.743 159.36 173.664C158.419 172.793 157.468 172.287 156.507 172.147C155.545 172.007 154.504 172.217 153.383 172.778C152.091 173.429 151.235 174.23 150.815 175.181C150.394 176.132 150.279 177.514 150.469 179.326C149.128 178.765 148.447 178.025 148.427 177.103C148.397 176.192 149.017 174.355 150.289 171.592C149.208 172.002 148.387 172.713 147.826 173.724C147.265 174.746 146.935 176.142 146.835 177.914C146.584 177.914 146.394 177.914 146.264 177.914C146.034 177.904 145.869 177.859 145.768 177.779C145.508 177.569 145.358 177.023 145.318 176.142C145.288 175.271 145.383 174.68 145.603 174.37C150.479 167.792 152.301 160.118 151.07 151.347C150.89 150.105 150.569 148.568 150.109 146.736C149.548 144.634 149.133 143.017 148.862 141.885L155.425 145.835ZM153.052 175.106C153.683 174.595 154.569 174.185 155.711 173.874C156.221 173.724 156.672 173.764 157.062 173.995C157.433 174.205 157.723 174.575 157.933 175.106C158.494 176.548 158.98 177.689 159.39 178.53C159.851 179.461 159.906 180.127 159.555 180.528C159.185 180.948 158.279 181.168 156.837 181.188C156.196 180.948 155.656 180.738 155.215 180.558C154.394 180.217 153.713 179.867 153.173 179.506C152.311 178.936 151.871 178.225 151.851 177.374C151.841 176.523 152.241 175.767 153.052 175.106ZM127.852 131.387C126.84 129.675 126.084 128.369 125.584 127.468C127.776 127.307 130.164 127.733 132.748 128.744C139.065 131.207 143.671 135.763 146.564 142.411C151.25 153.204 150.579 163.266 144.552 172.598C144.212 173.129 143.881 173.459 143.561 173.589C143.19 173.749 142.72 173.699 142.149 173.439C141.839 173.289 141.453 173.214 140.993 173.214C140.712 173.204 140.277 173.229 139.686 173.289C141.398 173.98 142.51 174.57 143.02 175.061C143.971 175.952 144.297 177.219 143.996 178.861C143.025 177.409 141.864 176.608 140.512 176.458C139.381 176.337 138.079 176.673 136.607 177.464C135.256 178.195 134.355 179.111 133.904 180.212C133.433 181.364 133.478 182.685 134.039 184.177C132.958 183.807 132.202 183.261 131.771 182.54C131.321 181.799 131.251 180.943 131.561 179.972C131.771 179.311 132.122 178.54 132.612 177.659C133.183 176.688 133.594 175.967 133.844 175.496C131.551 176.217 130.239 178.5 129.909 182.345L126.71 183.036C126.62 182.064 126.555 181.349 126.515 180.888C126.445 180.067 126.4 179.386 126.38 178.846C126.37 178.575 126.525 178.225 126.845 177.794C129.539 174.05 131.451 170.01 132.582 165.674C133.674 161.529 134.059 157.069 133.739 152.293C133.529 149.099 133.143 146.201 132.582 143.597C131.952 140.604 131.055 137.835 129.894 135.292C129.403 134.211 128.723 132.909 127.852 131.387ZM111.121 132.394C110.921 132.013 110.821 131.638 110.821 131.267C110.791 128.804 110.776 125.11 110.776 120.184C110.776 120.154 110.816 119.978 110.896 119.658C115.231 120.99 119.011 123.423 122.235 126.957C127.261 132.494 130.28 139.182 131.291 147.022C131.861 151.427 132.057 155.207 131.876 158.36C131.646 162.425 130.8 166.12 129.338 169.444C128.878 170.475 128.262 171.702 127.491 173.124C127.061 173.904 126.44 175.021 125.629 176.473L119.622 174.821L119.561 175.151C120.072 175.431 120.848 175.827 121.889 176.337C122.81 176.808 123.536 177.264 124.067 177.704C124.748 178.255 125.133 178.996 125.223 179.927C125.293 180.808 125.103 181.699 124.653 182.6C123.511 180.888 122.27 179.842 120.928 179.461C119.586 179.091 118.01 179.351 116.197 180.242C114.375 181.143 113.194 182.295 112.653 183.696C112.122 185.108 112.207 186.84 112.908 188.893C111.406 188.693 110.315 188.002 109.634 186.82C108.943 185.619 108.888 184.267 109.469 182.765C109.749 182.044 110.195 181.203 110.806 180.242C111.497 179.211 111.987 178.445 112.278 177.944C110.636 178.285 109.424 179.471 108.643 181.504C107.852 183.586 107.797 185.854 108.478 188.307L98.9112 189.749L98.5357 189.268C99.2366 188.137 99.7672 187.286 100.128 186.715C100.758 185.704 101.354 184.923 101.915 184.372C111.917 174.46 116.413 162.25 115.401 147.742C115.031 142.396 113.604 137.28 111.121 132.394ZM139.551 178.275C140.272 178.115 140.852 178.19 141.293 178.5C141.704 178.78 142.049 179.301 142.329 180.062C142.96 181.834 143.581 183.286 144.192 184.417C144.622 185.208 144.777 185.729 144.657 185.979C144.537 186.24 144.031 186.43 143.14 186.55L142.434 186.595C141.263 186.465 140.252 186.255 139.401 185.964C138.329 185.604 137.403 185.088 136.622 184.417C135.731 183.666 135.291 182.83 135.301 181.909C135.311 180.978 135.781 180.167 136.712 179.476C137.413 178.946 138.359 178.545 139.551 178.275ZM123.121 184.162C123.351 184.933 123.691 185.779 124.142 186.7C124.422 187.281 124.853 188.097 125.434 189.148C125.904 190.009 126.064 190.605 125.914 190.935C125.754 191.276 125.188 191.521 124.217 191.671C124.037 191.691 123.812 191.711 123.541 191.731C123.221 191.741 122.976 191.751 122.805 191.761C119.932 191.541 117.544 190.665 115.642 189.133C114.42 188.152 113.819 187.046 113.839 185.814C113.849 184.593 114.485 183.511 115.747 182.57C116.588 181.949 117.529 181.519 118.57 181.279C119.942 180.958 120.943 181.013 121.574 181.444C122.175 181.844 122.69 182.75 123.121 184.162ZM81.5649 43.3648C80.3635 43.535 79.3823 44.2058 78.6213 45.3772C77.8604 46.5487 77.5901 47.8152 77.8104 49.1769C77.8304 49.307 77.8804 49.5023 77.9605 49.7626C78.2809 51.0442 78.8967 52.0654 79.8078 52.8263C80.7289 53.5873 81.7352 53.9027 82.8265 53.7725C83.9779 53.6423 84.919 53.0917 85.6499 52.1205C86.3908 51.1393 86.7563 49.9428 86.7463 48.5311C86.7463 48.2407 86.7313 47.9954 86.7012 47.7952C86.501 46.4135 85.8952 45.2921 84.884 44.4311C83.8828 43.56 82.7764 43.2046 81.5649 43.3648ZM79.973 44.9267C80.2734 44.5562 80.6939 44.381 81.2345 44.401C81.7852 44.4211 82.1907 44.6413 82.451 45.0618C82.6913 45.4523 82.8315 46.0581 82.8715 46.8791C82.7414 46.9792 82.5061 47.2045 82.1657 47.5549C81.8253 47.8753 81.5149 48.0555 81.2345 48.0955C80.7039 48.1656 80.2834 48.0054 79.973 47.615C79.7027 47.2745 79.5675 46.824 79.5675 46.2633C79.5575 45.7126 79.6927 45.2671 79.973 44.9267ZM59.3227 42.2834C58.2114 42.2934 57.2902 42.739 56.5594 43.6201C55.8285 44.5112 55.468 45.6175 55.478 46.9391C55.488 48.2708 55.8885 49.4021 56.6795 50.3333C57.4805 51.2744 58.4517 51.75 59.5931 51.76C60.6944 51.7801 61.6356 51.3445 62.4165 50.4534C63.1875 49.5623 63.5679 48.481 63.5579 47.2095C63.5579 45.8778 63.1374 44.7214 62.2964 43.7402C61.4553 42.759 60.4641 42.2734 59.3227 42.2834ZM56.7095 44.8666C56.7396 44.3259 56.8847 43.9054 57.1451 43.6051C57.4254 43.2646 57.8209 43.0994 58.3315 43.1094C58.8722 43.1295 59.2827 43.3497 59.563 43.7703C59.8033 44.1407 59.9735 44.7264 60.0737 45.5274C59.9335 45.6476 59.6882 45.8878 59.3378 46.2483C58.9873 46.5587 58.6669 46.7639 58.3766 46.864C57.9661 47.0042 57.5756 46.839 57.2051 46.3684C56.8247 45.9079 56.6595 45.4073 56.7095 44.8666ZM22.0171 74.1975C22.2674 72.2451 22.793 70.9836 23.594 70.4129C24.405 69.8321 25.7266 69.7971 27.5589 70.3077C26.7879 69.6369 26.022 69.2564 25.2611 69.1663C24.5202 69.0862 23.8393 69.2915 23.2186 69.7821C22.5377 70.3127 22.0772 71.0186 21.8369 71.8997C21.5966 72.7808 21.6566 73.5467 22.0171 74.1975ZM112.262 79.3338C112.152 78.5728 111.837 77.9471 111.316 77.4565C110.285 76.4853 109.209 76.1899 108.087 76.5704L110.656 78.0722C110.636 78.0822 110.61 78.1173 110.58 78.1774C110.61 78.1573 110.641 78.1373 110.671 78.1173L111.962 81.4664C112.262 80.7655 112.363 80.0546 112.262 79.3338ZM103.402 82.7129C102.11 83.7041 100.473 85.0608 98.4906 86.7829C95.9275 88.9956 94.3105 90.3773 93.6397 90.9279C87.7025 95.854 81.5599 99.2031 75.2122 100.975C68.494 102.848 61.4804 102.973 54.1714 101.351C47.7936 99.939 42.5522 97.5511 38.4472 94.1869C34.0718 90.5925 30.898 85.8067 28.9255 79.8294C28.3048 77.9671 27.4437 75.7894 26.3424 73.2964C26.1822 72.9359 25.9169 72.5204 25.5464 72.0499C25.0858 71.4992 24.7404 71.0636 24.5101 70.7433C24.8105 71.5643 25.246 72.7307 25.8167 74.2425C26.3073 75.5441 26.6928 76.6505 26.9732 77.5616C27.8442 80.325 28.6102 82.5127 29.271 84.1246C30.2422 86.4675 31.3285 88.515 32.53 90.2671C33.0506 91.0181 33.6964 92.0493 34.4673 93.3609C35.3985 94.9329 36.0292 95.9741 36.3596 96.4847C36.9604 97.4159 37.8364 98.8226 38.9879 100.705C40.0191 102.347 40.9653 103.684 41.8263 104.715C46.1817 109.951 50.8874 113.29 55.9436 114.732C60.9998 116.184 66.6367 115.798 72.8543 113.576C78.341 111.633 83.1569 108.63 87.302 104.565C91.1166 100.83 94.4006 96.1644 97.154 90.5675C97.3543 90.157 97.4894 89.8917 97.5595 89.7715C97.7297 89.4712 97.9099 89.2409 98.1002 89.0807C103.447 84.4851 107.457 81.0358 110.13 78.733C110.21 78.6629 110.3 78.5578 110.4 78.4176C110.47 78.3075 110.53 78.2274 110.58 78.1774C109.769 78.678 108.573 79.3938 106.991 80.325C105.519 81.2161 104.323 82.012 103.402 82.7129ZM37.9215 96.68L37.8314 96.3946C58.1263 108.299 77.0795 106.867 94.691 92.0994C94.691 92.1294 94.701 92.2295 94.721 92.3997C94.721 92.4899 94.711 92.5549 94.691 92.595C90.6661 99.5635 85.72 104.975 79.8528 108.83C79.4323 109.1 79.0318 109.26 78.6514 109.31C78.2609 109.35 77.8304 109.28 77.3598 109.1C68.0084 105.536 58.3515 105.16 48.3894 107.974C47.8687 108.124 47.4132 108.144 47.0227 108.034C46.6622 107.924 46.2868 107.683 45.8963 107.313C42.9127 104.46 40.2544 100.915 37.9215 96.68ZM62.8671 107.028C67.753 107.208 72.619 108.209 77.4649 110.031C72.7792 112.905 67.7831 114.312 62.4766 114.251C56.8197 114.191 51.9938 112.419 47.9989 108.935C53.0451 107.493 58.0011 106.857 62.8671 107.028Z" fill="black"/>
</g>
<defs>
<clipPath id="clip0_513_121">
<rect width="164" height="201" fill="white"/>
</clipPath>
</defs>
</svg>
