<svg width="618" height="715" viewBox="0 0 618 715" fill="none" xmlns="http://www.w3.org/2000/svg">
    <path d="M21.95 471.4C29.45 471.267 34.6 469.233 37.4 465.3C36.7667 465 35.8 464.55 34.5 463.95C33.3667 463.417 32.45 462.917 31.75 462.45C31.05 461.95 30.1667 461.217 29.1 460.25C27.8667 459.05 27.0167 458.267 26.55 457.9C25.75 457.267 24.8667 456.867 23.9 456.7C20.2667 456.133 16.8 456.7 13.5 458.4C10.2 460.1 7.61667 462.633 5.75 466C9.08333 469.767 14.4833 471.567 21.95 471.4Z" fill="white"/>
    <path d="M42.35 317.45C40.95 314.85 39.55 313 38.15 311.9C35.95 310.167 32.1833 310.25 26.85 312.15C21.55 314.05 18.3167 316.383 17.15 319.15C16.8833 319.75 16.9167 320.617 17.25 321.75C17.55 322.917 17.9667 323.617 18.5 323.85C22.7333 325.983 27.15 327.1 31.75 327.2C36.15 327.267 40.95 326.417 46.15 324.65C44.4167 321.35 43.15 318.95 42.35 317.45Z" fill="white"/>
    <path d="M45.8 618.7C51.1667 616.1 54.65 612.417 56.25 607.65C55.65 607.683 54.85 607.7 53.85 607.7C53.05 607.7 52.4 607.75 51.9 607.85C48.6667 608.617 46.0333 608.933 44 608.8C41.2333 608.633 38.6833 607.683 36.35 605.95C34.45 604.517 31.45 604.75 27.35 606.65C23.25 608.55 21.0167 610.733 20.65 613.2C20.2833 615.633 21.1667 617.333 23.3 618.3C24.5 618.867 26.4333 619.55 29.1 620.35C29.5333 620.45 29.85 620.533 30.05 620.6C35.2833 621.9 40.5333 621.267 45.8 618.7Z" fill="white"/>
    <path d="M71.5 390.4C72.0667 381.767 72.2667 370.717 72.1 357.25C72.0667 356.35 71.6667 355.217 70.9 353.85C69.9667 352.35 69.3167 351.217 68.95 350.45L66.75 351.1C65.9833 354.4 65.5833 356.117 65.55 356.25C65.0167 359.083 64.2167 363.333 63.15 369C62.2167 374.067 61.3667 378.3 60.6 381.7C56.4 399.9 48.1833 418.483 35.95 437.45C34.1167 440.283 32.8167 442.85 32.05 445.15C31.05 448.05 30.7333 450.933 31.1 453.8C31.3333 455.667 31.9167 457.067 32.85 458C33.8167 458.933 35.2667 459.433 37.2 459.5C42.9667 459.733 48.0667 457.383 52.5 452.45C59.0333 445.25 63.7833 435.517 66.75 423.25C69.1167 413.417 70.7 402.467 71.5 390.4Z" fill="white"/>
    <path d="M68.55 500.35C68.45 496.617 66.4667 494.683 62.6 494.55C61 494.517 60.15 495.15 60.05 496.45C59.9833 497.183 60.0667 498.333 60.3 499.9C60.2333 510.233 59.85 518.8 59.15 525.6C58.2167 534.867 56.5167 543.25 54.05 550.75C51.8167 557.417 48.1333 567.017 43 579.55C41.2667 583.75 40.1333 587.05 39.6 589.45C38.7667 593.15 38.7167 596.6 39.45 599.8C39.65 600.7 40.1833 601.6 41.05 602.5C41.95 603.4 42.8333 603.95 43.7 604.15C47.2 604.983 50.4667 604.733 53.5 603.4C56.5667 602.067 58.95 599.817 60.65 596.65C62.35 593.483 63.6 590.933 64.4 589C65.6333 586.1 66.4167 583.433 66.75 581C67.65 574.233 68.5333 565.967 69.4 556.2C70.3667 545.2 71.1 536.933 71.6 531.4L70.3 531.25C69.8333 524.383 69.5 519.233 69.3 515.8C68.9333 509.833 68.6833 504.683 68.55 500.35Z" fill="white"/>
    <path d="M116 227.45C111.4 237.817 104.717 247.9 95.95 257.7C89.6833 264.733 80.9 273.05 69.6 282.65C61.1333 289.783 53.9167 296.6 47.95 303.1C45.7833 305.433 44.5833 308.083 44.35 311.05C44.0833 313.817 44.6667 316.083 46.1 317.85C47.3333 319.417 49.3833 320.283 52.25 320.45C55.15 320.617 58.0833 320.05 61.05 318.75C68.9167 315.283 76.0333 309.917 82.4 302.65C87.4 296.917 92.2 289.75 96.8 281.15C98.2333 278.417 101.967 270.65 108 257.85C112.8 247.617 116.283 239.733 118.45 234.2C118.783 233.333 118.867 232.1 118.7 230.5C118.4 228.533 118.217 226.983 118.15 225.85C116.717 226.883 116 227.417 116 227.45Z" fill="white"/>
    <path d="M144.15 450.15C143.85 448.383 143.283 446.233 142.45 443.7C141.45 440.733 140.683 438.433 140.15 436.8C138.983 437.833 137.467 439.2 135.6 440.9C134.033 442.3 132.717 443.383 131.65 444.15C124.817 449.317 116.867 454.083 107.8 458.45C101.067 461.717 92.5 465.317 82.1 469.25C75.7 471.65 69.7 475.283 64.1 480.15C61.5333 482.35 60.5667 484.55 61.2 486.75C61.8 488.883 63.75 490.317 67.05 491.05C72.3167 492.15 77.7167 492.333 83.25 491.6C87.7833 491.033 92.4333 489.583 97.2 487.25C100.9 485.45 105.083 482.883 109.75 479.55C116.95 474.45 127.517 466.467 141.45 455.6C142.25 455 142.933 454.15 143.5 453.05C144.067 451.917 144.283 450.95 144.15 450.15Z" fill="white"/>
    <path d="M150.25 345.4C151.383 343.767 151.967 341.2 152 337.7C145.833 339.8 139.05 340.717 131.65 340.45C126.683 340.25 120.017 339.35 111.65 337.75C102.05 335.883 96.1 334.8 93.8 334.5C87 333.6 80.9333 333.533 75.6 334.3C73.2667 334.633 71.45 335.217 70.15 336.05C68.5167 337.117 67.5 338.683 67.1 340.75C66.7 342.817 67.1 344.617 68.3 346.15C69.3333 347.483 70.8333 348.45 72.8 349.05C81.0667 351.617 85.4167 352.967 85.85 353.1C90.85 354.533 95.2667 355.45 99.1 355.85C106.3 356.583 113.917 356.283 121.95 354.95C128.683 353.85 136.1 351.95 144.2 349.25C147.133 348.283 149.15 347 150.25 345.4Z" fill="white"/>
    <path d="M185.55 512.1C185.583 510.9 185.6 510 185.6 509.4C185.6 508.3 185.567 507.383 185.5 506.65C185.433 506.083 185.267 505.4 185 504.6C184.7 503.733 184.483 503.083 184.35 502.65C183.917 502.917 183.233 503.267 182.3 503.7C181.467 504.133 180.883 504.567 180.55 505C179.35 506.467 177.683 508.65 175.55 511.55C173.317 514.583 171.667 516.767 170.6 518.1C165.267 524.733 158.35 531.05 149.85 537.05C145.05 540.417 137.067 545.35 125.9 551.85C120.533 554.983 116.067 558.333 112.5 561.9C109.4 565.067 110.15 567.55 114.75 569.35C118.083 570.65 121.617 571.133 125.35 570.8C128.483 570.5 131.917 569.617 135.65 568.15C141.35 565.983 147.4 562.533 153.8 557.8C161.1 552.033 166.567 547.7 170.2 544.8C175.8 540.4 179.867 535.65 182.4 530.55C185.2 524.983 186.25 518.833 185.55 512.1Z" fill="white"/>
    <path d="M140.15 688.75C138.117 689.45 136.483 689.75 135.25 689.65C131.483 689.383 127.883 689.95 124.45 691.35C121.483 692.583 118.5 694.533 115.5 697.2C113.767 698.733 112.983 700.35 113.15 702.05C113.35 703.717 114.45 705.083 116.45 706.15C117.717 706.817 119.367 707.5 121.4 708.2L126.5 709.9L126.8 709.05L128.05 709.1C128.55 709.133 128.967 709.117 129.3 709.05C136.5 707.783 141.7 706.2 144.9 704.3C148.767 701.967 151.283 698.417 152.45 693.65C152.75 692.383 152.867 691.15 152.8 689.95C152.733 688.483 152.417 687.517 151.85 687.05C151.283 686.583 150.283 686.4 148.85 686.5C148.217 686.567 146.967 686.783 145.1 687.15C144.467 687.283 142.817 687.817 140.15 688.75Z" fill="white"/>
    <path d="M203.3 267.7C204.767 266.667 205.883 264.75 206.65 261.95C205.55 261.683 203.883 261.283 201.65 260.75C199.683 260.25 198.033 259.783 196.7 259.35C190.367 257.317 183.75 254.05 176.85 249.55C173.583 247.383 167.633 243 159 236.4C149.967 229.533 142.233 224.083 135.8 220.05C133.033 218.35 130.8 217.3 129.1 216.9C126.367 216.233 124.183 216.867 122.55 218.8C120.883 220.733 120.417 223.083 121.15 225.85C121.783 228.05 123.067 230.233 125 232.4C128.1 235.867 130.8 238.683 133.1 240.85C136.2 243.817 139.2 246.233 142.1 248.1C149.867 253.167 158.75 257.433 168.75 260.9C176.783 263.7 186.35 266.217 197.45 268.45C199.917 268.917 201.867 268.667 203.3 267.7Z" fill="white"/>
    <path d="M116.85 578.1C118.217 582.5 120.317 589.067 123.15 597.8C125.617 605.633 127.517 612.25 128.85 617.65C131.083 626.617 132.533 634.783 133.2 642.15C134.033 650.95 133.867 659.283 132.7 667.15C132.2 670.717 132.15 675.033 132.55 680.1C132.95 684.633 135.467 686.367 140.1 685.3C143.567 684.533 146.3 682.817 148.3 680.15C149.933 677.983 151.167 675.05 152 671.35C154.733 659.017 154.317 645 150.75 629.3C149.017 621.533 146.233 613.183 142.4 604.25C139.9 598.383 136.1 590.433 131 580.4C129.367 577.233 127.467 575.3 125.3 574.6C123.1 573.933 120.117 574.35 116.35 575.85C116.65 577.25 116.817 578 116.85 578.1Z" fill="white"/>
    <path d="M481.55 389.5C481.35 380.8 477.95 374.3 471.35 370C463.083 364.433 456.85 360.283 452.65 357.55C445.35 352.817 438.917 349.05 433.35 346.25C399.75 329.383 361.867 319.567 319.7 316.8C300.233 315.533 282.15 316.167 265.45 318.7C246.983 321.533 229.683 326.767 213.55 334.4C202.683 339.567 193.567 344.317 186.2 348.65C176.6 354.317 168.183 360.267 160.95 366.5C154.35 372.167 149.383 378.05 146.05 384.15C142.283 391.117 140.5 398.55 140.7 406.45C141 416.717 142.133 426.617 144.1 436.15C144.733 439.35 145.9 443.267 147.6 447.9C148.567 450.533 150.083 454.633 152.15 460.2C152.45 459.867 152.95 459.317 153.65 458.55C153.95 458.217 154.117 457.967 154.15 457.8C157.017 447.4 162 437.667 169.1 428.6C175 421.033 182.817 413.417 192.55 405.75C212.417 390.05 235.1 379.05 260.6 372.75C283.7 367.15 307.667 365.967 332.5 369.2C345.033 370.867 357.867 373.967 371 378.5C382.4 382.467 394.517 387.717 407.35 394.25C419.75 400.55 430.683 407.3 440.15 414.5C450.85 422.6 460.083 431.567 467.85 441.4C468.283 441.933 468.95 442.483 469.85 443.05C470.383 443.383 471.217 443.917 472.35 444.65C472.85 443.817 473.2 443.25 473.4 442.95C473.7 442.417 473.917 441.967 474.05 441.6C479.483 424.067 481.983 406.7 481.55 389.5Z" fill="white"/>
    <path d="M477.15 371C477.15 370.9 477.183 370.267 477.25 369.1C477.283 368.433 477.25 367.9 477.15 367.5L462.5 314.65C460.433 307.15 456.433 301.867 450.5 298.8C443.3 294.867 437.883 291.95 434.25 290.05C427.883 286.783 422.283 284.317 417.45 282.65C391.617 273.817 366.25 267.867 341.35 264.8C315.417 261.567 288.783 262.933 261.45 268.9C251.283 271.067 240.417 274.4 228.85 278.9C220.483 282.133 210.05 286.683 197.55 292.55C189.95 296.117 184.233 299.3 180.4 302.1C174.633 306.3 170.367 311.25 167.6 316.95C165.867 320.55 163.233 325.933 159.7 333.1C156.767 339.267 154.333 344.717 152.4 349.45C150.967 352.983 149.45 357.433 147.85 362.8C146.95 365.833 145.617 370.367 143.85 376.4L145.4 377.15C149.1 374.117 151.25 372.333 151.85 371.8C159.283 365 166.067 359.267 172.2 354.6C179.767 348.867 187.233 344.033 194.6 340.1C210.333 331.767 225.317 325.433 239.55 321.1C255.817 316.133 271.833 313.517 287.6 313.25C323.667 312.617 359.8 317.6 396 328.2C420.233 335.333 440.867 344.733 457.9 356.4C460.567 358.233 463.75 360.583 467.45 363.45C469.583 365.083 472.817 367.6 477.15 371Z" fill="white"/>
    <path d="M402.65 444.3C404.45 446.367 407.267 449.367 411.1 453.3L420.95 464.35C421.017 464.417 421.717 465.067 423.05 466.3C423.85 467.067 424.367 467.767 424.6 468.4C427.833 477.6 430.517 485.933 432.65 493.4C432.95 494.467 433.133 495.933 433.2 497.8C433.233 500.133 433.3 501.65 433.4 502.35C433.733 504.517 434.3 505.75 435.1 506.05C435.5 506.217 436.117 506.117 436.95 505.75C437.25 505.617 437.917 505.25 438.95 504.65C439.35 504.417 439.8 504.033 440.3 503.5C440.8 502.933 441.183 502.5 441.45 502.2C454.017 489.4 463.4 473.5 469.6 454.5C469.933 453.467 469.983 452.25 469.75 450.85C469.517 449.417 469.067 448.25 468.4 447.35C461 436.85 451.983 427.317 441.35 418.75C431.883 411.117 420.85 404.033 408.25 397.5C383.15 384.467 357.683 376.083 331.85 372.35C306.75 368.75 283.733 369.383 262.8 374.25C242.9 378.817 223.267 387.533 203.9 400.4C183.3 413.967 168.183 431.283 158.55 452.35C154.15 461.95 155.45 470.233 162.45 477.2C163.517 478.267 165.383 480.283 168.05 483.25C170.35 485.85 172.25 487.817 173.75 489.15C175.583 490.783 177.95 492.667 180.85 494.8C182.483 496 184.933 497.783 188.2 500.15L189.85 498.95C190.083 497.683 190.25 496.733 190.35 496.1C190.517 494.933 190.583 493.967 190.55 493.2C190.183 486.133 192.117 480.517 196.35 476.35C197.017 475.683 197.583 474.867 198.05 473.9C198.517 472.867 198.733 471.917 198.7 471.05C198.633 467.917 199.383 465.05 200.95 462.45C202.217 460.317 204.2 458.133 206.9 455.9C209.3 453.967 210.633 452 210.9 450C211.633 444.667 214.233 440.6 218.7 437.8C223.333 434.9 226.817 431.5 229.15 427.6C230.25 425.8 231.917 424.283 234.15 423.05C235.083 422.55 237.233 421.617 240.6 420.25C242.233 419.583 246.567 417.733 253.6 414.7C258.933 412.4 263.333 410.65 266.8 409.45C271.3 407.917 274.617 406.933 276.75 406.5C280.35 405.767 283.75 405.7 286.95 406.3C289.05 406.733 291.4 406.567 294 405.8C298.967 404.4 302.167 403.617 303.6 403.45C307.2 402.95 310.467 403.4 313.4 404.8C314.333 405.2 315.767 405.117 317.7 404.55C323.2 402.85 328.067 403.133 332.3 405.4C334.533 406.6 337.05 407.35 339.85 407.65C341.75 407.85 344.383 407.85 347.75 407.65C350.017 407.583 352.217 407.783 354.35 408.25C356.717 408.75 358.7 409.55 360.3 410.65C362.567 412.217 364.317 413.3 365.55 413.9C367.483 414.867 369.417 415.433 371.35 415.6C376.517 416.033 380.25 418.667 382.55 423.5C383.017 424.467 383.75 425.383 384.75 426.25C385.75 427.117 386.767 427.717 387.8 428.05C390.767 429.017 393.25 430.517 395.25 432.55C397.083 434.417 398.6 436.85 399.8 439.85C400.333 441.283 401.283 442.767 402.65 444.3Z" fill="white"/>
    <path d="M439.9 289.55C441.033 290.183 444.467 291.95 450.2 294.85L451.05 293.8L449.2 291.3C448.467 290.3 447.833 289.483 447.3 288.85C439.733 280.317 434.033 273.917 430.2 269.65C423.5 262.15 417.683 255.867 412.75 250.8C407.917 245.833 402.033 241.65 395.1 238.25C386.933 234.283 377.733 231.233 367.5 229.1C359.4 227.433 349.75 226.2 338.55 225.4C326.783 224.533 314.217 224.733 300.85 226C289.883 227 277.467 228.833 263.6 231.5C249.067 234.333 237.583 239.65 229.15 247.45C226.283 250.117 221.95 254.117 216.15 259.45C211.117 264.117 206.883 268.217 203.45 271.75C200.683 274.617 197.433 278.267 193.7 282.7C191.6 285.2 188.45 288.967 184.25 294C185.383 294.633 186.25 294.8 186.85 294.5C214.517 279.9 241.533 269.933 267.9 264.6C290.933 259.933 312.283 258.767 331.95 261.1C339.083 261.967 347.367 263.317 356.8 265.15L381.45 270.25C393.617 272.75 403.6 275.2 411.4 277.6C422.1 280.9 431.6 284.883 439.9 289.55Z" fill="white"/>
    <path d="M398.6 446.35C397.533 445.05 396.75 443.5 396.25 441.7C394.717 435.933 391.667 432.8 387.1 432.3C385.567 432.133 384.333 431.717 383.4 431.05C382.5 430.417 381.717 429.433 381.05 428.1C377.85 421.633 372.5 418.317 365 418.15C364.3 418.15 363.617 418.067 362.95 417.9C362.183 417.667 361.7 417.367 361.5 417C359.867 413.8 357.533 411.917 354.5 411.35C352.867 411.05 349.867 411.2 345.5 411.8C343.8 412.033 342.15 412.05 340.55 411.85C338.717 411.65 337.217 411.167 336.05 410.4C332.95 408.433 329.75 407.367 326.45 407.2C323.417 407.033 320.117 407.617 316.55 408.95C315.917 409.183 315.217 409.3 314.45 409.3C313.583 409.3 312.933 409.133 312.5 408.8C309.633 406.767 306.6 405.933 303.4 406.3C300.867 406.6 297.983 407.717 294.75 409.65C292.65 411.25 291.1 412.217 290.1 412.55C288.4 413.117 286.85 412.183 285.45 409.75C285.317 409.517 284.983 409.35 284.45 409.25C283.95 409.15 283.517 409.15 283.15 409.25C280.517 409.983 276.017 411.3 269.65 413.2C268.45 413.667 267.55 414.017 266.95 414.25C265.85 414.65 264.95 414.817 264.25 414.75C258.317 414.317 253.05 416.35 248.45 420.85C246.817 422.417 245.15 423.25 243.45 423.35C237.217 423.717 232.767 426.917 230.1 432.95C229.667 433.95 229.15 434.817 228.55 435.55C227.817 436.483 227.117 437.033 226.45 437.2C222.517 438 219.517 439.833 217.45 442.7C215.75 445.033 214.517 448.317 213.75 452.55C213.617 453.417 213.333 454.25 212.9 455.05C212.433 455.95 211.917 456.533 211.35 456.8C208.117 458.3 205.7 460.55 204.1 463.55C202.9 465.85 202.033 469 201.5 473C201.2 475.367 200.583 476.933 199.65 477.7C196.75 480.167 194.883 483.083 194.05 486.45C193.35 489.35 193.35 492.8 194.05 496.8C194.183 497.533 194.183 498.3 194.05 499.1C193.917 499.967 193.65 500.617 193.25 501.05C188.65 506.117 187.383 512.133 189.45 519.1C189.65 519.767 189.75 520.467 189.75 521.2C189.75 522 189.6 522.633 189.3 523.1C185.733 529.267 186.017 535.533 190.15 541.9C190.517 542.467 190.767 543.133 190.9 543.9C191.033 544.7 191.017 545.4 190.85 546C189.883 549.1 189.983 551.95 191.15 554.55C192.217 556.85 194.083 558.85 196.75 560.55C198.45 561.617 199.8 562.9 200.8 564.4C201.633 565.7 202.35 567.383 202.95 569.45C203.183 570.283 203.733 571.25 204.6 572.35C205.067 572.95 205.783 573.867 206.75 575.1C207.65 571.733 208.483 568.033 209.25 564C209.45 562.933 210.033 559.45 211 553.55C217.7 514.483 238.05 487.717 272.05 473.25L280.9 469.45L276.7 464.55C277.933 464.25 279.633 463.85 281.8 463.35C283.6 462.917 285.117 462.5 286.35 462.1C290.183 460.9 292.95 459.767 294.65 458.7C295.817 458 297.867 456.567 300.8 454.4C303.333 452.533 305.4 451.2 307 450.4C309.333 449.233 311.45 448.5 313.35 448.2C315.817 447.833 318.2 448.15 320.5 449.15L313.3 458.25L329.85 455.5C335.85 454.5 341.017 455.517 345.35 458.55L341.45 462.3C343.017 462.933 345.317 463.783 348.35 464.85C351.017 465.817 353.167 466.783 354.8 467.75C356.933 468.983 357.983 470.2 357.95 471.4C357.95 472.567 356.933 473.95 354.9 475.55C356.633 476.283 357.717 476.717 358.15 476.85C376.617 483.917 389.083 494.6 395.55 508.9C402.05 523.2 401.867 539.583 395 558.05C393.3 562.617 392.75 566.883 393.35 570.85C393.95 574.883 395.683 578.517 398.55 581.75C400.55 580.017 402 578.75 402.9 577.95C404.533 576.55 405.933 575.483 407.1 574.75C410.5 572.65 412.867 570.767 414.2 569.1C416.167 566.633 416.967 563.717 416.6 560.35C416.567 559.883 416.7 559.317 417 558.65C417.333 558.017 417.717 557.5 418.15 557.1C419.983 555.533 421.233 553.6 421.9 551.3C422.4 549.567 422.617 547.283 422.55 544.45C422.55 543.25 422.717 542.1 423.05 541C423.383 539.733 423.883 538.717 424.55 537.95C428.317 533.717 429.967 528.667 429.5 522.8C429.433 521.867 429.55 520.6 429.85 519C430.183 517.067 430.367 515.767 430.4 515.1C430.5 511.733 430.467 508.133 430.3 504.3C430.133 501.133 429.833 498.383 429.4 496.05C428.8 492.517 428.05 489.367 427.15 486.6C426.983 486.1 426.167 484.033 424.7 480.4C423.667 477.9 423.067 475.817 422.9 474.15C422.733 472.517 422.4 471.183 421.9 470.15C421.333 469.05 420.483 468.033 419.35 467.1C417.45 465.7 416.033 464.617 415.1 463.85C413.533 462.517 412.467 461.25 411.9 460.05C409.733 455.25 406.617 451.717 402.55 449.45C400.883 448.55 399.567 447.517 398.6 446.35Z" fill="white"/>
    <path d="M389.45 506.05C386.15 500.883 383.4 497.033 381.2 494.5C377.767 490.6 374.05 487.7 370.05 485.8C364.55 482.7 360.35 480.667 357.45 479.7C352.417 478.067 347.65 478.567 343.15 481.2C344.15 479.933 345.417 478.617 346.95 477.25C348.717 475.75 350.033 474.617 350.9 473.85C352.733 472.183 353.55 471.067 353.35 470.5C353.117 469.867 352.65 469.233 351.95 468.6C351.25 467.967 350.583 467.617 349.95 467.55C348.183 467.35 346.05 467.233 343.55 467.2C340.683 467.167 338.533 467.133 337.1 467.1H332.15L331.55 465.6L339.95 458.25C334.983 457.15 329.55 457.433 323.65 459.1C317.117 461.467 312.2 463.117 308.9 464.05L307.6 463.15L313.85 451.15C307.483 451.983 302.183 454.983 297.95 460.15C295.717 462.85 293.983 464.55 292.75 465.25C290.65 466.45 288.267 466.4 285.6 465.1C285.433 465.033 285.167 465.083 284.8 465.25C284.133 465.55 283.783 465.7 283.75 465.7C284.217 467.033 285.083 468.917 286.35 471.35C287.083 473.45 286.8 475.217 285.5 476.65C283.6 476.117 282.25 475.733 281.45 475.5C280.15 475.133 279.15 475.033 278.45 475.2C266.283 478.6 255.667 484.283 246.6 492.25C233.7 503.717 224.483 517.183 218.95 532.65C213.783 546.983 211.75 563.183 212.85 581.25C214.15 602.417 221.517 619.167 234.95 631.5C243.983 639.767 254.683 644.867 267.05 646.8L266.25 642.9L267.3 642.3C267.5 642.533 269.267 644.717 272.6 648.85C274.7 651.483 276.517 653.6 278.05 655.2C280.517 657.733 282.417 659.583 283.75 660.75C285.95 662.717 288.067 664.25 290.1 665.35C294.5 667.717 299.1 668.45 303.9 667.55C307.867 666.783 312.15 664.817 316.75 661.65C319.683 659.65 322.367 658.183 324.8 657.25C327.8 656.117 330.833 655.633 333.9 655.8C345.9 656.5 357.517 652.7 368.75 644.4C379.983 636.1 387.833 625.8 392.3 613.5C397.367 599.633 396.75 586.2 390.45 573.2C389.983 572.2 389.433 570.467 388.8 568C388.533 566.833 388.533 565.917 388.8 565.25C389.2 564.283 389.983 562.483 391.15 559.85C392.183 557.583 392.933 555.783 393.4 554.45C399.9 536.55 398.583 520.417 389.45 506.05ZM346.4 499.25C348.5 496.917 350.767 495.383 353.2 494.65C355.6 493.917 357.917 494.033 360.15 495C362.15 495.867 363.583 496.917 364.45 498.15C365.483 499.65 365.783 501.583 365.35 503.95L346.4 499.25ZM308.45 524.75C310.817 531.65 311.55 538.8 310.65 546.2C309.85 552.6 307.8 559.483 304.5 566.85C303.067 570.083 300.483 574.917 296.75 581.35C289.883 579.15 285.167 577.85 282.6 577.45C277.3 576.65 272.533 577.2 268.3 579.1C257.533 558.7 258.1 538.833 270 519.5L270.55 518.65C273.717 514.55 276.267 511.767 278.2 510.3C281.467 507.8 284.967 506.9 288.7 507.6C293.467 508.5 297.517 510.383 300.85 513.25C304.283 516.183 306.817 520.017 308.45 524.75ZM372.35 529.25C374.117 534.283 374.65 540.483 373.95 547.85C373.017 558.283 370.3 567.267 365.8 574.8C365.533 575.267 365.317 575.967 365.15 576.9C364.817 578.7 364.633 579.65 364.6 579.75C361.9 579.383 359.883 579.117 358.55 578.95C356.183 578.65 354.2 578.45 352.6 578.35C351.067 578.25 349.15 578.217 346.85 578.25C344.283 578.283 342.317 578.3 340.95 578.3C340.083 570.867 336.6 565.983 330.5 563.65C330.1 563.517 329.717 563.133 329.35 562.5C329.017 561.9 328.883 561.4 328.95 561C330.317 552.133 331.417 545.5 332.25 541.1C333.75 533.433 335.967 527.1 338.9 522.1L340.2 519.95C342.767 515.65 345.667 513.083 348.9 512.25C352.167 511.45 355.95 512.333 360.25 514.9C366.183 518.433 370.217 523.217 372.35 529.25ZM278.3 490.75C280.767 488.883 283.567 488.15 286.7 488.55C288.5 488.783 290.017 489.683 291.25 491.25C292.083 492.35 292.883 493.967 293.65 496.1L272.6 497.55C274.467 494.417 276.367 492.15 278.3 490.75ZM254.1 599.05C256.233 598.317 258.667 598.417 261.4 599.35L257.45 602C261.15 607.933 267.533 612.883 276.6 616.85C285.133 620.617 294.583 622.917 304.95 623.75C315.517 624.617 324.95 623.767 333.25 621.2C342.317 618.433 348.633 613.983 352.2 607.85L347.8 606.6C348.767 604.9 349.95 603.867 351.35 603.5C352.517 603.233 353.917 603.4 355.55 604C359.483 605.433 360.983 608.317 360.05 612.65L356.95 610.4C350.45 614.7 345.483 618.317 342.05 621.25C336.917 625.617 332.783 630.283 329.65 635.25C327.483 638.683 324.75 641.967 321.45 645.1C318.283 648.067 314.85 650.65 311.15 652.85C305.617 656.183 299.983 656.783 294.25 654.65C288.617 652.583 284.433 648.517 281.7 642.45C280.933 640.75 279.917 638.3 278.65 635.1C277.283 631.7 276.267 629.25 275.6 627.75C272.767 621.217 268.617 616.383 263.15 613.25C261.817 612.483 260.217 611.4 258.35 610C256.217 608.4 254.55 607.167 253.35 606.3L251.35 608.75L250.05 608.65C249.917 607.45 249.817 606.55 249.75 605.95C249.65 604.883 249.7 604.033 249.9 603.4C250.567 601.233 251.967 599.783 254.1 599.05Z" fill="white"/>
    <path d="M384.9 230.55C383.6 229.517 382.1 228.483 380.4 227.45C379.733 227.05 378.217 226.217 375.85 224.95C365.95 219.317 358.467 215.2 353.4 212.6C344.667 208.167 336.717 205.033 329.55 203.2C323.05 201.5 317.4 200.667 312.6 200.7C306.533 200.733 301.017 202.1 296.05 204.8C289.45 208.333 278.633 214.467 263.6 223.2C262.6 223.8 261.417 224.6 260.05 225.6C259.317 226.167 258.267 226.967 256.9 228C264.1 227.4 274.867 226.433 289.2 225.1C302.033 223.967 312.8 223.167 321.5 222.7C341.533 221.633 362.667 224.25 384.9 230.55Z" fill="white"/>
    <path d="M291.7 555.2C286.967 554.533 282.967 552.3 279.7 548.5C276.5 544.733 274.983 540.433 275.15 535.6C275.25 531.833 276.45 527.35 278.75 522.15C280.25 519.05 281.367 516.733 282.1 515.2L281.2 514.4C280.833 514.567 280.267 514.817 279.5 515.15C271.633 521.017 266.683 529.5 264.65 540.6C262.717 551 263.8 560.35 267.9 568.65C268.867 570.583 270.1 571.983 271.6 572.85C273.267 573.783 275.167 573.983 277.3 573.45C281.767 572.35 285.717 573.067 289.15 575.6C290.583 576.667 292 577.133 293.4 577C294.767 576.867 296.017 576.133 297.15 574.8C299.383 572.133 301.267 568.783 302.8 564.75C303.533 562.817 304.683 559.017 306.25 553.35C300.617 555.117 295.767 555.733 291.7 555.2Z" fill="white"/>
    <path d="M304.15 528.65C304.15 525.883 303.35 523.517 301.75 521.55C300.183 519.55 298.283 518.533 296.05 518.5C293.883 518.467 291.9 519.283 290.1 520.95C288.3 522.617 287.383 524.467 287.35 526.5C287.317 529.3 288.283 531.817 290.25 534.05C292.217 536.283 294.417 537.367 296.85 537.3C299.217 537.267 301.033 536.5 302.3 535C303.567 533.5 304.183 531.383 304.15 528.65Z" fill="white"/>
    <path d="M324.1 638.65C327.333 635.117 329.983 631.017 332.05 626.35C323.55 628.417 314.4 628.95 304.6 627.95C297.067 627.183 288 625.317 277.4 622.35C278.267 625.683 279.017 627.783 279.65 628.65C280.817 630.317 282.783 630.95 285.55 630.55C286.35 630.45 287.35 630.667 288.55 631.2C289.217 631.5 290.217 631.967 291.55 632.6C291.783 632.7 292.967 633.317 295.1 634.45C296.533 635.217 297.75 635.65 298.75 635.75C303.483 636.25 307.15 638.75 309.75 643.25C310.35 644.25 311.317 645.717 312.65 647.65C317.117 645.083 320.933 642.083 324.1 638.65Z" fill="white"/>
    <path d="M282.85 634.8C284.65 641.133 287.95 645.717 292.75 648.55C297.55 651.35 302.633 651.717 308 649.65C307.667 644.817 305.533 641.817 301.6 640.65C301.033 640.483 300.2 640.617 299.1 641.05C297.8 641.683 296.767 642.117 296 642.35C294.533 639.15 293.067 636.967 291.6 635.8C289.333 633.967 286.417 633.633 282.85 634.8Z" fill="white"/>
    <path d="M352.4 524.2C352.333 523.7 351.417 523.25 349.65 522.85C347.883 522.45 346.467 522.4 345.4 522.7C343.467 523.2 342.017 524.367 341.05 526.2C340.317 527.533 339.65 529.683 339.05 532.65C339.65 533.35 340.5 534.517 341.6 536.15C342.6 537.483 343.533 538.25 344.4 538.45C345.533 538.717 346.967 538.567 348.7 538C350.467 537.4 351.5 536.7 351.8 535.9C352.967 532.667 353.167 528.767 352.4 524.2Z" fill="white"/>
    <path d="M367.45 527.85C367.217 527.117 366.717 526.283 365.95 525.35C365.017 524.283 364.317 523.45 363.85 522.85L362.9 524.3C362.9 524.5 362.933 524.917 363 525.55C363.067 526.05 363.083 526.45 363.05 526.75C362.783 529.283 362.5 533.083 362.2 538.15C361.867 542.65 361.233 546.333 360.3 549.2C358.6 554.533 355.5 557.75 351 558.85C346.6 559.95 342.117 558.733 337.55 555.2C337.183 554.867 336.667 554.517 336 554.15C335.233 553.783 334.667 553.483 334.3 553.25L332.5 554.55L334.6 558.35C335.467 559.85 336.217 561.083 336.85 562.05C337.083 562.45 337.85 563.367 339.15 564.8C340.083 565.867 340.633 566.783 340.8 567.55C341.433 570.583 342.867 572.817 345.1 574.25C346.833 575.317 349.317 576.033 352.55 576.4C358.95 577.067 363.333 574.8 365.7 569.6C371.6 556.567 372.183 542.65 367.45 527.85Z" fill="white"/>
    <path d="M499 249.9C502.133 246.467 504.6 243.25 506.4 240.25C508.6 236.55 510.083 232.75 510.85 228.85C511.183 227.083 511.05 225.833 510.45 225.1C509.883 224.367 508.733 223.9 507 223.7C503.867 223.3 500.817 223.95 497.85 225.65C496.683 226.317 494.2 228.183 490.4 231.25C483.633 236.75 479.05 240.45 476.65 242.35C471.45 246.483 466.75 250.033 462.55 253C459.217 255.367 454.967 258.117 449.8 261.25C446.867 263.017 442.45 265.683 436.55 269.25C440.017 275.683 443.317 279.633 446.45 281.1C449.617 282.567 453.683 282.067 458.65 279.6C474.783 271.567 488.233 261.667 499 249.9Z" fill="white"/>
    <path d="M533.15 543.85C532.15 542.383 530.617 541.117 528.55 540.05C522.25 536.85 518.767 535.1 518.1 534.8C514.033 532.9 510.4 531.55 507.2 530.75C487.9 525.983 471.033 517.383 456.6 504.95C452.6 501.483 449.917 499.867 448.55 500.1C447.25 500.333 444.783 502.783 441.15 507.45C442.183 508.617 443.667 510.35 445.6 512.65C447.333 514.65 448.867 516.267 450.2 517.5C461.733 528.1 476.317 538.233 493.95 547.9C503.85 553.333 513.883 555.867 524.05 555.5C526.717 555.367 528.767 554.983 530.2 554.35C532.2 553.45 533.5 551.9 534.1 549.7C534.7 547.567 534.383 545.617 533.15 543.85Z" fill="white"/>
    <path d="M526.7 559.05C523.5 558.15 520.667 558.133 518.2 559C515.867 559.8 513.633 561.467 511.5 564C493.8 584.967 480.3 608.117 471 633.45C468.2 641.017 466.317 647.883 465.35 654.05C464.15 661.583 464.15 668.733 465.35 675.5C465.917 678.667 467.033 681.267 468.7 683.3C470.333 685.333 472.383 686.6 474.85 687.1C479.35 688.033 483.3 685.6 486.7 679.8C487.5 678.5 487.983 677.45 488.15 676.65C489.783 670.683 490.983 666.2 491.75 663.2C493.15 657.9 494.167 653.383 494.8 649.65C498.833 626.383 504.933 605.533 513.1 587.1C514.8 583.267 517 578.617 519.7 573.15C522.8 566.95 525.133 562.25 526.7 559.05Z" fill="white"/>
    <path d="M474.15 701.1C484.483 704.333 493.75 703.283 501.95 697.95C503.383 697.05 504.083 695.983 504.05 694.75C504.05 693.55 503.367 692.65 502 692.05C497.4 689.917 493.35 688.867 489.85 688.9C486.95 688.933 483.383 689.2 479.15 689.7C474.35 690.367 470.683 690.833 468.15 691.1C467.45 693.633 467.733 695.817 469 697.65C470.1 699.217 471.817 700.367 474.15 701.1Z" fill="white"/>
    <path d="M536.5 323.2C533.2 324.933 528.267 327.633 521.7 331.3C515.767 334.5 510.717 336.967 506.55 338.7C502.65 340.333 497.7 341.983 491.7 343.65C484.867 345.483 479.7 346.9 476.2 347.9C476.233 348 476.55 349.533 477.15 352.5C477.583 354.467 477.883 356.133 478.05 357.5C478.35 359.967 479.083 361.633 480.25 362.5C481.483 363.4 483.317 363.55 485.75 362.95C487.017 362.617 491.783 361.55 500.05 359.75C505.883 358.483 510.6 357.233 514.2 356C530.267 350.567 542.85 342.5 551.95 331.8C554.25 329.067 555.817 326.05 556.65 322.75C557.283 320.25 556.983 318.417 555.75 317.25C554.517 316.05 552.717 315.85 550.35 316.65C548.317 317.317 545.983 318.317 543.35 319.65C541.817 320.417 539.533 321.6 536.5 323.2Z" fill="white"/>
    <path d="M576.6 470.4C572.3 465.8 568 462.567 563.7 460.7C561.1 459.567 557.1 458.233 551.7 456.7C546.233 455.1 542.217 453.767 539.65 452.7C532.45 449.667 523.567 445.8 513 441.1C501.2 435.8 492.333 431.833 486.4 429.2C485.733 428.9 484.867 428.667 483.8 428.5C482.567 428.333 481.65 428.183 481.05 428.05C481.05 428.85 480.95 430.1 480.75 431.8C480.65 433.267 480.817 434.35 481.25 435.05C483.25 438.15 485.95 441.017 489.35 443.65C505.583 456.45 522.267 466.317 539.4 473.25C542.767 474.617 547.833 476.733 554.6 479.6C560.6 481.867 566.067 483.217 571 483.65C571.967 483.217 573.6 482.633 575.9 481.9C577.8 481.2 578.9 480.417 579.2 479.55C579.633 478.317 579.567 476.75 579 474.85C578.467 472.983 577.667 471.5 576.6 470.4Z" fill="white"/>
    <path d="M513.05 241.3C513.983 247.133 516 253.1 519.1 259.2C521.433 263.8 524.783 269.133 529.15 275.2C539.783 290.033 551.8 300.817 565.2 307.55C568.033 308.983 570.817 309.667 573.55 309.6C576.317 309.567 578.2 308.8 579.2 307.3C580.567 305.233 580.9 302.983 580.2 300.55C579.867 299.45 578.817 297.4 577.05 294.4C574.583 290.267 571.267 286.333 567.1 282.6C564.1 279.933 560 276.817 554.8 273.25C546.6 267.583 540.633 263.1 536.9 259.8C530.733 254.367 525.983 248.617 522.65 242.55C521.85 241.05 520.75 239.217 519.35 237.05C517.183 233.683 516.033 231.883 515.9 231.65L513.65 231.9C513.583 232.967 513.383 234.55 513.05 236.65C512.85 238.517 512.85 240.067 513.05 241.3Z" fill="white"/>
    <path d="M576.85 314.65C579.583 317.117 584 318.15 590.1 317.75C596.233 317.35 600.233 315.767 602.1 313C602.467 312.467 602.683 311.783 602.75 310.95C602.85 310.117 602.767 309.433 602.5 308.9C601.567 306.867 598.8 305.433 594.2 304.6C589.633 303.733 586.567 304.083 585 305.65C584.033 306.617 581.317 309.617 576.85 314.65Z" fill="white"/>
    <path d="M605.05 439.45C609.417 438.617 611.85 436.483 612.35 433.05C612.583 431.183 612.233 429.567 611.3 428.2C610.433 426.9 609.217 426.1 607.65 425.8C602.383 424.767 598.45 424.967 595.85 426.4C594.517 427.133 593.167 428.583 591.8 430.75C591 431.95 589.783 433.883 588.15 436.55C590.417 438.683 593.133 439.9 596.3 440.2C598.333 440.367 601.25 440.117 605.05 439.45Z" fill="white"/>
    <path d="M565 358.6C563.5 355.267 561.967 350.967 560.4 345.7C558.733 339.633 557.4 335.017 556.4 331.85C551.6 335.083 549.217 339.583 549.25 345.35C549.417 370.083 554.9 392.633 565.7 413C567.767 416.933 571.483 421.783 576.85 427.55C578.417 429.25 580.233 430.317 582.3 430.75C584.533 431.217 586.5 430.8 588.2 429.5C589.4 428.567 590.417 427.167 591.25 425.3C592.05 423.467 592.417 421.767 592.35 420.2C592.217 416.3 590.95 411.883 588.55 406.95C586.617 402.883 582.65 394.85 576.65 382.85C571.65 372.817 567.767 364.733 565 358.6Z" fill="white"/>
    <path d="M576.5 486.15C575.3 488.883 573.4 492.967 570.8 498.4C568.533 503.3 566.8 507.467 565.6 510.9C563.833 516 561.9 522.167 559.8 529.4C558.6 533.567 556.817 539.8 554.45 548.1C552.117 556.167 550.517 563.483 549.65 570.05C548.65 577.95 548.6 585.417 549.5 592.45C549.833 594.95 550.567 597.517 551.7 600.15C552.8 602.683 554.15 605.017 555.75 607.15C557.683 609.717 560 610.783 562.7 610.35C565.367 609.95 567.533 608.3 569.2 605.4C570.867 602.467 571.833 599.05 572.1 595.15C572.3 592.65 572.167 589.083 571.7 584.45C569.767 563.85 570.6 539.95 574.2 512.75C574.667 509.183 575.367 504.867 576.3 499.8C577.4 494.067 578.2 489.75 578.7 486.85L576.5 486.15Z" fill="white"/>
    <path d="M581.6 613.25C580.867 612.817 579.783 612.5 578.35 612.3C576.717 612.1 575.467 611.917 574.6 611.75C571.867 612.217 569.8 612.583 568.4 612.85C565.967 613.283 563.883 613.733 562.15 614.2C561.117 614.467 560.05 614.917 558.95 615.55C557.75 616.217 557.167 616.733 557.2 617.1C557.333 618.367 557.65 619.583 558.15 620.75C558.717 622.05 559.4 623.067 560.2 623.8C562.467 625.833 566.15 626.967 571.25 627.2C576.317 627.433 580.217 626.633 582.95 624.8C583.983 624.1 584.933 623.15 585.8 621.95C586.7 620.683 587.083 619.633 586.95 618.8C586.617 616.967 584.833 615.117 581.6 613.25Z" fill="white"/>
    <path d="M433.05 262.85C431.25 262.517 427.9 259.617 423 254.15C417.7 248.25 414.083 244.317 412.15 242.35C407.917 238.083 403.9 234.683 400.1 232.15C394.433 228.383 387.65 224.383 379.75 220.15C377.95 219.217 370.917 215.6 358.65 209.3C350.85 205.3 343.733 202.133 337.3 199.8C329.467 196.9 321.917 194.917 314.65 193.85C312.85 193.583 311.767 192.85 311.4 191.65C311.3 191.317 311.25 190.083 311.25 187.95C311.85 130.617 312.25 87.6333 312.45 59C312.483 54.6333 312.5 34.9667 312.5 0C311.7 1.26667 311.267 2.93333 311.2 5C309.8 58.5667 309.033 89.5333 308.9 97.9C308.6 114.967 308.35 144.8 308.15 187.4C308.15 189.3 307.767 190.817 307 191.95C306.267 193.05 305 194.033 303.2 194.9C290.667 200.933 279.533 206.75 269.8 212.35C258.267 219.05 247.8 225.95 238.4 233.05C235.533 235.217 232.233 238 228.5 241.4C226.367 243.367 223.183 246.3 218.95 250.2C216.383 252.5 214.25 254.05 212.55 254.85C210.017 256.017 207.417 256.183 204.75 255.35C202.683 254.717 199.533 253.817 195.3 252.65C191.667 251.55 188.75 250.283 186.55 248.85C181.05 245.25 175 241 168.4 236.1C164.267 233.067 158.367 228.6 150.7 222.7C146.033 219.133 142.283 216.55 139.45 214.95C135.117 212.583 130.8 211.15 126.5 210.65C123.2 210.25 120.6 210.533 118.7 211.5C116.667 212.533 115.183 214.45 114.25 217.25C110.483 228.183 104.6 238.667 96.6 248.7C90.2667 256.633 81.8 265.167 71.2 274.3C62.2667 281.933 52.6333 290.833 42.3 301C40.8667 302.433 39.65 303.45 38.65 304.05C37.3167 304.85 35.8 305.3 34.1 305.4C25.9 305.867 19.2667 308.233 14.2 312.5C10.8667 315.333 9.38333 318.5 9.75 322C10.1167 325.567 12.2833 328.067 16.25 329.5C24.5167 332.5 31.45 333.55 37.05 332.65C50.5833 330.45 62.35 325.917 72.35 319.05C82.6833 311.95 91 302.433 97.3 290.5C100.4 284.667 104.167 277.183 108.6 268.05C115.233 254.383 118.9 246.833 119.6 245.4C120.867 242.867 122 241.5 123 241.3C124.033 241.1 125.533 241.983 127.5 243.95C133.9 250.25 141.833 255.683 151.3 260.25C157.7 263.317 166.683 266.75 178.25 270.55C184.183 272.417 188.883 273.9 192.35 275C191.083 276.633 189.3 278.9 187 281.8C185.067 284.267 183.5 286.35 182.3 288.05C179.7 291.75 175.733 297.267 170.4 304.6C165.767 311.133 162.083 316.833 159.35 321.7C157.017 325.833 154.367 328.917 151.4 330.95C148.367 332.983 144.65 334.15 140.25 334.45C127.85 335.25 114.833 333.833 101.2 330.2C95.2 328.6 90.3333 327.617 86.6 327.25C81.2 326.717 76.2167 327.15 71.65 328.55C66.2833 330.183 62.9167 333.933 61.55 339.8C60.8833 342.633 60.4667 345.917 60.3 349.65C58.9667 373.15 52.75 395.233 41.65 415.9C33.8833 430.2 28.6 440.183 25.8 445.85C25 447.45 24.2667 448.55 23.6 449.15C22.6667 449.983 21.4167 450.483 19.85 450.65C12.75 451.45 6.95 454.4 2.45 459.5C0.35 461.933 -0.4 464.667 0.2 467.7C0.8 470.7 2.55 472.917 5.45 474.35C11.25 477.25 17.9 478.1 25.4 476.9C32.9667 475.667 38.9833 472.75 43.45 468.15C47.8167 464.317 51.0833 461.433 53.25 459.5C57.15 456 59.9667 452.6 61.7 449.3C67.7 437.9 71.6667 425.283 73.6 411.45C74.5333 404.783 75.4333 396.75 76.3 387.35C77.2333 376.617 77.95 368.567 78.45 363.2C78.6167 361.6 78.8667 360.567 79.2 360.1C79.7667 359.367 80.85 359.133 82.45 359.4C98.2833 362.267 115.183 362.2 133.15 359.2L143.25 357.6C142.75 359.9 141.983 363.233 140.95 367.6C140.083 371.4 139.4 374.583 138.9 377.15C137.2 385.95 136.133 393.35 135.7 399.35C135.1 407.45 135.433 414.917 136.7 421.75C138.167 429.483 136.017 435.183 130.25 438.85C119.917 445.483 111 450.583 103.5 454.15C99.4667 456.117 94.35 458.317 88.15 460.75C84.7167 462.117 79.5333 464.15 72.6 466.85C66.2667 469.417 61.6167 472.883 58.65 477.25C55.6833 481.617 54.2167 487.167 54.25 493.9V511.85C54.1833 526.85 51.9 540.4 47.4 552.5C41.8667 567.333 37.2667 580.85 33.6 593.05C32.7667 595.75 31.8667 597.717 30.9 598.95C29.6333 600.55 27.8 601.6 25.4 602.1C23.4333 602.533 21.0833 603.733 18.35 605.7C15.0833 608.033 13.6 611.1 13.9 614.9C14.2 618.733 16.1167 621.583 19.65 623.45C25.8833 626.683 33.2 627.383 41.6 625.55C47.6667 624.217 52.2833 622.167 55.45 619.4C59.2833 616.033 61.3 611.367 61.5 605.4C61.5333 604.9 61.8833 604.167 62.55 603.2C69.15 593.9 72.85 582.317 73.65 568.45C74.05 561.35 74.3667 552.7 74.6 542.5C74.7667 530.933 74.9167 522.267 75.05 516.5C74.95 510.267 75.0333 505.6 75.3 502.5C75.3667 501.767 75.6833 500.983 76.25 500.15C76.8167 499.25 77.3667 498.75 77.9 498.65C86.6333 497.083 95.4167 494.033 104.25 489.5C111.383 485.867 119.217 480.867 127.75 474.5C129.917 472.867 132.783 470.65 136.35 467.85C140.617 464.517 143.483 462.3 144.95 461.2C146.683 463.567 149.183 467.033 152.45 471.6C155.35 475.633 157.85 478.967 159.95 481.6C162.05 484.267 164.767 487.517 168.1 491.35C169.933 493.483 172.683 496.667 176.35 500.9C170.55 510.133 163.233 518.567 154.4 526.2C146.9 532.667 137.817 538.95 127.15 545.05C125.283 546.117 122.45 547.7 118.65 549.8C115.383 551.667 112.65 553.383 110.45 554.95C106.783 557.55 104.7 560.4 104.2 563.5C103.7 566.533 104.683 569.983 107.15 573.85C107.95 575.117 109.167 577.017 110.8 579.55C112.133 581.783 113.033 583.8 113.5 585.6C115.2 591.967 117.75 601.517 121.15 614.25C123.95 625.217 126.083 634.85 127.55 643.15C128.183 646.75 128.15 651.833 127.45 658.4C126.683 665.767 126.4 670.933 126.6 673.9C126.933 678.7 126.217 682.35 124.45 684.85C122.683 687.383 119.55 689.25 115.05 690.45C112.35 691.15 110.217 692.667 108.65 695C107.25 697.133 106.65 699.367 106.85 701.7C107.05 704.133 108.283 706.667 110.55 709.3C112.85 712.067 115.167 713.6 117.5 713.9C133.6 716.033 146.283 711.817 155.55 701.25C157.75 698.717 159.067 696.05 159.5 693.25C159.967 690.25 159.383 687.35 157.75 684.55C156.65 682.617 156.017 680.633 155.85 678.6C155.683 676.9 155.833 674.833 156.3 672.4C158.267 661.533 158.483 650.35 156.95 638.85C155.583 628.45 152.767 617.6 148.5 606.3C146.9 602.067 144.883 596.883 142.45 590.75C139.683 583.883 137.6 578.7 136.2 575.2C136.633 574.833 136.933 574.583 137.1 574.45C137.4 574.183 137.667 574 137.9 573.9C144.933 570.567 151.883 566.317 158.75 561.15C164.65 556.65 170.75 551.25 177.05 544.95C177.683 544.317 178.617 543.633 179.85 542.9C181.417 542.033 182.667 541.3 183.6 540.7C184.133 545.967 184.417 548.733 184.45 549C184.583 550 184.7 551.6 184.8 553.8C185 555.667 185.467 556.933 186.2 557.6C188.533 559.833 191.217 563.1 194.25 567.4C197.883 572.533 200.383 575.883 201.75 577.45C203.65 579.683 205.083 581.767 206.05 583.7C207.15 585.833 207.867 588.15 208.2 590.65C212.2 620.283 228.1 640.417 255.9 651.05C261.5 653.217 265.083 654.7 266.65 655.5C270.45 657.467 273.55 659.933 275.95 662.9C281.65 669.9 288 673.817 295 674.65C301.9 675.45 309.067 673.2 316.5 667.9C319.4 665.8 322.65 664.183 326.25 663.05C329.183 662.117 332.733 661.4 336.9 660.9C341.633 660.3 345.567 659.65 348.7 658.95C353 657.983 356.75 656.75 359.95 655.25C371.483 649.817 380.567 642.8 387.2 634.2C394.2 625.1 398.3 614.433 399.5 602.2C400.067 596.3 401.383 591.367 403.45 587.4C405.717 583.033 409.083 579.35 413.55 576.35C419.15 572.65 422.6 567.383 423.9 560.55C424.433 557.817 425.25 554.633 426.35 551C427.717 546.833 428.733 543.7 429.4 541.6C429.967 539.867 430.917 537.15 432.25 533.45C433.517 529.917 434.45 527.2 435.05 525.3C435.45 524.033 435.817 522.4 436.15 520.4C436.517 517.933 436.833 515.95 437.1 514.45C440.9 517.383 446.4 521.75 453.6 527.55C459.933 532.617 465.367 536.617 469.9 539.55C474.567 542.583 480.533 546.017 487.8 549.85C491.9 552.017 498.083 555.25 506.35 559.55L506.3 559.95C506.233 560.283 506.133 560.55 506 560.75C505.467 561.717 504.65 563.167 503.55 565.1C502.583 566.767 501.667 568.167 500.8 569.3C482 594.033 469.017 620.033 461.85 647.3C460.15 653.833 459.117 659.283 458.75 663.65C458.183 669.65 458.6 675.217 460 680.35C460.7 682.95 460.833 686.45 460.4 690.85C459.733 696.617 461.917 701.133 466.95 704.4C471.35 707.233 477.617 708.483 485.75 708.15C493.85 707.817 500.017 706.05 504.25 702.85C508.15 699.983 509.783 696.767 509.15 693.2C508.517 689.2 505.917 686.433 501.35 684.9C500.15 684.5 498.633 684.067 496.8 683.6C494.667 683.1 493 682.7 491.8 682.4L495.45 669.55C496.25 666.75 496.85 664.417 497.25 662.55C497.383 661.85 498.6 655.217 500.9 642.65C502.333 634.65 503.783 628.083 505.25 622.95C512.983 596.283 523.367 573.55 536.4 554.75C539.067 550.883 540.133 547.333 539.6 544.1C539.033 540.767 536.75 537.983 532.75 535.75C524.683 531.25 516.267 527.85 507.5 525.55C487.267 520.217 470.817 510.983 458.15 497.85C457.183 496.817 456.65 495.9 456.55 495.1C456.483 494.333 456.783 493.283 457.45 491.95C460.45 485.95 466.367 473.5 475.2 454.6C475.7 453.5 477.2 449.817 479.7 443.55C493.867 454.383 508 463.45 522.1 470.75C537.333 478.65 552.983 484.717 569.05 488.95C566.817 493.717 565.667 496.183 565.6 496.35C555.733 521.717 548.717 546.967 544.55 572.1C543.317 579.5 542.983 586.1 543.55 591.9C544.217 598.933 546.217 605.3 549.55 611C549.817 611.467 549.967 612.217 550 613.25C550 614.483 550.067 615.3 550.2 615.7C550.567 616.867 551.05 618.683 551.65 621.15C552.283 623.283 553.067 624.85 554 625.85C557.367 629.317 562.867 631.25 570.5 631.65C578.033 632.05 583.833 630.8 587.9 627.9C591.267 625.5 592.95 622.567 592.95 619.1C592.95 615.633 591.233 612.767 587.8 610.5C586.8 609.833 585.317 609.15 583.35 608.45C581.083 607.65 579.533 607.033 578.7 606.6C578 606.2 577.35 605.617 576.75 604.85C576.117 604.017 575.8 603.267 575.8 602.6C575.767 599.533 575.767 593.217 575.8 583.65C575.867 575.75 575.8 569.417 575.6 564.65C574.667 540.25 577.833 514.583 585.1 487.65C586.867 481.05 586.85 475.517 585.05 471.05C583.183 466.417 579.283 462.633 573.35 459.7C569.25 457.667 564.35 455.65 558.65 453.65C556.883 453.017 551.833 451.367 543.5 448.7C526.533 443.2 508.283 434.483 488.75 422.55C487.35 421.717 486.4 420.767 485.9 419.7C485.467 418.767 485.267 417.45 485.3 415.75C485.367 400.05 485.183 386.433 484.75 374.9C484.683 373.1 484.933 371.817 485.5 371.05C486.033 370.317 487.15 369.683 488.85 369.15C502.917 364.683 515.783 360.283 527.45 355.95C529.683 355.117 532.35 353.867 535.45 352.2C538.917 350.267 541.533 348.833 543.3 347.9C543.967 351.9 544.917 357.7 546.15 365.3C547.25 372.033 548.217 377.633 549.05 382.1C551.483 395.133 554.917 405.933 559.35 414.5C564.817 425.033 572.383 433.55 582.05 440.05C587.417 443.65 592.95 445.45 598.65 445.45C604.617 445.417 609.917 443.383 614.55 439.35C616.45 437.683 617.467 435.55 617.6 432.95C617.667 431.683 617.4 429.483 616.8 426.35C616.567 425.15 615.65 423.9 614.05 422.6C612.45 421.333 611.017 420.667 609.75 420.6C605.383 420.433 601.95 419.233 599.45 417C597.083 414.9 595.4 411.75 594.4 407.55C594.367 407.417 594.217 407.133 593.95 406.7L582.85 384.35C578.417 375.417 574.767 367.967 571.9 362C564.733 346.933 561.45 330.533 562.05 312.8C566.917 315.9 569.9 317.867 571 318.7C575.567 322.167 581.333 323.733 588.3 323.4C595.267 323.1 600.833 321.017 605 317.15C607.7 314.65 608.883 311.917 608.55 308.95C608.25 305.917 606.483 303.567 603.25 301.9C600.017 300.2 596.233 299.1 591.9 298.6C590.1 298.367 588.5 297.817 587.1 296.95C585.9 296.217 584.6 295.117 583.2 293.65C577.933 287.983 574.583 284.417 573.15 282.95C569.25 279.017 565.633 275.75 562.3 273.15C551.367 264.583 543.617 258 539.05 253.4C531.15 245.433 525.3 237.067 521.5 228.3C518.767 222 514.967 218.25 510.1 217.05C505.333 215.85 500 217.2 494.1 221.1C493.1 221.767 491.65 222.883 489.75 224.45C479.783 231.883 472.317 237.433 467.35 241.1C458.483 247.7 450.95 253.15 444.75 257.45C439.05 261.417 435.15 263.217 433.05 262.85ZM417.45 282.65C422.283 284.317 427.883 286.783 434.25 290.05C437.883 291.95 443.3 294.867 450.5 298.8C456.433 301.867 460.433 307.15 462.5 314.65L477.15 367.5C477.25 367.9 477.283 368.433 477.25 369.1C477.183 370.267 477.15 370.9 477.15 371C472.817 367.6 469.583 365.083 467.45 363.45C463.75 360.583 460.567 358.233 457.9 356.4C440.867 344.733 420.233 335.333 396 328.2C359.8 317.6 323.667 312.617 287.6 313.25C271.833 313.517 255.817 316.133 239.55 321.1C225.317 325.433 210.333 331.767 194.6 340.1C187.233 344.033 179.767 348.867 172.2 354.6C166.067 359.267 159.283 365 151.85 371.8C151.25 372.333 149.1 374.117 145.4 377.15L143.85 376.4C145.617 370.367 146.95 365.833 147.85 362.8C149.45 357.433 150.967 352.983 152.4 349.45C154.333 344.717 156.767 339.267 159.7 333.1C163.233 325.933 165.867 320.55 167.6 316.95C170.367 311.25 174.633 306.3 180.4 302.1C184.233 299.3 189.95 296.117 197.55 292.55C210.05 286.683 220.483 282.133 228.85 278.9C240.417 274.4 251.283 271.067 261.45 268.9C288.783 262.933 315.417 261.567 341.35 264.8C366.25 267.867 391.617 273.817 417.45 282.65ZM439.9 289.55C431.6 284.883 422.1 280.9 411.4 277.6C403.6 275.2 393.617 272.75 381.45 270.25L356.8 265.15C347.367 263.317 339.083 261.967 331.95 261.1C312.283 258.767 290.933 259.933 267.9 264.6C241.533 269.933 214.517 279.9 186.85 294.5C186.25 294.8 185.383 294.633 184.25 294C188.45 288.967 191.6 285.2 193.7 282.7C197.433 278.267 200.683 274.617 203.45 271.75C206.883 268.217 211.117 264.117 216.15 259.45C221.95 254.117 226.283 250.117 229.15 247.45C237.583 239.65 249.067 234.333 263.6 231.5C277.467 228.833 289.883 227 300.85 226C314.217 224.733 326.783 224.533 338.55 225.4C349.75 226.2 359.4 227.433 367.5 229.1C377.733 231.233 386.933 234.283 395.1 238.25C402.033 241.65 407.917 245.833 412.75 250.8C417.683 255.867 423.5 262.15 430.2 269.65C434.033 273.917 439.733 280.317 447.3 288.85C447.833 289.483 448.467 290.3 449.2 291.3L451.05 293.8L450.2 294.85C444.467 291.95 441.033 290.183 439.9 289.55ZM449.8 261.25C454.967 258.117 459.217 255.367 462.55 253C466.75 250.033 471.45 246.483 476.65 242.35C479.05 240.45 483.633 236.75 490.4 231.25C494.2 228.183 496.683 226.317 497.85 225.65C500.817 223.95 503.867 223.3 507 223.7C508.733 223.9 509.883 224.367 510.45 225.1C511.05 225.833 511.183 227.083 510.85 228.85C510.083 232.75 508.6 236.55 506.4 240.25C504.6 243.25 502.133 246.467 499 249.9C488.233 261.667 474.783 271.567 458.65 279.6C453.683 282.067 449.617 282.567 446.45 281.1C443.317 279.633 440.017 275.683 436.55 269.25C442.45 265.683 446.867 263.017 449.8 261.25ZM455.6 286.15C464.9 282.65 474.167 277.383 483.4 270.35C490.067 265.25 498.167 258 507.7 248.6C514.5 262.433 520.883 273.433 526.85 281.6C534.783 292.567 543.717 301.267 553.65 307.7C543.283 313.433 535.517 317.717 530.35 320.55C521.183 325.55 513.35 329.55 506.85 332.55C503.283 334.183 498.733 335.6 493.2 336.8C486.833 338.033 482.083 339 478.95 339.7C478.45 339.833 477.767 339.65 476.9 339.15C476.033 338.65 475.533 338.167 475.4 337.7C471.633 321.467 465.033 304.833 455.6 287.8C455.533 287.7 455.517 287.533 455.55 287.3C455.583 286.8 455.6 286.417 455.6 286.15ZM375.85 224.95C378.217 226.217 379.733 227.05 380.4 227.45C382.1 228.483 383.6 229.517 384.9 230.55C362.667 224.25 341.533 221.633 321.5 222.7C312.8 223.167 302.033 223.967 289.2 225.1C274.867 226.433 264.1 227.4 256.9 228C258.267 226.967 259.317 226.167 260.05 225.6C261.417 224.6 262.6 223.8 263.6 223.2C278.633 214.467 289.45 208.333 296.05 204.8C301.017 202.1 306.533 200.733 312.6 200.7C317.4 200.667 323.05 201.5 329.55 203.2C336.717 205.033 344.667 208.167 353.4 212.6C358.467 215.2 365.95 219.317 375.85 224.95ZM371 378.5C357.867 373.967 345.033 370.867 332.5 369.2C307.667 365.967 283.7 367.15 260.6 372.75C235.1 379.05 212.417 390.05 192.55 405.75C182.817 413.417 175 421.033 169.1 428.6C162 437.667 157.017 447.4 154.15 457.8C154.117 457.967 153.95 458.217 153.65 458.55C152.95 459.317 152.45 459.867 152.15 460.2C150.083 454.633 148.567 450.533 147.6 447.9C145.9 443.267 144.733 439.35 144.1 436.15C142.133 426.617 141 416.717 140.7 406.45C140.5 398.55 142.283 391.117 146.05 384.15C149.383 378.05 154.35 372.167 160.95 366.5C168.183 360.267 176.6 354.317 186.2 348.65C193.567 344.317 202.683 339.567 213.55 334.4C229.683 326.767 246.983 321.533 265.45 318.7C282.15 316.167 300.233 315.533 319.7 316.8C361.867 319.567 399.75 329.383 433.35 346.25C438.917 349.05 445.35 352.817 452.65 357.55C456.85 360.283 463.083 364.433 471.35 370C477.95 374.3 481.35 380.8 481.55 389.5C481.983 406.7 479.483 424.067 474.05 441.6C473.917 441.967 473.7 442.417 473.4 442.95C473.2 443.25 472.85 443.817 472.35 444.65C471.217 443.917 470.383 443.383 469.85 443.05C468.95 442.483 468.283 441.933 467.85 441.4C460.083 431.567 450.85 422.6 440.15 414.5C430.683 407.3 419.75 400.55 407.35 394.25C394.517 387.717 382.4 382.467 371 378.5ZM485.75 362.95C483.317 363.55 481.483 363.4 480.25 362.5C479.083 361.633 478.35 359.967 478.05 357.5C477.883 356.133 477.583 354.467 477.15 352.5C476.55 349.533 476.233 348 476.2 347.9C479.7 346.9 484.867 345.483 491.7 343.65C497.7 341.983 502.65 340.333 506.55 338.7C510.717 336.967 515.767 334.5 521.7 331.3C528.267 327.633 533.2 324.933 536.5 323.2C539.533 321.6 541.817 320.417 543.35 319.65C545.983 318.317 548.317 317.317 550.35 316.65C552.717 315.85 554.517 316.05 555.75 317.25C556.983 318.417 557.283 320.25 556.65 322.75C555.817 326.05 554.25 329.067 551.95 331.8C542.85 342.5 530.267 350.567 514.2 356C510.6 357.233 505.883 358.483 500.05 359.75C491.783 361.55 487.017 362.617 485.75 362.95ZM567.1 282.6C571.267 286.333 574.583 290.267 577.05 294.4C578.817 297.4 579.867 299.45 580.2 300.55C580.9 302.983 580.567 305.233 579.2 307.3C578.2 308.8 576.317 309.567 573.55 309.6C570.817 309.667 568.033 308.983 565.2 307.55C551.8 300.817 539.783 290.033 529.15 275.2C524.783 269.133 521.433 263.8 519.1 259.2C516 253.1 513.983 247.133 513.05 241.3C512.85 240.067 512.85 238.517 513.05 236.65C513.383 234.55 513.583 232.967 513.65 231.9L515.9 231.65C516.033 231.883 517.183 233.683 519.35 237.05C520.75 239.217 521.85 241.05 522.65 242.55C525.983 248.617 530.733 254.367 536.9 259.8C540.633 263.1 546.6 267.583 554.8 273.25C560 276.817 564.1 279.933 567.1 282.6ZM556.4 331.85C557.4 335.017 558.733 339.633 560.4 345.7C561.967 350.967 563.5 355.267 565 358.6C567.767 364.733 571.65 372.817 576.65 382.85C582.65 394.85 586.617 402.883 588.55 406.95C590.95 411.883 592.217 416.3 592.35 420.2C592.417 421.767 592.05 423.467 591.25 425.3C590.417 427.167 589.4 428.567 588.2 429.5C586.5 430.8 584.533 431.217 582.3 430.75C580.233 430.317 578.417 429.25 576.85 427.55C571.483 421.783 567.767 416.933 565.7 413C554.9 392.633 549.417 370.083 549.25 345.35C549.217 339.583 551.6 335.083 556.4 331.85ZM594.2 304.6C598.8 305.433 601.567 306.867 602.5 308.9C602.767 309.433 602.85 310.117 602.75 310.95C602.683 311.783 602.467 312.467 602.1 313C600.233 315.767 596.233 317.35 590.1 317.75C584 318.15 579.583 317.117 576.85 314.65C581.317 309.617 584.033 306.617 585 305.65C586.567 304.083 589.633 303.733 594.2 304.6ZM133.1 240.85C130.8 238.683 128.1 235.867 125 232.4C123.067 230.233 121.783 228.05 121.15 225.85C120.417 223.083 120.883 220.733 122.55 218.8C124.183 216.867 126.367 216.233 129.1 216.9C130.8 217.3 133.033 218.35 135.8 220.05C142.233 224.083 149.967 229.533 159 236.4C167.633 243 173.583 247.383 176.85 249.55C183.75 254.05 190.367 257.317 196.7 259.35C198.033 259.783 199.683 260.25 201.65 260.75C203.883 261.283 205.55 261.683 206.65 261.95C205.883 264.75 204.767 266.667 203.3 267.7C201.867 268.667 199.917 268.917 197.45 268.45C186.35 266.217 176.783 263.7 168.75 260.9C158.75 257.433 149.867 253.167 142.1 248.1C139.2 246.233 136.2 243.817 133.1 240.85ZM118.15 225.85C118.217 226.983 118.4 228.533 118.7 230.5C118.867 232.1 118.783 233.333 118.45 234.2C116.283 239.733 112.8 247.617 108 257.85C101.967 270.65 98.2333 278.417 96.8 281.15C92.2 289.75 87.4 296.917 82.4 302.65C76.0333 309.917 68.9167 315.283 61.05 318.75C58.0833 320.05 55.15 320.617 52.25 320.45C49.3833 320.283 47.3333 319.417 46.1 317.85C44.6667 316.083 44.0833 313.817 44.35 311.05C44.5833 308.083 45.7833 305.433 47.95 303.1C53.9167 296.6 61.1333 289.783 69.6 282.65C80.9 273.05 89.6833 264.733 95.95 257.7C104.717 247.9 111.4 237.817 116 227.45C116 227.417 116.717 226.883 118.15 225.85ZM70.15 336.05C71.45 335.217 73.2667 334.633 75.6 334.3C80.9333 333.533 87 333.6 93.8 334.5C96.1 334.8 102.05 335.883 111.65 337.75C120.017 339.35 126.683 340.25 131.65 340.45C139.05 340.717 145.833 339.8 152 337.7C151.967 341.2 151.383 343.767 150.25 345.4C149.15 347 147.133 348.283 144.2 349.25C136.1 351.95 128.683 353.85 121.95 354.95C113.917 356.283 106.3 356.583 99.1 355.85C95.2667 355.45 90.85 354.533 85.85 353.1C85.4167 352.967 81.0667 351.617 72.8 349.05C70.8333 348.45 69.3333 347.483 68.3 346.15C67.1 344.617 66.7 342.817 67.1 340.75C67.5 338.683 68.5167 337.117 70.15 336.05ZM42.35 317.45C43.15 318.95 44.4167 321.35 46.15 324.65C40.95 326.417 36.15 327.267 31.75 327.2C27.15 327.1 22.7333 325.983 18.5 323.85C17.9667 323.617 17.55 322.917 17.25 321.75C16.9167 320.617 16.8833 319.75 17.15 319.15C18.3167 316.383 21.55 314.05 26.85 312.15C32.1833 310.25 35.95 310.167 38.15 311.9C39.55 313 40.95 314.85 42.35 317.45ZM66.75 351.1L68.95 350.45C69.3167 351.217 69.9667 352.35 70.9 353.85C71.6667 355.217 72.0667 356.35 72.1 357.25C72.2667 370.717 72.0667 381.767 71.5 390.4C70.7 402.467 69.1167 413.417 66.75 423.25C63.7833 435.517 59.0333 445.25 52.5 452.45C48.0667 457.383 42.9667 459.733 37.2 459.5C35.2667 459.433 33.8167 458.933 32.85 458C31.9167 457.067 31.3333 455.667 31.1 453.8C30.7333 450.933 31.05 448.05 32.05 445.15C32.8167 442.85 34.1167 440.283 35.95 437.45C48.1833 418.483 56.4 399.9 60.6 381.7C61.3667 378.3 62.2167 374.067 63.15 369C64.2167 363.333 65.0167 359.083 65.55 356.25C65.5833 356.117 65.9833 354.4 66.75 351.1ZM317.7 404.55C315.767 405.117 314.333 405.2 313.4 404.8C310.467 403.4 307.2 402.95 303.6 403.45C302.167 403.617 298.967 404.4 294 405.8C291.4 406.567 289.05 406.733 286.95 406.3C283.75 405.7 280.35 405.767 276.75 406.5C274.617 406.933 271.3 407.917 266.8 409.45C263.333 410.65 258.933 412.4 253.6 414.7C246.567 417.733 242.233 419.583 240.6 420.25C237.233 421.617 235.083 422.55 234.15 423.05C231.917 424.283 230.25 425.8 229.15 427.6C226.817 431.5 223.333 434.9 218.7 437.8C214.233 440.6 211.633 444.667 210.9 450C210.633 452 209.3 453.967 206.9 455.9C204.2 458.133 202.217 460.317 200.95 462.45C199.383 465.05 198.633 467.917 198.7 471.05C198.733 471.917 198.517 472.867 198.05 473.9C197.583 474.867 197.017 475.683 196.35 476.35C192.117 480.517 190.183 486.133 190.55 493.2C190.583 493.967 190.517 494.933 190.35 496.1C190.25 496.733 190.083 497.683 189.85 498.95L188.2 500.15C184.933 497.783 182.483 496 180.85 494.8C177.95 492.667 175.583 490.783 173.75 489.15C172.25 487.817 170.35 485.85 168.05 483.25C165.383 480.283 163.517 478.267 162.45 477.2C155.45 470.233 154.15 461.95 158.55 452.35C168.183 431.283 183.3 413.967 203.9 400.4C223.267 387.533 242.9 378.817 262.8 374.25C283.733 369.383 306.75 368.75 331.85 372.35C357.683 376.083 383.15 384.467 408.25 397.5C420.85 404.033 431.883 411.117 441.35 418.75C451.983 427.317 461 436.85 468.4 447.35C469.067 448.25 469.517 449.417 469.75 450.85C469.983 452.25 469.933 453.467 469.6 454.5C463.4 473.5 454.017 489.4 441.45 502.2C441.183 502.5 440.8 502.933 440.3 503.5C439.8 504.033 439.35 504.417 438.95 504.65C437.917 505.25 437.25 505.617 436.95 505.75C436.117 506.117 435.5 506.217 435.1 506.05C434.3 505.75 433.733 504.517 433.4 502.35C433.3 501.65 433.233 500.133 433.2 497.8C433.133 495.933 432.95 494.467 432.65 493.4C430.517 485.933 427.833 477.6 424.6 468.4C424.367 467.767 423.85 467.067 423.05 466.3C421.717 465.067 421.017 464.417 420.95 464.35L411.1 453.3C407.267 449.367 404.45 446.367 402.65 444.3C401.283 442.767 400.333 441.283 399.8 439.85C398.6 436.85 397.083 434.417 395.25 432.55C393.25 430.517 390.767 429.017 387.8 428.05C386.767 427.717 385.75 427.117 384.75 426.25C383.75 425.383 383.017 424.467 382.55 423.5C380.25 418.667 376.517 416.033 371.35 415.6C369.417 415.433 367.483 414.867 365.55 413.9C364.317 413.3 362.567 412.217 360.3 410.65C358.7 409.55 356.717 408.75 354.35 408.25C352.217 407.783 350.017 407.583 347.75 407.65C344.383 407.85 341.75 407.85 339.85 407.65C337.05 407.35 334.533 406.6 332.3 405.4C328.067 403.133 323.2 402.85 317.7 404.55ZM314.45 409.3C315.217 409.3 315.917 409.183 316.55 408.95C320.117 407.617 323.417 407.033 326.45 407.2C329.75 407.367 332.95 408.433 336.05 410.4C337.217 411.167 338.717 411.65 340.55 411.85C342.15 412.05 343.8 412.033 345.5 411.8C349.867 411.2 352.867 411.05 354.5 411.35C357.533 411.917 359.867 413.8 361.5 417C361.7 417.367 362.183 417.667 362.95 417.9C363.617 418.067 364.3 418.15 365 418.15C372.5 418.317 377.85 421.633 381.05 428.1C381.717 429.433 382.5 430.417 383.4 431.05C384.333 431.717 385.567 432.133 387.1 432.3C391.667 432.8 394.717 435.933 396.25 441.7C396.75 443.5 397.533 445.05 398.6 446.35C399.567 447.517 400.883 448.55 402.55 449.45C406.617 451.717 409.733 455.25 411.9 460.05C412.467 461.25 413.533 462.517 415.1 463.85C416.033 464.617 417.45 465.7 419.35 467.1C420.483 468.033 421.333 469.05 421.9 470.15C422.4 471.183 422.733 472.517 422.9 474.15C423.067 475.817 423.667 477.9 424.7 480.4C426.167 484.033 426.983 486.1 427.15 486.6C428.05 489.367 428.8 492.517 429.4 496.05C429.833 498.383 430.133 501.133 430.3 504.3C430.467 508.133 430.5 511.733 430.4 515.1C430.367 515.767 430.183 517.067 429.85 519C429.55 520.6 429.433 521.867 429.5 522.8C429.967 528.667 428.317 533.717 424.55 537.95C423.883 538.717 423.383 539.733 423.05 541C422.717 542.1 422.55 543.25 422.55 544.45C422.617 547.283 422.4 549.567 421.9 551.3C421.233 553.6 419.983 555.533 418.15 557.1C417.717 557.5 417.333 558.017 417 558.65C416.7 559.317 416.567 559.883 416.6 560.35C416.967 563.717 416.167 566.633 414.2 569.1C412.867 570.767 410.5 572.65 407.1 574.75C405.933 575.483 404.533 576.55 402.9 577.95C402 578.75 400.55 580.017 398.55 581.75C395.683 578.517 393.95 574.883 393.35 570.85C392.75 566.883 393.3 562.617 395 558.05C401.867 539.583 402.05 523.2 395.55 508.9C389.083 494.6 376.617 483.917 358.15 476.85C357.717 476.717 356.633 476.283 354.9 475.55C356.933 473.95 357.95 472.567 357.95 471.4C357.983 470.2 356.933 468.983 354.8 467.75C353.167 466.783 351.017 465.817 348.35 464.85C345.317 463.783 343.017 462.933 341.45 462.3L345.35 458.55C341.017 455.517 335.85 454.5 329.85 455.5L313.3 458.25L320.5 449.15C318.2 448.15 315.817 447.833 313.35 448.2C311.45 448.5 309.333 449.233 307 450.4C305.4 451.2 303.333 452.533 300.8 454.4C297.867 456.567 295.817 458 294.65 458.7C292.95 459.767 290.183 460.9 286.35 462.1C285.117 462.5 283.6 462.917 281.8 463.35C279.633 463.85 277.933 464.25 276.7 464.55L280.9 469.45L272.05 473.25C238.05 487.717 217.7 514.483 211 553.55C210.033 559.45 209.45 562.933 209.25 564C208.483 568.033 207.65 571.733 206.75 575.1C205.783 573.867 205.067 572.95 204.6 572.35C203.733 571.25 203.183 570.283 202.95 569.45C202.35 567.383 201.633 565.7 200.8 564.4C199.8 562.9 198.45 561.617 196.75 560.55C194.083 558.85 192.217 556.85 191.15 554.55C189.983 551.95 189.883 549.1 190.85 546C191.017 545.4 191.033 544.7 190.9 543.9C190.767 543.133 190.517 542.467 190.15 541.9C186.017 535.533 185.733 529.267 189.3 523.1C189.6 522.633 189.75 522 189.75 521.2C189.75 520.467 189.65 519.767 189.45 519.1C187.383 512.133 188.65 506.117 193.25 501.05C193.65 500.617 193.917 499.967 194.05 499.1C194.183 498.3 194.183 497.533 194.05 496.8C193.35 492.8 193.35 489.35 194.05 486.45C194.883 483.083 196.75 480.167 199.65 477.7C200.583 476.933 201.2 475.367 201.5 473C202.033 469 202.9 465.85 204.1 463.55C205.7 460.55 208.117 458.3 211.35 456.8C211.917 456.533 212.433 455.95 212.9 455.05C213.333 454.25 213.617 453.417 213.75 452.55C214.517 448.317 215.75 445.033 217.45 442.7C219.517 439.833 222.517 438 226.45 437.2C227.117 437.033 227.817 436.483 228.55 435.55C229.15 434.817 229.667 433.95 230.1 432.95C232.767 426.917 237.217 423.717 243.45 423.35C245.15 423.25 246.817 422.417 248.45 420.85C253.05 416.35 258.317 414.317 264.25 414.75C264.95 414.817 265.85 414.65 266.95 414.25C267.55 414.017 268.45 413.667 269.65 413.2C276.017 411.3 280.517 409.983 283.15 409.25C283.517 409.15 283.95 409.15 284.45 409.25C284.983 409.35 285.317 409.517 285.45 409.75C286.85 412.183 288.4 413.117 290.1 412.55C291.1 412.217 292.65 411.25 294.75 409.65C297.983 407.717 300.867 406.6 303.4 406.3C306.6 405.933 309.633 406.767 312.5 408.8C312.933 409.133 313.583 409.3 314.45 409.3ZM246.6 492.25C255.667 484.283 266.283 478.6 278.45 475.2C279.15 475.033 280.15 475.133 281.45 475.5C282.25 475.733 283.6 476.117 285.5 476.65C286.8 475.217 287.083 473.45 286.35 471.35C285.083 468.917 284.217 467.033 283.75 465.7C283.783 465.7 284.133 465.55 284.8 465.25C285.167 465.083 285.433 465.033 285.6 465.1C288.267 466.4 290.65 466.45 292.75 465.25C293.983 464.55 295.717 462.85 297.95 460.15C302.183 454.983 307.483 451.983 313.85 451.15L307.6 463.15L308.9 464.05C312.2 463.117 317.117 461.467 323.65 459.1C329.55 457.433 334.983 457.15 339.95 458.25L331.55 465.6L332.15 467.1H337.1C338.533 467.133 340.683 467.167 343.55 467.2C346.05 467.233 348.183 467.35 349.95 467.55C350.583 467.617 351.25 467.967 351.95 468.6C352.65 469.233 353.117 469.867 353.35 470.5C353.55 471.067 352.733 472.183 350.9 473.85C350.033 474.617 348.717 475.75 346.95 477.25C345.417 478.617 344.15 479.933 343.15 481.2C347.65 478.567 352.417 478.067 357.45 479.7C360.35 480.667 364.55 482.7 370.05 485.8C374.05 487.7 377.767 490.6 381.2 494.5C383.4 497.033 386.15 500.883 389.45 506.05C398.583 520.417 399.9 536.55 393.4 554.45C392.933 555.783 392.183 557.583 391.15 559.85C389.983 562.483 389.2 564.283 388.8 565.25C388.533 565.917 388.533 566.833 388.8 568C389.433 570.467 389.983 572.2 390.45 573.2C396.75 586.2 397.367 599.633 392.3 613.5C387.833 625.8 379.983 636.1 368.75 644.4C357.517 652.7 345.9 656.5 333.9 655.8C330.833 655.633 327.8 656.117 324.8 657.25C322.367 658.183 319.683 659.65 316.75 661.65C312.15 664.817 307.867 666.783 303.9 667.55C299.1 668.45 294.5 667.717 290.1 665.35C288.067 664.25 285.95 662.717 283.75 660.75C282.417 659.583 280.517 657.733 278.05 655.2C276.517 653.6 274.7 651.483 272.6 648.85C269.267 644.717 267.5 642.533 267.3 642.3L266.25 642.9L267.05 646.8C254.683 644.867 243.983 639.767 234.95 631.5C221.517 619.167 214.15 602.417 212.85 581.25C211.75 563.183 213.783 546.983 218.95 532.65C224.483 517.183 233.7 503.717 246.6 492.25ZM182.3 503.7C183.233 503.267 183.917 502.917 184.35 502.65C184.483 503.083 184.7 503.733 185 504.6C185.267 505.4 185.433 506.083 185.5 506.65C185.567 507.383 185.6 508.3 185.6 509.4C185.6 510 185.583 510.9 185.55 512.1C186.25 518.833 185.2 524.983 182.4 530.55C179.867 535.65 175.8 540.4 170.2 544.8C166.567 547.7 161.1 552.033 153.8 557.8C147.4 562.533 141.35 565.983 135.65 568.15C131.917 569.617 128.483 570.5 125.35 570.8C121.617 571.133 118.083 570.65 114.75 569.35C110.15 567.55 109.4 565.067 112.5 561.9C116.067 558.333 120.533 554.983 125.9 551.85C137.067 545.35 145.05 540.417 149.85 537.05C158.35 531.05 165.267 524.733 170.6 518.1C171.667 516.767 173.317 514.583 175.55 511.55C177.683 508.65 179.35 506.467 180.55 505C180.883 504.567 181.467 504.133 182.3 503.7ZM140.15 436.8C140.683 438.433 141.45 440.733 142.45 443.7C143.283 446.233 143.85 448.383 144.15 450.15C144.283 450.95 144.067 451.917 143.5 453.05C142.933 454.15 142.25 455 141.45 455.6C127.517 466.467 116.95 474.45 109.75 479.55C105.083 482.883 100.9 485.45 97.2 487.25C92.4333 489.583 87.7833 491.033 83.25 491.6C77.7167 492.333 72.3167 492.15 67.05 491.05C63.75 490.317 61.8 488.883 61.2 486.75C60.5667 484.55 61.5333 482.35 64.1 480.15C69.7 475.283 75.7 471.65 82.1 469.25C92.5 465.317 101.067 461.717 107.8 458.45C116.867 454.083 124.817 449.317 131.65 444.15C132.717 443.383 134.033 442.3 135.6 440.9C137.467 439.2 138.983 437.833 140.15 436.8ZM23.9 456.7C24.8667 456.867 25.75 457.267 26.55 457.9C27.0167 458.267 27.8667 459.05 29.1 460.25C30.1667 461.217 31.05 461.95 31.75 462.45C32.45 462.917 33.3667 463.417 34.5 463.95C35.8 464.55 36.7667 465 37.4 465.3C34.6 469.233 29.45 471.267 21.95 471.4C14.4833 471.567 9.08333 469.767 5.75 466C7.61667 462.633 10.2 460.1 13.5 458.4C16.8 456.7 20.2667 456.133 23.9 456.7ZM68.55 500.35C68.6833 504.683 68.9333 509.833 69.3 515.8C69.5 519.233 69.8333 524.383 70.3 531.25L71.6 531.4C71.1 536.933 70.3667 545.2 69.4 556.2C68.5333 565.967 67.65 574.233 66.75 581C66.4167 583.433 65.6333 586.1 64.4 589C63.6 590.933 62.35 593.483 60.65 596.65C58.95 599.817 56.5667 602.067 53.5 603.4C50.4667 604.733 47.2 604.983 43.7 604.15C42.8333 603.95 41.95 603.4 41.05 602.5C40.1833 601.6 39.65 600.7 39.45 599.8C38.7167 596.6 38.7667 593.15 39.6 589.45C40.1333 587.05 41.2667 583.75 43 579.55C48.1333 567.017 51.8167 557.417 54.05 550.75C56.5167 543.25 58.2167 534.867 59.15 525.6C59.85 518.8 60.2333 510.233 60.3 499.9C60.0667 498.333 59.9833 497.183 60.05 496.45C60.15 495.15 61 494.517 62.6 494.55C66.4667 494.683 68.45 496.617 68.55 500.35ZM116.85 578.1C116.817 578 116.65 577.25 116.35 575.85C120.117 574.35 123.1 573.933 125.3 574.6C127.467 575.3 129.367 577.233 131 580.4C136.1 590.433 139.9 598.383 142.4 604.25C146.233 613.183 149.017 621.533 150.75 629.3C154.317 645 154.733 659.017 152 671.35C151.167 675.05 149.933 677.983 148.3 680.15C146.3 682.817 143.567 684.533 140.1 685.3C135.467 686.367 132.95 684.633 132.55 680.1C132.15 675.033 132.2 670.717 132.7 667.15C133.867 659.283 134.033 650.95 133.2 642.15C132.533 634.783 131.083 626.617 128.85 617.65C127.517 612.25 125.617 605.633 123.15 597.8C120.317 589.067 118.217 582.5 116.85 578.1ZM124.45 691.35C127.883 689.95 131.483 689.383 135.25 689.65C136.483 689.75 138.117 689.45 140.15 688.75C142.817 687.817 144.467 687.283 145.1 687.15C146.967 686.783 148.217 686.567 148.85 686.5C150.283 686.4 151.283 686.583 151.85 687.05C152.417 687.517 152.733 688.483 152.8 689.95C152.867 691.15 152.75 692.383 152.45 693.65C151.283 698.417 148.767 701.967 144.9 704.3C141.7 706.2 136.5 707.783 129.3 709.05C128.967 709.117 128.55 709.133 128.05 709.1L126.8 709.05L126.5 709.9L121.4 708.2C119.367 707.5 117.717 706.817 116.45 706.15C114.45 705.083 113.35 703.717 113.15 702.05C112.983 700.35 113.767 698.733 115.5 697.2C118.5 694.533 121.483 692.583 124.45 691.35ZM56.25 607.65C54.65 612.417 51.1667 616.1 45.8 618.7C40.5333 621.267 35.2833 621.9 30.05 620.6C29.85 620.533 29.5333 620.45 29.1 620.35C26.4333 619.55 24.5 618.867 23.3 618.3C21.1667 617.333 20.2833 615.633 20.65 613.2C21.0167 610.733 23.25 608.55 27.35 606.65C31.45 604.75 34.45 604.517 36.35 605.95C38.6833 607.683 41.2333 608.633 44 608.8C46.0333 608.933 48.6667 608.617 51.9 607.85C52.4 607.75 53.05 607.7 53.85 607.7C54.85 607.7 55.65 607.683 56.25 607.65ZM607.65 425.8C609.217 426.1 610.433 426.9 611.3 428.2C612.233 429.567 612.583 431.183 612.35 433.05C611.85 436.483 609.417 438.617 605.05 439.45C601.25 440.117 598.333 440.367 596.3 440.2C593.133 439.9 590.417 438.683 588.15 436.55C589.783 433.883 591 431.95 591.8 430.75C593.167 428.583 594.517 427.133 595.85 426.4C598.45 424.967 602.383 424.767 607.65 425.8ZM576.5 486.15L578.7 486.85C578.2 489.75 577.4 494.067 576.3 499.8C575.367 504.867 574.667 509.183 574.2 512.75C570.6 539.95 569.767 563.85 571.7 584.45C572.167 589.083 572.3 592.65 572.1 595.15C571.833 599.05 570.867 602.467 569.2 605.4C567.533 608.3 565.367 609.95 562.7 610.35C560 610.783 557.683 609.717 555.75 607.15C554.15 605.017 552.8 602.683 551.7 600.15C550.567 597.517 549.833 594.95 549.5 592.45C548.6 585.417 548.65 577.95 549.65 570.05C550.517 563.483 552.117 556.167 554.45 548.1C556.817 539.8 558.6 533.567 559.8 529.4C561.9 522.167 563.833 516 565.6 510.9C566.8 507.467 568.533 503.3 570.8 498.4C573.4 492.967 575.3 488.883 576.5 486.15ZM576.6 470.4C577.667 471.5 578.467 472.983 579 474.85C579.567 476.75 579.633 478.317 579.2 479.55C578.9 480.417 577.8 481.2 575.9 481.9C573.6 482.633 571.967 483.217 571 483.65C566.067 483.217 560.6 481.867 554.6 479.6C547.833 476.733 542.767 474.617 539.4 473.25C522.267 466.317 505.583 456.45 489.35 443.65C485.95 441.017 483.25 438.15 481.25 435.05C480.817 434.35 480.65 433.267 480.75 431.8C480.95 430.1 481.05 428.85 481.05 428.05C481.65 428.183 482.567 428.333 483.8 428.5C484.867 428.667 485.733 428.9 486.4 429.2C492.333 431.833 501.2 435.8 513 441.1C523.567 445.8 532.45 449.667 539.65 452.7C542.217 453.767 546.233 455.1 551.7 456.7C557.1 458.233 561.1 459.567 563.7 460.7C568 462.567 572.3 465.8 576.6 470.4ZM528.55 540.05C530.617 541.117 532.15 542.383 533.15 543.85C534.383 545.617 534.7 547.567 534.1 549.7C533.5 551.9 532.2 553.45 530.2 554.35C528.767 554.983 526.717 555.367 524.05 555.5C513.883 555.867 503.85 553.333 493.95 547.9C476.317 538.233 461.733 528.1 450.2 517.5C448.867 516.267 447.333 514.65 445.6 512.65C443.667 510.35 442.183 508.617 441.15 507.45C444.783 502.783 447.25 500.333 448.55 500.1C449.917 499.867 452.6 501.483 456.6 504.95C471.033 517.383 487.9 525.983 507.2 530.75C510.4 531.55 514.033 532.9 518.1 534.8C518.767 535.1 522.25 536.85 528.55 540.05ZM519.7 573.15C517 578.617 514.8 583.267 513.1 587.1C504.933 605.533 498.833 626.383 494.8 649.65C494.167 653.383 493.15 657.9 491.75 663.2C490.983 666.2 489.783 670.683 488.15 676.65C487.983 677.45 487.5 678.5 486.7 679.8C483.3 685.6 479.35 688.033 474.85 687.1C472.383 686.6 470.333 685.333 468.7 683.3C467.033 681.267 465.917 678.667 465.35 675.5C464.15 668.733 464.15 661.583 465.35 654.05C466.317 647.883 468.2 641.017 471 633.45C480.3 608.117 493.8 584.967 511.5 564C513.633 561.467 515.867 559.8 518.2 559C520.667 558.133 523.5 558.15 526.7 559.05C525.133 562.25 522.8 566.95 519.7 573.15ZM468.15 691.1C470.683 690.833 474.35 690.367 479.15 689.7C483.383 689.2 486.95 688.933 489.85 688.9C493.35 688.867 497.4 689.917 502 692.05C503.367 692.65 504.05 693.55 504.05 694.75C504.083 695.983 503.383 697.05 501.95 697.95C493.75 703.283 484.483 704.333 474.15 701.1C471.817 700.367 470.1 699.217 469 697.65C467.733 695.817 467.45 693.633 468.15 691.1ZM574.6 611.75C575.467 611.917 576.717 612.1 578.35 612.3C579.783 612.5 580.867 612.817 581.6 613.25C584.833 615.117 586.617 616.967 586.95 618.8C587.083 619.633 586.7 620.683 585.8 621.95C584.933 623.15 583.983 624.1 582.95 624.8C580.217 626.633 576.317 627.433 571.25 627.2C566.15 626.967 562.467 625.833 560.2 623.8C559.4 623.067 558.717 622.05 558.15 620.75C557.65 619.583 557.333 618.367 557.2 617.1C557.167 616.733 557.75 616.217 558.95 615.55C560.05 614.917 561.117 614.467 562.15 614.2C563.883 613.733 565.967 613.283 568.4 612.85C569.8 612.583 571.867 612.217 574.6 611.75ZM364.45 498.15C363.583 496.917 362.15 495.867 360.15 495C357.917 494.033 355.6 493.917 353.2 494.65C350.767 495.383 348.5 496.917 346.4 499.25L365.35 503.95C365.783 501.583 365.483 499.65 364.45 498.15ZM360.25 514.9C355.95 512.333 352.167 511.45 348.9 512.25C345.667 513.083 342.767 515.65 340.2 519.95L338.9 522.1C335.967 527.1 333.75 533.433 332.25 541.1C331.417 545.5 330.317 552.133 328.95 561C328.883 561.4 329.017 561.9 329.35 562.5C329.717 563.133 330.1 563.517 330.5 563.65C336.6 565.983 340.083 570.867 340.95 578.3C342.317 578.3 344.283 578.283 346.85 578.25C349.15 578.217 351.067 578.25 352.6 578.35C354.2 578.45 356.183 578.65 358.55 578.95C359.883 579.117 361.9 579.383 364.6 579.75C364.633 579.65 364.817 578.7 365.15 576.9C365.317 575.967 365.533 575.267 365.8 574.8C370.3 567.267 373.017 558.283 373.95 547.85C374.65 540.483 374.117 534.283 372.35 529.25C370.217 523.217 366.183 518.433 360.25 514.9ZM365.95 525.35C366.717 526.283 367.217 527.117 367.45 527.85C372.183 542.65 371.6 556.567 365.7 569.6C363.333 574.8 358.95 577.067 352.55 576.4C349.317 576.033 346.833 575.317 345.1 574.25C342.867 572.817 341.433 570.583 340.8 567.55C340.633 566.783 340.083 565.867 339.15 564.8C337.85 563.367 337.083 562.45 336.85 562.05C336.217 561.083 335.467 559.85 334.6 558.35L332.5 554.55L334.3 553.25C334.667 553.483 335.233 553.783 336 554.15C336.667 554.517 337.183 554.867 337.55 555.2C342.117 558.733 346.6 559.95 351 558.85C355.5 557.75 358.6 554.533 360.3 549.2C361.233 546.333 361.867 542.65 362.2 538.15C362.5 533.083 362.783 529.283 363.05 526.75C363.083 526.45 363.067 526.05 363 525.55C362.933 524.917 362.9 524.5 362.9 524.3L363.85 522.85C364.317 523.45 365.017 524.283 365.95 525.35ZM339.05 532.65C339.65 529.683 340.317 527.533 341.05 526.2C342.017 524.367 343.467 523.2 345.4 522.7C346.467 522.4 347.883 522.45 349.65 522.85C351.417 523.25 352.333 523.7 352.4 524.2C353.167 528.767 352.967 532.667 351.8 535.9C351.5 536.7 350.467 537.4 348.7 538C346.967 538.567 345.533 538.717 344.4 538.45C343.533 538.25 342.6 537.483 341.6 536.15C340.5 534.517 339.65 533.35 339.05 532.65ZM257.45 602L261.4 599.35C258.667 598.417 256.233 598.317 254.1 599.05C251.967 599.783 250.567 601.233 249.9 603.4C249.7 604.033 249.65 604.883 249.75 605.95C249.817 606.55 249.917 607.45 250.05 608.65L251.35 608.75L253.35 606.3C254.55 607.167 256.217 608.4 258.35 610C260.217 611.4 261.817 612.483 263.15 613.25C268.617 616.383 272.767 621.217 275.6 627.75C276.267 629.25 277.283 631.7 278.65 635.1C279.917 638.3 280.933 640.75 281.7 642.45C284.433 648.517 288.617 652.583 294.25 654.65C299.983 656.783 305.617 656.183 311.15 652.85C314.85 650.65 318.283 648.067 321.45 645.1C324.75 641.967 327.483 638.683 329.65 635.25C332.783 630.283 336.917 625.617 342.05 621.25C345.483 618.317 350.45 614.7 356.95 610.4L360.05 612.65C360.983 608.317 359.483 605.433 355.55 604C353.917 603.4 352.517 603.233 351.35 603.5C349.95 603.867 348.767 604.9 347.8 606.6L352.2 607.85C348.633 613.983 342.317 618.433 333.25 621.2C324.95 623.767 315.517 624.617 304.95 623.75C294.583 622.917 285.133 620.617 276.6 616.85C267.533 612.883 261.15 607.933 257.45 602ZM291.6 635.8C293.067 636.967 294.533 639.15 296 642.35C296.767 642.117 297.8 641.683 299.1 641.05C300.2 640.617 301.033 640.483 301.6 640.65C305.533 641.817 307.667 644.817 308 649.65C302.633 651.717 297.55 651.35 292.75 648.55C287.95 645.717 284.65 641.133 282.85 634.8C286.417 633.633 289.333 633.967 291.6 635.8ZM309.75 643.25C307.15 638.75 303.483 636.25 298.75 635.75C297.75 635.65 296.533 635.217 295.1 634.45C292.967 633.317 291.783 632.7 291.55 632.6C290.217 631.967 289.217 631.5 288.55 631.2C287.35 630.667 286.35 630.45 285.55 630.55C282.783 630.95 280.817 630.317 279.65 628.65C279.017 627.783 278.267 625.683 277.4 622.35C288 625.317 297.067 627.183 304.6 627.95C314.4 628.95 323.55 628.417 332.05 626.35C329.983 631.017 327.333 635.117 324.1 638.65C320.933 642.083 317.117 645.083 312.65 647.65C311.317 645.717 310.35 644.25 309.75 643.25ZM300.85 513.25C297.517 510.383 293.467 508.5 288.7 507.6C284.967 506.9 281.467 507.8 278.2 510.3C276.267 511.767 273.717 514.55 270.55 518.65L270 519.5C258.1 538.833 257.533 558.7 268.3 579.1C272.533 577.2 277.3 576.65 282.6 577.45C285.167 577.85 289.883 579.15 296.75 581.35C300.483 574.917 303.067 570.083 304.5 566.85C307.8 559.483 309.85 552.6 310.65 546.2C311.55 538.8 310.817 531.65 308.45 524.75C306.817 520.017 304.283 516.183 300.85 513.25ZM287.35 526.5C287.383 524.467 288.3 522.617 290.1 520.95C291.9 519.283 293.883 518.467 296.05 518.5C298.283 518.533 300.183 519.55 301.75 521.55C303.35 523.517 304.15 525.883 304.15 528.65C304.183 531.383 303.567 533.5 302.3 535C301.033 536.5 299.217 537.267 296.85 537.3C294.417 537.367 292.217 536.283 290.25 534.05C288.283 531.817 287.317 529.3 287.35 526.5ZM282.1 515.2C281.367 516.733 280.25 519.05 278.75 522.15C276.45 527.35 275.25 531.833 275.15 535.6C274.983 540.433 276.5 544.733 279.7 548.5C282.967 552.3 286.967 554.533 291.7 555.2C295.767 555.733 300.617 555.117 306.25 553.35C304.683 559.017 303.533 562.817 302.8 564.75C301.267 568.783 299.383 572.133 297.15 574.8C296.017 576.133 294.767 576.867 293.4 577C292 577.133 290.583 576.667 289.15 575.6C285.717 573.067 281.767 572.35 277.3 573.45C275.167 573.983 273.267 573.783 271.6 572.85C270.1 571.983 268.867 570.583 267.9 568.65C263.8 560.35 262.717 551 264.65 540.6C266.683 529.5 271.633 521.017 279.5 515.15C280.267 514.817 280.833 514.567 281.2 514.4L282.1 515.2ZM291.25 491.25C290.017 489.683 288.5 488.783 286.7 488.55C283.567 488.15 280.767 488.883 278.3 490.75C276.367 492.15 274.467 494.417 272.6 497.55L293.65 496.1C292.883 493.967 292.083 492.35 291.25 491.25Z" fill="black"/>
</svg>
