<svg width="612" height="502" viewBox="0 0 612 502" fill="none" xmlns="http://www.w3.org/2000/svg">
    <g clip-path="url(#clip0)">
        <path d="M0 502.05H612.4V0H0V502.05ZM426.35 81.2C420.65 84.2333 416.167 87.8167 412.9 91.95C426.333 90.8833 438.583 90.85 449.65 91.85C460.95 92.9167 472.75 95.45 485.05 99.45L479.05 102.3C473.85 105.067 469.233 108.833 465.2 113.6C456.433 123.9 449.967 135.4 445.8 148.1C443.433 155.267 443.1 162.517 444.8 169.85V170.65L442.3 170.7C432.833 170.533 424.167 172.383 416.3 176.25C400.733 183.85 391.2 195.767 387.7 212L387.4 212.9L387.1 213.5C379.8 210.833 372.383 210.033 364.85 211.1C358.083 212.067 351.017 214.6 343.65 218.7L375 223.4C376.067 223.567 377.083 223.267 378.05 222.5C382.383 219.033 386.383 216.417 390.05 214.65C396.017 211.85 401.583 210.683 406.75 211.15C408.25 211.25 410.433 211.7 413.3 212.5C414.233 212.767 415.217 213.3 416.25 214.1C418.017 215.4 418.9 216.883 418.9 218.55C418.9 220.217 418 221.7 416.2 223C414.767 223.9 413.7 224.583 413 225.05C410.933 226.45 409.3 227.983 408.1 229.65C414.9 231.683 418.733 232.85 419.6 233.15C420.633 233.483 421.567 233.617 422.4 233.55C423.333 233.483 424.267 233.183 425.2 232.65C432.4 228.617 439.9 226.717 447.7 226.95C453.067 227.117 457.633 228.567 461.4 231.3C463.467 232.833 464.9 234.617 465.7 236.65C466.167 237.817 466.283 238.85 466.05 239.75C465.817 240.617 465.233 241.433 464.3 242.2C462.733 243.3 461.583 244.167 460.85 244.8C458.617 246.667 457.05 248.517 456.15 250.35C458.25 251.817 459.683 252.85 460.45 253.45C464.517 256.65 467.067 258.717 468.1 259.65C469.367 260.783 470.8 261.233 472.4 261C479.167 260.133 485.817 261.1 492.35 263.9C498.317 266.467 502.8 270.3 505.8 275.4L506.6 276.85C508.3 280.683 507.283 283.55 503.55 285.45C501.15 286.683 498.283 287.25 494.95 287.15L492.4 287L499.4 299.55C500.067 300.75 500.917 301.517 501.95 301.85C503.283 302.283 504.567 302.917 505.8 303.75C511.767 307.817 516.533 312.167 520.1 316.8C521.767 319 522.833 321.3 523.3 323.7C523.9 326.867 523.283 329.45 521.45 331.45C519.583 333.417 517.05 334.2 513.85 333.8C513.283 333.733 512.233 333.55 510.7 333.25L511.2 337.8C511.6 341.733 511.867 344.683 512 346.65C512.033 347.617 512.367 348.567 513 349.5C517.3 355.5 520.133 362.55 521.5 370.65C522.3 375.15 521.667 379.183 519.6 382.75C518.3 384.983 516.717 386.3 514.85 386.7C513.017 387.1 511.033 386.55 508.9 385.05L507.1 383.65L506.3 385.4C503 393.5 501.25 397.783 501.05 398.25C500.517 399.483 500.383 400.717 500.65 401.95C502.817 410.783 501.5 419.233 496.7 427.3C496.233 428.1 495.783 428.767 495.35 429.3C493.617 431.633 491.633 432.5 489.4 431.9C487 431.3 485.467 429.633 484.8 426.9C484.6 425.767 484.433 424.833 484.3 424.1L483.05 425.25C478.383 429.817 475.6 432.567 474.7 433.5C473.9 434.333 473.433 435.033 473.3 435.6C472.167 441.633 468.95 447.133 463.65 452.1C461.983 453.733 459.633 455.517 456.6 457.45C455.333 458.217 453.833 458.717 452.1 458.95C450.433 459.183 448.917 458.833 447.55 457.9C446.217 457 445.3 455.733 444.8 454.1L444.25 451.95C443.817 451.95 443.5 451.983 443.3 452.05C436 454.217 431.233 455.583 429 456.15C428.133 456.383 427.2 457.067 426.2 458.2C421.567 463.733 416.15 467.2 409.95 468.6C408.183 469.033 406.433 469.217 404.7 469.15C400.667 469.117 399.133 467.067 400.1 463L400.35 461.6C398.583 461.733 396.467 462.033 394 462.5C391.233 463.067 389.117 463.483 387.65 463.75L388.6 465.3C390.933 468.6 391.967 472.1 391.7 475.8C391.433 479.467 389.9 482.767 387.1 485.7C383.2 489.733 378.3 492.25 372.4 493.25C357.6 495.717 343.8 494.267 331 488.9C329.1 488.1 327.783 487.15 327.05 486.05C326.25 484.917 325.883 483.35 325.95 481.35C326.183 475.183 326.5 470.133 326.9 466.2C327.433 460.667 328.217 455.65 329.25 451.15C330.283 446.85 331.783 443.067 333.75 439.8C336.817 434.767 341.25 431.15 347.05 428.95C352.85 426.717 358.583 426.433 364.25 428.1C368.05 429.2 371.033 431.1 373.2 433.8L373.65 434.5C387.317 427.633 396.133 423.183 400.1 421.15C403.567 419.383 406.367 417.85 408.5 416.55C414.467 413.05 418.983 409.05 422.05 404.55C424.15 401.483 425.483 398 426.05 394.1C426.25 392.733 426.017 391.433 425.35 390.2C422.583 385.033 418.333 381.983 412.6 381.05C411.833 380.917 410.85 380.783 409.65 380.65C407.95 380.483 406.95 380.383 406.65 380.35L392.25 378.8L387.1 386.8C387.433 387.033 387.8 387.3 388.2 387.6C391.2 389.2 393.417 392.033 394.85 396.1C396.217 399.867 396.75 403.95 396.45 408.35C396.383 409.45 396.167 410.1 395.8 410.3C395.433 410.5 394.75 410.333 393.75 409.8C389.083 407.233 384.417 406.133 379.75 406.5C378.55 406.6 375.817 407.117 371.55 408.05C370.95 408.183 369.917 408.617 368.45 409.35C363.483 411.95 357.967 412.317 351.9 410.45C346.533 408.783 342.483 407.567 339.75 406.8C337.217 406.1 334.683 405.967 332.15 406.4C329.383 406.833 327.15 407.967 325.45 409.8L324.6 410.65C323.9 411.25 323.25 411.533 322.65 411.5C321.983 411.433 321.433 411 321 410.2C320.7 409.633 319.917 407.8 318.65 404.7L318.05 403L314.5 405.25C311.967 406.683 310.5 405.983 310.1 403.15C309.8 399.45 309.567 396.617 309.4 394.65C308.933 394.75 308.45 395.017 307.95 395.45C307.683 395.683 307.267 396.083 306.7 396.65C305.7 397.65 304.85 398.1 304.15 398C303.45 397.9 302.767 397.217 302.1 395.95L300.05 390.35L294.8 393.3C295.6 396.133 295.867 400.05 295.6 405.05C295.567 406.317 295.317 407.1 294.85 407.4C294.383 407.667 293.583 407.5 292.45 406.9C291.25 406.233 289.55 405.033 287.35 403.3C283.25 400.167 278.733 399.3 273.8 400.7C272.367 401.133 271.067 401.75 269.9 402.55C266.2 405.217 261.783 405.95 256.65 404.75L245.65 402.25C240.183 400.983 235.35 400.717 231.15 401.45C226.25 402.25 221.883 404.567 218.05 408.4L216.7 409.8C215.467 411.033 214.3 411.65 213.2 411.65C212.1 411.617 210.933 410.983 209.7 409.75C208.2 408.183 207.1 405.917 206.4 402.95L205.9 400.8C203.967 401.867 202.967 402.417 202.9 402.45C202.3 402.85 201.4 403.5 200.2 404.4C198.633 405.433 197.3 405.217 196.2 403.75C195.633 403.017 195.183 402.1 194.85 401C193.95 397.8 193.733 394.95 194.2 392.45L194.55 389.45C185.483 387.517 177.983 389.383 172.05 395.05L170.4 396.8C169.467 397.7 168.55 398.167 167.65 398.2C166.75 398.233 165.817 397.817 164.85 396.95C163.417 395.75 162.367 393.983 161.7 391.65C161.7 391.617 161.45 390.583 160.95 388.55C159.617 389.25 158.85 389.667 158.65 389.8C158.15 390.1 157.433 390.617 156.5 391.35C155.467 392.083 154.517 392.35 153.65 392.15C152.783 391.95 152.133 391.267 151.7 390.1C150.8 387.833 150.333 385.817 150.3 384.05C150.2 377.25 152.8 371.55 158.1 366.95C161.167 364.283 164.583 363.833 168.35 365.6C169.35 366 170.067 366.35 170.5 366.65C171.433 367.217 172.65 367.45 174.15 367.35C175.283 367.25 176.933 367.433 179.1 367.9C179.733 368.033 181.367 368.567 184 369.5C186.933 366.767 189.5 363.217 191.7 358.85C192.733 356.783 194.433 352.717 196.8 346.65C190.867 340.717 186.833 334 184.7 326.5C183.467 322.233 182.817 318.4 182.75 315C182.617 310.9 183.267 307.05 184.7 303.45C184.433 303.183 184.233 303.017 184.1 302.95C178.5 300.383 174.65 296.017 172.55 289.85C168.617 278.417 168.4 267.267 171.9 256.4C173.667 250.9 176.8 246.567 181.3 243.4L181.9 242.95C180.967 239.183 180.483 237.233 180.45 237.1C179.817 233.767 179.767 230.117 180.3 226.15C180.9 221.183 181.767 217.2 182.9 214.2C185.267 208.033 188.933 203.517 193.9 200.65C191.267 195.817 190.25 190.683 190.85 185.25C191.283 181.017 192.85 176 195.55 170.2C194.317 170.9 193.617 171.317 193.45 171.45L181.5 181.15C180.767 181.75 179.1 183.233 176.5 185.6C169.833 191.833 161.833 193.833 152.5 191.6C149.6 190.9 146.75 190.1 143.95 189.2C136.317 186.6 128.983 185.083 121.95 184.65C120.217 184.55 118.417 184.183 116.55 183.55C113.05 182.417 110.483 180.383 108.85 177.45C107.217 174.55 106.833 171.3 107.7 167.7L107.95 166.55L106.05 166.4C104.85 166.3 103.933 166.217 103.3 166.15C102.2 166.083 101.3 165.95 100.6 165.75C97.3667 164.983 94.7333 163.4 92.7 161C90.7 158.633 89.55 155.717 89.25 152.25C88.6167 145.05 90.7333 138.45 95.6 132.45C96.1667 131.783 96.5167 131.15 96.65 130.55C96.8167 129.917 96.8 129.183 96.6 128.35C95.4667 123.317 96.3 118.65 99.1 114.35C100.467 112.217 102.067 110.75 103.9 109.95C105.733 109.183 107.883 109.033 110.35 109.5L116.5 110.7C117.967 110.967 119.1 110.483 119.9 109.25C122 106.183 124.75 103.917 128.15 102.45C129.117 102.017 129.783 101.483 130.15 100.85C130.483 100.217 130.567 99.4 130.4 98.4C130.367 97.4333 130.333 96.7167 130.3 96.25C130.2 92.4833 130.35 89.4 130.75 87C131.317 83.6667 132.433 80.65 134.1 77.95L131.5 78.4C129.467 78.7333 127.783 78.4 126.45 77.4C125.917 77 125.233 76.1333 124.4 74.8C124.333 74.6667 124.35 74.4667 124.45 74.2C124.55 73.9 124.667 73.7167 124.8 73.65C124.867 73.5833 125.283 73.6 126.05 73.7C126.15 73.7333 126.25 73.85 126.35 74.05C127.517 75.35 128.717 76.0667 129.95 76.2C131.183 76.3667 132.65 75.9333 134.35 74.9C133.383 74.3333 132.583 73.8167 131.95 73.35C130.017 71.9167 128.8 70 128.3 67.6C128.267 67.4 128.333 67.15 128.5 66.85C128.733 66.4833 128.883 66.2167 128.95 66.05C129.117 66.15 129.4 66.2833 129.8 66.45C130.133 66.6167 130.317 66.7833 130.35 66.95C131.083 69.1167 132.167 70.6833 133.6 71.65L133.5 70.15C133.1 66.65 133.9 63.3833 135.9 60.35C139.233 55.4167 143.75 52.5333 149.45 51.7C150.45 51.5333 151.283 51.2667 151.95 50.9C152.65 50.5 153.283 49.8833 153.85 49.05C156.717 45.0167 161.2 41.2 167.3 37.6C176.533 32.1333 186.967 28.8333 198.6 27.7C200.233 27.5667 204.3 27.4167 210.8 27.25C211.967 27.1833 212.833 26.8833 213.4 26.35C220.667 19.45 229.85 15.6333 240.95 14.9C242.983 14.7667 245.367 14.75 248.1 14.85C249.7 14.9167 252.1 15.05 255.3 15.25C256.6 15.3167 258.2 15.8 260.1 16.7C262.533 17.8333 264.1 19.4667 264.8 21.6C265.533 23.7667 265.233 26 263.9 28.3C263.033 29.8 261.517 31.6333 259.35 33.8C257.95 35.2667 257.133 36.1333 256.9 36.4C256 37.4 255.3 38.4 254.8 39.4L256.35 40.6C258.117 42.0667 260.767 44.25 264.3 47.15C265.3 48.05 266.433 48.4167 267.7 48.25C276.467 47.0833 284.533 48.4333 291.9 52.3C297.2 55.0333 300.7 58.8167 302.4 63.65C302.9 65.0833 303.183 66.7167 303.25 68.55C303.317 69.9833 302.95 71.2333 302.15 72.3C301.383 73.3333 300.317 74.0667 298.95 74.5C297.883 74.8667 296.633 75.1 295.2 75.2C290.833 75.4333 287.567 75.6167 285.4 75.75L282.3 76.1L284.35 91.9C290.05 94.4667 294.633 99.2 298.1 106.1L301.65 104.2C319.25 94.6 337.217 87.6 355.55 83.2C370.283 79.6333 384.783 78 399.05 78.3C406.75 78.4333 415.017 79.2 423.85 80.6C424.317 80.6667 425.15 80.8667 426.35 81.2Z" fill="white"/>
        <path d="M417 354.25C420.4 351.083 421.45 347.2 420.15 342.6C419.417 340.067 418.467 337.7 417.3 335.5C412.1 325.833 406.883 313.133 401.65 297.4L399.7 291.45C399.533 290.983 399.467 290.633 399.5 290.4C399.5 290.067 399.717 289.817 400.15 289.65C400.917 289.35 401.467 289.75 401.8 290.85L402.6 293.1C405.467 301.767 408 308.917 410.2 314.55C413.2 322.25 416.35 329.15 419.65 335.25C420.383 336.583 421.167 338.517 422 341.05C423.167 344.65 423.167 347.933 422 350.9C420.9 353.567 418.883 356 415.95 358.2C414.65 359.2 412.933 360.433 410.8 361.9L411.9 362.95C417.633 367.617 422.333 373.817 426 381.55C429.767 389.35 429.3 397.05 424.6 404.65C422.467 408.117 419.517 411.35 415.75 414.35C413.55 416.083 410.983 417.783 408.05 419.45C406.217 420.517 403.5 421.967 399.9 423.8C387.3 430.267 379.233 434.483 375.7 436.45C368.267 440.583 361.617 445.667 355.75 451.7C351.783 455.8 348.833 459.567 346.9 463C346.067 464.467 345.55 465.967 345.35 467.5C345.083 469.533 345.567 471.117 346.8 472.25C348.067 473.35 349.683 473.667 351.65 473.2C352.783 472.9 354.45 472.35 356.65 471.55C357.35 471.283 359.683 470.333 363.65 468.7C366.45 467.5 368.783 466.583 370.65 465.95C375.183 464.383 380.467 462.967 386.5 461.7C388.9 461.2 394.283 460.217 402.65 458.75C411.85 457.083 416.567 456.233 416.8 456.2C422.2 455.2 426.9 454.25 430.9 453.35C449.5 449.217 465.767 439.883 479.7 425.35C491.467 413.083 499.95 398.5 505.15 381.6C510.483 364.167 511.267 346.717 507.5 329.25C501.4 301.35 486.833 277.883 463.8 258.85C449.833 247.317 432.567 238.75 412 233.15C401.8 230.383 390.617 228.083 378.45 226.25L341.7 220.7C340.5 220.5 339.383 220.767 338.35 221.5C332.117 225.867 327.25 230.9 323.75 236.6C322.717 238.267 322.017 239.85 321.65 241.35C319.95 248.05 315.883 252.517 309.45 254.75C304.717 256.383 299.6 256.483 294.1 255.05C290.767 254.183 288.1 252.583 286.1 250.25C284.133 247.95 282.967 245.067 282.6 241.6C282.133 237.433 282.717 232.633 284.35 227.2C285.117 224.667 286.15 221.517 287.45 217.75L291.5 205.6L289.05 203.8C280.717 197.9 275.033 190.1 272 180.4C269.133 171.1 268.633 160.967 270.5 150C271.167 146.167 272.583 139.783 274.75 130.85C276.583 123.783 277.917 118.467 278.75 114.9C280.15 108.8 281.067 103.4 281.5 98.7C282.3 89.6667 281.633 81.9167 279.5 75.45C272.833 55.2833 259.033 41.4167 238.1 33.85C230.733 31.1833 221.45 29.7333 210.25 29.5C196.717 29.1667 184.517 31.5833 173.65 36.75C166.517 40.15 160.917 44.1833 156.85 48.85C156.717 48.9833 156.1 49.8167 155 51.35C157.567 52.0833 159.567 52.8 161 53.5C162.433 54.2333 163.733 55.1833 164.9 56.35C165.5 56.95 165.883 57.45 166.05 57.85C166.217 58.1833 166.1 58.5833 165.7 59.05C165.633 59.15 165.483 59.2 165.25 59.2C165.017 59.2 164.817 59.1667 164.65 59.1C164.483 59.0333 164.183 58.7833 163.75 58.35C159.417 54.0167 154.267 52.6333 148.3 54.2C141.7 55.9667 137.633 59.75 136.1 65.55C135.733 66.95 135.717 68.8333 136.05 71.2C136.183 72.1 136.433 72.6667 136.8 72.9C137.167 73.1333 137.817 73.1667 138.75 73C139.383 72.9 140.3 72.65 141.5 72.25C145.7 70.7833 149.467 71.1833 152.8 73.45C156.133 75.7167 157.817 79.0667 157.85 83.5C157.883 84.4667 157.8 85.6167 157.6 86.95C157.5 87.7167 157.333 88.8667 157.1 90.4C157.033 90.9333 156.85 91.8 156.55 93L167.55 91.6C168.25 91.6 168.633 91.6167 168.7 91.65C168.9 91.75 169.367 92.1333 170.1 92.8L169.45 93.4C169.183 93.6333 168.95 93.7833 168.75 93.85C168.55 93.9167 168.283 93.95 167.95 93.95C167.583 93.9167 167.3 93.9 167.1 93.9C155.267 94 145.867 99.0333 138.9 109C138.6 109.4 138 110.383 137.1 111.95C133.367 112.583 131.05 113.017 130.15 113.25C122.983 115.117 117.833 118.75 114.7 124.15C114.567 124.417 114.333 124.883 114 125.55C113.667 125.983 113.2 126.033 112.6 125.7C112.067 125.4 111.883 124.967 112.05 124.4L112.8 123C114.7 119.5 117.667 116.55 121.7 114.15L123.95 112.8C123.817 112.8 123.15 112.783 121.95 112.75C121.283 112.717 120.75 112.733 120.35 112.8C118.45 113.167 116 113.017 113 112.35C111.333 111.95 109.85 111.683 108.55 111.55C105.683 111.25 103.383 112.267 101.65 114.6C98.8833 118.333 97.8667 122.4 98.6 126.8C98.6667 127.4 98.8167 128.133 99.05 129C99.1833 129.5 99.3833 130.233 99.65 131.2L98.2 132.85C95.4333 135.983 93.4667 139.433 92.3 143.2C91 147.5 90.95 151.517 92.15 155.25C93.65 159.85 96.6667 162.617 101.2 163.55C103.1 163.95 105.333 164.117 107.9 164.05C108.533 164.017 111.8 163.783 117.7 163.35C121.4 163.017 124.783 163.4 127.85 164.5C129.817 165.2 132.7 166.383 136.5 168.05C137.133 168.35 138.767 169.117 141.4 170.35C143.4 171.283 145.05 172 146.35 172.5C156.55 176.4 165.933 175.467 174.5 169.7C177.5 167.633 180.583 165.233 183.75 162.5C189.25 157.7 194.1 153.783 198.3 150.75C200.2 149.35 201.9 147.783 203.4 146.05C206 143.017 207.133 139.067 206.8 134.2H203.5C202.833 134.267 202.35 134.283 202.05 134.25C201.55 134.15 201.283 133.817 201.25 133.25C201.217 132.683 201.45 132.3 201.95 132.1C202.083 132.067 202.567 132 203.4 131.9C205.733 131.667 208.1 132.2 210.5 133.5C212.9 134.8 214.667 136.517 215.8 138.65C216.267 139.417 216.267 139.983 215.8 140.35C215.167 140.85 214.55 140.7 213.95 139.9C213.417 139.1 212.983 138.533 212.65 138.2C212.017 137.567 210.933 136.6 209.4 135.3L208.9 138.55C208.333 143.25 206.133 147.2 202.3 150.4C201.433 151.167 200.067 152.267 198.2 153.7L185.9 163.65C181.567 167.217 179.017 169.283 178.25 169.85C167.717 177.75 156.4 179.183 144.3 174.15C143.333 173.75 141.75 173.017 139.55 171.95C137.517 170.95 135.917 170.217 134.75 169.75C130.483 167.983 127.033 166.733 124.4 166C122.767 165.533 120.783 165.35 118.45 165.45C115.817 165.717 113.833 165.883 112.5 165.95C111.2 165.983 110.35 166.65 109.95 167.95C109.117 170.45 109.283 172.983 110.45 175.55C111.617 178.183 113.433 179.95 115.9 180.85C118.3 181.783 121.017 182.383 124.05 182.65C130.317 183.15 136.417 184.367 142.35 186.3C146.383 187.633 150.367 188.767 154.3 189.7C161.233 191.267 167.5 189.867 173.1 185.5C174.133 184.7 175.717 183.367 177.85 181.5C180.917 178.667 183.233 176.583 184.8 175.25C191.5 169.45 198.617 165.25 206.15 162.65C207.617 162.15 209.783 161.333 212.65 160.2C225.55 155.3 233.417 146.15 236.25 132.75C237.45 127.117 236.55 122.5 233.55 118.9C233.083 118.467 232.767 118.133 232.6 117.9C232.333 117.467 232.4 117 232.8 116.5C233.1 116.133 233.433 116.033 233.8 116.2C234.167 116.333 234.65 116.767 235.25 117.5C238.517 121.367 239.683 126.117 238.75 131.75C236.983 142.45 231.8 150.95 223.2 157.25L221.75 158.45L222.45 159.3C230.117 167.367 233.567 177.167 232.8 188.7C232.4 194.4 229.883 198.917 225.25 202.25L224 203.2C228.7 206.167 231.317 211.083 231.85 217.95C232.117 221.083 232.15 225.4 231.95 230.9C231.85 235.1 231.133 238.85 229.8 242.15C229.133 243.75 227.967 246.15 226.3 249.35C228.967 253.117 230.65 257.333 231.35 262C232.283 267.767 231.85 274.183 230.05 281.25C228.417 287.917 225.817 293.25 222.25 297.25L222.15 297.85C225.25 299.783 228.05 302.883 230.55 307.15C232.017 309.617 233.083 311.5 233.75 312.8C235.75 316.667 238.767 321.067 242.8 326C244.633 328.2 247.35 331.567 250.95 336.1L252.25 337.7L255.5 329.55C255.567 329.383 255.75 329.217 256.05 329.05C256.35 328.883 256.6 328.817 256.8 328.85C257.133 328.917 257.367 329.083 257.5 329.35C257.633 329.65 257.633 329.983 257.5 330.35L257.2 331.25C249.9 350.383 245.833 360.983 245 363.05C242.3 369.95 238.933 375.517 234.9 379.75C234.767 379.917 234.55 380.3 234.25 380.9L240.3 381.75L240.65 383.7C239.883 383.733 239.333 383.75 239 383.75C238.367 383.75 237.85 383.717 237.45 383.65C235.717 383.383 234.167 383.017 232.8 382.55C229.9 381.517 227.717 380.75 226.25 380.25C223.017 379.117 220.017 379.183 217.25 380.45C214.85 381.517 212.883 383.3 211.35 385.8C208.15 391 207.333 396.933 208.9 403.6C209.267 404.933 210 406.333 211.1 407.8C211.833 408.8 212.5 409.3 213.1 409.3C213.633 409.3 214.383 408.867 215.35 408C218.183 405.367 220.333 403.583 221.8 402.65C227.6 398.917 234.683 397.867 243.05 399.5C246.683 400.2 251.05 401.167 256.15 402.4C258.683 403.033 260.933 403.217 262.9 402.95C265.2 402.683 267.283 401.817 269.15 400.35C269.25 400.25 269.817 399.95 270.85 399.45C275.45 397.383 279.8 397.2 283.9 398.9C284.8 399.267 285.867 399.85 287.1 400.65C287.8 401.117 288.833 401.8 290.2 402.7L293.2 404.75C293.767 401.55 293.683 398.417 292.95 395.35C291.883 390.75 289.367 387.15 285.4 384.55C281.433 381.95 277.1 381.033 272.4 381.8L270.25 382.15C269.35 382.283 268.883 381.983 268.85 381.25C268.85 380.95 269.15 380.567 269.75 380.1C269.883 379.967 270.267 379.867 270.9 379.8C274 379.233 276.933 379.25 279.7 379.85C280 379.917 280.45 380 281.05 380.1C281.55 380.1 282 379.933 282.4 379.6C285.067 377.333 286.75 375.867 287.45 375.2C289.283 373.467 290.783 371.8 291.95 370.2C299.317 360.4 304.833 353.05 308.5 348.15L313.65 341.2C315.417 338.667 316.183 335.617 315.95 332.05C315.783 328.983 314.867 325.617 313.2 321.95L298.2 289.25C297.7 288.283 297.4 287.55 297.3 287.05C297.267 286.85 297.333 286.617 297.5 286.35C297.633 286.083 297.783 285.883 297.95 285.75C298.05 285.683 298.25 285.7 298.55 285.8C298.817 285.9 299.017 286.017 299.15 286.15C299.417 286.483 299.717 287.05 300.05 287.85L314.65 319.7C315.683 322 316.583 324.467 317.35 327.1C318.483 330.767 318.567 334.4 317.6 338L317.15 339.8L325.6 337.5L325.45 336.8L324.95 336C321.217 330.433 318.717 324.333 317.45 317.7C314.817 304.267 316.8 291.75 323.4 280.15C323.967 279.317 324.283 278.867 324.35 278.8C324.517 278.667 324.733 278.567 325 278.5C325.267 278.433 325.45 278.45 325.55 278.55C326.017 278.95 326.183 279.4 326.05 279.9C326.017 280.033 325.633 280.733 324.9 282C321.367 288.3 319.317 295.05 318.75 302.25C317.55 318.517 322.767 332.417 334.4 343.95C338.367 347.85 342.867 350.3 347.9 351.3C354.9 352.667 361.567 353.45 367.9 353.65L370.3 353.7C370.9 353.7 371.333 353.767 371.6 353.9C372 354.067 372.183 354.433 372.15 355C372.117 355.467 371.917 355.767 371.55 355.9C371.317 355.967 370.9 356 370.3 356C368.7 355.933 367.517 355.867 366.75 355.8L355.65 354.95C348.817 364.083 345 374.35 344.2 385.75C346.933 386.683 350.383 387.033 354.55 386.8C356.05 386.733 356.933 386.7 357.2 386.7C357.367 386.733 357.583 386.85 357.85 387.05C358.083 387.25 358.183 387.4 358.15 387.5C358.05 387.967 357.767 388.35 357.3 388.65C357.1 388.783 356.633 388.883 355.9 388.95C352.4 389.45 348.9 389.267 345.4 388.4C343.767 388 341.083 387.25 337.35 386.15C334.75 385.417 332.3 385.8 330 387.3C327.833 388.767 325.95 390.25 324.35 391.75C320.35 395.65 319.367 400.35 321.4 405.85C321.467 406.017 321.983 407.117 322.95 409.15C325.017 406.783 327.45 405.233 330.25 404.5C332.617 403.867 335.383 403.8 338.55 404.3C339.617 404.467 340.867 404.75 342.3 405.15C343.133 405.383 344.367 405.75 346 406.25C346.333 406.35 347.933 406.833 350.8 407.7C352.767 408.267 354.383 408.7 355.65 409C359.283 409.867 362.8 409.5 366.2 407.9L369.5 406.45C377.067 403.25 384.75 403.333 392.55 406.7L394.4 407.3C394.4 401.967 393.4 397.483 391.4 393.85C389.5 390.517 386.817 388.75 383.35 388.55C382.583 388.483 381.633 388.467 380.5 388.5L377.65 388.55C376.983 388.617 376.5 388.633 376.2 388.6C375.667 388.533 375.383 388.2 375.35 387.6C375.317 387 375.55 386.617 376.05 386.45C376.283 386.383 376.75 386.35 377.45 386.35L384.85 386.3L386.05 384.35C388.483 380.017 391.483 375.883 395.05 371.95C398.85 367.783 403.9 363.633 410.2 359.5C412.733 357.8 415 356.05 417 354.25ZM215 74.6C216.467 75.6667 218.15 76.0833 220.05 75.85C221.95 75.6167 223.517 74.8 224.75 73.4C224.85 73.3 225.017 73.0667 225.25 72.7C225.45 72.4 225.633 72.2 225.8 72.1C226.367 71.7 226.833 71.5833 227.2 71.75C227.533 71.8833 227.733 72.1167 227.8 72.45C227.867 72.75 227.767 73.05 227.5 73.35C226.633 74.55 225.917 75.4 225.35 75.9C223.883 77.2333 221.783 78.0167 219.05 78.25C219.85 79.5833 221.067 80.3167 222.7 80.45C223.6 80.55 225.183 80.45 227.45 80.15C227.617 80.15 227.883 80.0667 228.25 79.9C228.583 79.7333 228.833 79.65 229 79.65C229.2 79.65 229.433 79.7333 229.7 79.9C229.867 79.9667 230.1 80.0833 230.4 80.25C230.333 80.4167 230.25 80.6667 230.15 81C230.017 81.3333 229.883 81.5333 229.75 81.6C227.75 82.6 225.75 83.05 223.75 82.95L221.05 82.7C222.05 85.1667 222.733 88.1333 223.1 91.6C223.3 93.6 223.517 96.6 223.75 100.6C225.15 100.6 225.983 100.617 226.25 100.65C226.417 100.683 226.633 100.8 226.9 101C227.133 101.2 227.25 101.35 227.25 101.45C227.117 102.083 226.833 102.467 226.4 102.6C226.033 102.733 225.567 102.833 225 102.9L223.55 103.05C216.35 104.083 212.167 104.717 211 104.95C206.033 105.883 201.333 108.15 196.9 111.75L196.15 112.35C195.483 112.817 194.983 113 194.65 112.9C194.35 112.833 193.967 112.417 193.5 111.65L193.2 111.05C189.033 102.95 188.183 94.4833 190.65 85.65C192.583 78.75 196.75 74.4 203.15 72.6C207.517 71.4 211.467 72.0667 215 74.6ZM234.2 65.2C237.067 69.1667 238.35 73.6833 238.05 78.75C237.85 81.4833 236.833 83.6667 235 85.3C234.333 85.8 233.867 86.0833 233.6 86.15C233.4 86.2167 233.167 86.2167 232.9 86.15C232.633 86.05 232.45 85.9333 232.35 85.8C232.25 85.6333 232.283 85.2 232.45 84.5C232.483 84.3333 232.65 84.1833 232.95 84.05C235.183 82.45 236.15 79.8833 235.85 76.35C235.183 68.7167 231.15 62.9833 223.75 59.15C220.317 57.3167 216.3 56.4 211.7 56.4C207.267 56.3333 203.383 57.35 200.05 59.45C199.583 59.7167 198.3 60.7833 196.2 62.65C195.767 63.05 195.467 63.2833 195.3 63.35C194.933 63.5167 194.567 63.4333 194.2 63.1C193.6 62.5333 193.7 61.9167 194.5 61.25C195 60.8167 195.75 60.1333 196.75 59.2C197.617 58.4333 198.4 57.8333 199.1 57.4C203.367 54.8 208.267 53.7333 213.8 54.2C222.667 54.9333 229.467 58.6 234.2 65.2ZM133.05 126.95C133.817 123.35 136.017 120.067 139.65 117.1C143.317 114.133 147 112.65 150.7 112.65C154 112.583 156.767 113.633 159 115.8C159.567 116.3 159.95 116.8 160.15 117.3C160.25 117.633 160.117 118.033 159.75 118.5C159.55 118.667 159.183 118.667 158.65 118.5C158.55 118.467 158.317 118.267 157.95 117.9C155.65 115.4 152.667 114.45 149 115.05C145.733 115.517 142.7 117.1 139.9 119.8C137.133 122.533 135.517 125.467 135.05 128.6C135.017 128.733 135 129.083 135 129.65C135 130.117 134.95 130.467 134.85 130.7C134.717 131.2 134.35 131.517 133.75 131.65C133.683 131.717 133.533 131.617 133.3 131.35C133.067 131.117 132.933 130.917 132.9 130.75C132.833 129.05 132.883 127.783 133.05 126.95ZM150.65 123.5C154.217 122.667 157.067 123.417 159.2 125.75C160.4 127.05 160.933 128.383 160.8 129.75C160.667 131.15 159.867 132.333 158.4 133.3C157.633 133.8 156.067 134.533 153.7 135.5C150 136.867 147.25 137.917 145.45 138.65C143.617 139.417 142.017 140.717 140.65 142.55C140.05 143.317 139.517 143.7 139.05 143.7C138.383 143.667 137.983 143.05 137.85 141.85L137.8 140.7C137.9 136.633 139.167 132.967 141.6 129.7C144.067 126.433 147.083 124.367 150.65 123.5Z" fill="white"/>
        <path d="M151.35 75.35C150.683 74.8833 150.183 74.5833 149.85 74.45C145.75 72.9833 142 73.65 138.6 76.45C136.167 78.45 134.45 81.2667 133.45 84.9C132.417 88.7333 132.2 93.7333 132.8 99.9C132.8 99.9667 132.9 100.05 133.1 100.15L140.95 98.85L140.7 97.15C140.133 94.1167 140.083 91.1833 140.55 88.35C141.75 81.75 145.1 77.55 150.6 75.75C150.733 75.7167 150.983 75.5833 151.35 75.35Z" fill="white"/>
        <path d="M156.85 131.7C157.883 131.133 158.433 130.417 158.5 129.55C158.6 128.65 158.2 127.817 157.3 127.05C156.333 126.217 155.433 125.75 154.6 125.65C152.7 125.517 151.15 125.667 149.95 126.1C144.717 128.133 141.533 132.2 140.4 138.3C140.367 138.4 140.417 138.683 140.55 139.15C142.083 137.883 144 136.767 146.3 135.8C147 135.5 149.05 134.75 152.45 133.55C154.317 132.917 155.783 132.3 156.85 131.7Z" fill="white"/>
        <path d="M158.55 369.6C157.083 371.167 155.883 372.75 154.95 374.35C152.517 378.617 151.883 382.933 153.05 387.3C153.117 387.667 153.283 388.133 153.55 388.7C153.683 389 153.9 389.45 154.2 390.05L160.8 385.85C160.967 382.083 161.633 378.9 162.8 376.3C164.167 373.167 166.333 370.65 169.3 368.75C167.133 367.35 165.2 366.717 163.5 366.85C161.833 366.983 160.183 367.9 158.55 369.6Z" fill="white"/>
        <path d="M224.5 290.15C227.233 284.85 228.867 278.633 229.4 271.5C229.8 266.067 229.333 261.4 228 257.5C227.067 254.733 225.883 252.517 224.45 250.85C221.517 253.283 217.717 254.533 213.05 254.6C208.05 254.7 203.733 254.567 200.1 254.2C192.667 253.433 187.117 250.5 183.45 245.4L182.95 245.1C181.35 245.967 179.717 247.433 178.05 249.5C175.517 252.667 173.75 256.65 172.75 261.45C171.583 267.017 171.517 273.533 172.55 281C173.35 286.133 174.833 290.4 177 293.8C180.067 298.5 184.25 301.333 189.55 302.3C195.383 303.367 201.717 303.133 208.55 301.6C209.05 301.5 210.367 301.117 212.5 300.45C217.633 298.983 221.633 295.55 224.5 290.15Z" fill="white"/>
        <path d="M228.95 369.5C231.683 367.167 233.783 365.383 235.25 364.15C233.45 362.117 232.467 360.983 232.3 360.75C231.667 359.817 230.65 359.35 229.25 359.35C218.183 359.417 208.4 356.083 199.9 349.35L198.55 348.4C196.583 353.533 194.933 357.383 193.6 359.95C191.5 364.05 189.083 367.533 186.35 370.4C187.75 370.8 188.917 371.017 189.85 371.05C191.017 371.117 192.083 370.95 193.05 370.55C193.75 370.25 194.117 370.1 194.15 370.1C194.917 370.1 195.367 370.267 195.5 370.6C195.567 370.733 195.55 370.967 195.45 371.3C195.383 371.567 195.267 371.783 195.1 371.95C194.867 372.183 194.3 372.483 193.4 372.85C191.333 373.55 188.983 373.5 186.35 372.7C183.217 371.567 180.867 370.75 179.3 370.25C176.533 369.35 174.033 369.3 171.8 370.1C169.533 370.9 167.633 372.533 166.1 375C162.967 379.967 162.283 385.483 164.05 391.55C164.283 392.45 164.75 393.367 165.45 394.3C166.217 395.3 166.867 395.817 167.4 395.85C167.933 395.883 168.617 395.45 169.45 394.55C175.417 388.25 182.8 385.633 191.6 386.7L195.4 387.15C195.967 385.917 196.283 385.25 196.35 385.15C198.417 381.117 200.867 378.117 203.7 376.15C206.7 374.017 209.867 373.617 213.2 374.95C214.133 375.35 215.517 376.017 217.35 376.95C218.25 377.35 218.833 377.517 219.1 377.45C220.767 377.083 222.55 377.083 224.45 377.45C225.683 377.717 227.4 378.25 229.6 379.05C230.7 379.45 231.417 379.617 231.75 379.55C232.083 379.483 232.65 379 233.45 378.1L234.65 376.6C234.35 376.167 234.133 375.9 234 375.8C230.233 372.267 225.583 370.867 220.05 371.6L218.65 371.85C217.583 371.983 217.05 371.7 217.05 371C217.05 370.667 217.417 370.25 218.15 369.75C218.283 369.65 218.467 369.583 218.7 369.55C218.833 369.517 219.033 369.483 219.3 369.45C221.667 369.017 224.283 369.067 227.15 369.6C227.983 369.8 228.583 369.767 228.95 369.5Z" fill="white"/>
        <path d="M226.05 245.15C226.817 243.75 227.467 242.2 228 240.5C229 237.133 229.617 233.4 229.85 229.3C230.017 226.2 229.967 222.417 229.7 217.95C229.633 216.75 229.35 215.267 228.85 213.5C227.983 210.433 226.483 208.017 224.35 206.25C223.517 205.55 222.683 205.133 221.85 205C220.983 204.833 220 204.95 218.9 205.35C214.5 206.95 210.5 207.6 206.9 207.3C202.733 206.967 198.917 205.367 195.45 202.5C191.417 204.4 188.333 207.667 186.2 212.3C182.9 219.367 181.65 227.167 182.45 235.7C183.217 243.5 187.433 248.567 195.1 250.9C198.267 251.867 201.767 252.4 205.6 252.5C208.433 252.6 211.983 252.45 216.25 252.05C220.45 251.617 223.717 249.317 226.05 245.15Z" fill="white"/>
        <path d="M207.65 74.3C201.517 74.3667 197.133 77.0333 194.5 82.3C192.267 86.6667 191.267 91.25 191.5 96.05C191.7 100.383 192.883 105.017 195.05 109.95L203 105.05C203.067 104.817 203.083 104.65 203.05 104.55L202.55 102.95C201.15 98.6833 200.65 94.4333 201.05 90.2C201.583 83.9667 204.65 79.4167 210.25 76.55L212.2 75.6C210.533 74.7 209.017 74.2667 207.65 74.3Z" fill="white"/>
        <path d="M242.6 329.25C237.333 323.05 233.167 316.917 230.1 310.85C229.267 309.15 228.083 307.25 226.55 305.15C224.55 302.417 222.433 300.5 220.2 299.4C215.2 302.233 209.767 304.017 203.9 304.75C198.767 305.383 193.033 305.217 186.7 304.25C186.533 304.883 186.267 305.833 185.9 307.1C185.567 308.233 185.333 309.2 185.2 310C184.433 314.533 184.967 319.817 186.8 325.85C190.7 338.717 198.567 347.833 210.4 353.2C221.7 358.333 233.1 358.65 244.6 354.15C245.867 353.65 246.717 352.8 247.15 351.6C248.25 348.333 249.4 345.267 250.6 342.4C251.1 341.133 250.983 340.017 250.25 339.05C246.95 334.617 244.4 331.35 242.6 329.25Z" fill="white"/>
        <path d="M219.55 159.65L213.8 162.1C208.833 164 205.117 165.45 202.65 166.45C201.617 166.883 200.85 167.417 200.35 168.05C194.983 175.217 192.533 182.867 193 191C193.233 194.667 194.333 197.683 196.3 200.05C198.3 202.417 201 203.917 204.4 204.55C212.1 206.083 219.133 204.283 225.5 199.15C228.333 196.783 229.983 193.6 230.45 189.6C231.117 184 230.433 178.433 228.4 172.9C226.467 167.533 223.517 163.117 219.55 159.65Z" fill="white"/>
        <path d="M204.9 378C201.933 380.167 199.633 383.117 198 386.85C196.133 391.117 195.733 395.367 196.8 399.6C196.967 400.4 197.133 400.967 197.3 401.3C197.567 401.9 197.95 402.367 198.45 402.7L205.8 398.1C205.967 393.767 206.7 390.133 208 387.2C209.567 383.667 212.05 380.867 215.45 378.8C211.617 375.933 208.1 375.667 204.9 378Z" fill="white"/>
        <path d="M213.5 85.75C213.5 84.7833 213.15 83.9667 212.45 83.3C211.75 82.6333 210.9 82.3167 209.9 82.35C208.933 82.4167 208.15 82.7667 207.55 83.4C206.983 84.0333 206.7 84.85 206.7 85.85C206.733 86.8833 207.083 87.7167 207.75 88.35C208.383 88.9833 209.217 89.2667 210.25 89.2C211.183 89.1667 211.967 88.8 212.6 88.1C213.233 87.4333 213.533 86.65 213.5 85.75Z" fill="white"/>
        <path d="M260.1 29.95C260.867 29.0833 261.5 28.15 262 27.15C262.967 25.1833 263.15 23.45 262.55 21.95C261.95 20.4167 260.633 19.2667 258.6 18.5C256.567 17.7333 254.633 17.3 252.8 17.2C247.667 16.9667 243.433 16.9833 240.1 17.25C232.033 17.8167 224.9 20.35 218.7 24.85C218.067 25.2833 217.183 26 216.05 27L216.2 27.5C223.367 28.1 229.65 29.1333 235.05 30.6C241.583 32.3667 247.433 34.8833 252.6 38.15C254.533 35.75 255.733 34.3 256.2 33.8C257.033 32.9 258.333 31.6167 260.1 29.95Z" fill="white"/>
        <path d="M272.4 173C275.267 172.867 279.35 172.683 284.65 172.45C286.55 172.25 288.117 172 289.35 171.7C291.017 171.267 292.067 170.083 292.5 168.15C292.9 166.15 292.6 164.2 291.6 162.3C288.767 156.833 286.633 153.017 285.2 150.85C284.2 149.317 282.383 147.433 279.75 145.2C278.05 143.667 276.1 142.733 273.9 142.4C272.667 148.167 271.9 153.3 271.6 157.8C271.233 163.233 271.5 168.3 272.4 173Z" fill="white"/>
        <path d="M293.25 73.1C294.85 73.0333 296.05 72.9333 296.85 72.8C300.017 72.3 301.4 70.5167 301 67.45C300.733 65.55 300.183 63.8167 299.35 62.25C297.483 58.7167 294.267 55.85 289.7 53.65C283.633 50.8167 276.933 49.6833 269.6 50.25L268.15 50.55C269.017 51.8167 270.317 53.65 272.05 56.05C273.583 58.15 274.783 59.9667 275.65 61.5C276.583 63.0667 277.617 65.0667 278.75 67.5C279.383 68.8667 280.35 70.9667 281.65 73.8L293.25 73.1Z" fill="white"/>
        <path d="M286.3 95.6C285.3 95 284.517 94.5167 283.95 94.15C283.717 98.7167 283.083 103.667 282.05 109C281.35 112.5 280.217 117.35 278.65 123.55C281.017 124.117 284.35 124.933 288.65 126C289.15 126.1 289.783 126.133 290.55 126.1C290.983 126.1 291.633 126.083 292.5 126.05L292.95 126C297.417 125.267 299.483 122.717 299.15 118.35C298.45 109.817 294.8 102.683 288.2 96.95C287.733 96.55 287.1 96.1 286.3 95.6Z" fill="white"/>
        <path d="M277.2 141L290.6 128.8L278.05 125.75L274.4 140L277.2 141Z" fill="white"/>
        <path d="M408.3 92.45C409.1 92.35 409.75 91.9833 410.25 91.35C413.05 88.05 415.883 85.35 418.75 83.25C418.783 83.2167 418.917 82.9333 419.15 82.4C415.917 81.9333 414 81.6667 413.4 81.6C406.567 81.1667 399.55 81.5167 392.35 82.65C376.583 85.1167 361.5 89.7167 347.1 96.45C328.867 104.983 309.3 117.45 288.4 133.85C287.1 134.85 285.6 136.167 283.9 137.8C282 139.633 280.567 141 279.6 141.9C280.333 142.567 281.367 143.517 282.7 144.75C283.867 145.817 284.8 146.75 285.5 147.55C288.333 150.75 291.017 155.267 293.55 161.1C294.25 162.733 294.65 164.517 294.75 166.45C295.05 170.517 293.167 173.083 289.1 174.15C288.567 174.317 287.467 174.567 285.8 174.9L288.65 193.2L295 193.85C295.467 191.183 295.8 189.2 296 187.9C296.4 185.6 296.683 183.667 296.85 182.1C297.783 174.833 298.167 166.933 298 158.4C297.867 151.7 297.367 143.8 296.5 134.7C297.233 134.2 298.167 133.55 299.3 132.75C300.5 131.95 302.267 130.717 304.6 129.05C306.7 127.583 308.517 126.433 310.05 125.6C320.25 120.167 332 114.733 345.3 109.3C367.233 100.367 388.233 94.75 408.3 92.45Z" fill="white"/>
        <path d="M273 175.95C274.5 182.25 277.033 187.733 280.6 192.4C281 193 281.5 193.3 282.1 193.3C282.7 193.333 284.067 193.283 286.2 193.15C285.633 187.517 284.683 181.417 283.35 174.85C279.617 174.45 276.167 174.817 273 175.95Z" fill="white"/>
        <path d="M283.55 195.65C284.783 197.217 286.283 198.717 288.05 200.15C289.783 201.583 291.233 202.483 292.4 202.85C293.367 200.117 293.967 197.9 294.2 196.2C290.6 195.5 287.05 195.317 283.55 195.65Z" fill="white"/>
        <path d="M443 93.6C438.067 93.5333 434.35 93.4833 431.85 93.45C427.517 93.4167 423.8 93.4833 420.7 93.65C403.267 94.5167 385.483 97.85 367.35 103.65C350.983 108.917 333.1 116.433 313.7 126.2C309.067 128.5 304.867 131.117 301.1 134.05C300.267 134.717 299.683 135.433 299.35 136.2C299.05 136.967 298.95 137.883 299.05 138.95C300.15 150.617 300.483 161.15 300.05 170.55C299.417 184.65 296.867 197.867 292.4 210.2C290.7 214.8 288.683 220.867 286.35 228.4C285.117 232.3 284.55 236.083 284.65 239.75C284.75 243.283 285.7 246.183 287.5 248.45C289.3 250.75 291.867 252.283 295.2 253.05C299.2 253.95 302.917 254.017 306.35 253.25C310.083 252.45 313.083 250.867 315.35 248.5C317.65 246.133 319.1 243.083 319.7 239.35C319.9 237.983 320.033 236.317 320.1 234.35C320.1 229.983 320.15 226.7 320.25 224.5C320.917 207.867 320.833 193.8 320 182.3C319.633 176.933 318.917 170.333 317.85 162.5C317.55 160.4 317.117 157.833 316.55 154.8C315.883 151.333 315.383 148.7 315.05 146.9L316.2 146C321.2 141.4 326.933 137.2 333.4 133.4C344.433 126.9 356.767 120.467 370.4 114.1C378.867 110.167 386.017 107.183 391.85 105.15C408.35 99.2833 426.167 95.5333 445.3 93.9C443.8 93.7 443.033 93.6 443 93.6Z" fill="white"/>
        <path d="M298.55 374.35C296.617 376.283 295.333 378.883 294.7 382.15C294.033 385.417 294.233 388.183 295.3 390.45L298.85 388.4C299.55 388.033 299.95 387.417 300.05 386.55C300.45 383.317 302.033 380.35 304.8 377.65L306.3 376L298.55 374.35Z" fill="white"/>
        <path d="M386.2 81.3L386.05 80.85C357.017 82.8167 328.017 91.9167 299.05 108.15C299.983 110.65 300.633 112.767 301 114.5C301.467 116.8 301.567 119.05 301.3 121.25L314.15 112.75C318.283 110.017 321.75 107.783 324.55 106.05C342.083 95.1833 359.95 87.5667 378.15 83.2L386.2 81.3Z" fill="white"/>
        <path d="M342 374.35C343.3 373.983 344.133 373.15 344.5 371.85C346.067 366.517 348.567 361.283 352 356.15C352.267 355.783 352.517 355.317 352.75 354.75C352.483 354.55 352.317 354.45 352.25 354.45C351.783 354.283 351.317 354.183 350.85 354.15C343.217 353.183 336.933 350.017 332 344.65C330.467 343.05 329.35 341.8 328.65 340.9C327.817 339.833 326.8 339.483 325.6 339.85L317.05 342.25C315.917 342.55 314.917 343.267 314.05 344.4C311.05 348.467 306.5 354.55 300.4 362.65L294.45 370.6C295.35 370.867 296.6 371.267 298.2 371.8C299.6 372.233 300.767 372.533 301.7 372.7C310.167 374.567 318.7 375.667 327.3 376C332.3 376.2 337.2 375.65 342 374.35Z" fill="white"/>
        <path d="M341 376.8C337.9 377.633 334.25 378.1 330.05 378.2C323.817 378.3 318.417 377.883 313.85 376.95C312.15 376.583 310.65 376.667 309.35 377.2C308.15 377.667 306.983 378.533 305.85 379.8C305.483 380.267 304.933 380.95 304.2 381.85C302.767 383.85 302.117 386.167 302.25 388.8C302.383 391.333 303.15 393.483 304.55 395.25C307.083 393.517 308.533 392.55 308.9 392.35C309.967 391.75 310.683 390.967 311.05 390C312.25 386.667 314.217 384 316.95 382C319.117 380.4 321.533 379.867 324.2 380.4C326.133 380.8 328.15 381.7 330.25 383.1C331.05 383.7 331.767 383.933 332.4 383.8C334.467 383.4 337.067 383.667 340.2 384.6C340.367 384.667 340.933 384.767 341.9 384.9L343.1 376.45L341 376.8Z" fill="white"/>
        <path d="M332.75 156.8C330.917 155.733 326.433 153.3 319.3 149.5C319.133 149.4 318.6 149.25 317.7 149.05L317.9 150.25C318.3 152.717 318.933 156.417 319.8 161.35C320.533 165.75 321.067 169.467 321.4 172.5C322.533 182.133 323.05 193.15 322.95 205.55C322.883 211.283 322.717 219.9 322.45 231.4L322.55 233.75C338.65 213.917 358.767 205.833 382.9 209.5L382.45 208.35C377.183 197.917 370.5 188.4 362.4 179.8C354.567 171.4 344.683 163.733 332.75 156.8Z" fill="white"/>
        <path d="M476.65 99.25C472.35 97.8167 466.3 96.8833 458.5 96.45C448.3 95.9167 437.317 96.7 425.55 98.8C408.217 101.933 392.617 106.567 378.75 112.7C365.45 118.6 352.267 125.267 339.2 132.7C337.1 133.9 334.583 135.467 331.65 137.4C328.383 139.567 325.917 141.183 324.25 142.25C323.85 142.517 323.35 142.883 322.75 143.35C321.983 144.017 321.5 144.417 321.3 144.55L321.55 144.95L324.25 144.2C326.817 143.5 330.65 142.4 335.75 140.9C340.283 139.633 344.15 138.633 347.35 137.9C359.717 135.067 371.383 134.15 382.35 135.15C393.817 136.25 404.65 139.633 414.85 145.3C423.35 150.067 431.583 156.483 439.55 164.55L441.9 166.8C440.867 159.167 441.9 151.35 445 143.35C448.233 135.05 452.567 126.967 458 119.1C463.733 110.833 470.217 104.65 477.45 100.55L478.15 99.85L476.65 99.25Z" fill="white"/>
        <path d="M411 176.5C418.567 172.033 426.967 169.417 436.2 168.65L440 168.35L438.8 166.95C432.9 160.917 426.75 155.717 420.35 151.35C409.417 143.95 398.083 139.45 386.35 137.85C378.183 136.717 369.25 136.767 359.55 138C353.55 138.767 347.117 140.05 340.25 141.85C334.917 143.217 328.5 145.117 321 147.55L329.1 152.05C340.133 158.183 349.383 164.583 356.85 171.25C368.25 181.45 377.5 193.583 384.6 207.65C384.733 207.917 385.133 208.567 385.8 209.6L386.45 207.45C390.517 194.083 398.7 183.767 411 176.5Z" fill="white"/>
        <path d="M389.4 473.4C389.167 470.5 388.05 467.933 386.05 465.7C385.183 464.767 384.217 464.45 383.15 464.75C373.083 467.183 364.667 470.167 357.9 473.7C355.767 474.8 353.233 475.467 350.3 475.7C347.433 475.833 345.3 474.55 343.9 471.85C342.867 469.85 342.733 467.6 343.5 465.1C344.167 462.967 345.533 460.533 347.6 457.8C352.467 451.267 358.667 445.317 366.2 439.95L371.85 436C370.317 433.4 367.867 431.567 364.5 430.5C358.533 428.567 352.6 428.9 346.7 431.5C340.833 434.1 336.6 438.283 334 444.05C332.167 448.15 330.833 453.383 330 459.75C328.833 468.45 328.267 475.867 328.3 482C328.3 484.167 329.25 485.683 331.15 486.55C332.917 487.317 334.1 487.8 334.7 488C343.167 491.133 352.667 492.483 363.2 492.05C368.867 491.817 373.567 490.983 377.3 489.55C381.733 487.85 385.067 485.233 387.3 481.7C388.933 479.1 389.633 476.333 389.4 473.4Z" fill="white"/>
        <path d="M404.15 228.85C405.117 229.017 405.917 228.7 406.55 227.9C408.217 225.733 410.467 223.833 413.3 222.2C414.233 221.667 414.9 221.233 415.3 220.9C417.133 219.333 417.133 217.783 415.3 216.25C414.433 215.517 413.333 214.9 412 214.4C408.267 213.067 404.167 212.85 399.7 213.75C393.6 214.95 387.183 218.2 380.45 223.5C380.383 223.7 380.317 223.867 380.25 224C380.45 224.067 380.733 224.183 381.1 224.35L404.15 228.85Z" fill="white"/>
        <path d="M408.65 363.3C403.017 367 398.183 371.417 394.15 376.55C394.983 376.717 395.967 376.933 397.1 377.2L406.65 378.1C406.983 378.133 408.017 378.233 409.75 378.4C410.983 378.533 412 378.667 412.8 378.8C417.4 379.5 421.333 381.483 424.6 384.75C421.167 375.85 415.85 368.7 408.65 363.3Z" fill="white"/>
        <path d="M423.4 457.5L404.5 460.65C403.667 460.817 403.1 461.3 402.8 462.1C402 464.033 401.85 465.367 402.35 466.1C402.817 466.767 403.983 467.05 405.85 466.95C412.35 466.55 418.183 463.567 423.35 458L423.4 457.5Z" fill="white"/>
        <path d="M452.4 229.85C447.933 228.95 443.367 229 438.7 230C434.633 230.867 430.2 232.517 425.4 234.95C436.767 239.183 446.333 243.883 454.1 249.05C456.433 245.717 459.117 243.033 462.15 241C463.25 240.3 463.867 239.617 464 238.95C464.133 238.283 463.817 237.45 463.05 236.45C461.683 234.583 460.267 233.217 458.8 232.35C456.867 231.15 454.733 230.317 452.4 229.85Z" fill="white"/>
        <path d="M455.35 455.6C462.15 451.7 467.083 446.133 470.15 438.9C470.183 438.767 470.267 438.167 470.4 437.1C462.967 442.867 455.133 447.4 446.9 450.7C446.733 453.1 447.267 454.817 448.5 455.85C449.733 456.883 451.433 457.05 453.6 456.35C454.233 456.183 454.817 455.933 455.35 455.6Z" fill="white"/>
        <path d="M503.1 275.3C500.767 271.767 497.467 268.917 493.2 266.75C488.833 264.517 483.933 263.267 478.5 263C478.1 262.967 476.217 263 472.85 263.1L472.7 263.6C473.1 264.067 473.733 264.733 474.6 265.6C479.467 270.4 484 275.65 488.2 281.35C489.467 283.083 490.383 284.1 490.95 284.4C491.55 284.7 492.917 284.883 495.05 284.95C498.083 285.05 500.85 284.4 503.35 283C504.917 282.067 505.45 280.867 504.95 279.4C504.45 277.733 503.833 276.367 503.1 275.3Z" fill="white"/>
        <path d="M493.75 427.65C497.35 422.583 499.233 416.767 499.4 410.2C499.433 409.367 499.367 408.3 499.2 407C499.033 405.467 498.9 404.267 498.8 403.4L497.85 404.55C494.95 409.717 491.5 414.883 487.5 420.05C486.7 421.05 486.417 422.567 486.65 424.6C486.85 426.633 487.417 428.083 488.35 428.95C489.75 430.183 491.133 430.233 492.5 429.1C492.867 428.767 493.283 428.283 493.75 427.65Z" fill="white"/>
        <path d="M518.4 318.35C514.933 313.817 510.317 309.567 504.55 305.6C504.283 305.4 503.533 305.017 502.3 304.45L502 304.85L504.5 311C506.8 317.133 508.533 323.017 509.7 328.65C509.833 329.383 509.917 329.8 509.95 329.9C510.117 330.333 510.433 330.633 510.9 330.8C513.2 331.6 515.233 331.833 517 331.5C518.8 331.167 520.033 330.117 520.7 328.35C521.433 326.45 521.5 324.733 520.9 323.2C520.067 321.033 519.233 319.417 518.4 318.35Z" fill="white"/>
        <path d="M512.1 352.8C511.8 362.5 510.333 371.917 507.7 381.05C508.267 381.517 509.067 382.2 510.1 383.1C513.167 385.467 515.683 384.983 517.65 381.65C519.05 379.25 519.65 376.483 519.45 373.35C519.05 366.95 516.833 360.267 512.8 353.3C512.633 353.2 512.4 353.033 512.1 352.8Z" fill="white"/>
        <path d="M121.9 110.25H133.9C134.9 110.25 135.783 109.7 136.55 108.6C137.017 107.933 138.5 105.967 141 102.7L142 101.25C137.833 101.45 134.183 102.217 131.05 103.55C127.583 105.017 124.533 107.25 121.9 110.25Z" fill="white"/>
        <path d="M152 83.85C152 83.0167 151.683 82.2667 151.05 81.6C150.417 80.9667 149.667 80.65 148.8 80.65C147.933 80.6167 147.167 80.9167 146.5 81.55C145.867 82.15 145.533 82.8833 145.5 83.75C145.467 84.65 145.783 85.4333 146.45 86.1C147.15 86.8 147.933 87.1333 148.8 87.1C149.667 87.0667 150.417 86.7333 151.05 86.1C151.683 85.4333 152 84.6833 152 83.85Z" fill="white"/>
        <path d="M240.55 367.75L237.05 365.55L231.1 370.8L236.4 374.65L240.55 367.75Z" fill="white"/>
        <path d="M234 359.35C236.167 362.117 238.683 364.183 241.55 365.55L245.2 356.65L234 359.35Z" fill="white"/>
        <path d="M293.55 372.45L284.5 381.05L292.25 387.35C291.85 382.183 293.083 377.583 295.95 373.55L293.55 372.45Z" fill="white"/>
        <path d="M318.1 400.35C318.333 396.717 319.483 393.783 321.55 391.55C322.45 390.617 323.633 389.5 325.1 388.2C326.767 386.733 328.017 385.6 328.85 384.8C327.517 384.067 326.483 383.533 325.75 383.2C322.75 381.833 319.95 382.283 317.35 384.55C315.083 386.483 313.483 389.167 312.55 392.6C311.517 396.333 311.6 399.983 312.8 403.55L318.1 400.35Z" fill="white"/>
        <path d="M426.35 81.2C425.15 80.8667 424.317 80.6667 423.85 80.6C415.017 79.2 406.75 78.4333 399.05 78.3C384.783 78 370.283 79.6333 355.55 83.2C337.217 87.6 319.25 94.6 301.65 104.2L298.1 106.1C294.633 99.2 290.05 94.4667 284.35 91.9L282.3 76.1L285.4 75.75C287.567 75.6167 290.833 75.4333 295.2 75.2C296.633 75.1 297.883 74.8667 298.95 74.5C300.317 74.0667 301.383 73.3333 302.15 72.3C302.95 71.2333 303.317 69.9833 303.25 68.55C303.183 66.7167 302.9 65.0833 302.4 63.65C300.7 58.8167 297.2 55.0333 291.9 52.3C284.533 48.4333 276.467 47.0833 267.7 48.25C266.433 48.4167 265.3 48.05 264.3 47.15C260.767 44.25 258.117 42.0667 256.35 40.6L254.8 39.4C255.3 38.4 256 37.4 256.9 36.4C257.133 36.1333 257.95 35.2667 259.35 33.8C261.517 31.6333 263.033 29.8 263.9 28.3C265.233 26 265.533 23.7667 264.8 21.6C264.1 19.4667 262.533 17.8333 260.1 16.7C258.2 15.8 256.6 15.3167 255.3 15.25C252.1 15.05 249.7 14.9167 248.1 14.85C245.367 14.75 242.983 14.7667 240.95 14.9C229.85 15.6333 220.667 19.45 213.4 26.35C212.833 26.8833 211.967 27.1833 210.8 27.25C204.3 27.4167 200.233 27.5667 198.6 27.7C186.967 28.8333 176.533 32.1333 167.3 37.6C161.2 41.2 156.717 45.0167 153.85 49.05C153.283 49.8833 152.65 50.5 151.95 50.9C151.283 51.2667 150.45 51.5333 149.45 51.7C143.75 52.5333 139.233 55.4167 135.9 60.35C133.9 63.3833 133.1 66.65 133.5 70.15L133.6 71.65C132.167 70.6833 131.083 69.1167 130.35 66.95C130.317 66.7833 130.133 66.6167 129.8 66.45C129.4 66.2833 129.117 66.15 128.95 66.05C128.883 66.2167 128.733 66.4833 128.5 66.85C128.333 67.15 128.267 67.4 128.3 67.6C128.8 70 130.017 71.9167 131.95 73.35C132.583 73.8167 133.383 74.3333 134.35 74.9C132.65 75.9333 131.183 76.3667 129.95 76.2C128.717 76.0667 127.517 75.35 126.35 74.05C126.25 73.85 126.15 73.7333 126.05 73.7C125.283 73.6 124.867 73.5833 124.8 73.65C124.667 73.7167 124.55 73.9 124.45 74.2C124.35 74.4667 124.333 74.6667 124.4 74.8C125.233 76.1333 125.917 77 126.45 77.4C127.783 78.4 129.467 78.7333 131.5 78.4L134.1 77.95C132.433 80.65 131.317 83.6667 130.75 87C130.35 89.4 130.2 92.4833 130.3 96.25C130.333 96.7167 130.367 97.4333 130.4 98.4C130.567 99.4 130.483 100.217 130.15 100.85C129.783 101.483 129.117 102.017 128.15 102.45C124.75 103.917 122 106.183 119.9 109.25C119.1 110.483 117.967 110.967 116.5 110.7L110.35 109.5C107.883 109.033 105.733 109.183 103.9 109.95C102.067 110.75 100.467 112.217 99.1 114.35C96.3 118.65 95.4667 123.317 96.6 128.35C96.8 129.183 96.8167 129.917 96.65 130.55C96.5167 131.15 96.1667 131.783 95.6 132.45C90.7334 138.45 88.6167 145.05 89.25 152.25C89.55 155.717 90.7 158.633 92.7 161C94.7333 163.4 97.3667 164.983 100.6 165.75C101.3 165.95 102.2 166.083 103.3 166.15C103.933 166.217 104.85 166.3 106.05 166.4L107.95 166.55L107.7 167.7C106.833 171.3 107.217 174.55 108.85 177.45C110.483 180.383 113.05 182.417 116.55 183.55C118.417 184.183 120.217 184.55 121.95 184.65C128.983 185.083 136.317 186.6 143.95 189.2C146.75 190.1 149.6 190.9 152.5 191.6C161.833 193.833 169.833 191.833 176.5 185.6C179.1 183.233 180.767 181.75 181.5 181.15L193.45 171.45C193.617 171.317 194.317 170.9 195.55 170.2C192.85 176 191.283 181.017 190.85 185.25C190.25 190.683 191.267 195.817 193.9 200.65C188.933 203.517 185.267 208.033 182.9 214.2C181.767 217.2 180.9 221.183 180.3 226.15C179.767 230.117 179.817 233.767 180.45 237.1C180.483 237.233 180.967 239.183 181.9 242.95L181.3 243.4C176.8 246.567 173.667 250.9 171.9 256.4C168.4 267.267 168.617 278.417 172.55 289.85C174.65 296.017 178.5 300.383 184.1 302.95C184.233 303.017 184.433 303.183 184.7 303.45C183.267 307.05 182.617 310.9 182.75 315C182.817 318.4 183.467 322.233 184.7 326.5C186.833 334 190.867 340.717 196.8 346.65C194.433 352.717 192.733 356.783 191.7 358.85C189.5 363.217 186.933 366.767 184 369.5C181.367 368.567 179.733 368.033 179.1 367.9C176.933 367.433 175.283 367.25 174.15 367.35C172.65 367.45 171.433 367.217 170.5 366.65C170.067 366.35 169.35 366 168.35 365.6C164.583 363.833 161.167 364.283 158.1 366.95C152.8 371.55 150.2 377.25 150.3 384.05C150.333 385.817 150.8 387.833 151.7 390.1C152.133 391.267 152.783 391.95 153.65 392.15C154.517 392.35 155.467 392.083 156.5 391.35C157.433 390.617 158.15 390.1 158.65 389.8C158.85 389.667 159.617 389.25 160.95 388.55C161.45 390.583 161.7 391.617 161.7 391.65C162.367 393.983 163.417 395.75 164.85 396.95C165.817 397.817 166.75 398.233 167.65 398.2C168.55 398.167 169.467 397.7 170.4 396.8L172.05 395.05C177.983 389.383 185.483 387.517 194.55 389.45L194.2 392.45C193.733 394.95 193.95 397.8 194.85 401C195.183 402.1 195.633 403.017 196.2 403.75C197.3 405.217 198.633 405.433 200.2 404.4C201.4 403.5 202.3 402.85 202.9 402.45C202.967 402.417 203.967 401.867 205.9 400.8L206.4 402.95C207.1 405.917 208.2 408.183 209.7 409.75C210.933 410.983 212.1 411.617 213.2 411.65C214.3 411.65 215.467 411.033 216.7 409.8L218.05 408.4C221.883 404.567 226.25 402.25 231.15 401.45C235.35 400.717 240.183 400.983 245.65 402.25L256.65 404.75C261.783 405.95 266.2 405.217 269.9 402.55C271.067 401.75 272.367 401.133 273.8 400.7C278.733 399.3 283.25 400.167 287.35 403.3C289.55 405.033 291.25 406.233 292.45 406.9C293.583 407.5 294.383 407.667 294.85 407.4C295.317 407.1 295.567 406.317 295.6 405.05C295.867 400.05 295.6 396.133 294.8 393.3L300.05 390.35L302.1 395.95C302.767 397.217 303.45 397.9 304.15 398C304.85 398.1 305.7 397.65 306.7 396.65C307.267 396.083 307.683 395.683 307.95 395.45C308.45 395.017 308.933 394.75 309.4 394.65C309.567 396.617 309.8 399.45 310.1 403.15C310.5 405.983 311.967 406.683 314.5 405.25L318.05 403L318.65 404.7C319.917 407.8 320.7 409.633 321 410.2C321.433 411 321.983 411.433 322.65 411.5C323.25 411.533 323.9 411.25 324.6 410.65L325.45 409.8C327.15 407.967 329.383 406.833 332.15 406.4C334.683 405.967 337.217 406.1 339.75 406.8C342.483 407.567 346.533 408.783 351.9 410.45C357.967 412.317 363.483 411.95 368.45 409.35C369.917 408.617 370.95 408.183 371.55 408.05C375.817 407.117 378.55 406.6 379.75 406.5C384.417 406.133 389.083 407.233 393.75 409.8C394.75 410.333 395.433 410.5 395.8 410.3C396.167 410.1 396.383 409.45 396.45 408.35C396.75 403.95 396.217 399.867 394.85 396.1C393.417 392.033 391.2 389.2 388.2 387.6C387.8 387.3 387.433 387.033 387.1 386.8L392.25 378.8L406.65 380.35C406.95 380.383 407.95 380.483 409.65 380.65C410.85 380.783 411.833 380.917 412.6 381.05C418.333 381.983 422.583 385.033 425.35 390.2C426.017 391.433 426.25 392.733 426.05 394.1C425.483 398 424.15 401.483 422.05 404.55C418.983 409.05 414.467 413.05 408.5 416.55C406.367 417.85 403.567 419.383 400.1 421.15C396.133 423.183 387.317 427.633 373.65 434.5L373.2 433.8C371.033 431.1 368.05 429.2 364.25 428.1C358.583 426.433 352.85 426.717 347.05 428.95C341.25 431.15 336.817 434.767 333.75 439.8C331.783 443.067 330.283 446.85 329.25 451.15C328.217 455.65 327.433 460.667 326.9 466.2C326.5 470.133 326.183 475.183 325.95 481.35C325.883 483.35 326.25 484.917 327.05 486.05C327.783 487.15 329.1 488.1 331 488.9C343.8 494.267 357.6 495.717 372.4 493.25C378.3 492.25 383.2 489.733 387.1 485.7C389.9 482.767 391.433 479.467 391.7 475.8C391.967 472.1 390.933 468.6 388.6 465.3L387.65 463.75C389.117 463.483 391.233 463.067 394 462.5C396.467 462.033 398.583 461.733 400.35 461.6L400.1 463C399.133 467.067 400.667 469.117 404.7 469.15C406.433 469.217 408.183 469.033 409.95 468.6C416.15 467.2 421.567 463.733 426.2 458.2C427.2 457.067 428.133 456.383 429 456.15C431.233 455.583 436 454.217 443.3 452.05C443.5 451.983 443.817 451.95 444.25 451.95L444.8 454.1C445.3 455.733 446.217 457 447.55 457.9C448.917 458.833 450.433 459.183 452.1 458.95C453.833 458.717 455.333 458.217 456.6 457.45C459.633 455.517 461.983 453.733 463.65 452.1C468.95 447.133 472.167 441.633 473.3 435.6C473.433 435.033 473.9 434.333 474.7 433.5C475.6 432.567 478.383 429.817 483.05 425.25L484.3 424.1C484.433 424.833 484.6 425.767 484.8 426.9C485.467 429.633 487 431.3 489.4 431.9C491.633 432.5 493.617 431.633 495.35 429.3C495.783 428.767 496.233 428.1 496.7 427.3C501.5 419.233 502.817 410.783 500.65 401.95C500.383 400.717 500.517 399.483 501.05 398.25C501.25 397.783 503 393.5 506.3 385.4L507.1 383.65L508.9 385.05C511.033 386.55 513.017 387.1 514.85 386.7C516.717 386.3 518.3 384.983 519.6 382.75C521.667 379.183 522.3 375.15 521.5 370.65C520.133 362.55 517.3 355.5 513 349.5C512.367 348.567 512.033 347.617 512 346.65C511.867 344.683 511.6 341.733 511.2 337.8L510.7 333.25C512.233 333.55 513.283 333.733 513.85 333.8C517.05 334.2 519.583 333.417 521.45 331.45C523.283 329.45 523.9 326.867 523.3 323.7C522.833 321.3 521.767 319 520.1 316.8C516.533 312.167 511.767 307.817 505.8 303.75C504.567 302.917 503.283 302.283 501.95 301.85C500.917 301.517 500.067 300.75 499.4 299.55L492.4 287L494.95 287.15C498.283 287.25 501.15 286.683 503.55 285.45C507.283 283.55 508.3 280.683 506.6 276.85L505.8 275.4C502.8 270.3 498.317 266.467 492.35 263.9C485.817 261.1 479.167 260.133 472.4 261C470.8 261.233 469.367 260.783 468.1 259.65C467.067 258.717 464.517 256.65 460.45 253.45C459.683 252.85 458.25 251.817 456.15 250.35C457.05 248.517 458.617 246.667 460.85 244.8C461.583 244.167 462.733 243.3 464.3 242.2C465.233 241.433 465.817 240.617 466.05 239.75C466.283 238.85 466.167 237.817 465.7 236.65C464.9 234.617 463.467 232.833 461.4 231.3C457.633 228.567 453.067 227.117 447.7 226.95C439.9 226.717 432.4 228.617 425.2 232.65C424.267 233.183 423.333 233.483 422.4 233.55C421.567 233.617 420.633 233.483 419.6 233.15C418.733 232.85 414.9 231.683 408.1 229.65C409.3 227.983 410.933 226.45 413 225.05C413.7 224.583 414.767 223.9 416.2 223C418 221.7 418.9 220.217 418.9 218.55C418.9 216.883 418.017 215.4 416.25 214.1C415.217 213.3 414.233 212.767 413.3 212.5C410.433 211.7 408.25 211.25 406.75 211.15C401.583 210.683 396.017 211.85 390.05 214.65C386.383 216.417 382.383 219.033 378.05 222.5C377.083 223.267 376.067 223.567 375 223.4L343.65 218.7C351.017 214.6 358.083 212.067 364.85 211.1C372.383 210.033 379.8 210.833 387.1 213.5L387.4 212.9L387.7 212C391.2 195.767 400.733 183.85 416.3 176.25C424.167 172.383 432.833 170.533 442.3 170.7L444.8 170.65V169.85C443.1 162.517 443.433 155.267 445.8 148.1C449.967 135.4 456.433 123.9 465.2 113.6C469.233 108.833 473.85 105.067 479.05 102.3L485.05 99.45C472.75 95.45 460.95 92.9167 449.65 91.85C438.583 90.85 426.333 90.8833 412.9 91.95C416.167 87.8167 420.65 84.2333 426.35 81.2ZM413.4 81.6C414 81.6667 415.917 81.9333 419.15 82.4C418.917 82.9333 418.783 83.2167 418.75 83.25C415.883 85.35 413.05 88.05 410.25 91.35C409.75 91.9833 409.1 92.35 408.3 92.45C388.233 94.75 367.233 100.367 345.3 109.3C332 114.733 320.25 120.167 310.05 125.6C308.517 126.433 306.7 127.583 304.6 129.05C302.267 130.717 300.5 131.95 299.3 132.75C298.167 133.55 297.233 134.2 296.5 134.7C297.367 143.8 297.867 151.7 298 158.4C298.167 166.933 297.783 174.833 296.85 182.1C296.683 183.667 296.4 185.6 296 187.9C295.8 189.2 295.467 191.183 295 193.85L288.65 193.2L285.8 174.9C287.467 174.567 288.567 174.317 289.1 174.15C293.167 173.083 295.05 170.517 294.75 166.45C294.65 164.517 294.25 162.733 293.55 161.1C291.017 155.267 288.333 150.75 285.5 147.55C284.8 146.75 283.867 145.817 282.7 144.75C281.367 143.517 280.333 142.567 279.6 141.9C280.567 141 282 139.633 283.9 137.8C285.6 136.167 287.1 134.85 288.4 133.85C309.3 117.45 328.867 104.983 347.1 96.45C361.5 89.7167 376.583 85.1167 392.35 82.65C399.55 81.5167 406.567 81.1667 413.4 81.6ZM431.85 93.45C434.35 93.4833 438.067 93.5333 443 93.6C443.033 93.6 443.8 93.7 445.3 93.9C426.167 95.5333 408.35 99.2833 391.85 105.15C386.017 107.183 378.867 110.167 370.4 114.1C356.767 120.467 344.433 126.9 333.4 133.4C326.933 137.2 321.2 141.4 316.2 146L315.05 146.9C315.383 148.7 315.883 151.333 316.55 154.8C317.117 157.833 317.55 160.4 317.85 162.5C318.917 170.333 319.633 176.933 320 182.3C320.833 193.8 320.917 207.867 320.25 224.5C320.15 226.7 320.1 229.983 320.1 234.35C320.033 236.317 319.9 237.983 319.7 239.35C319.1 243.083 317.65 246.133 315.35 248.5C313.083 250.867 310.083 252.45 306.35 253.25C302.917 254.017 299.2 253.95 295.2 253.05C291.867 252.283 289.3 250.75 287.5 248.45C285.7 246.183 284.75 243.283 284.65 239.75C284.55 236.083 285.117 232.3 286.35 228.4C288.683 220.867 290.7 214.8 292.4 210.2C296.867 197.867 299.417 184.65 300.05 170.55C300.483 161.15 300.15 150.617 299.05 138.95C298.95 137.883 299.05 136.967 299.35 136.2C299.683 135.433 300.267 134.717 301.1 134.05C304.867 131.117 309.067 128.5 313.7 126.2C333.1 116.433 350.983 108.917 367.35 103.65C385.483 97.85 403.267 94.5167 420.7 93.65C423.8 93.4833 427.517 93.4167 431.85 93.45ZM425.55 98.8C437.317 96.7 448.3 95.9167 458.5 96.45C466.3 96.8833 472.35 97.8167 476.65 99.25L478.15 99.85L477.45 100.55C470.217 104.65 463.733 110.833 458 119.1C452.567 126.967 448.233 135.05 445 143.35C441.9 151.35 440.867 159.167 441.9 166.8L439.55 164.55C431.583 156.483 423.35 150.067 414.85 145.3C404.65 139.633 393.817 136.25 382.35 135.15C371.383 134.15 359.717 135.067 347.35 137.9C344.15 138.633 340.283 139.633 335.75 140.9C330.65 142.4 326.817 143.5 324.25 144.2L321.55 144.95L321.3 144.55C321.5 144.417 321.983 144.017 322.75 143.35C323.35 142.883 323.85 142.517 324.25 142.25C325.917 141.183 328.383 139.567 331.65 137.4C334.583 135.467 337.1 133.9 339.2 132.7C352.267 125.267 365.45 118.6 378.75 112.7C392.617 106.567 408.217 101.933 425.55 98.8ZM386.2 81.3L378.15 83.2C359.95 87.5667 342.083 95.1833 324.55 106.05C321.75 107.783 318.283 110.017 314.15 112.75L301.3 121.25C301.567 119.05 301.467 116.8 301 114.5C300.633 112.767 299.983 110.65 299.05 108.15C328.017 91.9167 357.017 82.8167 386.05 80.85L386.2 81.3ZM340.25 141.85C347.117 140.05 353.55 138.767 359.55 138C369.25 136.767 378.183 136.717 386.35 137.85C398.083 139.45 409.417 143.95 420.35 151.35C426.75 155.717 432.9 160.917 438.8 166.95L440 168.35L436.2 168.65C426.967 169.417 418.567 172.033 411 176.5C398.7 183.767 390.517 194.083 386.45 207.45L385.8 209.6C385.133 208.567 384.733 207.917 384.6 207.65C377.5 193.583 368.25 181.45 356.85 171.25C349.383 164.583 340.133 158.183 329.1 152.05L321 147.55C328.5 145.117 334.917 143.217 340.25 141.85ZM332.75 156.8C344.683 163.733 354.567 171.4 362.4 179.8C370.5 188.4 377.183 197.917 382.45 208.35L382.9 209.5C358.767 205.833 338.65 213.917 322.55 233.75L322.45 231.4C322.717 219.9 322.883 211.283 322.95 205.55C323.05 193.15 322.533 182.133 321.4 172.5C321.067 169.467 320.533 165.75 319.8 161.35C318.933 156.417 318.3 152.717 317.9 150.25L317.7 149.05C318.6 149.25 319.133 149.4 319.3 149.5C326.433 153.3 330.917 155.733 332.75 156.8ZM458.8 232.35C460.267 233.217 461.683 234.583 463.05 236.45C463.817 237.45 464.133 238.283 464 238.95C463.867 239.617 463.25 240.3 462.15 241C459.117 243.033 456.433 245.717 454.1 249.05C446.333 243.883 436.767 239.183 425.4 234.95C430.2 232.517 434.633 230.867 438.7 230C443.367 229 447.933 228.95 452.4 229.85C454.733 230.317 456.867 231.15 458.8 232.35ZM412 214.4C413.333 214.9 414.433 215.517 415.3 216.25C417.133 217.783 417.133 219.333 415.3 220.9C414.9 221.233 414.233 221.667 413.3 222.2C410.467 223.833 408.217 225.733 406.55 227.9C405.917 228.7 405.117 229.017 404.15 228.85L381.1 224.35C380.733 224.183 380.45 224.067 380.25 224C380.317 223.867 380.383 223.7 380.45 223.5C387.183 218.2 393.6 214.95 399.7 213.75C404.167 212.85 408.267 213.067 412 214.4ZM472.85 263.1C476.217 263 478.1 262.967 478.5 263C483.933 263.267 488.833 264.517 493.2 266.75C497.467 268.917 500.767 271.767 503.1 275.3C503.833 276.367 504.45 277.733 504.95 279.4C505.45 280.867 504.917 282.067 503.35 283C500.85 284.4 498.083 285.05 495.05 284.95C492.917 284.883 491.55 284.7 490.95 284.4C490.383 284.1 489.467 283.083 488.2 281.35C484 275.65 479.467 270.4 474.6 265.6C473.733 264.733 473.1 264.067 472.7 263.6L472.85 263.1ZM412 233.15C432.567 238.75 449.833 247.317 463.8 258.85C486.833 277.883 501.4 301.35 507.5 329.25C511.267 346.717 510.483 364.167 505.15 381.6C499.95 398.5 491.467 413.083 479.7 425.35C465.767 439.883 449.5 449.217 430.9 453.35C426.9 454.25 422.2 455.2 416.8 456.2C416.567 456.233 411.85 457.083 402.65 458.75C394.283 460.217 388.9 461.2 386.5 461.7C380.467 462.967 375.183 464.383 370.65 465.95C368.783 466.583 366.45 467.5 363.65 468.7C359.683 470.333 357.35 471.283 356.65 471.55C354.45 472.35 352.783 472.9 351.65 473.2C349.683 473.667 348.067 473.35 346.8 472.25C345.567 471.117 345.083 469.533 345.35 467.5C345.55 465.967 346.067 464.467 346.9 463C348.833 459.567 351.783 455.8 355.75 451.7C361.617 445.667 368.267 440.583 375.7 436.45C379.233 434.483 387.3 430.267 399.9 423.8C403.5 421.967 406.217 420.517 408.05 419.45C410.983 417.783 413.55 416.083 415.75 414.35C419.517 411.35 422.467 408.117 424.6 404.65C429.3 397.05 429.767 389.35 426 381.55C422.333 373.817 417.633 367.617 411.9 362.95L410.8 361.9C412.933 360.433 414.65 359.2 415.95 358.2C418.883 356 420.9 353.567 422 350.9C423.167 347.933 423.167 344.65 422 341.05C421.167 338.517 420.383 336.583 419.65 335.25C416.35 329.15 413.2 322.25 410.2 314.55C408 308.917 405.467 301.767 402.6 293.1L401.8 290.85C401.467 289.75 400.917 289.35 400.15 289.65C399.717 289.817 399.5 290.067 399.5 290.4C399.467 290.633 399.533 290.983 399.7 291.45L401.65 297.4C406.883 313.133 412.1 325.833 417.3 335.5C418.467 337.7 419.417 340.067 420.15 342.6C421.45 347.2 420.4 351.083 417 354.25C415 356.05 412.733 357.8 410.2 359.5C403.9 363.633 398.85 367.783 395.05 371.95C391.483 375.883 388.483 380.017 386.05 384.35L384.85 386.3L377.45 386.35C376.75 386.35 376.283 386.383 376.05 386.45C375.55 386.617 375.317 387 375.35 387.6C375.383 388.2 375.667 388.533 376.2 388.6C376.5 388.633 376.983 388.617 377.65 388.55L380.5 388.5C381.633 388.467 382.583 388.483 383.35 388.55C386.817 388.75 389.5 390.517 391.4 393.85C393.4 397.483 394.4 401.967 394.4 407.3L392.55 406.7C384.75 403.333 377.067 403.25 369.5 406.45L366.2 407.9C362.8 409.5 359.283 409.867 355.65 409C354.383 408.7 352.767 408.267 350.8 407.7C347.933 406.833 346.333 406.35 346 406.25C344.367 405.75 343.133 405.383 342.3 405.15C340.867 404.75 339.617 404.467 338.55 404.3C335.383 403.8 332.617 403.867 330.25 404.5C327.45 405.233 325.017 406.783 322.95 409.15C321.983 407.117 321.467 406.017 321.4 405.85C319.367 400.35 320.35 395.65 324.35 391.75C325.95 390.25 327.833 388.767 330 387.3C332.3 385.8 334.75 385.417 337.35 386.15C341.083 387.25 343.767 388 345.4 388.4C348.9 389.267 352.4 389.45 355.9 388.95C356.633 388.883 357.1 388.783 357.3 388.65C357.767 388.35 358.05 387.967 358.15 387.5C358.183 387.4 358.083 387.25 357.85 387.05C357.583 386.85 357.367 386.733 357.2 386.7C356.933 386.7 356.05 386.733 354.55 386.8C350.383 387.033 346.933 386.683 344.2 385.75C345 374.35 348.817 364.083 355.65 354.95L366.75 355.8C367.517 355.867 368.7 355.933 370.3 356C370.9 356 371.317 355.967 371.55 355.9C371.917 355.767 372.117 355.467 372.15 355C372.183 354.433 372 354.067 371.6 353.9C371.333 353.767 370.9 353.7 370.3 353.7L367.9 353.65C361.567 353.45 354.9 352.667 347.9 351.3C342.867 350.3 338.367 347.85 334.4 343.95C322.767 332.417 317.55 318.517 318.75 302.25C319.317 295.05 321.367 288.3 324.9 282C325.633 280.733 326.017 280.033 326.05 279.9C326.183 279.4 326.017 278.95 325.55 278.55C325.45 278.45 325.267 278.433 325 278.5C324.733 278.567 324.517 278.667 324.35 278.8C324.283 278.867 323.967 279.317 323.4 280.15C316.8 291.75 314.817 304.267 317.45 317.7C318.717 324.333 321.217 330.433 324.95 336L325.45 336.8L325.6 337.5L317.15 339.8L317.6 338C318.567 334.4 318.483 330.767 317.35 327.1C316.583 324.467 315.683 322 314.65 319.7L300.05 287.85C299.717 287.05 299.417 286.483 299.15 286.15C299.017 286.017 298.817 285.9 298.55 285.8C298.25 285.7 298.05 285.683 297.95 285.75C297.783 285.883 297.633 286.083 297.5 286.35C297.333 286.617 297.267 286.85 297.3 287.05C297.4 287.55 297.7 288.283 298.2 289.25L313.2 321.95C314.867 325.617 315.783 328.983 315.95 332.05C316.183 335.617 315.417 338.667 313.65 341.2L308.5 348.15C304.833 353.05 299.317 360.4 291.95 370.2C290.783 371.8 289.283 373.467 287.45 375.2C286.75 375.867 285.067 377.333 282.4 379.6C282 379.933 281.55 380.1 281.05 380.1C280.45 380 280 379.917 279.7 379.85C276.933 379.25 274 379.233 270.9 379.8C270.267 379.867 269.883 379.967 269.75 380.1C269.15 380.567 268.85 380.95 268.85 381.25C268.883 381.983 269.35 382.283 270.25 382.15L272.4 381.8C277.1 381.033 281.433 381.95 285.4 384.55C289.367 387.15 291.883 390.75 292.95 395.35C293.683 398.417 293.767 401.55 293.2 404.75L290.2 402.7C288.833 401.8 287.8 401.117 287.1 400.65C285.867 399.85 284.8 399.267 283.9 398.9C279.8 397.2 275.45 397.383 270.85 399.45C269.817 399.95 269.25 400.25 269.15 400.35C267.283 401.817 265.2 402.683 262.9 402.95C260.933 403.217 258.683 403.033 256.15 402.4C251.05 401.167 246.683 400.2 243.05 399.5C234.683 397.867 227.6 398.917 221.8 402.65C220.333 403.583 218.183 405.367 215.35 408C214.383 408.867 213.633 409.3 213.1 409.3C212.5 409.3 211.833 408.8 211.1 407.8C210 406.333 209.267 404.933 208.9 403.6C207.333 396.933 208.15 391 211.35 385.8C212.883 383.3 214.85 381.517 217.25 380.45C220.017 379.183 223.017 379.117 226.25 380.25C227.717 380.75 229.9 381.517 232.8 382.55C234.167 383.017 235.717 383.383 237.45 383.65C237.85 383.717 238.367 383.75 239 383.75C239.333 383.75 239.883 383.733 240.65 383.7L240.3 381.75L234.25 380.9C234.55 380.3 234.767 379.917 234.9 379.75C238.933 375.517 242.3 369.95 245 363.05C245.833 360.983 249.9 350.383 257.2 331.25L257.5 330.35C257.633 329.983 257.633 329.65 257.5 329.35C257.367 329.083 257.133 328.917 256.8 328.85C256.6 328.817 256.35 328.883 256.05 329.05C255.75 329.217 255.567 329.383 255.5 329.55L252.25 337.7L250.95 336.1C247.35 331.567 244.633 328.2 242.8 326C238.767 321.067 235.75 316.667 233.75 312.8C233.083 311.5 232.017 309.617 230.55 307.15C228.05 302.883 225.25 299.783 222.15 297.85L222.25 297.25C225.817 293.25 228.417 287.917 230.05 281.25C231.85 274.183 232.283 267.767 231.35 262C230.65 257.333 228.967 253.117 226.3 249.35C227.967 246.15 229.133 243.75 229.8 242.15C231.133 238.85 231.85 235.1 231.95 230.9C232.15 225.4 232.117 221.083 231.85 217.95C231.317 211.083 228.7 206.167 224 203.2L225.25 202.25C229.883 198.917 232.4 194.4 232.8 188.7C233.567 177.167 230.117 167.367 222.45 159.3L221.75 158.45L223.2 157.25C231.8 150.95 236.983 142.45 238.75 131.75C239.683 126.117 238.517 121.367 235.25 117.5C234.65 116.767 234.167 116.333 233.8 116.2C233.433 116.033 233.1 116.133 232.8 116.5C232.4 117 232.333 117.467 232.6 117.9C232.767 118.133 233.083 118.467 233.55 118.9C236.55 122.5 237.45 127.117 236.25 132.75C233.417 146.15 225.55 155.3 212.65 160.2C209.783 161.333 207.617 162.15 206.15 162.65C198.617 165.25 191.5 169.45 184.8 175.25C183.233 176.583 180.917 178.667 177.85 181.5C175.717 183.367 174.133 184.7 173.1 185.5C167.5 189.867 161.233 191.267 154.3 189.7C150.367 188.767 146.383 187.633 142.35 186.3C136.417 184.367 130.317 183.15 124.05 182.65C121.017 182.383 118.3 181.783 115.9 180.85C113.433 179.95 111.617 178.183 110.45 175.55C109.283 172.983 109.117 170.45 109.95 167.95C110.35 166.65 111.2 165.983 112.5 165.95C113.833 165.883 115.817 165.717 118.45 165.45C120.783 165.35 122.767 165.533 124.4 166C127.033 166.733 130.483 167.983 134.75 169.75C135.917 170.217 137.517 170.95 139.55 171.95C141.75 173.017 143.333 173.75 144.3 174.15C156.4 179.183 167.717 177.75 178.25 169.85C179.017 169.283 181.567 167.217 185.9 163.65L198.2 153.7C200.067 152.267 201.433 151.167 202.3 150.4C206.133 147.2 208.333 143.25 208.9 138.55L209.4 135.3C210.933 136.6 212.017 137.567 212.65 138.2C212.983 138.533 213.417 139.1 213.95 139.9C214.55 140.7 215.167 140.85 215.8 140.35C216.267 139.983 216.267 139.417 215.8 138.65C214.667 136.517 212.9 134.8 210.5 133.5C208.1 132.2 205.733 131.667 203.4 131.9C202.567 132 202.083 132.067 201.95 132.1C201.45 132.3 201.217 132.683 201.25 133.25C201.283 133.817 201.55 134.15 202.05 134.25C202.35 134.283 202.833 134.267 203.5 134.2H206.8C207.133 139.067 206 143.017 203.4 146.05C201.9 147.783 200.2 149.35 198.3 150.75C194.1 153.783 189.25 157.7 183.75 162.5C180.583 165.233 177.5 167.633 174.5 169.7C165.933 175.467 156.55 176.4 146.35 172.5C145.05 172 143.4 171.283 141.4 170.35C138.767 169.117 137.133 168.35 136.5 168.05C132.7 166.383 129.817 165.2 127.85 164.5C124.783 163.4 121.4 163.017 117.7 163.35C111.8 163.783 108.533 164.017 107.9 164.05C105.333 164.117 103.1 163.95 101.2 163.55C96.6667 162.617 93.65 159.85 92.15 155.25C90.95 151.517 91 147.5 92.3 143.2C93.4667 139.433 95.4333 135.983 98.2 132.85L99.65 131.2C99.3834 130.233 99.1834 129.5 99.05 129C98.8167 128.133 98.6667 127.4 98.6 126.8C97.8667 122.4 98.8834 118.333 101.65 114.6C103.383 112.267 105.683 111.25 108.55 111.55C109.85 111.683 111.333 111.95 113 112.35C116 113.017 118.45 113.167 120.35 112.8C120.75 112.733 121.283 112.717 121.95 112.75C123.15 112.783 123.817 112.8 123.95 112.8L121.7 114.15C117.667 116.55 114.7 119.5 112.8 123L112.05 124.4C111.883 124.967 112.067 125.4 112.6 125.7C113.2 126.033 113.667 125.983 114 125.55C114.333 124.883 114.567 124.417 114.7 124.15C117.833 118.75 122.983 115.117 130.15 113.25C131.05 113.017 133.367 112.583 137.1 111.95C138 110.383 138.6 109.4 138.9 109C145.867 99.0333 155.267 94 167.1 93.9C167.3 93.9 167.583 93.9167 167.95 93.95C168.283 93.95 168.55 93.9167 168.75 93.85C168.95 93.7833 169.183 93.6333 169.45 93.4L170.1 92.8C169.367 92.1333 168.9 91.75 168.7 91.65C168.633 91.6167 168.25 91.6 167.55 91.6L156.55 93C156.85 91.8 157.033 90.9333 157.1 90.4C157.333 88.8667 157.5 87.7167 157.6 86.95C157.8 85.6167 157.883 84.4667 157.85 83.5C157.817 79.0667 156.133 75.7167 152.8 73.45C149.467 71.1833 145.7 70.7833 141.5 72.25C140.3 72.65 139.383 72.9 138.75 73C137.817 73.1667 137.167 73.1333 136.8 72.9C136.433 72.6667 136.183 72.1 136.05 71.2C135.717 68.8333 135.733 66.95 136.1 65.55C137.633 59.75 141.7 55.9667 148.3 54.2C154.267 52.6333 159.417 54.0167 163.75 58.35C164.183 58.7833 164.483 59.0333 164.65 59.1C164.817 59.1667 165.017 59.2 165.25 59.2C165.483 59.2 165.633 59.15 165.7 59.05C166.1 58.5833 166.217 58.1833 166.05 57.85C165.883 57.45 165.5 56.95 164.9 56.35C163.733 55.1833 162.433 54.2333 161 53.5C159.567 52.8 157.567 52.0833 155 51.35C156.1 49.8167 156.717 48.9833 156.85 48.85C160.917 44.1833 166.517 40.15 173.65 36.75C184.517 31.5833 196.717 29.1667 210.25 29.5C221.45 29.7333 230.733 31.1833 238.1 33.85C259.033 41.4167 272.833 55.2833 279.5 75.45C281.633 81.9167 282.3 89.6667 281.5 98.7C281.067 103.4 280.15 108.8 278.75 114.9C277.917 118.467 276.583 123.783 274.75 130.85C272.583 139.783 271.167 146.167 270.5 150C268.633 160.967 269.133 171.1 272 180.4C275.033 190.1 280.717 197.9 289.05 203.8L291.5 205.6L287.45 217.75C286.15 221.517 285.117 224.667 284.35 227.2C282.717 232.633 282.133 237.433 282.6 241.6C282.967 245.067 284.133 247.95 286.1 250.25C288.1 252.583 290.767 254.183 294.1 255.05C299.6 256.483 304.717 256.383 309.45 254.75C315.883 252.517 319.95 248.05 321.65 241.35C322.017 239.85 322.717 238.267 323.75 236.6C327.25 230.9 332.117 225.867 338.35 221.5C339.383 220.767 340.5 220.5 341.7 220.7L378.45 226.25C390.617 228.083 401.8 230.383 412 233.15ZM325.6 339.85C326.8 339.483 327.817 339.833 328.65 340.9C329.35 341.8 330.467 343.05 332 344.65C336.933 350.017 343.217 353.183 350.85 354.15C351.317 354.183 351.783 354.283 352.25 354.45C352.317 354.45 352.483 354.55 352.75 354.75C352.517 355.317 352.267 355.783 352 356.15C348.567 361.283 346.067 366.517 344.5 371.85C344.133 373.15 343.3 373.983 342 374.35C337.2 375.65 332.3 376.2 327.3 376C318.7 375.667 310.167 374.567 301.7 372.7C300.767 372.533 299.6 372.233 298.2 371.8C296.6 371.267 295.35 370.867 294.45 370.6L300.4 362.65C306.5 354.55 311.05 348.467 314.05 344.4C314.917 343.267 315.917 342.55 317.05 342.25L325.6 339.85ZM341 376.8L343.1 376.45L341.9 384.9C340.933 384.767 340.367 384.667 340.2 384.6C337.067 383.667 334.467 383.4 332.4 383.8C331.767 383.933 331.05 383.7 330.25 383.1C328.15 381.7 326.133 380.8 324.2 380.4C321.533 379.867 319.117 380.4 316.95 382C314.217 384 312.25 386.667 311.05 390C310.683 390.967 309.967 391.75 308.9 392.35C308.533 392.55 307.083 393.517 304.55 395.25C303.15 393.483 302.383 391.333 302.25 388.8C302.117 386.167 302.767 383.85 304.2 381.85C304.933 380.95 305.483 380.267 305.85 379.8C306.983 378.533 308.15 377.667 309.35 377.2C310.65 376.667 312.15 376.583 313.85 376.95C318.417 377.883 323.817 378.3 330.05 378.2C334.25 378.1 337.9 377.633 341 376.8ZM328.85 384.8C328.017 385.6 326.767 386.733 325.1 388.2C323.633 389.5 322.45 390.617 321.55 391.55C319.483 393.783 318.333 396.717 318.1 400.35L312.8 403.55C311.6 399.983 311.517 396.333 312.55 392.6C313.483 389.167 315.083 386.483 317.35 384.55C319.95 382.283 322.75 381.833 325.75 383.2C326.483 383.533 327.517 384.067 328.85 384.8ZM397.1 377.2C395.967 376.933 394.983 376.717 394.15 376.55C398.183 371.417 403.017 367 408.65 363.3C415.85 368.7 421.167 375.85 424.6 384.75C421.333 381.483 417.4 379.5 412.8 378.8C412 378.667 410.983 378.533 409.75 378.4C408.017 378.233 406.983 378.133 406.65 378.1L397.1 377.2ZM502 304.85L502.3 304.45C503.533 305.017 504.283 305.4 504.55 305.6C510.317 309.567 514.933 313.817 518.4 318.35C519.233 319.417 520.067 321.033 520.9 323.2C521.5 324.733 521.433 326.45 520.7 328.35C520.033 330.117 518.8 331.167 517 331.5C515.233 331.833 513.2 331.6 510.9 330.8C510.433 330.633 510.117 330.333 509.95 329.9C509.917 329.8 509.833 329.383 509.7 328.65C508.533 323.017 506.8 317.133 504.5 311L502 304.85ZM512.1 352.8C512.4 353.033 512.633 353.2 512.8 353.3C516.833 360.267 519.05 366.95 519.45 373.35C519.65 376.483 519.05 379.25 517.65 381.65C515.683 384.983 513.167 385.467 510.1 383.1C509.067 382.2 508.267 381.517 507.7 381.05C510.333 371.917 511.8 362.5 512.1 352.8ZM252.8 17.2C254.633 17.3 256.567 17.7333 258.6 18.5C260.633 19.2667 261.95 20.4167 262.55 21.95C263.15 23.45 262.967 25.1833 262 27.15C261.5 28.15 260.867 29.0833 260.1 29.95C258.333 31.6167 257.033 32.9 256.2 33.8C255.733 34.3 254.533 35.75 252.6 38.15C247.433 34.8833 241.583 32.3667 235.05 30.6C229.65 29.1333 223.367 28.1 216.2 27.5L216.05 27C217.183 26 218.067 25.2833 218.7 24.85C224.9 20.35 232.033 17.8167 240.1 17.25C243.433 16.9833 247.667 16.9667 252.8 17.2ZM281.65 73.8C280.35 70.9667 279.383 68.8667 278.75 67.5C277.617 65.0667 276.583 63.0667 275.65 61.5C274.783 59.9667 273.583 58.15 272.05 56.05C270.317 53.65 269.017 51.8167 268.15 50.55L269.6 50.25C276.933 49.6833 283.633 50.8167 289.7 53.65C294.267 55.85 297.483 58.7167 299.35 62.25C300.183 63.8167 300.733 65.55 301 67.45C301.4 70.5167 300.017 72.3 296.85 72.8C296.05 72.9333 294.85 73.0333 293.25 73.1L281.65 73.8ZM286.3 95.6C287.1 96.1 287.733 96.55 288.2 96.95C294.8 102.683 298.45 109.817 299.15 118.35C299.483 122.717 297.417 125.267 292.95 126L292.5 126.05C291.633 126.083 290.983 126.1 290.55 126.1C289.783 126.133 289.15 126.1 288.65 126C284.35 124.933 281.017 124.117 278.65 123.55C280.217 117.35 281.35 112.5 282.05 109C283.083 103.667 283.717 98.7167 283.95 94.15C284.517 94.5167 285.3 95 286.3 95.6ZM193 191C192.533 182.867 194.983 175.217 200.35 168.05C200.85 167.417 201.617 166.883 202.65 166.45C205.117 165.45 208.833 164 213.8 162.1L219.55 159.65C223.517 163.117 226.467 167.533 228.4 172.9C230.433 178.433 231.117 184 230.45 189.6C229.983 193.6 228.333 196.783 225.5 199.15C219.133 204.283 212.1 206.083 204.4 204.55C201 203.917 198.3 202.417 196.3 200.05C194.333 197.683 193.233 194.667 193 191ZM273.9 142.4C276.1 142.733 278.05 143.667 279.75 145.2C282.383 147.433 284.2 149.317 285.2 150.85C286.633 153.017 288.767 156.833 291.6 162.3C292.6 164.2 292.9 166.15 292.5 168.15C292.067 170.083 291.017 171.267 289.35 171.7C288.117 172 286.55 172.25 284.65 172.45C279.35 172.683 275.267 172.867 272.4 173C271.5 168.3 271.233 163.233 271.6 157.8C271.9 153.3 272.667 148.167 273.9 142.4ZM277.2 141L274.4 140L278.05 125.75L290.6 128.8L277.2 141ZM273 175.95C276.167 174.817 279.617 174.45 283.35 174.85C284.683 181.417 285.633 187.517 286.2 193.15C284.067 193.283 282.7 193.333 282.1 193.3C281.5 193.3 281 193 280.6 192.4C277.033 187.733 274.5 182.25 273 175.95ZM283.55 195.65C287.05 195.317 290.6 195.5 294.2 196.2C293.967 197.9 293.367 200.117 292.4 202.85C291.233 202.483 289.783 201.583 288.05 200.15C286.283 198.717 284.783 197.217 283.55 195.65ZM133.45 84.9C134.45 81.2667 136.167 78.45 138.6 76.45C142 73.65 145.75 72.9833 149.85 74.45C150.183 74.5833 150.683 74.8833 151.35 75.35C150.983 75.5833 150.733 75.7167 150.6 75.75C145.1 77.55 141.75 81.75 140.55 88.35C140.083 91.1833 140.133 94.1167 140.7 97.15L140.95 98.85L133.1 100.15C132.9 100.05 132.8 99.9667 132.8 99.9C132.2 93.7333 132.417 88.7333 133.45 84.9ZM146.5 81.55C147.167 80.9167 147.933 80.6167 148.8 80.65C149.667 80.65 150.417 80.9667 151.05 81.6C151.683 82.2667 152 83.0167 152 83.85C152 84.6833 151.683 85.4333 151.05 86.1C150.417 86.7333 149.667 87.0667 148.8 87.1C147.933 87.1333 147.15 86.8 146.45 86.1C145.783 85.4333 145.467 84.65 145.5 83.75C145.533 82.8833 145.867 82.15 146.5 81.55ZM141 102.7C138.5 105.967 137.017 107.933 136.55 108.6C135.783 109.7 134.9 110.25 133.9 110.25H121.9C124.533 107.25 127.583 105.017 131.05 103.55C134.183 102.217 137.833 101.45 142 101.25L141 102.7ZM160.8 385.85L154.2 390.05C153.9 389.45 153.683 389 153.55 388.7C153.283 388.133 153.117 387.667 153.05 387.3C151.883 382.933 152.517 378.617 154.95 374.35C155.883 372.75 157.083 371.167 158.55 369.6C160.183 367.9 161.833 366.983 163.5 366.85C165.2 366.717 167.133 367.35 169.3 368.75C166.333 370.65 164.167 373.167 162.8 376.3C161.633 378.9 160.967 382.083 160.8 385.85ZM228.85 213.5C229.35 215.267 229.633 216.75 229.7 217.95C229.967 222.417 230.017 226.2 229.85 229.3C229.617 233.4 229 237.133 228 240.5C227.467 242.2 226.817 243.75 226.05 245.15C223.717 249.317 220.45 251.617 216.25 252.05C211.983 252.45 208.433 252.6 205.6 252.5C201.767 252.4 198.267 251.867 195.1 250.9C187.433 248.567 183.217 243.5 182.45 235.7C181.65 227.167 182.9 219.367 186.2 212.3C188.333 207.667 191.417 204.4 195.45 202.5C198.917 205.367 202.733 206.967 206.9 207.3C210.5 207.6 214.5 206.95 218.9 205.35C220 204.95 220.983 204.833 221.85 205C222.683 205.133 223.517 205.55 224.35 206.25C226.483 208.017 227.983 210.433 228.85 213.5ZM182.95 245.1L183.45 245.4C187.117 250.5 192.667 253.433 200.1 254.2C203.733 254.567 208.05 254.7 213.05 254.6C217.717 254.533 221.517 253.283 224.45 250.85C225.883 252.517 227.067 254.733 228 257.5C229.333 261.4 229.8 266.067 229.4 271.5C228.867 278.633 227.233 284.85 224.5 290.15C221.633 295.55 217.633 298.983 212.5 300.45C210.367 301.117 209.05 301.5 208.55 301.6C201.717 303.133 195.383 303.367 189.55 302.3C184.25 301.333 180.067 298.5 177 293.8C174.833 290.4 173.35 286.133 172.55 281C171.517 273.533 171.583 267.017 172.75 261.45C173.75 256.65 175.517 252.667 178.05 249.5C179.717 247.433 181.35 245.967 182.95 245.1ZM226.55 305.15C228.083 307.25 229.267 309.15 230.1 310.85C233.167 316.917 237.333 323.05 242.6 329.25C244.4 331.35 246.95 334.617 250.25 339.05C250.983 340.017 251.1 341.133 250.6 342.4C249.4 345.267 248.25 348.333 247.15 351.6C246.717 352.8 245.867 353.65 244.6 354.15C233.1 358.65 221.7 358.333 210.4 353.2C198.567 347.833 190.7 338.717 186.8 325.85C184.967 319.817 184.433 314.533 185.2 310C185.333 309.2 185.567 308.233 185.9 307.1C186.267 305.833 186.533 304.883 186.7 304.25C193.033 305.217 198.767 305.383 203.9 304.75C209.767 304.017 215.2 302.233 220.2 299.4C222.433 300.5 224.55 302.417 226.55 305.15ZM198.55 348.4L199.9 349.35C208.4 356.083 218.183 359.417 229.25 359.35C230.65 359.35 231.667 359.817 232.3 360.75C232.467 360.983 233.45 362.117 235.25 364.15C233.783 365.383 231.683 367.167 228.95 369.5C228.583 369.767 227.983 369.8 227.15 369.6C224.283 369.067 221.667 369.017 219.3 369.45C219.033 369.483 218.833 369.517 218.7 369.55C218.467 369.583 218.283 369.65 218.15 369.75C217.417 370.25 217.05 370.667 217.05 371C217.05 371.7 217.583 371.983 218.65 371.85L220.05 371.6C225.583 370.867 230.233 372.267 234 375.8C234.133 375.9 234.35 376.167 234.65 376.6L233.45 378.1C232.65 379 232.083 379.483 231.75 379.55C231.417 379.617 230.7 379.45 229.6 379.05C227.4 378.25 225.683 377.717 224.45 377.45C222.55 377.083 220.767 377.083 219.1 377.45C218.833 377.517 218.25 377.35 217.35 376.95C215.517 376.017 214.133 375.35 213.2 374.95C209.867 373.617 206.7 374.017 203.7 376.15C200.867 378.117 198.417 381.117 196.35 385.15C196.283 385.25 195.967 385.917 195.4 387.15L191.6 386.7C182.8 385.633 175.417 388.25 169.45 394.55C168.617 395.45 167.933 395.883 167.4 395.85C166.867 395.817 166.217 395.3 165.45 394.3C164.75 393.367 164.283 392.45 164.05 391.55C162.283 385.483 162.967 379.967 166.1 375C167.633 372.533 169.533 370.9 171.8 370.1C174.033 369.3 176.533 369.35 179.3 370.25C180.867 370.75 183.217 371.567 186.35 372.7C188.983 373.5 191.333 373.55 193.4 372.85C194.3 372.483 194.867 372.183 195.1 371.95C195.267 371.783 195.383 371.567 195.45 371.3C195.55 370.967 195.567 370.733 195.5 370.6C195.367 370.267 194.917 370.1 194.15 370.1C194.117 370.1 193.75 370.25 193.05 370.55C192.083 370.95 191.017 371.117 189.85 371.05C188.917 371.017 187.75 370.8 186.35 370.4C189.083 367.533 191.5 364.05 193.6 359.95C194.933 357.383 196.583 353.533 198.55 348.4ZM231.1 370.8L237.05 365.55L240.55 367.75L236.4 374.65L231.1 370.8ZM241.55 365.55C238.683 364.183 236.167 362.117 234 359.35L245.2 356.65L241.55 365.55ZM215.45 378.8C212.05 380.867 209.567 383.667 208 387.2C206.7 390.133 205.967 393.767 205.8 398.1L198.45 402.7C197.95 402.367 197.567 401.9 197.3 401.3C197.133 400.967 196.967 400.4 196.8 399.6C195.733 395.367 196.133 391.117 198 386.85C199.633 383.117 201.933 380.167 204.9 378C208.1 375.667 211.617 375.933 215.45 378.8ZM294.7 382.15C295.333 378.883 296.617 376.283 298.55 374.35L306.3 376L304.8 377.65C302.033 380.35 300.45 383.317 300.05 386.55C299.95 387.417 299.55 388.033 298.85 388.4L295.3 390.45C294.233 388.183 294.033 385.417 294.7 382.15ZM284.5 381.05L293.55 372.45L295.95 373.55C293.083 377.583 291.85 382.183 292.25 387.35L284.5 381.05ZM498.8 403.4C498.9 404.267 499.033 405.467 499.2 407C499.367 408.3 499.433 409.367 499.4 410.2C499.233 416.767 497.35 422.583 493.75 427.65C493.283 428.283 492.867 428.767 492.5 429.1C491.133 430.233 489.75 430.183 488.35 428.95C487.417 428.083 486.85 426.633 486.65 424.6C486.417 422.567 486.7 421.05 487.5 420.05C491.5 414.883 494.95 409.717 497.85 404.55L498.8 403.4ZM470.4 437.1C470.267 438.167 470.183 438.767 470.15 438.9C467.083 446.133 462.15 451.7 455.35 455.6C454.817 455.933 454.233 456.183 453.6 456.35C451.433 457.05 449.733 456.883 448.5 455.85C447.267 454.817 446.733 453.1 446.9 450.7C455.133 447.4 462.967 442.867 470.4 437.1ZM423.35 458C418.183 463.567 412.35 466.55 405.85 466.95C403.983 467.05 402.817 466.767 402.35 466.1C401.85 465.367 402 464.033 402.8 462.1C403.1 461.3 403.667 460.817 404.5 460.65L423.4 457.5L423.35 458ZM371.85 436L366.2 439.95C358.667 445.317 352.467 451.267 347.6 457.8C345.533 460.533 344.167 462.967 343.5 465.1C342.733 467.6 342.867 469.85 343.9 471.85C345.3 474.55 347.433 475.833 350.3 475.7C353.233 475.467 355.767 474.8 357.9 473.7C364.667 470.167 373.083 467.183 383.15 464.75C384.217 464.45 385.183 464.767 386.05 465.7C388.05 467.933 389.167 470.5 389.4 473.4C389.633 476.333 388.933 479.1 387.3 481.7C385.067 485.233 381.733 487.85 377.3 489.55C373.567 490.983 368.867 491.817 363.2 492.05C352.667 492.483 343.167 491.133 334.7 488C334.1 487.8 332.917 487.317 331.15 486.55C329.25 485.683 328.3 484.167 328.3 482C328.267 475.867 328.833 468.45 330 459.75C330.833 453.383 332.167 448.15 334 444.05C336.6 438.283 340.833 434.1 346.7 431.5C352.6 428.9 358.533 428.567 364.5 430.5C367.867 431.567 370.317 433.4 371.85 436ZM137.8 140.7L137.85 141.85C137.983 143.05 138.383 143.667 139.05 143.7C139.517 143.7 140.05 143.317 140.65 142.55C142.017 140.717 143.617 139.417 145.45 138.65C147.25 137.917 150 136.867 153.7 135.5C156.067 134.533 157.633 133.8 158.4 133.3C159.867 132.333 160.667 131.15 160.8 129.75C160.933 128.383 160.4 127.05 159.2 125.75C157.067 123.417 154.217 122.667 150.65 123.5C147.083 124.367 144.067 126.433 141.6 129.7C139.167 132.967 137.9 136.633 137.8 140.7ZM140.55 139.15C140.417 138.683 140.367 138.4 140.4 138.3C141.533 132.2 144.717 128.133 149.95 126.1C151.15 125.667 152.7 125.517 154.6 125.65C155.433 125.75 156.333 126.217 157.3 127.05C158.2 127.817 158.6 128.65 158.5 129.55C158.433 130.417 157.883 131.133 156.85 131.7C155.783 132.3 154.317 132.917 152.45 133.55C149.05 134.75 147 135.5 146.3 135.8C144 136.767 142.083 137.883 140.55 139.15ZM149 115.05C152.667 114.45 155.65 115.4 157.95 117.9C158.317 118.267 158.55 118.467 158.65 118.5C159.183 118.667 159.55 118.667 159.75 118.5C160.117 118.033 160.25 117.633 160.15 117.3C159.95 116.8 159.567 116.3 159 115.8C156.767 113.633 154 112.583 150.7 112.65C147 112.65 143.317 114.133 139.65 117.1C136.017 120.067 133.817 123.35 133.05 126.95C132.883 127.783 132.833 129.05 132.9 130.75C132.933 130.917 133.067 131.117 133.3 131.35C133.533 131.617 133.683 131.717 133.75 131.65C134.35 131.517 134.717 131.2 134.85 130.7C134.95 130.467 135 130.117 135 129.65C135 129.083 135.017 128.733 135.05 128.6C135.517 125.467 137.133 122.533 139.9 119.8C142.7 117.1 145.733 115.517 149 115.05ZM225.25 72.7C225.017 73.0667 224.85 73.3 224.75 73.4C223.517 74.8 221.95 75.6167 220.05 75.85C218.15 76.0833 216.467 75.6667 215 74.6C211.467 72.0667 207.517 71.4 203.15 72.6C196.75 74.4 192.583 78.75 190.65 85.65C188.183 94.4833 189.033 102.95 193.2 111.05L193.5 111.65C193.967 112.417 194.35 112.833 194.65 112.9C194.983 113 195.483 112.817 196.15 112.35L196.9 111.75C201.333 108.15 206.033 105.883 211 104.95C212.167 104.717 216.35 104.083 223.55 103.05L225 102.9C225.567 102.833 226.033 102.733 226.4 102.6C226.833 102.467 227.117 102.083 227.25 101.45C227.25 101.35 227.133 101.2 226.9 101C226.633 100.8 226.417 100.683 226.25 100.65C225.983 100.617 225.15 100.6 223.75 100.6C223.517 96.6 223.3 93.6 223.1 91.6C222.733 88.1333 222.05 85.1667 221.05 82.7L223.75 82.95C225.75 83.05 227.75 82.6 229.75 81.6C229.883 81.5333 230.017 81.3333 230.15 81C230.25 80.6667 230.333 80.4167 230.4 80.25C230.1 80.0833 229.867 79.9667 229.7 79.9C229.433 79.7333 229.2 79.65 229 79.65C228.833 79.65 228.583 79.7333 228.25 79.9C227.883 80.0667 227.617 80.15 227.45 80.15C225.183 80.45 223.6 80.55 222.7 80.45C221.067 80.3167 219.85 79.5833 219.05 78.25C221.783 78.0167 223.883 77.2333 225.35 75.9C225.917 75.4 226.633 74.55 227.5 73.35C227.767 73.05 227.867 72.75 227.8 72.45C227.733 72.1167 227.533 71.8833 227.2 71.75C226.833 71.5833 226.367 71.7 225.8 72.1C225.633 72.2 225.45 72.4 225.25 72.7ZM191.5 96.05C191.267 91.25 192.267 86.6667 194.5 82.3C197.133 77.0333 201.517 74.3667 207.65 74.3C209.017 74.2667 210.533 74.7 212.2 75.6L210.25 76.55C204.65 79.4167 201.583 83.9667 201.05 90.2C200.65 94.4333 201.15 98.6833 202.55 102.95L203.05 104.55C203.083 104.65 203.067 104.817 203 105.05L195.05 109.95C192.883 105.017 191.7 100.383 191.5 96.05ZM209.9 82.35C210.9 82.3167 211.75 82.6333 212.45 83.3C213.15 83.9667 213.5 84.7833 213.5 85.75C213.533 86.65 213.233 87.4333 212.6 88.1C211.967 88.8 211.183 89.1667 210.25 89.2C209.217 89.2667 208.383 88.9833 207.75 88.35C207.083 87.7167 206.733 86.8833 206.7 85.85C206.7 84.85 206.983 84.0333 207.55 83.4C208.15 82.7667 208.933 82.4167 209.9 82.35ZM195.3 63.35C195.467 63.2833 195.767 63.05 196.2 62.65C198.3 60.7833 199.583 59.7167 200.05 59.45C203.383 57.35 207.267 56.3333 211.7 56.4C216.3 56.4 220.317 57.3167 223.75 59.15C231.15 62.9833 235.183 68.7167 235.85 76.35C236.15 79.8833 235.183 82.45 232.95 84.05C232.65 84.1833 232.483 84.3333 232.45 84.5C232.283 85.2 232.25 85.6333 232.35 85.8C232.45 85.9333 232.633 86.05 232.9 86.15C233.167 86.2167 233.4 86.2167 233.6 86.15C233.867 86.0833 234.333 85.8 235 85.3C236.833 83.6667 237.85 81.4833 238.05 78.75C238.35 73.6833 237.067 69.1667 234.2 65.2C229.467 58.6 222.667 54.9333 213.8 54.2C208.267 53.7333 203.367 54.8 199.1 57.4C198.4 57.8333 197.617 58.4333 196.75 59.2C195.75 60.1333 195 60.8167 194.5 61.25C193.7 61.9167 193.6 62.5333 194.2 63.1C194.567 63.4333 194.933 63.5167 195.3 63.35Z" fill="black"/>
    </g>
    <defs>
        <clipPath id="clip0">
            <rect width="612" height="502" fill="white"/>
        </clipPath>
    </defs>
</svg>
