<svg xmlns="http://www.w3.org/2000/svg" width="182" height="200" fill="none"><mask id="a" fill="#fff"><path d="M140.612 27.694c-.5-.139-.847-.222-1.042-.25-3.683-.584-7.131-.904-10.341-.96-5.949-.124-11.996.557-18.139 2.044-7.645 1.835-15.137 4.754-22.476 8.757l-1.48.792c-1.446-2.877-3.357-4.85-5.734-5.921l-.855-6.589 1.293-.146c.903-.055 2.266-.132 4.086-.229a6.143 6.143 0 0 0 1.564-.292c.57-.18 1.015-.486 1.335-.917.333-.445.486-.966.458-1.564-.028-.764-.146-1.445-.354-2.043-.71-2.016-2.169-3.593-4.379-4.733-3.072-1.612-6.435-2.175-10.09-1.689-.529.07-1.001-.083-1.418-.459a838.46 838.46 0 0 1-3.316-2.73l-.646-.501a5.7 5.7 0 0 1 .876-1.251c.097-.111.438-.473 1.021-1.084.904-.904 1.536-1.668 1.898-2.294.556-.959.68-1.89.375-2.794-.292-.89-.945-1.57-1.96-2.043-.792-.375-1.46-.577-2.001-.604a158.394 158.394 0 0 0-3.003-.167 29.69 29.69 0 0 0-2.981.02c-4.629.306-8.458 1.898-11.488 4.775-.236.223-.598.348-1.084.375-2.71.07-4.407.133-5.088.188-4.85.473-9.201 1.849-13.051 4.128-2.544 1.502-4.414 3.093-5.609 4.775-.236.347-.5.604-.792.771-.278.153-.626.264-1.043.334-2.377.347-4.26 1.55-5.65 3.607-.834 1.265-1.167 2.627-1 4.086l.041.626c-.598-.403-1.05-1.057-1.355-1.96-.014-.07-.09-.14-.23-.209a3.03 3.03 0 0 1-.354-.166c-.028.07-.09.18-.188.333-.07.125-.097.23-.083.313.209 1 .716 1.8 1.522 2.398.264.194.598.41 1 .646-.708.43-1.32.612-1.834.542-.514-.056-1.015-.354-1.501-.897-.042-.083-.084-.131-.125-.145-.32-.042-.494-.05-.521-.021-.056.027-.105.104-.146.23-.042.11-.049.194-.021.25.347.555.632.917.855 1.083.556.417 1.258.556 2.105.417l1.085-.187c-.695 1.126-1.161 2.384-1.397 3.774-.167 1-.23 2.286-.188 3.857.014.194.028.493.042.896.07.417.034.758-.105 1.022-.152.264-.43.486-.834.667a7.869 7.869 0 0 0-3.44 2.836c-.333.514-.806.715-1.417.604l-2.565-.5c-1.028-.195-1.925-.132-2.69.187-.764.334-1.431.946-2.001 1.835-1.168 1.793-1.515 3.74-1.043 5.838.084.348.09.653.021.917-.055.25-.201.515-.438.793C.664 51.567-.218 54.319.046 57.32c.125 1.446.604 2.662 1.438 3.649.848 1 1.946 1.66 3.294 1.98.292.084.668.14 1.126.167.264.028.647.063 1.147.104l.792.063-.104.48c-.361 1.5-.201 2.856.48 4.065.68 1.223 1.751 2.071 3.21 2.544a8.541 8.541 0 0 0 2.252.459c2.933.18 5.99.813 9.174 1.897 1.168.375 2.356.709 3.565 1 3.892.932 7.228.098 10.008-2.501 1.084-.987 1.779-1.606 2.085-1.856l4.983-4.045c.07-.055.361-.23.875-.521-1.125 2.419-1.779 4.51-1.96 6.276-.25 2.265.174 4.406 1.273 6.421-2.072 1.196-3.6 3.08-4.587 5.65-.473 1.251-.834 2.912-1.085 4.983-.222 1.654-.201 3.177.063 4.567l.605 2.439-.25.188c-1.877 1.32-3.184 3.127-3.92 5.42-1.46 4.532-1.37 9.181.27 13.949.876 2.571 2.482 4.392 4.817 5.462.056.028.139.098.25.209-.598 1.501-.869 3.106-.813 4.816.028 1.418.299 3.016.813 4.795.89 3.128 2.572 5.928 5.046 8.403-.987 2.529-1.696 4.225-2.127 5.087-.917 1.821-1.987 3.301-3.21 4.441-1.099-.389-1.78-.612-2.044-.667-.903-.195-1.592-.271-2.064-.23-.626.042-1.133-.055-1.522-.292-.18-.125-.48-.271-.897-.437-1.57-.737-2.995-.549-4.274.563-2.21 1.918-3.294 4.294-3.252 7.13.014.737.208 1.578.584 2.523.18.486.451.771.813.855.361.083.757-.028 1.188-.334.39-.306.688-.521.897-.646.083-.056.403-.23.959-.522.208.848.312 1.279.312 1.293.278.973.716 1.71 1.314 2.21.403.362.792.535 1.167.521.376-.014.758-.208 1.147-.583l.688-.73c2.474-2.363 5.602-3.141 9.383-2.335l-.146 1.251c-.195 1.042-.105 2.231.27 3.565.14.459.327.841.563 1.147.46.611 1.015.702 1.668.271a26.2 26.2 0 0 1 1.126-.813c.028-.014.445-.244 1.251-.688l.209.896c.292 1.237.75 2.182 1.376 2.836.514.514 1 .778 1.46.792.458 0 .944-.257 1.459-.772l.563-.583c1.598-1.599 3.42-2.565 5.462-2.898 1.752-.306 3.767-.195 6.047.333l4.587 1.043c2.14.5 3.982.194 5.525-.918a5.87 5.87 0 0 1 1.626-.771c2.057-.584 3.94-.223 5.65 1.084.917.723 1.626 1.223 2.127 1.501.472.25.806.32 1 .209.195-.125.3-.452.313-.98.111-2.085 0-3.718-.333-4.9l2.189-1.23.855 2.335c.278.528.563.813.854.855.292.042.647-.146 1.064-.563.236-.236.41-.403.521-.5.209-.181.41-.292.605-.334.07.82.166 2.002.292 3.544.166 1.182.778 1.474 1.834.876l1.48-.938.25.709c.529 1.292.856 2.057.98 2.293.181.334.41.515.689.542.25.014.521-.104.813-.354l.354-.355c.71-.764 1.64-1.237 2.794-1.417a7.209 7.209 0 0 1 3.169.166c1.14.32 2.829.828 5.067 1.523 2.529.778 4.83.625 6.901-.459.611-.306 1.042-.487 1.293-.542 1.779-.389 2.918-.605 3.419-.647 1.946-.152 3.892.306 5.838 1.376.417.223.702.292.854.209.153-.083.244-.354.272-.813.125-1.835-.098-3.538-.668-5.108-.597-1.696-1.522-2.878-2.773-3.545a15.751 15.751 0 0 0-.458-.333l2.147-3.336 6.005.646c.125.014.542.056 1.251.125.5.056.91.111 1.23.167 2.391.389 4.163 1.661 5.316 3.815.278.515.376 1.057.292 1.627-.236 1.626-.792 3.079-1.668 4.357-1.278 1.877-3.162 3.545-5.65 5.004-.889.542-2.057 1.182-3.502 1.918-1.655.848-5.331 2.704-11.03 5.567l-.187-.292c-.904-1.126-2.148-1.918-3.733-2.377-2.362-.695-4.753-.576-7.172.355-2.418.917-4.267 2.425-5.546 4.524-.82 1.362-1.445 2.94-1.876 4.733-.431 1.876-.758 3.968-.98 6.276-.167 1.64-.299 3.746-.396 6.317-.028.834.125 1.487.459 1.96.305.459.854.855 1.647 1.188 5.337 2.238 11.092 2.843 17.263 1.814 2.46-.417 4.503-1.466 6.13-3.148 1.167-1.223 1.807-2.599 1.918-4.128.111-1.543-.32-3.003-1.293-4.379l-.396-.646c.612-.111 1.494-.285 2.648-.521a24.49 24.49 0 0 1 2.648-.376l-.104.584c-.404 1.696.236 2.551 1.918 2.565a7.866 7.866 0 0 0 2.189-.23c2.585-.583 4.844-2.029 6.776-4.336.417-.473.806-.758 1.168-.855.931-.236 2.918-.806 5.962-1.71.084-.028.216-.041.397-.041l.229.896c.208.681.591 1.209 1.147 1.585.57.389 1.202.535 1.897.437.723-.097 1.348-.305 1.876-.625 1.265-.806 2.245-1.55 2.94-2.231 2.21-2.071 3.552-4.364 4.024-6.88.056-.237.25-.528.584-.876.375-.389 1.536-1.536 3.482-3.44l.521-.48c.056.306.125.695.208 1.168.278 1.14.918 1.835 1.919 2.085.931.25 1.758-.111 2.481-1.084.18-.223.368-.501.563-.834 2.001-3.364 2.55-6.887 1.647-10.571a2.48 2.48 0 0 1 .167-1.543c.083-.194.813-1.98 2.189-5.358l.333-.73.751.584c.889.625 1.716.855 2.481.688.778-.167 1.439-.716 1.981-1.647.861-1.487 1.126-3.169.792-5.046-.57-3.377-1.751-6.317-3.544-8.819-.265-.389-.404-.785-.417-1.188-.056-.82-.167-2.051-.334-3.691l-.209-1.897c.64.125 1.078.202 1.314.229 1.334.167 2.391-.16 3.169-.98.765-.834 1.022-1.911.772-3.231-.195-1.001-.64-1.96-1.335-2.877-1.487-1.933-3.475-3.746-5.963-5.442a6.34 6.34 0 0 0-1.605-.792c-.431-.139-.786-.459-1.064-.96l-2.918-5.233 1.063.063c1.39.042 2.585-.195 3.586-.709 1.557-.792 1.981-1.988 1.272-3.586l-.334-.605c-1.251-2.126-3.12-3.725-5.608-4.795-2.725-1.168-5.498-1.571-8.319-1.209-.667.097-1.265-.091-1.793-.563-.431-.39-1.494-1.251-3.19-2.586-.32-.25-.918-.68-1.793-1.292.375-.765 1.028-1.536 1.96-2.315.305-.264.785-.625 1.438-1.084.389-.32.633-.66.73-1.021.097-.376.049-.807-.146-1.293-.334-.848-.931-1.592-1.793-2.231-1.571-1.14-3.475-1.744-5.713-1.814-3.252-.097-6.38.695-9.382 2.377a2.735 2.735 0 0 1-1.168.375c-.347.028-.736-.028-1.167-.167-.362-.125-1.96-.611-4.796-1.459.501-.695 1.182-1.334 2.044-1.918.292-.195.736-.48 1.334-.855.751-.542 1.126-1.16 1.126-1.856 0-.695-.368-1.313-1.105-1.855-.431-.334-.841-.556-1.23-.667-1.196-.334-2.106-.522-2.731-.563-2.155-.195-4.476.292-6.964 1.46-1.529.736-3.197 1.827-5.004 3.273-.403.32-.827.444-1.272.375l-13.072-1.96c3.071-1.71 6.018-2.766 8.84-3.17 3.141-.444 6.234-.11 9.278 1.002l.125-.25.125-.376c1.459-6.769 5.435-11.738 11.926-14.907 3.28-1.613 6.894-2.384 10.841-2.314l1.043-.021v-.334c-.709-3.058-.57-6.081.417-9.07 1.737-5.295 4.434-10.09 8.089-14.386 1.682-1.987 3.607-3.558 5.776-4.712l2.502-1.188c-5.129-1.668-10.05-2.724-14.762-3.17-4.614-.416-9.722-.402-15.324.043 1.362-1.724 3.232-3.218 5.608-4.483Zm-5.4.167c.251.028 1.05.139 2.398.333a3.03 3.03 0 0 1-.167.355c-1.195.875-2.376 2.001-3.544 3.377-.209.265-.48.417-.813.46-8.368.958-17.125 3.3-26.27 7.025-5.546 2.266-10.446 4.532-14.7 6.797-.639.348-1.396.827-2.272 1.439-.973.695-1.71 1.21-2.21 1.543-.472.333-.862.604-1.168.813.362 3.794.57 7.089.626 9.883.07 3.558-.09 6.852-.48 9.882-.069.653-.187 1.46-.354 2.419-.083.542-.222 1.369-.417 2.48l-2.648-.27-1.188-7.631c.695-.14 1.153-.243 1.376-.313 1.695-.445 2.48-1.515 2.356-3.21a6.465 6.465 0 0 0-.5-2.232c-1.057-2.432-2.176-4.315-3.357-5.65a15.27 15.27 0 0 0-1.168-1.167c-.556-.515-.987-.91-1.293-1.189.404-.375 1.001-.945 1.793-1.71a23.3 23.3 0 0 1 1.877-1.647c8.715-6.838 16.874-12.037 24.477-15.595a69.792 69.792 0 0 1 18.869-5.754c3.002-.473 5.928-.619 8.777-.438Zm7.694 4.941 4.649.063c.014 0 .334.041.959.125-7.978.68-15.407 2.244-22.288 4.69-2.432.849-5.414 2.093-8.944 3.733-5.685 2.655-10.828 5.337-15.429 8.048-2.696 1.584-5.087 3.336-7.172 5.254l-.48.375c.14.75.348 1.849.626 3.294a78.1 78.1 0 0 1 .542 3.211c.445 3.267.744 6.019.897 8.257.347 4.795.382 10.66.104 17.596-.042.918-.063 2.287-.063 4.108-.027.82-.083 1.515-.166 2.085-.25 1.556-.855 2.828-1.814 3.815-.945.987-2.196 1.647-3.753 1.98-1.432.32-2.982.293-4.65-.083-1.39-.32-2.46-.959-3.21-1.918-.751-.945-1.147-2.154-1.189-3.627-.041-1.53.195-3.107.71-4.733.972-3.142 1.813-5.671 2.522-7.59 1.862-5.142 2.926-10.653 3.19-16.533.18-3.92.041-8.312-.417-13.177-.042-.445 0-.827.125-1.147.139-.32.382-.618.73-.896a30.825 30.825 0 0 1 5.254-3.273c8.089-4.073 15.546-7.208 22.371-9.404 7.562-2.418 14.977-3.808 22.247-4.17a77.29 77.29 0 0 1 4.649-.083Zm-2.627 2.231c4.906-.876 9.486-1.202 13.74-.98 3.252.18 5.775.57 7.568 1.168l.625.25-.291.292c-3.017 1.71-5.72 4.288-8.111 7.735-2.265 3.28-4.072 6.65-5.421 10.112-1.292 3.336-1.723 6.595-1.292 9.778l-.98-.938c-3.322-3.364-6.755-6.04-10.3-8.027-4.253-2.363-8.771-3.774-13.552-4.233-4.573-.416-9.438-.034-14.595 1.147-1.334.306-2.946.723-4.837 1.251a273.925 273.925 0 0 1-4.795 1.376l-1.126.313-.104-.167c.083-.055.285-.222.604-.5.25-.195.46-.348.626-.459a249.35 249.35 0 0 0 3.086-2.022 59.655 59.655 0 0 1 3.148-1.96c5.449-3.1 10.946-5.88 16.492-8.34 5.782-2.557 12.287-4.49 19.515-5.796Zm-16.409-7.297-3.356.792c-7.59 1.82-15.04 4.997-22.351 9.528a177.327 177.327 0 0 0-4.337 2.794l-5.358 3.544a8.772 8.772 0 0 0-.125-2.814c-.153-.723-.424-1.606-.813-2.648 12.079-6.77 24.171-10.564 36.278-11.384l.062.188Zm-19.16 25.248c2.863-.75 5.546-1.285 8.048-1.605 4.044-.514 7.77-.535 11.175-.063 4.893.668 9.618 2.544 14.178 5.63 2.668 1.82 5.233 3.989 7.693 6.505l.5.584-1.584.125c-3.85.32-7.353 1.41-10.508 3.273-5.129 3.03-8.542 7.332-10.237 12.906l-.271.896c-.278-.43-.445-.702-.501-.813-2.96-5.865-6.818-10.925-11.571-15.178-3.114-2.78-6.971-5.449-11.572-8.006l-3.377-1.877c3.127-1.014 5.803-1.807 8.027-2.377Zm-3.128 6.234c4.976 2.891 9.098 6.088 12.364 9.591a50.414 50.414 0 0 1 8.361 11.905l.187.48c-10.063-1.53-18.451 1.841-25.165 10.112l-.042-.98c.112-4.796.181-8.389.209-10.78.042-5.17-.174-9.764-.646-13.78a86.634 86.634 0 0 0-.668-4.65c-.361-2.057-.625-3.6-.792-4.629l-.083-.5c.375.083.597.146.667.187 2.974 1.585 4.844 2.6 5.608 3.044Zm52.562 31.504c.611.361 1.202.931 1.772 1.71.32.416.452.764.396 1.042-.055.278-.313.563-.771.855-1.265.848-2.384 1.967-3.357 3.357-3.239-2.155-7.228-4.115-11.968-5.88 2.002-1.015 3.851-1.703 5.546-2.064 1.946-.417 3.85-.438 5.713-.063a7.982 7.982 0 0 1 2.669 1.043Zm-19.515-7.485c.556.208 1.014.466 1.376.771.764.64.764 1.286 0 1.94-.167.138-.445.319-.834.541-1.182.681-2.12 1.474-2.815 2.377-.264.334-.598.466-1.001.396l-9.611-1.876a3.885 3.885 0 0 0-.355-.146c.028-.056.056-.125.084-.209 2.807-2.21 5.483-3.565 8.027-4.065 1.862-.375 3.572-.285 5.129.27Zm25.373 20.307c1.404-.041 2.19-.055 2.356-.041 2.266.111 4.309.632 6.13 1.563 1.779.904 3.155 2.092 4.128 3.565.306.445.563 1.015.772 1.71.208.612-.014 1.112-.667 1.501-1.043.584-2.197.855-3.461.813-.89-.027-1.46-.104-1.71-.229-.236-.125-.619-.549-1.147-1.272a55.005 55.005 0 0 0-5.671-6.567c-.361-.362-.625-.64-.792-.834l.062-.209Zm-25.373-12.489c8.576 2.336 15.776 5.908 21.6 10.717 9.604 7.937 15.678 17.722 18.222 29.356 1.571 7.283 1.244 14.56-.98 21.829-2.168 7.047-5.706 13.129-10.612 18.244-5.81 6.06-12.593 9.952-20.349 11.675-1.668.376-3.628.772-5.88 1.189-.097.014-2.064.368-5.9 1.063-3.489.612-5.734 1.022-6.735 1.23-2.515.528-4.718 1.119-6.609 1.772-.778.264-1.751.647-2.919 1.147a220.514 220.514 0 0 1-2.919 1.189c-.917.333-1.612.562-2.085.688-.82.194-1.494.062-2.022-.397-.514-.472-.716-1.132-.605-1.98.084-.64.299-1.265.647-1.877.806-1.431 2.036-3.002 3.69-4.712a35.8 35.8 0 0 1 8.319-6.359c1.473-.82 4.837-2.578 10.091-5.275 1.501-.764 2.634-1.369 3.399-1.814 1.223-.695 2.293-1.403 3.21-2.126 1.571-1.251 2.801-2.599 3.691-4.045 1.96-3.169 2.154-6.38.584-9.632-1.529-3.225-3.489-5.811-5.88-7.756l-.459-.438a51.561 51.561 0 0 0 2.148-1.543c1.223-.918 2.064-1.932 2.523-3.044.486-1.237.486-2.606 0-4.108-.348-1.056-.675-1.862-.98-2.418-1.376-2.544-2.69-5.421-3.941-8.632-.917-2.349-1.974-5.33-3.169-8.944l-.334-.938c-.139-.459-.368-.626-.688-.501-.18.07-.271.174-.271.313-.014.097.014.243.084.438l.813 2.481c2.182 6.561 4.357 11.856 6.526 15.887.486.918.882 1.904 1.188 2.961.542 1.918.104 3.537-1.313 4.858-.834.75-1.78 1.48-2.836 2.189-2.627 1.723-4.733 3.454-6.317 5.191a28.414 28.414 0 0 0-3.753 5.171l-.501.813-3.085.021c-.292 0-.487.014-.584.042-.209.069-.306.229-.292.479.014.251.132.39.355.417.125.014.326.007.604-.021l1.189-.02c.472-.014.868-.007 1.188.02 1.446.084 2.564.821 3.357 2.21.834 1.516 1.251 3.385 1.251 5.609l-.772-.25c-3.252-1.404-6.456-1.439-9.611-.104l-1.376.604c-1.418.667-2.885.82-4.4.459a45.64 45.64 0 0 1-2.022-.542l-2.002-.605a82.807 82.807 0 0 0-1.542-.459 14.24 14.24 0 0 0-1.564-.354c-1.321-.208-2.474-.181-3.461.083-1.168.306-2.182.953-3.044 1.939a67.729 67.729 0 0 1-.646-1.376c-.848-2.293-.438-4.253 1.23-5.879a19.04 19.04 0 0 1 2.356-1.856c.959-.625 1.98-.785 3.064-.479 1.557.458 2.676.771 3.357.938 1.46.361 2.919.438 4.379.229.305-.028.5-.069.583-.125a.752.752 0 0 0 .355-.479c.014-.042-.028-.105-.125-.188a.76.76 0 0 0-.271-.146c-.111 0-.48.014-1.105.042-1.738.097-3.176-.049-4.316-.438.333-4.754 1.925-9.035 4.774-12.843l4.629.354c.32.028.813.056 1.48.083.25 0 .424-.013.522-.041.152-.056.236-.181.25-.376.014-.236-.063-.389-.23-.458-.111-.056-.292-.084-.542-.084l-1.001-.02c-2.64-.084-5.42-.41-8.339-.98-2.099-.417-3.976-1.439-5.63-3.065-4.85-4.81-7.026-10.606-6.525-17.389a20.324 20.324 0 0 1 2.564-8.444c.306-.528.466-.82.48-.875.055-.209-.014-.397-.209-.563-.042-.042-.118-.049-.23-.021a.698.698 0 0 0-.27.125c-.028.028-.16.215-.397.563-2.752 4.837-3.579 10.056-2.48 15.658a20.45 20.45 0 0 0 3.127 7.631l.208.333.063.292-3.524.959.188-.75c.403-1.501.368-3.017-.104-4.545a23.613 23.613 0 0 0-1.126-3.086l-6.088-13.281c-.14-.334-.264-.57-.376-.709a.697.697 0 0 0-.25-.146c-.125-.042-.208-.049-.25-.021a.74.74 0 0 0-.188.25c-.069.111-.097.209-.083.292.042.209.167.514.375.917l6.255 13.636c.695 1.529 1.077 2.933 1.147 4.212.097 1.487-.222 2.759-.96 3.815l-2.147 2.898c-1.529 2.043-3.829 5.108-6.9 9.195-.487.667-1.113 1.362-1.877 2.085-.292.278-.994.889-2.106 1.834a.857.857 0 0 1-.563.209 13.32 13.32 0 0 1-.563-.104c-1.154-.251-2.377-.257-3.67-.021-.263.028-.423.069-.479.125-.25.194-.375.354-.375.479.014.306.208.431.584.376l.896-.146c1.96-.32 3.767.062 5.42 1.146 1.655 1.085 2.704 2.586 3.15 4.504a9.534 9.534 0 0 1 .103 3.92l-1.25-.855c-.57-.375-1.001-.66-1.293-.855-.514-.334-.96-.577-1.335-.73-1.71-.709-3.523-.632-5.441.23-.431.208-.667.333-.71.375a5.092 5.092 0 0 1-2.605 1.084c-.82.111-1.759.035-2.815-.229a121.209 121.209 0 0 0-5.463-1.21c-3.488-.681-6.442-.243-8.86 1.314-.612.389-1.509 1.133-2.69 2.231-.403.361-.716.542-.938.542-.25 0-.529-.209-.834-.626-.459-.611-.765-1.195-.918-1.751-.653-2.78-.312-5.254 1.022-7.422.64-1.043 1.46-1.786 2.46-2.231 1.154-.528 2.405-.556 3.753-.084.612.209 1.522.529 2.731.96.57.194 1.216.347 1.94.458.166.028.382.042.646.042.139 0 .368-.007.688-.021l-.146-.813-2.523-.355c.125-.25.215-.41.271-.479 1.682-1.765 3.086-4.087 4.212-6.964.347-.862 2.043-5.282 5.087-13.26l.125-.375a.54.54 0 0 0 0-.417.391.391 0 0 0-.292-.209c-.083-.014-.188.014-.313.084-.125.069-.201.139-.229.208l-1.355 3.399-.542-.668a250.91 250.91 0 0 0-3.399-4.211c-1.682-2.057-2.94-3.892-3.773-5.504-.279-.543-.723-1.328-1.335-2.356-1.042-1.78-2.21-3.072-3.503-3.878l.042-.251c1.487-1.668 2.572-3.891 3.253-6.671.75-2.947.93-5.623.542-8.027a12.108 12.108 0 0 0-2.106-5.275c.695-1.335 1.181-2.336 1.46-3.003.555-1.376.854-2.94.896-4.69.083-2.294.07-4.094-.042-5.4-.222-2.864-1.313-4.914-3.273-6.151l.521-.396c1.932-1.39 2.981-3.274 3.148-5.65.32-4.81-1.119-8.897-4.316-12.26l-.291-.355.604-.5c3.586-2.627 5.748-6.171 6.484-10.633.39-2.35-.097-4.33-1.459-5.942-.25-.306-.452-.487-.605-.542-.153-.07-.292-.028-.417.125-.167.208-.194.403-.083.584.07.097.202.236.396.416 1.251 1.502 1.626 3.427 1.126 5.776-1.182 5.587-4.462 9.403-9.841 11.446a65.989 65.989 0 0 1-2.71 1.022c-3.142 1.084-6.11 2.835-8.903 5.254-.653.556-1.62 1.424-2.898 2.606-.89.778-1.55 1.334-1.98 1.668-2.336 1.82-4.95 2.404-7.84 1.751a60.067 60.067 0 0 1-4.983-1.418 33.02 33.02 0 0 0-7.631-1.522c-1.265-.11-2.398-.36-3.399-.75-1.028-.375-1.786-1.112-2.272-2.21-.487-1.07-.556-2.127-.209-3.17.167-.541.522-.82 1.064-.833a53.315 53.315 0 0 0 2.48-.209c.974-.041 1.8.035 2.482.23 1.098.305 2.536.827 4.316 1.563.486.195 1.153.5 2.001.918.918.445 1.578.75 1.98.917 5.046 2.099 9.765 1.501 14.158-1.793.32-.236 1.383-1.098 3.19-2.585l5.129-4.15a34.73 34.73 0 0 0 1.71-1.375c1.598-1.335 2.515-2.982 2.751-4.942l.209-1.355c.64.542 1.09.945 1.355 1.21.139.138.32.375.542.708.25.334.507.396.772.188.194-.153.194-.39 0-.709-.473-.89-1.21-1.605-2.21-2.148-1.001-.542-1.988-.764-2.961-.667-.348.042-.55.07-.605.084-.208.083-.306.243-.292.48.014.236.125.374.334.416.125.014.327.007.605-.02h1.376c.139 2.029-.334 3.676-1.418 4.94a12.992 12.992 0 0 1-2.127 1.96c-1.751 1.265-3.773 2.899-6.067 4.9a45.056 45.056 0 0 1-3.857 3.002c-3.572 2.405-7.485 2.794-11.738 1.168a33.689 33.689 0 0 1-2.064-.897 763.07 763.07 0 0 1-2.044-.958c-1.584-.695-2.787-1.189-3.607-1.48-1.278-.46-2.69-.62-4.232-.48-2.46.18-3.822.278-4.087.291-1.07.028-2.001-.041-2.793-.208-1.89-.39-3.149-1.543-3.774-3.461-.5-1.557-.48-3.232.062-5.025.487-1.57 1.307-3.009 2.46-4.316l.605-.688-.25-.917a6.328 6.328 0 0 1-.188-.917c-.305-1.835.119-3.53 1.272-5.088.723-.973 1.682-1.397 2.878-1.271.542.055 1.16.166 1.855.333 1.251.278 2.273.34 3.065.188.167-.028.39-.035.667-.021.5.014.779.02.834.02l-.938.564c-1.682 1-2.919 2.23-3.711 3.69l-.313.584c-.07.236.007.417.23.542.25.139.444.118.583-.063.14-.277.236-.472.292-.583 1.306-2.252 3.454-3.767 6.442-4.545.376-.098 1.342-.278 2.898-.543.376-.653.626-1.063.751-1.23 2.905-4.156 6.825-6.255 11.76-6.296.083 0 .2.007.354.02.139 0 .25-.013.333-.041a.916.916 0 0 0 .292-.188l.271-.25c-.306-.278-.5-.438-.584-.48-.027-.013-.187-.02-.48-.02l-4.586.584c.125-.5.201-.862.23-1.085.097-.64.166-1.119.208-1.438a8.025 8.025 0 0 0 .104-1.439c-.014-1.849-.716-3.245-2.106-4.19-1.39-.946-2.96-1.113-4.712-.501-.5.167-.882.271-1.146.313-.39.07-.66.055-.814-.042-.152-.097-.257-.334-.312-.709-.14-.987-.132-1.772.02-2.356.64-2.418 2.336-3.996 5.088-4.733 2.488-.653 4.635-.076 6.442 1.73.181.181.306.286.376.314.07.027.153.041.25.041s.16-.02.187-.062c.167-.195.216-.362.146-.5-.07-.167-.229-.376-.48-.626a6.433 6.433 0 0 0-1.625-1.189c-.598-.292-1.432-.59-2.502-.896.458-.64.715-.987.771-1.043 1.696-1.946 4.03-3.627 7.005-5.045 4.532-2.155 9.619-3.162 15.262-3.023 4.67.097 8.542.702 11.613 1.814 8.73 3.155 14.484 8.937 17.264 17.346.89 2.697 1.167 5.928.834 9.695-.181 1.96-.563 4.212-1.147 6.755a308.123 308.123 0 0 1-1.668 6.651c-.904 3.726-1.494 6.387-1.772 7.986-.779 4.573-.57 8.798.625 12.676 1.265 4.045 3.635 7.298 7.11 9.758l1.022.75-1.69 5.067a111.26 111.26 0 0 0-1.292 3.94c-.681 2.266-.924 4.267-.73 6.005.153 1.446.64 2.648 1.46 3.607.834.973 1.946 1.64 3.336 2.001 2.293.598 4.427.556 6.4-.125 2.683-.93 4.379-2.793 5.088-5.587.153-.626.445-1.286.875-1.981 1.46-2.377 3.489-4.476 6.088-6.296a1.816 1.816 0 0 1 1.397-.334l15.325 2.314c5.073.765 9.736 1.724 13.99 2.877Zm-36.028 44.493c.5-.153.924-.007 1.272.438.292.375.757.896 1.397 1.564 2.057 2.237 4.677 3.558 7.86 3.961.194.014.389.056.584.125.027 0 .097.042.208.125a2.76 2.76 0 0 1-.313.584c-1.431 2.141-2.474 4.323-3.127 6.547-.153.542-.5.889-1.043 1.042a20.199 20.199 0 0 1-6.13.688 60.281 60.281 0 0 1-10.674-1.376 12.47 12.47 0 0 1-1.46-.375 49.512 49.512 0 0 0-1.563-.5l2.48-3.316c2.544-3.377 4.442-5.914 5.693-7.61.361-.472.778-.771 1.25-.896l3.566-1.001Zm6.421 15.408.876-.146-.5 3.523c-.403-.055-.64-.097-.709-.125-1.307-.389-2.391-.5-3.253-.333-.264.055-.563-.042-.896-.292-.876-.584-1.717-.959-2.523-1.126-1.112-.222-2.12 0-3.023.667-1.14.834-1.96 1.946-2.46 3.336-.153.403-.452.73-.897.98-.153.083-.757.486-1.814 1.209-.583-.736-.903-1.633-.959-2.689-.055-1.098.216-2.064.813-2.898.306-.376.535-.661.688-.855.473-.528.96-.89 1.46-1.084.542-.223 1.167-.258 1.876-.105 1.905.39 4.156.563 6.755.522 1.752-.042 3.274-.237 4.566-.584Zm-5.066 3.336c-.347.333-.869.806-1.564 1.418a26.886 26.886 0 0 0-1.48 1.396c-.862.932-1.341 2.155-1.439 3.67l-2.21 1.334c-.5-1.487-.535-3.009-.104-4.566.39-1.431 1.056-2.55 2.002-3.357 1.084-.945 2.251-1.132 3.502-.562.306.139.737.361 1.293.667Zm28.46-3.169a34.816 34.816 0 0 0-1.231-.271 25.258 25.258 0 0 1 6.047-5.526c3.002 2.252 5.219 5.234 6.651 8.945-1.362-1.362-3.003-2.189-4.921-2.481a22.904 22.904 0 0 0-1.272-.167l-1.292-.125-3.982-.375Zm43.742-30.169.125-.167c.514.236.827.396.938.479 2.405 1.654 4.33 3.427 5.775 5.317.348.445.695 1.119 1.043 2.022.25.64.222 1.355-.084 2.148-.278.736-.792 1.174-1.543 1.313-.736.139-1.584.042-2.543-.292a.622.622 0 0 1-.396-.375 7.357 7.357 0 0 1-.105-.521c-.486-2.349-1.209-4.802-2.168-7.36l-1.042-2.564Zm4.211 19.994c.125.097.223.167.292.209 1.682 2.905 2.606 5.692 2.773 8.36.084 1.307-.167 2.46-.75 3.461-.821 1.39-1.87 1.592-3.149.605-.431-.375-.764-.66-1-.855a47.664 47.664 0 0 0 1.834-11.78ZM68.244 1.007c.765.041 1.57.222 2.419.542.847.32 1.397.799 1.647 1.438.25.626.174 1.349-.23 2.169a5.408 5.408 0 0 1-.792 1.167 36.889 36.889 0 0 0-1.626 1.606c-.195.208-.695.813-1.501 1.814-2.155-1.363-4.594-2.412-7.318-3.149-2.252-.611-4.872-1.042-7.86-1.292l-.063-.209c.472-.417.84-.716 1.105-.896 2.585-1.877 5.56-2.933 8.923-3.17 1.39-.11 3.156-.118 5.296-.02Zm12.03 23.601a859.135 859.135 0 0 0-1.209-2.627c-.473-1.014-.903-1.848-1.293-2.502-.361-.64-.862-1.397-1.5-2.272-.724-1.001-1.266-1.766-1.627-2.294l.605-.125c3.057-.236 5.851.236 8.381 1.418 1.904.917 3.245 2.113 4.024 3.586a6.5 6.5 0 0 1 .688 2.168c.167 1.28-.41 2.023-1.73 2.231-.334.056-.835.098-1.502.125l-4.837.292Zm1.94 9.09c.333.21.597.397.791.564 2.753 2.39 4.275 5.365 4.567 8.923.138 1.821-.723 2.884-2.586 3.19l-.188.02c-.36.015-.632.022-.813.022-.32.014-.583 0-.792-.042a563.829 563.829 0 0 0-4.17-1.022c.654-2.585 1.126-4.607 1.418-6.067.43-2.224.695-4.288.792-6.192.237.153.563.354.98.605ZM43.307 73.48c-.194-3.391.827-6.581 3.065-9.57.209-.264.528-.486.96-.667a276.153 276.153 0 0 1 4.648-1.814l2.398-1.021c1.654 1.445 2.884 3.287 3.69 5.525.848 2.307 1.133 4.628.855 6.964-.194 1.668-.882 2.995-2.064 3.982-2.654 2.14-5.587 2.89-8.798 2.251-1.418-.264-2.544-.889-3.378-1.876-.82-.987-1.278-2.245-1.376-3.774Zm33.735-20.265c.917.139 1.73.528 2.439 1.167 1.098.931 1.856 1.717 2.272 2.356.598.904 1.488 2.495 2.67 4.775.416.792.541 1.605.374 2.44-.18.805-.618 1.299-1.313 1.48-.514.125-1.168.229-1.96.312-2.21.097-3.913.174-5.108.23-.375-1.96-.486-4.073-.334-6.339.126-1.876.445-4.017.96-6.421Zm1.376-.584-1.168-.417 1.522-5.942 5.233 1.272-5.587 5.087Zm-1.752 14.574c1.32-.473 2.76-.626 4.316-.459.556 2.738.952 5.282 1.188 7.63-.889.056-1.459.077-1.71.063-.25 0-.458-.125-.625-.375-1.487-1.946-2.543-4.232-3.169-6.86Zm4.4 8.214c1.459-.139 2.94-.062 4.44.23-.097.709-.347 1.633-.75 2.773-.487-.153-1.091-.529-1.814-1.126a11.97 11.97 0 0 1-1.876-1.877Zm-62.59-46.181c.416-1.515 1.132-2.69 2.147-3.524 1.418-1.167 2.982-1.445 4.691-.834.14.056.348.181.626.376a1.407 1.407 0 0 1-.313.166c-2.294.751-3.69 2.502-4.19 5.255a10.532 10.532 0 0 0 .062 3.669l.104.709-3.273.542c-.084-.042-.125-.076-.125-.104-.25-2.572-.16-4.657.27-6.255Zm5.441-1.397c.278-.264.598-.39.96-.375.36 0 .673.132.938.396.264.278.396.59.396.938s-.132.66-.396.938a1.36 1.36 0 0 1-.939.417c-.361.014-.688-.125-.98-.417a1.27 1.27 0 0 1-.396-.98c.014-.361.153-.667.417-.917Zm-2.293 8.82c-1.043 1.361-1.661 2.182-1.856 2.46-.32.458-.688.688-1.105.688H13.66c1.098-1.251 2.37-2.183 3.816-2.794 1.306-.556 2.828-.876 4.566-.96l-.417.605Zm8.256 118.07-2.752 1.751c-.125-.25-.215-.438-.271-.563a2.5 2.5 0 0 1-.209-.584c-.486-1.821-.222-3.621.793-5.4.389-.667.89-1.327 1.5-1.98.682-.709 1.37-1.092 2.065-1.147.709-.056 1.515.208 2.419.792-1.238.792-2.141 1.842-2.71 3.148-.487 1.085-.765 2.412-.835 3.983Zm28.376-71.868c.209.736.327 1.355.355 1.855.11 1.863.132 3.44.062 4.733-.097 1.71-.354 3.266-.771 4.67a10.695 10.695 0 0 1-.813 1.94c-.973 1.737-2.336 2.696-4.087 2.876-1.779.167-3.26.23-4.44.188-1.6-.042-3.059-.264-4.38-.667-3.196-.973-4.954-3.086-5.274-6.338-.334-3.559.188-6.811 1.564-9.758.89-1.932 2.175-3.294 3.857-4.086 1.445 1.195 3.037 1.862 4.774 2.001 1.502.125 3.17-.146 5.004-.813.459-.167.869-.215 1.23-.146.348.056.695.23 1.043.521.89.737 1.515 1.745 1.876 3.024Zm-19.14 13.176.209.126c1.529 2.126 3.843 3.35 6.943 3.669 1.515.153 3.315.209 5.4.167 1.946-.028 3.53-.55 4.754-1.564.597.695 1.09 1.619 1.48 2.773.556 1.626.75 3.572.584 5.838-.223 2.974-.904 5.567-2.044 7.777-1.195 2.252-2.863 3.683-5.003 4.295-.89.278-1.44.438-1.648.479-2.85.64-5.49.737-7.922.292-2.21-.403-3.955-1.584-5.234-3.544-.903-1.418-1.522-3.197-1.855-5.338-.431-3.113-.403-5.831.083-8.152.417-2.001 1.154-3.662 2.21-4.983.695-.862 1.376-1.473 2.043-1.835Zm18.181 25.041c.64.875 1.133 1.668 1.48 2.376 1.28 2.53 3.017 5.088 5.213 7.673.75.876 1.814 2.238 3.19 4.087.306.403.354.868.146 1.396-.5 1.196-.98 2.475-1.439 3.837-.18.5-.535.855-1.063 1.063-4.796 1.876-9.55 1.744-14.261-.396-4.935-2.238-8.215-6.039-9.841-11.405-.765-2.516-.987-4.719-.667-6.609.055-.334.153-.737.292-1.209.153-.528.264-.925.333-1.189 2.641.403 5.032.473 7.172.209 2.447-.306 4.712-1.05 6.797-2.231.931.459 1.814 1.258 2.648 2.398Zm-11.675 18.034.562.397c3.545 2.807 7.624 4.197 12.239 4.169.584 0 1.008.195 1.272.584.07.097.48.57 1.23 1.418-.612.514-1.487 1.258-2.627 2.231-.153.111-.403.125-.75.042-1.196-.223-2.287-.244-3.274-.063a2.271 2.271 0 0 0-.25.042.493.493 0 0 0-.23.083c-.305.209-.458.382-.458.521 0 .292.222.41.667.355l.584-.105c2.307-.305 4.246.278 5.817 1.752.055.042.146.153.27.333l-.5.626c-.333.375-.57.577-.708.605-.14.027-.438-.042-.897-.209-.917-.334-1.633-.556-2.148-.667-.792-.153-1.535-.153-2.23 0-.112.028-.355-.042-.73-.209a32.29 32.29 0 0 0-1.73-.834c-1.39-.556-2.711-.389-3.962.501-1.181.82-2.203 2.071-3.065 3.753-.028.041-.16.319-.396.834l-1.585-.188c-3.67-.445-6.748.646-9.236 3.273-.347.376-.632.556-.855.542-.222-.013-.493-.229-.813-.646-.292-.389-.486-.771-.584-1.147-.736-2.529-.451-4.83.855-6.901.64-1.028 1.432-1.709 2.377-2.043.931-.334 1.974-.313 3.127.063.654.208 1.634.549 2.94 1.021 1.098.334 2.078.355 2.94.063.375-.153.612-.278.709-.376a.563.563 0 0 0 .146-.271c.041-.139.049-.236.02-.291-.055-.139-.243-.209-.562-.209-.014 0-.167.063-.459.188a3.008 3.008 0 0 1-1.334.208c-.39-.014-.876-.104-1.46-.271 1.14-1.195 2.148-2.648 3.023-4.357.556-1.071 1.244-2.676 2.065-4.817Zm13.573 9.341 2.48-2.189 1.46.917-1.73 2.877-2.21-1.605Zm4.357-2.189c-1.195-.57-2.245-1.432-3.148-2.586l4.67-1.125-1.522 3.711ZM52.67 151.79c-1.418.862-2.454 2.029-3.107 3.503-.542 1.223-.848 2.738-.917 4.545l-3.065 1.918a1.334 1.334 0 0 1-.48-.584c-.07-.139-.139-.375-.208-.709-.445-1.765-.278-3.537.5-5.316.681-1.557 1.64-2.787 2.877-3.691 1.335-.973 2.801-.862 4.4.334Zm33.046 1.397c.264-1.362.8-2.447 1.605-3.253l3.232.688-.626.688c-1.153 1.126-1.813 2.363-1.98 3.711-.042.362-.209.619-.5.772l-1.48.855c-.446-.945-.53-2.099-.251-3.461Zm-4.253-.459 3.773-3.586 1.001.459c-1.195 1.681-1.71 3.6-1.543 5.754l-3.231-2.627Zm89.36 9.32c.042.361.098.862.167 1.501.07.542.097.987.083 1.334-.069 2.738-.854 5.164-2.355 7.277a4.206 4.206 0 0 1-.522.604c-.57.473-1.146.452-1.73-.062-.389-.362-.626-.966-.709-1.814-.097-.848.021-1.48.354-1.897 1.668-2.155 3.107-4.309 4.316-6.464l.396-.479ZM158.981 176.1c-.056.445-.091.695-.104.751-1.279 3.016-3.336 5.337-6.172 6.964a2.6 2.6 0 0 1-.73.312c-.903.292-1.612.223-2.126-.208-.515-.431-.737-1.147-.667-2.148 3.433-1.376 6.699-3.266 9.799-5.671Zm-19.619 8.715c-2.155 2.322-4.587 3.566-7.298 3.732-.778.042-1.265-.076-1.459-.354-.209-.306-.146-.862.187-1.668a.904.904 0 0 1 .709-.605l7.881-1.313-.02.208Zm-21.475-9.173-2.356 1.647c-3.142 2.238-5.727 4.719-7.756 7.443-.862 1.14-1.432 2.154-1.71 3.044-.32 1.042-.264 1.981.167 2.815.584 1.125 1.473 1.661 2.668 1.605 1.224-.097 2.28-.375 3.17-.834 2.821-1.473 6.331-2.717 10.529-3.732.444-.125.847.007 1.209.396.834.931 1.299 2.002 1.397 3.211.097 1.223-.195 2.377-.876 3.461-.931 1.473-2.321 2.564-4.17 3.273-1.557.598-3.516.945-5.879 1.043-4.393.18-8.354-.382-11.885-1.689-.25-.083-.743-.285-1.48-.605-.792-.361-1.188-.993-1.188-1.897-.014-2.557.222-5.65.709-9.278.347-2.655.903-4.837 1.668-6.547 1.084-2.404 2.849-4.149 5.295-5.233 2.461-1.084 4.935-1.223 7.423-.417 1.404.445 2.425 1.209 3.065 2.294ZM20.29 52.505l.021.48c.056.5.223.757.5.77.195 0 .418-.16.668-.479.57-.764 1.237-1.306 2.001-1.626.751-.306 1.898-.744 3.44-1.313.987-.404 1.64-.71 1.96-.918.612-.403.946-.896 1.001-1.48.056-.57-.167-1.126-.667-1.668-.89-.973-2.078-1.286-3.565-.938-1.488.361-2.745 1.223-3.774 2.585a7.825 7.825 0 0 0-1.585 4.587Zm1.147-.647c-.056-.194-.076-.312-.062-.354.472-2.544 1.8-4.24 3.982-5.087.5-.18 1.146-.244 1.939-.188.347.042.723.236 1.126.584.375.32.542.667.5 1.042-.028.362-.257.66-.688.897-.445.25-1.056.507-1.835.771-1.418.5-2.272.813-2.564.939-.96.403-1.759.868-2.398 1.396Zm3.524-10.049c1.529-.25 2.773.146 3.732 1.189.153.152.25.236.292.25.222.07.375.07.458 0 .153-.195.209-.362.167-.5-.083-.21-.243-.418-.48-.626-.93-.904-2.084-1.341-3.46-1.314-1.543 0-3.08.619-4.608 1.856-1.515 1.237-2.433 2.606-2.752 4.107-.07.348-.09.876-.063 1.585.014.07.07.153.167.25.097.111.16.153.188.125.25-.056.403-.188.458-.396.042-.097.063-.243.063-.438 0-.236.007-.382.02-.438.195-1.306.87-2.53 2.023-3.67 1.168-1.125 2.433-1.785 3.795-1.98Zm31.795-17.66a2.07 2.07 0 0 1-.208.293 3.013 3.013 0 0 1-1.96 1.021c-.793.097-1.495-.076-2.106-.521-1.473-1.056-3.12-1.334-4.941-.834-2.67.75-4.407 2.564-5.213 5.442-1.028 3.683-.674 7.213 1.064 10.591l.125.25c.194.32.354.494.48.522.138.041.347-.035.625-.23l.312-.25c1.85-1.501 3.809-2.446 5.88-2.836.486-.097 2.23-.36 5.233-.792l.605-.062c.236-.028.43-.07.584-.125.18-.056.298-.216.354-.48 0-.042-.049-.104-.146-.188a.749.749 0 0 0-.27-.146c-.112-.014-.46-.02-1.043-.02a99.287 99.287 0 0 0-.272-3.753c-.152-1.446-.437-2.683-.854-3.711l1.126.104c.834.041 1.667-.146 2.502-.563.055-.028.11-.111.166-.25a4.01 4.01 0 0 1 .105-.313 2.79 2.79 0 0 0-.292-.146.573.573 0 0 0-.292-.104c-.07 0-.174.034-.313.104-.153.07-.264.104-.334.104-.945.125-1.605.167-1.98.125-.681-.055-1.189-.361-1.522-.917 1.14-.097 2.015-.424 2.627-.98.236-.209.535-.563.896-1.063.111-.125.153-.25.125-.376a.381.381 0 0 0-.25-.292c-.153-.069-.347-.02-.584.146a.821.821 0 0 0-.229.25Zm-14.073 9.737c-.098-2.001.32-3.913 1.25-5.733 1.099-2.197 2.926-3.308 5.484-3.336.57-.014 1.202.167 1.897.542l-.813.396c-2.335 1.195-3.614 3.093-3.836 5.692-.167 1.765.042 3.537.625 5.317l.209.667c.014.041.007.11-.02.208l-3.316 2.043c-.903-2.057-1.397-3.989-1.48-5.796Zm7.672-5.713c.417-.013.772.119 1.064.397.292.278.437.618.437 1.021.014.376-.11.702-.375.98-.264.292-.59.445-.98.459-.43.028-.778-.09-1.042-.355-.278-.264-.424-.611-.438-1.042 0-.417.118-.758.354-1.022.25-.264.577-.41.98-.438Zm-6.088-7.922c.07-.028.195-.125.375-.292.876-.779 1.411-1.223 1.606-1.334 1.39-.876 3.01-1.3 4.858-1.272 1.918 0 3.593.382 5.025 1.146 3.085 1.599 4.767 3.99 5.045 7.173.125 1.473-.278 2.543-1.21 3.21-.124.056-.194.119-.208.188-.07.292-.083.473-.041.542a.502.502 0 0 0 .52.146c.112-.028.307-.146.585-.354.764-.681 1.188-1.592 1.271-2.732.126-2.112-.41-3.996-1.605-5.65-1.974-2.752-4.81-4.28-8.507-4.587-2.307-.194-4.35.25-6.13 1.335-.291.18-.618.43-.98.75-.416.39-.729.674-.937.855-.334.278-.376.535-.125.771.153.14.305.174.458.105Z"/></mask><path fill="#000" stroke="#000" stroke-width="2" d="M140.612 27.694c-.5-.139-.847-.222-1.042-.25-3.683-.584-7.131-.904-10.341-.96-5.949-.124-11.996.557-18.139 2.044-7.645 1.835-15.137 4.754-22.476 8.757l-1.48.792c-1.446-2.877-3.357-4.85-5.734-5.921l-.855-6.589 1.293-.146c.903-.055 2.266-.132 4.086-.229a6.143 6.143 0 0 0 1.564-.292c.57-.18 1.015-.486 1.335-.917.333-.445.486-.966.458-1.564-.028-.764-.146-1.445-.354-2.043-.71-2.016-2.169-3.593-4.379-4.733-3.072-1.612-6.435-2.175-10.09-1.689-.529.07-1.001-.083-1.418-.459a838.46 838.46 0 0 1-3.316-2.73l-.646-.501a5.7 5.7 0 0 1 .876-1.251c.097-.111.438-.473 1.021-1.084.904-.904 1.536-1.668 1.898-2.294.556-.959.68-1.89.375-2.794-.292-.89-.945-1.57-1.96-2.043-.792-.375-1.46-.577-2.001-.604a158.394 158.394 0 0 0-3.003-.167 29.69 29.69 0 0 0-2.981.02c-4.629.306-8.458 1.898-11.488 4.775-.236.223-.598.348-1.084.375-2.71.07-4.407.133-5.088.188-4.85.473-9.201 1.849-13.051 4.128-2.544 1.502-4.414 3.093-5.609 4.775-.236.347-.5.604-.792.771-.278.153-.626.264-1.043.334-2.377.347-4.26 1.55-5.65 3.607-.834 1.265-1.167 2.627-1 4.086l.041.626c-.598-.403-1.05-1.057-1.355-1.96-.014-.07-.09-.14-.23-.209a3.03 3.03 0 0 1-.354-.166c-.028.07-.09.18-.188.333-.07.125-.097.23-.083.313.209 1 .716 1.8 1.522 2.398.264.194.598.41 1 .646-.708.43-1.32.612-1.834.542-.514-.056-1.015-.354-1.501-.897-.042-.083-.084-.131-.125-.145-.32-.042-.494-.05-.521-.021-.056.027-.105.104-.146.23-.042.11-.049.194-.021.25.347.555.632.917.855 1.083.556.417 1.258.556 2.105.417l1.085-.187c-.695 1.126-1.161 2.384-1.397 3.774-.167 1-.23 2.286-.188 3.857.014.194.028.493.042.896.07.417.034.758-.105 1.022-.152.264-.43.486-.834.667a7.869 7.869 0 0 0-3.44 2.836c-.333.514-.806.715-1.417.604l-2.565-.5c-1.028-.195-1.925-.132-2.69.187-.764.334-1.431.946-2.001 1.835-1.168 1.793-1.515 3.74-1.043 5.838.084.348.09.653.021.917-.055.25-.201.515-.438.793C.664 51.567-.218 54.319.046 57.32c.125 1.446.604 2.662 1.438 3.649.848 1 1.946 1.66 3.294 1.98.292.084.668.14 1.126.167.264.028.647.063 1.147.104l.792.063-.104.48c-.361 1.5-.201 2.856.48 4.065.68 1.223 1.751 2.071 3.21 2.544a8.541 8.541 0 0 0 2.252.459c2.933.18 5.99.813 9.174 1.897 1.168.375 2.356.709 3.565 1 3.892.932 7.228.098 10.008-2.501 1.084-.987 1.779-1.606 2.085-1.856l4.983-4.045c.07-.055.361-.23.875-.521-1.125 2.419-1.779 4.51-1.96 6.276-.25 2.265.174 4.406 1.273 6.421-2.072 1.196-3.6 3.08-4.587 5.65-.473 1.251-.834 2.912-1.085 4.983-.222 1.654-.201 3.177.063 4.567l.605 2.439-.25.188c-1.877 1.32-3.184 3.127-3.92 5.42-1.46 4.532-1.37 9.181.27 13.949.876 2.571 2.482 4.392 4.817 5.462.056.028.139.098.25.209-.598 1.501-.869 3.106-.813 4.816.028 1.418.299 3.016.813 4.795.89 3.128 2.572 5.928 5.046 8.403-.987 2.529-1.696 4.225-2.127 5.087-.917 1.821-1.987 3.301-3.21 4.441-1.099-.389-1.78-.612-2.044-.667-.903-.195-1.592-.271-2.064-.23-.626.042-1.133-.055-1.522-.292-.18-.125-.48-.271-.897-.437-1.57-.737-2.995-.549-4.274.563-2.21 1.918-3.294 4.294-3.252 7.13.014.737.208 1.578.584 2.523.18.486.451.771.813.855.361.083.757-.028 1.188-.334.39-.306.688-.521.897-.646.083-.056.403-.23.959-.522.208.848.312 1.279.312 1.293.278.973.716 1.71 1.314 2.21.403.362.792.535 1.167.521.376-.014.758-.208 1.147-.583l.688-.73c2.474-2.363 5.602-3.141 9.383-2.335l-.146 1.251c-.195 1.042-.105 2.231.27 3.565.14.459.327.841.563 1.147.46.611 1.015.702 1.668.271a26.2 26.2 0 0 1 1.126-.813c.028-.014.445-.244 1.251-.688l.209.896c.292 1.237.75 2.182 1.376 2.836.514.514 1 .778 1.46.792.458 0 .944-.257 1.459-.772l.563-.583c1.598-1.599 3.42-2.565 5.462-2.898 1.752-.306 3.767-.195 6.047.333l4.587 1.043c2.14.5 3.982.194 5.525-.918a5.87 5.87 0 0 1 1.626-.771c2.057-.584 3.94-.223 5.65 1.084.917.723 1.626 1.223 2.127 1.501.472.25.806.32 1 .209.195-.125.3-.452.313-.98.111-2.085 0-3.718-.333-4.9l2.189-1.23.855 2.335c.278.528.563.813.854.855.292.042.647-.146 1.064-.563.236-.236.41-.403.521-.5.209-.181.41-.292.605-.334.07.82.166 2.002.292 3.544.166 1.182.778 1.474 1.834.876l1.48-.938.25.709c.529 1.292.856 2.057.98 2.293.181.334.41.515.689.542.25.014.521-.104.813-.354l.354-.355c.71-.764 1.64-1.237 2.794-1.417a7.209 7.209 0 0 1 3.169.166c1.14.32 2.829.828 5.067 1.523 2.529.778 4.83.625 6.901-.459.611-.306 1.042-.487 1.293-.542 1.779-.389 2.918-.605 3.419-.647 1.946-.152 3.892.306 5.838 1.376.417.223.702.292.854.209.153-.083.244-.354.272-.813.125-1.835-.098-3.538-.668-5.108-.597-1.696-1.522-2.878-2.773-3.545a15.751 15.751 0 0 0-.458-.333l2.147-3.336 6.005.646c.125.014.542.056 1.251.125.5.056.91.111 1.23.167 2.391.389 4.163 1.661 5.316 3.815.278.515.376 1.057.292 1.627-.236 1.626-.792 3.079-1.668 4.357-1.278 1.877-3.162 3.545-5.65 5.004-.889.542-2.057 1.182-3.502 1.918-1.655.848-5.331 2.704-11.03 5.567l-.187-.292c-.904-1.126-2.148-1.918-3.733-2.377-2.362-.695-4.753-.576-7.172.355-2.418.917-4.267 2.425-5.546 4.524-.82 1.362-1.445 2.94-1.876 4.733-.431 1.876-.758 3.968-.98 6.276-.167 1.64-.299 3.746-.396 6.317-.028.834.125 1.487.459 1.96.305.459.854.855 1.647 1.188 5.337 2.238 11.092 2.843 17.263 1.814 2.46-.417 4.503-1.466 6.13-3.148 1.167-1.223 1.807-2.599 1.918-4.128.111-1.543-.32-3.003-1.293-4.379l-.396-.646c.612-.111 1.494-.285 2.648-.521a24.49 24.49 0 0 1 2.648-.376l-.104.584c-.404 1.696.236 2.551 1.918 2.565a7.866 7.866 0 0 0 2.189-.23c2.585-.583 4.844-2.029 6.776-4.336.417-.473.806-.758 1.168-.855.931-.236 2.918-.806 5.962-1.71.084-.028.216-.041.397-.041l.229.896c.208.681.591 1.209 1.147 1.585.57.389 1.202.535 1.897.437.723-.097 1.348-.305 1.876-.625 1.265-.806 2.245-1.55 2.94-2.231 2.21-2.071 3.552-4.364 4.024-6.88.056-.237.25-.528.584-.876.375-.389 1.536-1.536 3.482-3.44l.521-.48c.056.306.125.695.208 1.168.278 1.14.918 1.835 1.919 2.085.931.25 1.758-.111 2.481-1.084.18-.223.368-.501.563-.834 2.001-3.364 2.55-6.887 1.647-10.571a2.48 2.48 0 0 1 .167-1.543c.083-.194.813-1.98 2.189-5.358l.333-.73.751.584c.889.625 1.716.855 2.481.688.778-.167 1.439-.716 1.981-1.647.861-1.487 1.126-3.169.792-5.046-.57-3.377-1.751-6.317-3.544-8.819-.265-.389-.404-.785-.417-1.188-.056-.82-.167-2.051-.334-3.691l-.209-1.897c.64.125 1.078.202 1.314.229 1.334.167 2.391-.16 3.169-.98.765-.834 1.022-1.911.772-3.231-.195-1.001-.64-1.96-1.335-2.877-1.487-1.933-3.475-3.746-5.963-5.442a6.34 6.34 0 0 0-1.605-.792c-.431-.139-.786-.459-1.064-.96l-2.918-5.233 1.063.063c1.39.042 2.585-.195 3.586-.709 1.557-.792 1.981-1.988 1.272-3.586l-.334-.605c-1.251-2.126-3.12-3.725-5.608-4.795-2.725-1.168-5.498-1.571-8.319-1.209-.667.097-1.265-.091-1.793-.563-.431-.39-1.494-1.251-3.19-2.586-.32-.25-.918-.68-1.793-1.292.375-.765 1.028-1.536 1.96-2.315.305-.264.785-.625 1.438-1.084.389-.32.633-.66.73-1.021.097-.376.049-.807-.146-1.293-.334-.848-.931-1.592-1.793-2.231-1.571-1.14-3.475-1.744-5.713-1.814-3.252-.097-6.38.695-9.382 2.377a2.735 2.735 0 0 1-1.168.375c-.347.028-.736-.028-1.167-.167-.362-.125-1.96-.611-4.796-1.459.501-.695 1.182-1.334 2.044-1.918.292-.195.736-.48 1.334-.855.751-.542 1.126-1.16 1.126-1.856 0-.695-.368-1.313-1.105-1.855-.431-.334-.841-.556-1.23-.667-1.196-.334-2.106-.522-2.731-.563-2.155-.195-4.476.292-6.964 1.46-1.529.736-3.197 1.827-5.004 3.273-.403.32-.827.444-1.272.375l-13.072-1.96c3.071-1.71 6.018-2.766 8.84-3.17 3.141-.444 6.234-.11 9.278 1.002l.125-.25.125-.376c1.459-6.769 5.435-11.738 11.926-14.907 3.28-1.613 6.894-2.384 10.841-2.314l1.043-.021v-.334c-.709-3.058-.57-6.081.417-9.07 1.737-5.295 4.434-10.09 8.089-14.386 1.682-1.987 3.607-3.558 5.776-4.712l2.502-1.188c-5.129-1.668-10.05-2.724-14.762-3.17-4.614-.416-9.722-.402-15.324.043 1.362-1.724 3.232-3.218 5.608-4.483Zm-5.4.167c.251.028 1.05.139 2.398.333a3.03 3.03 0 0 1-.167.355c-1.195.875-2.376 2.001-3.544 3.377-.209.265-.48.417-.813.46-8.368.958-17.125 3.3-26.27 7.025-5.546 2.266-10.446 4.532-14.7 6.797-.639.348-1.396.827-2.272 1.439-.973.695-1.71 1.21-2.21 1.543-.472.333-.862.604-1.168.813.362 3.794.57 7.089.626 9.883.07 3.558-.09 6.852-.48 9.882-.069.653-.187 1.46-.354 2.419-.083.542-.222 1.369-.417 2.48l-2.648-.27-1.188-7.631c.695-.14 1.153-.243 1.376-.313 1.695-.445 2.48-1.515 2.356-3.21a6.465 6.465 0 0 0-.5-2.232c-1.057-2.432-2.176-4.315-3.357-5.65a15.27 15.27 0 0 0-1.168-1.167c-.556-.515-.987-.91-1.293-1.189.404-.375 1.001-.945 1.793-1.71a23.3 23.3 0 0 1 1.877-1.647c8.715-6.838 16.874-12.037 24.477-15.595a69.792 69.792 0 0 1 18.869-5.754c3.002-.473 5.928-.619 8.777-.438Zm7.694 4.941 4.649.063c.014 0 .334.041.959.125-7.978.68-15.407 2.244-22.288 4.69-2.432.849-5.414 2.093-8.944 3.733-5.685 2.655-10.828 5.337-15.429 8.048-2.696 1.584-5.087 3.336-7.172 5.254l-.48.375c.14.75.348 1.849.626 3.294a78.1 78.1 0 0 1 .542 3.211c.445 3.267.744 6.019.897 8.257.347 4.795.382 10.66.104 17.596-.042.918-.063 2.287-.063 4.108-.027.82-.083 1.515-.166 2.085-.25 1.556-.855 2.828-1.814 3.815-.945.987-2.196 1.647-3.753 1.98-1.432.32-2.982.293-4.65-.083-1.39-.32-2.46-.959-3.21-1.918-.751-.945-1.147-2.154-1.189-3.627-.041-1.53.195-3.107.71-4.733.972-3.142 1.813-5.671 2.522-7.59 1.862-5.142 2.926-10.653 3.19-16.533.18-3.92.041-8.312-.417-13.177-.042-.445 0-.827.125-1.147.139-.32.382-.618.73-.896a30.825 30.825 0 0 1 5.254-3.273c8.089-4.073 15.546-7.208 22.371-9.404 7.562-2.418 14.977-3.808 22.247-4.17a77.29 77.29 0 0 1 4.649-.083Zm-2.627 2.231c4.906-.876 9.486-1.202 13.74-.98 3.252.18 5.775.57 7.568 1.168l.625.25-.291.292c-3.017 1.71-5.72 4.288-8.111 7.735-2.265 3.28-4.072 6.65-5.421 10.112-1.292 3.336-1.723 6.595-1.292 9.778l-.98-.938c-3.322-3.364-6.755-6.04-10.3-8.027-4.253-2.363-8.771-3.774-13.552-4.233-4.573-.416-9.438-.034-14.595 1.147-1.334.306-2.946.723-4.837 1.251a273.925 273.925 0 0 1-4.795 1.376l-1.126.313-.104-.167c.083-.055.285-.222.604-.5.25-.195.46-.348.626-.459a249.35 249.35 0 0 0 3.086-2.022 59.655 59.655 0 0 1 3.148-1.96c5.449-3.1 10.946-5.88 16.492-8.34 5.782-2.557 12.287-4.49 19.515-5.796Zm-16.409-7.297-3.356.792c-7.59 1.82-15.04 4.997-22.351 9.528a177.327 177.327 0 0 0-4.337 2.794l-5.358 3.544a8.772 8.772 0 0 0-.125-2.814c-.153-.723-.424-1.606-.813-2.648 12.079-6.77 24.171-10.564 36.278-11.384l.062.188Zm-19.16 25.248c2.863-.75 5.546-1.285 8.048-1.605 4.044-.514 7.77-.535 11.175-.063 4.893.668 9.618 2.544 14.178 5.63 2.668 1.82 5.233 3.989 7.693 6.505l.5.584-1.584.125c-3.85.32-7.353 1.41-10.508 3.273-5.129 3.03-8.542 7.332-10.237 12.906l-.271.896c-.278-.43-.445-.702-.501-.813-2.96-5.865-6.818-10.925-11.571-15.178-3.114-2.78-6.971-5.449-11.572-8.006l-3.377-1.877c3.127-1.014 5.803-1.807 8.027-2.377Zm-3.128 6.234c4.976 2.891 9.098 6.088 12.364 9.591a50.414 50.414 0 0 1 8.361 11.905l.187.48c-10.063-1.53-18.451 1.841-25.165 10.112l-.042-.98c.112-4.796.181-8.389.209-10.78.042-5.17-.174-9.764-.646-13.78a86.634 86.634 0 0 0-.668-4.65c-.361-2.057-.625-3.6-.792-4.629l-.083-.5c.375.083.597.146.667.187 2.974 1.585 4.844 2.6 5.608 3.044Zm52.562 31.504c.611.361 1.202.931 1.772 1.71.32.416.452.764.396 1.042-.055.278-.313.563-.771.855-1.265.848-2.384 1.967-3.357 3.357-3.239-2.155-7.228-4.115-11.968-5.88 2.002-1.015 3.851-1.703 5.546-2.064 1.946-.417 3.85-.438 5.713-.063a7.982 7.982 0 0 1 2.669 1.043Zm-19.515-7.485c.556.208 1.014.466 1.376.771.764.64.764 1.286 0 1.94-.167.138-.445.319-.834.541-1.182.681-2.12 1.474-2.815 2.377-.264.334-.598.466-1.001.396l-9.611-1.876a3.885 3.885 0 0 0-.355-.146c.028-.056.056-.125.084-.209 2.807-2.21 5.483-3.565 8.027-4.065 1.862-.375 3.572-.285 5.129.27Zm25.373 20.307c1.404-.041 2.19-.055 2.356-.041 2.266.111 4.309.632 6.13 1.563 1.779.904 3.155 2.092 4.128 3.565.306.445.563 1.015.772 1.71.208.612-.014 1.112-.667 1.501-1.043.584-2.197.855-3.461.813-.89-.027-1.46-.104-1.71-.229-.236-.125-.619-.549-1.147-1.272a55.005 55.005 0 0 0-5.671-6.567c-.361-.362-.625-.64-.792-.834l.062-.209Zm-25.373-12.489c8.576 2.336 15.776 5.908 21.6 10.717 9.604 7.937 15.678 17.722 18.222 29.356 1.571 7.283 1.244 14.56-.98 21.829-2.168 7.047-5.706 13.129-10.612 18.244-5.81 6.06-12.593 9.952-20.349 11.675-1.668.376-3.628.772-5.88 1.189-.097.014-2.064.368-5.9 1.063-3.489.612-5.734 1.022-6.735 1.23-2.515.528-4.718 1.119-6.609 1.772-.778.264-1.751.647-2.919 1.147a220.514 220.514 0 0 1-2.919 1.189c-.917.333-1.612.562-2.085.688-.82.194-1.494.062-2.022-.397-.514-.472-.716-1.132-.605-1.98.084-.64.299-1.265.647-1.877.806-1.431 2.036-3.002 3.69-4.712a35.8 35.8 0 0 1 8.319-6.359c1.473-.82 4.837-2.578 10.091-5.275 1.501-.764 2.634-1.369 3.399-1.814 1.223-.695 2.293-1.403 3.21-2.126 1.571-1.251 2.801-2.599 3.691-4.045 1.96-3.169 2.154-6.38.584-9.632-1.529-3.225-3.489-5.811-5.88-7.756l-.459-.438a51.561 51.561 0 0 0 2.148-1.543c1.223-.918 2.064-1.932 2.523-3.044.486-1.237.486-2.606 0-4.108-.348-1.056-.675-1.862-.98-2.418-1.376-2.544-2.69-5.421-3.941-8.632-.917-2.349-1.974-5.33-3.169-8.944l-.334-.938c-.139-.459-.368-.626-.688-.501-.18.07-.271.174-.271.313-.014.097.014.243.084.438l.813 2.481c2.182 6.561 4.357 11.856 6.526 15.887.486.918.882 1.904 1.188 2.961.542 1.918.104 3.537-1.313 4.858-.834.75-1.78 1.48-2.836 2.189-2.627 1.723-4.733 3.454-6.317 5.191a28.414 28.414 0 0 0-3.753 5.171l-.501.813-3.085.021c-.292 0-.487.014-.584.042-.209.069-.306.229-.292.479.014.251.132.39.355.417.125.014.326.007.604-.021l1.189-.02c.472-.014.868-.007 1.188.02 1.446.084 2.564.821 3.357 2.21.834 1.516 1.251 3.385 1.251 5.609l-.772-.25c-3.252-1.404-6.456-1.439-9.611-.104l-1.376.604c-1.418.667-2.885.82-4.4.459a45.64 45.64 0 0 1-2.022-.542l-2.002-.605a82.807 82.807 0 0 0-1.542-.459 14.24 14.24 0 0 0-1.564-.354c-1.321-.208-2.474-.181-3.461.083-1.168.306-2.182.953-3.044 1.939a67.729 67.729 0 0 1-.646-1.376c-.848-2.293-.438-4.253 1.23-5.879a19.04 19.04 0 0 1 2.356-1.856c.959-.625 1.98-.785 3.064-.479 1.557.458 2.676.771 3.357.938 1.46.361 2.919.438 4.379.229.305-.028.5-.069.583-.125a.752.752 0 0 0 .355-.479c.014-.042-.028-.105-.125-.188a.76.76 0 0 0-.271-.146c-.111 0-.48.014-1.105.042-1.738.097-3.176-.049-4.316-.438.333-4.754 1.925-9.035 4.774-12.843l4.629.354c.32.028.813.056 1.48.083.25 0 .424-.013.522-.041.152-.056.236-.181.25-.376.014-.236-.063-.389-.23-.458-.111-.056-.292-.084-.542-.084l-1.001-.02c-2.64-.084-5.42-.41-8.339-.98-2.099-.417-3.976-1.439-5.63-3.065-4.85-4.81-7.026-10.606-6.525-17.389a20.324 20.324 0 0 1 2.564-8.444c.306-.528.466-.82.48-.875.055-.209-.014-.397-.209-.563-.042-.042-.118-.049-.23-.021a.698.698 0 0 0-.27.125c-.028.028-.16.215-.397.563-2.752 4.837-3.579 10.056-2.48 15.658a20.45 20.45 0 0 0 3.127 7.631l.208.333.063.292-3.524.959.188-.75c.403-1.501.368-3.017-.104-4.545a23.613 23.613 0 0 0-1.126-3.086l-6.088-13.281c-.14-.334-.264-.57-.376-.709a.697.697 0 0 0-.25-.146c-.125-.042-.208-.049-.25-.021a.74.74 0 0 0-.188.25c-.069.111-.097.209-.083.292.042.209.167.514.375.917l6.255 13.636c.695 1.529 1.077 2.933 1.147 4.212.097 1.487-.222 2.759-.96 3.815l-2.147 2.898c-1.529 2.043-3.829 5.108-6.9 9.195-.487.667-1.113 1.362-1.877 2.085-.292.278-.994.889-2.106 1.834a.857.857 0 0 1-.563.209 13.32 13.32 0 0 1-.563-.104c-1.154-.251-2.377-.257-3.67-.021-.263.028-.423.069-.479.125-.25.194-.375.354-.375.479.014.306.208.431.584.376l.896-.146c1.96-.32 3.767.062 5.42 1.146 1.655 1.085 2.704 2.586 3.15 4.504a9.534 9.534 0 0 1 .103 3.92l-1.25-.855c-.57-.375-1.001-.66-1.293-.855-.514-.334-.96-.577-1.335-.73-1.71-.709-3.523-.632-5.441.23-.431.208-.667.333-.71.375a5.092 5.092 0 0 1-2.605 1.084c-.82.111-1.759.035-2.815-.229a121.209 121.209 0 0 0-5.463-1.21c-3.488-.681-6.442-.243-8.86 1.314-.612.389-1.509 1.133-2.69 2.231-.403.361-.716.542-.938.542-.25 0-.529-.209-.834-.626-.459-.611-.765-1.195-.918-1.751-.653-2.78-.312-5.254 1.022-7.422.64-1.043 1.46-1.786 2.46-2.231 1.154-.528 2.405-.556 3.753-.084.612.209 1.522.529 2.731.96.57.194 1.216.347 1.94.458.166.028.382.042.646.042.139 0 .368-.007.688-.021l-.146-.813-2.523-.355c.125-.25.215-.41.271-.479 1.682-1.765 3.086-4.087 4.212-6.964.347-.862 2.043-5.282 5.087-13.26l.125-.375a.54.54 0 0 0 0-.417.391.391 0 0 0-.292-.209c-.083-.014-.188.014-.313.084-.125.069-.201.139-.229.208l-1.355 3.399-.542-.668a250.91 250.91 0 0 0-3.399-4.211c-1.682-2.057-2.94-3.892-3.773-5.504-.279-.543-.723-1.328-1.335-2.356-1.042-1.78-2.21-3.072-3.503-3.878l.042-.251c1.487-1.668 2.572-3.891 3.253-6.671.75-2.947.93-5.623.542-8.027a12.108 12.108 0 0 0-2.106-5.275c.695-1.335 1.181-2.336 1.46-3.003.555-1.376.854-2.94.896-4.69.083-2.294.07-4.094-.042-5.4-.222-2.864-1.313-4.914-3.273-6.151l.521-.396c1.932-1.39 2.981-3.274 3.148-5.65.32-4.81-1.119-8.897-4.316-12.26l-.291-.355.604-.5c3.586-2.627 5.748-6.171 6.484-10.633.39-2.35-.097-4.33-1.459-5.942-.25-.306-.452-.487-.605-.542-.153-.07-.292-.028-.417.125-.167.208-.194.403-.083.584.07.097.202.236.396.416 1.251 1.502 1.626 3.427 1.126 5.776-1.182 5.587-4.462 9.403-9.841 11.446a65.989 65.989 0 0 1-2.71 1.022c-3.142 1.084-6.11 2.835-8.903 5.254-.653.556-1.62 1.424-2.898 2.606-.89.778-1.55 1.334-1.98 1.668-2.336 1.82-4.95 2.404-7.84 1.751a60.067 60.067 0 0 1-4.983-1.418 33.02 33.02 0 0 0-7.631-1.522c-1.265-.11-2.398-.36-3.399-.75-1.028-.375-1.786-1.112-2.272-2.21-.487-1.07-.556-2.127-.209-3.17.167-.541.522-.82 1.064-.833a53.315 53.315 0 0 0 2.48-.209c.974-.041 1.8.035 2.482.23 1.098.305 2.536.827 4.316 1.563.486.195 1.153.5 2.001.918.918.445 1.578.75 1.98.917 5.046 2.099 9.765 1.501 14.158-1.793.32-.236 1.383-1.098 3.19-2.585l5.129-4.15a34.73 34.73 0 0 0 1.71-1.375c1.598-1.335 2.515-2.982 2.751-4.942l.209-1.355c.64.542 1.09.945 1.355 1.21.139.138.32.375.542.708.25.334.507.396.772.188.194-.153.194-.39 0-.709-.473-.89-1.21-1.605-2.21-2.148-1.001-.542-1.988-.764-2.961-.667-.348.042-.55.07-.605.084-.208.083-.306.243-.292.48.014.236.125.374.334.416.125.014.327.007.605-.02h1.376c.139 2.029-.334 3.676-1.418 4.94a12.992 12.992 0 0 1-2.127 1.96c-1.751 1.265-3.773 2.899-6.067 4.9a45.056 45.056 0 0 1-3.857 3.002c-3.572 2.405-7.485 2.794-11.738 1.168a33.689 33.689 0 0 1-2.064-.897 763.07 763.07 0 0 1-2.044-.958c-1.584-.695-2.787-1.189-3.607-1.48-1.278-.46-2.69-.62-4.232-.48-2.46.18-3.822.278-4.087.291-1.07.028-2.001-.041-2.793-.208-1.89-.39-3.149-1.543-3.774-3.461-.5-1.557-.48-3.232.062-5.025.487-1.57 1.307-3.009 2.46-4.316l.605-.688-.25-.917a6.328 6.328 0 0 1-.188-.917c-.305-1.835.119-3.53 1.272-5.088.723-.973 1.682-1.397 2.878-1.271.542.055 1.16.166 1.855.333 1.251.278 2.273.34 3.065.188.167-.028.39-.035.667-.021.5.014.779.02.834.02l-.938.564c-1.682 1-2.919 2.23-3.711 3.69l-.313.584c-.07.236.007.417.23.542.25.139.444.118.583-.063.14-.277.236-.472.292-.583 1.306-2.252 3.454-3.767 6.442-4.545.376-.098 1.342-.278 2.898-.543.376-.653.626-1.063.751-1.23 2.905-4.156 6.825-6.255 11.76-6.296.083 0 .2.007.354.02.139 0 .25-.013.333-.041a.916.916 0 0 0 .292-.188l.271-.25c-.306-.278-.5-.438-.584-.48-.027-.013-.187-.02-.48-.02l-4.586.584c.125-.5.201-.862.23-1.085.097-.64.166-1.119.208-1.438a8.025 8.025 0 0 0 .104-1.439c-.014-1.849-.716-3.245-2.106-4.19-1.39-.946-2.96-1.113-4.712-.501-.5.167-.882.271-1.146.313-.39.07-.66.055-.814-.042-.152-.097-.257-.334-.312-.709-.14-.987-.132-1.772.02-2.356.64-2.418 2.336-3.996 5.088-4.733 2.488-.653 4.635-.076 6.442 1.73.181.181.306.286.376.314.07.027.153.041.25.041s.16-.02.187-.062c.167-.195.216-.362.146-.5-.07-.167-.229-.376-.48-.626a6.433 6.433 0 0 0-1.625-1.189c-.598-.292-1.432-.59-2.502-.896.458-.64.715-.987.771-1.043 1.696-1.946 4.03-3.627 7.005-5.045 4.532-2.155 9.619-3.162 15.262-3.023 4.67.097 8.542.702 11.613 1.814 8.73 3.155 14.484 8.937 17.264 17.346.89 2.697 1.167 5.928.834 9.695-.181 1.96-.563 4.212-1.147 6.755a308.123 308.123 0 0 1-1.668 6.651c-.904 3.726-1.494 6.387-1.772 7.986-.779 4.573-.57 8.798.625 12.676 1.265 4.045 3.635 7.298 7.11 9.758l1.022.75-1.69 5.067a111.26 111.26 0 0 0-1.292 3.94c-.681 2.266-.924 4.267-.73 6.005.153 1.446.64 2.648 1.46 3.607.834.973 1.946 1.64 3.336 2.001 2.293.598 4.427.556 6.4-.125 2.683-.93 4.379-2.793 5.088-5.587.153-.626.445-1.286.875-1.981 1.46-2.377 3.489-4.476 6.088-6.296a1.816 1.816 0 0 1 1.397-.334l15.325 2.314c5.073.765 9.736 1.724 13.99 2.877Zm-36.028 44.493c.5-.153.924-.007 1.272.438.292.375.757.896 1.397 1.564 2.057 2.237 4.677 3.558 7.86 3.961.194.014.389.056.584.125.027 0 .097.042.208.125a2.76 2.76 0 0 1-.313.584c-1.431 2.141-2.474 4.323-3.127 6.547-.153.542-.5.889-1.043 1.042a20.199 20.199 0 0 1-6.13.688 60.281 60.281 0 0 1-10.674-1.376 12.47 12.47 0 0 1-1.46-.375 49.512 49.512 0 0 0-1.563-.5l2.48-3.316c2.544-3.377 4.442-5.914 5.693-7.61.361-.472.778-.771 1.25-.896l3.566-1.001Zm6.421 15.408.876-.146-.5 3.523c-.403-.055-.64-.097-.709-.125-1.307-.389-2.391-.5-3.253-.333-.264.055-.563-.042-.896-.292-.876-.584-1.717-.959-2.523-1.126-1.112-.222-2.12 0-3.023.667-1.14.834-1.96 1.946-2.46 3.336-.153.403-.452.73-.897.98-.153.083-.757.486-1.814 1.209-.583-.736-.903-1.633-.959-2.689-.055-1.098.216-2.064.813-2.898.306-.376.535-.661.688-.855.473-.528.96-.89 1.46-1.084.542-.223 1.167-.258 1.876-.105 1.905.39 4.156.563 6.755.522 1.752-.042 3.274-.237 4.566-.584Zm-5.066 3.336c-.347.333-.869.806-1.564 1.418a26.886 26.886 0 0 0-1.48 1.396c-.862.932-1.341 2.155-1.439 3.67l-2.21 1.334c-.5-1.487-.535-3.009-.104-4.566.39-1.431 1.056-2.55 2.002-3.357 1.084-.945 2.251-1.132 3.502-.562.306.139.737.361 1.293.667Zm28.46-3.169a34.816 34.816 0 0 0-1.231-.271 25.258 25.258 0 0 1 6.047-5.526c3.002 2.252 5.219 5.234 6.651 8.945-1.362-1.362-3.003-2.189-4.921-2.481a22.904 22.904 0 0 0-1.272-.167l-1.292-.125-3.982-.375Zm43.742-30.169.125-.167c.514.236.827.396.938.479 2.405 1.654 4.33 3.427 5.775 5.317.348.445.695 1.119 1.043 2.022.25.64.222 1.355-.084 2.148-.278.736-.792 1.174-1.543 1.313-.736.139-1.584.042-2.543-.292a.622.622 0 0 1-.396-.375 7.357 7.357 0 0 1-.105-.521c-.486-2.349-1.209-4.802-2.168-7.36l-1.042-2.564Zm4.211 19.994c.125.097.223.167.292.209 1.682 2.905 2.606 5.692 2.773 8.36.084 1.307-.167 2.46-.75 3.461-.821 1.39-1.87 1.592-3.149.605-.431-.375-.764-.66-1-.855a47.664 47.664 0 0 0 1.834-11.78ZM68.244 1.007c.765.041 1.57.222 2.419.542.847.32 1.397.799 1.647 1.438.25.626.174 1.349-.23 2.169a5.408 5.408 0 0 1-.792 1.167 36.889 36.889 0 0 0-1.626 1.606c-.195.208-.695.813-1.501 1.814-2.155-1.363-4.594-2.412-7.318-3.149-2.252-.611-4.872-1.042-7.86-1.292l-.063-.209c.472-.417.84-.716 1.105-.896 2.585-1.877 5.56-2.933 8.923-3.17 1.39-.11 3.156-.118 5.296-.02Zm12.03 23.601a859.135 859.135 0 0 0-1.209-2.627c-.473-1.014-.903-1.848-1.293-2.502-.361-.64-.862-1.397-1.5-2.272-.724-1.001-1.266-1.766-1.627-2.294l.605-.125c3.057-.236 5.851.236 8.381 1.418 1.904.917 3.245 2.113 4.024 3.586a6.5 6.5 0 0 1 .688 2.168c.167 1.28-.41 2.023-1.73 2.231-.334.056-.835.098-1.502.125l-4.837.292Zm1.94 9.09c.333.21.597.397.791.564 2.753 2.39 4.275 5.365 4.567 8.923.138 1.821-.723 2.884-2.586 3.19l-.188.02c-.36.015-.632.022-.813.022-.32.014-.583 0-.792-.042a563.829 563.829 0 0 0-4.17-1.022c.654-2.585 1.126-4.607 1.418-6.067.43-2.224.695-4.288.792-6.192.237.153.563.354.98.605ZM43.307 73.48c-.194-3.391.827-6.581 3.065-9.57.209-.264.528-.486.96-.667a276.153 276.153 0 0 1 4.648-1.814l2.398-1.021c1.654 1.445 2.884 3.287 3.69 5.525.848 2.307 1.133 4.628.855 6.964-.194 1.668-.882 2.995-2.064 3.982-2.654 2.14-5.587 2.89-8.798 2.251-1.418-.264-2.544-.889-3.378-1.876-.82-.987-1.278-2.245-1.376-3.774Zm33.735-20.265c.917.139 1.73.528 2.439 1.167 1.098.931 1.856 1.717 2.272 2.356.598.904 1.488 2.495 2.67 4.775.416.792.541 1.605.374 2.44-.18.805-.618 1.299-1.313 1.48-.514.125-1.168.229-1.96.312-2.21.097-3.913.174-5.108.23-.375-1.96-.486-4.073-.334-6.339.126-1.876.445-4.017.96-6.421Zm1.376-.584-1.168-.417 1.522-5.942 5.233 1.272-5.587 5.087Zm-1.752 14.574c1.32-.473 2.76-.626 4.316-.459.556 2.738.952 5.282 1.188 7.63-.889.056-1.459.077-1.71.063-.25 0-.458-.125-.625-.375-1.487-1.946-2.543-4.232-3.169-6.86Zm4.4 8.214c1.459-.139 2.94-.062 4.44.23-.097.709-.347 1.633-.75 2.773-.487-.153-1.091-.529-1.814-1.126a11.97 11.97 0 0 1-1.876-1.877Zm-62.59-46.181c.416-1.515 1.132-2.69 2.147-3.524 1.418-1.167 2.982-1.445 4.691-.834.14.056.348.181.626.376a1.407 1.407 0 0 1-.313.166c-2.294.751-3.69 2.502-4.19 5.255a10.532 10.532 0 0 0 .062 3.669l.104.709-3.273.542c-.084-.042-.125-.076-.125-.104-.25-2.572-.16-4.657.27-6.255Zm5.441-1.397c.278-.264.598-.39.96-.375.36 0 .673.132.938.396.264.278.396.59.396.938s-.132.66-.396.938a1.36 1.36 0 0 1-.939.417c-.361.014-.688-.125-.98-.417a1.27 1.27 0 0 1-.396-.98c.014-.361.153-.667.417-.917Zm-2.293 8.82c-1.043 1.361-1.661 2.182-1.856 2.46-.32.458-.688.688-1.105.688H13.66c1.098-1.251 2.37-2.183 3.816-2.794 1.306-.556 2.828-.876 4.566-.96l-.417.605Zm8.256 118.07-2.752 1.751c-.125-.25-.215-.438-.271-.563a2.5 2.5 0 0 1-.209-.584c-.486-1.821-.222-3.621.793-5.4.389-.667.89-1.327 1.5-1.98.682-.709 1.37-1.092 2.065-1.147.709-.056 1.515.208 2.419.792-1.238.792-2.141 1.842-2.71 3.148-.487 1.085-.765 2.412-.835 3.983Zm28.376-71.868c.209.736.327 1.355.355 1.855.11 1.863.132 3.44.062 4.733-.097 1.71-.354 3.266-.771 4.67a10.695 10.695 0 0 1-.813 1.94c-.973 1.737-2.336 2.696-4.087 2.876-1.779.167-3.26.23-4.44.188-1.6-.042-3.059-.264-4.38-.667-3.196-.973-4.954-3.086-5.274-6.338-.334-3.559.188-6.811 1.564-9.758.89-1.932 2.175-3.294 3.857-4.086 1.445 1.195 3.037 1.862 4.774 2.001 1.502.125 3.17-.146 5.004-.813.459-.167.869-.215 1.23-.146.348.056.695.23 1.043.521.89.737 1.515 1.745 1.876 3.024Zm-19.14 13.176.209.126c1.529 2.126 3.843 3.35 6.943 3.669 1.515.153 3.315.209 5.4.167 1.946-.028 3.53-.55 4.754-1.564.597.695 1.09 1.619 1.48 2.773.556 1.626.75 3.572.584 5.838-.223 2.974-.904 5.567-2.044 7.777-1.195 2.252-2.863 3.683-5.003 4.295-.89.278-1.44.438-1.648.479-2.85.64-5.49.737-7.922.292-2.21-.403-3.955-1.584-5.234-3.544-.903-1.418-1.522-3.197-1.855-5.338-.431-3.113-.403-5.831.083-8.152.417-2.001 1.154-3.662 2.21-4.983.695-.862 1.376-1.473 2.043-1.835Zm18.181 25.041c.64.875 1.133 1.668 1.48 2.376 1.28 2.53 3.017 5.088 5.213 7.673.75.876 1.814 2.238 3.19 4.087.306.403.354.868.146 1.396-.5 1.196-.98 2.475-1.439 3.837-.18.5-.535.855-1.063 1.063-4.796 1.876-9.55 1.744-14.261-.396-4.935-2.238-8.215-6.039-9.841-11.405-.765-2.516-.987-4.719-.667-6.609.055-.334.153-.737.292-1.209.153-.528.264-.925.333-1.189 2.641.403 5.032.473 7.172.209 2.447-.306 4.712-1.05 6.797-2.231.931.459 1.814 1.258 2.648 2.398Zm-11.675 18.034.562.397c3.545 2.807 7.624 4.197 12.239 4.169.584 0 1.008.195 1.272.584.07.097.48.57 1.23 1.418-.612.514-1.487 1.258-2.627 2.231-.153.111-.403.125-.75.042-1.196-.223-2.287-.244-3.274-.063a2.271 2.271 0 0 0-.25.042.493.493 0 0 0-.23.083c-.305.209-.458.382-.458.521 0 .292.222.41.667.355l.584-.105c2.307-.305 4.246.278 5.817 1.752.055.042.146.153.27.333l-.5.626c-.333.375-.57.577-.708.605-.14.027-.438-.042-.897-.209-.917-.334-1.633-.556-2.148-.667-.792-.153-1.535-.153-2.23 0-.112.028-.355-.042-.73-.209a32.29 32.29 0 0 0-1.73-.834c-1.39-.556-2.711-.389-3.962.501-1.181.82-2.203 2.071-3.065 3.753-.028.041-.16.319-.396.834l-1.585-.188c-3.67-.445-6.748.646-9.236 3.273-.347.376-.632.556-.855.542-.222-.013-.493-.229-.813-.646-.292-.389-.486-.771-.584-1.147-.736-2.529-.451-4.83.855-6.901.64-1.028 1.432-1.709 2.377-2.043.931-.334 1.974-.313 3.127.063.654.208 1.634.549 2.94 1.021 1.098.334 2.078.355 2.94.063.375-.153.612-.278.709-.376a.563.563 0 0 0 .146-.271c.041-.139.049-.236.02-.291-.055-.139-.243-.209-.562-.209-.014 0-.167.063-.459.188a3.008 3.008 0 0 1-1.334.208c-.39-.014-.876-.104-1.46-.271 1.14-1.195 2.148-2.648 3.023-4.357.556-1.071 1.244-2.676 2.065-4.817Zm13.573 9.341 2.48-2.189 1.46.917-1.73 2.877-2.21-1.605Zm4.357-2.189c-1.195-.57-2.245-1.432-3.148-2.586l4.67-1.125-1.522 3.711ZM52.67 151.79c-1.418.862-2.454 2.029-3.107 3.503-.542 1.223-.848 2.738-.917 4.545l-3.065 1.918a1.334 1.334 0 0 1-.48-.584c-.07-.139-.139-.375-.208-.709-.445-1.765-.278-3.537.5-5.316.681-1.557 1.64-2.787 2.877-3.691 1.335-.973 2.801-.862 4.4.334Zm33.046 1.397c.264-1.362.8-2.447 1.605-3.253l3.232.688-.626.688c-1.153 1.126-1.813 2.363-1.98 3.711-.042.362-.209.619-.5.772l-1.48.855c-.446-.945-.53-2.099-.251-3.461Zm-4.253-.459 3.773-3.586 1.001.459c-1.195 1.681-1.71 3.6-1.543 5.754l-3.231-2.627Zm89.36 9.32c.042.361.098.862.167 1.501.07.542.097.987.083 1.334-.069 2.738-.854 5.164-2.355 7.277a4.206 4.206 0 0 1-.522.604c-.57.473-1.146.452-1.73-.062-.389-.362-.626-.966-.709-1.814-.097-.848.021-1.48.354-1.897 1.668-2.155 3.107-4.309 4.316-6.464l.396-.479ZM158.981 176.1c-.056.445-.091.695-.104.751-1.279 3.016-3.336 5.337-6.172 6.964a2.6 2.6 0 0 1-.73.312c-.903.292-1.612.223-2.126-.208-.515-.431-.737-1.147-.667-2.148 3.433-1.376 6.699-3.266 9.799-5.671Zm-19.619 8.715c-2.155 2.322-4.587 3.566-7.298 3.732-.778.042-1.265-.076-1.459-.354-.209-.306-.146-.862.187-1.668a.904.904 0 0 1 .709-.605l7.881-1.313-.02.208Zm-21.475-9.173-2.356 1.647c-3.142 2.238-5.727 4.719-7.756 7.443-.862 1.14-1.432 2.154-1.71 3.044-.32 1.042-.264 1.981.167 2.815.584 1.125 1.473 1.661 2.668 1.605 1.224-.097 2.28-.375 3.17-.834 2.821-1.473 6.331-2.717 10.529-3.732.444-.125.847.007 1.209.396.834.931 1.299 2.002 1.397 3.211.097 1.223-.195 2.377-.876 3.461-.931 1.473-2.321 2.564-4.17 3.273-1.557.598-3.516.945-5.879 1.043-4.393.18-8.354-.382-11.885-1.689-.25-.083-.743-.285-1.48-.605-.792-.361-1.188-.993-1.188-1.897-.014-2.557.222-5.65.709-9.278.347-2.655.903-4.837 1.668-6.547 1.084-2.404 2.849-4.149 5.295-5.233 2.461-1.084 4.935-1.223 7.423-.417 1.404.445 2.425 1.209 3.065 2.294ZM20.29 52.505l.021.48c.056.5.223.757.5.77.195 0 .418-.16.668-.479.57-.764 1.237-1.306 2.001-1.626.751-.306 1.898-.744 3.44-1.313.987-.404 1.64-.71 1.96-.918.612-.403.946-.896 1.001-1.48.056-.57-.167-1.126-.667-1.668-.89-.973-2.078-1.286-3.565-.938-1.488.361-2.745 1.223-3.774 2.585a7.825 7.825 0 0 0-1.585 4.587Zm1.147-.647c-.056-.194-.076-.312-.062-.354.472-2.544 1.8-4.24 3.982-5.087.5-.18 1.146-.244 1.939-.188.347.042.723.236 1.126.584.375.32.542.667.5 1.042-.028.362-.257.66-.688.897-.445.25-1.056.507-1.835.771-1.418.5-2.272.813-2.564.939-.96.403-1.759.868-2.398 1.396Zm3.524-10.049c1.529-.25 2.773.146 3.732 1.189.153.152.25.236.292.25.222.07.375.07.458 0 .153-.195.209-.362.167-.5-.083-.21-.243-.418-.48-.626-.93-.904-2.084-1.341-3.46-1.314-1.543 0-3.08.619-4.608 1.856-1.515 1.237-2.433 2.606-2.752 4.107-.07.348-.09.876-.063 1.585.014.07.07.153.167.25.097.111.16.153.188.125.25-.056.403-.188.458-.396.042-.097.063-.243.063-.438 0-.236.007-.382.02-.438.195-1.306.87-2.53 2.023-3.67 1.168-1.125 2.433-1.785 3.795-1.98Zm31.795-17.66a2.07 2.07 0 0 1-.208.293 3.013 3.013 0 0 1-1.96 1.021c-.793.097-1.495-.076-2.106-.521-1.473-1.056-3.12-1.334-4.941-.834-2.67.75-4.407 2.564-5.213 5.442-1.028 3.683-.674 7.213 1.064 10.591l.125.25c.194.32.354.494.48.522.138.041.347-.035.625-.23l.312-.25c1.85-1.501 3.809-2.446 5.88-2.836.486-.097 2.23-.36 5.233-.792l.605-.062c.236-.028.43-.07.584-.125.18-.056.298-.216.354-.48 0-.042-.049-.104-.146-.188a.749.749 0 0 0-.27-.146c-.112-.014-.46-.02-1.043-.02a99.287 99.287 0 0 0-.272-3.753c-.152-1.446-.437-2.683-.854-3.711l1.126.104c.834.041 1.667-.146 2.502-.563.055-.028.11-.111.166-.25a4.01 4.01 0 0 1 .105-.313 2.79 2.79 0 0 0-.292-.146.573.573 0 0 0-.292-.104c-.07 0-.174.034-.313.104-.153.07-.264.104-.334.104-.945.125-1.605.167-1.98.125-.681-.055-1.189-.361-1.522-.917 1.14-.097 2.015-.424 2.627-.98.236-.209.535-.563.896-1.063.111-.125.153-.25.125-.376a.381.381 0 0 0-.25-.292c-.153-.069-.347-.02-.584.146a.821.821 0 0 0-.229.25Zm-14.073 9.737c-.098-2.001.32-3.913 1.25-5.733 1.099-2.197 2.926-3.308 5.484-3.336.57-.014 1.202.167 1.897.542l-.813.396c-2.335 1.195-3.614 3.093-3.836 5.692-.167 1.765.042 3.537.625 5.317l.209.667c.014.041.007.11-.02.208l-3.316 2.043c-.903-2.057-1.397-3.989-1.48-5.796Zm7.672-5.713c.417-.013.772.119 1.064.397.292.278.437.618.437 1.021.014.376-.11.702-.375.98-.264.292-.59.445-.98.459-.43.028-.778-.09-1.042-.355-.278-.264-.424-.611-.438-1.042 0-.417.118-.758.354-1.022.25-.264.577-.41.98-.438Zm-6.088-7.922c.07-.028.195-.125.375-.292.876-.779 1.411-1.223 1.606-1.334 1.39-.876 3.01-1.3 4.858-1.272 1.918 0 3.593.382 5.025 1.146 3.085 1.599 4.767 3.99 5.045 7.173.125 1.473-.278 2.543-1.21 3.21-.124.056-.194.119-.208.188-.07.292-.083.473-.041.542a.502.502 0 0 0 .52.146c.112-.028.307-.146.585-.354.764-.681 1.188-1.592 1.271-2.732.126-2.112-.41-3.996-1.605-5.65-1.974-2.752-4.81-4.28-8.507-4.587-2.307-.194-4.35.25-6.13 1.335-.291.18-.618.43-.98.75-.416.39-.729.674-.937.855-.334.278-.376.535-.125.771.153.14.305.174.458.105Z" mask="url(#a)"/></svg>