<svg xmlns="http://www.w3.org/2000/svg" width="201" height="137" fill="none"><path fill="#000" d="M186.956 19.79a13.4 13.4 0 0 1-.435-.318c-.849-.748-1.418-1.284-1.708-1.608-.983-1.038-1.714-2.065-2.194-3.08-.111-.235-.128-.447-.05-.637h.017c.245-.67.111-1.3-.402-1.892a5.042 5.042 0 0 0-.703-.67.618.618 0 0 1-.268-.486c-.045-1.004-.274-2.199-.687-3.583v.017c-.134-.458-.296-.731-.485-.82-.168-.123-.486-.162-.955-.118a6.955 6.955 0 0 0-2.863.988c-.168.1-.318.15-.452.15a.978.978 0 0 1-.452-.133 4.564 4.564 0 0 0-1.189-.469c-.849-.246-1.541.006-2.077.754l-.15.217c-.503 0-.782-.005-.837-.017a20.108 20.108 0 0 1-6.882-2.21 5.641 5.641 0 0 1-.821-.519 57.113 57.113 0 0 1-.804-.586.544.544 0 0 1-.217-.486c.033-.569-.173-1.01-.62-1.322-.458-.358-.832-.564-1.122-.62-.502-.145-1.183-.262-2.043-.352a1.292 1.292 0 0 1-.519-.184l-.016-.016c-.391-.324-1-.787-1.826-1.39-.301-.212-.535-.313-.703-.302h-.017c-.156.012-.385.123-.686.335h.017c-.57.39-1.078.96-1.524 1.708a.6.6 0 0 1-.452.302c-.782.111-1.429.334-1.943.67-.904.513-1.373 1.238-1.406 2.176-.011.29-.162.502-.452.636-3.505 1.63-7.005 2.333-10.499 2.11-.246-.022-.435-.09-.569-.2-.346-.324-.81-.475-1.39-.453a3.32 3.32 0 0 0-1.675.52v-.017a.62.62 0 0 1-.636.016h-.017c-.759-.323-1.903-.575-3.432-.753-.648-.078-1.111.173-1.39.753-.279.547-.447 1.027-.502 1.44-.045.313-.079.698-.101 1.156-.011.234-.022.591-.033 1.071-.603.47-1.044.843-1.323 1.122-.558.558-.731 1.206-.519 1.943l-.017-.017.033.117-1.322 1.909c-.324.547-.57.954-.737 1.222a14 14 0 0 1-3.332 3.734v.017a.586.586 0 0 1-.519.117c-1.117-.357-2.015-.033-2.696.971v-.016l-.335.485c-.893-.167-2.138-.111-3.734.168-.581.089-.932.25-1.055.485-.167.201-.201.598-.1 1.19l.016.016.067.234c.313 1.262.837 2.289 1.574 3.081.38.402.48.838.302 1.306v-.016c-.09.2-.157.519-.201.954-.067.815.078 1.429.435 1.842.134.156.173.363.117.62l-.686-.218h.016c-4.666-1.686-9.276-3.025-13.831-4.019a76.005 76.005 0 0 0-8.573-1.39 60.446 60.446 0 0 0-7.702-.318c-2.456.034-4.951.274-7.485.72h-.017c-2.065.369-4.738 1.1-8.02 2.194-3.695 1.228-6.754 2.49-9.176 3.784-3.137 1.675-5.582 3.662-7.334 5.961-.514.681-1.48 2.026-2.897 4.035-1.82 2.59-3.706 4.767-5.66 6.53-2.824 2.557-6.167 4.974-10.03 7.251-4.778 2.836-8.685 5.476-11.721 7.92-5.771 4.633-10.51 9.656-14.216 15.07-3.17 4.61-5.364 9.215-6.58 13.815C.432 98.472.16 102.452.706 106.326c.57 4.108 2.138 7.964 4.705 11.57 1.507 2.11 3.416 4.186 5.727 6.229 2.143 1.886 4.09 3.327 5.844 4.32 1.417.793 2.65 1.295 3.7 1.507-1.92.558-4.091.759-6.514.603a26.688 26.688 0 0 0-2.629-.05 3.188 3.188 0 0 0-1.64.535c-.402.268-.648.603-.737 1.005-.112.402-.04.809.217 1.222v.017c.235.369.486.659.754.871.614.446 1.127.765 1.54.954 1.217.592 2.752.983 4.605 1.172 2.825.302 5.688.374 8.59.218 2.043-.089 3.93-.368 5.66-.837 1.596-.458 2.863-1.055 3.8-1.792 1.675-1.284 2.356-2.991 2.044-5.124-.201-1.306-.787-2.534-1.758-3.683-.849-.994-1.943-1.993-3.282-2.998a424.287 424.287 0 0 1-5.124-3.817c-1.831-1.418-3.265-2.847-4.304-4.287-1.763-2.411-2.612-4.94-2.545-7.585.1-3.405 1.122-6.492 3.064-9.26 1.92-2.757 4.477-4.543 7.67-5.358 2.053-.525 4.33-.614 6.831-.268 2.456.357 5.096 1.116 7.92 2.277.28.123.436.324.47.603l.334 1.892c.313 1.898.017 3.65-.887 5.258-1.228 2.188-1.993 4.839-2.294 7.953a32.76 32.76 0 0 0-.134 4.287c.033 1.083.128 2.495.284 4.236.335 3.662.514 5.699.536 6.112.078 1.072.536 1.92 1.373 2.545.413.313.776.536 1.089.67v-.017c.558.235 1.406.559 2.545.972.022.48.335.82.938 1.021 1.127.335 1.98.547 2.561.636.458.078 1.161.106 2.11.084h.017c.737-.033 1.16-.374 1.273-1.021h1.858c.134.413.257.664.368.753.134.112.43.195.888.251 1.675.179 3.21.051 4.605-.385.357-.1.647-.262.87-.485.09-.079.162-.213.218-.402a3.27 3.27 0 0 1 .067-.302l.988-.201h-.017c.358-.044.553-.067.586-.067.19 0 .358.051.503.151v-.017c.123.112.374.134.753.067h.017c.536-.056 1.105-.212 1.708-.469.335-.145.854-.413 1.557-.803.491-.257.72-.676.687-1.256v-2.579h.435c1.306.145 2.713.145 4.22 0l1.607-.134c.123 0 .212.034.268.101.19.268.52.43.988.485 1.574.123 3.047-.055 4.42-.535.615-.246.882-.62.804-1.122.213-.071.347-.11.402-.118.201-.044.508-.122.921-.234h-.017c.302-.045.575.006.82.151.068.044.224.056.47.033 1.294-.078 2.584-.558 3.868-1.44.39-.279.53-.658.418-1.138-.312-1.329-.642-2.317-.988-2.964a6.292 6.292 0 0 1-.586-1.725c-.48-2.567-.53-4.806-.15-6.714.033-.146.111-.464.234-.955a56.497 56.497 0 0 0 9.16-.569c2.611-.38 5.564-1.089 8.857-2.127l.034.318a78.468 78.468 0 0 0 1.021 10.148c.48 2.935 1.217 5.994 2.21 9.176.424 1.361 1.329 2.405 2.713 3.131l1.557.753v.335c-.033.536.028.921.184 1.156.134.245.447.474.938.686l.017.017c.39.145.63.223.72.234 1.25.201 2.015.302 2.294.302.446.022 1.049-.051 1.808-.218h.017c.268-.078.458-.195.569-.352v-.016c.078-.123.123-.324.134-.603v-.536h1.758c.067.134.112.229.134.285v.016c.257.67.759 1.072 1.507 1.206.268.056.553.072.854.05 1.228-.033 2.456-.424 3.684-1.172.413-.257.698-.486.854-.686.212-.291.296-.626.251-1.005l1.139-.335c.178-.045.441-.123.787-.234a.945.945 0 0 1 .703.033c.201.1.469.078.804-.067v.017a10.81 10.81 0 0 0 1.239-.603c1.395-.848 1.926-2.009 1.591-3.483a6.039 6.039 0 0 1-.084-.686l1.959.418a.275.275 0 0 1 .151.067c.245.346.697.581 1.356.703.759.134 1.446.207 2.06.218.893.045 1.624-.061 2.193-.318.67-.301.999-.781.988-1.44 0-.034.011-.201.034-.502.457-.246 1.088-.33 1.892-.252h.016a.993.993 0 0 1 .603.252c.357.368.837.58 1.44.636.782.067 1.658-.078 2.629-.435.536-.224.843-.626.921-1.206v-.017l.05-.737c.034-.937-.1-2.042-.402-3.315a17.503 17.503 0 0 0-.385-1.289 83.693 83.693 0 0 1-.418-1.256l-.017-.017c-.19-.391-.307-.681-.352-.871a219.9 219.9 0 0 1-1.49-6.229c-.915-3.929-1.451-7.071-1.607-9.427-.279-3.684.256-7.127 1.607-10.331.324-.748.569-1.234.737-1.457v-.017c.178-.212.603-.558 1.272-1.038l.101-.067v-.016c2.634-1.853 5.202-3.17 7.702-3.952 1.206-.402 2.361-.452 3.466-.15 2.445.647 4.069 1.104 4.873 1.372 2.266.726 5.665 1.837 10.198 3.332a10.02 10.02 0 0 0 3.415.47c1.809-.101 3.093-.894 3.852-2.379a.497.497 0 0 1 .335-.267 26.44 26.44 0 0 0 4.839-1.658c2.98-1.329 5.319-3.321 7.016-5.978 2.243-3.539 3.103-7.328 2.578-11.37-.424-3.17-1.696-5.821-3.817-7.953-.224-.223-.52-.497-.888-.82a76.3 76.3 0 0 0-.871-.737c.413-1.585.637-3.533.67-5.844h.469c1.496-.011 2.847-.497 4.052-1.457.525-.413.821-.848.888-1.306.067-.458-.095-.96-.486-1.507-.435-.636-1.01-1.194-1.725-1.675-.134-.089-.681-.424-1.641-1.004l-.1-.57v-.016c-.156-.837-.597-1.35-1.323-1.54l-.017-.017c-.145-.045-.256-.18-.335-.402l-.016-.017c-.916-2.2-1.133-4.538-.653-7.016a.84.84 0 0 1 .335-.57c.58-.424.87-1.043.87-1.858 0-.625-.184-1.284-.552-1.976v.017c-.134-.257-.168-.508-.101-.754.212-.803.33-1.88.352-3.231v-.017c.011-.447-.089-.793-.302-1.038-.2-.235-.524-.402-.971-.503-.759-.156-1.696-.016-2.813.42l-.351.116-.168-.485c-.413-1.128-1.138-2.054-2.177-2.78-.301-.2-.53-.262-.686-.184-.179.045-.329.229-.452.553l-.151.368Zm.787-.268c.145.09.251.156.318.2 1.407 1.073 2.071 2.451 1.993 4.137-.034 1.016-.274 2.026-.72 3.03-.369.782-.888 1.625-1.557 2.529-.614-.882-1.228-1.619-1.842-2.21a9.497 9.497 0 0 0-2.395-1.658 71.873 71.873 0 0 0 1.289-1.189c.536-.513.972-.999 1.307-1.457.636-.848 1.172-1.976 1.607-3.382Zm4.019 8.289-1.641-1.19c.48-1.238.675-2.433.586-3.583.949-.513 1.864-.73 2.746-.653.357.034.608.129.753.285.123.145.173.396.151.753-.056 1.083-.139 1.976-.251 2.68-.056.357-.201.787-.435 1.289-.358.692-.905.882-1.641.57h.016a3.027 3.027 0 0 1-.284-.151Zm-.821.234c.324.234.67.424 1.038.57h-.016c.848.334 1.551.128 2.109-.62h.017l.151-.235c.234.313.379.71.435 1.19.067.58-.033 1.043-.301 1.389a1.29 1.29 0 0 1-.854.536c-.502.09-1.061.067-1.675-.067l.017.017a3.424 3.424 0 0 0-.77-.151c-.045 0-.078.011-.101.033a.168.168 0 0 0-.067.084c-.022.034-.022.073 0 .117a.169.169 0 0 0 .067.084c.648.413 1.474.608 2.479.586a14.225 14.225 0 0 0-.185 3.801c.09 1.172.408 2.422.955 3.75a4.516 4.516 0 0 0-.536.285 1.204 1.204 0 0 0-.469.62.085.085 0 0 0 0 .1c0 .034.017.062.05.084a.182.182 0 0 0 .101.034.179.179 0 0 0 .1-.034c.659-.513 1.262-.614 1.809-.301.357.223.541.63.552 1.222a1.458 1.458 0 0 0-1.155.285c-.145.1-.38.351-.703.753-1.072-3.148-2.864-5.9-5.375-8.255.301-.536.418-1.1.351-1.69-.055-.459-.251-1.022-.586-1.692l-.201-.469 1.742-2.813c.257.19.597.452 1.021.787Zm-13.63-20.311v.017c.86-.358 1.574-.536 2.144-.536.189 0 .312.072.368.217.469 1.62.731 2.892.787 3.818-.045.223-.106.564-.184 1.022l.016-.017a1.18 1.18 0 0 1-.435.67c-.223.134-.48.178-.77.134-1.485-.235-2.774-.899-3.868-1.993-.625-.648-.62-1.328.017-2.043.413-.491 1.054-.92 1.925-1.29Zm-2.578.251.468.268-.284.301v.017c-.904 1.005-.916 1.97-.034 2.897 1.061 1.139 2.389 1.87 3.985 2.193.648.123 1.15.05 1.507-.217.313-.224.57-.642.771-1.256.357.167.614.435.77.804.167.401.139.803-.084 1.205-.167.268-.34.486-.519.653-.212.168-.53.352-.954.553-.034.011-.062.039-.084.083a.112.112 0 0 0-.017.101.268.268 0 0 0 .067.1c.023.023.05.034.084.034.29.022.541-.017.753-.117.157-.078.441-.268.854-.57 1.039 2.066 2.618 3.874 4.739 5.426a7.066 7.066 0 0 1-1.49 2.495v.016c-.346.369-1.083 1.072-2.21 2.11-.157.123-.296.179-.419.168-1.061-.19-1.942.106-2.646.887-1.25-.614-2.656-1.144-4.219-1.59-1.195-.358-2.651-.704-4.371-1.039a7.86 7.86 0 0 1 .352-1.959c.078-.268.313-.943.703-2.026a.191.191 0 0 0-.016-.134.11.11 0 0 0-.084-.084c-.045-.022-.084-.022-.117 0a.15.15 0 0 0-.101.084c-.1.201-.257.502-.469.904a7.655 7.655 0 0 0-.435 1.055c-.167.48-.274.843-.318 1.088h-.017l-.184.938-2.16-.251c-2.021-.212-3.645-.195-4.873.05-.19.034-.804.201-1.842.503-.29-.57-.809-.994-1.557-1.273-.491-.179-.837-.285-1.038-.318-.246-.045-.396-.162-.452-.352-.19-.502-.33-.882-.419-1.138a9.04 9.04 0 0 1-.335-1.122c-.167-.882-.34-2.233-.519-4.052a.114.114 0 0 0-.05-.1c-.045-.034-.084-.051-.117-.051a.159.159 0 0 0-.117.05.16.16 0 0 0-.051.117c0 1.329.006 2.077.017 2.244.034.793.123 1.535.268 2.227.067.302.173.67.318 1.105.056.212.151.503.285.871-1.072 0-1.719-.006-1.943-.017h-.016c-.056-.011-.118-.056-.185-.134-.535-.792-1.205-1.585-2.009-2.377-.558-.57-1.317-1.256-2.277-2.06-.279-.235-.502-.335-.67-.301-.19 0-.363.161-.519.485-.402.837-.698 1.597-.887 2.277v-.016c-.436 1.473-.603 2.84-.503 4.102 0 .156-.072.29-.217.402-.748.513-1.334 1.1-1.759 1.758-.569.815-.854 1.675-.854 2.579 0 .301-.111.53-.334.686-.123.067-.335.23-.637.486-.982-.346-1.959-.943-2.93-1.792-1.15-1.005-2.272-2.333-3.366-3.985l-.301-.335c-.011-.19-.123-.39-.335-.603a.112.112 0 0 0-.1-.05c-.045 0-.079.011-.101.034l-.1.067a.1.1 0 0 0-.067.067.295.295 0 0 0-.017.1c.011.022.028.05.05.084l.385.452v.017c.023.178.05.279.084.301 1.395 2.288 2.874 3.98 4.437 5.074.246.178.564.385.955.62l.803.451c-1.942 2.121-3.583 4.55-4.922 7.284-1.206 2.434-2.205 5.208-2.998 8.322l-.318-.134h-.017c-1.44-.725-3.114-1.205-5.023-1.44-1.049-.134-2.607-.167-4.672-.1h-.016c-.146.01-.553.056-1.223.134-.056 0-.117.033-.184.1-.022.022-.033.04-.033.05l-.654-.05a.183.183 0 0 0-.083.017.1.1 0 0 0-.067.067.111.111 0 0 0-.034.084v.083c0 .034.011.062.034.084a.1.1 0 0 0 .067.067c.022.011.05.017.083.017l.721-.034a56.81 56.81 0 0 1 1.373-.1c.535-.034.982-.05 1.339-.05 2.311 0 4.337.279 6.078.837 1.016.312 1.842.664 2.479 1.055l-.252 1.507a.116.116 0 0 0 .034.117c.022.033.061.056.117.067l.101.017c.033.01.072.005.117-.017a.164.164 0 0 0 .067-.1l.201-.67c.714-2.858 1.362-5.007 1.942-6.447 1.474-3.717 3.221-6.782 5.241-9.193.726-.882 1.462-1.596 2.21-2.143a2.804 2.804 0 0 0 1.34 1.323c.458.234 1.066.368 1.825.402.614.044 1.306-.017 2.076-.185a.162.162 0 0 0 .101-.067.208.208 0 0 0 .033-.117.214.214 0 0 0-.05-.1.159.159 0 0 0-.117-.05h-.67c-.938.022-1.741-.062-2.411-.252-1.273-.38-1.797-1.228-1.574-2.545.223-1.25.971-2.35 2.244-3.298.033.066.067.145.1.234v-.017c.536 1.775 1.703 2.584 3.5 2.428a6.368 6.368 0 0 0 2.495-.703c1.518-.826 1.981-2.043 1.389-3.65l-.016-.017-.218-.536.653-.034a7.768 7.768 0 0 1 2.796.436c.257.09.503.212.737.368.324.201.542.436.653.703.09.257.084.575-.017.955v.017c-.178.68-.602 1.395-1.272 2.143a9.8 9.8 0 0 1-.469.52v.016c-.19.2-.363.363-.519.485a.243.243 0 0 0-.067.118c0 .033.011.072.033.117a.165.165 0 0 0 .101.067.14.14 0 0 0 .117-.017l.385-.234.017-.017c.893-.703 1.513-1.373 1.859-2.01.256-.48.418-.915.485-1.306.056-.39.251-.625.586-.703a118.4 118.4 0 0 1 1.139-.301 6.141 6.141 0 0 1 1.122-.201c2.177-.179 4.828.072 7.953.753 2.066.458 3.935 1.016 5.61 1.675l-.017-.017c1.049.435 1.887.927 2.512 1.474l.017.016c.312.302.641.514.987.637a.21.21 0 0 0 .118 0 .298.298 0 0 0 .083-.084.295.295 0 0 0 .017-.1.114.114 0 0 0-.05-.101l-1.44-1.356c.29-.402.698-.637 1.222-.704.581-.055 1.184.09 1.809.436h.016c1.239.67 2.378 1.724 3.416 3.165.625.926 1.022 1.719 1.189 2.377l-.017-.017c.101.436.129.871.084 1.306-.011.168-.056.28-.134.335v.017c-.1.045-.245.045-.435 0-1.217-.301-2.311-.24-3.282.184-.67.302-1.189.664-1.557 1.089-.413.446-.715 1.043-.905 1.791-.022.034-.022.073 0 .118a.167.167 0 0 0 .084.067.141.141 0 0 0 .117.016.265.265 0 0 0 .101-.067l.703-1.038h-.017c.581-.826 1.312-1.356 2.194-1.59.815-.224 1.708-.174 2.679.15.1.023.234.112.402.268h-.017c3.26 3.036 5.224 6.687 5.894 10.951a20.819 20.819 0 0 1-.234 7.887v.016c-.011.09-.039.218-.084.386l-2.562-1.24c0-.022.006-.039.017-.05.77-1.976 1.044-4.22.82-6.731-.134-1.742-.535-3.21-1.205-4.404-.357-.603-.737-1.083-1.139-1.44-.469-.435-.977-.659-1.524-.67-.535 0-1.054.212-1.557.637-.48.401-.898.965-1.256 1.69-.535 1.061-.887 2.328-1.055 3.802-.245 1.976-.128 3.868.352 5.676l-.017-.017.067.285v.017c-4.755-.29-8.891.519-12.407 2.428a.16.16 0 0 0-.067.1.139.139 0 0 0 0 .134.246.246 0 0 0 .1.084c.034.011.073.005.117-.017 2.624-1.217 5.47-1.931 8.54-2.143 1.552-.1 3.109-.05 4.672.15h.016a60.395 60.395 0 0 1-.971 1.123c-.1.1-.251.167-.452.2a7.944 7.944 0 0 0-2.311.888v-.017c-1.384.76-2.266 1.887-2.645 3.383-.413 1.573-.486 2.986-.218 4.236.168.748.48 1.44.938 2.076.022.034.061.056.117.067.034.011.073 0 .117-.033a.16.16 0 0 0 .067-.1c.034-.19.028-.302-.017-.336-.736-1.317-.937-2.93-.602-4.839.055-.279.145-.636.268-1.072.413-1.462 1.484-2.55 3.215-3.265v.017c.267-.112.53-.184.787-.218l-.218.352c-.837 1.25-1.418 2.456-1.742 3.617a6.009 6.009 0 0 0-.184 2.461c.201 1.228.832 2.166 1.892 2.813 2.244 1.34 4.616 1.686 7.117 1.038.937-.256 1.669-.725 2.193-1.406.514-.67.782-1.501.804-2.495.022-1.25-.307-2.752-.988-4.504l-.017-.017-.351-.87c1.574.58 2.64 1.78 3.198 3.6.603 2.064.173 3.957-1.289 5.676a.16.16 0 0 0-.051.117c0 .034.017.067.051.1a.16.16 0 0 0 .117.05.272.272 0 0 0 .117-.033l.201-.167v-.017c1.328-1.373 1.881-3.008 1.658-4.906-.224-1.853-1.089-3.304-2.596-4.354a12.371 12.371 0 0 0-1.339-.803c-.313-.168-.525-.313-.637-.436a3.037 3.037 0 0 1-.267-.519l.368.134.017.017c3.873 1.875 6.217 4.9 7.032 9.075 1.15 5.883-.53 10.946-5.04 15.188-1.417 1.317-3.187 2.355-5.308 3.114a65.93 65.93 0 0 1-2.947.954 3.79 3.79 0 0 1-.636.101c2.255-2.266 3.756-5.219 4.504-8.858a.14.14 0 0 0-.017-.117c-.033-.045-.067-.067-.1-.067a.189.189 0 0 0-.134.017c-.033.01-.056.039-.067.083l-.385 1.223c-.904 2.813-2.205 5.09-3.902 6.831l-.87.804c-.324-.1-.592-.346-.804-.736a8.88 8.88 0 0 1-.569-1.089c-.726-1.752-2.065-2.874-4.019-3.365a141.68 141.68 0 0 1-4.973-1.357c-1.998-.591-3.689-1.4-5.074-2.428-1.998-1.496-3.192-3.472-3.583-5.927a12.663 12.663 0 0 1 .033-4.203c.201-.011.419.033.653.134.168.056.425.162.771.318a.365.365 0 0 0 .117.017.616.616 0 0 0 .084-.067.209.209 0 0 0 .033-.118c0-.033-.017-.066-.05-.1-.715-.737-1.474-1-2.277-.787-.849.19-1.479.82-1.892 1.892-.023.034-.023.073 0 .117a.159.159 0 0 0 .067.084.14.14 0 0 0 .117.017.163.163 0 0 0 .1-.067c.369-.469.62-.76.754-.87.245-.235.513-.397.803-.486l-.083 1.172c-.134 1.908.056 3.5.569 4.772.592 1.484.938 2.338 1.038 2.562.413.97.837 1.803 1.273 2.495 1.373 2.21 3.287 4.102 5.743 5.676 2.333 1.485 5.135 2.713 8.406 3.684.402.112.709.106.921-.017.201-.112.363-.374.485-.787.034-.145.084-.368.151-.67.223.257.435.447.636.57.279.178.586.279.921.301a3.444 3.444 0 0 1-1.975 1.758c-.983.335-2.01.369-3.081.1a130.35 130.35 0 0 1-4.706-1.39c-4.052-1.361-7.094-2.349-9.125-2.963a24.043 24.043 0 0 0-3.952-.87c-.636-.101-1.474-.09-2.512.033a11.61 11.61 0 0 1-3.349-.017c-3.036-.413-5.799-1.35-8.288-2.813-4.8-2.824-7.574-6.932-8.322-12.324-.257-1.708-.279-3.516-.067-5.425l.033-.435v-.034l-.033-.352a.114.114 0 0 0-.05-.1c-.034-.034-.067-.05-.101-.05a.204.204 0 0 0-.117.033.16.16 0 0 0-.067.1c-1.005 4.589-.246 9.015 2.277 13.28l-.419-.101c-3.337-.737-6.463-.235-9.376 1.507-.793.468-1.552 1.133-2.278 1.992-.413.469-.909.754-1.49.854-.58.09-1.256-.05-2.026-.419.368-.245.636-.435.804-.569h.016c.938-.781 1.156-1.719.653-2.813-.558-1.217-1.467-2.076-2.729-2.579-1.06-.424-1.976-.234-2.746.57-.1.09-.374.424-.82 1.004-.146-.156-.28-.385-.402-.686-.402-.938-.464-1.948-.185-3.03v-.017c.09-.436.358-.665.804-.687l.77-.084a.182.182 0 0 0 .101-.033.43.43 0 0 0 .05-.1.11.11 0 0 0-.017-.101.492.492 0 0 0-.067-.084c-.312-.156-.558-.234-.736-.234-.145 0-.425.05-.838.15a44.124 44.124 0 0 0-4.855-10.984c1.116-.413 1.808-1.34 2.076-2.78a.143.143 0 0 0-.017-.117.162.162 0 0 0-.1-.067c-.045-.022-.084-.022-.118 0-.033.011-.061.04-.083.084l-.503 1.005.017-.017c-.346.603-.804 1.01-1.373 1.222-.435.145-.781.073-1.038-.218v-.016a5.114 5.114 0 0 1-1.222-2.194l.334-.017c.86-.01 1.48-.446 1.859-1.306.156-.357.251-.692.285-1.004.156-1.43.072-2.68-.251-3.751a4.835 4.835 0 0 0-.302-.703c-.379-.782-.96-1.128-1.741-1.039h-.168c.157-1.026.458-1.82.905-2.377.234-.29.558-.43.971-.419.413 0 .731.15.954.452.145.179.29.413.435.704h.017l.385.77c.079.134.179.357.302.67.011.033.039.061.083.083a.143.143 0 0 0 .118.017.263.263 0 0 0 .1-.067c.022-.045.028-.084.017-.117-.168-1.15-.536-2.02-1.105-2.612-.424-.447-.932-.625-1.524-.536a285.51 285.51 0 0 0 1.055-3.65c.324-1.396.474-2.713.452-3.952 1.027.145 1.864-.129 2.512-.82.033-.034.05-.068.05-.101a.235.235 0 0 0-.017-.1.263.263 0 0 0-.1-.067.085.085 0 0 0-.101 0l-.72.284h-.017c-.446.19-.92.24-1.423.15-.245-.033-.424-.11-.536-.234h-.016c-.112-.122-.179-.307-.201-.552a5.013 5.013 0 0 1 .301-1.976l.352.15c.826.38 1.585.29 2.277-.267h-.017c1.15-.904 1.775-2.077 1.876-3.517.078-1.038-.369-1.791-1.34-2.26h-.017l-.268-.117c.19-.324.38-.564.57-.72.256-.246.569-.374.937-.385.826-.034 1.418.329 1.775 1.088.201.38.291.893.268 1.54v.017a3 3 0 0 0 0 .637.268.268 0 0 0 .067.1c.023.022.056.034.101.034a.179.179 0 0 0 .1-.034.158.158 0 0 0 .067-.084c.179-.703.223-1.306.134-1.808v-.017a2.912 2.912 0 0 0-.787-1.524l.285-.268a14.159 14.159 0 0 0 3.298-3.834c.603-1.027.977-1.641 1.122-1.842v-.017c.023-.044.257-.335.704-.87.792.714 1.735 1.1 2.829 1.155a.182.182 0 0 0 .101-.034.268.268 0 0 0 .067-.1.143.143 0 0 0-.017-.117.163.163 0 0 0-.1-.067l-.653-.201h.016a3.786 3.786 0 0 1-.619-.268c-.458-.235-.826-.497-1.105-.787-.503-.525-.519-1.083-.051-1.675v-.016c.346-.402.76-.731 1.24-.988l.251.519c.268.48.63.826 1.088 1.038.469.212.971.274 1.507.184 1.574-.29 2.819-1.21 3.734-2.763.279-.502.396-.982.352-1.44-.056-.49-.307-.926-.754-1.306l-.016-.033c.68-.369 1.294-.491 1.841-.369.369.09.637.313.804.67V8.74c.447 1.06.547 2.009.302 2.846-.012.011-.017.022-.017.034l-.034.234c0 .022.006.05.017.084l.05.134c.011.033.039.061.084.083a.141.141 0 0 0 .117.017.257.257 0 0 0 .101-.084c.312-.569.452-1.172.418-1.808-.022-.447-.134-.96-.335-1.54 3.003-.168 4.912-.335 5.727-.503.904-.19 2.662-.792 5.275-1.808.312.982.881 1.596 1.708 1.842a.208.208 0 0 0 .117 0 .298.298 0 0 0 .083-.084.14.14 0 0 0 .017-.117.212.212 0 0 0-.05-.084l-.419-.352c-.669-.636-.971-1.412-.904-2.327.022-.313.129-.614.318-.904.458-.681 1.234-1.105 2.328-1.273-.045.268-.106.592-.184.971v.017c-.067.67.128 1.267.586 1.792.636.748 1.518 1.172 2.645 1.272 1.139.112 2.088-.145 2.847-.77.458-.39.748-.837.871-1.34.111-.513.044-1.043-.201-1.59a9.542 9.542 0 0 0-.335-.62l-.151-.234c.994.033 1.808.296 2.445.787.346.279.474.647.385 1.105-.212 1.06-.609 1.92-1.189 2.579v.016a.668.668 0 0 0-.201.369.157.157 0 0 0 0 .1.265.265 0 0 0 .05.067c.023.022.056.034.101.034a.313.313 0 0 0 .1-.017c.703-.447 1.245-1.222 1.624-2.328 2.546 1.853 5.682 3.014 9.411 3.483-.235.871-.14 1.73.285 2.579.022.022.05.044.083.067a.112.112 0 0 0 .101.017.422.422 0 0 0 .1-.05.184.184 0 0 0 .034-.101l.033-.301v-.05l-.067-.252c-.178-.792-.084-1.535.285-2.227.379-.68.938-.926 1.674-.737.134.034.346.106.637.218Zm10.448 39.417a5.625 5.625 0 0 0-.301 2.11c-.09-.581-.14-1.195-.151-1.843 0-1.853.307-3.482.921-4.889.313-.692.681-1.233 1.105-1.624.447-.424.915-.636 1.407-.636.491.01.96.228 1.406.653.636.602 1.128 1.462 1.474 2.578a12.931 12.931 0 0 1 0 7.535v.017l-.235.586-.971-1.574h-.017c-.134-.2-.189-.44-.167-.72.056-1.016-.117-1.92-.519-2.712-.022-.045-.05-.073-.084-.084a.207.207 0 0 0-.117 0 .162.162 0 0 0-.084.067l-.251.368c-.179.201-.374.285-.586.251l.017.017a.703.703 0 0 1-.486-.452c-.112-.324-.067-.603.134-.837l.301-.268a.397.397 0 0 0 .051-.1.112.112 0 0 0-.017-.101.163.163 0 0 0-.067-.084c-.614-.335-1.2-.279-1.758.168-.458.368-.793.893-1.005 1.574Zm-2.712 11.704c.133-.971.496-2.004 1.088-3.098 1.172-2.065 2.64-3.806 4.404-5.224h.016l.118-.117h.016c.391-.302.653-.452.787-.452.101.033.279.256.536.67v.016c1.273 2.01 2.244 3.885 2.914 5.626.491 1.262.759 2.39.804 3.383.022.57-.006 1.021-.084 1.356-.246 1.306-1.061 2.143-2.445 2.512-.212.044-.792.134-1.741.268-1.887-.056-3.427-.43-4.622-1.122-.703-.413-1.211-.95-1.524-1.608-.301-.658-.39-1.395-.267-2.21Zm12.39-16.962v-.017c.291-.357.67-.452 1.139-.285 1.44.514 2.579 1.351 3.416 2.512.268.357.385.687.352.988-.034.301-.224.603-.57.904-.96.793-2.165 1.256-3.617 1.39l-.401-.034c-.146-.022-.224-.1-.235-.234-.044-1.16-.251-2.54-.619-4.136v-.017a.47.47 0 0 1 .05-.401c.1-.201.262-.425.485-.67Zm-8.556 9.16-.05.032v-.033h.05ZM155.158.951c.145-.111.257-.173.335-.184.067.011.19.067.368.168 1.094.714 1.876 1.378 2.345 1.992.279.369.491.748.636 1.139.212.58.095 1.11-.352 1.59-.535.57-1.255.882-2.16.938-.937-.1-1.702-.351-2.294-.753-.669-.458-.932-1.083-.787-1.876.224-1.183.86-2.188 1.909-3.014Zm-21.466 7.435c.424.156.815.374 1.172.653.502.38.636.848.402 1.406-.704 1.653-1.876 2.618-3.517 2.897-.982.168-1.646-.223-1.992-1.172a6.385 6.385 0 0 1-.218-.837c-.078-.38-.139-.67-.184-.87v-.018c.1-.848.262-1.523.486-2.026v.017c.133-.29.273-.474.418-.552.134-.067.363-.09.687-.067h.016c1.072.1 1.982.29 2.73.569Zm17.029 9.946c.022-.09.112-.257.268-.502a.752.752 0 0 1 .134-.184c1.284 1.16 2.059 1.87 2.327 2.126.938.916 1.647 1.786 2.127 2.612h-.017c.268.503.475.988.62 1.457.223.837-.017 1.502-.72 1.993h-.017c-1.128.815-2.378 1.121-3.751.92-.77-.122-1.289-.546-1.557-1.272a6.006 6.006 0 0 1-.419-1.758c-.111-1.764.218-3.556.988-5.375 0-.011.006-.017.017-.017Zm-33.908 5.325c.19.033.475.078.854.134.346.056.631.123.854.2.424.124.743.352.955.687v.017c.201.324.268.714.201 1.172-.157 1.083-.626 1.987-1.407 2.713-.346.323-.709.49-1.088.502-.391.011-.776-.134-1.156-.435-1.25-.983-2.009-2.328-2.277-4.036-.033-.223-.028-.374.017-.452h.017c.055-.067.195-.117.418-.15a110.25 110.25 0 0 1 2.612-.352Zm-1.39 10.063-.083.955c-.324 2.132-.754 3.857-1.29 5.174v.017c-.134.312-.357.68-.669 1.105-.324.435-.642 1.144-.955 2.126l-.017.017-.033.184v.017c-.045.458-.296.837-.753 1.139-.492.301-.988.714-1.491 1.239-.268.279-.681.759-1.239 1.44h-.017c-.334.413-.379.882-.134 1.406.213.447.453.832.72 1.156a5.126 5.126 0 0 0 2.328 1.624c.246.09.435.296.569.62.246.625.553 1.238.921 1.841v.017c.235.357.519.63.854.82.346.213.603.458.77.737.949 1.686 1.535 2.752 1.759 3.198 1.25 2.568 2.16 4.884 2.729 6.95.123.468.134.931.033 1.39h-.016c-.358 1.64-.084 3.035.82 4.185a.466.466 0 0 1 .067.235v.016a.647.647 0 0 1-.084.268v.017c-.424 1.117-.63 2.182-.619 3.198v.017c.022.324.072.603.151.837.067.246.173.413.318.503v.016c.134.09.335.112.603.067 1.663-.234 2.924-.513 3.784-.837h-.017a.637.637 0 0 1 .553.05c.636.358 1.244.558 1.825.603 1.049.09 1.914-.245 2.595-1.004.793-.905 1.552-1.569 2.277-1.993 2.088-1.24 4.354-1.792 6.799-1.658 1.083.056 2.02.224 2.813.503.223.067.39.178.502.334 1.552 2.144 3.689 3.913 6.413 5.308h-.016l.217.118c-2.11.915-3.996 1.93-5.659 3.047a32.383 32.383 0 0 0-4.974 4.07 75.583 75.583 0 0 1-.217-1.424v-.017a6.13 6.13 0 0 0-.503-1.64.298.298 0 0 0-.083-.085c-.034-.022-.073-.022-.118 0-.044 0-.072.023-.083.067-.034.034-.045.073-.034.118l.285 1.942c.413 3.382.095 6.77-.955 10.164-.96 3.07-2.539 5.95-4.738 8.64-.09.078-.346.424-.77 1.038a.11.11 0 0 0-.034.084c0 .033.006.067.017.1a.177.177 0 0 0 .067.067l.1.067c.023.023.056.028.101.017a.387.387 0 0 0 .117-.05l.636-.72.034.134c.122 1.54.374 3.231.753 5.073.268 1.273.676 2.936 1.223 4.99l1.49 5.71-.05-.05c-.626-.681-1.329-.921-2.11-.72-.715.156-1.223.603-1.524 1.339v.017c-.335.815-.435 1.859-.301 3.131.122 1.195.39 2.345.803 3.45a13.23 13.23 0 0 1-1.858.586 70.018 70.018 0 0 0-.754-2.127c-.413-1.004-.982-1.797-1.708-2.377a5.666 5.666 0 0 0-1.473-.821c-.971-.346-1.792-.089-2.462.77-.536.704-.893 1.675-1.071 2.914a8.399 8.399 0 0 0 .067 2.796 3.724 3.724 0 0 1-1.574.067l-.151-1.138c-.134-1.161-.374-2.121-.72-2.881l.017.017a3.842 3.842 0 0 0-.486-.854c-.491-.692-1.127-1.043-1.909-1.055-.77-.022-1.423.302-1.959.972-.491.602-.854 1.451-1.088 2.545-.045.189-.134.653-.268 1.389l-.268-.066h.017c-1.039-.425-1.887-.933-2.546-1.524a2.218 2.218 0 0 1-.502-.687c-.625-1.473-1.233-3.477-1.825-6.011-.58-2.579-1.044-5.409-1.39-8.49-.469-4.041-.619-8.433-.452-13.177.034-.905.179-2.948.435-6.129.157-1.507.252-2.64.285-3.4a.209.209 0 0 0-.033-.116c-.034-.045-.073-.067-.118-.067a.209.209 0 0 0-.117.033.164.164 0 0 0-.067.1c-.044.235-.117.587-.217 1.056a59.79 59.79 0 0 0-.436 2.762.59.59 0 0 1-.368.52 42.191 42.191 0 0 1-8.322 2.495c-2.556.49-4.99.692-7.3.602-3.484-.145-6.67-.87-9.562-2.176h.017l-.636-.319c1.953-5.793 2.327-11.353 1.121-16.677a.163.163 0 0 0-.067-.1c-.044-.034-.083-.045-.117-.034a.248.248 0 0 0-.117.067.207.207 0 0 0-.033.117l.234 2.127c.234 2.12.251 4.242.05 6.362a32.21 32.21 0 0 1-2.997 11.085c-1.619 3.494-3.84 6.693-6.664 9.595-1.106 1.094-1.915 1.853-2.428 2.277v.017c-1.117.904-1.703 2.199-1.759 3.885-.044 1.228.134 2.902.536 5.023l.871 4.538c-.517-.871-1.349-1.239-2.495-1.105-1.116.134-1.842.625-2.177 1.473v.017a5.437 5.437 0 0 0-.402 1.926c-.033 1.227.162 2.567.586 4.018l.134.469h-.016l-1.524.268a32.243 32.243 0 0 0-.318-1.507c-.302-1.172-.715-2.115-1.24-2.83-.602-.815-1.3-1.328-2.092-1.54-.57-.157-1.078-.14-1.524.05-.48.179-.849.525-1.105 1.038-.324.648-.514 1.25-.57 1.808-.055.391-.095.871-.117 1.44-.011.313-.022.787-.033 1.424v.017l.05.636c-.413.033-.982.039-1.708.017l.067-.955c.134-1.619-.04-3.008-.52-4.169-.1-.235-.24-.519-.418-.854-.446-.748-1.032-1.15-1.758-1.206-.625-.078-1.245.106-1.858.553h.016c-.636.424-1.178 1.177-1.624 2.26v.017a11.585 11.585 0 0 0-.787 3.098l-.067.418a.906.906 0 0 1-.1.017c-1.206-.312-2.172-.698-2.897-1.155-.893-.581-1.373-1.39-1.44-2.428a64.95 64.95 0 0 0-.184-2.545l-.218-2.546c-.1-1.25-.173-2.182-.218-2.796v-.017a57.84 57.84 0 0 1-.167-2.796c-.123-3.539.396-6.765 1.557-9.678.335-.882.642-1.552.92-2.01.47-.77.766-1.613.888-2.528.1-.782.09-1.669-.033-2.663-.134-1.138-.39-2.41-.77-3.817-.157-.58-.525-1.825-1.105-3.734a695.819 695.819 0 0 1-1.206-4.019v-.033a51.204 51.204 0 0 1-1.021-4.136c-.581-2.825-.693-5.225-.335-7.2v.016c.2-.87.357-1.54.468-2.009a.14.14 0 0 0-.016-.117c-.023-.045-.05-.073-.084-.084-.045-.022-.084-.022-.117 0a.163.163 0 0 0-.1.067c-.258.48-.498 1.166-.72 2.06-.38 1.529-.391 3.32-.034 5.375l.603 3.215a24.379 24.379 0 0 1-1.022-.067c-1.764-.123-3.31-.157-4.638-.1-1.663.066-3.198.273-4.605.619-2.165.513-4.225 1.496-6.178 2.947-4.041 3.025-7 6.843-8.875 11.453-1.217 2.98-1.691 5.883-1.423 8.707.312 3.483 1.724 6.458 4.236 8.925 1.373 1.373 3.131 2.601 5.274 3.684.592.323 1.122.653 1.591.988l4.655 3.432c1.306.971 2.356 1.92 3.148 2.847 1.116 1.317 1.697 2.707 1.742 4.169.044 1.496-.525 2.735-1.708 3.717-.871.704-2.032 1.267-3.483 1.692-1.496.435-3.4.731-5.71.887-1.73.123-3.667.117-5.81-.017h-.017c-.045 0-.157-.005-.335-.016.413-1.463.178-3.014-.703-4.655.1-.023.229-.039.385-.051.257-.022.463-.055.62-.1 1.953-.558 3.968-.223 6.044 1.005.692.424 1.306.77 1.842 1.038.39.212.787.363 1.189.452.614.134 1.094-.05 1.44-.553.19-.301.33-.563.418-.787.324-.736.201-1.423-.368-2.059l-.017-.017c-.457-.491-1.116-.876-1.976-1.155-.167-.056-1.004-.279-2.511-.67l-.201-.05c.111-.257.2-.453.268-.586.145-.324.218-.626.218-.905a.179.179 0 0 0-.034-.1c-.022-.034-.05-.05-.084-.05a.194.194 0 0 0-.117 0 .1.1 0 0 0-.067.067l-.636 1.138c-.469.726-1.195 1.256-2.177 1.591-.279.089-.664.089-1.155 0-.871-.156-1.77-.452-2.696-.887-.648-.313-1.44-.765-2.378-1.357l.352-1.256c.1-.457.072-1.122-.084-1.992a1.559 1.559 0 0 1 .402-1.44c0-.011.005-.017.017-.017.435-.402.764-.703.988-.904.625-.547.982-.865 1.071-.955h.017c.603-.658.659-1.367.167-2.126a3.81 3.81 0 0 0-1.473-1.356c-.335-.157-.614-.19-.837-.101-.235.078-.413.285-.536.62-.145.368-.302.837-.47 1.406-.334 1.139-1.07 1.747-2.21 1.825-1.406.09-2.46.625-3.164 1.608-2.556-2.4-4.594-4.996-6.112-7.786l.419-.319c1.217-.881 2.115-1.92 2.696-3.114.301-.614.798-.915 1.49-.904l1.725.067c.312.022.586.016.82-.017.782-.112 1.278-.547 1.49-1.306.213-.871.173-1.803-.117-2.796-.111-.347-.284-.559-.519-.637-.223-.1-.502-.067-.837.101-.212.1-.508.29-.888.569a7.746 7.746 0 0 1-.954.519c-.603.257-1.155.168-1.658-.268a4.264 4.264 0 0 1-.502-.519c-.837-1.127-2.06-1.518-3.667-1.172v.017a5.1 5.1 0 0 0-1.022.335h-.016c-.212.089-.536.223-.971.402l-.352.167c-.458-3.662-.156-7.462.904-11.403.625.19.971.29 1.038.301H3.22c1.071.257 2.266.23 3.583-.083 1.06-.268 1.87-.374 2.428-.319a3.472 3.472 0 0 1 1.49.536c.346.224.653.397.921.52.726.334 1.412.323 2.06-.034.535-.29.898-.781 1.088-1.474.167-.692.084-1.294-.251-1.808a5.086 5.086 0 0 0-1.139-1.222h.017a27.62 27.62 0 0 0-.938-.687c-.547-.38-.86-.597-.938-.653a29.558 29.558 0 0 1-1.456-1.105c-.681-.58-.955-1.261-.82-2.043.033-.246.027-.53-.017-.854-.112-.993-.637-1.64-1.574-1.942l-.57-.168c2.155-3.516 4.772-6.91 7.853-10.18l.47.82c.714 1.183 1.5 2.026 2.36 2.529.77.457 1.585.614 2.445.468.748-.111 1.312-.044 1.691.201v-.016c.369.267.636.764.804 1.49h-.017l.352 1.708.017.016c.145.503.279.86.401 1.072h-.016c.357.648.904.904 1.64.77.882-.2 1.597-.625 2.144-1.272.424-.502.564-1.15.419-1.942v-.017c-.101-.614-.397-1.334-.888-2.16a57.37 57.37 0 0 1-1.105-1.876c-.335-.591-.57-1.043-.703-1.356-.28-.592-.307-1.24-.084-1.942.19-.626.313-1.2.368-1.725.157-1.518-.318-2.953-1.423-4.303l-.218-.285c1.775-1.462 4.013-3.036 6.715-4.722h-.017c3.092-1.875 5.43-3.31 7.016-4.303.09.178.134.418.134.72v1.741c0 .39.017.687.05.888.179 1.071.77 1.814 1.775 2.227l1.105.401c.916.335 1.519.955 1.809 1.86.19.59.351 1.127.485 1.607.413 1.529 1.279 2.578 2.596 3.147 1.607.715 2.617 2.027 3.03 3.936l.352 1.64.017.017c.134.525.251.904.352 1.139.245.58.68.776 1.306.586h.016c.212-.09.358-.156.436-.201v-.017c.837-.603 1.434-1.2 1.791-1.791v.016c.38-.58.374-1.15-.016-1.708a7.552 7.552 0 0 0-.82-.97c-1.173-1.206-1.541-2.697-1.106-4.472l.603-2.41v-.018c.458-2.054-.045-3.812-1.507-5.274-.19-.19-.447-.48-.77-.87-.402-.47-.57-1.028-.503-1.675.112-1.184.129-2.082.05-2.696-.19-1.652-.831-3.16-1.925-4.521l-.369-.452.201-.218c1.24-1.317 2.562-2.97 3.969-4.956l2.913-4.002v-.017c.09-.1.173-.19.252-.268.178.614.295 1.01.351 1.189.603 2.378 2.104 4.12 4.504 5.224.224.1.67.324 1.34.67 1.128.57 1.903 1.49 2.328 2.763.2.625.463 1.58.786 2.863.346 1.317.927 2.283 1.742 2.897.268.2.642.44 1.122.72 1.239.67 2.093 1.691 2.562 3.064.111.335.262.832.452 1.49.178.67.324 1.173.435 1.508v-.017c.424 1.306.798 2.277 1.122 2.913.949 1.775 2.417 2.947 4.404 3.517h-.017c.28.078.625.106 1.038.083.648-.044.983-.418 1.005-1.121v-.017c0-.313-.073-.636-.218-.971a7.905 7.905 0 0 0-.435-.838 133.1 133.1 0 0 1-.87-1.356c-.715-1.172-.821-2.367-.319-3.583h.017c.39-.983.692-1.825.904-2.529.28-.893.212-1.897-.201-3.014-.268-.737-.737-1.58-1.407-2.528v-.017a60.914 60.914 0 0 1-1.674-2.512c-.145-.223-.285-.53-.419-.92-.38-.96-.279-1.854.302-2.68l.485-.72c.693-.97.787-2.065.285-3.282l-.335-.736c-.792-1.54-.742-3.11.15-4.706l1.123-1.942c.19-.368.351-.709.485-1.021.313-.882.268-1.73-.134-2.546-.401-.78-.625-1.378-.67-1.791-.022-.246-.016-.39.017-.436.034-.044.162-.094.385-.15 2.166-.58 4.494-.988 6.983-1.223a51.89 51.89 0 0 1 8.356-.1c.066 0 .15.006.25.017l-.2.435c-.29.625-.218 1.189.217 1.691l.402.486c.904.971 1.284 2.188 1.139 3.65-.045.458-.179 1.334-.402 2.63-.134.77-.212 1.316-.234 1.64a6.879 6.879 0 0 0 .033 1.675 3.85 3.85 0 0 0 1.206 2.176l.653.57c.58.524.837 1.155.77 1.892v.016c-.045.637-.15 1.279-.318 1.926-.1.346-.257.927-.469 1.741a28.289 28.289 0 0 0-.452 1.725h-.017c-.368 1.63-.095 3.031.82 4.203.76.949.922 2.07.486 3.366-.502 1.574-.725 2.958-.67 4.152.112 2.2.659 4.025 1.641 5.476.302.469.72.915 1.256 1.34.614.524 1.29.619 2.026.284.67-.301.96-.804.871-1.507v-.017a32.39 32.39 0 0 0-.335-1.323c-.212-.848-.24-1.557-.084-2.126.168-.715.642-1.407 1.424-2.076l.753-.653c1.195-1.039 1.624-2.361 1.29-3.969a68.349 68.349 0 0 1-.469-2.478c-.168-1.183.134-2.266.904-3.248.089-.112.368-.413.837-.905h-.017a41.95 41.95 0 0 0 1.256-1.29c.938-1.115 1.306-2.516 1.105-4.202a35.111 35.111 0 0 1-.201-2.026c-.067-1.139.352-2.099 1.256-2.88a7.35 7.35 0 0 1 1.172-.888c2.211-1.45 3.578-3.61 4.103-6.48l.1-.435 3.784 1.29Zm-4.403-1.49c-.413 2.724-1.524 4.778-3.332 6.162-1.094.815-1.736 1.312-1.926 1.49-.971.837-1.429 1.915-1.373 3.232l.218 2.277v.017c.2 1.507-.246 2.835-1.34 3.985-.246.268-.541.558-.887.87-1.641 1.474-2.227 3.277-1.759 5.41l.017.016c.078.357.201.96.368 1.809.257 1.283-.083 2.355-1.02 3.215a51.266 51.266 0 0 0-1.273 1.121c-1.184 1.161-1.563 2.54-1.14 4.136l.319 1.256c.112.435.056.765-.167.988-.369.301-.776.374-1.223.218h-.016c-.425-.145-.838-.458-1.24-.938-.48-.592-.87-1.295-1.172-2.11-.86-2.411-.932-4.755-.217-7.033.178-.591.306-1.155.385-1.69.123-.77-.034-1.502-.47-2.194a9.012 9.012 0 0 0-.267-.385c-.882-1.117-1.133-2.478-.754-4.086.413-1.407.704-2.462.871-3.165.168-.703.285-1.406.352-2.11.1-.926-.218-1.708-.955-2.344l-.368-.318-.017-.017c-1.027-.77-1.473-1.875-1.34-3.315.056-.491.224-1.546.503-3.165.2-1.194.229-2.216.084-3.064a4.64 4.64 0 0 0-1.055-2.244l-.369-.418c-.267-.324-.407-.614-.418-.871 0-.257.117-.553.352-.888h-.017a.43.43 0 0 1 .368-.184h.017c.413.056 1.239.15 2.478.285 1.038.123 1.87.229 2.495.318 3.248.491 6.692 1.233 10.331 2.227.581.168 2.138.63 4.672 1.39l.285.117Zm.485 13.111v-.017c.291-.279.67-.524 1.139-.736h.017c.725-.346 1.278-.146 1.657.602.268.525.43 1.245.486 2.16l.033.67c0 .034.017.067.051.1l.016.017c-.033.201-.072.475-.117.82a7.604 7.604 0 0 1-.184.888c-.134.447-.368.77-.703.972-.335.178-.731.217-1.189.117-1.34-.28-2.4-1.022-3.182-2.227-.2-.302-.295-.553-.284-.754.022-.2.162-.44.418-.72.793-.87 1.407-1.501 1.842-1.892Zm37.324 32.87a.924.924 0 0 1 .787.016c2.21.95 4.437 1.535 6.681 1.758.29.023.658.034 1.105.034l.586-.017-.084.034h.017c-2.266.848-4.577 2.12-6.932 3.817-1.195.849-2.534 1.92-4.019 3.215-.871.737-2.16 1.876-3.868 3.416-.547.48-1.362 1.217-2.445 2.21-.948.827-1.802 1.496-2.561 2.01h-.017c-.179.123-.865.558-2.06 1.306.447-1.284.704-2.037.771-2.26a24.451 24.451 0 0 0 1.004-7.636c0-.28.078-.497.235-.653 3.081-3.137 6.681-5.554 10.8-7.25Zm-9.26 16.191c.882-.692 2.021-1.663 3.416-2.913.547-.514 2.534-2.266 5.961-5.258h.017l.184-.15-.352.803v.017c-1.239 3.059-1.747 6.43-1.523 10.114.111 1.897.468 4.269 1.071 7.116.413 1.898 1.077 4.744 1.993 8.54l-.017-.017.101.502-.118.034c-.96.067-1.752.575-2.377 1.524-.436.625-.737 1.384-.905 2.277-.245 1.295-.256 2.4-.033 3.315l-1.959.168-.151-.854c-.212-1.239-.659-2.283-1.339-3.132a5.697 5.697 0 0 0-1.039-1.038h.017c-.391-.301-.753-.457-1.088-.469-.38-.022-.804.129-1.273.453-.547.346-.971.96-1.272 1.841-.335.96-.514 2.183-.536 3.667v.972l-2.026-.503c-.134-.044-.212-.128-.235-.251-.19-1.362-.547-3.019-1.071-4.973-.614-2.177-1.055-3.818-1.323-4.923-.67-2.746-1.105-4.951-1.306-6.614a37.618 37.618 0 0 0-.184-1.792.836.836 0 0 1 .217-.653v-.016a26.29 26.29 0 0 0 3.064-4.974c0-.01.006-.016.017-.016a.564.564 0 0 1 .285-.318c1.217-.626 2.478-1.452 3.784-2.479Zm-17.682-24.296c.681-.647 1.418-.798 2.21-.452a4.59 4.59 0 0 1 2.194 2.043c.491.904.335 1.658-.469 2.26-.335.257-.809.52-1.423.787h.016c-.926.358-2.143.637-3.65.838-.19.022-.313.022-.368 0-.045-.045-.079-.157-.101-.335-.033-.391-.056-.631-.067-.72.101-1.485.486-2.746 1.156-3.785a3.31 3.31 0 0 1 .502-.636Zm-14.97 22.37.235-.083a100.492 100.492 0 0 0-.318 11.118 48.936 48.936 0 0 1-4.806 1.407 46.66 46.66 0 0 1-6.397 1.055c-3.08.301-5.626.368-7.635.201a471.783 471.783 0 0 1-3.098-.235 62.824 62.824 0 0 1-3.064-.318c-.781-.1-1.713-.256-2.796-.469-1.25-.256-2.188-.446-2.813-.569-.201-.033-.882-.19-2.043-.469 1.574-1.864 2.852-3.6 3.834-5.207a36.112 36.112 0 0 0 2.83-5.827c1.24.524 2.07.865 2.495 1.021a21.545 21.545 0 0 0 6.028 1.323c1.328.1 2.73.14 4.203.117 1.697-.022 3.734-.285 6.112-.787a41.431 41.431 0 0 0 7.233-2.294v.017Zm9.026 31.681c.134-.29.329-.569.586-.837.357-.379.775-.569 1.255-.569.492.022.916.234 1.273.636.301.346.564.849.787 1.507.19.625.335 1.345.435 2.16.056.491.112 1.234.168 2.227 0 .224-.117.369-.352.436l.017-.017c-.681.1-1.189.178-1.524.234-.949-.056-1.764-.195-2.444-.418h.016a6.168 6.168 0 0 1-.87-.419h.016a.506.506 0 0 1-.251-.486v-.016c.022-1.708.318-3.193.888-4.454v.016Zm7.618-.351c.168-.436.408-.865.72-1.29.391-.513.927-.658 1.608-.435.904.29 1.68.949 2.327 1.976.558.893.977 2.115 1.256 3.667.022.134-.045.279-.201.435-.446.436-1.004.771-1.674 1.005-.547.179-1.239.357-2.077.536-.189.045-.474.033-.854-.034-.547-.067-.926-.374-1.138-.921-.268-.692-.402-1.507-.402-2.444a6.305 6.305 0 0 1 .435-2.495Zm16.611-7.518c.312-.391.664-.598 1.055-.62.379-.022.759.134 1.138.469.681.591 1.2 1.395 1.558 2.411.357.982.508 2.06.452 3.232-.023.435-.24.72-.653.854a6.002 6.002 0 0 1-1.239.251 8.904 8.904 0 0 1-3.065-.335 1.65 1.65 0 0 1-.334-.151c-.034-.067-.056-.201-.067-.402v-1.172c0-1.328.145-2.389.435-3.181v-.017c.178-.536.418-.982.72-1.339Zm-6.966 2.578h.017c.48-.056.904.123 1.273.536.279.324.524.748.736 1.273.179.446.313.971.402 1.574.056.312.123.887.201 1.724a3.896 3.896 0 0 0-.1.318 1.45 1.45 0 0 1-.185.352v.017a3.926 3.926 0 0 1-2.31 1.657c-.224.045-.385.051-.486.017h.017c-.101-.056-.19-.184-.268-.385v.017c-.715-1.82-.971-3.556-.77-5.208a3.1 3.1 0 0 1 .351-1.055c.257-.48.631-.759 1.122-.837Zm16.929-5.023c.268-.056.463-.062.586-.017.089.067.184.24.285.519v-.017c.625 1.853.943 3.517.954 4.99 0 .681-.067 1.117-.201 1.306-.123.112-.486.274-1.088.486-.648.201-1.234.246-1.758.134v.017c-.804-.19-1.267-.687-1.39-1.491a5.99 5.99 0 0 1-.051-.87c.034-1.362.285-2.512.754-3.45.469-.904 1.105-1.44 1.909-1.607Zm28.599-36.47-.016-.016c.19.078.469.19.837.334.301.1.553.213.753.335h.017c.871.48 1.513 1.312 1.926 2.495.178.514.123 1.161-.168 1.943-.067.156-.201.206-.401.15-4.12-1.216-7.463-2.83-10.03-4.839l-.017-.017-.235-.2c1.094-.726 2.233-1 3.416-.821.793.112 1.502.44 2.127.988.513.424.926.725 1.239.904a.14.14 0 0 0 .117.017.164.164 0 0 0 .101-.067.182.182 0 0 0 .033-.1c0-.045-.011-.079-.033-.101l-.737-.804c.178-.111.329-.184.452-.218a.906.906 0 0 1 .619.017Zm-1.557-.318-.284-.184.418.117-.134.067Zm-4.604-.787c-.358.1-.933.38-1.725.837-1.518-1.328-2.674-2.79-3.466-4.387.859.77 1.881 1.44 3.064 2.01.848.424 1.965.865 3.349 1.322-.525.045-.932.118-1.222.218ZM72.926 35.95c-.424.792-.687 1.311-.787 1.557-.636 1.395-.625 2.801.033 4.22v.016c.268.536.464.982.587 1.34.279.814.178 1.574-.302 2.277l-.62.92c-.647.983-.764 1.965-.351 2.948.279.692.653 1.412 1.122 2.16v-.017c.156.268.413.642.77 1.122.357.469.608.826.754 1.072v.016c.401.637.72 1.273.954 1.91.39.993.396 2.025.017 3.097a38.484 38.484 0 0 1-.754 1.875c-.603 1.396-.48 2.774.369 4.136v-.016c.2.357.524.887.97 1.59l.017.017c.213.402.347.804.402 1.206.034.19.011.34-.067.452-.111.1-.284.156-.519.167-.535.022-1.172-.167-1.909-.57-1.596-.848-2.684-2.098-3.265-3.75-.156-.413-.569-1.753-1.239-4.019-.38-1.283-.887-2.249-1.524-2.896-.133-.134-.575-.508-1.322-1.122l-.017-.017a4.335 4.335 0 0 0-.703-.419 3.864 3.864 0 0 1-1.892-2.294c-.146-.435-.402-1.367-.77-2.796-.414-1.574-1.134-2.718-2.16-3.433-.202-.134-.464-.29-.788-.468a40.263 40.263 0 0 1-.77-.42l-.017-.016c-1.005-.547-1.697-.943-2.076-1.189-1.038-.647-1.809-1.674-2.31-3.08-.291-.927-.503-1.62-.637-2.077-.09-.234-.04-.452.15-.653h.017c1.518-1.641 3.41-3.064 5.677-4.27 2.59-1.418 5.86-2.768 9.812-4.052A91.55 91.55 0 0 1 73.16 29.4c.045.737.29 1.524.737 2.361.413.737.424 1.518.034 2.344v-.016l-1.005 1.858ZM45.75 49.578c.413.39.809.931 1.188 1.624h.017c.893 1.585 1.211 3.203.955 4.855-.224 1.44.212 2.657 1.306 3.65h-.017c1.273 1.173 1.792 2.596 1.557 4.27-.033.235-.14.754-.318 1.558h.017c-.1.39-.251.971-.452 1.741h-.017c-.368 1.753.017 3.243 1.155 4.471.447.502.726.826.837.971.19.246.285.458.285.637v.016c0 .19-.078.397-.234.62h-.017c-.558.636-1.077 1.138-1.557 1.507-.246.19-.447.268-.603.234-.167-.078-.29-.273-.368-.586-.045-.123-.218-.865-.52-2.227-.279-1.228-.708-2.21-1.289-2.947a5.043 5.043 0 0 0-1.557-1.306l-.787-.385c-.971-.525-1.619-1.295-1.942-2.31a21.39 21.39 0 0 1-.503-1.642c-.38-1.395-1.228-2.294-2.545-2.696h.017a20.91 20.91 0 0 0-.754-.284c-.97-.38-1.484-1.083-1.54-2.11.011-.76.005-1.317-.017-1.675a331.04 331.04 0 0 0-.1-1.707c3.07-2.088 5.67-4.181 7.803-6.28ZM23.563 66.272a4.85 4.85 0 0 1 .988 2.11c.223 1.004.168 1.93-.167 2.78v.016c-.425 1.05-.324 2.143.301 3.282h.017c.29.535.759 1.34 1.406 2.41h-.017c.458.838.748 1.441.871 1.81.246.725.14 1.4-.318 2.025-.446.614-1.06.921-1.842.921-.402 0-.675-.156-.82-.468a5.773 5.773 0 0 1-.335-1.022c-.145-.804-.274-1.395-.385-1.775v.017a5.793 5.793 0 0 0-.486-1.172c-.324-.547-.815-.837-1.473-.87a6.217 6.217 0 0 0-1.156.033c-.938.145-1.825-.129-2.662-.82-.77-.66-1.457-1.62-2.06-2.88.927-1.184 2.16-2.379 3.7-3.584 1.53-1.195 3.01-2.132 4.438-2.813Zm13.094 24.514c-2.869-.358-5.47-.14-7.803.653-2.935.993-5.308 2.835-7.116 5.525-1.83 2.713-2.841 5.744-3.03 9.093-.112 2.176.407 4.348 1.556 6.513.77 1.451 1.848 2.847 3.232 4.186-2.701-1.585-4.705-3.533-6.011-5.843-1.395-2.456-1.965-5.152-1.708-8.088.346-4.052 1.931-7.954 4.755-11.704 1.82-2.445 3.969-4.454 6.447-6.028 2.065-1.34 4.393-2.172 6.982-2.495 2.307-.29 4.953-.285 7.937.016l.1.017 3.015 10.499-.335-.134c-2.88-1.15-5.554-1.887-8.02-2.21ZM22.66 66.055l.469-.385.084.084-.553.301ZM7.32 84.005c.38.09.692.274.938.553.223.256.357.591.401 1.004.034.28.028.62-.016 1.022v.016c-.045.681.167 1.268.636 1.759.469.469.927.865 1.373 1.189.547.424 1.39 1.043 2.528 1.858.335.257.615.558.838.904v.017c.212.335.284.698.217 1.088-.078.402-.29.793-.636 1.173-.2.2-.469.318-.804.351a1.701 1.701 0 0 1-1.004-.217v.016l-.586-.335h.016c-1.049-.725-2.277-.932-3.683-.62v.018c-.77.178-1.318.296-1.641.351-.614.1-1.172.123-1.675.067-.703-.067-1.328-.229-1.875-.485.96-3.282 2.405-6.553 4.337-9.813l.636.084Zm4.89 22.974c.089.569.1 1.127.033 1.674-.067.714-.48 1.088-1.24 1.122-.401 0-1.01-.017-1.824-.05h-.704c-.77.033-1.328.396-1.674 1.088a8.328 8.328 0 0 1-2.813 3.198l-.134.084c-1.25-2.467-2.077-5.007-2.478-7.619a5.83 5.83 0 0 1 2.243-.988h.017a4.392 4.392 0 0 1 1.524-.1h.017c.513.033.965.257 1.356.67.435.491.759.82.971.988.703.58 1.435.686 2.194.318h-.017c.38-.168.887-.452 1.524-.854h-.017c.368-.235.625-.33.77-.285.123.078.207.324.251.737v.017Zm5.34 10.867c.302.223.604.536.905.937.301.436.28.866-.067 1.29-.2.223-.48.485-.837.787l-1.172 1.021h-.017c-.636.636-.854 1.362-.653 2.177v.017c.212.937.145 1.791-.201 2.562v.016c-.011.012-.017.028-.017.051-.435-.224-1.205-.782-2.31-1.675h-.017c-1.161-.926-1.976-1.646-2.445-2.16.491-.737 1.206-1.189 2.143-1.356h.017c.179-.045.474-.09.888-.134 1.082-.123 1.83-.687 2.243-1.691.034-.078.207-.575.52-1.491.111-.39.228-.614.351-.669.134-.034.357.072.67.318Zm6.682 11.118a.65.65 0 0 1 .536-.167c1.44.234 2.623.597 3.55 1.088h-.017l.368.218c.491.335.77.72.837 1.155.067.424-.078.876-.435 1.356h-.017c-.256.302-.541.408-.854.319a9.161 9.161 0 0 1-1.44-.637v.017c-.982-.558-1.724-.971-2.227-1.239a7.527 7.527 0 0 0-2.495-.854l.118-.034c.915-.357 1.607-.764 2.076-1.222Zm24.966-.335c-.257-.111-.374-.296-.352-.552.112-1.898.536-3.494 1.273-4.789.346-.603.793-1.033 1.34-1.29h-.017c.904-.413 1.635-.223 2.193.57.402.547.676 1.244.82 2.093.034.201.107.837.218 1.909l-.301 2.243c-.022.213-.067.358-.134.436h-.017c-.078.067-.223.106-.435.117-.703.045-1.273.039-1.708-.017-1.127-.111-2.082-.351-2.863-.72h-.017Zm19.775-16.192c-.1-.882-.056-1.73.134-2.545A3.483 3.483 0 0 1 70.23 108c.971-.893 2.032-1.914 3.181-3.064h.017c.157-.179.358-.235.603-.168 2.98.659 4.733 1.038 5.258 1.139 2.165.413 4.309.692 6.43.837l2.193.117.251.051c-.558 2.232-.575 4.794-.05 7.685a1.69 1.69 0 0 0-.167-.1v-.017a14.715 14.715 0 0 0-.888-.435h-.017c-.468-.145-.876-.14-1.222.016-.368.157-.636.464-.803.921v-.016a6.014 6.014 0 0 0-.436 1.842 13.36 13.36 0 0 0 .201 4.002l.017.016c0 .023.005.095.016.218l-1.473.385c-.257-1.06-.407-1.674-.452-1.842-.134-.446-.38-1.111-.737-1.992h-.017c-.078-.201-.228-.458-.452-.771-.524-.714-1.177-1.043-1.959-.988-.792.045-1.406.453-1.842 1.223-.435.737-.692 1.674-.77 2.813-.033.48-.045 1.205-.033 2.177v.435c-2.5.268-4.627.296-6.38.084-.681-3.606-1.05-5.571-1.105-5.894a81.855 81.855 0 0 1-.62-4.237ZM57.79 124.091c.056-.234.134-.452.234-.653.235-.457.542-.753.921-.887.357-.145.782-.123 1.273.067.513.19.971.541 1.373 1.055.692.893 1.183 2.121 1.473 3.684.045.234.095.575.151 1.021v.017c.045.245-.044.407-.268.485h-.017c-.457.123-.792.218-1.004.285-.39.101-.726.162-1.005.184-.58.056-1.457.062-2.629.017-.312-.011-.508-.045-.586-.1-.078-.079-.128-.268-.15-.57l-.168-1.858c.045-1.106.179-2.021.402-2.747Zm10.147-3.817c.547.033.943.296 1.189.787.313.569.53 1.116.653 1.641.067.312.128.703.184 1.172.034.257.078.63.134 1.122-.033.022-.05.055-.05.1 0 .402.005.642.017.72.033.335-.106.586-.419.754a26.36 26.36 0 0 1-1.273.653 7.834 7.834 0 0 1-1.306.469l.017-.017-.552.083c-.168.012-.285.001-.352-.033-.067-.056-.123-.156-.168-.301-.67-2.043-.881-3.785-.636-5.225.246-1.384 1.1-2.026 2.562-1.925Zm17.448-4.488c.134-.636.413-1.027.837-1.172.424-.134.899.017 1.423.452.547.447.966 1.061 1.256 1.842.134.335.28.765.435 1.289.09.291.218.72.386 1.29.044.167-.023.318-.201.452a7.474 7.474 0 0 1-3.45 1.323c-.2.011-.346-.012-.435-.067-.09-.078-.15-.218-.184-.419-.056-.368-.179-1.306-.369-2.813l.134-1.088c.056-.436.112-.799.168-1.089Zm-5.626.72h.016c.514-.022.927.151 1.24.519.468.558.826 1.267 1.071 2.127.179.647.413 1.624.703 2.93.045.201-.016.335-.184.402h-.016c-.96.268-1.591.43-1.893.486-.937.167-1.713.195-2.327.083-.28-.033-.447-.067-.502-.1-.045-.067-.073-.212-.084-.436v-.016l-.1-1.189c.044-1.507.212-2.635.502-3.383.089-.267.223-.53.402-.787.267-.413.658-.625 1.172-.636Zm-62.86 14.685c.302 0 .514.117.637.352.659 1.306.899 2.484.72 3.533-.033.156-.095.402-.184.737-1.15-.079-2.099-.179-2.847-.302a14.733 14.733 0 0 1-2.813-.753c-.949-.391-1.663-.849-2.143-1.373v.016l-.285-.334v.016c-.212-.312-.284-.608-.217-.887.067-.29.268-.525.602-.703.425-.246.955-.38 1.591-.402.257-.012.664-.006 1.223.016 2.065.056 3.304.084 3.717.084Zm145.628-66.124a.163.163 0 0 0 .067-.084l.15-.335c.023-.044.028-.083.017-.117a.253.253 0 0 0-.083-.1l-.067-.034a.28.28 0 0 0-.084-.017.113.113 0 0 0-.084.034.101.101 0 0 0-.067.067l-.151.318a.211.211 0 0 0 0 .117c0 .034.017.062.051.084l.067.05c.022.023.055.034.1.034a.28.28 0 0 0 .084-.017Zm1.825-26.423h-.017c-.703-.558-1.445-.837-2.227-.837-.792.011-1.535.307-2.227.887a4.55 4.55 0 0 0-.519.47c-.58.613-1.083 1.417-1.507 2.41-.893 2.177-1.206 4.661-.938 7.452a12.26 12.26 0 0 0 1.055 4.002c.525 1.15 1.172 2.031 1.943 2.645.703.57 1.445.849 2.227.838.781 0 1.529-.29 2.243-.871.626-.536 1.156-1.211 1.591-2.026.938-1.809 1.418-3.924 1.44-6.346 0-2.21-.368-4.159-1.105-5.844-.525-1.217-1.178-2.143-1.959-2.78Zm-4.504 1.708c.703-.68 1.462-1.021 2.277-1.021.815 0 1.574.34 2.277 1.021.659.659 1.206 1.552 1.641 2.68.514 1.372.77 3.064.77 5.073a10.814 10.814 0 0 1-1.339 5.124h.017c-.402.703-.854 1.272-1.357 1.708-.636.524-1.306.787-2.009.787-.714 0-1.384-.263-2.009-.787-.503-.436-.96-1.022-1.373-1.759-.726-1.317-1.15-2.83-1.273-4.537v-.017c-.179-2.221.134-4.259.938-6.112.368-.86.848-1.58 1.44-2.16Zm2.093 5.275a.254.254 0 0 0 .1-.084.186.186 0 0 0-.017-.134.107.107 0 0 0-.083-.084c-.871-.368-1.664-.301-2.378.201-.815.558-1.351 1.39-1.607 2.495-.492 1.954-.173 3.617.954 4.99l.017.017c.558.692 1.217 1.038 1.976 1.038.748.011 1.417-.324 2.009-1.005 1.072-1.261 1.418-2.863 1.038-4.805v-.017c-.112-.659-.324-1.167-.636-1.524a.264.264 0 0 0-.101-.067.11.11 0 0 0-.1.017c-.045.022-.073.05-.084.084-.257.58-.647.831-1.172.753a.797.797 0 0 1-.452-.251h-.017a.784.784 0 0 1-.234-.469c-.067-.491.195-.876.787-1.155Zm-2.311 6.195h.017c.078 0 .15.034.217.1l.017.017a.294.294 0 0 1 .084.218c0 .09-.028.168-.084.235-.011 0-.017.005-.017.016a.292.292 0 0 1-.217.084h-.017a.347.347 0 0 1-.201-.1l-.017-.017c-.067-.067-.095-.14-.083-.218a.441.441 0 0 1 .1-.234h.017a.274.274 0 0 1 .184-.1Zm9.544-16.744c.146.256.374.63.687 1.121.011.034.039.062.084.084a.141.141 0 0 0 .117-.017.315.315 0 0 0 .084-.083.143.143 0 0 0 .016-.117c-.513-1.63-1.429-2.942-2.746-3.935-1.462-1.105-3.187-1.614-5.174-1.524-1.596.09-3.103.731-4.521 1.925-1.451 1.173-2.294 2.479-2.528 3.919 0 .033.011.067.033.1.011.034.039.061.084.084a.154.154 0 0 0 .1 0l.101-.067c.145-.257.379-.659.703-1.206.279-.48.536-.882.77-1.205 1.429-1.943 3.36-2.914 5.794-2.914 2.389 0 4.275.921 5.66 2.763.212.29.457.653.736 1.088v-.016Z"/></svg>