<svg width="200" height="158" viewBox="0 0 200 158" fill="none" xmlns="http://www.w3.org/2000/svg">
<g clip-path="url(#clip0_513_2)">
<path d="M188.647 42.783C187.349 41.301 186.378 40.1817 185.734 39.4253C185.049 38.6178 183.444 36.7576 180.92 33.8445C175.666 27.7934 172.814 24.5175 172.364 24.0167C169.983 21.3387 167.688 18.8549 165.48 16.5653C164.356 15.4001 161.346 12.3848 156.45 7.51941L152.049 3.11912C150.986 2.04588 150.184 1.24862 149.642 0.727329C149.06 0.195819 148.426 -0.0443821 147.741 0.00672458L135.414 1.17196C133.37 1.3355 131.842 1.46838 130.83 1.57059C128.53 1.80568 126.23 2.05099 123.93 2.30653C123.419 2.36785 122.597 2.48029 121.462 2.64383L108.66 4.2077C105.726 4.53478 103.529 4.78009 102.067 4.94363L94.6617 5.72557C93.0263 5.87889 91.7997 5.99643 90.982 6.0782L85.0025 6.70681C83.408 6.88058 81.0162 7.12589 77.8271 7.44275C75.7522 7.66762 73.3502 7.95382 70.6211 8.30134C69.2923 8.45466 67.9584 8.63865 66.6194 8.8533C64.8 9.13949 63.0317 9.44613 61.3145 9.77322C59.2805 10.1514 57.5786 10.504 56.209 10.8311C55.5344 10.9947 55.0284 11.1429 54.6911 11.2758C54.1494 11.5006 53.7099 11.7919 53.3726 12.1497C53.0659 12.4665 52.6366 12.9725 52.0847 13.6675C51.6145 14.2502 50.9092 15.1343 49.9689 16.32C48.681 17.8839 46.7389 20.2297 44.1427 23.3574C42.9468 24.819 41.1734 27.0268 38.8225 29.9808L34.1156 35.7916C30.998 39.6451 28.8362 42.2924 27.6301 43.7336C24.1549 47.8835 21.666 50.9703 20.1634 52.9942L14.4599 60.6755C13.7342 61.667 12.2828 63.6908 10.1056 66.747C8.63374 68.8526 7.1772 70.9684 5.73599 73.0944C5.34758 73.6771 4.75985 74.5459 3.97281 75.7009C3.28798 76.6924 2.65937 77.5305 2.08697 78.2153C1.53502 78.8797 0.977958 79.6617 0.415784 80.5611C0.00693042 81.2255 -0.100395 81.8592 0.0938109 82.4623C0.39023 83.3618 0.896185 84.2357 1.61168 85.0841C2.09208 85.636 2.6287 85.9171 3.22154 85.9273C4.04947 85.9784 4.67297 85.9938 5.09205 85.9733C6.52304 85.8813 7.71382 85.8967 8.66441 86.0193C9.2368 86.0807 10.5911 86.1982 12.7274 86.372L13.0187 86.418C13.0698 86.6428 13.0391 86.8524 12.9267 87.0466C12.8552 87.1692 12.7223 87.3277 12.5281 87.5219C12.201 87.8387 11.695 88.2936 11.0102 88.8864C9.30324 90.4707 8.28622 91.4264 7.95913 91.7535C7.19253 92.5508 6.70191 93.4349 6.48726 94.4059C6.14996 95.9289 6.13462 97.3344 6.44126 98.6222C6.71724 99.7875 7.23342 100.799 7.9898 101.658C8.97105 102.803 10.2845 103.62 11.9301 104.111C13.1465 104.459 14.4395 104.602 15.8091 104.54H16.3304C16.3611 104.724 16.402 104.959 16.4531 105.246C16.7188 108.496 16.8262 111.757 16.775 115.027C16.6728 120.159 16.6831 124.135 16.8057 126.956C16.8261 127.467 16.8721 127.978 16.9437 128.489C16.9846 128.714 17.0817 128.888 17.235 129.01C17.5314 129.225 17.7972 129.358 18.0323 129.409C19.6064 129.808 20.9505 130.119 22.0646 130.344C24.7221 130.814 26.7102 131.167 28.0287 131.402C28.1821 131.433 28.5194 131.515 29.0407 131.647L28.918 132.061C28.4376 133.124 28.1258 134.29 27.9827 135.557C27.6659 138.491 28.4836 140.974 30.4359 143.008C32.8685 145.564 35.5874 147.143 38.5925 147.746C39.9315 148.012 41.0967 148.094 42.0882 147.991L44.0047 147.792L44.2807 149.249C44.7917 151.712 46.1665 153.608 48.405 154.937C49.8155 155.765 51.5838 156.398 53.7099 156.838C55.7439 157.257 57.4918 157.426 58.9534 157.344C60.1391 157.293 61.0948 157.175 61.8205 156.991C64.4678 156.337 66.4661 154.707 67.8153 152.1C68.6637 150.455 69.1134 148.62 69.1645 146.596C69.2156 144.266 68.8017 142.129 67.9227 140.187C67.8715 140.024 67.8307 139.896 67.8 139.804L68.03 139.697C69.1748 139.308 70.0282 139.007 70.5904 138.792C73.6773 137.535 75.9873 136.6 77.5205 135.986C78.42 135.68 79.1355 135.434 79.667 135.25C79.667 135.71 79.6619 135.976 79.6516 136.048L79.437 137.627C79.3654 138.465 79.3348 138.986 79.345 139.191C79.3757 139.845 79.6823 140.31 80.2649 140.586C80.5716 140.729 80.8782 140.831 81.1848 140.893L98.0041 144.097C98.4129 144.179 98.9751 144.266 99.6906 144.358L108.292 145.615C109.079 145.748 109.897 145.901 110.745 146.075C112.074 146.341 113.086 146.463 113.781 146.443C114.435 146.412 115.058 146.218 115.651 145.86C116.254 145.492 116.699 145.247 116.985 145.124C117.496 144.91 118.268 144.608 119.3 144.22L126.23 141.736C127.784 141.194 128.745 140.852 129.113 140.709C131.126 139.932 132.813 139.267 134.172 138.715C135.368 138.215 137.157 137.453 139.538 136.431C141.01 135.828 143.218 134.939 146.162 133.763C148.554 132.802 150.44 132.02 151.819 131.417C152.831 130.978 155.397 129.833 159.516 127.983L164.453 125.699C167.387 124.339 169.359 123.429 170.371 122.969C172.702 121.886 174.388 121.13 175.431 120.7L182.008 118.033C183.184 117.552 184.947 116.837 187.298 115.886C187.533 115.784 188.391 115.39 189.873 114.706C190.446 114.45 190.758 113.949 190.809 113.203L191.115 108.45C191.371 104.546 191.519 102.2 191.56 101.413C191.693 99.0515 191.862 95.5098 192.066 90.7876C192.342 84.941 192.48 81.9717 192.48 81.8797L192.894 74.1524C192.925 73.1609 192.95 72.4147 192.971 71.9139C193.001 71.0246 193.068 70.2785 193.17 69.6754C193.272 69.0826 193.512 68.6482 193.89 68.3722L194.933 67.5902C196.037 66.7828 196.87 66.0162 197.432 65.2904C198.597 63.8083 199.41 62.1014 199.87 60.1696C200.085 59.3007 200.033 58.483 199.717 57.7164C199.4 56.9601 198.996 56.2599 198.505 55.6159L195.454 51.599C194.442 50.26 193.109 48.4763 191.453 46.2481C190.717 45.2566 189.781 44.1016 188.647 42.783ZM180.322 35.255C180.874 35.9194 182.698 38.1374 185.795 41.9091L191.146 48.4559C192.086 49.6109 193.487 51.3434 195.347 53.6534C195.705 54.093 196.277 54.7267 197.064 55.5546C197.882 56.4745 198.183 57.5018 197.969 58.6364C197.897 59.0452 197.672 59.4949 197.294 59.9856C196.66 60.8442 195.73 61.6056 194.504 62.27C193.308 62.9242 192.102 63.4046 190.885 63.7112C190.313 63.8646 189.618 63.9054 188.8 63.8339C188.453 63.793 188.161 63.6295 187.926 63.3433C187.466 62.8322 187.119 62.4438 186.884 62.178C186.485 61.7283 186.158 61.3297 185.902 60.9821C183.889 58.1815 182.361 56.0912 181.318 54.7114C180.838 54.0879 180.245 53.3417 179.54 52.4729C178.732 51.5019 178.124 50.771 177.715 50.2804L174.265 46.1254C171.424 42.7217 169.758 40.7439 169.267 40.1919C168.317 39.088 166.426 36.9518 163.594 33.7832L152.494 21.2109C150.409 18.8804 148.835 17.1479 147.772 16.0133C147.036 15.2161 145.901 14.0508 144.368 12.5176C142.917 11.0662 141.976 10.1361 141.547 9.72722C141.199 9.38992 140.172 8.41889 138.465 6.81414C136.942 5.39337 135.716 4.08504 134.786 2.88914L134.586 2.61317L147.373 1.63192C148.078 1.58081 148.666 1.79035 149.136 2.26053L153.399 6.47683C156.445 9.47169 158.259 11.2604 158.841 11.843C161.601 14.6232 163.538 16.6164 164.652 17.8225C165.45 18.6811 166.543 19.9026 167.933 21.4869C169.456 23.2143 170.55 24.4408 171.214 25.1666C171.766 25.7696 172.605 26.6589 173.729 27.8343C174.853 29.0098 175.686 29.899 176.228 30.5021C177.373 31.7593 178.737 33.3436 180.322 35.255ZM180.23 54.5887C180.659 55.1304 181.277 55.9635 182.085 57.0878L185.688 61.8254C185.913 62.1116 186.337 62.7096 186.96 63.6193C187.175 63.9361 187.185 64.2887 186.991 64.6772C186.531 65.5766 185.846 66.3739 184.937 67.069C183.812 67.9378 182.402 68.5459 180.705 68.8935C179.785 69.0774 178.773 69.1439 177.669 69.0928C176.3 69.0315 175.129 68.4948 174.158 67.4829C171.48 64.6414 169.533 62.454 168.317 60.9208C167.816 60.2973 167.177 59.5358 166.4 58.6364C165.531 57.6449 164.882 56.8987 164.453 56.3979C162.286 53.8834 160.651 51.9976 159.547 50.7404C158.31 49.3094 156.951 47.7915 155.468 46.1868C153.036 43.5088 151.191 41.5105 149.934 40.1919C149.024 39.2414 147.767 37.9484 146.162 36.3129C144.343 34.4527 143.085 33.1648 142.39 32.4493L135.123 24.7219C132.424 21.8088 130.38 19.6368 128.99 18.2058C127.733 16.9179 125.341 14.521 121.815 11.0151C120.915 10.1259 119.535 8.81241 117.675 7.07478C117.511 6.92146 117.287 6.73748 117 6.52283C116.612 6.23663 116.377 6.06287 116.295 6.00154C116.07 5.81756 115.912 5.65913 115.82 5.52625C115.677 5.33204 115.6 5.11229 115.59 4.86697L122.796 3.97772C124.738 3.75285 126.598 3.52287 128.377 3.28777C129.317 3.16512 130.007 3.04246 130.447 2.91981C131.97 2.47007 133.355 2.87381 134.602 4.13104C135.685 5.23494 137.331 6.87036 139.538 9.03728C140.734 10.2025 142.538 11.9504 144.951 14.2808C147.506 16.7851 149.755 19.1769 151.697 21.4562C154.61 24.8599 157.538 28.2483 160.482 31.6213C161.494 32.7866 163.053 34.5089 165.158 36.7882C168.347 40.3248 170.53 42.7779 171.705 44.1476C172.421 44.996 173.305 46.0692 174.357 47.3673C174.94 48.0828 175.809 49.1612 176.964 50.6024C177.69 51.4916 178.778 52.8204 180.23 54.5887ZM186.148 67.1763C185.974 67.5443 185.862 67.7691 185.811 67.8509C184.921 69.4148 183.899 70.6618 182.744 71.5919C180.761 73.1967 178.497 73.8304 175.952 73.4931C175.911 73.4931 175.758 73.4573 175.492 73.3858L176.366 69.9974L178.206 70.0587C178.799 70.0791 179.289 70.074 179.678 70.0434C182.213 69.8492 184.293 68.9241 185.918 67.2683C185.979 67.2069 186.056 67.1763 186.148 67.1763ZM187.543 66.517C187.655 66.1286 187.809 65.638 188.003 65.0451L190.395 64.6158C192.654 64.1661 194.458 63.4915 195.807 62.592C195.971 62.4898 196.425 62.1269 197.172 61.5034L197.616 61.0895C197.136 63.2155 195.95 64.9531 194.059 66.3024C192.035 67.7436 189.72 68.316 187.114 68.0195C187.124 67.8049 187.18 67.5494 187.282 67.2529C187.405 66.9259 187.492 66.6805 187.543 66.517ZM179.202 74.4743C180.531 74.1779 181.758 73.6004 182.882 72.7418C183.833 72.0161 184.763 71.0399 185.673 69.8134L186.332 68.8935C187.129 69.241 188.008 69.379 188.969 69.3074C189.582 69.2563 190.446 69.0826 191.56 68.7861C191.672 69.4505 191.703 70.2171 191.652 71.086C191.652 71.1677 191.529 72.8133 191.284 76.0229L191.223 77.2954L158.857 88.7791C154.196 90.4247 151.549 91.3651 150.915 91.6002C150.24 91.8557 149.382 92.2083 148.339 92.6581C146.867 93.2918 146.019 93.6547 145.794 93.7467C145.692 93.7875 144.716 94.1555 142.866 94.8506L130.017 99.4502C129.69 99.5728 128.085 100.181 125.203 101.275L115.529 104.985C115.447 105.026 115.258 105.087 114.961 105.169C114.9 104.821 114.874 104.423 114.885 103.973C114.915 103.452 114.936 103.063 114.946 102.808C115.007 101.898 115.043 101.218 115.053 100.769C115.053 100.421 115.196 100.186 115.483 100.063L118.672 98.6222C118.999 98.4689 119.29 98.3105 119.546 98.147C119.229 98.0958 118.881 98.1112 118.503 98.1929C118.299 98.2338 117.966 98.3309 117.506 98.4842L115.467 99.1589C115.437 99.1691 115.304 99.1844 115.069 99.2049C115.181 97.7739 115.222 96.0362 115.191 93.992C115.12 91.6922 115.079 89.9648 115.069 88.8098C115.212 88.7586 115.334 88.7638 115.437 88.8251C115.508 88.8557 115.585 88.9324 115.667 89.0551L117.997 91.9681C119.009 93.2458 120.425 94.2117 122.244 94.8659C124.043 95.5303 126.021 95.7705 128.177 95.5865C130.59 95.4025 132.813 94.7279 134.847 93.5627C136.656 92.5405 138.016 91.2118 138.925 89.5764L139.63 88.0738L140.382 88.4111C141.833 89.0857 143.433 89.4077 145.181 89.377C148.36 89.3157 151.247 88.3345 153.843 86.4333C155.632 85.125 156.838 83.6378 157.462 81.9717C157.472 81.9308 157.528 81.8337 157.63 81.6804C158.642 82.0688 159.322 82.3141 159.669 82.4163C161.274 82.8865 162.956 82.9734 164.714 82.6769C166.226 82.4214 167.673 81.895 169.053 81.0977C171.404 79.7485 173.238 77.8934 174.557 75.5322C174.649 75.3278 174.72 75.1745 174.771 75.0723L175.017 74.6123C175.201 74.6328 175.487 74.6583 175.875 74.689C176.867 74.8219 177.976 74.7503 179.202 74.4743ZM190.671 82.1097C190.436 82.2528 190.078 82.4674 189.598 82.7536C189.178 82.9989 188.81 83.1829 188.494 83.3056C187.85 83.5713 186.224 84.1795 183.618 85.1301C182.535 85.5185 181.446 85.8864 180.352 86.234C178.431 86.837 176.989 87.297 176.029 87.6139C174.659 88.1249 173.627 88.4878 172.932 88.7024C172.492 88.8455 171.812 88.9988 170.892 89.1624C170.443 89.2442 169.921 89.1828 169.329 88.9784C168.674 88.7535 168.117 88.7024 167.657 88.8251C167.371 88.9068 167.197 89.0806 167.136 89.3464C167.044 89.8268 167.054 90.2765 167.167 90.6956C167.289 91.1351 167.56 91.4009 167.979 91.4929C168 91.2578 168.01 91.1249 168.01 91.0942C167.898 90.7263 167.836 90.4503 167.826 90.2663C167.795 90.0005 167.857 89.8012 168.01 89.6683C168.163 89.5355 168.373 89.4946 168.639 89.5457C168.843 89.5968 169.012 89.6735 169.145 89.7757C169.492 90.0619 169.881 90.2152 170.31 90.2356C170.647 90.2458 171.046 90.1692 171.506 90.0056C172.375 89.699 173.668 89.2135 175.385 88.5491L190.425 83.1982L191.023 83.0449L190.885 84.8081C189.751 85.3089 188.887 85.6565 188.294 85.8507C187.548 86.096 186.592 86.3975 185.427 86.7553C183.761 87.2663 182.805 87.5576 182.56 87.6292C181.865 87.8541 181.109 88.1403 180.291 88.4878C182.652 87.9665 186.168 87.0466 190.839 85.728C190.85 85.7893 190.865 85.866 190.885 85.958L190.609 89.469C190.579 89.7859 190.405 90.0005 190.088 90.113C188.534 90.8182 187.359 91.3344 186.562 91.6615C185.151 92.2543 183.337 93.0005 181.119 93.9C179.678 94.4826 178.308 95.0192 177.01 95.5098L166.002 99.7108C165.245 100.181 164.32 100.631 163.226 101.06C161.939 101.53 160.973 101.883 160.329 102.118C157.569 103.089 155.499 103.82 154.119 104.31L148.692 106.273C146.239 107.111 144.404 107.75 143.188 108.189C141.153 108.925 139.549 109.539 138.373 110.029C137.576 110.356 136.426 110.857 134.924 111.532C133.37 112.227 132.22 112.728 131.474 113.034L115.084 119.704C114.982 118.917 114.931 118.472 114.931 118.37C114.941 116.724 114.941 115.493 114.931 114.675C114.931 114.46 115.038 114.276 115.253 114.123C116.06 113.53 117.052 112.947 118.227 112.375C119.811 111.608 120.997 111.026 121.784 110.627C122.305 110.372 122.816 110.065 123.317 109.707C123.092 109.799 121.692 110.361 119.116 111.394C117.419 112.079 115.994 112.62 114.839 113.019C114.808 110.433 114.844 108.149 114.946 106.166C116.07 105.644 116.832 105.297 117.23 105.123C118.937 104.408 120.445 103.799 121.753 103.299C122.132 103.155 123.46 102.67 125.74 101.842L141.838 95.8625C145.743 94.3293 148.012 93.4451 148.646 93.21C151.61 92.0857 153.838 91.2578 155.33 90.7263C156.322 90.3787 157.819 89.9085 159.823 89.3157C160.405 89.1215 161.417 88.7638 162.858 88.2425C163.727 87.9358 165.025 87.4605 166.753 86.8166L169.559 85.774C171.817 84.9665 173.187 84.4759 173.668 84.3021C174.322 84.0773 175.298 83.7246 176.596 83.2442L191.115 78.246C191.156 78.6242 191.172 78.8797 191.161 79.0126L191.039 81.5117C191.028 81.7775 190.906 81.9768 190.671 82.1097ZM184.599 93.2254C185.437 92.8881 186.715 92.423 188.432 91.8302C188.606 91.7688 189.092 91.5644 189.889 91.2169L190.41 91.0176C190.512 91.8148 190.563 92.2543 190.563 92.3361C190.563 93.3071 190.548 94.2731 190.517 95.2339C190.497 95.8267 190.446 96.716 190.364 97.9016C190.354 98.1674 190.226 98.3769 189.981 98.5303C189.357 98.9289 188.361 99.3735 186.991 99.8641L183.48 101.121C183.378 101.152 183.301 101.229 183.25 101.351L183.741 101.29L188.325 99.9715C188.386 99.951 189.056 99.7824 190.333 99.4655L189.981 104.004C189.316 104.065 188.56 104.264 187.712 104.602C186.782 105.011 186.076 105.297 185.596 105.46C183.674 106.206 182.233 106.764 181.272 107.132L151.405 118.799C148.043 120.077 145.308 121.13 143.203 121.958C141.322 122.755 139.912 123.343 138.971 123.721L126.338 128.612C124.733 129.194 123.532 129.649 122.735 129.976C121.569 130.446 120.026 131.106 118.104 131.954C118.002 131.995 117.287 132.342 115.958 132.997L115.176 133.349C115.043 132.511 114.966 131.525 114.946 130.39C114.946 129.072 114.941 128.07 114.931 127.385C116.515 126.71 117.501 126.302 117.89 126.159C118.084 126.077 119.091 125.699 120.91 125.024C122.137 124.564 123.138 124.165 123.915 123.828C125.52 123.153 126.69 122.356 127.426 121.436C127.59 121.232 127.794 121.033 128.039 120.838C128.264 120.675 128.515 120.629 128.791 120.7C129.057 120.762 129.24 120.915 129.343 121.16C129.394 121.283 129.384 121.411 129.312 121.544C129.281 121.615 129.148 121.835 128.913 122.203C128.74 121.906 128.643 121.748 128.622 121.728C128.489 121.595 128.361 121.544 128.239 121.574C128.167 121.595 128.096 121.641 128.024 121.712C127.953 121.774 127.917 121.835 127.917 121.896C127.896 122.193 127.942 122.423 128.055 122.586C128.321 122.995 128.658 123.235 129.067 123.307C129.465 123.389 129.884 123.291 130.324 123.015C130.825 122.719 131.223 122.269 131.52 121.666C131.622 121.452 131.76 121.314 131.934 121.252C135.154 119.934 137.024 119.172 137.545 118.968C138.281 118.692 139.395 118.324 140.888 117.864C141.205 117.762 141.475 117.624 141.7 117.45H141.378C140.06 117.685 138.496 118.13 136.687 118.784C135.818 119.101 134.816 119.433 133.682 119.78C133.447 119.852 132.91 119.97 132.072 120.133C131.418 120.256 130.988 120.578 130.784 121.099C130.723 121.283 130.579 121.574 130.355 121.973C130.201 122.269 129.976 122.418 129.68 122.418C129.854 121.917 129.956 121.636 129.987 121.574C130.13 121.268 130.099 120.987 129.895 120.731C129.568 120.302 129.215 120.026 128.837 119.903C128.193 119.719 127.631 119.852 127.15 120.302C126.895 120.537 126.706 120.746 126.583 120.93C125.97 121.85 124.983 122.576 123.624 123.107L115.391 126.343L115.084 126.404C114.971 125.147 114.9 124.206 114.869 123.583C114.808 122.51 114.833 121.574 114.946 120.777C115.682 120.358 117.077 119.724 119.132 118.876C119.755 118.62 120.69 118.247 121.937 117.757C123.031 117.307 123.951 116.878 124.697 116.469C124.881 116.366 125.121 116.269 125.418 116.177C125.591 116.126 125.847 116.05 126.184 115.947C127.758 115.467 129.946 114.578 132.746 113.28C136.426 111.603 138.629 110.612 139.355 110.305C139.958 110.05 140.714 109.764 141.624 109.447C142.135 109.263 142.901 108.992 143.923 108.634L160.145 102.839C162.056 102.143 163.86 101.469 165.557 100.815C167.387 100.13 169.308 99.394 171.322 98.6069C173.008 97.9425 174.792 97.2219 176.673 96.4451C178.441 95.7296 181.083 94.6564 184.599 93.2254ZM189.337 105.138L189.843 105.016C189.914 105.486 189.894 106.125 189.781 106.932C189.669 107.811 189.628 108.445 189.659 108.833L183.005 111.593C183.465 111.634 184.114 111.522 184.952 111.256C185.627 111.041 186.628 110.694 187.957 110.213C188.121 110.152 188.519 110.05 189.153 109.907C189.521 110.438 189.48 111.562 189.03 113.28C187.507 114.108 185.821 114.905 183.971 115.671L179.509 117.481C177.352 118.319 175.742 118.963 174.679 119.412C174.127 119.637 172.743 120.245 170.524 121.237L152.494 129.455C149.601 130.743 147.874 131.504 147.312 131.739C146.678 132.005 145.39 132.486 143.448 133.181C141.527 133.865 139.998 134.468 138.864 134.99C135.368 136.574 133.053 137.596 131.918 138.056C131.142 138.373 130.16 138.736 128.975 139.145C127.656 139.605 126.67 139.952 126.016 140.187C123.563 141.056 122.05 141.598 121.477 141.813C119.74 142.467 117.91 143.172 115.989 143.928C115.375 144.204 114.895 144.419 114.547 144.572L114.517 144.235C114.68 142.477 114.793 141.158 114.854 140.279C114.885 139.911 115.069 139.62 115.406 139.405C116.04 138.966 116.903 138.552 117.997 138.164C119.254 137.704 120.184 137.295 120.787 136.937C120.879 136.876 120.946 136.809 120.987 136.738L114.839 138.685C114.828 137.939 114.905 136.441 115.069 134.193C115.508 133.978 116.173 133.651 117.062 133.211C118.237 132.68 119.484 132.138 120.803 131.586L125.004 129.884C127.702 128.801 129.506 128.085 130.416 127.738C131.223 127.421 132.45 126.992 134.096 126.45C134.494 126.307 135.496 125.913 137.101 125.269L156.342 117.726L162.475 115.211C162.843 115.068 163.436 114.854 164.254 114.568C165.031 114.292 165.623 114.072 166.032 113.908C167.054 113.51 168.572 112.886 170.586 112.038C171.455 111.68 173.07 111.041 175.431 110.121C176.903 109.569 177.909 109.196 178.451 109.002L189.337 105.138ZM127.61 18.1598C129.184 19.7748 131.551 22.187 134.709 25.3965C135.292 26.0098 137.959 28.8411 142.712 33.8905C146.872 38.3061 149.382 40.9739 150.24 41.8938C153.276 45.1748 155.775 47.9039 157.738 50.0811C158.085 50.4593 159.991 52.6364 163.456 56.6125L175.247 69.8441C174.449 70.9173 174 71.5101 173.898 71.6226C172.589 73.2171 170.995 74.4897 169.114 75.4402C167.499 76.2579 165.864 76.7537 164.208 76.9274C162.797 77.0705 161.565 77.0756 160.513 76.9428C160.247 76.9019 159.899 76.8763 159.47 76.8661C158.857 76.8457 158.504 76.8303 158.412 76.8201C157.87 76.7997 157.441 76.6004 157.124 76.2222C156.255 75.2103 155.709 74.5357 155.484 74.1983C154.85 73.2375 153.92 72.0774 152.693 70.718L149.167 66.8696C146.346 63.7419 144.481 61.6619 143.571 60.6295C143.234 60.2513 142.717 59.638 142.022 58.7897C141.358 57.9822 140.842 57.3689 140.474 56.9498C138.481 54.6807 136.595 52.57 134.816 50.6177C131.576 47.1629 129.169 44.5513 127.595 42.783C124.764 39.5735 121.59 36.2874 118.074 32.9246C114.834 29.8173 112.299 27.2006 110.469 25.0746C109.662 24.1342 109.048 23.4289 108.629 22.9587C107.924 22.141 107.29 21.4511 106.728 20.8889C106.156 20.2961 105.363 19.5295 104.352 18.5891C103.135 17.4443 102.333 16.6828 101.944 16.3047C100.534 14.9452 99.2153 13.6216 97.9887 12.3337C95.9342 10.1872 94.5237 8.76641 93.7571 8.07136C93.4811 7.81583 93.3329 7.58074 93.3125 7.36609C93.3942 7.32521 93.4453 7.30476 93.4658 7.30476C94.631 7.19233 96.384 7.02879 98.7247 6.81414C99.3379 6.75281 101.162 6.54327 104.198 6.18553L111.849 5.12762C112.953 4.89253 113.939 5.12251 114.808 5.81756C117.077 7.62674 119.045 9.39503 120.711 11.1224L127.61 18.1598ZM79.7283 8.74597C81.9054 8.48022 84.1235 8.21957 86.3824 7.96404C87.4761 7.84138 89.1166 7.67784 91.304 7.47342C91.5595 7.44275 91.769 7.52452 91.9326 7.71873C92.1779 7.98448 92.4794 8.24002 92.8372 8.48533C93.5016 8.91463 94.3755 9.69145 95.4589 10.8158C96.3891 11.7868 97.8047 13.2331 99.7059 15.1548L103.324 18.8191C105.737 21.2518 107.535 23.0865 108.721 24.3233C109.069 24.681 109.57 25.2228 110.224 25.9485C110.888 26.6844 111.389 27.2262 111.726 27.5737C112.626 28.4936 114 29.8582 115.851 31.6673C117.333 33.1596 118.794 34.6673 120.235 36.1903L126.859 43.1817C130.528 47.0862 132.721 49.4116 133.436 50.1577C136.073 52.938 138.281 55.3911 140.06 57.5171C140.796 58.3859 141.884 59.6943 143.325 61.4421C144.082 62.3518 145.237 63.6959 146.791 65.4744C147.69 66.5068 149.044 68.0349 150.854 70.0587C152.193 71.5919 153.608 73.2631 155.1 75.0723C155.305 75.3278 155.903 76.1097 156.894 77.4181L156.097 78.3687C155.78 78.7571 155.509 79.0688 155.284 79.3039C154.129 80.51 152.974 81.4708 151.819 82.1863C150.419 83.0347 148.968 83.6071 147.465 83.9035C146.187 84.159 144.511 84.1846 142.436 83.9802C142.058 83.9188 141.777 83.8882 141.593 83.8882C140.898 83.8984 140.223 83.5611 139.569 82.8763C139.007 82.2732 138.496 81.6957 138.036 81.1437L133.268 75.3789C130.753 72.333 128.857 70.0587 127.58 68.5562C125.791 66.4301 124.028 64.4114 122.29 62.5C120.256 60.2411 117.931 57.7829 115.314 55.1253C113.576 53.357 111.184 50.9652 108.139 47.9499C105.44 45.2719 103.396 43.2839 102.006 41.9858C100.943 40.9841 99.7417 39.7984 98.4027 38.4288C98.0858 38.1119 96.9104 36.8956 94.8763 34.7797C91.8201 31.6316 89.5357 29.2602 88.0229 27.6657C86.827 26.4085 85.0536 24.5022 82.7027 21.9468L73.9021 12.349C73.667 12.0832 73.3451 11.7613 72.9362 11.3831C72.3945 10.8618 72.0674 10.5449 71.955 10.4325L71.4337 9.88054C72.2207 9.73744 72.7982 9.64034 73.1662 9.58923C76.1815 9.1906 78.3689 8.90951 79.7283 8.74597ZM84.5425 24.8906C85.5545 25.9843 87.0519 27.635 89.0348 29.8428C89.3108 30.1392 89.7248 30.543 90.2767 31.0541C90.8389 31.5958 91.2478 31.9995 91.5033 32.2653C92.2188 32.991 93.2665 34.1051 94.6464 35.6077C96.2409 37.2533 97.8507 38.8785 99.4759 40.4832C100.6 41.5974 103.13 44.0607 107.065 47.8733C109.549 50.2957 110.939 51.6603 111.236 51.9669C114.752 55.5444 117.363 58.2479 119.07 60.0776C120.839 61.9685 122.883 64.2479 125.203 66.9156C127.605 69.6958 130.002 72.522 132.394 75.3942C133.508 76.7435 135.271 78.9155 137.683 81.9103C137.878 82.1557 138.516 82.9938 139.6 84.4248C138.905 85.8047 137.755 87.021 136.15 88.0738C134.77 88.9835 133.227 89.6223 131.52 89.9903C129.404 90.4605 127.452 90.4861 125.663 90.067C124.692 89.8319 123.956 89.3106 123.455 88.5031C123.026 87.8081 122.474 87.0312 121.799 86.1726C120.992 85.1914 120.384 84.4555 119.975 83.9648C118.483 82.1965 117.363 80.8678 116.617 79.9785C114.89 77.8934 113.05 75.8644 111.098 73.8917C109.697 72.4096 108.644 71.3006 107.939 70.5647L96.2869 58.4984C93.752 55.8613 91.8713 53.8681 90.6447 52.5189C88.488 50.1782 86.4488 47.9193 84.5272 45.7421C83.8526 44.9755 81.839 42.6502 78.4864 38.7661C75.6653 35.4646 74.1321 33.6758 73.8868 33.3999C71.6688 30.8956 69.8749 28.9229 68.5053 27.4817C66.4201 25.2739 64.289 23.1121 62.1118 20.9963C61.4883 20.3932 60.6246 19.601 59.5207 18.6198C58.2328 17.475 57.364 16.6931 56.9143 16.274C56.3419 15.7527 55.7184 15.0934 55.0438 14.2962C54.7473 13.9384 54.6298 13.6522 54.6911 13.4376C54.7422 13.2127 54.9773 13.0083 55.3964 12.8243C55.8359 12.6301 56.3776 12.4614 57.0216 12.3183C58.5446 11.9299 59.8887 11.6182 61.0539 11.3831C61.6774 11.2502 62.6791 11.0662 64.059 10.8311C65.8068 10.5143 67.0538 10.2945 67.8 10.1719C67.9226 10.1514 68.5257 10.1003 69.6092 10.0185C69.8954 9.99809 70.1713 10.1105 70.4371 10.3558C71.7352 11.6335 72.512 12.4001 72.7676 12.6556C75.2002 15.0679 77.0043 16.8873 78.1798 18.1138C79.9072 19.9128 82.0281 22.1717 84.5425 24.8906ZM103.447 74.3517C103.498 74.4232 103.57 74.5305 103.662 74.6736C105.45 76.677 107.684 79.3857 110.362 82.7996C111.65 84.435 112.672 85.6207 113.428 86.3566C113.857 86.7655 114.098 87.1846 114.149 87.6139V88.6104L113.489 88.5644C111.742 88.3089 110.178 88.0176 108.798 87.6905C108.685 87.6599 106.989 87.2766 103.708 86.5406L103.033 86.3566C102.982 84.8848 103.013 82.8916 103.125 80.3771C103.237 77.5152 103.294 75.5373 103.294 74.4437L103.447 74.3517ZM103.048 71.6839L102.88 70.0894C102.808 69.1592 102.43 68.1013 101.745 66.9156C100.519 64.8203 98.7144 63.2411 96.3329 62.178C95.8525 61.9532 95.2647 61.8305 94.5697 61.8101C93.9871 61.7999 93.4453 61.6568 92.9445 61.3808C92.5254 61.1457 92.0961 60.7828 91.6566 60.2922C87.333 55.386 83.4642 51.0163 80.0503 47.1833C77.127 43.9943 74.9345 41.5974 73.4728 39.9926C71.1935 37.4066 69.4712 35.4799 68.306 34.2124C66.967 32.7508 65.2702 30.9467 63.2157 28.8002C62.4287 27.9825 60.6348 26.1478 57.8342 23.2961L54.9824 20.429C54.8393 20.2756 54.594 20.0661 54.2465 19.8004C54.0318 19.6368 53.8632 19.5602 53.7405 19.5704C53.6179 19.5704 53.4646 19.6675 53.2806 19.8617C52.7797 20.383 52.3658 20.8736 52.0387 21.3336C50.3624 23.7356 48.8394 25.7083 47.4697 27.2517C46.3147 28.5703 44.5618 30.5225 42.2109 33.1085C40.279 35.3266 38.3574 37.5855 36.446 39.8853C35.5363 40.9892 34.3915 42.4457 33.0116 44.2549C32.5926 44.8069 31.2331 46.6365 28.9333 49.7438C25.8874 53.8732 24.1089 56.2752 23.5978 56.9498C21.9215 59.1985 19.3917 62.5665 16.0084 67.0536C14.9761 68.4437 13.4531 70.5544 11.4395 73.3858C10.1107 75.2052 8.98127 76.723 8.05113 77.9394C7.03921 79.2886 5.61334 81.1437 3.77349 83.5049L3.28287 84.1335C2.84335 84.0006 2.43961 83.6378 2.07164 83.0449C1.70367 82.4827 1.51969 82.1045 1.51969 81.9103C1.52991 81.7161 1.72923 81.3379 2.11764 80.7758L8.81773 71.086C11.4548 67.3245 12.9625 65.178 13.3407 64.6465C14.649 62.8271 16.0851 60.8799 17.649 58.805C19.591 56.2088 21.068 54.2718 22.0799 52.9942C24.4717 50.0402 26.2656 47.8222 27.4615 46.3401C29.0355 44.398 30.8345 42.1595 32.8583 39.6247C34.8106 37.1613 36.2825 35.3164 37.2739 34.0898C39.4818 31.3096 41.1478 29.2347 42.2722 27.865C44.112 25.6878 45.4919 24.0524 46.4118 22.9587C48.1086 20.8736 49.3862 19.3097 50.2448 18.2672C51.5532 16.7237 52.652 15.6096 53.5412 14.9248L53.9092 14.6641C54.7065 15.3285 55.1409 15.6914 55.2124 15.7527C58.0028 18.2774 59.7456 19.8668 60.4406 20.521C62.2089 22.2075 63.829 23.8225 65.3009 25.3659C67.0283 27.1546 69.0623 29.3369 71.403 31.9126C71.4541 31.9638 73.1917 33.9314 76.6159 37.8155L79.805 41.4952C82.4727 44.5411 84.0519 46.3452 84.5425 46.9074C86.2188 48.7881 88.1047 50.8784 90.2001 53.1782C91.9786 55.1509 94.1353 57.4558 96.6702 60.0929C98.1318 61.6057 100.329 63.8697 103.263 66.885C104.98 68.6635 107.121 70.9275 109.687 73.6771C112.222 76.4062 114 78.3635 115.023 79.5492C116.351 81.1131 118.304 83.4895 120.879 86.6786C121.36 87.2817 122.06 88.2016 122.98 89.4384L123.225 89.8217C122.254 90.5985 121.646 91.0789 121.401 91.2629C121.145 91.4469 120.752 91.7024 120.22 92.0295C120.087 92.1112 119.98 92.147 119.898 92.1368C119.796 92.1368 119.689 92.0755 119.576 91.9528C117.644 89.8677 116.203 88.2987 115.253 87.2459C114.711 86.6428 113.919 85.728 112.876 84.5015L107.556 77.9547C105.92 75.9718 104.684 74.4897 103.846 73.5084C103.375 72.9565 103.11 72.3483 103.048 71.6839ZM79.667 47.8886C80.5767 48.9312 81.9463 50.4695 83.7759 52.5035C84.0826 52.8409 84.4966 53.3315 85.0178 53.9754C85.0485 54.0061 85.1098 54.1032 85.2018 54.2667L79.1303 54.0521C77.7811 54.0214 76.4932 53.8579 75.2667 53.5615C74.5512 53.3979 73.9124 53.0504 73.3502 52.5189C72.3076 51.5478 70.7488 50.5666 68.6739 49.5751C67.0692 48.8188 65.3111 48.2464 63.3997 47.8579C62.122 47.6126 60.5786 47.49 58.7694 47.49C57.2362 47.5002 55.5497 47.72 53.7099 48.1493C52.8922 48.3435 51.8854 48.6654 50.6895 49.1152C48.3283 49.984 46.2278 51.1237 44.388 52.5342C43.7849 52.9839 43.0183 53.6279 42.0882 54.466C41.894 54.6398 41.6589 54.7216 41.3829 54.7114L37.3659 54.5887L37.0746 54.558C37.044 54.2923 37.1615 53.9754 37.4273 53.6074C37.5193 53.4746 37.647 53.3161 37.8106 53.1322C38.0354 52.8766 38.1734 52.7182 38.2245 52.6569L44.5413 44.8835C44.9706 44.3418 45.5481 44.0709 46.2738 44.0709C48.0932 44.0709 49.3045 44.0556 49.9075 44.0249C50.6435 43.9841 51.2312 43.9176 51.6707 43.8256C52.3044 43.6825 52.8564 43.4525 53.3266 43.1357C53.8274 42.8086 54.3334 42.7013 54.8444 42.8137C55.0795 42.8648 55.2277 42.9364 55.2891 43.0284C55.3606 43.1204 55.3811 43.2788 55.3504 43.5037L55.3197 44.0403C55.5037 44.0914 55.657 44.0709 55.7797 43.9789C55.9023 43.8461 55.9943 43.7439 56.0557 43.6723C56.1988 43.4985 56.1937 43.3043 56.0403 43.0897C55.8257 42.7728 55.5702 42.4509 55.2737 42.1238C55.2022 42.0522 55.0795 42.0267 54.9058 42.0471C53.8121 42.2413 53.1988 42.3538 53.0659 42.3844C51.4101 42.8444 50.2346 43.1306 49.5396 43.243C48.8241 43.3554 47.7202 43.381 46.2278 43.3197C46.3096 42.9517 46.4987 42.6042 46.7951 42.2771C47.0813 41.95 47.8888 41.0301 49.2176 39.5173C49.33 39.3742 49.4987 39.3129 49.7235 39.3333C51.6452 39.4356 54.3385 39.4969 57.8035 39.5173C61.565 39.5378 64.2532 39.5787 65.8682 39.64C67.0845 39.6911 67.9993 39.7269 68.6126 39.7473C69.7063 39.7984 70.6262 39.8189 71.3724 39.8086C71.8936 39.8086 72.3536 39.9977 72.7522 40.3759C73.1918 40.7848 73.7335 41.3367 74.3774 42.0318C75.788 43.6059 76.8357 44.7915 77.5205 45.5888C77.7249 45.8239 78.0367 46.2123 78.4557 46.754C77.7402 46.8971 76.9277 46.9687 76.018 46.9687C75.742 46.9687 74.9447 46.9431 73.6262 46.892C73.8204 47.0556 74.173 47.1987 74.6841 47.3213C75.9208 47.6075 77.311 47.6842 78.8544 47.5513C79.1815 47.5206 79.4523 47.6331 79.667 47.8886ZM79.1457 60.3075C78.6857 60.4506 78.4251 60.5324 78.3637 60.5529C78.006 59.3263 77.638 58.2888 77.2598 57.4405C76.7692 56.3468 76.1866 55.386 75.512 54.558C75.8084 54.5171 75.9822 54.5018 76.0333 54.512C77.7402 54.5938 79.437 54.6858 81.1235 54.788L85.3705 55.064C85.6056 55.0742 85.8253 55.1611 86.0298 55.3246C86.4999 55.713 87.0059 56.1934 87.5476 56.7658C87.7418 56.9805 88.2069 57.5018 88.9428 58.3297L91.6719 61.5494L87.9003 63.5426C87.7163 63.3586 87.5834 63.2206 87.5016 63.1286C87.3381 62.9651 87.2205 62.8169 87.149 62.684C86.689 61.8663 85.8611 61.1815 84.6652 60.6295C83.2955 59.9856 81.701 59.8169 79.8816 60.1236C79.6874 60.1542 79.4421 60.2155 79.1457 60.3075ZM89.9088 67.8356C89.3568 66.8441 88.9531 66.0979 88.6975 65.5971C88.6669 65.5358 88.5289 65.1627 88.2836 64.4778C90.0825 63.5784 91.0944 63.0775 91.3193 62.9753C92.3312 62.5051 93.4607 62.4336 94.7077 62.7607C97.3346 63.4353 99.5015 64.9736 101.208 67.3756C101.556 67.8764 101.852 68.5919 102.098 69.5221C102.384 70.6055 102.547 71.8321 102.588 73.2018C102.619 74.0297 102.599 75.2665 102.527 76.9121C102.496 77.5561 102.435 78.4658 102.343 79.6412C102.251 80.8984 102.19 81.803 102.159 82.355C102.006 85.1965 102.052 87.4861 102.297 89.2237C102.369 89.7041 102.461 90.4145 102.573 91.3549C102.685 92.2135 102.793 92.9238 102.895 93.486C103.089 94.6512 103.6 95.9851 104.428 97.4877C105.001 98.52 105.42 99.3633 105.685 100.017C106.34 101.643 106.227 103.166 105.348 104.586C104.888 105.343 104.168 105.931 103.186 106.35C101.346 107.137 99.2715 107.346 96.9615 106.978C95.5509 106.764 94.2682 106.324 93.1131 105.66C92.1421 105.108 91.2273 104.418 90.3687 103.59C88.6106 101.934 86.9752 99.7773 85.4625 97.1197C84.471 95.3616 83.7453 93.44 83.2853 91.3549C82.9991 90.1181 82.6618 88.2425 82.2734 85.728C82.1099 84.5935 81.9872 83.74 81.9054 83.1676C81.7521 82.1557 81.609 81.3073 81.4761 80.6225C81.3637 80.0092 81.19 79.1966 80.9549 78.1847C80.6789 76.9581 80.5 76.1455 80.4182 75.7469C80.1729 74.5919 79.8867 73.6719 79.5596 72.9871C79.0486 71.9139 78.2564 71.3364 77.1832 71.2546H76.9532C76.943 71.2546 76.9072 71.275 76.8459 71.3159C76.8459 71.4897 76.9072 71.643 77.0299 71.7759C77.0707 71.8168 77.1985 71.919 77.4132 72.0825C77.5563 72.195 77.7965 72.3432 78.1338 72.5272C78.6857 72.8747 78.8697 73.3755 78.6857 74.0297C78.512 74.6327 78.144 75.1234 77.5818 75.5016C76.3553 76.3499 74.9294 76.6208 73.3042 76.3142C73.1509 76.2835 73.018 76.1711 72.9056 75.9769L71.173 72.2205C70.7131 71.2086 70.4218 70.3347 70.2991 69.5987C70.2889 69.425 70.2787 69.287 70.2684 69.1848C71.1168 68.7555 71.9294 68.1166 72.7062 67.2683C73.064 66.8799 73.6926 66.149 74.5921 65.0758C75.1951 64.3807 75.696 63.839 76.0946 63.4506C76.667 62.8884 77.2394 62.4336 77.8118 62.0861C79.4574 61.0844 81.2411 60.7624 83.1627 61.1201C84.1439 61.3041 85.0434 61.8305 85.8611 62.6993C86.2495 63.1082 86.6481 63.6295 87.057 64.2632C87.2921 64.6312 87.6345 65.1933 88.0843 65.9497C88.35 66.379 88.9122 67.2069 89.7708 68.4335C89.7912 68.4642 89.9088 68.5868 90.1234 68.8015C90.1336 68.8117 90.1745 68.8168 90.2461 68.8168C90.2767 68.643 90.2512 68.4693 90.1694 68.2955C90.057 68.0911 89.9701 67.9378 89.9088 67.8356ZM80.2496 78.1233C80.6584 80.0245 80.9855 81.6906 81.2308 83.1216C81.3126 83.6122 81.4353 84.6292 81.5988 86.1726C82.069 90.8847 82.1916 96.394 81.9668 102.701C81.9259 103.856 81.8646 105.307 81.7828 107.055L81.2462 116.944C81.1746 118.242 81.0622 120.194 80.9089 122.801C80.7964 125.254 80.6942 128.208 80.6022 131.663C80.6022 132.051 80.4387 132.363 80.1116 132.598C78.5069 133.804 76.6466 134.821 74.5307 135.649C74.0912 135.823 71.955 136.625 68.122 138.056L66.4968 138.608L65.9601 137.857C64.8971 136.191 63.5479 134.422 61.9125 132.552L55.979 125.775L56.8683 125.162C57.8597 124.467 58.4321 124.073 58.5854 123.981C58.841 123.838 59.3112 123.654 59.996 123.429L64.5956 121.988C66.4354 121.416 68.5206 120.537 70.8511 119.351C71.7301 118.912 72.4609 118.487 73.0435 118.079C73.7999 117.557 74.4388 116.995 74.96 116.392C75.6551 115.585 76.1866 114.573 76.5546 113.356C76.8203 112.477 76.9276 111.486 76.8765 110.382C76.8357 109.513 76.6057 108.583 76.1866 107.591C75.5324 106.058 75.1287 104.842 74.9754 103.942C74.7301 104.454 74.6381 104.97 74.6994 105.491C74.7812 106.186 75.0316 107.055 75.4507 108.097C76.5035 110.735 76.0997 113.249 74.2394 115.641C73.575 116.479 72.558 117.286 71.1884 118.063C70.0436 118.707 68.8068 119.31 67.478 119.872C66.9874 120.087 65.49 120.665 62.9857 121.605C62.4951 121.799 61.703 122.085 60.6093 122.464C60.8035 122.136 60.9159 121.952 60.9466 121.912C62.1016 120.45 63.0624 119.029 63.829 117.649C64.8 115.963 65.4849 114.23 65.8835 112.452C66.1799 111.123 66.3332 109.774 66.3434 108.404C66.3639 108.21 66.3792 108.057 66.3894 107.944C66.7165 107.924 67.0232 108.062 67.3094 108.358L67.7847 108.925L68.2293 109.278C68.3315 108.9 68.3264 108.537 68.214 108.189C68.1015 107.852 67.8971 107.586 67.6007 107.392C67.0078 106.994 66.3792 106.866 65.7148 107.009C64.8256 107.203 64.1663 107.576 63.737 108.128C63.4917 108.455 63.3793 108.792 63.3997 109.14C63.4304 109.498 63.5939 109.82 63.8903 110.106L64.5956 108.695C64.7694 108.358 65.0147 108.195 65.3315 108.205C65.3418 108.287 65.3571 108.394 65.3775 108.527C65.4184 110.111 65.2958 111.445 65.0096 112.528C64.6927 113.786 64.2634 114.936 63.7217 115.978C62.6689 118.043 61.5343 119.775 60.318 121.176C58.9176 122.821 57.364 124.058 55.657 124.886C54.5327 125.438 53.2039 125.78 51.6707 125.913C50.1273 126.046 47.9144 126.021 45.0319 125.837C43.3965 125.724 41.8838 125.474 40.4937 125.085C38.5721 124.523 36.8498 123.803 35.3268 122.923C34.3455 122.361 33.0474 121.39 31.4324 120.01C30.7681 119.438 30.119 119.024 29.4853 118.769L28.918 118.569C28.7953 118.774 28.7391 118.927 28.7493 119.029C28.7596 119.121 28.8362 119.228 28.9793 119.351L29.5773 119.857C29.2297 120.143 28.7493 120.383 28.1361 120.578C25.6829 121.334 23.4854 120.711 21.5433 118.707C20.3372 117.47 19.5297 115.917 19.1208 114.046C18.8142 112.656 18.7733 111.43 18.9982 110.367C19.3253 110.387 19.6932 110.581 20.1021 110.949C20.654 111.45 21.2469 111.849 21.8806 112.145C23.6796 113.004 25.5347 113.336 27.4461 113.142C30.4614 112.815 32.7919 111.317 34.4375 108.649C35.6539 106.687 36.17 104.576 35.9861 102.317C35.8225 100.099 35.0304 98.2185 33.6096 96.6751C33.5687 96.6444 33.5176 96.5882 33.4563 96.5064L33.3643 96.3531C34.0184 96.0158 34.5091 95.7603 34.8362 95.5865C35.4188 95.2799 35.8634 94.9579 36.17 94.6206C36.4869 94.8352 36.7424 95.1674 36.9366 95.6172C37.0184 95.8012 37.0389 95.9443 36.998 96.0465C36.9673 96.1487 36.86 96.2509 36.676 96.3531L35.8941 96.7671C36.1189 97.1555 36.3694 97.3599 36.6453 97.3804C36.8906 97.3906 37.1308 97.2628 37.3659 96.9971C37.6521 96.6495 37.8719 96.4553 38.0252 96.4144C38.107 96.394 38.2245 96.4298 38.3779 96.5218L38.9145 96.8131C39.2416 96.9255 39.4358 97.0839 39.4971 97.2884C39.5482 97.4621 39.5124 97.7023 39.3898 98.009C39.3284 98.1418 39.2313 98.3309 39.0985 98.5762L38.8991 99.2049C39.2569 99.3888 39.5482 99.3122 39.7731 98.9749C39.8548 98.8522 40.0082 98.5302 40.233 98.009L40.4017 97.5183L43.0848 97.7023V98.6069C43.0848 98.9238 43.1972 99.0873 43.4221 99.0975C43.6674 99.1282 43.8156 98.9902 43.8667 98.6836C43.9383 98.4178 43.9638 98.1572 43.9434 97.9016C43.9434 97.6359 44.0711 97.4366 44.3267 97.3037C45.6657 96.67 46.7542 95.7296 47.5924 94.4826C48.2159 93.5729 48.7167 92.561 49.0949 91.4469C49.8411 89.1675 50.2653 86.6786 50.3675 83.9802C50.4084 83.6531 50.4288 83.4078 50.4288 83.2442C50.4288 82.7945 50.5924 82.4981 50.9194 82.355L50.5668 81.3124C50.0762 79.9121 49.5753 78.7571 49.0643 77.8474C48.3181 76.5493 47.4084 75.6753 46.3352 75.2256C45.0166 74.6941 43.8207 74.6379 42.7475 75.0569C42.6964 75.0774 42.6146 75.108 42.5022 75.1489C42.4102 75.1898 42.3744 75.2563 42.3948 75.3482C42.4153 75.4607 42.5175 75.6089 42.7015 75.7929C42.7219 75.8133 42.8752 75.8798 43.1614 75.9922C41.8633 76.6872 40.601 77.6174 39.3744 78.7826C38.9758 77.8116 38.7049 76.815 38.5618 75.7929C38.3983 74.6787 38.3779 73.7384 38.5005 72.9718C38.8174 70.9173 39.9059 69.6243 41.7662 69.0928C44.1069 68.4182 46.2738 68.7401 48.267 70.0587C49.0336 70.5698 49.6213 71.2699 50.0302 72.1592C50.1631 72.4863 50.2499 72.6856 50.2908 72.7571C50.4033 72.9718 50.5413 73.1404 50.7048 73.2631C51.0625 73.5493 51.3998 73.6566 51.7167 73.5851L52.0233 72.1745C52.5038 70.0076 53.6332 68.3568 55.4117 67.2223C56.3214 66.6397 57.3384 66.2615 58.4628 66.0877C59.1476 65.9855 59.8427 65.9088 60.5479 65.8577C62.6944 65.7555 64.6774 66.4608 66.4968 67.9735C68.2855 69.4352 69.6858 71.1524 70.6977 73.1251C70.8919 73.5033 71.127 74.0399 71.403 74.735C71.7097 75.5016 71.9345 76.0382 72.0776 76.3448C72.5069 77.2954 72.9311 78.1131 73.3502 78.7979C73.7181 79.4112 74.2548 79.7639 74.96 79.8559C75.0418 79.6616 75.0469 79.4726 74.9754 79.2886C74.9345 79.1966 74.8323 79.0535 74.6687 78.8593L73.9328 78.0773C73.7079 77.8116 73.6057 77.5816 73.6262 77.3874C75.282 77.3056 76.2428 77.229 76.5086 77.1574C76.9072 77.045 77.9242 76.5288 79.5596 75.6089C79.5699 75.6498 79.6925 76.0688 79.9276 76.8661C80.0707 77.367 80.178 77.786 80.2496 78.1233ZM82.8867 97.3343C82.9378 95.5661 82.9685 94.4622 82.9787 94.0226C84.4199 97.1197 85.7691 99.5677 87.0263 101.367L82.8407 100.646C82.8305 99.7977 82.8458 98.6938 82.8867 97.3343ZM82.8407 101.627C82.9634 101.627 83.1218 101.622 83.316 101.612C84.8083 101.694 85.9838 101.852 86.8424 102.087C87.6805 102.322 88.4215 102.757 89.0655 103.39C90.2307 104.484 91.4675 105.506 92.7758 106.457C93.8797 107.264 95.2545 107.811 96.9002 108.097C98.4334 108.363 99.8643 108.373 101.193 108.128C103.483 107.709 105.174 106.672 106.268 105.016L106.391 104.832L106.483 104.77C107.525 104.791 108.772 104.913 110.224 105.138C111.052 105.271 112.288 105.486 113.934 105.782C114.036 106.191 114.092 108.644 114.103 113.142C114.103 117.629 114.052 120.118 113.949 120.608C113.612 120.598 113.357 120.583 113.183 120.562L107.571 119.704C106.222 119.499 105.031 119.295 103.999 119.09C102.169 118.723 100.794 118.447 99.8746 118.263L82.0281 114.43C82.0485 113.704 82.0639 113.162 82.0741 112.804C82.1048 112.171 82.161 111.634 82.2427 111.194L85.7231 111.7C87.2052 111.905 88.1813 112.053 88.6515 112.145C89.4692 112.298 90.4454 112.508 91.5799 112.774C92.4283 112.958 93.0314 113.07 93.3891 113.111C94.074 113.203 94.6872 113.193 95.229 113.08C95.9853 112.927 96.3738 112.85 96.3942 112.85C96.7111 112.799 96.9206 112.84 97.0228 112.973C97.1659 113.157 97.1199 113.418 96.8848 113.755L96.7315 113.893C96.6395 113.842 96.5628 113.709 96.5015 113.494C96.4402 113.31 96.338 113.208 96.1949 113.188C95.7451 113.852 95.8269 114.45 96.4402 114.982C96.7162 115.217 97.0228 115.344 97.3601 115.365C97.7076 115.385 98.0092 115.283 98.2647 115.058L98.3414 114.982C98.7502 114.511 99.0517 114.256 99.246 114.215C99.2664 114.205 99.6037 114.235 100.258 114.307C100.769 114.358 101.796 114.511 103.34 114.767C104.484 114.961 105.558 115.002 106.559 114.89L106.881 114.798C106.595 114.665 106.278 114.562 105.931 114.491C105.532 114.419 105.236 114.363 105.041 114.322L100.764 113.464C100.171 113.341 99.7264 113.259 99.4299 113.218C99.1029 113.177 98.8473 113.203 98.6633 113.295C98.4794 113.397 98.3158 113.602 98.1727 113.908C98.0705 114.123 97.9938 114.256 97.9427 114.307C97.8405 114.44 97.6872 114.522 97.4828 114.552C97.6054 114.256 97.677 114.077 97.6974 114.016C97.9427 113.065 97.723 112.411 97.0381 112.053C96.476 111.787 95.9649 111.782 95.5049 112.038C94.7792 112.467 93.9564 112.6 93.0365 112.436L86.1371 111.133C84.5834 110.775 83.4233 110.51 82.6567 110.336C82.5136 110.305 82.4216 110.239 82.3807 110.137C82.3501 110.065 82.3399 109.958 82.3501 109.815L82.8407 101.627ZM123.44 90.8336C124.002 90.5474 124.534 90.5167 125.034 90.7416C125.658 91.038 126.358 91.2322 127.135 91.3242C127.707 91.3958 128.433 91.4162 129.312 91.3855C131.346 91.314 133.39 90.7058 135.445 89.561C136.661 88.8864 137.729 88.0789 138.649 87.1386L138.864 86.9546C138.772 87.8643 138.383 88.7842 137.699 89.7143C136.779 90.9818 135.532 92.0244 133.958 92.8421C132.23 93.7313 130.431 94.2731 128.561 94.4673C127.324 94.6001 126.041 94.5695 124.712 94.3753C123.486 94.1913 122.346 93.8029 121.293 93.21C121.12 93.1283 120.961 93.0516 120.818 92.9801C120.982 92.8574 121.406 92.4741 122.091 91.8302C122.592 91.36 123.041 91.0278 123.44 90.8336ZM103.57 87.3839C105.614 87.7314 106.692 87.9154 106.805 87.9358C107.725 88.13 109.089 88.4418 110.898 88.8711C111.144 88.9324 112.069 89.1215 113.673 89.4384C113.888 89.4792 114.016 89.5304 114.057 89.5917C114.098 89.6428 114.128 89.7808 114.149 90.0056C114.322 91.8148 114.399 93.8489 114.379 96.1078C114.368 97.457 114.307 99.4911 114.195 102.21L114.133 105L106.851 103.927C106.82 103.794 106.805 103.718 106.805 103.697C106.907 102.706 106.83 101.673 106.575 100.6C106.37 99.721 106.023 98.7449 105.532 97.6717C104.857 96.1896 104.316 94.9272 103.907 93.8846C103.743 93.4553 103.616 92.9545 103.524 92.3821C103.503 92.1981 103.447 91.6768 103.355 90.8182L103.11 87.6598V87.3839H103.57ZM174.863 71.8679L174.986 71.9292C174.955 72.0416 174.915 72.2154 174.863 72.4505C174.332 74.0859 173.514 75.5833 172.41 76.9428C171.439 78.1591 170.32 79.1557 169.053 79.9325C167.969 80.6071 166.829 81.0875 165.634 81.3737C164.284 81.711 162.853 81.7724 161.341 81.5577C160.165 81.3839 159.077 81.0415 158.075 80.5305L158.458 77.8014L159.409 77.9087C161.065 78.1438 162.72 78.1438 164.376 77.9087C166.104 77.6838 167.775 77.1676 169.39 76.3602C171.383 75.3687 173.116 73.9735 174.587 72.1745L174.863 71.8679ZM145.181 88.2578C143.228 88.3089 141.532 87.9614 140.09 87.2152C140.223 86.2033 140.535 85.4265 141.026 84.8848C147.588 86.0295 153.036 83.9086 157.37 78.522C157.339 79.0739 157.319 79.401 157.308 79.5032C157.022 81.2817 156.148 82.8763 154.687 84.2868C153.164 85.7791 151.227 86.9035 148.876 87.6598C147.772 88.0074 146.54 88.2067 145.181 88.2578ZM48.4817 27.4204C49.9944 25.5499 50.7661 24.5942 50.7968 24.5533L53.8172 20.8429C54.5634 21.3744 55.4986 22.1819 56.623 23.2654C57.8904 24.492 58.795 25.3199 59.3367 25.7492L45.1853 42.8904C41.802 46.9585 39.8088 49.3554 39.2058 50.0811C37.0797 52.6773 35.337 54.8391 33.9776 56.5665C32.0764 58.989 30.0679 61.5903 27.9521 64.3705C27.2877 65.2496 26.3116 66.5886 25.0237 68.3875C24.8499 68.6328 24.6097 68.7913 24.3031 68.8628C22.0646 69.425 20.3832 70.4011 19.2588 71.7912C18.7375 72.4454 18.4105 73.0995 18.2776 73.7537C18.0425 74.8474 17.8738 75.7009 17.7716 76.3142C17.4752 78.3073 16.729 80.1012 15.5331 81.6957C14.8074 82.6667 14.1277 83.5969 13.494 84.4861C13.3407 84.7008 13.1362 84.7979 12.8807 84.7774L4.81607 84.3021C5.0205 83.6071 5.43957 82.8405 6.0733 82.0023C8.44465 78.9053 10.2129 76.5748 11.3782 75.0109C11.8995 74.2954 12.7069 73.166 13.8006 71.6226C14.8432 70.1405 15.6507 69.0161 16.2231 68.2495C19.6575 63.7113 22.223 60.3024 23.9198 58.0231C27.0577 53.7608 29.4188 50.5717 31.0032 48.4559C33.1496 45.553 34.6879 43.519 35.6181 42.3538C37.3148 40.2277 39.1189 38.0659 41.0303 35.8683C41.5618 35.255 42.4102 34.3198 43.5754 33.0625C44.6998 31.836 45.5481 30.8956 46.1205 30.2415C46.7645 29.5055 47.5515 28.5652 48.4817 27.4204ZM50.1988 38.5361C50.5361 38.0761 50.7763 37.7593 50.9194 37.5855C53.2704 34.8257 55.0233 32.7457 56.1783 31.3454C56.4747 30.9774 57.5838 29.5413 59.5054 27.0371L59.8427 26.5924C61.1306 27.9621 63.0675 29.9859 65.6535 32.6639C67.9022 35.0455 69.7369 37.146 71.1577 38.9654C70.5955 39.0982 67.1254 39.0982 60.7473 38.9654C54.3794 38.8325 50.8632 38.6894 50.1988 38.5361ZM19.4888 73.2324C19.8261 72.4761 20.3167 71.8423 20.9607 71.3313C21.9828 70.5136 23.1736 69.9616 24.533 69.6754C25.2894 69.5425 25.9743 69.6294 26.5875 69.936C25.1974 72.2767 24.7886 74.6123 25.361 76.9428C25.4734 76.7281 25.5501 76.4675 25.5909 76.1608C25.6012 76.12 25.6267 75.8542 25.6676 75.3636C25.6778 74.6787 25.7085 74.1677 25.7596 73.8304C26.148 71.3466 27.5075 69.6601 29.8379 68.7708C31.2689 68.2495 32.6539 68.0604 33.9929 68.2035L33.6863 69.1388C33.676 69.1694 33.5789 69.4301 33.3949 69.9207C33.2723 70.2274 33.1854 70.4829 33.1343 70.6873C32.9605 71.3926 33.0219 71.9497 33.3183 72.3585L34.1462 72.2359C35.0661 72.0621 35.889 72.0927 36.6147 72.3278C36.9213 72.4505 37.1462 72.5527 37.2893 72.6345C37.5141 72.7776 37.6061 72.9871 37.5653 73.2631C37.4835 73.7639 37.4886 74.3312 37.5806 74.9649C37.6317 75.2716 37.7492 75.8235 37.9332 76.6208C38.0559 77.183 38.2194 78.0365 38.4238 79.1812C38.4647 79.3652 38.4341 79.585 38.3319 79.8405L36.538 78.0927C35.5261 77.1114 34.3506 76.8303 33.0116 77.2494C32.889 76.953 32.9759 76.7384 33.2723 76.6055C33.3438 76.5646 33.7629 76.3959 34.5295 76.0995L35.2655 75.7929C35.0712 75.3738 34.7391 75.2 34.2689 75.2716C33.4818 75.3738 32.7357 75.8235 32.0304 76.6208C31.3967 77.367 30.9009 78.3738 30.5432 79.6412C30.1957 80.878 29.8481 82.774 29.5006 85.3294C29.2962 86.8217 29.1684 87.711 29.1173 87.9972C28.9538 88.9988 28.7647 89.8728 28.55 90.6189C28.2638 91.6206 27.9163 92.4792 27.5075 93.1947C27.3439 93.4809 27.0935 93.6393 26.7562 93.67C25.1412 93.7824 23.8278 94.0277 22.8159 94.4059C20.7 95.1725 19.1157 96.5013 18.0629 98.3923C17.4394 99.4962 16.9999 100.718 16.7444 102.057L16.5451 102.808C16.2589 102.808 15.8296 102.818 15.2572 102.839C14.7461 102.849 14.3219 102.833 13.9846 102.793C12.8194 102.66 11.787 102.368 10.8875 101.919C9.38501 101.152 8.42421 100.023 8.00513 98.5303C7.65761 97.3446 7.64227 96.0925 7.95913 94.7739C8.184 93.7722 8.8535 92.8165 9.96763 91.9068C10.9591 91.0891 11.5877 90.5627 11.8535 90.3276C12.5485 89.7143 13.1362 89.1419 13.6166 88.6104C15.1396 86.9137 16.2895 85.0432 17.0664 82.9989C17.557 81.711 17.9709 79.9683 18.3082 77.7707C18.4718 76.769 18.6149 75.9973 18.7375 75.4556C18.942 74.6174 19.1924 73.8764 19.4888 73.2324ZM26.1122 68.7248L26.3576 68.3262C29.7613 63.5835 31.6829 60.9208 32.1224 60.3382C32.6232 59.6636 33.2416 58.8766 33.9776 57.9771C34.8362 56.9549 35.475 56.1832 35.8941 55.6619C36.0065 55.5291 36.0832 55.4524 36.124 55.432C36.216 55.3502 36.3234 55.3093 36.446 55.3093L41.0456 55.5086C40.8923 55.9277 40.7799 56.2037 40.7083 56.3365C40.647 56.4796 40.417 56.9447 40.0184 57.7318C39.7424 58.3042 39.5226 58.7743 39.3591 59.1423C38.6129 60.7879 38.1734 62.1883 38.0405 63.3433C38.0099 63.5988 37.8821 63.8186 37.6572 64.0026C36.6249 64.7896 35.5568 65.9088 34.4529 67.3603C34.4426 67.3603 34.0082 67.35 33.1496 67.3296C32.6386 67.3194 32.2144 67.3296 31.8771 67.3603C30.1292 67.534 28.7238 68.0706 27.6608 68.9701C27.4155 69.1746 27.1548 69.2103 26.8788 69.0775C26.562 68.9344 26.3064 68.8168 26.1122 68.7248ZM54.7678 55.6619C56.4952 56.0606 58.0897 56.7607 59.5514 57.7624C61.0948 58.8254 62.5053 60.282 63.783 62.132L64.1203 62.6227C64.2838 62.5205 64.4474 62.3722 64.6109 62.178C64.8665 61.851 64.9993 61.6823 65.0096 61.6721C65.3162 61.2735 65.5564 60.977 65.7302 60.7828C66.7727 59.5972 68.1117 59.311 69.7472 59.9242C70.2787 60.1184 70.7386 60.4353 71.127 60.8748C71.6585 61.5085 71.7454 62.178 71.3877 62.8833L70.1611 65.1678C69.6603 66.057 69.4405 66.9821 69.5018 67.9429C69.5121 68.2291 69.5018 68.5511 69.4712 68.9088C69.461 69.0212 69.3996 69.2359 69.2872 69.5527C69.1645 69.5119 69.0981 69.4761 69.0879 69.4454C68.8017 68.9752 68.4082 68.5153 67.9073 68.0655C67.6313 67.8202 67.1612 67.4472 66.4968 66.9463C65.444 66.1286 64.3809 65.5664 63.3077 65.2598C62.2856 64.9531 61.2941 64.8356 60.3333 64.9071C58.8205 65.0196 57.6195 65.2393 56.7303 65.5664C54.5122 66.3637 52.979 67.7333 52.1307 69.6754C51.7831 70.5033 51.5941 71.2699 51.5634 71.9752C51.5634 71.9854 51.5378 72.1694 51.4867 72.5272C51.2516 72.3534 51.0319 72.1336 50.8274 71.8679C50.807 71.8372 50.6281 71.5919 50.2908 71.1319C49.882 70.58 49.6162 70.2274 49.4936 70.074C49.1767 69.6958 48.865 69.3841 48.5583 69.1388C47.8633 68.5766 47.066 68.2035 46.1665 68.0195C44.2653 67.6107 42.3948 67.8713 40.555 68.8015C39.2569 69.4863 38.3932 70.4369 37.9639 71.6532C36.8804 71.2137 35.567 71.0297 34.0236 71.1013C34.0542 70.8049 34.0849 70.6004 34.1156 70.488C34.7902 68.4028 35.9145 66.5937 37.4886 65.0605C38.8583 63.7112 40.4119 62.6942 42.1495 62.0094C44.0814 61.2632 45.9519 60.9924 47.761 61.1968C49.0898 61.3501 50.2602 61.6414 51.2721 62.0707C51.3947 62.0912 51.5021 62.1116 51.5941 62.132C51.7167 61.3246 51.6554 60.5784 51.4101 59.8936C51.1443 59.1679 50.6588 58.3195 49.9535 57.3485L48.6196 55.5853L48.4357 55.2326L48.8956 55.1713C50.9092 55.0589 52.8666 55.2224 54.7678 55.6619ZM49.1716 80.5918C49.3556 81.0211 49.4782 81.4299 49.5396 81.8184C49.6213 82.3192 49.698 82.9887 49.7695 83.8268C49.6264 87.251 48.9518 90.2101 47.7457 92.7041C47.3266 93.5729 46.8513 94.2731 46.3198 94.8046C45.5328 95.5916 44.4493 96.0209 43.0694 96.0925C41.5771 96.164 40.0286 95.8063 38.4238 95.0192C38.1785 94.9068 37.9792 94.6666 37.8259 94.2986C37.3557 93.1947 37.0593 92.0244 36.9366 90.7876C36.7424 88.7331 36.998 86.5508 37.7032 84.2408C38.2245 82.5134 39.0218 80.9853 40.095 79.6565C41.2705 78.2358 42.6453 77.2341 44.2194 76.6515C44.6282 76.5084 45.0524 76.5237 45.4919 76.6975C46.0541 76.9326 46.698 77.4232 47.4237 78.1693C48.2517 79.0075 48.8343 79.815 49.1716 80.5918ZM35.5108 78.384C36.308 78.6906 36.7578 79.2119 36.86 79.9478C37.0337 81.2357 37.044 82.5594 36.8906 83.9188C36.7578 84.9716 36.5176 86.5406 36.17 88.6258C36.0269 89.5866 36.0372 90.4349 36.2007 91.1709C36.2314 91.3344 36.262 91.5797 36.2927 91.9068C36.4971 92.8881 36.124 93.7109 35.1735 94.3753C34.8362 94.6104 34.4222 94.8301 33.9316 95.0345C33.9213 95.0345 33.4818 95.2032 32.613 95.5405C32.4699 95.5916 32.2757 95.5609 32.0304 95.4485C31.8873 95.377 31.6573 95.2492 31.3405 95.0652C31.044 94.8914 30.8089 94.7688 30.6352 94.6972C30.5636 94.6666 29.9095 94.4213 28.6727 93.9613L28.3507 93.8386C28.7187 92.8267 28.9742 92.0704 29.1173 91.5695C29.4035 90.4452 29.6182 89.4844 29.7613 88.6871C29.8635 88.084 30.0015 87.1897 30.1752 86.004C30.349 84.7979 30.487 83.8984 30.5892 83.3056C30.9469 81.2817 31.4324 79.6565 32.0457 78.43L32.383 77.878C32.4955 77.8985 33.0219 77.9598 33.9622 78.062C34.596 78.1233 35.1121 78.2307 35.5108 78.384ZM54.4458 126.327C54.6196 126.368 54.9313 126.578 55.3811 126.956C57.456 128.724 59.2345 130.615 60.7166 132.629L61.0232 133.089C59.9296 132.935 59.3265 132.848 59.2141 132.828C58.2839 132.664 57.226 132.644 56.0403 132.767C54.7627 132.889 53.6485 133.104 52.698 133.411C50.1631 134.198 48.1801 135.383 46.7491 136.968C46.3709 137.387 45.8752 138.077 45.2619 139.037C45.1904 139.129 44.9144 139.467 44.434 140.049L43.6214 138.777C42.5788 137.131 41.0916 135.506 39.1598 133.901C37.8923 132.859 36.0269 131.688 33.5636 130.39C32.4904 129.818 31.7135 129.388 31.2331 129.102C30.3848 128.601 29.6488 128.106 29.0253 127.615C27.3899 126.368 26.2605 124.866 25.6369 123.107C25.5654 122.923 25.4734 122.617 25.361 122.188C26.5773 122.024 27.4308 121.866 27.9214 121.712C28.8311 121.426 29.5568 120.966 30.0986 120.332C31.3558 121.436 32.0815 122.065 32.2757 122.218C33.8498 123.475 35.613 124.446 37.5653 125.131C39.0269 125.653 40.2892 126.041 41.3523 126.297C42.7628 126.634 44.204 126.848 45.6759 126.94C47.8122 127.094 49.7184 127.063 51.3947 126.848C52.2329 126.726 52.8666 126.613 53.2959 126.511C53.8887 126.358 54.272 126.297 54.4458 126.327ZM59.2907 133.947C59.8018 134.101 60.1851 134.203 60.4406 134.254C60.7881 134.305 61.0846 134.305 61.3299 134.254C61.8921 134.09 62.352 134.228 62.7098 134.668C63.5581 135.731 64.1305 136.503 64.4269 136.983C65.1527 138.158 65.8017 139.329 66.3741 140.494C66.9669 141.7 67.3605 143.019 67.5547 144.45C67.6773 145.339 67.7387 146.126 67.7387 146.811C67.7387 148.436 67.3451 149.877 66.5581 151.134C66.2719 151.594 65.8784 152.013 65.3775 152.392C65.4184 151.329 65.3571 150.429 65.1935 149.693C64.9789 148.804 64.5905 148.027 64.0283 147.363C64.0794 147.731 64.1152 147.95 64.1356 148.022C64.5752 149.422 64.7131 150.961 64.5496 152.637C64.5189 153.025 64.4321 153.409 64.289 153.787C64.197 153.981 64.013 154.165 63.737 154.339C62.9091 154.84 61.9227 155.197 60.7779 155.412C59.674 155.637 58.1459 155.698 56.1937 155.596C55.8461 155.576 55.3044 155.489 54.5685 155.335C54.824 154.18 54.9569 153.317 54.9671 152.744C54.9875 151.783 54.778 150.93 54.3385 150.184L54.3232 152.867C54.3129 153.46 54.1392 154.027 53.8019 154.569C53.5872 154.875 53.2959 154.983 52.9279 154.891C51.0574 154.39 49.6418 153.828 48.681 153.204C47.1887 152.223 46.2176 150.945 45.7679 149.371C45.4408 148.237 45.3233 147.097 45.4152 145.952C45.5277 144.572 45.4357 143.254 45.1393 141.997C45.0064 141.455 45.1086 140.852 45.4459 140.187C46.6929 137.673 48.5072 135.905 50.8888 134.882C53.1477 133.922 55.3964 133.508 57.6349 133.641C57.8802 133.651 58.4321 133.753 59.2907 133.947ZM29.8686 133.855C30.3183 132.455 31.0338 131.407 32.0151 130.712C34.6726 132.041 36.8038 133.308 38.4085 134.514C40.4323 136.017 42.0013 137.658 43.1154 139.436C44.2296 141.215 44.7202 143.31 44.5873 145.722L43.2688 146.044C42.5533 146.208 42.0933 146.31 41.8889 146.351C41.3574 146.453 40.8821 146.499 40.463 146.489C39.7271 146.468 39.1853 146.289 38.8378 145.952C38.5005 145.635 38.3114 145.278 38.2705 144.879C38.1479 143.908 38.3523 142.763 38.8838 141.445L39.1598 140.693C38.8123 140.816 38.5312 141.056 38.3165 141.414C37.8361 142.17 37.5857 143.146 37.5653 144.342C37.5653 144.414 37.6061 144.751 37.6879 145.354V145.722C37.0133 145.579 36.2263 145.283 35.3268 144.833C33.7629 144.087 32.3677 143.008 31.1411 141.598C30.8243 141.25 30.4563 140.75 30.0372 140.095C29.6284 139.451 29.6693 138.818 30.1599 138.194C30.3234 137.99 30.7272 137.566 31.3711 136.922C31.6675 136.625 32.0713 136.247 32.5823 135.787C32.2246 135.654 31.9333 135.664 31.7084 135.818L30.7272 136.584C30.717 136.595 30.533 136.784 30.1752 137.152C29.9504 137.376 29.7357 137.53 29.5313 137.612C29.3473 136.375 29.4597 135.123 29.8686 133.855ZM29.8992 129.363L30.9725 130.176L30.9418 130.283L27.7988 129.792C26.3167 129.578 25.3661 129.429 24.947 129.348C23.4854 129.061 22.0799 128.77 20.7307 128.474C20.2912 128.371 19.6421 128.177 18.7835 127.891C18.5484 127.83 18.4156 127.666 18.3849 127.4L18.2469 126.113C18.0936 124.917 18.0169 123.118 18.0169 120.716L18.0629 113.678C18.0629 113.566 18.0936 113.469 18.1549 113.387L18.2469 113.862C18.4411 115.099 18.8398 116.315 19.4428 117.511C20.4241 119.423 21.8857 120.782 23.8278 121.59C24.1446 121.722 24.3746 121.881 24.5177 122.065C24.6506 122.249 24.7375 122.51 24.7784 122.847C24.9828 124.349 25.6778 125.704 26.8635 126.91C27.4768 127.523 28.4887 128.341 29.8992 129.363ZM105.317 119.995C106.043 120.148 106.616 120.261 107.035 120.332L114.087 121.467L114.241 133.717C113.597 133.687 113.121 133.661 112.815 133.641C112.283 133.61 111.834 133.574 111.466 133.533C110.178 133.4 109.033 133.257 108.031 133.104C107.612 133.043 106.457 132.833 104.566 132.475L81.8288 127.937C81.8083 127.937 81.701 127.896 81.5068 127.814L81.6448 124.487L81.7828 124.395C81.793 124.395 82.1814 124.411 82.948 124.441C83.408 124.462 83.7913 124.492 84.0979 124.533C85.3449 124.717 87.2154 125.014 89.7094 125.423L89.9394 125.407C88.8457 125.009 87.4965 124.636 85.8918 124.288C84.0621 123.91 82.6823 123.619 81.7521 123.414C81.7726 121.636 81.7879 120.297 81.7981 119.397C81.8288 117.823 81.9361 116.484 82.1201 115.38L87.4403 116.3C88.9735 116.576 90.0672 116.786 90.7213 116.929C90.8951 116.959 91.8048 117.154 93.4505 117.511L105.317 119.995ZM104.597 133.196L107.832 133.763C108.537 133.886 109.324 133.998 110.193 134.101L113.811 134.484C113.862 134.484 113.944 134.504 114.057 134.545C114.128 134.944 114.154 135.669 114.133 136.722C114.113 137.796 114.057 138.511 113.965 138.869C112.391 138.767 110.454 138.491 108.154 138.041C105.599 137.509 103.672 137.131 102.374 136.906C102.599 137.019 102.726 137.08 102.757 137.09L103.248 137.228C104.106 137.443 105.389 137.77 107.096 138.21C108.159 138.465 109.759 138.833 111.895 139.313L113.566 139.681L113.965 139.804C114.006 140.141 113.954 140.923 113.811 142.15C113.658 143.366 113.51 144.204 113.367 144.664C113.132 144.664 112.958 144.654 112.845 144.634C110.689 144.388 108.527 144.128 106.36 143.852C103.723 143.514 101.791 143.254 100.565 143.07C99.1131 142.855 96.9462 142.492 94.0637 141.981C91.8661 141.603 90.2665 141.312 89.2648 141.107C88.6209 140.985 87.333 140.693 85.4011 140.233C83.8373 139.845 82.6618 139.554 81.8748 139.359C81.4762 139.237 81.1593 139.14 80.9242 139.068C80.9242 137.882 80.9957 136.206 81.1388 134.039C81.3024 131.709 81.3893 130.022 81.3995 128.98C81.6857 128.98 81.8492 128.985 81.8901 128.995L88.4369 130.038C89.2648 130.191 90.4965 130.416 92.1319 130.712L100.963 132.521C101.771 132.685 102.982 132.91 104.597 133.196ZM59.3674 75.5629L59.3521 75.6856L59.1527 75.8849C58.2022 76.7332 57.4304 77.8831 56.8376 79.3346C55.9995 81.4095 55.5497 83.7144 55.4884 86.2493C55.4168 88.6104 55.5957 90.7314 56.025 92.6121C56.2601 93.6444 56.5565 94.6104 56.9143 95.5098C57.456 95.6325 57.8495 95.8983 58.0948 96.3071C58.2993 96.6649 58.3657 97.0788 58.2941 97.549C58.2839 97.6001 58.2379 97.8403 58.1562 98.2696L58.0182 98.8829L58.3555 98.7449C58.5292 98.6325 58.6723 98.474 58.7848 98.2696C58.8461 98.1367 58.9228 97.9323 59.0147 97.6563L59.3214 96.9204L61.9278 97.6257C61.9687 97.7279 62.0351 98.0396 62.1271 98.5609C62.1885 98.9391 62.3111 99.2355 62.4951 99.4502C62.6995 99.2355 62.812 98.9391 62.8324 98.5609C62.8631 97.9783 62.8835 97.6614 62.8937 97.6103C64.5496 97.4263 65.4695 97.319 65.6535 97.2884C66.1032 97.227 66.4354 97.3803 66.6501 97.7483C66.7523 97.9016 66.9056 98.0703 67.11 98.2543C67.4576 98.5609 67.7949 98.6785 68.122 98.6069C68.1424 98.4536 68.0964 98.3054 67.984 98.1623C67.8511 98.0192 67.754 97.9067 67.6927 97.825C67.4882 97.5797 67.34 97.3906 67.248 97.2577C67.1152 97.0635 67.1458 96.8948 67.34 96.7517L68.122 96.1078C68.817 95.5865 69.3076 95.1214 69.5938 94.7126C70.3707 93.6291 70.8459 92.2543 71.0197 90.5883C71.3059 88.0329 71.0964 85.5798 70.3911 83.2289C70.3298 82.912 70.2838 82.6769 70.2531 82.5236C70.3655 82.5645 70.478 82.6412 70.5904 82.7536L70.8971 83.0449L71.0044 82.9836C70.9124 82.5032 70.8255 82.1454 70.7437 81.9103C70.2838 80.7144 69.5836 79.6054 68.6432 78.5833C67.5393 77.4487 66.7268 76.585 66.2055 75.9922C65.6637 75.4096 65.0505 74.9445 64.3656 74.597C63.0777 73.9428 61.6263 73.6822 60.0113 73.815C58.8256 73.907 57.8291 74.3414 57.0216 75.1183C56.6127 75.5271 56.3623 75.9104 56.2703 76.2682L56.5616 76.3295C56.9296 76.3908 57.3793 76.2784 57.9108 75.9922C58.2175 75.8389 58.4475 75.7315 58.6008 75.6702C58.8665 75.5782 59.1221 75.5424 59.3674 75.5629ZM61.6059 75.7315C61.8409 75.6498 62.1527 75.6498 62.5411 75.7315C65.0147 76.2017 66.9414 77.648 68.3213 80.0705C68.9857 81.2766 69.4916 82.6514 69.8392 84.1948C70.2071 85.7382 70.3758 87.4503 70.3451 89.331C70.3144 90.4145 70.2276 91.2373 70.0845 91.7995C69.8698 92.6479 69.415 93.3429 68.7199 93.8846C67.5649 94.7535 66.1952 95.3565 64.6109 95.6938C63.1288 96.0209 61.5803 95.8523 59.9653 95.1879C59.536 95.0141 58.8921 94.7484 58.0335 94.3906C57.8291 94.3088 57.6758 94.1555 57.5735 93.9306C57.042 92.653 56.6741 91.2731 56.4696 89.791C56.2754 88.4622 56.2192 87.0057 56.301 85.4214C56.3623 84.0108 56.5872 82.6769 56.9756 81.4197C57.3027 80.2851 57.7371 79.2835 58.2788 78.4147C59.1272 77.0552 60.2362 76.1608 61.6059 75.7315ZM55.7797 44.4082C55.4424 44.4185 55.1204 44.2907 54.8138 44.0249C54.6605 43.8716 54.548 43.7592 54.4765 43.6876C54.3334 43.565 54.1903 43.4934 54.0472 43.473C53.8019 44.076 53.9347 44.5309 54.4458 44.8375C55.0182 45.1851 55.7081 45.2106 56.5156 44.9142C56.9245 44.7711 57.2158 44.4287 57.3896 43.887L57.5735 43.8563C58.1255 43.8563 59.3725 43.8103 61.3145 43.7183C62.858 43.6467 64.105 43.6416 65.0556 43.703C65.3826 43.7234 65.6484 43.7081 65.8528 43.657C66.0879 43.6263 66.2617 43.6008 66.3741 43.5803C66.5683 43.5292 66.7114 43.427 66.8034 43.2737C66.6194 43.1715 66.4559 43.1101 66.3128 43.0897C66.1697 43.059 65.9346 43.0437 65.6075 43.0437L57.4969 42.9977C57.4049 42.9977 57.2567 42.9875 57.0522 42.967C56.8683 42.9568 56.7405 42.9824 56.6689 43.0437C56.5974 43.0948 56.5514 43.2072 56.531 43.381C56.5105 43.473 56.4901 43.6161 56.4696 43.8103C56.4287 44.0352 56.3572 44.1885 56.255 44.2703C56.1528 44.352 55.9943 44.398 55.7797 44.4082ZM165.45 119.443L165.404 119.32C164.923 119.402 164.632 119.453 164.53 119.474C162.996 119.924 161.06 120.608 158.719 121.528C158.596 121.579 157.686 121.912 155.99 122.525L155.714 122.326C155.1 121.835 154.431 121.794 153.705 122.203C153.092 122.561 152.673 123.01 152.448 123.552C152.315 123.879 152.039 124.14 151.62 124.334C149.3 125.417 147.332 126.327 145.717 127.063C144.961 127.411 143.99 127.835 142.804 128.336C142.395 128.458 142.099 128.566 141.915 128.658C141.649 128.78 141.475 128.872 141.394 128.934C141.22 129.056 141.087 129.22 140.995 129.424C141.486 129.537 141.971 129.48 142.452 129.256C143.463 128.745 144.317 128.341 145.012 128.044L151.804 125.085C152.448 124.809 152.913 124.436 153.199 123.966C153.261 123.864 153.465 123.613 153.813 123.215C153.823 123.358 153.838 123.573 153.859 123.859C153.93 124.104 154.017 124.252 154.119 124.303C154.477 124.477 154.779 124.559 155.024 124.549C155.872 124.487 156.491 124.104 156.879 123.399C157.063 123.072 157.334 122.831 157.692 122.678L165.45 119.443ZM164.361 93.7773C163.278 94.3599 161.872 94.9528 160.145 95.5558L154.779 97.3804C154.411 97.5439 154.129 97.6665 153.935 97.7483C154.089 97.7688 154.334 97.733 154.671 97.641C157.543 96.8437 159.138 96.394 159.455 96.2918C160.702 95.9034 162.552 95.3003 165.005 94.4826C165.24 94.4008 165.434 94.4008 165.588 94.4826C166.467 94.9426 167.438 94.9886 168.501 94.6206C168.746 94.5388 168.925 94.4366 169.037 94.3139C169.191 94.1504 169.262 93.9306 169.252 93.6547L168.056 94.0073C167.729 94.1197 167.438 94.1862 167.182 94.2066C166.865 94.2271 166.569 94.1811 166.293 94.0686C165.915 93.9358 165.634 93.8233 165.45 93.7313C165.092 93.5678 164.729 93.5831 164.361 93.7773ZM150.133 97.5337C151.308 97.2475 151.937 97.0942 152.019 97.0737C152.724 96.8897 153.332 96.7057 153.843 96.5218C155.499 95.9289 157.957 95.0039 161.218 93.7467L165.772 92.1215C165.833 92.1726 165.894 92.2186 165.956 92.2595C166.385 92.7705 166.957 93.0363 167.673 93.0567C168.337 93.0772 168.935 92.8983 169.467 92.5201C169.712 92.3463 169.87 92.1061 169.942 91.7995C170.013 91.4929 169.988 91.2015 169.865 90.9256C169.763 90.7007 169.605 90.5832 169.39 90.5729C169.216 90.5729 169.088 90.6905 169.007 90.9256C168.935 91.0993 168.833 91.36 168.7 91.7075C168.444 92.3003 168.03 92.4639 167.458 92.1981C167.203 92.0857 166.881 91.8915 166.492 91.6155C166.053 91.3191 165.588 91.2731 165.097 91.4775C164.749 91.6206 164.013 91.917 162.889 92.3668L157.186 94.5746C156.715 94.7586 155.494 95.2083 153.521 95.9238C152.152 96.4247 151.319 96.7313 151.022 96.8437C150.583 97.0175 150.286 97.2475 150.133 97.5337Z" fill="black"/>
</g>
<defs>
<clipPath id="clip0_513_2">
<rect width="200" height="158" fill="white"/>
</clipPath>
</defs>
</svg>
