
<svg xmlns="http://www.w3.org/2000/svg" version="1.1" xmlns:xlink="http://www.w3.org/1999/xlink" preserveAspectRatio="none" x="0px" y="0px" width="512px" height="512px" viewBox="0 0 512 512">
<defs>
<linearGradient id="Gradient_1" gradientUnits="userSpaceOnUse" x1="260.9375" y1="514.55" x2="260.86249999999995" y2="3.4499999999999886" spreadMethod="pad">
<stop  offset="0%" stop-color="#FFFFFF"/>

<stop  offset="100%" stop-color="#50A7FC"/>
</linearGradient>

<linearGradient id="Gradient_2" gradientUnits="userSpaceOnUse" x1="-14.3" y1="-64.05" x2="-12.7" y2="107.95" spreadMethod="pad">
<stop  offset="0%" stop-color="#FFFFFF"/>

<stop  offset="100%" stop-color="#50A7FC"/>
</linearGradient>

<linearGradient id="Gradient_3" gradientUnits="userSpaceOnUse" x1="-70.4875" y1="-45.8" x2="5.387500000000003" y2="71.7" spreadMethod="pad">
<stop  offset="0%" stop-color="#FFFFFF"/>

<stop  offset="100%" stop-color="#FFFFFF" stop-opacity="0.011764705882352941"/>
</linearGradient>

<linearGradient id="Gradient_4" gradientUnits="userSpaceOnUse" x1="21.7" y1="-2.0500000000000007" x2="21.7" y2="56.75" spreadMethod="pad">
<stop  offset="0%" stop-color="#00FF33"/>

<stop  offset="100%" stop-color="#67FE85"/>
</linearGradient>

<linearGradient id="Gradient_5" gradientUnits="userSpaceOnUse" x1="22.15" y1="-0.6000000000000014" x2="22.15" y2="39.7" spreadMethod="pad">
<stop  offset="0%" stop-color="#FFFFFF"/>

<stop  offset="100%" stop-color="#FFFFFF" stop-opacity="0.3411764705882353"/>
</linearGradient>

<linearGradient id="Gradient_6" gradientUnits="userSpaceOnUse" x1="19.45" y1="43.8" x2="19.45" y2="-2.0000000000000036" spreadMethod="pad">
<stop  offset="0%" stop-color="#FEBCE4"/>

<stop  offset="100%" stop-color="#FF0099"/>
</linearGradient>

<linearGradient id="Gradient_7" gradientUnits="userSpaceOnUse" x1="19.55" y1="-0.6500000000000004" x2="19.55" y2="26.85" spreadMethod="pad">
<stop  offset="0%" stop-color="#FFFFFF"/>

<stop  offset="100%" stop-color="#FFFFFF" stop-opacity="0.2"/>
</linearGradient>

<linearGradient id="Gradient_8" gradientUnits="userSpaceOnUse" x1="21.7" y1="-2.0500000000000007" x2="21.7" y2="56.75" spreadMethod="pad">
<stop  offset="0%" stop-color="#0000FF"/>

<stop  offset="100%" stop-color="#5F5FFE"/>
</linearGradient>

<linearGradient id="Gradient_9" gradientUnits="userSpaceOnUse" x1="22.15" y1="-0.6000000000000014" x2="22.15" y2="39.7" spreadMethod="pad">
<stop  offset="0%" stop-color="#FFFFFF"/>

<stop  offset="100%" stop-color="#FFFFFF" stop-opacity="0.15294117647058825"/>
</linearGradient>

<linearGradient id="Gradient_10" gradientUnits="userSpaceOnUse" x1="19.45" y1="43.8" x2="19.45" y2="-2.0000000000000036" spreadMethod="pad">
<stop  offset="0%" stop-color="#FEFDAB"/>

<stop  offset="100%" stop-color="#FFFF00"/>
</linearGradient>

<linearGradient id="Gradient_11" gradientUnits="userSpaceOnUse" x1="19.55" y1="-0.6500000000000004" x2="19.55" y2="26.85" spreadMethod="pad">
<stop  offset="0%" stop-color="#FFFFFF"/>

<stop  offset="100%" stop-color="#FFFFFF" stop-opacity="0.792156862745098"/>
</linearGradient>

<filter id="Filter_1" x="-20%" y="-20%" width="140%" height="140%" color-interpolation-filters="sRGB">
<feColorMatrix in="SourceGraphic" type="matrix" values="1 0 0 0 0 0 1 0 0 0 0 0 1 0 0 0 0 0 0.59 0" result="result1"/>
</filter>

<g id="Layer1_0_FILL">
<path fill="url(#Gradient_1)" stroke="none" d="
M 0 518.05
L 522 518.05 522 0 0 0 0 518.05 Z"/>
</g>

<g id="Logo_0_Layer2_0_FILL">
<path fill="#701416" fill-opacity="0" stroke="none" d="
M 154.75 -70.1
L -165.25 -70.1 -165.25 59.9 154.75 59.9 154.75 -70.1 Z"/>
</g>

<g id="_______0_Layer1_0_FILL">
<path fill="url(#Gradient_2)" stroke="none" d="
M 11.75 -32.8
Q 9.9025390625 -34.2724609375 7.7 -35.65 -5.6 -44 -24.45 -44 -43.3 -44 -56.65 -35.65 -63.158203125 -31.5640625 -66.5 -26.65 -69.6111328125 -27 -72.95 -27 -88.7 -27 -99.85 -19.25 -105.2490234375 -15.4802734375 -108.05 -10.95 -109.221875 -11 -110.45 -11 -126.4 -11 -137.7 -1.2 -148.95 8.6 -148.95 22.5 -148.95 36.4 -137.7 46.2 -126.4 56 -110.45 56 -108.5796875 56 -106.8 55.85 -106.95 57.3748046875 -106.95 58.95 -106.95 70.15 -98.05 78.05 -89.1 85.95 -76.45 85.95 -64.0306640625 85.95 -55.25 78.3 -53.858984375 79.50234375 -52.25 80.6 -41.55 87.95 -26.45 87.95 -11.35 87.95 -0.65 80.6 3.8912109375 77.5017578125 6.5 73.85 13.03125 76.95 21 76.95 33.85 76.95 42.9 68.9 49.6859375 62.8970703125 51.4 55 62.4216796875 61 76.5 61 95.35 61 108.65 50.3 122 39.6 122 24.5 122 9.4 108.65 -1.3 95.35 -12 76.5 -12 75.6865234375 -12 74.85 -12 73.8833984375 -24.5697265625 64.3 -33.75 53.6 -44 38.5 -44 23.4 -44 12.7 -33.75 12.209375 -33.280078125 11.75 -32.8 Z"/>
</g>

<g id="_______0_Layer0_0_FILL">
<path fill="url(#Gradient_3)" stroke="none" d="
M 38.5 -39
Q 25 -39 15.45 -29.85 15.05 -29.45 14.65 -29.05
L 14.65 -29
Q 13.55 -27.9 12.05 -27.8 10.45 -27.7 9.25 -28.65 7.6 -30 5.65 -31.2
L 5.6 -31.25
Q -6.85 -39 -24.45 -39 -41.9 -39 -54.35 -31.35 -54.45 -31.3 -54.5 -31.25 -60.25 -27.65 -63.15 -23.4 -63.8 -22.5 -64.8 -22 -65.8 -21.55 -66.9 -21.65 -69.85 -22 -72.95 -22 -87.35 -22 -97.55 -14.95 -102.2 -11.7 -104.6 -7.85 -105.15 -6.95 -106.1 -6.4
L -106.15 -6.4
Q -107.1 -5.9 -108.15 -5.95
L -108.2 -5.95
Q -109.3 -6 -110.45 -6 -124.65 -6.05 -134.8 2.55 -134.9 2.7 -135.05 2.8 -144.9 11.35 -144.95 23.5 -144.9 35.65 -135.05 44.2 -134.9 44.3 -134.8 44.45 -124.65 53.05 -110.45 53 -108.75 53 -107.05 52.9 -105.85 52.8 -104.8 53.4 -103.75 54 -103.2 55.1 -102.7 56.15 -102.8 57.35 -102.95 58.6 -102.95 59.95 -102.9400390625 61.8142578125 -102.65 63.55 -89.0087890625 65 -74.45 65 -7.55 65 39.75 34.8 68.768359375 16.303125 79.95 -6.9 78.2685546875 -7 76.5 -7 75.75 -7 75 -6.95 73.4 -6.9 72.2 -8 71 -9.05 70.9 -10.65 70 -21.75 61.55 -29.85 52 -39 38.5 -39 Z"/>
</g>

<g id="Symbol_1_0_Layer1_0_FILL">
<path fill="url(#Gradient_4)" stroke="none" d="
M 10.8 -2
Q 9.1494140625 -1.9859375 8.05 -0.9 7.98515625 -0.815625 7.9 -0.75 6.8140625 0.3494140625 6.8 2
L 6.8 12.85
Q 6.794140625 16.2828125 6.45 19.4 6.425390625 19.6716796875 6.45 19.9 6.0826171875 22.700390625 5.4 25.25
L 5.4 25.2
Q 4.8056640625 27.3208984375 3.95 29.3
L 3.95 29.25
Q 3.4779296875 30.36015625 2.9 31.4
L 1.7 31.5
Q 0.063671875 31.6169921875 -1 32.85
L -0.95 32.8
Q -2.0048828125 33.977734375 -2 35.55
L -1.65 52.75
Q -1.6541015625 54.3353515625 -0.5 55.5 -0.4380859375 55.5462890625 -0.4 55.55 0.777734375 56.6548828125 2.35 56.65
L 9.3 56.65
Q 10.8720703125 56.6548828125 12.05 55.55 12.0880859375 55.5462890625 12.1 55.5 13.20546875 54.4462890625 13.3 52.85
L 13.6 46.45 29.65 46.45 29.95 52.85
Q 30.0482421875 54.4755859375 31.25 55.55
L 31.15 55.5
Q 32.3078125 56.6470703125 33.95 56.65
L 40.85 56.65
Q 42.4220703125 56.6548828125 43.6 55.55 43.6380859375 55.5462890625 43.65 55.5 44.85390625 54.3353515625 44.85 52.75
L 45.3 35.55
Q 45.2884765625 34.0216796875 44.3 32.85 44.29921875 32.83984375 44.25 32.8 43.1755859375 31.5982421875 41.55 31.5
L 41.55 31.5 41.25 31.45 41.25 2
Q 41.2552734375 0.2794921875 40.1 -0.85 38.934375 -2.0048828125 37.25 -2
L 10.8 -2
M 23.3 14.85
L 23.3 13.45 24.15 13.45 24.15 31 20.8 31
Q 21.0849609375 30.1546875 21.3 29.3 22.25625 25.980078125 22.8 22.35
L 22.8 22.3
Q 23.2953125 18.6267578125 23.3 14.85 Z"/>
</g>

<g id="Symbol_1_0_Layer0_0_FILL">
<path fill="url(#Gradient_5)" stroke="none" d="
M 42.2 33.7
Q 41.873046875 33.5271484375 41.45 33.5 41.4130859375 33.5013671875 41.35 33.5
L 41.05 33.45
Q 40.3009765625 33.4044921875 39.75 32.8 39.248046875 32.2525390625 39.25 31.45
L 39.25 2
Q 39.2513671875 1.1546875 38.7 0.6 38.11328125 -0.0017578125 37.25 0
L 10.8 0
Q 10.004296875 -0.004296875 9.45 0.5 9.4357421875 0.561328125 9.4 0.6 9.3615234375 0.6353515625 9.3 0.65 8.795703125 1.204296875 8.8 2
L 8.8 12.85
Q 8.7998046875 16.4 8.45 19.65
L 8.45 19.65
Q 8.46640625 19.9083984375 8.4 20.15 8.039453125 23.080859375 7.35 25.75 7.3259765625 25.8458984375 7.3 25.9 6.7037109375 27.9072265625 5.9 29.75 5.8751953125 29.9330078125 5.8 30.1 5.2791015625 31.235546875 4.7 32.35 4.461328125 32.8125 4 33.1 3.578515625 33.389453125 3.05 33.4
L 1.9 33.5
Q 10.8099609375 39.05 22.25 39.05 33.468359375 39.05 42.2 33.7
M 21.85 12
Q 22.466015625 11.44453125 23.3 11.45
L 24.15 11.45
Q 24.9837890625 11.44453125 25.55 12 26.1552734375 12.616015625 26.15 13.45
L 26.15 31
Q 26.1552734375 31.8337890625 25.55 32.4 24.9837890625 33.0052734375 24.15 33
L 20.8 33
Q 20.151171875 32.9939453125 19.6 32.6 19.0970703125 32.2166015625 18.9 31.6 18.6958984375 30.9744140625 18.9 30.35 19.1712890625 29.5544921875 19.4 28.75 20.3 25.5498046875 20.85 22.05 21.3 18.4998046875 21.3 14.85
L 21.3 13.45
Q 21.29453125 12.616015625 21.85 12 Z"/>

<path fill="#701416" fill-opacity="0" stroke="none" d="
M 23.3 11.45
Q 22.466015625 11.44453125 21.85 12 21.29453125 12.616015625 21.3 13.45
L 21.3 14.85
Q 21.3 18.4998046875 20.85 22.05 20.3 25.5498046875 19.4 28.75 19.1712890625 29.5544921875 18.9 30.35 18.6958984375 30.9744140625 18.9 31.6 19.0970703125 32.2166015625 19.6 32.6 20.151171875 32.9939453125 20.8 33
L 24.15 33
Q 24.9837890625 33.0052734375 25.55 32.4 26.1552734375 31.8337890625 26.15 31
L 26.15 13.45
Q 26.1552734375 12.616015625 25.55 12 24.9837890625 11.44453125 24.15 11.45
L 23.3 11.45 Z"/>
</g>

<g id="Symbol_2_0_Layer1_0_FILL">
<path fill="url(#Gradient_6)" stroke="none" d="
M 19.7 -2
L 19.65 -2
Q 13.0802734375 -1.8919921875 8.25 1.15 3.38203125 4.1267578125 0.65 9.35
L 0.65 9.4
Q -1.9515625 14.5853515625 -2 21.1
L -2 21.15
Q -1.94765625 27.555078125 0.5 32.5 2.9994140625 37.6974609375 7.7 40.7
L 7.7 40.65
Q 12.406640625 43.742578125 18.95 43.8
L 19 43.8
Q 25.587890625 43.7400390625 30.45 40.9
L 30.4 40.95
Q 35.392578125 38.1693359375 38.1 32.85 40.8484375 27.7544921875 40.9 20.55
L 40.9 20.55
Q 40.8900390625 14.3693359375 38.45 9.3 36.0017578125 4.2216796875 31.25 1.15 26.54921875 -1.8849609375 19.7 -2
M 26.2 14.7
Q 27.2048828125 17.5154296875 27.2 20.8 27.2048828125 24.3712890625 26.2 27.15
L 26.2 27.15
Q 25.2818359375 29.6826171875 23.5 31.1 23.491796875 31.150390625 23.45 31.15 21.8408203125 32.508984375 19.5 32.55
L 19.45 32.55
Q 17.1568359375 32.5015625 15.45 31.2
L 15.5 31.2
Q 13.7142578125 29.7875 12.7 27.35 12.7103515625 27.3259765625 12.7 27.3 11.7017578125 24.5671875 11.7 21 11.6998046875 17.44296875 12.7 14.65 13.6681640625 12.1173828125 15.45 10.65
L 15.45 10.65
Q 17.1443359375 9.3046875 19.45 9.3
L 19.5 9.3
Q 21.88515625 9.340625 23.5 10.65 25.32109375 12.2099609375 26.2 14.7 Z"/>

<path fill="#701416" fill-opacity="0" stroke="none" d="
M 27.2 20.8
Q 27.2048828125 17.5154296875 26.2 14.7 25.32109375 12.2099609375 23.5 10.65 21.88515625 9.340625 19.5 9.3
L 19.45 9.3
Q 17.1443359375 9.3046875 15.45 10.65
L 15.45 10.65
Q 13.6681640625 12.1173828125 12.7 14.65 11.6998046875 17.44296875 11.7 21 11.7017578125 24.5671875 12.7 27.3 12.7103515625 27.3259765625 12.7 27.35 13.7142578125 29.7875 15.5 31.2
L 15.45 31.2
Q 17.1568359375 32.5015625 19.45 32.55
L 19.5 32.55
Q 21.8408203125 32.508984375 23.45 31.15 23.491796875 31.150390625 23.5 31.1 25.2818359375 29.6826171875 26.2 27.15
L 26.2 27.15
Q 27.2048828125 24.3712890625 27.2 20.8 Z"/>
</g>

<g id="Symbol_2_0_Layer0_0_FILL">
<path fill="url(#Gradient_7)" stroke="none" d="
M 24.9 9.15
L 24.95 9.15
Q 27.1 11 28.2 14.05 29.3 17.15 29.3 20.8 29.3 21.7587890625 29.2 22.65 34.2482421875 23.153515625 38.75 24.35 38.8048828125 23.88828125 38.85 23.4 38.9890625 22.0443359375 39 20.6
L 39 20.55
Q 39 14.85 36.75 10.2 34.55 5.6 30.3 2.85 26 0.1 19.85 0
L 19.8 0
Q 13.8 0.1 9.45 2.85
L 9.4 2.85
Q 5 5.55 2.55 10.3
L 2.55 10.35
Q 0.15 15.15 0.1 21.15
L 0.1 21.2
Q 0.1095703125 22.323046875 0.2 23.4 0.3208984375 24.8345703125 0.55 26.15 4.9654296875 24.4248046875 9.9 23.45 9.9283203125 23.434765625 9.9 23.4 9.8 22.2447265625 9.8 21 9.8 17.05 10.95 13.95 12.1 10.85 14.3 9.15
L 14.15 9.25
Q 14.25 9.15 14.35 9.1 16.5 7.35 19.6 7.3
L 19.65 7.3
Q 22.75 7.35 24.9 9.15 Z"/>
</g>

<g id="Symbol_3_0_Layer1_0_FILL">
<path fill="url(#Gradient_8)" stroke="none" d="
M 10.8 -2
Q 9.1494140625 -1.9859375 8.05 -0.9 7.98515625 -0.815625 7.9 -0.75 6.8140625 0.3494140625 6.8 2
L 6.8 12.85
Q 6.794140625 16.2828125 6.45 19.4 6.425390625 19.6716796875 6.45 19.9 6.0826171875 22.700390625 5.4 25.25
L 5.4 25.2
Q 4.8056640625 27.3208984375 3.95 29.3
L 3.95 29.25
Q 3.4779296875 30.36015625 2.9 31.4
L 1.7 31.5
Q 0.063671875 31.6169921875 -1 32.85
L -0.95 32.8
Q -2.0048828125 33.977734375 -2 35.55
L -1.65 52.75
Q -1.6541015625 54.3353515625 -0.5 55.5 -0.4380859375 55.5462890625 -0.4 55.55 0.777734375 56.6548828125 2.35 56.65
L 9.3 56.65
Q 10.8720703125 56.6548828125 12.05 55.55 12.0880859375 55.5462890625 12.1 55.5 13.20546875 54.4462890625 13.3 52.85
L 13.6 46.45 29.65 46.45 29.95 52.85
Q 30.0482421875 54.4755859375 31.25 55.55
L 31.15 55.5
Q 32.3078125 56.6470703125 33.95 56.65
L 40.85 56.65
Q 42.4220703125 56.6548828125 43.6 55.55 43.6380859375 55.5462890625 43.65 55.5 44.85390625 54.3353515625 44.85 52.75
L 45.3 35.55
Q 45.2884765625 34.0216796875 44.3 32.85 44.29921875 32.83984375 44.25 32.8 43.1755859375 31.5982421875 41.55 31.5
L 41.55 31.5 41.25 31.45 41.25 2
Q 41.2552734375 0.2794921875 40.1 -0.85 38.934375 -2.0048828125 37.25 -2
L 10.8 -2
M 23.3 14.85
L 23.3 13.45 24.15 13.45 24.15 31 20.8 31
Q 21.0849609375 30.1546875 21.3 29.3 22.25625 25.980078125 22.8 22.35
L 22.8 22.3
Q 23.2953125 18.6267578125 23.3 14.85 Z"/>
</g>

<g id="Symbol_3_0_Layer0_0_FILL">
<path fill="url(#Gradient_9)" stroke="none" d="
M 42.2 33.7
Q 41.873046875 33.5271484375 41.45 33.5 41.4130859375 33.5013671875 41.35 33.5
L 41.05 33.45
Q 40.3009765625 33.4044921875 39.75 32.8 39.248046875 32.2525390625 39.25 31.45
L 39.25 2
Q 39.2513671875 1.1546875 38.7 0.6 38.11328125 -0.0017578125 37.25 0
L 10.8 0
Q 10.004296875 -0.004296875 9.45 0.5 9.4357421875 0.561328125 9.4 0.6 9.3615234375 0.6353515625 9.3 0.65 8.795703125 1.204296875 8.8 2
L 8.8 12.85
Q 8.7998046875 16.4 8.45 19.65
L 8.45 19.65
Q 8.46640625 19.9083984375 8.4 20.15 8.039453125 23.080859375 7.35 25.75 7.3259765625 25.8458984375 7.3 25.9 6.7037109375 27.9072265625 5.9 29.75 5.8751953125 29.9330078125 5.8 30.1 5.2791015625 31.235546875 4.7 32.35 4.461328125 32.8125 4 33.1 3.578515625 33.389453125 3.05 33.4
L 1.9 33.5
Q 10.8099609375 39.05 22.25 39.05 33.468359375 39.05 42.2 33.7
M 24.15 11.45
Q 24.9837890625 11.44453125 25.55 12 26.1552734375 12.616015625 26.15 13.45
L 26.15 31
Q 26.1552734375 31.8337890625 25.55 32.4 24.9837890625 33.0052734375 24.15 33
L 20.8 33
Q 20.151171875 32.9939453125 19.6 32.6 19.0970703125 32.2166015625 18.9 31.6 18.6958984375 30.9744140625 18.9 30.35 19.1712890625 29.5544921875 19.4 28.75 20.3 25.5498046875 20.85 22.05 21.3 18.4998046875 21.3 14.85
L 21.3 13.45
Q 21.29453125 12.616015625 21.85 12 22.466015625 11.44453125 23.3 11.45
L 24.15 11.45 Z"/>

<path fill="#701416" fill-opacity="0" stroke="none" d="
M 25.55 12
Q 24.9837890625 11.44453125 24.15 11.45
L 23.3 11.45
Q 22.466015625 11.44453125 21.85 12 21.29453125 12.616015625 21.3 13.45
L 21.3 14.85
Q 21.3 18.4998046875 20.85 22.05 20.3 25.5498046875 19.4 28.75 19.1712890625 29.5544921875 18.9 30.35 18.6958984375 30.9744140625 18.9 31.6 19.0970703125 32.2166015625 19.6 32.6 20.151171875 32.9939453125 20.8 33
L 24.15 33
Q 24.9837890625 33.0052734375 25.55 32.4 26.1552734375 31.8337890625 26.15 31
L 26.15 13.45
Q 26.1552734375 12.616015625 25.55 12 Z"/>
</g>

<g id="Symbol_4_0_Layer1_0_FILL">
<path fill="url(#Gradient_10)" stroke="none" d="
M 19.7 -2
L 19.65 -2
Q 13.0802734375 -1.8919921875 8.25 1.15 3.38203125 4.1267578125 0.65 9.35
L 0.65 9.4
Q -1.9515625 14.5853515625 -2 21.1
L -2 21.15
Q -1.94765625 27.555078125 0.5 32.5 2.9994140625 37.6974609375 7.7 40.7
L 7.7 40.65
Q 12.406640625 43.742578125 18.95 43.8
L 19 43.8
Q 25.587890625 43.7400390625 30.45 40.9
L 30.4 40.95
Q 35.392578125 38.1693359375 38.1 32.85 40.8484375 27.7544921875 40.9 20.55
L 40.9 20.55
Q 40.8900390625 14.3693359375 38.45 9.3 36.0017578125 4.2216796875 31.25 1.15 26.54921875 -1.8849609375 19.7 -2
M 26.2 14.7
Q 27.2048828125 17.5154296875 27.2 20.8 27.2048828125 24.3712890625 26.2 27.15
L 26.2 27.15
Q 25.2818359375 29.6826171875 23.5 31.1 23.491796875 31.150390625 23.45 31.15 21.8408203125 32.508984375 19.5 32.55
L 19.45 32.55
Q 17.1568359375 32.5015625 15.45 31.2
L 15.5 31.2
Q 13.7142578125 29.7875 12.7 27.35 12.7103515625 27.3259765625 12.7 27.3 11.7017578125 24.5671875 11.7 21 11.6998046875 17.44296875 12.7 14.65 13.6681640625 12.1173828125 15.45 10.65
L 15.45 10.65
Q 17.1443359375 9.3046875 19.45 9.3
L 19.5 9.3
Q 21.88515625 9.340625 23.5 10.65 25.32109375 12.2099609375 26.2 14.7 Z"/>

<path fill="#701416" fill-opacity="0" stroke="none" d="
M 27.2 20.8
Q 27.2048828125 17.5154296875 26.2 14.7 25.32109375 12.2099609375 23.5 10.65 21.88515625 9.340625 19.5 9.3
L 19.45 9.3
Q 17.1443359375 9.3046875 15.45 10.65
L 15.45 10.65
Q 13.6681640625 12.1173828125 12.7 14.65 11.6998046875 17.44296875 11.7 21 11.7017578125 24.5671875 12.7 27.3 12.7103515625 27.3259765625 12.7 27.35 13.7142578125 29.7875 15.5 31.2
L 15.45 31.2
Q 17.1568359375 32.5015625 19.45 32.55
L 19.5 32.55
Q 21.8408203125 32.508984375 23.45 31.15 23.491796875 31.150390625 23.5 31.1 25.2818359375 29.6826171875 26.2 27.15
L 26.2 27.15
Q 27.2048828125 24.3712890625 27.2 20.8 Z"/>
</g>

<g id="Symbol_4_0_Layer0_0_FILL">
<path fill="url(#Gradient_11)" stroke="none" d="
M 24.9 9.15
L 24.95 9.15
Q 27.1 11 28.2 14.05 29.3 17.15 29.3 20.8 29.3 21.7587890625 29.2 22.65 34.2482421875 23.153515625 38.75 24.35 38.8048828125 23.88828125 38.85 23.4 38.9890625 22.0443359375 39 20.6
L 39 20.55
Q 39 14.85 36.75 10.2 34.55 5.6 30.3 2.85 26 0.1 19.85 0
L 19.8 0
Q 13.8 0.1 9.45 2.85
L 9.4 2.85
Q 5 5.55 2.55 10.3
L 2.55 10.35
Q 0.15 15.15 0.1 21.15
L 0.1 21.2
Q 0.1095703125 22.323046875 0.2 23.4 0.3208984375 24.8345703125 0.55 26.15 4.9654296875 24.4248046875 9.9 23.45 9.9283203125 23.434765625 9.9 23.4 9.8 22.2447265625 9.8 21 9.8 17.05 10.95 13.95 12.1 10.85 14.3 9.15
L 14.15 9.25
Q 14.25 9.15 14.35 9.1 16.5 7.35 19.6 7.3
L 19.65 7.3
Q 22.75 7.35 24.9 9.15 Z"/>
</g>
</defs>

<g transform="matrix( 1, 0, 0, 1, 0,0) ">
<use xlink:href="#Layer1_0_FILL"/>
</g>

<g transform="matrix( 2.387542724609375, 0, 0, 2.387542724609375, 261.5,267.85) ">
<g transform="matrix( 1, 0, 0, 1, 0,0) ">
<use xlink:href="#Logo_0_Layer2_0_FILL"/>
</g>

<g transform="matrix( 1, 0, 0, 1, 8.55,-27) ">
<g transform="matrix( 1, 0, 0, 1, 0,0) ">
<use filter="url(#Filter_1)" xlink:href="#_______0_Layer1_0_FILL"/>
</g>

<g transform="matrix( 1, 0, 0, 1, 0,0) ">
<use filter="url(#Filter_1)" xlink:href="#_______0_Layer0_0_FILL"/>
</g>
</g>

<g id="b1" transform="matrix( 0.977325439453125, -0.2085418701171875, 0.2085418701171875, 0.977325439453125, -106.2,-23.2) ">
<g transform="matrix( 1, 0, 0, 1, 0,0) ">
<use xlink:href="#Symbol_1_0_Layer1_0_FILL"/>
</g>

<g transform="matrix( 1, 0, 0, 1, 0,0) ">
<use xlink:href="#Symbol_1_0_Layer0_0_FILL"/>
</g>
</g>

<g id="b2" transform="matrix( 1, 0, 0, 1, -48.35,-33.65) ">
<g transform="matrix( 1, 0, 0, 1, 0,0) ">
<use xlink:href="#Symbol_2_0_Layer1_0_FILL"/>
</g>

<g transform="matrix( 1, 0, 0, 1, 0,0) ">
<use xlink:href="#Symbol_2_0_Layer0_0_FILL"/>
</g>
</g>

<g id="b3" transform="matrix( 0.9565887451171875, 0.2883148193359375, -0.2883148193359375, 0.9565887451171875, 9.7,-34.05) ">
<g transform="matrix( 1, 0, 0, 1, 0,0) ">
<use xlink:href="#Symbol_3_0_Layer1_0_FILL"/>
</g>

<g transform="matrix( 1, 0, 0, 1, 0,0) ">
<use xlink:href="#Symbol_3_0_Layer0_0_FILL"/>
</g>
</g>

<g id="b4" transform="matrix( 1, 0, 0, 1, 55.65,-23.6) ">
<g transform="matrix( 1, 0, 0, 1, 0,0) ">
<use xlink:href="#Symbol_4_0_Layer1_0_FILL"/>
</g>

<g transform="matrix( 1, 0, 0, 1, 0,0) ">
<use xlink:href="#Symbol_4_0_Layer0_0_FILL"/>
</g>
</g>
</g>
</svg>
