<svg width="271" height="132" viewBox="0 0 271 132" fill="none" xmlns="http://www.w3.org/2000/svg">
    <path d="M187.45 0C177.383 0 168.783 3.41667 161.65 10.25C161.323 10.5633 161.006 10.8799 160.7 11.2C159.468 10.2184 158.118 9.26836 156.65 8.35C147.783 2.78333 137.067 0 124.5 0C111.933 0 101.2 2.78333 92.3 8.35C87.9612 11.074 84.6779 14.074 82.45 17.35C80.3759 17.1167 78.2259 17 76 17C65.5 17 56.5333 19.5833 49.1 24.75C45.5006 27.2632 42.7673 30.0298 40.9 33.05C40.1187 33.0167 39.3188 33 38.5 33C27.8667 33 18.7833 36.2667 11.25 42.8C3.75 49.3333 0 57.2333 0 66.5C0 75.7667 3.75 83.6667 11.25 90.2C18.7833 96.7333 27.8667 100 38.5 100C39.7469 100 40.9635 99.95 42.15 99.85C42.05 100.867 42 101.9 42 102.95C42 110.417 44.9667 116.783 50.9 122.05C56.8667 127.317 64.0667 129.95 72.5 129.95C80.7796 129.95 87.8462 127.4 93.7 122.3C94.6273 123.102 95.6273 123.868 96.7 124.6C103.833 129.5 112.433 131.95 122.5 131.95C132.567 131.95 141.167 129.5 148.3 124.6C151.327 122.535 153.711 120.285 155.45 117.85C159.804 119.917 164.637 120.95 169.95 120.95C178.517 120.95 185.817 118.267 191.85 112.9C196.374 108.898 199.207 104.265 200.35 99C207.698 103 216.064 105 225.45 105C238.017 105 248.733 101.433 257.6 94.3C266.5 87.1667 270.95 78.5667 270.95 68.5C270.95 58.4333 266.5 49.8333 257.6 42.7C248.733 35.5667 238.017 32 225.45 32C224.908 32 224.358 32 223.8 32C223.156 23.6202 219.639 16.3702 213.25 10.25C206.117 3.41667 197.517 0 187.45 0Z" fill="url(#paint0_linear)"/>
    <path d="M158.2 15.35C157.1 14.45 155.9 13.6 154.6 12.8L154.55 12.75C146.25 7.58333 136.233 5 124.5 5C112.867 5 102.9 7.55 94.6 12.65C94.5333 12.6833 94.4833 12.7167 94.45 12.75C90.6167 15.15 87.7333 17.7667 85.8 20.6C85.3667 21.2 84.8167 21.6667 84.15 22C83.4833 22.3 82.7833 22.4167 82.05 22.35C80.0833 22.1167 78.0667 22 76 22C66.4 22 58.2 24.35 51.4 29.05C48.3 31.2167 45.95 33.5833 44.35 36.15C43.9833 36.75 43.4833 37.2333 42.85 37.6H42.8C42.1667 37.9333 41.5 38.0833 40.8 38.05H40.75C40.0167 38.0167 39.2667 38 38.5 38C29.0333 37.9667 20.9167 40.8167 14.15 46.55C14.0833 46.65 14 46.7333 13.9 46.8C7.33333 52.5 4.03333 59.4 4 67.5C4.03333 75.6 7.33333 82.5 13.9 88.2C14 88.2667 14.0833 88.35 14.15 88.45C20.9167 94.1833 29.0333 97.0333 38.5 97C39.6333 97 40.7667 96.9667 41.9 96.9C42.7 96.8333 43.45 97 44.15 97.4C44.85 97.8 45.3833 98.3667 45.75 99.1C46.0833 99.8 46.2167 100.55 46.15 101.35C46.05 102.183 46 103.05 46 103.95C46.0066 105.193 46.1066 106.393 46.3 107.55C55.3941 108.517 64.7941 109 74.5 109C119.1 109 157.167 98.9333 188.7 78.8C208.046 66.4688 221.446 52.5687 228.9 37.1C227.779 37.0333 226.629 37 225.45 37C224.95 37 224.45 37.0167 223.95 37.05C222.883 37.0833 221.95 36.7333 221.15 36C220.35 35.3 219.917 34.4167 219.85 33.35C219.25 25.95 216.133 19.55 210.5 14.15C204.133 8.05 196.45 5 187.45 5C178.45 5 170.767 8.05 164.4 14.15C164.133 14.4167 163.867 14.6833 163.6 14.95V15C162.867 15.7333 162 16.1333 161 16.2C159.933 16.2667 159 15.9833 158.2 15.35Z" fill="url(#paint1_linear)"/>
    <defs>
        <linearGradient id="paint0_linear" x1="134.65" y1="-20.0625" x2="136.25" y2="151.962" gradientUnits="userSpaceOnUse">
            <stop stop-color="white"/>
            <stop offset="1" stop-color="#50A7FC"/>
        </linearGradient>
        <linearGradient id="paint1_linear" x1="78.4625" y1="-1.8" x2="154.337" y2="115.7" gradientUnits="userSpaceOnUse">
            <stop stop-color="white"/>
            <stop offset="1" stop-color="white" stop-opacity="0.0117647"/>
        </linearGradient>
    </defs>
</svg>
