<svg width="457" height="407" viewBox="0 0 457 407" fill="none" xmlns="http://www.w3.org/2000/svg">
<path d="M186.593 41.9959C181.405 42.2787 176.763 40.6732 172.668 37.1794L131.471 0.257034L94.1702 41.8764C90.678 45.9697 89.0745 50.6104 89.3596 55.7987C89.6711 59.7775 90.9814 63.3302 93.2906 66.4567C93.8974 67.3529 94.6895 68.239 95.6669 69.1149L110.621 82.5173C114.629 86.1088 116.736 90.6402 116.944 96.1115C117.337 101.573 115.738 106.306 112.148 110.312C108.471 114.415 103.896 116.569 98.4249 116.775C94.7189 116.977 91.3815 116.276 88.4126 114.672C86.9771 113.914 85.624 112.966 84.3533 111.827L69.1058 98.1616C68.2261 97.3732 67.3566 96.7701 66.4973 96.3523C63.1375 94.3982 59.4631 93.4834 55.474 93.6079C53.9916 93.6887 52.5194 93.9548 51.0574 94.4062C49.41 94.8677 47.8217 95.5583 46.2925 96.478C45.0259 97.1046 43.9111 97.9552 42.9479 99.0299L0 146.951L41.1977 183.873C43.7491 186.336 45.5746 189.117 46.6742 192.217L46.2802 192.656C46.3881 192.929 46.4472 193.158 46.4573 193.344C46.9094 194.806 47.1761 196.278 47.2576 197.76C47.3838 201.749 46.4706 205.423 44.5178 208.782C44.1003 209.641 43.4976 210.51 42.7096 211.39L29.0503 226.631C27.912 227.901 26.9641 229.253 26.2066 230.688C24.6041 233.656 23.9046 236.993 24.1083 240.699C24.316 246.171 26.4723 250.746 30.5775 254.425C34.5848 258.016 39.3191 259.617 44.7804 259.226C50.2518 259.021 54.7825 256.915 58.3725 252.91L71.7691 237.962C72.6447 236.985 73.5304 236.193 74.4264 235.587C77.1041 233.582 80.1931 232.299 83.6935 231.736C84.0641 231.716 84.5273 231.691 85.0832 231.661C90.2716 231.378 94.9133 232.983 99.0082 236.477L140.206 273.4L183.154 225.479C184.117 224.404 184.841 223.203 185.325 221.875C186.073 220.255 186.586 218.601 186.865 216.913C187.154 215.41 187.258 213.918 187.176 212.436C186.865 208.457 185.555 204.904 183.245 201.778C182.736 200.969 182.042 200.171 181.162 199.382L165.915 185.717C164.644 184.578 163.554 183.337 162.644 181.992C160.725 179.216 159.665 175.975 159.461 172.269C159.068 166.808 160.71 162.026 164.388 157.923C167.978 153.917 172.508 151.812 177.98 151.606C183.441 151.216 188.175 152.816 192.183 156.408L207.137 169.81C208.114 170.686 209.082 171.377 210.039 171.882C213.399 173.836 217.073 174.751 221.062 174.626C226.25 174.344 230.688 172.243 234.376 168.325L271.676 126.706L230.479 89.7833C226.559 86.0942 224.457 81.6554 224.171 76.4671C224.141 75.9113 224.159 75.3992 224.226 74.9309C224.316 71.4877 225.211 68.326 226.911 65.4455C227.416 64.4887 228.107 63.5219 228.982 62.5449L242.379 47.5971C245.969 43.5914 247.567 38.858 247.174 33.3969C246.966 27.9256 244.859 23.3942 240.852 19.8027C236.746 16.1236 231.963 14.4794 226.502 14.87C222.796 15.072 219.555 16.1314 216.78 18.0483C215.436 18.9579 214.195 20.0477 213.057 21.3178L199.397 36.5587C198.609 37.438 197.811 38.132 197.003 38.6407C194.237 40.7428 191.099 41.9825 187.589 42.3597L188.114 41.7736C187.656 41.8915 187.149 41.9656 186.593 41.9959Z" fill="url(#paint0_linear_515_2)"/>
<path d="M174.855 134.981L142.532 105.051L123.944 125.126L140.611 140.56C147.525 147.132 151.326 153.987 152.015 161.125C152.703 168.262 150.262 174.839 144.691 180.856C139.092 186.903 132.649 189.889 125.364 189.813C118.079 189.738 110.957 186.593 103.998 180.377L78.3055 156.587L140.382 89.5471L181.592 127.706L174.855 134.981ZM117.207 132.401L93.8856 157.586L110.047 172.551C114.436 176.616 118.924 178.605 123.509 178.517C128.125 178.458 132.252 176.464 135.89 172.535C139.386 168.759 140.961 164.688 140.616 160.32C140.301 155.98 138.008 151.776 133.737 147.707L117.207 132.401Z" fill="black"/>
<path d="M203.851 38.9643C202.712 40.2344 201.608 41.2704 200.537 42.0721C196.427 45.0839 191.925 46.8626 187.03 47.4082C185.918 47.4688 184.938 47.3828 184.089 47.1504C177.397 47.1434 171.418 44.8674 166.15 40.3224L130.67 8.52454L98.6235 44.2821C96.6199 46.7144 95.7483 49.4568 96.009 52.5091L95.8624 52.3777C95.9947 54.7866 96.7654 56.9747 98.1745 58.9423C98.2723 59.0299 98.37 59.1175 98.4678 59.2051C98.6734 59.5656 99.0206 59.9648 99.5093 60.4028L114.464 73.8052C120.035 78.7983 123.029 85.0934 123.447 92.6905C123.544 92.7781 123.549 92.8708 123.462 92.9685C123.879 100.566 121.593 107.149 116.602 112.717C111.436 118.482 105.098 121.522 97.588 121.838L97.3101 121.853C92.1217 122.136 87.4668 121.135 83.3454 118.851C81.3335 117.753 79.448 116.415 77.6886 114.838L62.4411 101.173C62.1479 100.91 61.9035 100.691 61.708 100.516C61.425 100.439 61.2346 100.356 61.1369 100.269C59.125 99.1703 56.9584 98.6379 54.6371 98.6715L54.3592 98.6867C53.5304 98.8248 52.7943 98.9578 52.1508 99.0858L51.8729 99.101C50.7713 99.3469 49.7725 99.773 48.8765 100.379C48.7889 100.477 48.6087 100.58 48.3359 100.688C47.9755 100.893 47.6639 101.142 47.4012 101.436L24.2855 127.228C71.1013 121.795 121.492 124.763 175.457 136.132C196.048 140.492 215.758 145.737 234.587 151.866L259.147 124.462L223.667 92.6636C218.184 87.5729 215.287 81.3654 214.978 74.0411C214.839 73.2124 214.847 72.515 215.002 71.949C214.992 71.7637 214.982 71.5784 214.972 71.3931C214.961 71.2078 215 71.0663 215.088 70.9686C215.214 66.5013 216.429 62.3929 218.732 58.6432L218.6 58.7898C219.358 57.3546 220.393 55.9043 221.707 54.4388L235.103 39.491C237.205 37.1462 238.12 34.355 237.849 31.1174C237.751 31.0298 237.746 30.9372 237.834 30.8395C237.748 27.5918 236.533 24.9167 234.187 22.8144C231.743 20.6244 228.903 19.6642 225.665 19.9336C223.442 20.0548 221.521 20.6241 219.905 21.6415C219.009 22.2479 218.21 22.9418 217.51 23.7234L203.851 38.9643Z" fill="url(#paint1_linear_515_2)"/>
<path d="M288.182 159.236C285.582 163.734 281.7 166.742 276.535 168.26L223.094 182.563L237.543 236.551C239.06 241.713 242.069 245.593 246.569 248.192C250.07 250.107 253.761 250.952 257.642 250.729C258.724 250.711 259.899 250.532 261.167 250.193L280.565 245.001C285.764 243.61 290.71 244.323 295.404 247.141C300.192 249.798 303.28 253.725 304.671 258.921C306.096 264.244 305.398 269.252 302.578 273.945C300.72 277.158 298.309 279.569 295.342 281.178C293.923 281.966 292.389 282.58 290.74 283.021L270.962 288.314C269.821 288.62 268.84 289.018 268.02 289.509C264.547 291.253 261.772 293.829 259.695 297.237C258.952 298.523 258.37 299.901 257.948 301.372C257.434 303.003 257.143 304.711 257.077 306.494C256.909 307.897 257.012 309.296 257.385 310.69L274.021 372.852L327.462 358.55C330.92 357.76 334.246 357.753 337.443 358.527L337.595 359.097C337.883 359.156 338.107 359.232 338.268 359.325C339.739 359.746 341.117 360.328 342.403 361.07C345.812 363.146 348.388 365.919 350.133 369.391C350.624 370.21 351.022 371.19 351.327 372.331L356.618 392.101C357.059 393.748 357.673 395.282 358.461 396.701C360.069 399.665 362.481 402.076 365.695 403.932C370.389 406.75 375.399 407.446 380.724 406.021C385.922 404.63 389.851 401.541 392.51 396.755C395.33 392.062 396.045 387.117 394.655 381.921L389.465 362.531C389.126 361.264 388.948 360.089 388.93 359.008C388.716 355.67 389.33 352.382 390.773 349.143C390.959 348.822 391.191 348.42 391.47 347.938C394.07 343.44 397.953 340.431 403.117 338.913L456.558 324.611L439.922 262.449C439.549 261.055 438.939 259.792 438.093 258.66C437.145 257.148 436.04 255.814 434.78 254.658C433.68 253.594 432.487 252.691 431.201 251.948C427.7 250.033 424.009 249.188 420.128 249.412C419.173 249.396 418.125 249.54 416.984 249.846L397.205 255.139C395.557 255.58 393.921 255.814 392.298 255.841C388.924 255.929 385.631 255.045 382.417 253.189C377.629 250.532 374.523 246.542 373.099 241.219C371.708 236.023 372.423 231.078 375.243 226.385C377.902 221.599 381.831 218.51 387.03 217.119L406.428 211.928C407.696 211.588 408.803 211.156 409.75 210.631C413.223 208.887 415.998 206.311 418.075 202.903C420.676 198.404 421.344 193.54 420.08 188.31L405.631 134.322L352.19 148.624C346.958 149.889 342.092 149.222 337.592 146.623C337.11 146.345 336.691 146.049 336.336 145.737C333.502 143.779 331.344 141.301 329.863 138.302C329.338 137.356 328.906 136.25 328.566 134.982L323.377 115.592C321.986 110.396 318.898 106.47 314.11 103.812C309.416 100.994 304.47 100.281 299.271 101.672C293.946 103.097 289.954 106.203 287.295 110.989C285.437 114.202 284.552 117.495 284.639 120.867C284.666 122.489 284.9 124.124 285.341 125.772L290.632 145.542C290.937 146.683 291.082 147.731 291.065 148.686C291.313 152.15 290.635 155.455 289.032 158.601L288.828 157.84C288.676 158.289 288.461 158.754 288.182 159.236Z" fill="url(#paint2_linear_515_2)"/>
<path d="M322.443 304.021L299.12 215.681L328 208.056C337.586 205.525 345.309 205.606 351.169 208.3C357.069 210.982 361.045 216.206 363.095 223.972C364.185 228.098 363.978 232.068 362.476 235.883C360.963 239.658 358.413 242.948 354.828 245.756C359.953 245.83 364.388 247.385 368.131 250.421C371.905 253.405 374.475 257.486 375.842 262.664C377.935 270.592 377.011 277.499 373.07 283.385C369.129 289.272 362.467 293.454 353.083 295.931L322.443 304.021ZM323.183 259.627L331.577 291.42L350.81 286.342C356.231 284.911 360.129 282.388 362.507 278.775C364.915 275.111 365.467 270.811 364.164 265.877C361.355 255.239 354.167 251.447 342.599 254.501L323.183 259.627ZM320.716 250.284L338.312 245.638C343.408 244.292 347.137 241.945 349.498 238.596C351.899 235.236 352.523 231.372 351.369 227.003C350.088 222.15 347.743 219.004 344.335 217.568C340.916 216.091 336.315 216.116 330.531 217.643L313.3 222.192L320.716 250.284Z" fill="black"/>
<path d="M320.194 137.654C320.612 139.307 321.109 140.738 321.685 141.946C323.923 146.522 327.083 150.189 331.164 152.947C332.12 153.518 333.028 153.897 333.888 154.086C339.816 157.189 346.169 157.953 352.945 156.377L399.138 144.71L410.896 191.265C411.54 194.35 411.037 197.183 409.388 199.765L409.579 199.717C408.342 201.788 406.643 203.367 404.481 204.455C404.353 204.487 404.226 204.519 404.099 204.551C403.749 204.775 403.256 204.967 402.62 205.128L383.15 210.045C375.897 211.877 370.32 216.059 366.42 222.592C366.292 222.624 366.245 222.704 366.277 222.831C362.377 229.364 361.342 236.256 363.173 243.506C365.068 251.011 369.267 256.648 375.77 260.418L376.009 260.561C380.472 263.223 385.058 264.5 389.769 264.393C392.061 264.355 394.352 264.047 396.643 263.468L416.494 258.455C416.876 258.358 417.194 258.278 417.449 258.214C417.735 258.277 417.942 258.292 418.07 258.26C420.362 258.222 422.527 258.758 424.567 259.866L424.806 260.009C425.476 260.516 426.066 260.976 426.576 261.389L426.815 261.531C427.676 262.261 428.363 263.102 428.874 264.056C428.906 264.183 429.018 264.358 429.21 264.58C429.433 264.929 429.593 265.295 429.69 265.677L438.171 299.257C399.242 272.69 353.245 251.899 300.178 236.886C279.92 231.178 260.03 226.662 240.509 223.338L231.498 187.658L277.692 175.992C284.913 174.033 290.363 169.882 294.04 163.541C294.548 162.872 294.865 162.25 294.991 161.677C295.086 161.518 295.181 161.359 295.277 161.199C295.372 161.04 295.403 160.897 295.371 160.769C297.335 156.755 298.169 152.553 297.873 148.162L297.921 148.353C297.917 146.73 297.674 144.965 297.192 143.057L292.277 123.596C291.506 120.543 291.993 117.646 293.737 114.905C293.865 114.873 293.912 114.793 293.88 114.666C295.465 111.83 297.785 110.027 300.839 109.255C304.02 108.452 306.982 108.922 309.723 110.665C311.636 111.805 313.071 113.202 314.03 114.854C314.542 115.807 314.926 116.793 315.183 117.811L320.194 137.654Z" fill="url(#paint3_linear_515_2)"/>
<defs>
<linearGradient id="paint0_linear_515_2" x1="204.996" y1="199.338" x2="66.0087" y2="74.7738" gradientUnits="userSpaceOnUse">
<stop stop-color="#50A7FC"/>
<stop offset="1" stop-color="#0563BE"/>
</linearGradient>
<linearGradient id="paint1_linear_515_2" x1="140.195" y1="5.56604" x2="102.054" y2="187.856" gradientUnits="userSpaceOnUse">
<stop stop-color="white"/>
<stop offset="1" stop-color="white" stop-opacity="0.270588"/>
</linearGradient>
<linearGradient id="paint2_linear_515_2" x1="396.518" y1="410.041" x2="305.465" y2="117.116" gradientUnits="userSpaceOnUse">
<stop stop-color="#F35D5D"/>
<stop offset="1" stop-color="#BE0505"/>
</linearGradient>
<linearGradient id="paint3_linear_515_2" x1="392.079" y1="137.664" x2="341.135" y2="316.798" gradientUnits="userSpaceOnUse">
<stop stop-color="white"/>
<stop offset="1" stop-color="white" stop-opacity="0.270588"/>
</linearGradient>
</defs>
</svg>
