<svg width="639" height="550" viewBox="0 0 639 550" fill="none" xmlns="http://www.w3.org/2000/svg">
    <path d="M235.971 91.0053C230.782 91.2881 226.141 89.6826 222.046 86.1888L180.848 49.2665L143.548 90.8859C140.055 94.9791 138.452 99.6199 138.737 104.808C139.049 108.787 140.359 112.34 142.668 115.466C143.275 116.362 144.067 117.248 145.044 118.124L159.999 131.527C164.006 135.118 166.113 139.65 166.321 145.121C166.714 150.582 165.116 155.316 161.526 159.321C157.848 163.424 153.274 165.579 147.802 165.784C144.096 165.986 140.759 165.285 137.79 163.681C136.354 162.923 135.001 161.975 133.731 160.836L118.483 147.171C117.604 146.383 116.734 145.78 115.875 145.362C112.515 143.408 108.84 142.493 104.851 142.617C103.369 142.698 101.897 142.964 100.435 143.416C98.7875 143.877 97.1992 144.568 95.6699 145.487C94.4034 146.114 93.2885 146.965 92.3254 148.039L49.3774 195.96L90.5751 232.883C93.1265 235.345 94.952 238.127 96.0516 241.226L95.6576 241.666C95.7655 241.939 95.8246 242.168 95.8348 242.353C96.2868 243.815 96.5536 245.288 96.635 246.77C96.7612 250.759 95.848 254.433 93.8952 257.792C93.4778 258.651 92.875 259.52 92.087 260.399L78.4277 275.64C77.2894 276.91 76.3416 278.263 75.5841 279.698C73.9815 282.666 73.2821 286.003 73.4857 289.709C73.6934 295.18 75.8498 299.755 79.9549 303.434C83.9622 307.026 88.6966 308.626 94.1578 308.236C99.6293 308.03 104.16 305.925 107.75 301.919L121.147 286.971C122.022 285.994 122.908 285.203 123.804 284.596C126.482 282.592 129.571 281.308 133.071 280.746C133.441 280.726 133.905 280.7 134.461 280.67C139.649 280.387 144.291 281.993 148.386 285.487L189.583 322.409L232.531 274.488C233.494 273.413 234.218 272.212 234.703 270.885C235.45 269.264 235.963 267.61 236.242 265.922C236.531 264.42 236.635 262.927 236.554 261.445C236.242 257.466 234.932 253.914 232.623 250.787C232.114 249.978 231.419 249.18 230.54 248.392L215.292 234.726C214.022 233.588 212.931 232.346 212.021 231.002C210.103 228.226 209.042 224.985 208.838 221.279C208.445 215.818 210.088 211.035 213.765 206.932C217.355 202.926 221.886 200.821 227.357 200.616C232.818 200.225 237.553 201.825 241.56 205.417L256.514 218.819C257.492 219.695 258.459 220.386 259.416 220.891C262.776 222.846 266.45 223.76 270.439 223.636C275.628 223.353 280.066 221.253 283.754 217.335L321.054 175.715L279.856 138.793C275.936 135.104 273.834 130.665 273.549 125.477C273.518 124.921 273.537 124.409 273.604 123.94C273.693 120.497 274.588 117.335 276.289 114.455C276.794 113.498 277.484 112.531 278.36 111.554L291.756 96.6065C295.346 92.6009 296.945 87.8675 296.552 82.4063C296.344 76.935 294.236 72.4036 290.229 68.8121C286.124 65.133 281.341 63.4888 275.879 63.8794C272.173 64.0814 268.933 65.1409 266.157 67.0577C264.813 67.9673 263.572 69.0572 262.434 70.3272L248.775 85.5682C247.987 86.4474 247.188 87.1414 246.38 87.6501C243.615 89.7523 240.477 90.992 236.966 91.3692L237.492 90.783C237.034 90.9009 236.527 90.975 235.971 91.0053Z" fill="url(#paint0_linear)"/>
    <path d="M224.233 183.99L191.91 154.06L173.321 174.135L189.989 189.569C196.902 196.142 200.703 202.997 201.392 210.134C202.081 217.272 199.64 223.849 194.069 229.865C188.469 235.912 182.027 238.898 174.741 238.823C167.456 238.748 160.334 235.602 153.375 229.387L127.683 205.596L189.76 138.557L230.969 176.715L224.233 183.99ZM166.585 181.41L143.263 206.596L159.424 221.561C163.814 225.625 168.301 227.614 172.886 227.527C177.502 227.468 181.629 225.474 185.267 221.544C188.764 217.769 190.339 213.697 189.993 209.329C189.679 204.989 187.385 200.785 183.114 196.716L166.585 181.41Z" fill="black"/>
    <path d="M253.228 87.9738C252.09 89.2438 250.985 90.2798 249.914 91.0816C245.805 94.0933 241.303 95.872 236.407 96.4176C235.296 96.4782 234.315 96.3923 233.466 96.1598C226.775 96.1528 220.795 93.8768 215.528 89.3319L180.048 57.534L148.001 93.2915C145.997 95.7239 145.126 98.4662 145.386 101.519L145.24 101.387C145.372 103.796 146.143 105.984 147.552 107.952C147.65 108.039 147.747 108.127 147.845 108.215C148.051 108.575 148.398 108.974 148.887 109.412L163.841 122.815C169.412 127.808 172.407 134.103 172.824 141.7C172.922 141.788 172.927 141.88 172.839 141.978C173.257 149.575 170.97 156.158 165.979 161.727C160.813 167.491 154.475 170.531 146.965 170.848L146.688 170.863C141.499 171.146 136.844 170.145 132.723 167.861C130.711 166.762 128.825 165.425 127.066 163.848L111.819 150.183C111.525 149.92 111.281 149.701 111.085 149.526C110.802 149.448 110.612 149.366 110.514 149.278C108.502 148.18 106.336 147.647 104.015 147.681L103.737 147.696C102.908 147.834 102.172 147.967 101.528 148.095L101.25 148.11C100.149 148.356 99.1499 148.782 98.2539 149.389C98.1664 149.487 97.9862 149.589 97.7133 149.697C97.3529 149.903 97.0413 150.152 96.7787 150.445L73.663 176.237C120.479 170.805 170.869 173.773 224.834 185.142C245.425 189.502 265.135 194.746 283.964 200.875L308.525 173.471L273.045 141.673C267.561 136.582 264.665 130.375 264.355 123.051C264.217 122.222 264.225 121.524 264.38 120.958C264.369 120.773 264.359 120.588 264.349 120.403C264.339 120.217 264.378 120.076 264.465 119.978C264.591 115.511 265.806 111.402 268.109 107.653L267.978 107.799C268.735 106.364 269.771 104.914 271.084 103.448L284.481 88.5004C286.582 86.1557 287.497 83.3645 287.227 80.1268C287.129 80.0392 287.124 79.9466 287.211 79.8489C287.126 76.6012 285.91 73.9261 283.564 71.8238C281.121 69.6339 278.28 68.6736 275.043 68.943C272.819 69.0642 270.899 69.6335 269.282 70.6509C268.386 71.2573 267.588 71.9513 266.887 72.7329L253.228 87.9738Z" fill="url(#paint1_linear)"/>
    <path d="M337.56 208.245C334.96 212.744 331.077 215.752 325.913 217.27L272.472 231.572L286.92 285.56C288.438 290.723 291.446 294.603 295.946 297.201C299.448 299.116 303.139 299.962 307.019 299.738C308.101 299.72 309.276 299.541 310.544 299.202L329.943 294.01C335.141 292.619 340.087 293.333 344.782 296.151C349.569 298.808 352.658 302.735 354.049 307.931C355.473 313.253 354.775 318.261 351.955 322.955C350.098 326.168 347.686 328.579 344.72 330.188C343.3 330.975 341.766 331.589 340.118 332.03L320.339 337.324C319.198 337.629 318.218 338.027 317.398 338.518C313.925 340.263 311.149 342.839 309.072 346.247C308.329 347.532 307.747 348.91 307.325 350.381C306.811 352.013 306.521 353.72 306.455 355.503C306.287 356.906 306.389 358.305 306.762 359.699L323.399 421.862L376.84 407.559C380.297 406.77 383.624 406.762 386.82 407.536L386.973 408.107C387.26 408.166 387.484 408.241 387.645 408.334C389.116 408.755 390.495 409.337 391.781 410.079C395.189 412.155 397.766 414.929 399.51 418.4C400.001 419.22 400.399 420.199 400.705 421.34L405.996 441.11C406.437 442.758 407.051 444.291 407.838 445.71C409.447 448.675 411.858 451.085 415.072 452.941C419.767 455.759 424.776 456.456 430.101 455.03C435.3 453.639 439.229 450.551 441.888 445.765C444.708 441.071 445.423 436.127 444.032 430.931L438.843 411.541C438.503 410.273 438.325 409.099 438.307 408.017C438.093 404.679 438.708 401.391 440.151 398.153C440.337 397.831 440.569 397.43 440.847 396.948C443.448 392.449 447.33 389.441 452.495 387.923L505.936 373.62L489.299 311.458C488.926 310.064 488.316 308.801 487.47 307.669C486.522 306.158 485.418 304.824 484.157 303.667C483.057 302.603 481.864 301.7 480.579 300.958C477.077 299.043 473.386 298.197 469.506 298.421C468.55 298.405 467.502 298.55 466.361 298.855L446.582 304.149C444.934 304.59 443.298 304.824 441.675 304.851C438.302 304.939 435.008 304.055 431.794 302.199C427.007 299.541 423.901 295.551 422.476 290.228C421.086 285.032 421.801 280.088 424.621 275.395C427.28 270.609 431.209 267.52 436.407 266.129L455.806 260.937C457.073 260.598 458.181 260.166 459.127 259.641C462.6 257.896 465.376 255.32 467.453 251.912C470.053 247.414 470.721 242.549 469.457 237.319L455.009 183.331L401.568 197.633C396.335 198.898 391.469 198.231 386.97 195.633C386.487 195.354 386.069 195.059 385.713 194.746C382.88 192.789 380.722 190.31 379.24 187.312C378.715 186.366 378.283 185.259 377.944 183.992L372.755 164.602C371.364 159.406 368.275 155.479 363.488 152.822C358.793 150.004 353.847 149.29 348.649 150.682C343.324 152.107 339.331 155.212 336.672 159.998C334.815 163.212 333.93 166.504 334.017 169.876C334.043 171.499 334.277 173.134 334.718 174.781L340.009 194.552C340.315 195.692 340.459 196.74 340.443 197.695C340.691 201.16 340.013 204.465 338.409 207.61L338.206 206.85C338.054 207.298 337.839 207.763 337.56 208.245Z" fill="url(#paint2_linear)"/>
    <path d="M371.82 353.03L348.497 264.691L377.377 257.066C386.963 254.535 394.687 254.616 400.546 257.309C406.447 259.991 410.422 265.216 412.473 272.982C413.562 277.108 413.355 281.078 411.853 284.893C410.34 288.667 407.791 291.958 404.205 294.765C409.33 294.84 413.765 296.395 417.509 299.43C421.282 302.415 423.852 306.496 425.219 311.673C427.312 319.601 426.388 326.508 422.448 332.395C418.507 338.281 411.844 342.463 402.46 344.941L371.82 353.03ZM372.561 308.637L380.955 340.429L400.188 335.351C405.608 333.92 409.507 331.398 411.885 327.785C414.292 324.12 414.844 319.821 413.541 314.886C410.733 304.248 403.544 300.456 391.976 303.511L372.561 308.637ZM370.094 299.293L387.689 294.647C392.785 293.302 396.514 290.954 398.875 287.605C401.276 284.245 401.9 280.381 400.747 276.013C399.465 271.159 397.121 268.014 393.712 266.577C390.294 265.1 385.692 265.125 379.908 266.652L362.677 271.201L370.094 299.293Z" fill="black"/>
    <path d="M369.572 186.663C369.99 188.317 370.486 189.747 371.062 190.955C373.301 195.531 376.461 199.199 380.542 201.957C381.498 202.527 382.406 202.907 383.266 203.095C389.194 206.199 395.546 206.963 402.323 205.386L448.516 193.72L460.274 240.275C460.917 243.36 460.415 246.193 458.765 248.774L458.956 248.726C457.72 250.797 456.02 252.377 453.858 253.464C453.731 253.496 453.604 253.528 453.476 253.561C453.127 253.784 452.634 253.976 451.997 254.137L432.528 259.054C425.274 260.886 419.697 265.069 415.797 271.602C415.67 271.634 415.622 271.713 415.654 271.841C411.754 278.373 410.719 285.265 412.551 292.515C414.446 300.02 418.645 305.658 425.147 309.428L425.386 309.57C429.849 312.232 434.436 313.509 439.147 313.402C441.438 313.364 443.73 313.056 446.02 312.478L465.872 307.464C466.254 307.368 466.572 307.287 466.826 307.223C467.113 307.286 467.32 307.301 467.447 307.269C469.739 307.232 471.905 307.767 473.945 308.876L474.184 309.018C474.853 309.526 475.443 309.986 475.953 310.398L476.193 310.541C477.054 311.27 477.74 312.112 478.252 313.065C478.284 313.192 478.395 313.367 478.587 313.589C478.811 313.939 478.971 314.304 479.067 314.686L487.548 348.266C448.62 321.699 402.622 300.909 349.556 285.896C329.297 280.187 309.408 275.671 289.887 272.347L280.876 236.668L327.069 225.001C334.29 223.042 339.74 218.892 343.418 212.55C343.926 211.881 344.243 211.26 344.369 210.687C344.464 210.527 344.559 210.368 344.654 210.209C344.749 210.049 344.781 209.906 344.748 209.779C346.713 205.765 347.547 201.562 347.25 197.172L347.298 197.363C347.295 195.74 347.052 193.974 346.57 192.066L341.655 172.605C340.884 169.552 341.37 166.655 343.115 163.915C343.242 163.882 343.29 163.803 343.257 163.676C344.843 160.84 347.162 159.036 350.216 158.265C353.398 157.461 356.359 157.931 359.101 159.674C361.013 160.815 362.449 162.211 363.408 163.864C363.919 164.817 364.303 165.802 364.56 166.82L369.572 186.663Z" fill="url(#paint3_linear)"/>
    <defs>
        <linearGradient id="paint0_linear" x1="254.373" y1="248.347" x2="115.386" y2="123.783" gradientUnits="userSpaceOnUse">
            <stop stop-color="#50A7FC"/>
            <stop offset="1" stop-color="#0563BE"/>
        </linearGradient>
        <linearGradient id="paint1_linear" x1="189.573" y1="54.5755" x2="151.431" y2="236.865" gradientUnits="userSpaceOnUse">
            <stop stop-color="white"/>
            <stop offset="1" stop-color="white" stop-opacity="0.270588"/>
        </linearGradient>
        <linearGradient id="paint2_linear" x1="445.896" y1="459.051" x2="354.842" y2="166.126" gradientUnits="userSpaceOnUse">
            <stop stop-color="#F35D5D"/>
            <stop offset="1" stop-color="#BE0505"/>
        </linearGradient>
        <linearGradient id="paint3_linear" x1="441.457" y1="186.673" x2="390.512" y2="365.808" gradientUnits="userSpaceOnUse">
            <stop stop-color="white"/>
            <stop offset="1" stop-color="white" stop-opacity="0.270588"/>
        </linearGradient>
    </defs>
</svg>
