<svg width="527" height="314" viewBox="0 0 527 314" fill="none" xmlns="http://www.w3.org/2000/svg">
    <g filter="url(#filter0_i)">
        <path d="M456.156 174.039L493.07 253.141C496.586 260.432 499.516 265.25 501.859 267.594C504.203 269.807 507.784 271.305 512.602 272.086C521.977 273.518 526.664 278.271 526.664 286.344C526.664 295.849 520.935 302.685 509.477 306.852C498.018 311.018 479.268 313.102 453.227 313.102C423.799 313.102 401.99 311.865 387.797 309.391C381.286 308.219 376.078 305.875 372.172 302.359C368.396 298.714 366.508 294.352 366.508 289.273C366.508 285.367 367.484 282.372 369.438 280.289C371.521 278.076 375.297 276.057 380.766 274.234C386.885 272.151 389.945 268.635 389.945 263.688C389.945 254.964 384.672 249.82 374.125 248.258C362.797 246.695 346.846 245.914 326.273 245.914C308.956 245.914 298.604 246.956 295.219 249.039C293.135 250.341 291.312 252.685 289.75 256.07C288.188 259.456 287.406 262.711 287.406 265.836C287.406 268.701 287.927 270.589 288.969 271.5C290.141 272.281 293.786 273.648 299.906 275.602C307.849 277.945 311.82 282.633 311.82 289.664C311.82 305.159 293.266 312.906 256.156 312.906C235.062 312.906 219.568 311.474 209.672 308.609C200.557 305.875 196 299.885 196 290.641C196 286.604 196.977 283.479 198.93 281.266C201.013 279.052 204.659 277.034 209.867 275.211C218.331 272.216 224.711 268.049 229.008 262.711C233.435 257.242 239.685 245.654 247.758 227.945L275.297 167.594C285.453 145.458 292.224 128.922 295.609 117.984C299.125 106.917 300.948 96.1094 301.078 85.5625C301.208 74.3646 301.859 66.6172 303.031 62.3203C304.333 57.8932 307.133 53.5964 311.43 49.4297C320.414 40.3151 331.872 35.7578 345.805 35.7578C358.956 35.7578 371.521 40.901 383.5 51.1875C400.167 65.25 424.385 106.201 456.156 174.039ZM320.219 198.648H358.5C365.531 198.648 369.047 197.086 369.047 193.961C369.047 189.664 364.164 179.117 354.398 162.32C349.971 154.638 346.586 149.495 344.242 146.891C341.898 144.286 339.424 142.984 336.82 142.984C332.133 142.984 328.227 147.346 325.102 156.07C324.581 157.242 322.693 161.865 319.438 169.938C313.969 183.219 311.234 191.161 311.234 193.766C311.234 197.021 314.229 198.648 320.219 198.648Z" fill="url(#paint0_linear)"/>
    </g>
    <path fill-rule="evenodd" clip-rule="evenodd" d="M469.757 228.842L438.722 162.673C412.011 105.926 391.649 71.6704 377.637 59.907C367.566 51.3023 357.002 47 345.946 47C334.232 47 324.599 50.8122 317.045 58.4366C313.433 61.9221 311.079 65.5164 309.985 69.2197C308.999 72.8141 308.452 79.2948 308.343 88.662C308.233 97.4845 306.701 106.525 303.745 115.783C300.899 124.932 295.206 138.765 286.667 157.282L263.514 207.766C256.727 222.579 251.473 232.273 247.751 236.848C247.751 236.848 262.039 226.033 313.283 223.339C317.484 222.978 322.898 222.797 329.525 222.797C344.098 222.797 355.913 223.261 364.968 224.189C414.373 228.31 467.128 240.179 482.042 243.696C480.006 243.008 478.374 242.086 477.146 240.932C475.175 238.972 472.712 234.942 469.757 228.842ZM367.858 206H312.899C304.3 206 300 203.661 300 198.982C300 195.24 303.926 183.825 311.777 164.737C316.45 153.135 319.161 146.491 319.909 144.807C324.395 132.269 330.003 126 336.733 126C340.472 126 344.024 127.871 347.389 131.614C350.753 135.357 355.614 142.749 361.97 153.789C375.99 177.93 383 193.088 383 199.263C383 203.754 377.953 206 367.858 206Z" fill="url(#paint1_linear)"/>
    <path d="M360.662 21.7819C379.423 39.2913 360.662 79 360.662 79H322.882V21.7819C322.882 21.7819 341.901 4.27258 360.662 21.7819Z" fill="#FFFAFA" stroke="black"/>
    <path d="M335.4 79C335.4 79 332.106 38.7283 335.4 35.9022C338.694 33.0761 342.647 30.9565 350.553 35.9022C358.459 40.8478 350.553 79 350.553 79H335.4Z" fill="black" stroke="black"/>
    <path d="M265.338 21.7819C246.577 39.2913 265.338 79 265.338 79H303.118V21.7819C303.118 21.7819 284.099 4.27258 265.338 21.7819Z" fill="#FFFAFA" stroke="black"/>
    <path d="M290.6 79C290.6 79 293.894 38.7283 290.6 35.9022C287.306 33.0761 283.353 30.9565 275.447 35.9022C267.541 40.8478 275.447 79 275.447 79H290.6Z" fill="black" stroke="black"/>
    <path d="M223.205 113.594L223.128 113.905L223.379 114.104L305.489 179.647L173.022 173.883L172.888 173.877L172.769 173.94C155.455 182.982 134.965 188.214 113 188.214C50.7778 188.214 0.5 146.27 0.5 94.7135C0.5 43.1571 50.7778 1.21353 113 1.21353C175.222 1.21353 225.5 43.1571 225.5 94.7135C225.5 101.182 224.71 107.496 223.205 113.594Z" fill="white" stroke="black"/>
    <path d="M101.195 106.235C101.195 99.1064 102.001 93.4912 103.612 89.3896C105.224 85.2393 107.836 81.6504 111.449 78.623C115.062 75.5957 117.797 72.8369 119.652 70.3467C121.557 67.8076 122.509 65.0244 122.509 61.9971C122.509 54.624 119.335 50.9375 112.987 50.9375C110.058 50.9375 107.689 52.0117 105.883 54.1602C104.076 56.3086 103.124 59.2139 103.026 62.876H78.2705C78.3682 53.1104 81.4443 45.5176 87.499 40.0977C93.5537 34.6289 102.05 31.8945 112.987 31.8945C123.876 31.8945 132.299 34.4092 138.256 39.4385C144.262 44.4678 147.265 51.6211 147.265 60.8984C147.265 64.9512 146.459 68.6377 144.848 71.958C143.236 75.2783 140.648 78.6719 137.084 82.1387L128.661 89.9756C126.269 92.2705 124.608 94.6387 123.681 97.0801C122.753 99.4727 122.24 102.524 122.143 106.235H101.195ZM98.1924 128.501C98.1924 124.888 99.4863 121.934 102.074 119.639C104.711 117.295 107.982 116.123 111.889 116.123C115.795 116.123 119.042 117.295 121.63 119.639C124.267 121.934 125.585 124.888 125.585 128.501C125.585 132.114 124.267 135.093 121.63 137.437C119.042 139.731 115.795 140.879 111.889 140.879C107.982 140.879 104.711 139.731 102.074 137.437C99.4863 135.093 98.1924 132.114 98.1924 128.501Z" fill="black"/>
    <defs>
        <filter id="filter0_i" x="192" y="35.7578" width="334.664" height="285.344" filterUnits="userSpaceOnUse" color-interpolation-filters="sRGB">
            <feFlood flood-opacity="0" result="BackgroundImageFix"/>
            <feBlend mode="normal" in="SourceGraphic" in2="BackgroundImageFix" result="shape"/>
            <feColorMatrix in="SourceAlpha" type="matrix" values="0 0 0 0 0 0 0 0 0 0 0 0 0 0 0 0 0 0 127 0" result="hardAlpha"/>
            <feOffset dx="-4" dy="8"/>
            <feGaussianBlur stdDeviation="10"/>
            <feComposite in2="hardAlpha" operator="arithmetic" k2="-1" k3="1"/>
            <feColorMatrix type="matrix" values="0 0 0 0 0 0 0 0 0 0 0 0 0 0 0 0 0 0 0.25 0"/>
            <feBlend mode="normal" in2="shape" result="effect1_innerShadow"/>
        </filter>
        <linearGradient id="paint0_linear" x1="312.664" y1="-5.14061" x2="450.5" y2="345" gradientUnits="userSpaceOnUse">
            <stop stop-color="#247210"/>
            <stop offset="1" stop-color="#33FF00"/>
        </linearGradient>
        <linearGradient id="paint1_linear" x1="329.492" y1="38.184" x2="383.202" y2="278.795" gradientUnits="userSpaceOnUse">
            <stop stop-color="white" stop-opacity="0.81"/>
            <stop offset="0.993401" stop-color="#FFF7F7" stop-opacity="0.17"/>
        </linearGradient>
    </defs>
</svg>
